G75*
%MOIN*%
%OFA0B0*%
%FSLAX25Y25*%
%IPPOS*%
%LPD*%
%AMOC8*
5,1,8,0,0,1.08239X$1,22.5*
%
%ADD10R,0.02375X0.02965*%
%ADD11R,0.02965X0.02965*%
%ADD12R,0.03162X0.02375*%
%ADD13R,0.06706X0.10249*%
%ADD14C,0.02769*%
%ADD15C,0.03400*%
%ADD16R,0.07808X0.06902*%
%ADD17R,0.05800X0.03000*%
%ADD18R,0.03000X0.05800*%
%ADD19R,0.21272X0.09068*%
%ADD20R,0.08674X0.07493*%
%ADD21C,0.08477*%
%ADD22R,0.07800X0.20800*%
%ADD23R,0.06800X0.03800*%
%ADD24R,0.05600X0.09600*%
%ADD25R,0.14973X0.09461*%
%ADD26R,0.03950X0.06312*%
%ADD27C,0.06600*%
%ADD28R,0.03937X0.06299*%
%ADD29R,0.05800X0.03300*%
%ADD30C,0.04000*%
%ADD31R,0.12414X0.04737*%
%ADD32R,0.01981X0.03753*%
%ADD33R,0.05524X0.05524*%
%ADD34R,0.04737X0.05131*%
%ADD35R,0.05131X0.04737*%
%ADD36OC8,0.06000*%
%ADD37C,0.06800*%
%ADD38R,0.02454X0.04087*%
%ADD39R,0.06312X0.02375*%
%ADD40C,0.04146*%
%ADD41R,0.07800X0.46800*%
%ADD42R,0.03162X0.09461*%
%ADD43R,0.09461X0.04146*%
%ADD44R,0.04934X0.04737*%
%ADD45R,0.07887X0.03950*%
%ADD46R,0.04343X0.07099*%
%ADD47C,0.01075*%
%ADD48R,0.03556X0.04343*%
%ADD49C,0.05280*%
%ADD50C,0.04800*%
%ADD51OC8,0.17792*%
D10*
X0096209Y0126209D03*
X0099950Y0126209D03*
X0103690Y0126209D03*
D11*
X0103690Y0135265D03*
X0099950Y0135265D03*
X0096209Y0135265D03*
D12*
X0501013Y0024162D03*
X0501013Y0020225D03*
X0501013Y0016288D03*
X0512036Y0016288D03*
X0512036Y0020225D03*
X0512036Y0024162D03*
D13*
X0506524Y0020225D03*
D14*
X0504556Y0020225D03*
D15*
X0396839Y0166796D03*
X0386839Y0166796D03*
X0376839Y0166796D03*
X0366839Y0166796D03*
X0356839Y0166796D03*
X0346839Y0166796D03*
X0336839Y0166796D03*
X0326839Y0166796D03*
X0326839Y0199796D03*
X0336839Y0199796D03*
X0346839Y0199796D03*
X0346839Y0199796D03*
X0346839Y0199796D03*
X0356839Y0199796D03*
X0366839Y0199796D03*
X0376839Y0199796D03*
X0386839Y0199796D03*
X0396839Y0199796D03*
D16*
X0278926Y0077194D03*
X0268926Y0077194D03*
X0250501Y0078493D03*
X0240501Y0078493D03*
X0221170Y0078769D03*
X0211170Y0078769D03*
X0191170Y0078887D03*
X0181170Y0078887D03*
X0161879Y0078769D03*
X0151879Y0078769D03*
X0131091Y0078769D03*
X0121091Y0078769D03*
X0121091Y0041209D03*
X0131091Y0041209D03*
X0151879Y0041209D03*
X0161879Y0041209D03*
X0181170Y0041328D03*
X0191170Y0041328D03*
X0211170Y0041209D03*
X0221170Y0041209D03*
X0240501Y0040934D03*
X0250501Y0040934D03*
X0268926Y0039635D03*
X0278926Y0039635D03*
X0296367Y0037824D03*
X0306367Y0037824D03*
X0306367Y0075383D03*
X0296367Y0075383D03*
D17*
X0299251Y0125383D03*
X0299251Y0128532D03*
X0299251Y0131682D03*
X0299251Y0134831D03*
X0299251Y0137981D03*
X0299251Y0141131D03*
X0299251Y0144280D03*
X0299251Y0147430D03*
X0265451Y0147430D03*
X0265451Y0144280D03*
X0265451Y0141131D03*
X0265451Y0137981D03*
X0265451Y0134831D03*
X0265451Y0131682D03*
X0265451Y0128532D03*
X0265451Y0125383D03*
D18*
X0271328Y0119506D03*
X0274477Y0119506D03*
X0277627Y0119506D03*
X0280776Y0119506D03*
X0283926Y0119506D03*
X0287076Y0119506D03*
X0290225Y0119506D03*
X0293375Y0119506D03*
X0293375Y0153306D03*
X0290225Y0153306D03*
X0287076Y0153306D03*
X0283926Y0153306D03*
X0280776Y0153306D03*
X0277627Y0153306D03*
X0274477Y0153306D03*
X0271328Y0153306D03*
D19*
X0164556Y0163414D03*
X0164556Y0178375D03*
D20*
X0172312Y0108611D03*
X0154202Y0108611D03*
D21*
X0196367Y0115698D03*
X0196367Y0194438D03*
D22*
X0234083Y0158635D03*
X0234083Y0120635D03*
D23*
X0270658Y0184300D03*
X0290658Y0184300D03*
X0290658Y0199300D03*
X0270658Y0199300D03*
D24*
X0418133Y0151057D03*
X0427233Y0151057D03*
X0436333Y0151057D03*
D25*
X0427233Y0175457D03*
D26*
X0168154Y0133040D03*
X0156154Y0133040D03*
D27*
X0161054Y0139956D02*
X0163254Y0139956D01*
X0161054Y0139956D02*
X0161054Y0148526D01*
X0163254Y0148526D01*
X0163254Y0139956D01*
X0163254Y0146555D02*
X0161054Y0146555D01*
D28*
X0162154Y0132745D03*
D29*
X0186505Y0132115D03*
X0186505Y0142115D03*
X0186505Y0152115D03*
X0211505Y0152115D03*
X0211505Y0142115D03*
X0211505Y0132115D03*
X0447213Y0183769D03*
X0447213Y0193769D03*
X0447213Y0203769D03*
X0472213Y0203769D03*
X0472213Y0193769D03*
X0472213Y0183769D03*
D30*
X0459713Y0187769D03*
X0459713Y0199769D03*
X0199005Y0148115D03*
X0199005Y0136115D03*
D31*
X0139280Y0152509D03*
X0120383Y0152509D03*
X0120658Y0106603D03*
X0139556Y0106603D03*
D32*
X0103394Y0173355D03*
X0100835Y0173355D03*
X0098276Y0173355D03*
X0095717Y0173355D03*
X0095717Y0196387D03*
X0098276Y0196387D03*
X0100835Y0196387D03*
X0103394Y0196387D03*
D33*
X0062784Y0177666D03*
X0054438Y0177548D03*
X0054438Y0169280D03*
X0062784Y0169398D03*
X0384595Y0122745D03*
X0384595Y0114477D03*
X0477036Y0129831D03*
X0485304Y0129831D03*
D34*
X0248217Y0145068D03*
X0248217Y0151761D03*
X0247627Y0126249D03*
X0247627Y0119556D03*
X0192666Y0171446D03*
X0192666Y0178139D03*
X0087469Y0160776D03*
X0087469Y0154083D03*
X0072509Y0170422D03*
X0072509Y0177115D03*
X0044831Y0177548D03*
X0044831Y0170855D03*
X0078611Y0105107D03*
X0078611Y0098414D03*
X0101682Y0098965D03*
X0101682Y0105658D03*
X0100816Y0078611D03*
X0100816Y0071918D03*
D35*
X0072548Y0068217D03*
X0065855Y0068217D03*
X0060225Y0095343D03*
X0053532Y0095343D03*
X0036446Y0094989D03*
X0029753Y0094989D03*
X0121485Y0021918D03*
X0128178Y0021918D03*
X0152863Y0020658D03*
X0159556Y0020658D03*
X0180973Y0020973D03*
X0187666Y0020973D03*
X0212351Y0021249D03*
X0219044Y0021249D03*
X0241564Y0021761D03*
X0248257Y0021761D03*
X0270383Y0022351D03*
X0277076Y0022351D03*
X0297627Y0022981D03*
X0304320Y0022981D03*
X0321367Y0091524D03*
X0328060Y0091524D03*
X0341249Y0091879D03*
X0347942Y0091879D03*
X0385580Y0096564D03*
X0392272Y0096564D03*
X0391091Y0133572D03*
X0384398Y0133572D03*
X0320146Y0151800D03*
X0313454Y0151800D03*
X0220816Y0180186D03*
X0214123Y0180186D03*
X0509635Y0127824D03*
X0516328Y0127824D03*
D36*
X0359910Y0135304D03*
X0309910Y0135304D03*
D37*
X0052233Y0026217D02*
X0052233Y0020217D01*
X0062233Y0020217D02*
X0062233Y0026217D01*
X0072233Y0026217D02*
X0072233Y0020217D01*
X0082233Y0020217D02*
X0082233Y0026217D01*
X0092233Y0026217D02*
X0092233Y0020217D01*
X0102233Y0020217D02*
X0102233Y0026217D01*
X0091170Y0038997D02*
X0091170Y0044997D01*
X0081170Y0044997D02*
X0081170Y0038997D01*
X0071170Y0038997D02*
X0071170Y0044997D01*
X0061170Y0044997D02*
X0061170Y0038997D01*
X0051170Y0038997D02*
X0051170Y0044997D01*
X0314398Y0113209D02*
X0314398Y0119209D01*
X0324398Y0119209D02*
X0324398Y0113209D01*
X0334398Y0113209D02*
X0334398Y0119209D01*
X0344398Y0119209D02*
X0344398Y0113209D01*
X0354398Y0113209D02*
X0354398Y0119209D01*
D38*
X0069300Y0121643D03*
X0064300Y0121643D03*
X0059300Y0121643D03*
X0054300Y0121643D03*
X0054300Y0141957D03*
X0059300Y0141957D03*
X0064300Y0141957D03*
X0069300Y0141957D03*
D39*
X0032430Y0136918D03*
X0032430Y0134359D03*
X0032430Y0131800D03*
X0032430Y0129241D03*
X0032430Y0126682D03*
D40*
X0030461Y0124320D03*
X0030461Y0139280D03*
D41*
X0021800Y0131800D03*
D42*
X0329694Y0067942D03*
X0334694Y0067942D03*
X0339694Y0067942D03*
X0344694Y0067942D03*
X0349694Y0067942D03*
X0354694Y0067942D03*
X0359694Y0067942D03*
X0364694Y0067942D03*
X0364694Y0031721D03*
X0359694Y0031721D03*
X0354694Y0031721D03*
X0349694Y0031721D03*
X0344694Y0031721D03*
X0339694Y0031721D03*
X0334694Y0031721D03*
X0329694Y0031721D03*
D43*
X0399202Y0056032D03*
X0399202Y0066859D03*
D44*
X0405206Y0061446D03*
X0393198Y0061446D03*
D45*
X0404359Y0079162D03*
X0404359Y0083493D03*
X0404359Y0087824D03*
X0404359Y0092154D03*
X0404359Y0096485D03*
X0404359Y0108296D03*
X0404359Y0112627D03*
X0404359Y0116957D03*
X0404359Y0121288D03*
X0404359Y0125619D03*
X0404359Y0129950D03*
X0404359Y0134280D03*
X0451603Y0134280D03*
X0451603Y0129950D03*
X0451603Y0125619D03*
X0451603Y0121288D03*
X0451603Y0116957D03*
X0451603Y0112627D03*
X0451603Y0108296D03*
X0451603Y0096485D03*
X0451603Y0092154D03*
X0451603Y0087824D03*
X0451603Y0083493D03*
X0451603Y0079162D03*
D46*
X0495973Y0144044D03*
X0501879Y0144044D03*
X0507784Y0144044D03*
X0513690Y0144044D03*
X0519595Y0144044D03*
X0525501Y0144044D03*
X0531406Y0144044D03*
X0537312Y0144044D03*
X0537312Y0197194D03*
X0531406Y0197194D03*
X0525501Y0197194D03*
X0519595Y0197194D03*
X0513690Y0197194D03*
X0507784Y0197194D03*
X0501879Y0197194D03*
X0495973Y0197194D03*
D47*
X0393342Y0084715D02*
X0390116Y0084715D01*
X0390116Y0087941D01*
X0393342Y0087941D01*
X0393342Y0084715D01*
X0393342Y0085789D02*
X0390116Y0085789D01*
X0390116Y0086863D02*
X0393342Y0086863D01*
X0393342Y0087937D02*
X0390116Y0087937D01*
X0387342Y0084715D02*
X0384116Y0084715D01*
X0384116Y0087941D01*
X0387342Y0087941D01*
X0387342Y0084715D01*
X0387342Y0085789D02*
X0384116Y0085789D01*
X0384116Y0086863D02*
X0387342Y0086863D01*
X0387342Y0087937D02*
X0384116Y0087937D01*
D48*
X0386957Y0076485D03*
X0392076Y0076485D03*
D49*
X0345337Y0232448D03*
X0351602Y0235736D03*
X0355621Y0241558D03*
X0356474Y0248582D03*
X0353965Y0255197D03*
X0348669Y0259889D03*
X0341800Y0261582D03*
X0334931Y0259889D03*
X0329635Y0255197D03*
X0327126Y0248582D03*
X0327979Y0241558D03*
X0331998Y0235736D03*
X0338263Y0232448D03*
X0275621Y0241558D03*
X0271602Y0235736D03*
X0265337Y0232448D03*
X0258263Y0232448D03*
X0251998Y0235736D03*
X0247979Y0241558D03*
X0247126Y0248582D03*
X0249635Y0255197D03*
X0254931Y0259889D03*
X0261800Y0261582D03*
X0268669Y0259889D03*
X0273965Y0255197D03*
X0276474Y0248582D03*
X0166474Y0248582D03*
X0165621Y0241558D03*
X0161602Y0235736D03*
X0155337Y0232448D03*
X0148263Y0232448D03*
X0141998Y0235736D03*
X0137979Y0241558D03*
X0137126Y0248582D03*
X0139635Y0255197D03*
X0144931Y0259889D03*
X0151800Y0261582D03*
X0158669Y0259889D03*
X0163965Y0255197D03*
X0086474Y0248582D03*
X0085621Y0241558D03*
X0081602Y0235736D03*
X0075337Y0232448D03*
X0068263Y0232448D03*
X0061998Y0235736D03*
X0057979Y0241558D03*
X0057126Y0248582D03*
X0059635Y0255197D03*
X0064931Y0259889D03*
X0071800Y0261582D03*
X0078669Y0259889D03*
X0083965Y0255197D03*
X0437126Y0248582D03*
X0437979Y0241558D03*
X0441998Y0235736D03*
X0448263Y0232448D03*
X0455337Y0232448D03*
X0461602Y0235736D03*
X0465621Y0241558D03*
X0466474Y0248582D03*
X0463965Y0255197D03*
X0458669Y0259889D03*
X0451800Y0261582D03*
X0444931Y0259889D03*
X0439635Y0255197D03*
X0517126Y0248582D03*
X0517979Y0241558D03*
X0521998Y0235736D03*
X0528263Y0232448D03*
X0535337Y0232448D03*
X0541602Y0235736D03*
X0545621Y0241558D03*
X0546474Y0248582D03*
X0543965Y0255197D03*
X0538669Y0259889D03*
X0531800Y0261582D03*
X0524931Y0259889D03*
X0519635Y0255197D03*
D50*
X0519000Y0260700D03*
X0516300Y0268800D03*
X0503700Y0270600D03*
X0496500Y0277800D03*
X0484800Y0268800D03*
X0479400Y0268800D03*
X0474900Y0249000D03*
X0481200Y0233700D03*
X0474000Y0231900D03*
X0448800Y0222900D03*
X0442500Y0212100D03*
X0501900Y0186900D03*
X0510900Y0190500D03*
X0417300Y0175200D03*
X0363300Y0157200D03*
X0363300Y0151800D03*
X0352500Y0151800D03*
X0350700Y0160800D03*
X0339900Y0133800D03*
X0304800Y0128400D03*
X0286800Y0125700D03*
X0274200Y0125700D03*
X0259800Y0132900D03*
X0278700Y0138300D03*
X0287700Y0136500D03*
X0304800Y0141900D03*
X0286800Y0147300D03*
X0281400Y0147300D03*
X0267000Y0157200D03*
X0276900Y0163500D03*
X0301200Y0157200D03*
X0259800Y0148200D03*
X0257100Y0143700D03*
X0287700Y0111300D03*
X0250800Y0095100D03*
X0242700Y0098700D03*
X0243600Y0105000D03*
X0231900Y0105000D03*
X0218400Y0095100D03*
X0189600Y0113100D03*
X0144600Y0101400D03*
X0134700Y0101400D03*
X0130200Y0093300D03*
X0112200Y0095100D03*
X0100500Y0093300D03*
X0093300Y0064500D03*
X0154500Y0086100D03*
X0212100Y0062700D03*
X0222000Y0055500D03*
X0227400Y0055500D03*
X0235500Y0051000D03*
X0251700Y0053700D03*
X0263400Y0049200D03*
X0266100Y0053700D03*
X0279600Y0055500D03*
X0273300Y0069000D03*
X0256200Y0072600D03*
X0244500Y0065400D03*
X0289500Y0078000D03*
X0318300Y0078900D03*
X0325500Y0071700D03*
X0344400Y0079800D03*
X0340800Y0087000D03*
X0352500Y0096900D03*
X0359700Y0106800D03*
X0378600Y0115800D03*
X0397500Y0118500D03*
X0437100Y0122100D03*
X0445200Y0119400D03*
X0486600Y0105900D03*
X0413700Y0071700D03*
X0410100Y0075300D03*
X0334500Y0060000D03*
X0325500Y0086100D03*
X0318300Y0086100D03*
X0327300Y0098700D03*
X0204000Y0037500D03*
X0219300Y0034800D03*
X0231000Y0017700D03*
X0276900Y0033000D03*
X0128400Y0026700D03*
X0100500Y0130200D03*
X0096900Y0139200D03*
X0069000Y0147300D03*
X0093300Y0154500D03*
X0103200Y0164400D03*
X0141900Y0137400D03*
X0182400Y0177000D03*
X0219300Y0185100D03*
X0224700Y0190500D03*
X0230100Y0190500D03*
X0266100Y0179700D03*
X0301200Y0212100D03*
X0298500Y0217500D03*
X0306600Y0222900D03*
X0328200Y0231900D03*
X0317400Y0237300D03*
X0299400Y0240900D03*
X0281400Y0240900D03*
X0280500Y0233700D03*
X0250800Y0230100D03*
X0242700Y0224700D03*
X0232800Y0221100D03*
X0223800Y0225600D03*
X0225600Y0231000D03*
X0220200Y0234600D03*
X0205800Y0234600D03*
X0173400Y0236400D03*
X0132900Y0221100D03*
X0111300Y0228300D03*
X0120300Y0231900D03*
X0122100Y0248100D03*
X0113100Y0251700D03*
X0132000Y0260700D03*
X0136500Y0263400D03*
X0121200Y0261600D03*
X0112200Y0270600D03*
X0139200Y0274200D03*
X0164400Y0265200D03*
X0238200Y0252600D03*
X0291300Y0272400D03*
X0323700Y0259800D03*
X0366000Y0232800D03*
X0375900Y0231900D03*
X0381300Y0245400D03*
X0353400Y0229200D03*
X0351600Y0219300D03*
X0357900Y0219300D03*
X0439800Y0260700D03*
X0435300Y0267000D03*
X0413700Y0277800D03*
X0554100Y0256200D03*
X0108600Y0201300D03*
X0080700Y0213900D03*
X0073500Y0221100D03*
X0511800Y0029400D03*
D51*
X0567076Y0025737D03*
X0566091Y0280619D03*
X0033690Y0281013D03*
X0029477Y0027706D03*
M02*
