G75*
%MOIN*%
%OFA0B0*%
%FSLAX25Y25*%
%IPPOS*%
%LPD*%
%AMOC8*
5,1,8,0,0,1.08239X$1,22.5*
%
%ADD10R,0.01575X0.02165*%
%ADD11R,0.02165X0.02165*%
%ADD12R,0.02362X0.01575*%
%ADD13R,0.05906X0.09449*%
%ADD14C,0.01969*%
%ADD15C,0.07500*%
%ADD16R,0.07008X0.06102*%
%ADD17R,0.05000X0.02200*%
%ADD18R,0.02200X0.05000*%
%ADD19R,0.20472X0.08268*%
%ADD20R,0.07874X0.06693*%
%ADD21C,0.07677*%
%ADD22R,0.07000X0.20000*%
%ADD23R,0.06000X0.03000*%
%ADD24R,0.04800X0.08800*%
%ADD25R,0.14173X0.08661*%
%ADD26R,0.03150X0.05512*%
%ADD27R,0.03150X0.07480*%
%ADD28C,0.06000*%
%ADD29R,0.05000X0.02500*%
%ADD30R,0.11614X0.03937*%
%ADD31R,0.01181X0.02953*%
%ADD32R,0.04724X0.04724*%
%ADD33R,0.03937X0.04331*%
%ADD34R,0.04331X0.03937*%
%ADD35OC8,0.05200*%
%ADD36R,0.01654X0.03287*%
%ADD37R,0.05512X0.01575*%
%ADD38R,0.07000X0.46000*%
%ADD39R,0.02362X0.08661*%
%ADD40R,0.08661X0.03346*%
%ADD41R,0.04134X0.03937*%
%ADD42R,0.07087X0.03150*%
%ADD43R,0.03543X0.06299*%
%ADD44C,0.00875*%
%ADD45R,0.02756X0.03543*%
%ADD46C,0.04480*%
%ADD47C,0.01600*%
%ADD48C,0.01000*%
%ADD49C,0.04000*%
%ADD50OC8,0.16992*%
D10*
X0096209Y0126209D03*
X0099950Y0126209D03*
X0103690Y0126209D03*
D11*
X0103690Y0135265D03*
X0099950Y0135265D03*
X0096209Y0135265D03*
D12*
X0501013Y0024162D03*
X0501013Y0020225D03*
X0501013Y0016288D03*
X0512036Y0016288D03*
X0512036Y0020225D03*
X0512036Y0024162D03*
D13*
X0506524Y0020225D03*
D14*
X0504556Y0020225D03*
D15*
X0396839Y0166796D03*
X0386839Y0166796D03*
X0376839Y0166796D03*
X0366839Y0166796D03*
X0356839Y0166796D03*
X0346839Y0166796D03*
X0336839Y0166796D03*
X0326839Y0166796D03*
X0326839Y0199796D03*
X0336839Y0199796D03*
X0346839Y0199796D03*
X0356839Y0199796D03*
X0366839Y0199796D03*
X0376839Y0199796D03*
X0386839Y0199796D03*
X0396839Y0199796D03*
D16*
X0278926Y0077194D03*
X0268926Y0077194D03*
X0250501Y0078493D03*
X0240501Y0078493D03*
X0221170Y0078769D03*
X0211170Y0078769D03*
X0191170Y0078887D03*
X0181170Y0078887D03*
X0161879Y0078769D03*
X0151879Y0078769D03*
X0131091Y0078769D03*
X0121091Y0078769D03*
X0121091Y0041209D03*
X0131091Y0041209D03*
X0151879Y0041209D03*
X0161879Y0041209D03*
X0181170Y0041328D03*
X0191170Y0041328D03*
X0211170Y0041209D03*
X0221170Y0041209D03*
X0240501Y0040934D03*
X0250501Y0040934D03*
X0268926Y0039635D03*
X0278926Y0039635D03*
X0296367Y0037824D03*
X0306367Y0037824D03*
X0306367Y0075383D03*
X0296367Y0075383D03*
D17*
X0299251Y0125383D03*
X0299251Y0128532D03*
X0299251Y0131682D03*
X0299251Y0134831D03*
X0299251Y0137981D03*
X0299251Y0141131D03*
X0299251Y0144280D03*
X0299251Y0147430D03*
X0265451Y0147430D03*
X0265451Y0144280D03*
X0265451Y0141131D03*
X0265451Y0137981D03*
X0265451Y0134831D03*
X0265451Y0131682D03*
X0265451Y0128532D03*
X0265451Y0125383D03*
D18*
X0271328Y0119506D03*
X0274477Y0119506D03*
X0277627Y0119506D03*
X0280776Y0119506D03*
X0283926Y0119506D03*
X0287076Y0119506D03*
X0290225Y0119506D03*
X0293375Y0119506D03*
X0293375Y0153306D03*
X0290225Y0153306D03*
X0287076Y0153306D03*
X0283926Y0153306D03*
X0280776Y0153306D03*
X0277627Y0153306D03*
X0274477Y0153306D03*
X0271328Y0153306D03*
D19*
X0164556Y0163414D03*
X0164556Y0178375D03*
D20*
X0172312Y0108611D03*
X0154202Y0108611D03*
D21*
X0196367Y0115698D03*
X0196367Y0194438D03*
D22*
X0234083Y0158635D03*
X0234083Y0120635D03*
D23*
X0270658Y0184300D03*
X0290658Y0184300D03*
X0290658Y0199300D03*
X0270658Y0199300D03*
D24*
X0418133Y0151057D03*
X0427233Y0151057D03*
X0436333Y0151057D03*
D25*
X0427233Y0175457D03*
D26*
X0168154Y0133040D03*
X0156154Y0133040D03*
D27*
X0162154Y0134040D03*
D28*
X0163154Y0140056D02*
X0161154Y0140056D01*
X0161154Y0148426D01*
X0163154Y0148426D01*
X0163154Y0140056D01*
X0163154Y0146055D02*
X0161154Y0146055D01*
X0314398Y0119209D02*
X0314398Y0113209D01*
X0324398Y0113209D02*
X0324398Y0119209D01*
X0334398Y0119209D02*
X0334398Y0113209D01*
X0344398Y0113209D02*
X0344398Y0119209D01*
X0354398Y0119209D02*
X0354398Y0113209D01*
X0102233Y0026217D02*
X0102233Y0020217D01*
X0092233Y0020217D02*
X0092233Y0026217D01*
X0082233Y0026217D02*
X0082233Y0020217D01*
X0072233Y0020217D02*
X0072233Y0026217D01*
X0062233Y0026217D02*
X0062233Y0020217D01*
X0052233Y0020217D02*
X0052233Y0026217D01*
X0051170Y0038997D02*
X0051170Y0044997D01*
X0061170Y0044997D02*
X0061170Y0038997D01*
X0071170Y0038997D02*
X0071170Y0044997D01*
X0081170Y0044997D02*
X0081170Y0038997D01*
X0091170Y0038997D02*
X0091170Y0044997D01*
D29*
X0186505Y0132115D03*
X0186505Y0142115D03*
X0186505Y0152115D03*
X0211505Y0152115D03*
X0211505Y0142115D03*
X0211505Y0132115D03*
X0447213Y0183769D03*
X0447213Y0193769D03*
X0447213Y0203769D03*
X0472213Y0203769D03*
X0472213Y0193769D03*
X0472213Y0183769D03*
D30*
X0139280Y0152509D03*
X0120383Y0152509D03*
X0120658Y0106603D03*
X0139556Y0106603D03*
D31*
X0103394Y0173355D03*
X0100835Y0173355D03*
X0098276Y0173355D03*
X0095717Y0173355D03*
X0095717Y0196387D03*
X0098276Y0196387D03*
X0100835Y0196387D03*
X0103394Y0196387D03*
D32*
X0062784Y0177666D03*
X0054438Y0177548D03*
X0054438Y0169280D03*
X0062784Y0169398D03*
X0384595Y0122745D03*
X0384595Y0114477D03*
X0477036Y0129831D03*
X0485304Y0129831D03*
D33*
X0248217Y0145068D03*
X0248217Y0151761D03*
X0247627Y0126249D03*
X0247627Y0119556D03*
X0192666Y0171446D03*
X0192666Y0178139D03*
X0087469Y0160776D03*
X0087469Y0154083D03*
X0072509Y0170422D03*
X0072509Y0177115D03*
X0044831Y0177548D03*
X0044831Y0170855D03*
X0078611Y0105107D03*
X0078611Y0098414D03*
X0101682Y0098965D03*
X0101682Y0105658D03*
X0100816Y0078611D03*
X0100816Y0071918D03*
D34*
X0072548Y0068217D03*
X0065855Y0068217D03*
X0060225Y0095343D03*
X0053532Y0095343D03*
X0036446Y0094989D03*
X0029753Y0094989D03*
X0121485Y0021918D03*
X0128178Y0021918D03*
X0152863Y0020658D03*
X0159556Y0020658D03*
X0180973Y0020973D03*
X0187666Y0020973D03*
X0212351Y0021249D03*
X0219044Y0021249D03*
X0241564Y0021761D03*
X0248257Y0021761D03*
X0270383Y0022351D03*
X0277076Y0022351D03*
X0297627Y0022981D03*
X0304320Y0022981D03*
X0321367Y0091524D03*
X0328060Y0091524D03*
X0341249Y0091879D03*
X0347942Y0091879D03*
X0385580Y0096564D03*
X0392272Y0096564D03*
X0391091Y0133572D03*
X0384398Y0133572D03*
X0320146Y0151800D03*
X0313454Y0151800D03*
X0220816Y0180186D03*
X0214123Y0180186D03*
X0509635Y0127824D03*
X0516328Y0127824D03*
D35*
X0359910Y0135304D03*
X0309910Y0135304D03*
D36*
X0069300Y0141957D03*
X0064300Y0141957D03*
X0059300Y0141957D03*
X0054300Y0141957D03*
X0054300Y0121643D03*
X0059300Y0121643D03*
X0064300Y0121643D03*
X0069300Y0121643D03*
D37*
X0032430Y0126682D03*
X0032430Y0129241D03*
X0032430Y0131800D03*
X0032430Y0134359D03*
X0032430Y0136918D03*
D38*
X0021800Y0131800D03*
D39*
X0329694Y0067942D03*
X0334694Y0067942D03*
X0339694Y0067942D03*
X0344694Y0067942D03*
X0349694Y0067942D03*
X0354694Y0067942D03*
X0359694Y0067942D03*
X0364694Y0067942D03*
X0364694Y0031721D03*
X0359694Y0031721D03*
X0354694Y0031721D03*
X0349694Y0031721D03*
X0344694Y0031721D03*
X0339694Y0031721D03*
X0334694Y0031721D03*
X0329694Y0031721D03*
D40*
X0399202Y0056032D03*
X0399202Y0066859D03*
D41*
X0405206Y0061446D03*
X0393198Y0061446D03*
D42*
X0404359Y0079162D03*
X0404359Y0083493D03*
X0404359Y0087824D03*
X0404359Y0092154D03*
X0404359Y0096485D03*
X0404359Y0108296D03*
X0404359Y0112627D03*
X0404359Y0116957D03*
X0404359Y0121288D03*
X0404359Y0125619D03*
X0404359Y0129950D03*
X0404359Y0134280D03*
X0451603Y0134280D03*
X0451603Y0129950D03*
X0451603Y0125619D03*
X0451603Y0121288D03*
X0451603Y0116957D03*
X0451603Y0112627D03*
X0451603Y0108296D03*
X0451603Y0096485D03*
X0451603Y0092154D03*
X0451603Y0087824D03*
X0451603Y0083493D03*
X0451603Y0079162D03*
D43*
X0495973Y0144044D03*
X0501879Y0144044D03*
X0507784Y0144044D03*
X0513690Y0144044D03*
X0519595Y0144044D03*
X0525501Y0144044D03*
X0531406Y0144044D03*
X0537312Y0144044D03*
X0537312Y0197194D03*
X0531406Y0197194D03*
X0525501Y0197194D03*
X0519595Y0197194D03*
X0513690Y0197194D03*
X0507784Y0197194D03*
X0501879Y0197194D03*
X0495973Y0197194D03*
D44*
X0393042Y0085015D02*
X0390416Y0085015D01*
X0390416Y0087641D01*
X0393042Y0087641D01*
X0393042Y0085015D01*
X0393042Y0085889D02*
X0390416Y0085889D01*
X0390416Y0086763D02*
X0393042Y0086763D01*
X0393042Y0087637D02*
X0390416Y0087637D01*
X0387042Y0085015D02*
X0384416Y0085015D01*
X0384416Y0087641D01*
X0387042Y0087641D01*
X0387042Y0085015D01*
X0387042Y0085889D02*
X0384416Y0085889D01*
X0384416Y0086763D02*
X0387042Y0086763D01*
X0387042Y0087637D02*
X0384416Y0087637D01*
D45*
X0386957Y0076485D03*
X0392076Y0076485D03*
D46*
X0345337Y0232448D03*
X0351602Y0235736D03*
X0355621Y0241558D03*
X0356474Y0248582D03*
X0353965Y0255197D03*
X0348669Y0259889D03*
X0341800Y0261582D03*
X0334931Y0259889D03*
X0329635Y0255197D03*
X0327126Y0248582D03*
X0327979Y0241558D03*
X0331998Y0235736D03*
X0338263Y0232448D03*
X0275621Y0241558D03*
X0271602Y0235736D03*
X0265337Y0232448D03*
X0258263Y0232448D03*
X0251998Y0235736D03*
X0247979Y0241558D03*
X0247126Y0248582D03*
X0249635Y0255197D03*
X0254931Y0259889D03*
X0261800Y0261582D03*
X0268669Y0259889D03*
X0273965Y0255197D03*
X0276474Y0248582D03*
X0166474Y0248582D03*
X0165621Y0241558D03*
X0161602Y0235736D03*
X0155337Y0232448D03*
X0148263Y0232448D03*
X0141998Y0235736D03*
X0137979Y0241558D03*
X0137126Y0248582D03*
X0139635Y0255197D03*
X0144931Y0259889D03*
X0151800Y0261582D03*
X0158669Y0259889D03*
X0163965Y0255197D03*
X0086474Y0248582D03*
X0085621Y0241558D03*
X0081602Y0235736D03*
X0075337Y0232448D03*
X0068263Y0232448D03*
X0061998Y0235736D03*
X0057979Y0241558D03*
X0057126Y0248582D03*
X0059635Y0255197D03*
X0064931Y0259889D03*
X0071800Y0261582D03*
X0078669Y0259889D03*
X0083965Y0255197D03*
X0437126Y0248582D03*
X0437979Y0241558D03*
X0441998Y0235736D03*
X0448263Y0232448D03*
X0455337Y0232448D03*
X0461602Y0235736D03*
X0465621Y0241558D03*
X0466474Y0248582D03*
X0463965Y0255197D03*
X0458669Y0259889D03*
X0451800Y0261582D03*
X0444931Y0259889D03*
X0439635Y0255197D03*
X0517126Y0248582D03*
X0517979Y0241558D03*
X0521998Y0235736D03*
X0528263Y0232448D03*
X0535337Y0232448D03*
X0541602Y0235736D03*
X0545621Y0241558D03*
X0546474Y0248582D03*
X0543965Y0255197D03*
X0538669Y0259889D03*
X0531800Y0261582D03*
X0524931Y0259889D03*
X0519635Y0255197D03*
D47*
X0033659Y0017609D02*
X0026813Y0017609D01*
X0030298Y0015281D01*
X0034717Y0013451D01*
X0039408Y0012517D01*
X0039408Y0012517D01*
X0041800Y0012400D01*
X0466829Y0012400D01*
X0466200Y0014746D01*
X0466200Y0037914D01*
X0467053Y0039972D01*
X0468628Y0041547D01*
X0470686Y0042400D01*
X0476800Y0042400D01*
X0477374Y0042438D01*
X0478484Y0042735D01*
X0479479Y0043309D01*
X0480291Y0044121D01*
X0480865Y0045116D01*
X0481162Y0046226D01*
X0481200Y0046800D01*
X0481200Y0097914D01*
X0481565Y0098795D01*
X0457200Y0074430D01*
X0455970Y0073200D01*
X0416975Y0073200D01*
X0417300Y0072416D01*
X0417300Y0070984D01*
X0416752Y0069661D01*
X0415800Y0068709D01*
X0415800Y0060030D01*
X0414570Y0058800D01*
X0376770Y0021000D01*
X0308085Y0021000D01*
X0308085Y0020350D01*
X0307148Y0019413D01*
X0301492Y0019413D01*
X0300973Y0019931D01*
X0300455Y0019413D01*
X0294799Y0019413D01*
X0293861Y0020350D01*
X0293861Y0025612D01*
X0294799Y0026550D01*
X0295500Y0026550D01*
X0295500Y0033172D01*
X0292200Y0033172D01*
X0291263Y0034110D01*
X0291263Y0041538D01*
X0292200Y0042475D01*
X0300534Y0042475D01*
X0301278Y0041730D01*
X0301423Y0041980D01*
X0301758Y0042315D01*
X0302168Y0042552D01*
X0302626Y0042675D01*
X0305641Y0042675D01*
X0305641Y0038549D01*
X0307093Y0038549D01*
X0311671Y0038549D01*
X0311671Y0041112D01*
X0311548Y0041570D01*
X0311311Y0041980D01*
X0310976Y0042315D01*
X0310566Y0042552D01*
X0310108Y0042675D01*
X0307093Y0042675D01*
X0307093Y0038549D01*
X0307093Y0037098D01*
X0311671Y0037098D01*
X0311671Y0034535D01*
X0311548Y0034078D01*
X0311311Y0033667D01*
X0310976Y0033332D01*
X0310566Y0033095D01*
X0310108Y0032972D01*
X0307093Y0032972D01*
X0307093Y0037098D01*
X0305641Y0037098D01*
X0305641Y0032972D01*
X0302626Y0032972D01*
X0302168Y0033095D01*
X0301758Y0033332D01*
X0301423Y0033667D01*
X0301278Y0033917D01*
X0300534Y0033172D01*
X0299700Y0033172D01*
X0299700Y0026550D01*
X0300455Y0026550D01*
X0300973Y0026031D01*
X0301492Y0026550D01*
X0307148Y0026550D01*
X0308085Y0025612D01*
X0308085Y0025200D01*
X0375030Y0025200D01*
X0402389Y0052559D01*
X0399238Y0052559D01*
X0399238Y0055996D01*
X0399238Y0056069D01*
X0399165Y0056069D01*
X0399165Y0059505D01*
X0396865Y0059505D01*
X0396865Y0063386D01*
X0399165Y0063386D01*
X0399165Y0066822D01*
X0399238Y0066822D01*
X0399238Y0063386D01*
X0401539Y0063386D01*
X0401539Y0059505D01*
X0399238Y0059505D01*
X0399238Y0056069D01*
X0405332Y0056069D01*
X0405332Y0057877D01*
X0407707Y0057877D01*
X0405332Y0055502D01*
X0405332Y0055996D01*
X0399238Y0055996D01*
X0399165Y0055996D01*
X0393071Y0055996D01*
X0393071Y0054122D01*
X0393194Y0053664D01*
X0393430Y0053254D01*
X0393766Y0052919D01*
X0394176Y0052682D01*
X0394634Y0052559D01*
X0399165Y0052559D01*
X0399165Y0055996D01*
X0399165Y0056069D01*
X0393071Y0056069D01*
X0393071Y0057877D01*
X0390468Y0057877D01*
X0389531Y0058814D01*
X0389531Y0064077D01*
X0390468Y0065014D01*
X0393071Y0065014D01*
X0393071Y0066822D01*
X0399165Y0066822D01*
X0399165Y0066896D01*
X0399165Y0070332D01*
X0394634Y0070332D01*
X0394176Y0070210D01*
X0393766Y0069973D01*
X0393430Y0069638D01*
X0393194Y0069227D01*
X0393071Y0068769D01*
X0393071Y0066896D01*
X0399165Y0066896D01*
X0399238Y0066896D01*
X0399238Y0070332D01*
X0403098Y0070332D01*
X0398430Y0075000D01*
X0397200Y0076230D01*
X0397200Y0084000D01*
X0394908Y0084000D01*
X0393886Y0082978D01*
X0389573Y0082978D01*
X0388729Y0083821D01*
X0387900Y0082992D01*
X0387900Y0079857D01*
X0388998Y0079857D01*
X0389375Y0079480D01*
X0389592Y0079697D01*
X0390003Y0079934D01*
X0390461Y0080057D01*
X0392076Y0080057D01*
X0392076Y0076485D01*
X0392076Y0076485D01*
X0395254Y0076485D01*
X0395254Y0078494D01*
X0395131Y0078951D01*
X0394894Y0079362D01*
X0394559Y0079697D01*
X0394148Y0079934D01*
X0393691Y0080057D01*
X0392076Y0080057D01*
X0392076Y0076485D01*
X0395254Y0076485D01*
X0395254Y0074476D01*
X0395131Y0074019D01*
X0394894Y0073608D01*
X0394559Y0073273D01*
X0394148Y0073036D01*
X0393691Y0072913D01*
X0392076Y0072913D01*
X0392076Y0076485D01*
X0392076Y0076485D01*
X0392076Y0076485D01*
X0392076Y0072913D01*
X0390461Y0072913D01*
X0390003Y0073036D01*
X0389592Y0073273D01*
X0389375Y0073490D01*
X0388998Y0073113D01*
X0384917Y0073113D01*
X0383980Y0074051D01*
X0383980Y0076851D01*
X0383700Y0077130D01*
X0383700Y0082978D01*
X0383573Y0082978D01*
X0382379Y0084171D01*
X0382379Y0088484D01*
X0383573Y0089678D01*
X0385508Y0089678D01*
X0389135Y0093305D01*
X0388926Y0093514D01*
X0388408Y0092995D01*
X0382751Y0092995D01*
X0381814Y0093933D01*
X0381814Y0099195D01*
X0382751Y0100132D01*
X0386062Y0100132D01*
X0387300Y0101370D01*
X0388530Y0102600D01*
X0401070Y0102600D01*
X0404010Y0099660D01*
X0408565Y0099660D01*
X0409502Y0098723D01*
X0409502Y0090227D01*
X0409580Y0090093D01*
X0409702Y0089635D01*
X0409702Y0087824D01*
X0404359Y0087824D01*
X0404359Y0087824D01*
X0409702Y0087824D01*
X0409702Y0086012D01*
X0409580Y0085554D01*
X0409502Y0085420D01*
X0409502Y0081566D01*
X0409580Y0081432D01*
X0409702Y0080974D01*
X0409702Y0079162D01*
X0404359Y0079162D01*
X0404359Y0079162D01*
X0404359Y0075787D01*
X0403582Y0075787D01*
X0407700Y0071670D01*
X0407700Y0065014D01*
X0407935Y0065014D01*
X0408872Y0064077D01*
X0408872Y0059042D01*
X0411600Y0061770D01*
X0411600Y0068709D01*
X0410648Y0069661D01*
X0410100Y0070984D01*
X0410100Y0071700D01*
X0409384Y0071700D01*
X0408061Y0072248D01*
X0407048Y0073261D01*
X0406500Y0074584D01*
X0406500Y0075787D01*
X0404359Y0075787D01*
X0404359Y0079162D01*
X0404359Y0079162D01*
X0409702Y0079162D01*
X0409702Y0078900D01*
X0410816Y0078900D01*
X0412139Y0078352D01*
X0413091Y0077400D01*
X0446260Y0077400D01*
X0446260Y0079162D01*
X0451603Y0079162D01*
X0451603Y0079162D01*
X0446260Y0079162D01*
X0446260Y0080974D01*
X0446383Y0081432D01*
X0446460Y0081566D01*
X0446460Y0098723D01*
X0447397Y0099660D01*
X0455809Y0099660D01*
X0456746Y0098723D01*
X0456746Y0081566D01*
X0456824Y0081432D01*
X0456946Y0080974D01*
X0456946Y0080116D01*
X0481230Y0104400D01*
X0483325Y0104400D01*
X0483000Y0105184D01*
X0483000Y0106616D01*
X0483548Y0107939D01*
X0484561Y0108952D01*
X0485884Y0109500D01*
X0487316Y0109500D01*
X0488639Y0108952D01*
X0489652Y0107939D01*
X0490200Y0106616D01*
X0490200Y0105184D01*
X0489875Y0104400D01*
X0494670Y0104400D01*
X0495900Y0103170D01*
X0495900Y0103170D01*
X0504900Y0094170D01*
X0504900Y0038430D01*
X0504000Y0037530D01*
X0504000Y0026750D01*
X0505848Y0026750D01*
X0505848Y0022487D01*
X0506020Y0022416D01*
X0506747Y0021689D01*
X0507073Y0020902D01*
X0507201Y0020902D01*
X0507201Y0026750D01*
X0509359Y0026750D01*
X0508748Y0027361D01*
X0508200Y0028684D01*
X0508200Y0030116D01*
X0508748Y0031439D01*
X0509761Y0032452D01*
X0510763Y0032867D01*
X0510030Y0033600D01*
X0508800Y0034830D01*
X0508800Y0111270D01*
X0536825Y0139294D01*
X0534877Y0139294D01*
X0534359Y0139813D01*
X0533841Y0139294D01*
X0531064Y0139294D01*
X0520093Y0128323D01*
X0520093Y0125192D01*
X0519156Y0124255D01*
X0513499Y0124255D01*
X0512981Y0124773D01*
X0512463Y0124255D01*
X0506807Y0124255D01*
X0505869Y0125192D01*
X0505869Y0126300D01*
X0488760Y0126300D01*
X0488329Y0125869D01*
X0482279Y0125869D01*
X0481342Y0126807D01*
X0481342Y0132856D01*
X0482279Y0133794D01*
X0488329Y0133794D01*
X0489266Y0132856D01*
X0489266Y0130500D01*
X0505914Y0130500D01*
X0506807Y0131392D01*
X0512463Y0131392D01*
X0512981Y0130874D01*
X0513499Y0131392D01*
X0517222Y0131392D01*
X0525125Y0139294D01*
X0523066Y0139294D01*
X0522548Y0139813D01*
X0522030Y0139294D01*
X0517161Y0139294D01*
X0516784Y0139671D01*
X0516567Y0139454D01*
X0516156Y0139217D01*
X0515698Y0139094D01*
X0513776Y0139094D01*
X0513776Y0143958D01*
X0513604Y0143958D01*
X0513604Y0139094D01*
X0511681Y0139094D01*
X0511223Y0139217D01*
X0510813Y0139454D01*
X0510596Y0139671D01*
X0510219Y0139294D01*
X0505350Y0139294D01*
X0504831Y0139813D01*
X0504313Y0139294D01*
X0499444Y0139294D01*
X0498926Y0139813D01*
X0498408Y0139294D01*
X0493539Y0139294D01*
X0492602Y0140232D01*
X0492602Y0141600D01*
X0464970Y0141600D01*
X0459000Y0135630D01*
X0459000Y0131130D01*
X0457200Y0129330D01*
X0456746Y0128877D01*
X0456746Y0106059D01*
X0455809Y0105121D01*
X0447397Y0105121D01*
X0446460Y0106059D01*
X0446460Y0113700D01*
X0442530Y0113700D01*
X0441300Y0114930D01*
X0437730Y0118500D01*
X0436384Y0118500D01*
X0435061Y0119048D01*
X0434048Y0120061D01*
X0433500Y0121384D01*
X0433500Y0122816D01*
X0434048Y0124139D01*
X0435061Y0125152D01*
X0436384Y0125700D01*
X0437816Y0125700D01*
X0439139Y0125152D01*
X0440152Y0124139D01*
X0440700Y0122816D01*
X0440700Y0121470D01*
X0441733Y0120437D01*
X0442148Y0121439D01*
X0443161Y0122452D01*
X0444484Y0123000D01*
X0445916Y0123000D01*
X0446460Y0122775D01*
X0446460Y0131877D01*
X0446383Y0132011D01*
X0446260Y0132469D01*
X0446260Y0134280D01*
X0451603Y0134280D01*
X0451603Y0134280D01*
X0446260Y0134280D01*
X0446260Y0136092D01*
X0446383Y0136550D01*
X0446619Y0136960D01*
X0446955Y0137295D01*
X0447365Y0137532D01*
X0447823Y0137655D01*
X0451603Y0137655D01*
X0451603Y0134280D01*
X0451603Y0134280D01*
X0451603Y0137655D01*
X0452775Y0137655D01*
X0445800Y0144630D01*
X0445800Y0180919D01*
X0444051Y0180919D01*
X0443113Y0181856D01*
X0443113Y0182744D01*
X0439200Y0178830D01*
X0439200Y0157057D01*
X0439396Y0157057D01*
X0440333Y0156119D01*
X0440333Y0145994D01*
X0439396Y0145057D01*
X0433270Y0145057D01*
X0432333Y0145994D01*
X0432333Y0156119D01*
X0433270Y0157057D01*
X0435000Y0157057D01*
X0435000Y0169544D01*
X0434982Y0169527D01*
X0429300Y0169527D01*
X0429300Y0161730D01*
X0424770Y0157200D01*
X0424913Y0157057D01*
X0430296Y0157057D01*
X0431233Y0156119D01*
X0431233Y0145994D01*
X0430296Y0145057D01*
X0424170Y0145057D01*
X0423233Y0145994D01*
X0423233Y0152797D01*
X0422333Y0153697D01*
X0422333Y0151457D01*
X0418533Y0151457D01*
X0418533Y0150657D01*
X0422333Y0150657D01*
X0422333Y0146420D01*
X0422210Y0145962D01*
X0421973Y0145551D01*
X0421638Y0145216D01*
X0421228Y0144979D01*
X0420770Y0144857D01*
X0418533Y0144857D01*
X0418533Y0150657D01*
X0417733Y0150657D01*
X0413933Y0150657D01*
X0413933Y0146420D01*
X0414056Y0145962D01*
X0414293Y0145551D01*
X0414628Y0145216D01*
X0415038Y0144979D01*
X0415496Y0144857D01*
X0417733Y0144857D01*
X0417733Y0150657D01*
X0417733Y0151457D01*
X0413933Y0151457D01*
X0413933Y0155100D01*
X0402870Y0155100D01*
X0384910Y0137140D01*
X0387227Y0137140D01*
X0387745Y0136622D01*
X0388263Y0137140D01*
X0393919Y0137140D01*
X0394857Y0136203D01*
X0394857Y0134913D01*
X0399216Y0130554D01*
X0399216Y0136518D01*
X0400153Y0137455D01*
X0408565Y0137455D01*
X0409502Y0136518D01*
X0409502Y0110700D01*
X0409580Y0110566D01*
X0409702Y0110108D01*
X0409702Y0108296D01*
X0404359Y0108296D01*
X0404359Y0108296D01*
X0404359Y0104921D01*
X0400579Y0104921D01*
X0400121Y0105044D01*
X0399711Y0105281D01*
X0399375Y0105616D01*
X0399138Y0106026D01*
X0399016Y0106484D01*
X0399016Y0108296D01*
X0404359Y0108296D01*
X0404359Y0108296D01*
X0404359Y0104921D01*
X0408139Y0104921D01*
X0408597Y0105044D01*
X0409008Y0105281D01*
X0409343Y0105616D01*
X0409580Y0106026D01*
X0409702Y0106484D01*
X0409702Y0108296D01*
X0404359Y0108296D01*
X0399016Y0108296D01*
X0399016Y0110108D01*
X0399138Y0110566D01*
X0399216Y0110700D01*
X0399216Y0115314D01*
X0398216Y0114900D01*
X0396784Y0114900D01*
X0395461Y0115448D01*
X0394509Y0116400D01*
X0388757Y0116400D01*
X0388757Y0114858D01*
X0384976Y0114858D01*
X0384976Y0114096D01*
X0384976Y0110315D01*
X0387194Y0110315D01*
X0387652Y0110438D01*
X0388063Y0110675D01*
X0388398Y0111010D01*
X0388635Y0111420D01*
X0388757Y0111878D01*
X0388757Y0114096D01*
X0384976Y0114096D01*
X0384214Y0114096D01*
X0384214Y0110315D01*
X0381996Y0110315D01*
X0381538Y0110438D01*
X0381128Y0110675D01*
X0380793Y0111010D01*
X0380556Y0111420D01*
X0380433Y0111878D01*
X0380433Y0112663D01*
X0379316Y0112200D01*
X0377884Y0112200D01*
X0377100Y0112525D01*
X0377100Y0069930D01*
X0375870Y0068700D01*
X0366870Y0059700D01*
X0363270Y0059700D01*
X0341222Y0037652D01*
X0341538Y0037652D01*
X0342194Y0036996D01*
X0342850Y0037652D01*
X0346538Y0037652D01*
X0347058Y0037132D01*
X0347072Y0037157D01*
X0347407Y0037492D01*
X0347818Y0037729D01*
X0348276Y0037852D01*
X0349694Y0037852D01*
X0349694Y0031721D01*
X0349694Y0031721D01*
X0354694Y0031721D01*
X0354694Y0031721D01*
X0356713Y0031721D01*
X0359694Y0031721D01*
X0359694Y0031721D01*
X0361713Y0031721D01*
X0364694Y0031721D01*
X0364694Y0031721D01*
X0367675Y0031721D01*
X0367675Y0027154D01*
X0367552Y0026696D01*
X0367315Y0026285D01*
X0366980Y0025950D01*
X0366570Y0025713D01*
X0366112Y0025591D01*
X0364694Y0025591D01*
X0364694Y0031721D01*
X0364694Y0031721D01*
X0367675Y0031721D01*
X0367675Y0036289D01*
X0367552Y0036747D01*
X0367315Y0037157D01*
X0366980Y0037492D01*
X0366570Y0037729D01*
X0366112Y0037852D01*
X0364694Y0037852D01*
X0364694Y0031721D01*
X0364694Y0025591D01*
X0363276Y0025591D01*
X0362818Y0025713D01*
X0362407Y0025950D01*
X0362194Y0026164D01*
X0361980Y0025950D01*
X0361570Y0025713D01*
X0361112Y0025591D01*
X0359694Y0025591D01*
X0359694Y0031721D01*
X0359694Y0031721D01*
X0364694Y0031721D01*
X0364694Y0031721D01*
X0364694Y0031721D01*
X0364694Y0037852D01*
X0363276Y0037852D01*
X0362818Y0037729D01*
X0362407Y0037492D01*
X0362194Y0037279D01*
X0361980Y0037492D01*
X0361570Y0037729D01*
X0361112Y0037852D01*
X0359694Y0037852D01*
X0359694Y0031721D01*
X0359694Y0025591D01*
X0358276Y0025591D01*
X0357818Y0025713D01*
X0357407Y0025950D01*
X0357194Y0026164D01*
X0356980Y0025950D01*
X0356570Y0025713D01*
X0356112Y0025591D01*
X0354694Y0025591D01*
X0354694Y0031721D01*
X0354694Y0031721D01*
X0359694Y0031721D01*
X0359694Y0031721D01*
X0359694Y0031721D01*
X0359694Y0037852D01*
X0358276Y0037852D01*
X0357818Y0037729D01*
X0357407Y0037492D01*
X0357194Y0037279D01*
X0356980Y0037492D01*
X0356570Y0037729D01*
X0356112Y0037852D01*
X0354694Y0037852D01*
X0354694Y0031721D01*
X0354694Y0025591D01*
X0353276Y0025591D01*
X0352818Y0025713D01*
X0352407Y0025950D01*
X0352194Y0026164D01*
X0351980Y0025950D01*
X0351570Y0025713D01*
X0351112Y0025591D01*
X0349694Y0025591D01*
X0349694Y0031721D01*
X0349694Y0031721D01*
X0352675Y0031721D01*
X0354694Y0031721D01*
X0354694Y0031721D01*
X0354694Y0031721D01*
X0354694Y0037852D01*
X0353276Y0037852D01*
X0352818Y0037729D01*
X0352407Y0037492D01*
X0352194Y0037279D01*
X0351980Y0037492D01*
X0351570Y0037729D01*
X0351112Y0037852D01*
X0349694Y0037852D01*
X0349694Y0031721D01*
X0349694Y0025591D01*
X0348276Y0025591D01*
X0347818Y0025713D01*
X0347407Y0025950D01*
X0347072Y0026285D01*
X0347058Y0026311D01*
X0346538Y0025791D01*
X0342850Y0025791D01*
X0342194Y0026447D01*
X0341538Y0025791D01*
X0337850Y0025791D01*
X0337194Y0026447D01*
X0336538Y0025791D01*
X0332850Y0025791D01*
X0332194Y0026447D01*
X0331538Y0025791D01*
X0327850Y0025791D01*
X0326913Y0026728D01*
X0326913Y0036715D01*
X0327850Y0037652D01*
X0331538Y0037652D01*
X0332194Y0036996D01*
X0332850Y0037652D01*
X0335282Y0037652D01*
X0359441Y0061811D01*
X0358276Y0061811D01*
X0357818Y0061934D01*
X0357407Y0062171D01*
X0357194Y0062384D01*
X0356980Y0062171D01*
X0356570Y0061934D01*
X0356112Y0061811D01*
X0354694Y0061811D01*
X0354694Y0067942D01*
X0359694Y0067942D01*
X0362675Y0067942D01*
X0364694Y0067942D01*
X0367675Y0067942D01*
X0367675Y0072509D01*
X0367552Y0072967D01*
X0367315Y0073378D01*
X0366980Y0073713D01*
X0366570Y0073950D01*
X0366112Y0074072D01*
X0364694Y0074072D01*
X0364694Y0067942D01*
X0364694Y0067942D01*
X0364694Y0067942D01*
X0367675Y0067942D01*
X0367675Y0066445D01*
X0372900Y0071670D01*
X0372900Y0107130D01*
X0351570Y0085800D01*
X0347970Y0085800D01*
X0338970Y0076800D01*
X0337230Y0076800D01*
X0321291Y0076800D01*
X0320339Y0075848D01*
X0319016Y0075300D01*
X0317584Y0075300D01*
X0316261Y0075848D01*
X0315248Y0076861D01*
X0314700Y0078184D01*
X0314700Y0079616D01*
X0315248Y0080939D01*
X0316261Y0081952D01*
X0317584Y0082500D01*
X0319016Y0082500D01*
X0320339Y0081952D01*
X0321291Y0081000D01*
X0337230Y0081000D01*
X0339763Y0083533D01*
X0338761Y0083948D01*
X0337748Y0084961D01*
X0337200Y0086284D01*
X0337200Y0087716D01*
X0337732Y0088999D01*
X0337483Y0089247D01*
X0337483Y0089400D01*
X0331825Y0089400D01*
X0331825Y0088893D01*
X0330888Y0087956D01*
X0328628Y0087956D01*
X0329100Y0086816D01*
X0329100Y0085384D01*
X0328552Y0084061D01*
X0327539Y0083048D01*
X0326216Y0082500D01*
X0324784Y0082500D01*
X0323461Y0083048D01*
X0322509Y0084000D01*
X0321291Y0084000D01*
X0320339Y0083048D01*
X0319016Y0082500D01*
X0317584Y0082500D01*
X0316261Y0083048D01*
X0315248Y0084061D01*
X0314700Y0085384D01*
X0314700Y0086816D01*
X0315248Y0088139D01*
X0316261Y0089152D01*
X0316860Y0089400D01*
X0314670Y0089400D01*
X0305504Y0080234D01*
X0305641Y0080234D01*
X0305641Y0076108D01*
X0307093Y0076108D01*
X0311671Y0076108D01*
X0311671Y0078671D01*
X0311548Y0079129D01*
X0311311Y0079539D01*
X0310976Y0079874D01*
X0310566Y0080111D01*
X0310108Y0080234D01*
X0307093Y0080234D01*
X0307093Y0076108D01*
X0307093Y0074657D01*
X0311671Y0074657D01*
X0311671Y0072095D01*
X0311548Y0071637D01*
X0311311Y0071226D01*
X0310976Y0070891D01*
X0310566Y0070654D01*
X0310108Y0070531D01*
X0307093Y0070531D01*
X0307093Y0074657D01*
X0305641Y0074657D01*
X0305641Y0070531D01*
X0305338Y0070531D01*
X0311970Y0063900D01*
X0326913Y0063900D01*
X0326913Y0067318D01*
X0326130Y0068100D01*
X0324784Y0068100D01*
X0323461Y0068648D01*
X0322448Y0069661D01*
X0321900Y0070984D01*
X0321900Y0072416D01*
X0322448Y0073739D01*
X0323461Y0074752D01*
X0324784Y0075300D01*
X0326216Y0075300D01*
X0327539Y0074752D01*
X0328419Y0073872D01*
X0331538Y0073872D01*
X0332194Y0073216D01*
X0332850Y0073872D01*
X0336538Y0073872D01*
X0337194Y0073216D01*
X0337850Y0073872D01*
X0341538Y0073872D01*
X0342058Y0073352D01*
X0342072Y0073378D01*
X0342407Y0073713D01*
X0342818Y0073950D01*
X0343276Y0074072D01*
X0344694Y0074072D01*
X0344694Y0067942D01*
X0349694Y0067942D01*
X0354694Y0067942D01*
X0354694Y0067942D01*
X0354694Y0067942D01*
X0354694Y0074072D01*
X0356112Y0074072D01*
X0356570Y0073950D01*
X0356980Y0073713D01*
X0357194Y0073499D01*
X0357407Y0073713D01*
X0357818Y0073950D01*
X0358276Y0074072D01*
X0359694Y0074072D01*
X0359694Y0067942D01*
X0359694Y0067942D01*
X0359694Y0067942D01*
X0364694Y0067942D01*
X0364694Y0074072D01*
X0363276Y0074072D01*
X0362818Y0073950D01*
X0362407Y0073713D01*
X0362194Y0073499D01*
X0361980Y0073713D01*
X0361570Y0073950D01*
X0361112Y0074072D01*
X0359694Y0074072D01*
X0359694Y0067942D01*
X0359694Y0067942D01*
X0356713Y0067942D01*
X0354694Y0067942D01*
X0354694Y0074072D01*
X0353276Y0074072D01*
X0352818Y0073950D01*
X0352407Y0073713D01*
X0352194Y0073499D01*
X0351980Y0073713D01*
X0351570Y0073950D01*
X0351112Y0074072D01*
X0349694Y0074072D01*
X0349694Y0067942D01*
X0349694Y0067942D01*
X0349694Y0067942D01*
X0351713Y0067942D01*
X0354694Y0067942D01*
X0354694Y0067942D01*
X0354694Y0067942D01*
X0354694Y0061811D01*
X0353276Y0061811D01*
X0352818Y0061934D01*
X0352407Y0062171D01*
X0352194Y0062384D01*
X0351980Y0062171D01*
X0351570Y0061934D01*
X0351112Y0061811D01*
X0349694Y0061811D01*
X0349694Y0067942D01*
X0349694Y0074072D01*
X0348276Y0074072D01*
X0347818Y0073950D01*
X0347407Y0073713D01*
X0347194Y0073499D01*
X0346980Y0073713D01*
X0346570Y0073950D01*
X0346112Y0074072D01*
X0344694Y0074072D01*
X0344694Y0067942D01*
X0344694Y0067942D01*
X0344694Y0067942D01*
X0346713Y0067942D01*
X0349694Y0067942D01*
X0349694Y0067942D01*
X0349694Y0067942D01*
X0349694Y0061811D01*
X0348276Y0061811D01*
X0347818Y0061934D01*
X0347407Y0062171D01*
X0347194Y0062384D01*
X0346980Y0062171D01*
X0346570Y0061934D01*
X0346112Y0061811D01*
X0344694Y0061811D01*
X0344694Y0067942D01*
X0344694Y0067942D01*
X0344694Y0061811D01*
X0343276Y0061811D01*
X0342818Y0061934D01*
X0342407Y0062171D01*
X0342072Y0062506D01*
X0342058Y0062531D01*
X0341538Y0062011D01*
X0341100Y0062011D01*
X0341100Y0058230D01*
X0333900Y0051030D01*
X0332670Y0049800D01*
X0276930Y0049800D01*
X0272430Y0054300D01*
X0271800Y0054930D01*
X0271800Y0049230D01*
X0270570Y0048000D01*
X0266856Y0044286D01*
X0273093Y0044286D01*
X0273837Y0043541D01*
X0273982Y0043791D01*
X0274317Y0044126D01*
X0274727Y0044363D01*
X0275185Y0044486D01*
X0278200Y0044486D01*
X0278200Y0040360D01*
X0279652Y0040360D01*
X0284230Y0040360D01*
X0284230Y0042923D01*
X0284107Y0043381D01*
X0283870Y0043791D01*
X0283535Y0044126D01*
X0283125Y0044363D01*
X0282667Y0044486D01*
X0279652Y0044486D01*
X0279652Y0040360D01*
X0279652Y0038909D01*
X0284230Y0038909D01*
X0284230Y0036346D01*
X0284107Y0035889D01*
X0283870Y0035478D01*
X0283535Y0035143D01*
X0283125Y0034906D01*
X0282667Y0034783D01*
X0280058Y0034783D01*
X0280500Y0033716D01*
X0280500Y0032284D01*
X0279952Y0030961D01*
X0279000Y0030009D01*
X0279000Y0025920D01*
X0279904Y0025920D01*
X0280841Y0024982D01*
X0280841Y0019720D01*
X0279904Y0018783D01*
X0274247Y0018783D01*
X0273729Y0019301D01*
X0273211Y0018783D01*
X0267555Y0018783D01*
X0266617Y0019720D01*
X0266617Y0024982D01*
X0267555Y0025920D01*
X0267600Y0025920D01*
X0267600Y0034983D01*
X0265500Y0034983D01*
X0265500Y0029430D01*
X0264270Y0028200D01*
X0251670Y0015600D01*
X0238230Y0015600D01*
X0237000Y0016830D01*
X0233400Y0020430D01*
X0233400Y0045570D01*
X0234630Y0046800D01*
X0234630Y0046800D01*
X0235230Y0047400D01*
X0234784Y0047400D01*
X0233461Y0047948D01*
X0232448Y0048961D01*
X0231900Y0050284D01*
X0231900Y0051716D01*
X0232448Y0053039D01*
X0233400Y0053991D01*
X0233400Y0073830D01*
X0229500Y0069930D01*
X0229500Y0058491D01*
X0230452Y0057539D01*
X0231000Y0056216D01*
X0231000Y0054784D01*
X0230452Y0053461D01*
X0229439Y0052448D01*
X0228116Y0051900D01*
X0226684Y0051900D01*
X0225361Y0052448D01*
X0224700Y0053109D01*
X0224039Y0052448D01*
X0222716Y0051900D01*
X0221284Y0051900D01*
X0219961Y0052448D01*
X0218948Y0053461D01*
X0218400Y0054784D01*
X0218400Y0056216D01*
X0218948Y0057539D01*
X0219900Y0058491D01*
X0219900Y0068970D01*
X0225047Y0074117D01*
X0217003Y0074117D01*
X0216170Y0074951D01*
X0215337Y0074117D01*
X0209387Y0074117D01*
X0207570Y0072300D01*
X0186030Y0072300D01*
X0184800Y0073530D01*
X0184095Y0074235D01*
X0177003Y0074235D01*
X0176066Y0075173D01*
X0176066Y0076800D01*
X0169830Y0076800D01*
X0166983Y0079647D01*
X0166983Y0075055D01*
X0166045Y0074117D01*
X0158987Y0074117D01*
X0149670Y0064800D01*
X0209109Y0064800D01*
X0210061Y0065752D01*
X0211384Y0066300D01*
X0212816Y0066300D01*
X0214139Y0065752D01*
X0215152Y0064739D01*
X0215700Y0063416D01*
X0215700Y0061984D01*
X0215152Y0060661D01*
X0214139Y0059648D01*
X0212816Y0059100D01*
X0211384Y0059100D01*
X0210061Y0059648D01*
X0209109Y0060600D01*
X0103170Y0060600D01*
X0092143Y0049573D01*
X0093776Y0048897D01*
X0095070Y0047603D01*
X0095770Y0045912D01*
X0095770Y0039800D01*
X0103500Y0032070D01*
X0103500Y0030672D01*
X0104839Y0030117D01*
X0106133Y0028823D01*
X0106833Y0027132D01*
X0106833Y0019302D01*
X0106133Y0017612D01*
X0104839Y0016318D01*
X0103148Y0015617D01*
X0101318Y0015617D01*
X0099627Y0016318D01*
X0098333Y0017612D01*
X0097633Y0019302D01*
X0097633Y0027132D01*
X0098333Y0028823D01*
X0099300Y0029790D01*
X0099300Y0030330D01*
X0094154Y0035476D01*
X0093776Y0035097D01*
X0092085Y0034397D01*
X0090255Y0034397D01*
X0088564Y0035097D01*
X0087616Y0036046D01*
X0086970Y0035400D01*
X0082387Y0030817D01*
X0083148Y0030817D01*
X0084839Y0030117D01*
X0086133Y0028823D01*
X0086833Y0027132D01*
X0086833Y0019302D01*
X0086133Y0017612D01*
X0084839Y0016318D01*
X0083148Y0015617D01*
X0081318Y0015617D01*
X0079627Y0016318D01*
X0078333Y0017612D01*
X0077633Y0019302D01*
X0077633Y0026063D01*
X0076833Y0025263D01*
X0076833Y0019302D01*
X0076133Y0017612D01*
X0074839Y0016318D01*
X0073148Y0015617D01*
X0071318Y0015617D01*
X0069627Y0016318D01*
X0068333Y0017612D01*
X0067633Y0019302D01*
X0067633Y0027132D01*
X0068333Y0028823D01*
X0069627Y0030117D01*
X0071318Y0030817D01*
X0073148Y0030817D01*
X0074839Y0030117D01*
X0075293Y0029663D01*
X0080094Y0034464D01*
X0078564Y0035097D01*
X0077270Y0036391D01*
X0076570Y0038082D01*
X0076570Y0043160D01*
X0075770Y0043960D01*
X0075770Y0038082D01*
X0075070Y0036391D01*
X0073776Y0035097D01*
X0072085Y0034397D01*
X0070255Y0034397D01*
X0068564Y0035097D01*
X0067270Y0036391D01*
X0066570Y0038082D01*
X0066570Y0045912D01*
X0067270Y0047603D01*
X0068564Y0048897D01*
X0070169Y0049561D01*
X0064200Y0055530D01*
X0064200Y0064649D01*
X0063027Y0064649D01*
X0062090Y0065586D01*
X0062090Y0068120D01*
X0058500Y0064530D01*
X0058500Y0048832D01*
X0058564Y0048897D01*
X0060255Y0049597D01*
X0062085Y0049597D01*
X0063776Y0048897D01*
X0065070Y0047603D01*
X0065770Y0045912D01*
X0065770Y0038082D01*
X0065070Y0036391D01*
X0063776Y0035097D01*
X0062085Y0034397D01*
X0060255Y0034397D01*
X0058564Y0035097D01*
X0058500Y0035162D01*
X0058500Y0030270D01*
X0059140Y0029630D01*
X0059627Y0030117D01*
X0061318Y0030817D01*
X0063148Y0030817D01*
X0064839Y0030117D01*
X0066133Y0028823D01*
X0066833Y0027132D01*
X0066833Y0019302D01*
X0066133Y0017612D01*
X0064839Y0016318D01*
X0063148Y0015617D01*
X0061318Y0015617D01*
X0059627Y0016318D01*
X0058333Y0017612D01*
X0057633Y0019302D01*
X0057633Y0025197D01*
X0057033Y0025797D01*
X0057033Y0023417D01*
X0052433Y0023417D01*
X0052433Y0023017D01*
X0052433Y0015417D01*
X0052611Y0015417D01*
X0053357Y0015536D01*
X0054076Y0015769D01*
X0054749Y0016112D01*
X0055360Y0016556D01*
X0055894Y0017090D01*
X0056338Y0017702D01*
X0056681Y0018375D01*
X0056915Y0019093D01*
X0057033Y0019840D01*
X0057033Y0023017D01*
X0052433Y0023017D01*
X0052033Y0023017D01*
X0052033Y0015417D01*
X0051855Y0015417D01*
X0051109Y0015536D01*
X0050391Y0015769D01*
X0049717Y0016112D01*
X0049106Y0016556D01*
X0048572Y0017090D01*
X0048128Y0017702D01*
X0047785Y0018375D01*
X0047551Y0019093D01*
X0047433Y0019840D01*
X0047433Y0023017D01*
X0052033Y0023017D01*
X0052033Y0023417D01*
X0047433Y0023417D01*
X0047433Y0026595D01*
X0047551Y0027341D01*
X0047785Y0028060D01*
X0048128Y0028733D01*
X0048572Y0029344D01*
X0049106Y0029879D01*
X0049717Y0030323D01*
X0050391Y0030666D01*
X0051109Y0030899D01*
X0051855Y0031017D01*
X0052033Y0031017D01*
X0052033Y0023417D01*
X0052433Y0023417D01*
X0052433Y0031017D01*
X0052611Y0031017D01*
X0053357Y0030899D01*
X0054076Y0030666D01*
X0054300Y0030551D01*
X0054300Y0035339D01*
X0054297Y0035336D01*
X0053686Y0034892D01*
X0053013Y0034549D01*
X0052294Y0034315D01*
X0051548Y0034197D01*
X0051370Y0034197D01*
X0051370Y0041797D01*
X0050970Y0041797D01*
X0046370Y0041797D01*
X0046370Y0038619D01*
X0046488Y0037873D01*
X0046722Y0037154D01*
X0047065Y0036481D01*
X0047509Y0035870D01*
X0048043Y0035336D01*
X0048654Y0034892D01*
X0049328Y0034549D01*
X0050046Y0034315D01*
X0050792Y0034197D01*
X0050970Y0034197D01*
X0050970Y0041797D01*
X0050970Y0042197D01*
X0050970Y0049797D01*
X0050792Y0049797D01*
X0050046Y0049679D01*
X0049328Y0049445D01*
X0048654Y0049102D01*
X0048043Y0048658D01*
X0047509Y0048124D01*
X0047065Y0047513D01*
X0046722Y0046839D01*
X0046488Y0046121D01*
X0046370Y0045375D01*
X0046370Y0042197D01*
X0050970Y0042197D01*
X0051370Y0042197D01*
X0051370Y0049797D01*
X0051548Y0049797D01*
X0052294Y0049679D01*
X0053013Y0049445D01*
X0053686Y0049102D01*
X0054297Y0048658D01*
X0054300Y0048655D01*
X0054300Y0066270D01*
X0055530Y0067500D01*
X0061830Y0073800D01*
X0069870Y0073800D01*
X0071100Y0072570D01*
X0071884Y0071786D01*
X0075376Y0071786D01*
X0076313Y0070849D01*
X0076313Y0070200D01*
X0097247Y0070200D01*
X0097247Y0074746D01*
X0097766Y0075265D01*
X0097247Y0075783D01*
X0097247Y0081439D01*
X0098184Y0082376D01*
X0098400Y0082376D01*
X0098400Y0090309D01*
X0097448Y0091261D01*
X0096900Y0092584D01*
X0096900Y0094016D01*
X0097448Y0095339D01*
X0098180Y0096071D01*
X0098113Y0096137D01*
X0098113Y0101793D01*
X0098632Y0102312D01*
X0098113Y0102830D01*
X0098113Y0108486D01*
X0099051Y0109424D01*
X0104313Y0109424D01*
X0105250Y0108486D01*
X0105250Y0105019D01*
X0111570Y0098700D01*
X0112916Y0098700D01*
X0114239Y0098152D01*
X0115252Y0097139D01*
X0115800Y0095816D01*
X0115800Y0094384D01*
X0115252Y0093061D01*
X0114239Y0092048D01*
X0112916Y0091500D01*
X0111484Y0091500D01*
X0110161Y0092048D01*
X0109148Y0093061D01*
X0108600Y0094384D01*
X0108600Y0095730D01*
X0105250Y0099080D01*
X0105250Y0096137D01*
X0104313Y0095200D01*
X0103610Y0095200D01*
X0104100Y0094016D01*
X0104100Y0092584D01*
X0103552Y0091261D01*
X0102600Y0090309D01*
X0102600Y0082376D01*
X0103447Y0082376D01*
X0104384Y0081439D01*
X0104384Y0078554D01*
X0129000Y0103170D01*
X0129000Y0104070D01*
X0131700Y0106770D01*
X0132149Y0107219D01*
X0132149Y0109234D01*
X0133086Y0110172D01*
X0146026Y0110172D01*
X0146100Y0110097D01*
X0146100Y0113070D01*
X0147330Y0114300D01*
X0159600Y0126570D01*
X0159600Y0129017D01*
X0159268Y0129349D01*
X0159169Y0129179D01*
X0158834Y0128844D01*
X0158424Y0128607D01*
X0157966Y0128484D01*
X0156154Y0128484D01*
X0156154Y0133040D01*
X0152780Y0133040D01*
X0152780Y0130047D01*
X0152902Y0129589D01*
X0153139Y0129179D01*
X0153474Y0128844D01*
X0153885Y0128607D01*
X0154343Y0128484D01*
X0156154Y0128484D01*
X0156154Y0133040D01*
X0156154Y0133040D01*
X0156154Y0133040D01*
X0152780Y0133040D01*
X0152780Y0136033D01*
X0152902Y0136491D01*
X0153139Y0136901D01*
X0153474Y0137236D01*
X0153885Y0137473D01*
X0154343Y0137596D01*
X0156154Y0137596D01*
X0156154Y0133040D01*
X0156154Y0133040D01*
X0156154Y0137596D01*
X0157194Y0137596D01*
X0156554Y0139141D01*
X0156554Y0149341D01*
X0157255Y0151032D01*
X0158549Y0152326D01*
X0160239Y0153026D01*
X0164069Y0153026D01*
X0165760Y0152326D01*
X0165900Y0152186D01*
X0165900Y0157680D01*
X0153657Y0157680D01*
X0152720Y0158618D01*
X0152720Y0165050D01*
X0146700Y0159030D01*
X0146700Y0159030D01*
X0145470Y0157800D01*
X0145470Y0157800D01*
X0143747Y0156077D01*
X0145750Y0156077D01*
X0146687Y0155140D01*
X0146687Y0149877D01*
X0145750Y0148940D01*
X0142200Y0148940D01*
X0142200Y0141000D01*
X0142616Y0141000D01*
X0143939Y0140452D01*
X0144952Y0139439D01*
X0145500Y0138116D01*
X0145500Y0136684D01*
X0144952Y0135361D01*
X0143939Y0134348D01*
X0142616Y0133800D01*
X0141184Y0133800D01*
X0139861Y0134348D01*
X0138848Y0135361D01*
X0138300Y0136684D01*
X0138300Y0138030D01*
X0138000Y0138330D01*
X0138000Y0148940D01*
X0132810Y0148940D01*
X0131873Y0149877D01*
X0131873Y0155140D01*
X0132810Y0156077D01*
X0138000Y0156077D01*
X0138000Y0156270D01*
X0141630Y0159900D01*
X0108900Y0192630D01*
X0108900Y0132930D01*
X0107670Y0131700D01*
X0106200Y0130230D01*
X0106200Y0127440D01*
X0106221Y0127418D01*
X0106200Y0126574D01*
X0106200Y0125730D01*
X0106179Y0125709D01*
X0106178Y0125679D01*
X0106077Y0125583D01*
X0106077Y0124464D01*
X0105140Y0123527D01*
X0102240Y0123527D01*
X0101820Y0123947D01*
X0101400Y0123527D01*
X0100397Y0123527D01*
X0082180Y0105310D01*
X0082180Y0102279D01*
X0081803Y0101902D01*
X0082020Y0101685D01*
X0082257Y0101274D01*
X0082380Y0100816D01*
X0082380Y0098598D01*
X0078795Y0098598D01*
X0078795Y0098230D01*
X0078795Y0094449D01*
X0080816Y0094449D01*
X0081274Y0094571D01*
X0081685Y0094808D01*
X0082020Y0095144D01*
X0082257Y0095554D01*
X0082380Y0096012D01*
X0082380Y0098230D01*
X0078795Y0098230D01*
X0078427Y0098230D01*
X0078427Y0094449D01*
X0076406Y0094449D01*
X0075948Y0094571D01*
X0075537Y0094808D01*
X0075202Y0095144D01*
X0074965Y0095554D01*
X0074843Y0096012D01*
X0074843Y0098230D01*
X0078427Y0098230D01*
X0078427Y0098598D01*
X0074843Y0098598D01*
X0074843Y0100816D01*
X0074965Y0101274D01*
X0075202Y0101685D01*
X0075419Y0101902D01*
X0075043Y0102279D01*
X0075043Y0107935D01*
X0075980Y0108872D01*
X0079803Y0108872D01*
X0094608Y0123678D01*
X0093822Y0124464D01*
X0093822Y0126218D01*
X0093738Y0126374D01*
X0093822Y0126652D01*
X0093822Y0127955D01*
X0093900Y0128033D01*
X0093900Y0130230D01*
X0092430Y0131700D01*
X0091200Y0132930D01*
X0091200Y0151509D01*
X0091193Y0151515D01*
X0091115Y0151223D01*
X0090878Y0150813D01*
X0090543Y0150478D01*
X0090133Y0150241D01*
X0089675Y0150118D01*
X0087654Y0150118D01*
X0087654Y0153899D01*
X0087285Y0153899D01*
X0087285Y0150118D01*
X0085264Y0150118D01*
X0084806Y0150241D01*
X0084396Y0150478D01*
X0084060Y0150813D01*
X0083823Y0151223D01*
X0083701Y0151681D01*
X0083701Y0153631D01*
X0071727Y0141657D01*
X0071727Y0139651D01*
X0070790Y0138714D01*
X0067810Y0138714D01*
X0066873Y0139651D01*
X0066873Y0144264D01*
X0066909Y0144300D01*
X0066600Y0144609D01*
X0066600Y0144391D01*
X0066727Y0144264D01*
X0066727Y0143189D01*
X0066744Y0143161D01*
X0066727Y0143088D01*
X0066727Y0139651D01*
X0065790Y0138714D01*
X0062810Y0138714D01*
X0061873Y0139651D01*
X0061873Y0141703D01*
X0061727Y0141557D01*
X0061727Y0139651D01*
X0060790Y0138714D01*
X0057810Y0138714D01*
X0056873Y0139651D01*
X0056873Y0144264D01*
X0057810Y0145201D01*
X0057900Y0145201D01*
X0057900Y0146730D01*
X0056700Y0145530D01*
X0056700Y0144291D01*
X0056727Y0144264D01*
X0056727Y0143217D01*
X0056870Y0142915D01*
X0056727Y0142512D01*
X0056727Y0139651D01*
X0055790Y0138714D01*
X0055356Y0138714D01*
X0069184Y0124886D01*
X0070790Y0124886D01*
X0071727Y0123949D01*
X0071727Y0119336D01*
X0070790Y0118399D01*
X0067810Y0118399D01*
X0066873Y0119336D01*
X0066873Y0119562D01*
X0066804Y0119304D01*
X0066567Y0118894D01*
X0066232Y0118558D01*
X0065822Y0118321D01*
X0065364Y0118199D01*
X0064300Y0118199D01*
X0064300Y0121642D01*
X0064300Y0121642D01*
X0064300Y0118199D01*
X0063236Y0118199D01*
X0062778Y0118321D01*
X0062368Y0118558D01*
X0062100Y0118826D01*
X0062100Y0098912D01*
X0063053Y0098912D01*
X0063991Y0097975D01*
X0063991Y0092712D01*
X0063053Y0091775D01*
X0057397Y0091775D01*
X0057020Y0092152D01*
X0056803Y0091934D01*
X0056392Y0091697D01*
X0055935Y0091575D01*
X0053717Y0091575D01*
X0053717Y0095159D01*
X0053348Y0095159D01*
X0053348Y0091575D01*
X0051130Y0091575D01*
X0050672Y0091697D01*
X0050262Y0091934D01*
X0049927Y0092270D01*
X0049690Y0092680D01*
X0049567Y0093138D01*
X0049567Y0095159D01*
X0053348Y0095159D01*
X0053348Y0095528D01*
X0053348Y0099112D01*
X0051130Y0099112D01*
X0050672Y0098989D01*
X0050262Y0098752D01*
X0049927Y0098417D01*
X0049690Y0098007D01*
X0049567Y0097549D01*
X0049567Y0095528D01*
X0053348Y0095528D01*
X0053717Y0095528D01*
X0053717Y0099112D01*
X0055935Y0099112D01*
X0056392Y0098989D01*
X0056803Y0098752D01*
X0057020Y0098535D01*
X0057397Y0098912D01*
X0057900Y0098912D01*
X0057900Y0118399D01*
X0057810Y0118399D01*
X0056873Y0119336D01*
X0056873Y0119562D01*
X0056804Y0119304D01*
X0056567Y0118894D01*
X0056232Y0118558D01*
X0055822Y0118321D01*
X0055364Y0118199D01*
X0054300Y0118199D01*
X0054300Y0121642D01*
X0054300Y0121642D01*
X0054300Y0118199D01*
X0053236Y0118199D01*
X0052778Y0118321D01*
X0052368Y0118558D01*
X0052033Y0118894D01*
X0051796Y0119304D01*
X0051673Y0119762D01*
X0051673Y0121642D01*
X0054300Y0121642D01*
X0054300Y0121643D01*
X0054300Y0125086D01*
X0054300Y0121643D01*
X0054300Y0121643D01*
X0051673Y0121643D01*
X0051673Y0123523D01*
X0051796Y0123981D01*
X0052033Y0124391D01*
X0052368Y0124727D01*
X0052778Y0124964D01*
X0053236Y0125086D01*
X0054300Y0125086D01*
X0055364Y0125086D01*
X0055822Y0124964D01*
X0056232Y0124727D01*
X0056567Y0124391D01*
X0056804Y0123981D01*
X0056873Y0123723D01*
X0056873Y0123949D01*
X0057810Y0124886D01*
X0060790Y0124886D01*
X0061727Y0123949D01*
X0061727Y0123723D01*
X0061796Y0123981D01*
X0062033Y0124391D01*
X0062368Y0124727D01*
X0062778Y0124964D01*
X0063085Y0125046D01*
X0051933Y0136197D01*
X0050620Y0134883D01*
X0049738Y0134518D01*
X0036786Y0134518D01*
X0036786Y0128298D01*
X0036863Y0128164D01*
X0036986Y0127706D01*
X0036986Y0126682D01*
X0036489Y0126682D01*
X0036490Y0126682D01*
X0036986Y0126682D01*
X0036986Y0125658D01*
X0036935Y0125466D01*
X0036935Y0123032D01*
X0035949Y0120653D01*
X0034128Y0118832D01*
X0031749Y0117846D01*
X0029174Y0117846D01*
X0027100Y0118705D01*
X0027100Y0108563D01*
X0026977Y0108105D01*
X0026740Y0107695D01*
X0026405Y0107360D01*
X0025995Y0107123D01*
X0025537Y0107000D01*
X0022600Y0107000D01*
X0022600Y0131000D01*
X0022600Y0132600D01*
X0027100Y0132600D01*
X0027100Y0133666D01*
X0028074Y0133263D01*
X0028074Y0130337D01*
X0027100Y0129934D01*
X0027100Y0131000D01*
X0022600Y0131000D01*
X0021000Y0131000D01*
X0021000Y0107000D01*
X0020470Y0107000D01*
X0028912Y0098557D01*
X0032581Y0098557D01*
X0032958Y0098181D01*
X0033175Y0098398D01*
X0033586Y0098635D01*
X0034043Y0098757D01*
X0036261Y0098757D01*
X0036261Y0095173D01*
X0036261Y0094805D01*
X0033518Y0094805D01*
X0033518Y0095173D01*
X0036261Y0095173D01*
X0036630Y0095173D01*
X0040411Y0095173D01*
X0040411Y0097194D01*
X0040288Y0097652D01*
X0040051Y0098063D01*
X0039716Y0098398D01*
X0039306Y0098635D01*
X0038848Y0098757D01*
X0036630Y0098757D01*
X0036630Y0095173D01*
X0036630Y0094805D01*
X0040411Y0094805D01*
X0040411Y0092783D01*
X0040288Y0092326D01*
X0040051Y0091915D01*
X0039716Y0091580D01*
X0039306Y0091343D01*
X0038848Y0091220D01*
X0036630Y0091220D01*
X0036630Y0094805D01*
X0036261Y0094805D01*
X0036261Y0091220D01*
X0034043Y0091220D01*
X0033586Y0091343D01*
X0033175Y0091580D01*
X0032958Y0091797D01*
X0032581Y0091420D01*
X0026925Y0091420D01*
X0025987Y0092358D01*
X0025987Y0095543D01*
X0017400Y0104130D01*
X0017400Y0036800D01*
X0017517Y0034408D01*
X0018451Y0029717D01*
X0019381Y0027471D01*
X0019381Y0031887D01*
X0025295Y0037802D01*
X0033659Y0037802D01*
X0039573Y0031887D01*
X0039573Y0023524D01*
X0033659Y0017609D01*
X0034448Y0018399D02*
X0047777Y0018399D01*
X0047433Y0019997D02*
X0036047Y0019997D01*
X0037645Y0021596D02*
X0047433Y0021596D01*
X0047433Y0024793D02*
X0039573Y0024793D01*
X0039573Y0026391D02*
X0047433Y0026391D01*
X0047762Y0027990D02*
X0039573Y0027990D01*
X0039573Y0029588D02*
X0048816Y0029588D01*
X0052033Y0029588D02*
X0052433Y0029588D01*
X0052433Y0027990D02*
X0052033Y0027990D01*
X0052033Y0026391D02*
X0052433Y0026391D01*
X0052433Y0024793D02*
X0052033Y0024793D01*
X0052033Y0023194D02*
X0039244Y0023194D01*
X0048862Y0016800D02*
X0028025Y0016800D01*
X0030490Y0015201D02*
X0228407Y0015201D01*
X0228009Y0015600D02*
X0228961Y0014648D01*
X0230284Y0014100D01*
X0231716Y0014100D01*
X0233039Y0014648D01*
X0234052Y0015661D01*
X0234600Y0016984D01*
X0234600Y0018416D01*
X0234052Y0019739D01*
X0233039Y0020752D01*
X0231716Y0021300D01*
X0230284Y0021300D01*
X0228961Y0020752D01*
X0228009Y0019800D01*
X0222809Y0019800D01*
X0222809Y0023880D01*
X0221872Y0024817D01*
X0221400Y0024817D01*
X0221400Y0031809D01*
X0222352Y0032761D01*
X0222900Y0034084D01*
X0222900Y0035516D01*
X0222551Y0036358D01*
X0224911Y0036358D01*
X0225369Y0036481D01*
X0225779Y0036718D01*
X0226114Y0037053D01*
X0226351Y0037463D01*
X0226474Y0037921D01*
X0226474Y0040484D01*
X0221896Y0040484D01*
X0221896Y0041935D01*
X0226474Y0041935D01*
X0226474Y0044498D01*
X0226351Y0044955D01*
X0226114Y0045366D01*
X0225779Y0045701D01*
X0225369Y0045938D01*
X0224911Y0046061D01*
X0221896Y0046061D01*
X0221896Y0041935D01*
X0220444Y0041935D01*
X0220444Y0046061D01*
X0217429Y0046061D01*
X0216971Y0045938D01*
X0216561Y0045701D01*
X0216226Y0045366D01*
X0216081Y0045116D01*
X0215337Y0045861D01*
X0207003Y0045861D01*
X0206066Y0044923D01*
X0206066Y0040525D01*
X0206039Y0040552D01*
X0204716Y0041100D01*
X0203284Y0041100D01*
X0201961Y0040552D01*
X0200948Y0039539D01*
X0200400Y0038216D01*
X0200400Y0036870D01*
X0188072Y0024542D01*
X0184838Y0024542D01*
X0184320Y0024023D01*
X0183801Y0024542D01*
X0183600Y0024542D01*
X0183600Y0036676D01*
X0185337Y0036676D01*
X0186081Y0037421D01*
X0186226Y0037171D01*
X0186561Y0036836D01*
X0186971Y0036599D01*
X0187429Y0036476D01*
X0190444Y0036476D01*
X0190444Y0040602D01*
X0191896Y0040602D01*
X0191896Y0042053D01*
X0196474Y0042053D01*
X0196474Y0044616D01*
X0196351Y0045074D01*
X0196114Y0045484D01*
X0195779Y0045819D01*
X0195369Y0046056D01*
X0194911Y0046179D01*
X0191896Y0046179D01*
X0191896Y0042053D01*
X0190444Y0042053D01*
X0190444Y0046179D01*
X0187429Y0046179D01*
X0186971Y0046056D01*
X0186561Y0045819D01*
X0186226Y0045484D01*
X0186081Y0045234D01*
X0185337Y0045979D01*
X0177003Y0045979D01*
X0176066Y0045041D01*
X0176066Y0037614D01*
X0177003Y0036676D01*
X0179400Y0036676D01*
X0179400Y0024542D01*
X0178145Y0024542D01*
X0177208Y0023604D01*
X0177208Y0021362D01*
X0176070Y0022500D01*
X0163321Y0022500D01*
X0163321Y0023290D01*
X0162384Y0024227D01*
X0156728Y0024227D01*
X0156209Y0023708D01*
X0155691Y0024227D01*
X0154800Y0024227D01*
X0154800Y0036558D01*
X0156045Y0036558D01*
X0156790Y0037303D01*
X0156934Y0037053D01*
X0157270Y0036718D01*
X0157680Y0036481D01*
X0158138Y0036358D01*
X0161153Y0036358D01*
X0161153Y0040484D01*
X0162604Y0040484D01*
X0162604Y0036358D01*
X0165620Y0036358D01*
X0166077Y0036481D01*
X0166488Y0036718D01*
X0166823Y0037053D01*
X0167060Y0037463D01*
X0167183Y0037921D01*
X0167183Y0040484D01*
X0162604Y0040484D01*
X0162604Y0041935D01*
X0161153Y0041935D01*
X0161153Y0046061D01*
X0158138Y0046061D01*
X0157680Y0045938D01*
X0157270Y0045701D01*
X0156934Y0045366D01*
X0156790Y0045116D01*
X0156045Y0045861D01*
X0147712Y0045861D01*
X0146775Y0044923D01*
X0146775Y0037496D01*
X0147712Y0036558D01*
X0150600Y0036558D01*
X0150600Y0024227D01*
X0150035Y0024227D01*
X0149098Y0023290D01*
X0149098Y0018027D01*
X0150035Y0017090D01*
X0155691Y0017090D01*
X0156209Y0017608D01*
X0156728Y0017090D01*
X0162384Y0017090D01*
X0163321Y0018027D01*
X0163321Y0018300D01*
X0174330Y0018300D01*
X0175800Y0016830D01*
X0177030Y0015600D01*
X0228009Y0015600D01*
X0228206Y0019997D02*
X0222809Y0019997D01*
X0222809Y0021596D02*
X0233400Y0021596D01*
X0233400Y0023194D02*
X0222809Y0023194D01*
X0221897Y0024793D02*
X0233400Y0024793D01*
X0233400Y0026391D02*
X0221400Y0026391D01*
X0221400Y0027990D02*
X0233400Y0027990D01*
X0233400Y0029588D02*
X0221400Y0029588D01*
X0221400Y0031187D02*
X0233400Y0031187D01*
X0233400Y0032785D02*
X0222362Y0032785D01*
X0222900Y0034384D02*
X0233400Y0034384D01*
X0233400Y0035982D02*
X0222707Y0035982D01*
X0226383Y0037581D02*
X0233400Y0037581D01*
X0233400Y0039179D02*
X0226474Y0039179D01*
X0226474Y0042376D02*
X0233400Y0042376D01*
X0233400Y0040778D02*
X0221896Y0040778D01*
X0221896Y0042376D02*
X0220444Y0042376D01*
X0220444Y0043975D02*
X0221896Y0043975D01*
X0221896Y0045573D02*
X0220444Y0045573D01*
X0216433Y0045573D02*
X0215624Y0045573D01*
X0225907Y0045573D02*
X0233403Y0045573D01*
X0233400Y0043975D02*
X0226474Y0043975D01*
X0232639Y0048770D02*
X0093902Y0048770D01*
X0092939Y0050369D02*
X0231900Y0050369D01*
X0232004Y0051967D02*
X0228278Y0051967D01*
X0226522Y0051967D02*
X0222878Y0051967D01*
X0221122Y0051967D02*
X0094537Y0051967D01*
X0096136Y0053566D02*
X0218905Y0053566D01*
X0218400Y0055164D02*
X0097734Y0055164D01*
X0099333Y0056763D02*
X0218626Y0056763D01*
X0219770Y0058361D02*
X0100931Y0058361D01*
X0102530Y0059960D02*
X0209749Y0059960D01*
X0214451Y0059960D02*
X0219900Y0059960D01*
X0219900Y0061558D02*
X0215524Y0061558D01*
X0215700Y0063157D02*
X0219900Y0063157D01*
X0219900Y0064755D02*
X0215136Y0064755D01*
X0219900Y0066354D02*
X0151224Y0066354D01*
X0152822Y0067952D02*
X0219900Y0067952D01*
X0220481Y0069551D02*
X0154421Y0069551D01*
X0156019Y0071149D02*
X0222080Y0071149D01*
X0223678Y0072748D02*
X0208018Y0072748D01*
X0215566Y0074346D02*
X0216774Y0074346D01*
X0226274Y0075344D02*
X0226274Y0082482D01*
X0225337Y0083420D01*
X0224100Y0083420D01*
X0224100Y0130230D01*
X0230070Y0136200D01*
X0231300Y0137430D01*
X0231300Y0147035D01*
X0238246Y0147035D01*
X0239183Y0147972D01*
X0239183Y0150547D01*
X0240030Y0149700D01*
X0244649Y0149700D01*
X0244649Y0148933D01*
X0245026Y0148556D01*
X0244808Y0148338D01*
X0244571Y0147928D01*
X0244449Y0147470D01*
X0244449Y0145252D01*
X0248033Y0145252D01*
X0248033Y0144883D01*
X0248402Y0144883D01*
X0248402Y0141102D01*
X0249600Y0141102D01*
X0249600Y0134730D01*
X0250830Y0133500D01*
X0257430Y0126900D01*
X0251730Y0126900D01*
X0251395Y0126565D01*
X0251395Y0128651D01*
X0251273Y0129109D01*
X0251036Y0129519D01*
X0250700Y0129855D01*
X0250290Y0130091D01*
X0249832Y0130214D01*
X0247811Y0130214D01*
X0247811Y0126433D01*
X0247442Y0126433D01*
X0247442Y0126065D01*
X0243858Y0126065D01*
X0243858Y0123846D01*
X0243981Y0123389D01*
X0244218Y0122978D01*
X0244435Y0122761D01*
X0244074Y0122400D01*
X0239183Y0122400D01*
X0239183Y0131297D01*
X0238246Y0132235D01*
X0229921Y0132235D01*
X0228983Y0131297D01*
X0228983Y0109972D01*
X0229921Y0109035D01*
X0238246Y0109035D01*
X0239183Y0109972D01*
X0239183Y0118200D01*
X0244058Y0118200D01*
X0244058Y0116728D01*
X0244996Y0115791D01*
X0250258Y0115791D01*
X0251195Y0116728D01*
X0251195Y0120425D01*
X0253470Y0122700D01*
X0262271Y0122700D01*
X0262288Y0122683D01*
X0264807Y0122683D01*
X0265167Y0122527D01*
X0265559Y0122683D01*
X0268614Y0122683D01*
X0269551Y0123620D01*
X0269551Y0132903D01*
X0269629Y0133037D01*
X0269751Y0133495D01*
X0269751Y0134831D01*
X0265451Y0134831D01*
X0265451Y0134832D01*
X0269751Y0134832D01*
X0269751Y0136168D01*
X0269629Y0136626D01*
X0269551Y0136760D01*
X0269551Y0139202D01*
X0269629Y0139336D01*
X0269751Y0139794D01*
X0269751Y0141131D01*
X0269751Y0142468D01*
X0269629Y0142925D01*
X0269551Y0143059D01*
X0269551Y0149193D01*
X0268614Y0150130D01*
X0266240Y0150130D01*
X0266070Y0150300D01*
X0265703Y0150300D01*
X0265376Y0150466D01*
X0264866Y0150300D01*
X0262791Y0150300D01*
X0261839Y0151252D01*
X0260516Y0151800D01*
X0259084Y0151800D01*
X0257761Y0151252D01*
X0256748Y0150239D01*
X0256200Y0148916D01*
X0256200Y0147484D01*
X0256292Y0147262D01*
X0255061Y0146752D01*
X0254048Y0145739D01*
X0253800Y0145140D01*
X0253800Y0149070D01*
X0251786Y0151084D01*
X0251786Y0154589D01*
X0250849Y0155526D01*
X0245586Y0155526D01*
X0244649Y0154589D01*
X0244649Y0153900D01*
X0241770Y0153900D01*
X0239183Y0156486D01*
X0239183Y0169297D01*
X0238246Y0170235D01*
X0231300Y0170235D01*
X0231300Y0187100D01*
X0232139Y0187448D01*
X0233152Y0188461D01*
X0233700Y0189784D01*
X0233700Y0191216D01*
X0233152Y0192539D01*
X0232139Y0193552D01*
X0230816Y0194100D01*
X0229384Y0194100D01*
X0228061Y0193552D01*
X0227400Y0192891D01*
X0226739Y0193552D01*
X0225416Y0194100D01*
X0223984Y0194100D01*
X0222661Y0193552D01*
X0221648Y0192539D01*
X0221100Y0191216D01*
X0221100Y0189784D01*
X0221648Y0188461D01*
X0222600Y0187509D01*
X0222600Y0186540D01*
X0222352Y0187139D01*
X0221339Y0188152D01*
X0220016Y0188700D01*
X0218584Y0188700D01*
X0217261Y0188152D01*
X0216248Y0187139D01*
X0215700Y0185816D01*
X0215700Y0184470D01*
X0214984Y0183754D01*
X0211295Y0183754D01*
X0210357Y0182817D01*
X0210357Y0177555D01*
X0211295Y0176617D01*
X0214147Y0176617D01*
X0192330Y0154800D01*
X0189832Y0154800D01*
X0189667Y0154965D01*
X0186735Y0154965D01*
X0194400Y0162630D01*
X0194400Y0167680D01*
X0195297Y0167680D01*
X0196235Y0168618D01*
X0196235Y0174274D01*
X0195858Y0174651D01*
X0196075Y0174868D01*
X0196312Y0175278D01*
X0196435Y0175736D01*
X0196435Y0177954D01*
X0192850Y0177954D01*
X0192850Y0178323D01*
X0192482Y0178323D01*
X0192482Y0182104D01*
X0190461Y0182104D01*
X0190003Y0181981D01*
X0189592Y0181744D01*
X0189257Y0181409D01*
X0189020Y0180999D01*
X0188898Y0180541D01*
X0188898Y0178323D01*
X0192482Y0178323D01*
X0192482Y0177954D01*
X0188898Y0177954D01*
X0188898Y0175736D01*
X0189020Y0175278D01*
X0189257Y0174868D01*
X0189475Y0174651D01*
X0189098Y0174274D01*
X0189098Y0168618D01*
X0190035Y0167680D01*
X0190200Y0167680D01*
X0190200Y0164370D01*
X0181530Y0155700D01*
X0180300Y0154470D01*
X0180300Y0145530D01*
X0182405Y0143425D01*
X0182405Y0141275D01*
X0171329Y0130199D01*
X0171329Y0136459D01*
X0170392Y0137396D01*
X0170100Y0137396D01*
X0170100Y0157680D01*
X0175455Y0157680D01*
X0176392Y0158618D01*
X0176392Y0168211D01*
X0175455Y0169148D01*
X0156818Y0169148D01*
X0160311Y0172641D01*
X0175455Y0172641D01*
X0176392Y0173578D01*
X0176392Y0180038D01*
X0178800Y0177630D01*
X0178800Y0176284D01*
X0179348Y0174961D01*
X0180361Y0173948D01*
X0181684Y0173400D01*
X0183116Y0173400D01*
X0184439Y0173948D01*
X0185452Y0174961D01*
X0186000Y0176284D01*
X0186000Y0177716D01*
X0185452Y0179039D01*
X0184439Y0180052D01*
X0183116Y0180600D01*
X0181770Y0180600D01*
X0155970Y0206400D01*
X0341670Y0206400D01*
X0350970Y0215700D01*
X0352316Y0215700D01*
X0353639Y0216248D01*
X0354652Y0217261D01*
X0354750Y0217498D01*
X0354848Y0217261D01*
X0355861Y0216248D01*
X0357184Y0215700D01*
X0358530Y0215700D01*
X0369624Y0204606D01*
X0368970Y0204939D01*
X0368139Y0205209D01*
X0367276Y0205346D01*
X0366889Y0205346D01*
X0366889Y0199846D01*
X0366789Y0199846D01*
X0366789Y0205346D01*
X0366403Y0205346D01*
X0365540Y0205209D01*
X0364709Y0204939D01*
X0363931Y0204543D01*
X0363224Y0204029D01*
X0362606Y0203412D01*
X0362093Y0202705D01*
X0361724Y0201982D01*
X0361375Y0202827D01*
X0359870Y0204332D01*
X0357904Y0205146D01*
X0355775Y0205146D01*
X0353809Y0204332D01*
X0352304Y0202827D01*
X0351839Y0201705D01*
X0351375Y0202827D01*
X0349870Y0204332D01*
X0347904Y0205146D01*
X0345775Y0205146D01*
X0343809Y0204332D01*
X0342304Y0202827D01*
X0341839Y0201705D01*
X0341375Y0202827D01*
X0339870Y0204332D01*
X0337904Y0205146D01*
X0335775Y0205146D01*
X0333809Y0204332D01*
X0332304Y0202827D01*
X0331839Y0201705D01*
X0331375Y0202827D01*
X0329870Y0204332D01*
X0327904Y0205146D01*
X0325775Y0205146D01*
X0323809Y0204332D01*
X0322304Y0202827D01*
X0321489Y0200860D01*
X0321489Y0198732D01*
X0322304Y0196766D01*
X0323809Y0195261D01*
X0325775Y0194446D01*
X0327904Y0194446D01*
X0329870Y0195261D01*
X0331375Y0196766D01*
X0331839Y0197887D01*
X0332304Y0196766D01*
X0333809Y0195261D01*
X0335775Y0194446D01*
X0337904Y0194446D01*
X0338880Y0194850D01*
X0341730Y0192000D01*
X0391530Y0192000D01*
X0370366Y0170836D01*
X0369870Y0171332D01*
X0367904Y0172146D01*
X0365775Y0172146D01*
X0363809Y0171332D01*
X0362304Y0169827D01*
X0361839Y0168705D01*
X0361375Y0169827D01*
X0359870Y0171332D01*
X0357904Y0172146D01*
X0355775Y0172146D01*
X0353809Y0171332D01*
X0352304Y0169827D01*
X0351839Y0168705D01*
X0351375Y0169827D01*
X0349870Y0171332D01*
X0347904Y0172146D01*
X0345775Y0172146D01*
X0343809Y0171332D01*
X0342304Y0169827D01*
X0341839Y0168705D01*
X0341375Y0169827D01*
X0339870Y0171332D01*
X0337904Y0172146D01*
X0335775Y0172146D01*
X0333809Y0171332D01*
X0332304Y0169827D01*
X0331839Y0168705D01*
X0331375Y0169827D01*
X0329870Y0171332D01*
X0327904Y0172146D01*
X0325775Y0172146D01*
X0323809Y0171332D01*
X0322304Y0169827D01*
X0321489Y0167860D01*
X0321489Y0165732D01*
X0322304Y0163766D01*
X0323169Y0162900D01*
X0309330Y0162900D01*
X0308100Y0161670D01*
X0304667Y0158237D01*
X0304252Y0159239D01*
X0303239Y0160252D01*
X0301916Y0160800D01*
X0300484Y0160800D01*
X0299161Y0160252D01*
X0298209Y0159300D01*
X0287730Y0159300D01*
X0286500Y0158070D01*
X0285836Y0157406D01*
X0282600Y0157406D01*
X0282600Y0166170D01*
X0269700Y0179070D01*
X0269700Y0180330D01*
X0270570Y0181200D01*
X0274321Y0181200D01*
X0275221Y0182100D01*
X0286096Y0182100D01*
X0286996Y0181200D01*
X0294321Y0181200D01*
X0295258Y0182137D01*
X0295258Y0186463D01*
X0294321Y0187400D01*
X0286996Y0187400D01*
X0286058Y0186463D01*
X0286058Y0186300D01*
X0275258Y0186300D01*
X0275258Y0186463D01*
X0274321Y0187400D01*
X0266996Y0187400D01*
X0266058Y0186463D01*
X0266058Y0183300D01*
X0265384Y0183300D01*
X0264061Y0182752D01*
X0263048Y0181739D01*
X0262500Y0180416D01*
X0262500Y0178984D01*
X0263048Y0177661D01*
X0264061Y0176648D01*
X0265384Y0176100D01*
X0266730Y0176100D01*
X0275863Y0166967D01*
X0274861Y0166552D01*
X0273848Y0165539D01*
X0273300Y0164216D01*
X0273300Y0162784D01*
X0273848Y0161461D01*
X0274800Y0160509D01*
X0274800Y0157406D01*
X0270600Y0157406D01*
X0270600Y0157916D01*
X0270052Y0159239D01*
X0269039Y0160252D01*
X0267716Y0160800D01*
X0266284Y0160800D01*
X0264961Y0160252D01*
X0263948Y0159239D01*
X0263400Y0157916D01*
X0263400Y0156484D01*
X0263948Y0155161D01*
X0264961Y0154148D01*
X0266284Y0153600D01*
X0267630Y0153600D01*
X0268628Y0152603D01*
X0268628Y0150144D01*
X0269565Y0149206D01*
X0272100Y0149206D01*
X0272100Y0128691D01*
X0271148Y0127739D01*
X0270600Y0126416D01*
X0270600Y0124984D01*
X0271148Y0123661D01*
X0271203Y0123606D01*
X0269565Y0123606D01*
X0268628Y0122669D01*
X0268628Y0120397D01*
X0257700Y0109470D01*
X0257700Y0075875D01*
X0256916Y0076200D01*
X0255605Y0076200D01*
X0255605Y0082207D01*
X0254667Y0083144D01*
X0248114Y0083144D01*
X0252900Y0087930D01*
X0252900Y0092109D01*
X0253852Y0093061D01*
X0254400Y0094384D01*
X0254400Y0095816D01*
X0253852Y0097139D01*
X0252839Y0098152D01*
X0251516Y0098700D01*
X0250084Y0098700D01*
X0248761Y0098152D01*
X0247748Y0097139D01*
X0247200Y0095816D01*
X0247200Y0094384D01*
X0247748Y0093061D01*
X0248700Y0092109D01*
X0248700Y0089670D01*
X0242174Y0083144D01*
X0237600Y0083144D01*
X0237600Y0090630D01*
X0242070Y0095100D01*
X0243416Y0095100D01*
X0244739Y0095648D01*
X0245752Y0096661D01*
X0246300Y0097984D01*
X0246300Y0099416D01*
X0245752Y0100739D01*
X0244864Y0101627D01*
X0245639Y0101948D01*
X0246652Y0102961D01*
X0247200Y0104284D01*
X0247200Y0105716D01*
X0246652Y0107039D01*
X0245639Y0108052D01*
X0244316Y0108600D01*
X0242884Y0108600D01*
X0241561Y0108052D01*
X0240548Y0107039D01*
X0240000Y0105716D01*
X0240000Y0104370D01*
X0234000Y0098370D01*
X0234000Y0102009D01*
X0234952Y0102961D01*
X0235500Y0104284D01*
X0235500Y0105716D01*
X0234952Y0107039D01*
X0233939Y0108052D01*
X0232616Y0108600D01*
X0231184Y0108600D01*
X0229861Y0108052D01*
X0228848Y0107039D01*
X0228300Y0105716D01*
X0228300Y0104284D01*
X0228848Y0102961D01*
X0229800Y0102009D01*
X0229800Y0078870D01*
X0226274Y0075344D01*
X0226274Y0075945D02*
X0226875Y0075945D01*
X0226274Y0077543D02*
X0228474Y0077543D01*
X0229800Y0079142D02*
X0226274Y0079142D01*
X0226274Y0080740D02*
X0229800Y0080740D01*
X0229800Y0082339D02*
X0226274Y0082339D01*
X0224100Y0083937D02*
X0229800Y0083937D01*
X0229800Y0085536D02*
X0224100Y0085536D01*
X0224100Y0087134D02*
X0229800Y0087134D01*
X0229800Y0088733D02*
X0224100Y0088733D01*
X0224100Y0090332D02*
X0229800Y0090332D01*
X0229800Y0091930D02*
X0224100Y0091930D01*
X0224100Y0093529D02*
X0229800Y0093529D01*
X0229800Y0095127D02*
X0224100Y0095127D01*
X0224100Y0096726D02*
X0229800Y0096726D01*
X0229800Y0098324D02*
X0224100Y0098324D01*
X0224100Y0099923D02*
X0229800Y0099923D01*
X0229800Y0101521D02*
X0224100Y0101521D01*
X0224100Y0103120D02*
X0228782Y0103120D01*
X0228300Y0104718D02*
X0224100Y0104718D01*
X0224100Y0106317D02*
X0228549Y0106317D01*
X0229724Y0107915D02*
X0224100Y0107915D01*
X0224100Y0109514D02*
X0229442Y0109514D01*
X0228983Y0111112D02*
X0224100Y0111112D01*
X0224100Y0112711D02*
X0228983Y0112711D01*
X0228983Y0114309D02*
X0224100Y0114309D01*
X0224100Y0115908D02*
X0228983Y0115908D01*
X0228983Y0117506D02*
X0224100Y0117506D01*
X0224100Y0119105D02*
X0228983Y0119105D01*
X0228983Y0120703D02*
X0224100Y0120703D01*
X0224100Y0122302D02*
X0228983Y0122302D01*
X0228983Y0123900D02*
X0224100Y0123900D01*
X0224100Y0125499D02*
X0228983Y0125499D01*
X0228983Y0127097D02*
X0224100Y0127097D01*
X0224100Y0128696D02*
X0228983Y0128696D01*
X0228983Y0130294D02*
X0224164Y0130294D01*
X0225763Y0131893D02*
X0229579Y0131893D01*
X0227361Y0133491D02*
X0250839Y0133491D01*
X0249600Y0135090D02*
X0228960Y0135090D01*
X0230558Y0136688D02*
X0249600Y0136688D01*
X0249600Y0138287D02*
X0231300Y0138287D01*
X0231300Y0139885D02*
X0249600Y0139885D01*
X0248033Y0141102D02*
X0248033Y0144883D01*
X0244449Y0144883D01*
X0244449Y0142665D01*
X0244571Y0142208D01*
X0244808Y0141797D01*
X0245144Y0141462D01*
X0245554Y0141225D01*
X0246012Y0141102D01*
X0248033Y0141102D01*
X0248033Y0141484D02*
X0248402Y0141484D01*
X0248402Y0143082D02*
X0248033Y0143082D01*
X0248033Y0144681D02*
X0248402Y0144681D01*
X0244449Y0144681D02*
X0231300Y0144681D01*
X0231300Y0146279D02*
X0244449Y0146279D01*
X0244558Y0147878D02*
X0239089Y0147878D01*
X0239183Y0149476D02*
X0244649Y0149476D01*
X0244649Y0154272D02*
X0241398Y0154272D01*
X0239799Y0155870D02*
X0263654Y0155870D01*
X0263400Y0157469D02*
X0239183Y0157469D01*
X0239183Y0159068D02*
X0263877Y0159068D01*
X0265960Y0160666D02*
X0239183Y0160666D01*
X0239183Y0162265D02*
X0273515Y0162265D01*
X0273300Y0163863D02*
X0239183Y0163863D01*
X0239183Y0165462D02*
X0273816Y0165462D01*
X0275770Y0167060D02*
X0239183Y0167060D01*
X0239183Y0168659D02*
X0274172Y0168659D01*
X0272573Y0170257D02*
X0231300Y0170257D01*
X0231300Y0171856D02*
X0270975Y0171856D01*
X0269376Y0173454D02*
X0231300Y0173454D01*
X0231300Y0175053D02*
X0267778Y0175053D01*
X0264058Y0176651D02*
X0231300Y0176651D01*
X0231300Y0178250D02*
X0262804Y0178250D01*
X0262500Y0179848D02*
X0231300Y0179848D01*
X0231300Y0181447D02*
X0262927Y0181447D01*
X0264769Y0183045D02*
X0231300Y0183045D01*
X0231300Y0184644D02*
X0266058Y0184644D01*
X0266058Y0186242D02*
X0231300Y0186242D01*
X0232532Y0187841D02*
X0387371Y0187841D01*
X0388969Y0189439D02*
X0233557Y0189439D01*
X0233700Y0191038D02*
X0390568Y0191038D01*
X0385772Y0186242D02*
X0295258Y0186242D01*
X0295258Y0184644D02*
X0384174Y0184644D01*
X0382575Y0183045D02*
X0295258Y0183045D01*
X0294568Y0181447D02*
X0380977Y0181447D01*
X0379378Y0179848D02*
X0269700Y0179848D01*
X0270520Y0178250D02*
X0377780Y0178250D01*
X0376181Y0176651D02*
X0272119Y0176651D01*
X0273717Y0175053D02*
X0374583Y0175053D01*
X0372984Y0173454D02*
X0275316Y0173454D01*
X0276914Y0171856D02*
X0325074Y0171856D01*
X0322734Y0170257D02*
X0278513Y0170257D01*
X0280111Y0168659D02*
X0321820Y0168659D01*
X0321489Y0167060D02*
X0281710Y0167060D01*
X0282600Y0165462D02*
X0321601Y0165462D01*
X0322263Y0163863D02*
X0282600Y0163863D01*
X0282600Y0162265D02*
X0308695Y0162265D01*
X0307096Y0160666D02*
X0302240Y0160666D01*
X0300160Y0160666D02*
X0282600Y0160666D01*
X0282600Y0159068D02*
X0287498Y0159068D01*
X0285899Y0157469D02*
X0282600Y0157469D01*
X0274800Y0157469D02*
X0270600Y0157469D01*
X0270123Y0159068D02*
X0274800Y0159068D01*
X0274643Y0160666D02*
X0268040Y0160666D01*
X0264837Y0154272D02*
X0251786Y0154272D01*
X0251786Y0152673D02*
X0268557Y0152673D01*
X0268628Y0151075D02*
X0262016Y0151075D01*
X0257584Y0151075D02*
X0251795Y0151075D01*
X0253393Y0149476D02*
X0256432Y0149476D01*
X0256200Y0147878D02*
X0253800Y0147878D01*
X0253800Y0146279D02*
X0254588Y0146279D01*
X0253800Y0142260D02*
X0254048Y0141661D01*
X0255061Y0140648D01*
X0256384Y0140100D01*
X0257816Y0140100D01*
X0259139Y0140648D01*
X0260091Y0141600D01*
X0261151Y0141600D01*
X0261151Y0141131D01*
X0265451Y0141131D01*
X0265451Y0141131D01*
X0261151Y0141131D01*
X0261151Y0139794D01*
X0261274Y0139336D01*
X0261344Y0139214D01*
X0260400Y0138270D01*
X0259500Y0137370D01*
X0259500Y0136500D01*
X0259084Y0136500D01*
X0257761Y0135952D01*
X0256748Y0134939D01*
X0256333Y0133937D01*
X0253800Y0136470D01*
X0253800Y0142260D01*
X0253800Y0141484D02*
X0254225Y0141484D01*
X0253800Y0139885D02*
X0261151Y0139885D01*
X0261151Y0141484D02*
X0259975Y0141484D01*
X0260417Y0138287D02*
X0253800Y0138287D01*
X0253800Y0136688D02*
X0259500Y0136688D01*
X0256899Y0135090D02*
X0255180Y0135090D01*
X0252437Y0131893D02*
X0238588Y0131893D01*
X0239183Y0130294D02*
X0254036Y0130294D01*
X0255634Y0128696D02*
X0251383Y0128696D01*
X0251395Y0127097D02*
X0257233Y0127097D01*
X0253072Y0122302D02*
X0268628Y0122302D01*
X0268628Y0120703D02*
X0251473Y0120703D01*
X0251195Y0119105D02*
X0267335Y0119105D01*
X0265736Y0117506D02*
X0251195Y0117506D01*
X0250375Y0115908D02*
X0264138Y0115908D01*
X0262539Y0114309D02*
X0239183Y0114309D01*
X0239183Y0112711D02*
X0260941Y0112711D01*
X0259342Y0111112D02*
X0239183Y0111112D01*
X0238725Y0109514D02*
X0257744Y0109514D01*
X0257700Y0107915D02*
X0245776Y0107915D01*
X0246951Y0106317D02*
X0257700Y0106317D01*
X0257700Y0104718D02*
X0247200Y0104718D01*
X0246718Y0103120D02*
X0257700Y0103120D01*
X0257700Y0101521D02*
X0244970Y0101521D01*
X0246090Y0099923D02*
X0257700Y0099923D01*
X0257700Y0098324D02*
X0252424Y0098324D01*
X0254023Y0096726D02*
X0257700Y0096726D01*
X0257700Y0095127D02*
X0254400Y0095127D01*
X0254046Y0093529D02*
X0257700Y0093529D01*
X0257700Y0091930D02*
X0252900Y0091930D01*
X0252900Y0090332D02*
X0257700Y0090332D01*
X0257700Y0088733D02*
X0252900Y0088733D01*
X0252104Y0087134D02*
X0257700Y0087134D01*
X0257700Y0085536D02*
X0250506Y0085536D01*
X0248907Y0083937D02*
X0257700Y0083937D01*
X0257700Y0082339D02*
X0255473Y0082339D01*
X0255605Y0080740D02*
X0257700Y0080740D01*
X0257700Y0079142D02*
X0255605Y0079142D01*
X0255605Y0077543D02*
X0257700Y0077543D01*
X0257700Y0075945D02*
X0257532Y0075945D01*
X0242968Y0083937D02*
X0237600Y0083937D01*
X0237600Y0085536D02*
X0244566Y0085536D01*
X0246165Y0087134D02*
X0237600Y0087134D01*
X0237600Y0088733D02*
X0247763Y0088733D01*
X0248700Y0090332D02*
X0237600Y0090332D01*
X0238900Y0091930D02*
X0248700Y0091930D01*
X0247554Y0093529D02*
X0240498Y0093529D01*
X0243481Y0095127D02*
X0247200Y0095127D01*
X0247577Y0096726D02*
X0245779Y0096726D01*
X0246300Y0098324D02*
X0249176Y0098324D01*
X0240000Y0104718D02*
X0235500Y0104718D01*
X0235251Y0106317D02*
X0240249Y0106317D01*
X0241424Y0107915D02*
X0234076Y0107915D01*
X0235018Y0103120D02*
X0238750Y0103120D01*
X0237151Y0101521D02*
X0234000Y0101521D01*
X0234000Y0099923D02*
X0235553Y0099923D01*
X0239183Y0115908D02*
X0244878Y0115908D01*
X0244058Y0117506D02*
X0239183Y0117506D01*
X0239183Y0123900D02*
X0243858Y0123900D01*
X0243858Y0125499D02*
X0239183Y0125499D01*
X0239183Y0127097D02*
X0243858Y0127097D01*
X0243858Y0126433D02*
X0247442Y0126433D01*
X0247442Y0130214D01*
X0245421Y0130214D01*
X0244963Y0130091D01*
X0244553Y0129855D01*
X0244218Y0129519D01*
X0243981Y0129109D01*
X0243858Y0128651D01*
X0243858Y0126433D01*
X0243870Y0128696D02*
X0239183Y0128696D01*
X0247442Y0128696D02*
X0247811Y0128696D01*
X0247811Y0127097D02*
X0247442Y0127097D01*
X0269551Y0127097D02*
X0270882Y0127097D01*
X0270600Y0125499D02*
X0269551Y0125499D01*
X0269551Y0123900D02*
X0271049Y0123900D01*
X0272100Y0128696D02*
X0269551Y0128696D01*
X0269551Y0130294D02*
X0272100Y0130294D01*
X0272100Y0131893D02*
X0269551Y0131893D01*
X0269750Y0133491D02*
X0272100Y0133491D01*
X0272100Y0135090D02*
X0269751Y0135090D01*
X0269593Y0136688D02*
X0272100Y0136688D01*
X0272100Y0138287D02*
X0269551Y0138287D01*
X0269751Y0139885D02*
X0272100Y0139885D01*
X0272100Y0141484D02*
X0269751Y0141484D01*
X0269751Y0141131D02*
X0265451Y0141131D01*
X0265451Y0141131D01*
X0269751Y0141131D01*
X0269551Y0143082D02*
X0272100Y0143082D01*
X0272100Y0144681D02*
X0269551Y0144681D01*
X0269551Y0146279D02*
X0272100Y0146279D01*
X0272100Y0147878D02*
X0269551Y0147878D01*
X0269295Y0149476D02*
X0269267Y0149476D01*
X0288737Y0139967D02*
X0295151Y0146381D01*
X0295151Y0139910D01*
X0295074Y0139776D01*
X0294951Y0139318D01*
X0294951Y0137981D01*
X0294951Y0136644D01*
X0295074Y0136186D01*
X0295151Y0136052D01*
X0295151Y0123620D01*
X0296088Y0122683D01*
X0298853Y0122683D01*
X0299077Y0122550D01*
X0299596Y0122683D01*
X0302414Y0122683D01*
X0302431Y0122700D01*
X0311384Y0122700D01*
X0310499Y0121815D01*
X0309798Y0120124D01*
X0309798Y0114671D01*
X0302970Y0121500D01*
X0301230Y0121500D01*
X0296075Y0121500D01*
X0296075Y0122669D01*
X0295138Y0123606D01*
X0292500Y0123606D01*
X0292500Y0134670D01*
X0291300Y0135870D01*
X0291300Y0137216D01*
X0290752Y0138539D01*
X0289739Y0139552D01*
X0288737Y0139967D01*
X0288934Y0139885D02*
X0295137Y0139885D01*
X0295151Y0141484D02*
X0290254Y0141484D01*
X0291852Y0143082D02*
X0295151Y0143082D01*
X0295151Y0144681D02*
X0293451Y0144681D01*
X0295049Y0146279D02*
X0295151Y0146279D01*
X0303351Y0146100D02*
X0303870Y0146100D01*
X0309754Y0151984D01*
X0313269Y0151984D01*
X0313269Y0151616D01*
X0309488Y0151616D01*
X0309488Y0149595D01*
X0309611Y0149137D01*
X0309848Y0148726D01*
X0310183Y0148391D01*
X0310593Y0148154D01*
X0311051Y0148031D01*
X0313269Y0148031D01*
X0313269Y0151616D01*
X0313638Y0151616D01*
X0313638Y0148031D01*
X0315856Y0148031D01*
X0316314Y0148154D01*
X0316724Y0148391D01*
X0316941Y0148608D01*
X0317318Y0148231D01*
X0318000Y0148231D01*
X0318000Y0140070D01*
X0314110Y0136180D01*
X0314110Y0137044D01*
X0311650Y0139504D01*
X0308171Y0139504D01*
X0305710Y0137044D01*
X0305710Y0135860D01*
X0304770Y0136800D01*
X0303551Y0136800D01*
X0303551Y0137981D01*
X0299251Y0137981D01*
X0294951Y0137981D01*
X0299251Y0137981D01*
X0299251Y0137981D01*
X0299251Y0137981D01*
X0303551Y0137981D01*
X0303551Y0138521D01*
X0304084Y0138300D01*
X0305516Y0138300D01*
X0306839Y0138848D01*
X0307852Y0139861D01*
X0308400Y0141184D01*
X0308400Y0142616D01*
X0307852Y0143939D01*
X0306839Y0144952D01*
X0305516Y0145500D01*
X0304170Y0145500D01*
X0303870Y0145800D01*
X0303351Y0145800D01*
X0303351Y0146100D01*
X0304049Y0146279D02*
X0318000Y0146279D01*
X0318000Y0144681D02*
X0307110Y0144681D01*
X0308207Y0143082D02*
X0318000Y0143082D01*
X0318000Y0141484D02*
X0308400Y0141484D01*
X0307862Y0139885D02*
X0317816Y0139885D01*
X0316217Y0138287D02*
X0312867Y0138287D01*
X0314110Y0136688D02*
X0314619Y0136688D01*
X0306953Y0138287D02*
X0303551Y0138287D01*
X0304881Y0136688D02*
X0305710Y0136688D01*
X0295151Y0135090D02*
X0292080Y0135090D01*
X0292500Y0133491D02*
X0295151Y0133491D01*
X0295151Y0131893D02*
X0292500Y0131893D01*
X0292500Y0130294D02*
X0295151Y0130294D01*
X0295151Y0128696D02*
X0292500Y0128696D01*
X0292500Y0127097D02*
X0295151Y0127097D01*
X0295151Y0125499D02*
X0292500Y0125499D01*
X0292500Y0123900D02*
X0295151Y0123900D01*
X0296075Y0122302D02*
X0310985Y0122302D01*
X0310038Y0120703D02*
X0303767Y0120703D01*
X0305365Y0119105D02*
X0309798Y0119105D01*
X0309798Y0117506D02*
X0306964Y0117506D01*
X0308562Y0115908D02*
X0309798Y0115908D01*
X0318998Y0115908D02*
X0319598Y0115908D01*
X0319598Y0116009D02*
X0319598Y0113871D01*
X0318998Y0114471D01*
X0318998Y0120124D01*
X0318298Y0121815D01*
X0317004Y0123109D01*
X0315313Y0123809D01*
X0313483Y0123809D01*
X0312793Y0123524D01*
X0317370Y0128100D01*
X0342570Y0128100D01*
X0362670Y0148200D01*
X0363930Y0148200D01*
X0348030Y0132300D01*
X0346800Y0131070D01*
X0346800Y0123373D01*
X0346241Y0123658D01*
X0345522Y0123891D01*
X0344776Y0124009D01*
X0344598Y0124009D01*
X0344598Y0116410D01*
X0344198Y0116410D01*
X0344198Y0124009D01*
X0344021Y0124009D01*
X0343274Y0123891D01*
X0342556Y0123658D01*
X0341883Y0123315D01*
X0341271Y0122871D01*
X0340737Y0122336D01*
X0340293Y0121725D01*
X0339950Y0121052D01*
X0339717Y0120333D01*
X0339598Y0119587D01*
X0339598Y0116409D01*
X0344198Y0116409D01*
X0344198Y0116009D01*
X0339598Y0116009D01*
X0339598Y0112832D01*
X0339717Y0112085D01*
X0339950Y0111367D01*
X0340290Y0110700D01*
X0338338Y0110700D01*
X0338998Y0112294D01*
X0338998Y0120124D01*
X0338298Y0121815D01*
X0337004Y0123109D01*
X0335313Y0123809D01*
X0333483Y0123809D01*
X0331793Y0123109D01*
X0330499Y0121815D01*
X0329798Y0120124D01*
X0329798Y0112294D01*
X0330459Y0110700D01*
X0328507Y0110700D01*
X0328847Y0111367D01*
X0329080Y0112085D01*
X0329198Y0112832D01*
X0329198Y0116009D01*
X0324598Y0116009D01*
X0324598Y0116409D01*
X0324598Y0116410D02*
X0324198Y0116410D01*
X0324198Y0124009D01*
X0324021Y0124009D01*
X0323274Y0123891D01*
X0322556Y0123658D01*
X0321883Y0123315D01*
X0321271Y0122871D01*
X0320737Y0122336D01*
X0320293Y0121725D01*
X0319950Y0121052D01*
X0319717Y0120333D01*
X0319598Y0119587D01*
X0319598Y0116409D01*
X0324198Y0116409D01*
X0324198Y0116009D01*
X0319598Y0116009D01*
X0319598Y0117506D02*
X0318998Y0117506D01*
X0318998Y0119105D02*
X0319598Y0119105D01*
X0319837Y0120703D02*
X0318759Y0120703D01*
X0317811Y0122302D02*
X0320712Y0122302D01*
X0323331Y0123900D02*
X0313170Y0123900D01*
X0314769Y0125499D02*
X0346800Y0125499D01*
X0346800Y0127097D02*
X0316367Y0127097D01*
X0324198Y0123900D02*
X0324598Y0123900D01*
X0324598Y0124009D02*
X0324598Y0116410D01*
X0324598Y0116409D02*
X0329198Y0116409D01*
X0329198Y0119587D01*
X0329080Y0120333D01*
X0328847Y0121052D01*
X0328504Y0121725D01*
X0328060Y0122336D01*
X0327525Y0122871D01*
X0326914Y0123315D01*
X0326241Y0123658D01*
X0325522Y0123891D01*
X0324776Y0124009D01*
X0324598Y0124009D01*
X0325466Y0123900D02*
X0343331Y0123900D01*
X0344198Y0123900D02*
X0344598Y0123900D01*
X0345466Y0123900D02*
X0346800Y0123900D01*
X0344598Y0122302D02*
X0344198Y0122302D01*
X0344198Y0120703D02*
X0344598Y0120703D01*
X0344598Y0119105D02*
X0344198Y0119105D01*
X0344198Y0117506D02*
X0344598Y0117506D01*
X0339598Y0117506D02*
X0338998Y0117506D01*
X0338998Y0115908D02*
X0339598Y0115908D01*
X0339598Y0114309D02*
X0338998Y0114309D01*
X0338998Y0112711D02*
X0339618Y0112711D01*
X0340080Y0111112D02*
X0338509Y0111112D01*
X0330288Y0111112D02*
X0328717Y0111112D01*
X0329179Y0112711D02*
X0329798Y0112711D01*
X0329798Y0114309D02*
X0329198Y0114309D01*
X0329198Y0115908D02*
X0329798Y0115908D01*
X0329798Y0117506D02*
X0329198Y0117506D01*
X0329198Y0119105D02*
X0329798Y0119105D01*
X0330038Y0120703D02*
X0328960Y0120703D01*
X0328085Y0122302D02*
X0330985Y0122302D01*
X0324598Y0122302D02*
X0324198Y0122302D01*
X0324198Y0120703D02*
X0324598Y0120703D01*
X0324598Y0119105D02*
X0324198Y0119105D01*
X0324198Y0117506D02*
X0324598Y0117506D01*
X0319598Y0114309D02*
X0319161Y0114309D01*
X0337811Y0122302D02*
X0340712Y0122302D01*
X0339837Y0120703D02*
X0338759Y0120703D01*
X0338998Y0119105D02*
X0339598Y0119105D01*
X0343166Y0128696D02*
X0346800Y0128696D01*
X0346800Y0130294D02*
X0344764Y0130294D01*
X0346363Y0131893D02*
X0347623Y0131893D01*
X0347961Y0133491D02*
X0349221Y0133491D01*
X0349560Y0135090D02*
X0350820Y0135090D01*
X0351158Y0136688D02*
X0352419Y0136688D01*
X0352757Y0138287D02*
X0354017Y0138287D01*
X0354355Y0139885D02*
X0355616Y0139885D01*
X0355954Y0141484D02*
X0357214Y0141484D01*
X0357552Y0143082D02*
X0358813Y0143082D01*
X0359151Y0144681D02*
X0360411Y0144681D01*
X0360749Y0146279D02*
X0362010Y0146279D01*
X0362348Y0147878D02*
X0363608Y0147878D01*
X0386057Y0138287D02*
X0452143Y0138287D01*
X0451603Y0136688D02*
X0451603Y0136688D01*
X0451603Y0135090D02*
X0451603Y0135090D01*
X0446260Y0135090D02*
X0409502Y0135090D01*
X0409502Y0133491D02*
X0446260Y0133491D01*
X0446451Y0131893D02*
X0409502Y0131893D01*
X0409502Y0130294D02*
X0446460Y0130294D01*
X0446460Y0128696D02*
X0409502Y0128696D01*
X0409502Y0127097D02*
X0446460Y0127097D01*
X0446460Y0125499D02*
X0438302Y0125499D01*
X0435898Y0125499D02*
X0409502Y0125499D01*
X0409502Y0123900D02*
X0433949Y0123900D01*
X0433500Y0122302D02*
X0409502Y0122302D01*
X0409502Y0120703D02*
X0433782Y0120703D01*
X0435004Y0119105D02*
X0409502Y0119105D01*
X0409502Y0117506D02*
X0438724Y0117506D01*
X0440322Y0115908D02*
X0409502Y0115908D01*
X0409502Y0114309D02*
X0441921Y0114309D01*
X0446460Y0112711D02*
X0409502Y0112711D01*
X0409502Y0111112D02*
X0446460Y0111112D01*
X0446460Y0109514D02*
X0409702Y0109514D01*
X0409702Y0107915D02*
X0446460Y0107915D01*
X0446460Y0106317D02*
X0409657Y0106317D01*
X0404359Y0106317D02*
X0404359Y0106317D01*
X0404359Y0107915D02*
X0404359Y0107915D01*
X0404359Y0108296D02*
X0404359Y0108296D01*
X0399016Y0107915D02*
X0377100Y0107915D01*
X0377100Y0106317D02*
X0399061Y0106317D01*
X0399016Y0109514D02*
X0377100Y0109514D01*
X0377100Y0111112D02*
X0380734Y0111112D01*
X0384214Y0111112D02*
X0384976Y0111112D01*
X0384976Y0112711D02*
X0384214Y0112711D01*
X0384976Y0114309D02*
X0399216Y0114309D01*
X0399216Y0112711D02*
X0388757Y0112711D01*
X0388457Y0111112D02*
X0399216Y0111112D01*
X0395001Y0115908D02*
X0388757Y0115908D01*
X0372900Y0106317D02*
X0372086Y0106317D01*
X0372900Y0104718D02*
X0370488Y0104718D01*
X0368889Y0103120D02*
X0372900Y0103120D01*
X0372900Y0101521D02*
X0367291Y0101521D01*
X0365692Y0099923D02*
X0372900Y0099923D01*
X0372900Y0098324D02*
X0364094Y0098324D01*
X0362495Y0096726D02*
X0372900Y0096726D01*
X0372900Y0095127D02*
X0360897Y0095127D01*
X0359298Y0093529D02*
X0372900Y0093529D01*
X0372900Y0091930D02*
X0357700Y0091930D01*
X0356101Y0090332D02*
X0372900Y0090332D01*
X0372900Y0088733D02*
X0354503Y0088733D01*
X0352904Y0087134D02*
X0372900Y0087134D01*
X0372900Y0085536D02*
X0347706Y0085536D01*
X0346107Y0083937D02*
X0372900Y0083937D01*
X0372900Y0082339D02*
X0344509Y0082339D01*
X0342910Y0080740D02*
X0372900Y0080740D01*
X0372900Y0079142D02*
X0341312Y0079142D01*
X0339713Y0077543D02*
X0372900Y0077543D01*
X0372900Y0075945D02*
X0320436Y0075945D01*
X0323055Y0074346D02*
X0311671Y0074346D01*
X0311671Y0072748D02*
X0322037Y0072748D01*
X0321900Y0071149D02*
X0311234Y0071149D01*
X0307093Y0071149D02*
X0305641Y0071149D01*
X0305641Y0072748D02*
X0307093Y0072748D01*
X0307093Y0074346D02*
X0305641Y0074346D01*
X0307093Y0075945D02*
X0316164Y0075945D01*
X0314965Y0077543D02*
X0311671Y0077543D01*
X0311541Y0079142D02*
X0314700Y0079142D01*
X0315166Y0080740D02*
X0306010Y0080740D01*
X0305641Y0079142D02*
X0307093Y0079142D01*
X0307093Y0077543D02*
X0305641Y0077543D01*
X0307609Y0082339D02*
X0317195Y0082339D01*
X0319405Y0082339D02*
X0338569Y0082339D01*
X0338786Y0083937D02*
X0328429Y0083937D01*
X0329100Y0085536D02*
X0337510Y0085536D01*
X0337200Y0087134D02*
X0328968Y0087134D01*
X0331665Y0088733D02*
X0337621Y0088733D01*
X0322571Y0083937D02*
X0321229Y0083937D01*
X0315371Y0083937D02*
X0309207Y0083937D01*
X0310806Y0085536D02*
X0314700Y0085536D01*
X0314832Y0087134D02*
X0312404Y0087134D01*
X0314003Y0088733D02*
X0315842Y0088733D01*
X0327945Y0074346D02*
X0372900Y0074346D01*
X0372900Y0072748D02*
X0367611Y0072748D01*
X0367675Y0071149D02*
X0372380Y0071149D01*
X0370781Y0069551D02*
X0367675Y0069551D01*
X0367675Y0067952D02*
X0369183Y0067952D01*
X0371925Y0064755D02*
X0390209Y0064755D01*
X0389531Y0063157D02*
X0370327Y0063157D01*
X0368728Y0061558D02*
X0389531Y0061558D01*
X0389531Y0059960D02*
X0367130Y0059960D01*
X0361931Y0058361D02*
X0389984Y0058361D01*
X0393071Y0056763D02*
X0360333Y0056763D01*
X0358734Y0055164D02*
X0393071Y0055164D01*
X0393250Y0053566D02*
X0357136Y0053566D01*
X0355537Y0051967D02*
X0401797Y0051967D01*
X0400199Y0050369D02*
X0353939Y0050369D01*
X0352340Y0048770D02*
X0398600Y0048770D01*
X0397002Y0047172D02*
X0350742Y0047172D01*
X0349143Y0045573D02*
X0395403Y0045573D01*
X0393805Y0043975D02*
X0347545Y0043975D01*
X0345946Y0042376D02*
X0392206Y0042376D01*
X0390608Y0040778D02*
X0344348Y0040778D01*
X0342749Y0039179D02*
X0389009Y0039179D01*
X0387411Y0037581D02*
X0366827Y0037581D01*
X0367675Y0035982D02*
X0385812Y0035982D01*
X0384214Y0034384D02*
X0367675Y0034384D01*
X0367675Y0032785D02*
X0382615Y0032785D01*
X0381017Y0031187D02*
X0367675Y0031187D01*
X0367675Y0029588D02*
X0379418Y0029588D01*
X0377820Y0027990D02*
X0367675Y0027990D01*
X0367376Y0026391D02*
X0376221Y0026391D01*
X0378964Y0023194D02*
X0466200Y0023194D01*
X0466200Y0021596D02*
X0377365Y0021596D01*
X0380562Y0024793D02*
X0466200Y0024793D01*
X0466200Y0026391D02*
X0382161Y0026391D01*
X0383759Y0027990D02*
X0466200Y0027990D01*
X0466200Y0029588D02*
X0385358Y0029588D01*
X0386956Y0031187D02*
X0466200Y0031187D01*
X0466200Y0032785D02*
X0388555Y0032785D01*
X0390153Y0034384D02*
X0466200Y0034384D01*
X0466200Y0035982D02*
X0391752Y0035982D01*
X0393350Y0037581D02*
X0466200Y0037581D01*
X0466724Y0039179D02*
X0394949Y0039179D01*
X0396548Y0040778D02*
X0467858Y0040778D01*
X0470629Y0042376D02*
X0398146Y0042376D01*
X0399745Y0043975D02*
X0480144Y0043975D01*
X0480988Y0045573D02*
X0401343Y0045573D01*
X0402942Y0047172D02*
X0481200Y0047172D01*
X0481200Y0048770D02*
X0404540Y0048770D01*
X0406139Y0050369D02*
X0481200Y0050369D01*
X0481200Y0051967D02*
X0407737Y0051967D01*
X0409336Y0053566D02*
X0481200Y0053566D01*
X0481200Y0055164D02*
X0410934Y0055164D01*
X0412533Y0056763D02*
X0481200Y0056763D01*
X0481200Y0058361D02*
X0414131Y0058361D01*
X0415730Y0059960D02*
X0481200Y0059960D01*
X0481200Y0061558D02*
X0415800Y0061558D01*
X0415800Y0063157D02*
X0481200Y0063157D01*
X0481200Y0064755D02*
X0415800Y0064755D01*
X0415800Y0066354D02*
X0481200Y0066354D01*
X0481200Y0067952D02*
X0415800Y0067952D01*
X0416642Y0069551D02*
X0481200Y0069551D01*
X0481200Y0071149D02*
X0417300Y0071149D01*
X0417163Y0072748D02*
X0481200Y0072748D01*
X0481200Y0074346D02*
X0457116Y0074346D01*
X0458715Y0075945D02*
X0481200Y0075945D01*
X0481200Y0077543D02*
X0460313Y0077543D01*
X0461912Y0079142D02*
X0481200Y0079142D01*
X0481200Y0080740D02*
X0463510Y0080740D01*
X0465109Y0082339D02*
X0481200Y0082339D01*
X0481200Y0083937D02*
X0466707Y0083937D01*
X0468306Y0085536D02*
X0481200Y0085536D01*
X0481200Y0087134D02*
X0469904Y0087134D01*
X0471503Y0088733D02*
X0481200Y0088733D01*
X0481200Y0090332D02*
X0473101Y0090332D01*
X0474700Y0091930D02*
X0481200Y0091930D01*
X0481200Y0093529D02*
X0476298Y0093529D01*
X0477897Y0095127D02*
X0481200Y0095127D01*
X0481200Y0096726D02*
X0479495Y0096726D01*
X0481094Y0098324D02*
X0481370Y0098324D01*
X0478351Y0101521D02*
X0402149Y0101521D01*
X0403747Y0099923D02*
X0476753Y0099923D01*
X0475154Y0098324D02*
X0456746Y0098324D01*
X0456746Y0096726D02*
X0473556Y0096726D01*
X0471957Y0095127D02*
X0456746Y0095127D01*
X0456746Y0093529D02*
X0470359Y0093529D01*
X0468760Y0091930D02*
X0456746Y0091930D01*
X0456746Y0090332D02*
X0467162Y0090332D01*
X0465563Y0088733D02*
X0456746Y0088733D01*
X0456746Y0087134D02*
X0463965Y0087134D01*
X0462366Y0085536D02*
X0456746Y0085536D01*
X0456746Y0083937D02*
X0460768Y0083937D01*
X0459169Y0082339D02*
X0456746Y0082339D01*
X0456946Y0080740D02*
X0457571Y0080740D01*
X0446460Y0082339D02*
X0409502Y0082339D01*
X0409502Y0083937D02*
X0446460Y0083937D01*
X0446460Y0085536D02*
X0409569Y0085536D01*
X0409702Y0087134D02*
X0446460Y0087134D01*
X0446460Y0088733D02*
X0409702Y0088733D01*
X0409502Y0090332D02*
X0446460Y0090332D01*
X0446460Y0091930D02*
X0409502Y0091930D01*
X0409502Y0093529D02*
X0446460Y0093529D01*
X0446460Y0095127D02*
X0409502Y0095127D01*
X0409502Y0096726D02*
X0446460Y0096726D01*
X0446460Y0098324D02*
X0409502Y0098324D01*
X0387760Y0091930D02*
X0377100Y0091930D01*
X0377100Y0090332D02*
X0386162Y0090332D01*
X0382628Y0088733D02*
X0377100Y0088733D01*
X0377100Y0087134D02*
X0382379Y0087134D01*
X0382379Y0085536D02*
X0377100Y0085536D01*
X0377100Y0083937D02*
X0382613Y0083937D01*
X0383700Y0082339D02*
X0377100Y0082339D01*
X0377100Y0080740D02*
X0383700Y0080740D01*
X0383700Y0079142D02*
X0377100Y0079142D01*
X0377100Y0077543D02*
X0383700Y0077543D01*
X0383980Y0075945D02*
X0377100Y0075945D01*
X0377100Y0074346D02*
X0383980Y0074346D01*
X0377100Y0072748D02*
X0400682Y0072748D01*
X0399084Y0074346D02*
X0395219Y0074346D01*
X0395254Y0075945D02*
X0397485Y0075945D01*
X0397200Y0077543D02*
X0395254Y0077543D01*
X0395021Y0079142D02*
X0397200Y0079142D01*
X0397200Y0080740D02*
X0387900Y0080740D01*
X0387900Y0082339D02*
X0397200Y0082339D01*
X0397200Y0083937D02*
X0394846Y0083937D01*
X0392076Y0079142D02*
X0392076Y0079142D01*
X0392076Y0077543D02*
X0392076Y0077543D01*
X0392076Y0075945D02*
X0392076Y0075945D01*
X0392076Y0074346D02*
X0392076Y0074346D01*
X0393380Y0069551D02*
X0376721Y0069551D01*
X0377100Y0071149D02*
X0402281Y0071149D01*
X0399238Y0069551D02*
X0399165Y0069551D01*
X0399165Y0067952D02*
X0399238Y0067952D01*
X0399238Y0066354D02*
X0399165Y0066354D01*
X0399165Y0064755D02*
X0399238Y0064755D01*
X0401539Y0063157D02*
X0396865Y0063157D01*
X0396865Y0061558D02*
X0401539Y0061558D01*
X0401539Y0059960D02*
X0396865Y0059960D01*
X0399165Y0058361D02*
X0399238Y0058361D01*
X0399238Y0056763D02*
X0399165Y0056763D01*
X0399165Y0055164D02*
X0399238Y0055164D01*
X0399238Y0053566D02*
X0399165Y0053566D01*
X0405332Y0056763D02*
X0406593Y0056763D01*
X0408872Y0059960D02*
X0409790Y0059960D01*
X0408872Y0061558D02*
X0411388Y0061558D01*
X0411600Y0063157D02*
X0408872Y0063157D01*
X0408194Y0064755D02*
X0411600Y0064755D01*
X0411600Y0066354D02*
X0407700Y0066354D01*
X0407700Y0067952D02*
X0411600Y0067952D01*
X0410758Y0069551D02*
X0407700Y0069551D01*
X0407700Y0071149D02*
X0410100Y0071149D01*
X0407561Y0072748D02*
X0406622Y0072748D01*
X0406598Y0074346D02*
X0405023Y0074346D01*
X0404359Y0075945D02*
X0404359Y0075945D01*
X0404359Y0077543D02*
X0404359Y0077543D01*
X0404359Y0079142D02*
X0404359Y0079142D01*
X0409702Y0079142D02*
X0446260Y0079142D01*
X0446260Y0080740D02*
X0409702Y0080740D01*
X0412948Y0077543D02*
X0446260Y0077543D01*
X0479950Y0103120D02*
X0377100Y0103120D01*
X0377100Y0104718D02*
X0483193Y0104718D01*
X0483000Y0106317D02*
X0456746Y0106317D01*
X0456746Y0107915D02*
X0483538Y0107915D01*
X0489662Y0107915D02*
X0508800Y0107915D01*
X0508800Y0106317D02*
X0490200Y0106317D01*
X0490007Y0104718D02*
X0508800Y0104718D01*
X0508800Y0103120D02*
X0495950Y0103120D01*
X0497549Y0101521D02*
X0508800Y0101521D01*
X0508800Y0099923D02*
X0499147Y0099923D01*
X0500746Y0098324D02*
X0508800Y0098324D01*
X0508800Y0096726D02*
X0502344Y0096726D01*
X0503943Y0095127D02*
X0508800Y0095127D01*
X0508800Y0093529D02*
X0504900Y0093529D01*
X0504900Y0091930D02*
X0508800Y0091930D01*
X0508800Y0090332D02*
X0504900Y0090332D01*
X0504900Y0088733D02*
X0508800Y0088733D01*
X0508800Y0087134D02*
X0504900Y0087134D01*
X0504900Y0085536D02*
X0508800Y0085536D01*
X0508800Y0083937D02*
X0504900Y0083937D01*
X0504900Y0082339D02*
X0508800Y0082339D01*
X0508800Y0080740D02*
X0504900Y0080740D01*
X0504900Y0079142D02*
X0508800Y0079142D01*
X0508800Y0077543D02*
X0504900Y0077543D01*
X0504900Y0075945D02*
X0508800Y0075945D01*
X0508800Y0074346D02*
X0504900Y0074346D01*
X0504900Y0072748D02*
X0508800Y0072748D01*
X0508800Y0071149D02*
X0504900Y0071149D01*
X0504900Y0069551D02*
X0508800Y0069551D01*
X0508800Y0067952D02*
X0504900Y0067952D01*
X0504900Y0066354D02*
X0508800Y0066354D01*
X0508800Y0064755D02*
X0504900Y0064755D01*
X0504900Y0063157D02*
X0508800Y0063157D01*
X0508800Y0061558D02*
X0504900Y0061558D01*
X0504900Y0059960D02*
X0508800Y0059960D01*
X0508800Y0058361D02*
X0504900Y0058361D01*
X0504900Y0056763D02*
X0508800Y0056763D01*
X0508800Y0055164D02*
X0504900Y0055164D01*
X0504900Y0053566D02*
X0508800Y0053566D01*
X0508800Y0051967D02*
X0504900Y0051967D01*
X0504900Y0050369D02*
X0508800Y0050369D01*
X0508800Y0048770D02*
X0504900Y0048770D01*
X0504900Y0047172D02*
X0508800Y0047172D01*
X0508800Y0045573D02*
X0504900Y0045573D01*
X0504900Y0043975D02*
X0508800Y0043975D01*
X0508800Y0042376D02*
X0504900Y0042376D01*
X0504900Y0040778D02*
X0508800Y0040778D01*
X0508800Y0039179D02*
X0504900Y0039179D01*
X0504050Y0037581D02*
X0508800Y0037581D01*
X0508800Y0035982D02*
X0504000Y0035982D01*
X0504000Y0034384D02*
X0509247Y0034384D01*
X0510565Y0032785D02*
X0504000Y0032785D01*
X0504000Y0031187D02*
X0508643Y0031187D01*
X0508200Y0029588D02*
X0504000Y0029588D01*
X0504000Y0027990D02*
X0508488Y0027990D01*
X0507201Y0026391D02*
X0505848Y0026391D01*
X0505848Y0024793D02*
X0507201Y0024793D01*
X0507201Y0023194D02*
X0505848Y0023194D01*
X0506785Y0021596D02*
X0507201Y0021596D01*
X0507201Y0020902D02*
X0509255Y0020902D01*
X0509255Y0019549D01*
X0507201Y0019549D01*
X0507201Y0020902D01*
X0507201Y0019997D02*
X0509255Y0019997D01*
X0507201Y0019549D02*
X0507201Y0013701D01*
X0509714Y0013701D01*
X0510172Y0013823D01*
X0510306Y0013901D01*
X0513880Y0013901D01*
X0514817Y0014838D01*
X0514817Y0017738D01*
X0514299Y0018257D01*
X0514817Y0018775D01*
X0514817Y0019547D01*
X0516270Y0021000D01*
X0517500Y0022230D01*
X0517500Y0029156D01*
X0520779Y0027263D01*
X0521200Y0027150D01*
X0521200Y0012400D01*
X0492400Y0012400D01*
X0492400Y0027150D01*
X0492821Y0027263D01*
X0496379Y0029317D01*
X0499283Y0032221D01*
X0499283Y0032221D01*
X0499283Y0032221D01*
X0499800Y0033117D01*
X0499800Y0026550D01*
X0499169Y0026550D01*
X0498231Y0025612D01*
X0498231Y0022712D01*
X0498608Y0022335D01*
X0498391Y0022118D01*
X0498154Y0021707D01*
X0498031Y0021250D01*
X0498031Y0020225D01*
X0498031Y0019201D01*
X0498154Y0018743D01*
X0498391Y0018333D01*
X0498608Y0018115D01*
X0498231Y0017738D01*
X0498231Y0014838D01*
X0499169Y0013901D01*
X0502743Y0013901D01*
X0502877Y0013823D01*
X0503335Y0013701D01*
X0505848Y0013701D01*
X0505848Y0017963D01*
X0506020Y0018034D01*
X0506747Y0018761D01*
X0507073Y0019549D01*
X0507201Y0019549D01*
X0507201Y0018399D02*
X0506384Y0018399D01*
X0505848Y0016800D02*
X0507201Y0016800D01*
X0507201Y0015201D02*
X0505848Y0015201D01*
X0501012Y0020225D02*
X0498031Y0020225D01*
X0501012Y0020225D01*
X0501012Y0020225D01*
X0498031Y0019997D02*
X0492400Y0019997D01*
X0492400Y0018399D02*
X0498353Y0018399D01*
X0498231Y0016800D02*
X0492400Y0016800D01*
X0492400Y0015201D02*
X0498231Y0015201D01*
X0492400Y0013603D02*
X0521200Y0013603D01*
X0521200Y0015201D02*
X0514817Y0015201D01*
X0514817Y0016800D02*
X0521200Y0016800D01*
X0521200Y0018399D02*
X0514441Y0018399D01*
X0515267Y0019997D02*
X0521200Y0019997D01*
X0521200Y0021596D02*
X0516865Y0021596D01*
X0517500Y0023194D02*
X0521200Y0023194D01*
X0521200Y0024793D02*
X0517500Y0024793D01*
X0517500Y0026391D02*
X0521200Y0026391D01*
X0520779Y0027263D02*
X0520779Y0027263D01*
X0519520Y0027990D02*
X0517500Y0027990D01*
X0499800Y0027990D02*
X0494080Y0027990D01*
X0492400Y0026391D02*
X0499010Y0026391D01*
X0498231Y0024793D02*
X0492400Y0024793D01*
X0492400Y0023194D02*
X0498231Y0023194D01*
X0498124Y0021596D02*
X0492400Y0021596D01*
X0496650Y0029588D02*
X0499800Y0029588D01*
X0499800Y0031187D02*
X0498248Y0031187D01*
X0499609Y0032785D02*
X0499800Y0032785D01*
X0466200Y0019997D02*
X0307732Y0019997D01*
X0307306Y0026391D02*
X0327249Y0026391D01*
X0326913Y0027990D02*
X0299700Y0027990D01*
X0299700Y0029588D02*
X0326913Y0029588D01*
X0326913Y0031187D02*
X0299700Y0031187D01*
X0299700Y0032785D02*
X0326913Y0032785D01*
X0326913Y0034384D02*
X0311630Y0034384D01*
X0311671Y0035982D02*
X0326913Y0035982D01*
X0327779Y0037581D02*
X0307093Y0037581D01*
X0307093Y0039179D02*
X0305641Y0039179D01*
X0305641Y0040778D02*
X0307093Y0040778D01*
X0307093Y0042376D02*
X0305641Y0042376D01*
X0301863Y0042376D02*
X0300632Y0042376D01*
X0292102Y0042376D02*
X0284230Y0042376D01*
X0284230Y0040778D02*
X0291263Y0040778D01*
X0291263Y0039179D02*
X0279652Y0039179D01*
X0279652Y0038909D02*
X0279652Y0035340D01*
X0278939Y0036052D01*
X0278200Y0036358D01*
X0278200Y0038909D01*
X0279652Y0038909D01*
X0279652Y0037581D02*
X0278200Y0037581D01*
X0279009Y0035982D02*
X0279652Y0035982D01*
X0280223Y0034384D02*
X0291263Y0034384D01*
X0291263Y0035982D02*
X0284132Y0035982D01*
X0284230Y0037581D02*
X0291263Y0037581D01*
X0295500Y0032785D02*
X0280500Y0032785D01*
X0280045Y0031187D02*
X0295500Y0031187D01*
X0295500Y0029588D02*
X0279000Y0029588D01*
X0279000Y0027990D02*
X0295500Y0027990D01*
X0294640Y0026391D02*
X0279000Y0026391D01*
X0280841Y0024793D02*
X0293861Y0024793D01*
X0293861Y0023194D02*
X0280841Y0023194D01*
X0280841Y0021596D02*
X0293861Y0021596D01*
X0294214Y0019997D02*
X0280841Y0019997D01*
X0266617Y0019997D02*
X0256067Y0019997D01*
X0257665Y0021596D02*
X0266617Y0021596D01*
X0266617Y0023194D02*
X0259264Y0023194D01*
X0260862Y0024793D02*
X0266617Y0024793D01*
X0267600Y0026391D02*
X0262461Y0026391D01*
X0264059Y0027990D02*
X0267600Y0027990D01*
X0267600Y0029588D02*
X0265500Y0029588D01*
X0265500Y0031187D02*
X0267600Y0031187D01*
X0267600Y0032785D02*
X0265500Y0032785D01*
X0265500Y0034384D02*
X0267600Y0034384D01*
X0278200Y0040778D02*
X0279652Y0040778D01*
X0279652Y0042376D02*
X0278200Y0042376D01*
X0278200Y0043975D02*
X0279652Y0043975D01*
X0283687Y0043975D02*
X0341605Y0043975D01*
X0343203Y0045573D02*
X0268143Y0045573D01*
X0269742Y0047172D02*
X0344802Y0047172D01*
X0346400Y0048770D02*
X0271340Y0048770D01*
X0271800Y0050369D02*
X0276361Y0050369D01*
X0274763Y0051967D02*
X0271800Y0051967D01*
X0271800Y0053566D02*
X0273164Y0053566D01*
X0273404Y0043975D02*
X0274165Y0043975D01*
X0251226Y0043975D02*
X0249775Y0043975D01*
X0249775Y0045573D02*
X0251226Y0045573D01*
X0251226Y0045785D02*
X0251226Y0041660D01*
X0249775Y0041660D01*
X0249775Y0045785D01*
X0247285Y0045785D01*
X0245370Y0047700D01*
X0236940Y0047700D01*
X0237539Y0047948D01*
X0238552Y0048961D01*
X0239100Y0050284D01*
X0239100Y0051716D01*
X0238552Y0053039D01*
X0237600Y0053991D01*
X0237600Y0073842D01*
X0238800Y0073842D01*
X0238800Y0058230D01*
X0251245Y0045785D01*
X0251226Y0045785D01*
X0249858Y0047172D02*
X0245898Y0047172D01*
X0248260Y0048770D02*
X0238361Y0048770D01*
X0239100Y0050369D02*
X0246661Y0050369D01*
X0245063Y0051967D02*
X0238996Y0051967D01*
X0238025Y0053566D02*
X0243464Y0053566D01*
X0241866Y0055164D02*
X0237600Y0055164D01*
X0237600Y0056763D02*
X0240267Y0056763D01*
X0238800Y0058361D02*
X0237600Y0058361D01*
X0237600Y0059960D02*
X0238800Y0059960D01*
X0238800Y0061558D02*
X0237600Y0061558D01*
X0237600Y0063157D02*
X0238800Y0063157D01*
X0238800Y0064755D02*
X0237600Y0064755D01*
X0237600Y0066354D02*
X0238800Y0066354D01*
X0238800Y0067952D02*
X0237600Y0067952D01*
X0237600Y0069551D02*
X0238800Y0069551D01*
X0238800Y0071149D02*
X0237600Y0071149D01*
X0237600Y0072748D02*
X0238800Y0072748D01*
X0233400Y0072748D02*
X0232318Y0072748D01*
X0233400Y0071149D02*
X0230719Y0071149D01*
X0229500Y0069551D02*
X0233400Y0069551D01*
X0233400Y0067952D02*
X0229500Y0067952D01*
X0229500Y0066354D02*
X0233400Y0066354D01*
X0233400Y0064755D02*
X0229500Y0064755D01*
X0229500Y0063157D02*
X0233400Y0063157D01*
X0233400Y0061558D02*
X0229500Y0061558D01*
X0229500Y0059960D02*
X0233400Y0059960D01*
X0233400Y0058361D02*
X0229630Y0058361D01*
X0230774Y0056763D02*
X0233400Y0056763D01*
X0233400Y0055164D02*
X0231000Y0055164D01*
X0230495Y0053566D02*
X0232975Y0053566D01*
X0235002Y0047172D02*
X0095248Y0047172D01*
X0095770Y0045573D02*
X0116637Y0045573D01*
X0116925Y0045861D02*
X0115987Y0044923D01*
X0115987Y0037496D01*
X0116925Y0036558D01*
X0119100Y0036558D01*
X0119100Y0025487D01*
X0118657Y0025487D01*
X0117720Y0024549D01*
X0117720Y0019287D01*
X0118657Y0018350D01*
X0124313Y0018350D01*
X0124831Y0018868D01*
X0125350Y0018350D01*
X0131006Y0018350D01*
X0131943Y0019287D01*
X0131943Y0024549D01*
X0131563Y0024929D01*
X0132000Y0025984D01*
X0132000Y0027416D01*
X0131452Y0028739D01*
X0130439Y0029752D01*
X0129116Y0030300D01*
X0127684Y0030300D01*
X0126361Y0029752D01*
X0125348Y0028739D01*
X0124800Y0027416D01*
X0124800Y0025984D01*
X0125107Y0025243D01*
X0124831Y0024968D01*
X0124313Y0025487D01*
X0123300Y0025487D01*
X0123300Y0036558D01*
X0125258Y0036558D01*
X0126003Y0037303D01*
X0126147Y0037053D01*
X0126482Y0036718D01*
X0126893Y0036481D01*
X0127350Y0036358D01*
X0130366Y0036358D01*
X0130366Y0040484D01*
X0131817Y0040484D01*
X0131817Y0041935D01*
X0136395Y0041935D01*
X0136395Y0044498D01*
X0136273Y0044955D01*
X0136036Y0045366D01*
X0135700Y0045701D01*
X0135290Y0045938D01*
X0134832Y0046061D01*
X0131817Y0046061D01*
X0131817Y0041935D01*
X0130366Y0041935D01*
X0130366Y0046061D01*
X0127350Y0046061D01*
X0126893Y0045938D01*
X0126482Y0045701D01*
X0126147Y0045366D01*
X0126003Y0045116D01*
X0125258Y0045861D01*
X0116925Y0045861D01*
X0115987Y0043975D02*
X0095770Y0043975D01*
X0095770Y0042376D02*
X0115987Y0042376D01*
X0115987Y0040778D02*
X0095770Y0040778D01*
X0096391Y0039179D02*
X0115987Y0039179D01*
X0115987Y0037581D02*
X0097989Y0037581D01*
X0099588Y0035982D02*
X0119100Y0035982D01*
X0119100Y0034384D02*
X0101186Y0034384D01*
X0102785Y0032785D02*
X0119100Y0032785D01*
X0119100Y0031187D02*
X0103500Y0031187D01*
X0105368Y0029588D02*
X0119100Y0029588D01*
X0119100Y0027990D02*
X0106478Y0027990D01*
X0106833Y0026391D02*
X0119100Y0026391D01*
X0117963Y0024793D02*
X0106833Y0024793D01*
X0106833Y0023194D02*
X0117720Y0023194D01*
X0117720Y0021596D02*
X0106833Y0021596D01*
X0106833Y0019997D02*
X0117720Y0019997D01*
X0118608Y0018399D02*
X0106459Y0018399D01*
X0105321Y0016800D02*
X0175830Y0016800D01*
X0176974Y0021596D02*
X0177208Y0021596D01*
X0177208Y0023194D02*
X0163321Y0023194D01*
X0154800Y0024793D02*
X0179400Y0024793D01*
X0179400Y0026391D02*
X0154800Y0026391D01*
X0154800Y0027990D02*
X0179400Y0027990D01*
X0179400Y0029588D02*
X0154800Y0029588D01*
X0154800Y0031187D02*
X0179400Y0031187D01*
X0179400Y0032785D02*
X0154800Y0032785D01*
X0154800Y0034384D02*
X0179400Y0034384D01*
X0179400Y0035982D02*
X0154800Y0035982D01*
X0150600Y0035982D02*
X0123300Y0035982D01*
X0123300Y0034384D02*
X0150600Y0034384D01*
X0150600Y0032785D02*
X0123300Y0032785D01*
X0123300Y0031187D02*
X0150600Y0031187D01*
X0150600Y0029588D02*
X0130603Y0029588D01*
X0131762Y0027990D02*
X0150600Y0027990D01*
X0150600Y0026391D02*
X0132000Y0026391D01*
X0131700Y0024793D02*
X0150600Y0024793D01*
X0149098Y0023194D02*
X0131943Y0023194D01*
X0131943Y0021596D02*
X0149098Y0021596D01*
X0149098Y0019997D02*
X0131943Y0019997D01*
X0131055Y0018399D02*
X0149098Y0018399D01*
X0125301Y0018399D02*
X0124362Y0018399D01*
X0124800Y0026391D02*
X0123300Y0026391D01*
X0123300Y0027990D02*
X0125038Y0027990D01*
X0126197Y0029588D02*
X0123300Y0029588D01*
X0131817Y0036358D02*
X0134832Y0036358D01*
X0135290Y0036481D01*
X0135700Y0036718D01*
X0136036Y0037053D01*
X0136273Y0037463D01*
X0136395Y0037921D01*
X0136395Y0040484D01*
X0131817Y0040484D01*
X0131817Y0036358D01*
X0131817Y0037581D02*
X0130366Y0037581D01*
X0130366Y0039179D02*
X0131817Y0039179D01*
X0131817Y0040778D02*
X0146775Y0040778D01*
X0146775Y0042376D02*
X0136395Y0042376D01*
X0136395Y0043975D02*
X0146775Y0043975D01*
X0147425Y0045573D02*
X0135828Y0045573D01*
X0131817Y0045573D02*
X0130366Y0045573D01*
X0130366Y0043975D02*
X0131817Y0043975D01*
X0131817Y0042376D02*
X0130366Y0042376D01*
X0136395Y0039179D02*
X0146775Y0039179D01*
X0146775Y0037581D02*
X0136304Y0037581D01*
X0126354Y0045573D02*
X0125545Y0045573D01*
X0098444Y0031187D02*
X0082756Y0031187D01*
X0084355Y0032785D02*
X0096845Y0032785D01*
X0095247Y0034384D02*
X0085953Y0034384D01*
X0087552Y0035982D02*
X0087679Y0035982D01*
X0089627Y0030117D02*
X0091318Y0030817D01*
X0093148Y0030817D01*
X0094839Y0030117D01*
X0096133Y0028823D01*
X0096833Y0027132D01*
X0096833Y0019302D01*
X0096133Y0017612D01*
X0094839Y0016318D01*
X0093148Y0015617D01*
X0091318Y0015617D01*
X0089627Y0016318D01*
X0088333Y0017612D01*
X0087633Y0019302D01*
X0087633Y0027132D01*
X0088333Y0028823D01*
X0089627Y0030117D01*
X0089098Y0029588D02*
X0085368Y0029588D01*
X0086478Y0027990D02*
X0087988Y0027990D01*
X0087633Y0026391D02*
X0086833Y0026391D01*
X0086833Y0024793D02*
X0087633Y0024793D01*
X0087633Y0023194D02*
X0086833Y0023194D01*
X0086833Y0021596D02*
X0087633Y0021596D01*
X0087633Y0019997D02*
X0086833Y0019997D01*
X0086459Y0018399D02*
X0088007Y0018399D01*
X0089145Y0016800D02*
X0085321Y0016800D01*
X0079145Y0016800D02*
X0075321Y0016800D01*
X0076459Y0018399D02*
X0078007Y0018399D01*
X0077633Y0019997D02*
X0076833Y0019997D01*
X0076833Y0021596D02*
X0077633Y0021596D01*
X0077633Y0023194D02*
X0076833Y0023194D01*
X0076833Y0024793D02*
X0077633Y0024793D01*
X0069098Y0029588D02*
X0065368Y0029588D01*
X0066478Y0027990D02*
X0067988Y0027990D01*
X0067633Y0026391D02*
X0066833Y0026391D01*
X0066833Y0024793D02*
X0067633Y0024793D01*
X0067633Y0023194D02*
X0066833Y0023194D01*
X0066833Y0021596D02*
X0067633Y0021596D01*
X0067633Y0019997D02*
X0066833Y0019997D01*
X0066459Y0018399D02*
X0068007Y0018399D01*
X0069145Y0016800D02*
X0065321Y0016800D01*
X0059145Y0016800D02*
X0055604Y0016800D01*
X0056689Y0018399D02*
X0058007Y0018399D01*
X0057633Y0019997D02*
X0057033Y0019997D01*
X0057033Y0021596D02*
X0057633Y0021596D01*
X0057633Y0023194D02*
X0052433Y0023194D01*
X0052433Y0021596D02*
X0052033Y0021596D01*
X0052033Y0019997D02*
X0052433Y0019997D01*
X0052433Y0018399D02*
X0052033Y0018399D01*
X0052033Y0016800D02*
X0052433Y0016800D01*
X0057033Y0024793D02*
X0057633Y0024793D01*
X0058500Y0031187D02*
X0076817Y0031187D01*
X0078415Y0032785D02*
X0058500Y0032785D01*
X0058500Y0034384D02*
X0080014Y0034384D01*
X0077679Y0035982D02*
X0074661Y0035982D01*
X0075562Y0037581D02*
X0076778Y0037581D01*
X0076570Y0039179D02*
X0075770Y0039179D01*
X0075770Y0040778D02*
X0076570Y0040778D01*
X0076570Y0042376D02*
X0075770Y0042376D01*
X0066570Y0042376D02*
X0065770Y0042376D01*
X0065770Y0040778D02*
X0066570Y0040778D01*
X0066570Y0039179D02*
X0065770Y0039179D01*
X0065562Y0037581D02*
X0066778Y0037581D01*
X0067679Y0035982D02*
X0064661Y0035982D01*
X0054300Y0034384D02*
X0052505Y0034384D01*
X0051370Y0034384D02*
X0050970Y0034384D01*
X0049835Y0034384D02*
X0037077Y0034384D01*
X0035479Y0035982D02*
X0047427Y0035982D01*
X0046583Y0037581D02*
X0033880Y0037581D01*
X0025074Y0037581D02*
X0017400Y0037581D01*
X0017400Y0039179D02*
X0046370Y0039179D01*
X0046370Y0040778D02*
X0017400Y0040778D01*
X0017400Y0042376D02*
X0046370Y0042376D01*
X0046370Y0043975D02*
X0017400Y0043975D01*
X0017400Y0045573D02*
X0046402Y0045573D01*
X0046891Y0047172D02*
X0017400Y0047172D01*
X0017400Y0048770D02*
X0048197Y0048770D01*
X0050970Y0048770D02*
X0051370Y0048770D01*
X0051370Y0047172D02*
X0050970Y0047172D01*
X0050970Y0045573D02*
X0051370Y0045573D01*
X0051370Y0043975D02*
X0050970Y0043975D01*
X0050970Y0042376D02*
X0051370Y0042376D01*
X0051370Y0040778D02*
X0050970Y0040778D01*
X0050970Y0039179D02*
X0051370Y0039179D01*
X0051370Y0037581D02*
X0050970Y0037581D01*
X0050970Y0035982D02*
X0051370Y0035982D01*
X0054300Y0032785D02*
X0038676Y0032785D01*
X0039573Y0031187D02*
X0054300Y0031187D01*
X0065770Y0043975D02*
X0066570Y0043975D01*
X0066570Y0045573D02*
X0065770Y0045573D01*
X0065248Y0047172D02*
X0067092Y0047172D01*
X0068438Y0048770D02*
X0063902Y0048770D01*
X0067763Y0051967D02*
X0058500Y0051967D01*
X0058500Y0050369D02*
X0069361Y0050369D01*
X0066164Y0053566D02*
X0058500Y0053566D01*
X0058500Y0055164D02*
X0064566Y0055164D01*
X0064200Y0056763D02*
X0058500Y0056763D01*
X0058500Y0058361D02*
X0064200Y0058361D01*
X0064200Y0059960D02*
X0058500Y0059960D01*
X0058500Y0061558D02*
X0064200Y0061558D01*
X0064200Y0063157D02*
X0058500Y0063157D01*
X0058725Y0064755D02*
X0062920Y0064755D01*
X0062090Y0066354D02*
X0060324Y0066354D01*
X0061922Y0067952D02*
X0062090Y0067952D01*
X0059180Y0071149D02*
X0017400Y0071149D01*
X0017400Y0069551D02*
X0057581Y0069551D01*
X0055983Y0067952D02*
X0017400Y0067952D01*
X0017400Y0066354D02*
X0054384Y0066354D01*
X0054300Y0064755D02*
X0017400Y0064755D01*
X0017400Y0063157D02*
X0054300Y0063157D01*
X0054300Y0061558D02*
X0017400Y0061558D01*
X0017400Y0059960D02*
X0054300Y0059960D01*
X0054300Y0058361D02*
X0017400Y0058361D01*
X0017400Y0056763D02*
X0054300Y0056763D01*
X0054300Y0055164D02*
X0017400Y0055164D01*
X0017400Y0053566D02*
X0054300Y0053566D01*
X0054300Y0051967D02*
X0017400Y0051967D01*
X0017400Y0050369D02*
X0054300Y0050369D01*
X0054300Y0048770D02*
X0054143Y0048770D01*
X0023476Y0035982D02*
X0017440Y0035982D01*
X0017522Y0034384D02*
X0021877Y0034384D01*
X0020279Y0032785D02*
X0017840Y0032785D01*
X0018158Y0031187D02*
X0019381Y0031187D01*
X0019381Y0029588D02*
X0018504Y0029588D01*
X0019166Y0027990D02*
X0019381Y0027990D01*
X0034349Y0013603D02*
X0466506Y0013603D01*
X0466200Y0015201D02*
X0233593Y0015201D01*
X0234524Y0016800D02*
X0237030Y0016800D01*
X0235432Y0018399D02*
X0234600Y0018399D01*
X0233833Y0019997D02*
X0233794Y0019997D01*
X0252870Y0016800D02*
X0466200Y0016800D01*
X0466200Y0018399D02*
X0254468Y0018399D01*
X0251226Y0042376D02*
X0249775Y0042376D01*
X0206716Y0045573D02*
X0196025Y0045573D01*
X0196474Y0043975D02*
X0206066Y0043975D01*
X0206066Y0042376D02*
X0196474Y0042376D01*
X0196474Y0040602D02*
X0191896Y0040602D01*
X0191896Y0036476D01*
X0194911Y0036476D01*
X0195369Y0036599D01*
X0195779Y0036836D01*
X0196114Y0037171D01*
X0196351Y0037582D01*
X0196474Y0038039D01*
X0196474Y0040602D01*
X0196474Y0039179D02*
X0200799Y0039179D01*
X0200400Y0037581D02*
X0196351Y0037581D01*
X0199512Y0035982D02*
X0183600Y0035982D01*
X0183600Y0034384D02*
X0197914Y0034384D01*
X0196315Y0032785D02*
X0183600Y0032785D01*
X0183600Y0031187D02*
X0194717Y0031187D01*
X0193118Y0029588D02*
X0183600Y0029588D01*
X0183600Y0027990D02*
X0191520Y0027990D01*
X0189921Y0026391D02*
X0183600Y0026391D01*
X0183600Y0024793D02*
X0188323Y0024793D01*
X0190444Y0037581D02*
X0191896Y0037581D01*
X0191896Y0039179D02*
X0190444Y0039179D01*
X0191896Y0040778D02*
X0202506Y0040778D01*
X0205494Y0040778D02*
X0206066Y0040778D01*
X0191896Y0042376D02*
X0190444Y0042376D01*
X0190444Y0043975D02*
X0191896Y0043975D01*
X0191896Y0045573D02*
X0190444Y0045573D01*
X0186315Y0045573D02*
X0185742Y0045573D01*
X0176598Y0045573D02*
X0166616Y0045573D01*
X0166488Y0045701D02*
X0166077Y0045938D01*
X0165620Y0046061D01*
X0162604Y0046061D01*
X0162604Y0041935D01*
X0167183Y0041935D01*
X0167183Y0044498D01*
X0167060Y0044955D01*
X0166823Y0045366D01*
X0166488Y0045701D01*
X0167183Y0043975D02*
X0176066Y0043975D01*
X0176066Y0042376D02*
X0167183Y0042376D01*
X0167183Y0039179D02*
X0176066Y0039179D01*
X0176066Y0040778D02*
X0162604Y0040778D01*
X0162604Y0042376D02*
X0161153Y0042376D01*
X0161153Y0043975D02*
X0162604Y0043975D01*
X0162604Y0045573D02*
X0161153Y0045573D01*
X0157142Y0045573D02*
X0156333Y0045573D01*
X0161153Y0039179D02*
X0162604Y0039179D01*
X0162604Y0037581D02*
X0161153Y0037581D01*
X0167091Y0037581D02*
X0176099Y0037581D01*
X0185582Y0072748D02*
X0157618Y0072748D01*
X0166274Y0074346D02*
X0176892Y0074346D01*
X0176066Y0075945D02*
X0166983Y0075945D01*
X0166983Y0077543D02*
X0169087Y0077543D01*
X0167488Y0079142D02*
X0166983Y0079142D01*
X0128950Y0103120D02*
X0127441Y0103120D01*
X0127571Y0103194D02*
X0127906Y0103529D01*
X0128143Y0103940D01*
X0128265Y0104398D01*
X0128265Y0106419D01*
X0120843Y0106419D01*
X0120843Y0106787D01*
X0128265Y0106787D01*
X0128265Y0108809D01*
X0128143Y0109266D01*
X0127906Y0109677D01*
X0127571Y0110012D01*
X0127160Y0110249D01*
X0126702Y0110372D01*
X0120843Y0110372D01*
X0120843Y0106787D01*
X0120474Y0106787D01*
X0120474Y0106419D01*
X0113051Y0106419D01*
X0113051Y0104398D01*
X0113174Y0103940D01*
X0113411Y0103529D01*
X0113746Y0103194D01*
X0114156Y0102957D01*
X0114614Y0102835D01*
X0120474Y0102835D01*
X0120474Y0106419D01*
X0120843Y0106419D01*
X0120843Y0102835D01*
X0126702Y0102835D01*
X0127160Y0102957D01*
X0127571Y0103194D01*
X0128265Y0104718D02*
X0129648Y0104718D01*
X0128265Y0106317D02*
X0131247Y0106317D01*
X0132149Y0107915D02*
X0128265Y0107915D01*
X0128000Y0109514D02*
X0132428Y0109514D01*
X0120843Y0109514D02*
X0120474Y0109514D01*
X0120474Y0110372D02*
X0114614Y0110372D01*
X0114156Y0110249D01*
X0113746Y0110012D01*
X0113411Y0109677D01*
X0113174Y0109266D01*
X0113051Y0108809D01*
X0113051Y0106787D01*
X0120474Y0106787D01*
X0120474Y0110372D01*
X0120474Y0107915D02*
X0120843Y0107915D01*
X0120843Y0106317D02*
X0120474Y0106317D01*
X0120474Y0104718D02*
X0120843Y0104718D01*
X0120843Y0103120D02*
X0120474Y0103120D01*
X0124154Y0098324D02*
X0113824Y0098324D01*
X0115423Y0096726D02*
X0122556Y0096726D01*
X0120957Y0095127D02*
X0115800Y0095127D01*
X0115446Y0093529D02*
X0119359Y0093529D01*
X0117760Y0091930D02*
X0113954Y0091930D01*
X0116162Y0090332D02*
X0102623Y0090332D01*
X0102600Y0088733D02*
X0114563Y0088733D01*
X0112965Y0087134D02*
X0102600Y0087134D01*
X0102600Y0085536D02*
X0111366Y0085536D01*
X0109768Y0083937D02*
X0102600Y0083937D01*
X0103484Y0082339D02*
X0108169Y0082339D01*
X0106571Y0080740D02*
X0104384Y0080740D01*
X0104384Y0079142D02*
X0104972Y0079142D01*
X0098147Y0082339D02*
X0017400Y0082339D01*
X0017400Y0083937D02*
X0098400Y0083937D01*
X0098400Y0085536D02*
X0017400Y0085536D01*
X0017400Y0087134D02*
X0098400Y0087134D01*
X0098400Y0088733D02*
X0017400Y0088733D01*
X0017400Y0090332D02*
X0098377Y0090332D01*
X0097171Y0091930D02*
X0063209Y0091930D01*
X0063991Y0093529D02*
X0096900Y0093529D01*
X0097360Y0095127D02*
X0082003Y0095127D01*
X0082380Y0096726D02*
X0098113Y0096726D01*
X0098113Y0098324D02*
X0078795Y0098324D01*
X0078427Y0098324D02*
X0063641Y0098324D01*
X0063991Y0096726D02*
X0074843Y0096726D01*
X0075219Y0095127D02*
X0063991Y0095127D01*
X0062100Y0099923D02*
X0074843Y0099923D01*
X0075108Y0101521D02*
X0062100Y0101521D01*
X0062100Y0103120D02*
X0075043Y0103120D01*
X0075043Y0104718D02*
X0062100Y0104718D01*
X0062100Y0106317D02*
X0075043Y0106317D01*
X0075043Y0107915D02*
X0062100Y0107915D01*
X0062100Y0109514D02*
X0080444Y0109514D01*
X0082042Y0111112D02*
X0062100Y0111112D01*
X0062100Y0112711D02*
X0083641Y0112711D01*
X0085239Y0114309D02*
X0062100Y0114309D01*
X0062100Y0115908D02*
X0086838Y0115908D01*
X0088436Y0117506D02*
X0062100Y0117506D01*
X0064300Y0119105D02*
X0064300Y0119105D01*
X0064300Y0120703D02*
X0064300Y0120703D01*
X0066689Y0119105D02*
X0067105Y0119105D01*
X0071495Y0119105D02*
X0090035Y0119105D01*
X0091633Y0120703D02*
X0071727Y0120703D01*
X0071727Y0122302D02*
X0093232Y0122302D01*
X0094386Y0123900D02*
X0071727Y0123900D01*
X0068571Y0125499D02*
X0093822Y0125499D01*
X0093822Y0127097D02*
X0066973Y0127097D01*
X0065374Y0128696D02*
X0093900Y0128696D01*
X0093836Y0130294D02*
X0063776Y0130294D01*
X0062177Y0131893D02*
X0092237Y0131893D01*
X0091200Y0133491D02*
X0060579Y0133491D01*
X0058980Y0135090D02*
X0091200Y0135090D01*
X0091200Y0136688D02*
X0057381Y0136688D01*
X0055783Y0138287D02*
X0091200Y0138287D01*
X0091200Y0139885D02*
X0071727Y0139885D01*
X0071727Y0141484D02*
X0091200Y0141484D01*
X0091200Y0143082D02*
X0073152Y0143082D01*
X0074751Y0144681D02*
X0091200Y0144681D01*
X0091200Y0146279D02*
X0076349Y0146279D01*
X0077948Y0147878D02*
X0091200Y0147878D01*
X0091200Y0149476D02*
X0079546Y0149476D01*
X0081145Y0151075D02*
X0083909Y0151075D01*
X0083701Y0152673D02*
X0082743Y0152673D01*
X0087285Y0152673D02*
X0087654Y0152673D01*
X0087654Y0151075D02*
X0087285Y0151075D01*
X0091029Y0151075D02*
X0091200Y0151075D01*
X0090946Y0157237D02*
X0090878Y0157354D01*
X0090661Y0157571D01*
X0091038Y0157948D01*
X0091038Y0163604D01*
X0090101Y0164542D01*
X0090000Y0164542D01*
X0090000Y0192330D01*
X0093327Y0195657D01*
X0093327Y0194673D01*
X0093449Y0194215D01*
X0093686Y0193805D01*
X0094022Y0193470D01*
X0094432Y0193233D01*
X0094890Y0193110D01*
X0095717Y0193110D01*
X0095717Y0196386D01*
X0095717Y0196386D01*
X0095717Y0193110D01*
X0096545Y0193110D01*
X0096600Y0193125D01*
X0096600Y0189570D01*
X0093900Y0186870D01*
X0093900Y0175867D01*
X0093527Y0175494D01*
X0093527Y0173912D01*
X0093507Y0173885D01*
X0093527Y0173760D01*
X0093527Y0171216D01*
X0094464Y0170279D01*
X0094800Y0170279D01*
X0094800Y0157775D01*
X0094016Y0158100D01*
X0092584Y0158100D01*
X0091261Y0157552D01*
X0090946Y0157237D01*
X0090763Y0157469D02*
X0091178Y0157469D01*
X0091038Y0159068D02*
X0094800Y0159068D01*
X0094800Y0160666D02*
X0091038Y0160666D01*
X0091038Y0162265D02*
X0094800Y0162265D01*
X0094800Y0163863D02*
X0090779Y0163863D01*
X0090000Y0165462D02*
X0094800Y0165462D01*
X0094800Y0167060D02*
X0090000Y0167060D01*
X0090000Y0168659D02*
X0094800Y0168659D01*
X0094800Y0170257D02*
X0090000Y0170257D01*
X0090000Y0171856D02*
X0093527Y0171856D01*
X0093527Y0173454D02*
X0090000Y0173454D01*
X0090000Y0175053D02*
X0093527Y0175053D01*
X0093900Y0176651D02*
X0090000Y0176651D01*
X0090000Y0178250D02*
X0093900Y0178250D01*
X0093900Y0179848D02*
X0090000Y0179848D01*
X0090000Y0181447D02*
X0093900Y0181447D01*
X0093900Y0183045D02*
X0090000Y0183045D01*
X0090000Y0184644D02*
X0093900Y0184644D01*
X0093900Y0186242D02*
X0090000Y0186242D01*
X0090000Y0187841D02*
X0094871Y0187841D01*
X0096469Y0189439D02*
X0090000Y0189439D01*
X0090000Y0191038D02*
X0096600Y0191038D01*
X0096600Y0192636D02*
X0090306Y0192636D01*
X0091905Y0194235D02*
X0093444Y0194235D01*
X0095717Y0194235D02*
X0095717Y0194235D01*
X0095717Y0195833D02*
X0095717Y0195833D01*
X0108900Y0191038D02*
X0110492Y0191038D01*
X0108900Y0189439D02*
X0112091Y0189439D01*
X0113689Y0187841D02*
X0108900Y0187841D01*
X0108900Y0186242D02*
X0115288Y0186242D01*
X0116886Y0184644D02*
X0108900Y0184644D01*
X0108900Y0183045D02*
X0118485Y0183045D01*
X0120083Y0181447D02*
X0108900Y0181447D01*
X0108900Y0179848D02*
X0121682Y0179848D01*
X0123280Y0178250D02*
X0108900Y0178250D01*
X0108900Y0176651D02*
X0124879Y0176651D01*
X0126478Y0175053D02*
X0108900Y0175053D01*
X0108900Y0173454D02*
X0128076Y0173454D01*
X0129675Y0171856D02*
X0108900Y0171856D01*
X0108900Y0170257D02*
X0131273Y0170257D01*
X0132872Y0168659D02*
X0108900Y0168659D01*
X0108900Y0167060D02*
X0134470Y0167060D01*
X0136069Y0165462D02*
X0108900Y0165462D01*
X0108900Y0163863D02*
X0137667Y0163863D01*
X0139266Y0162265D02*
X0108900Y0162265D01*
X0108900Y0160666D02*
X0140864Y0160666D01*
X0140798Y0159068D02*
X0108900Y0159068D01*
X0108900Y0157469D02*
X0139199Y0157469D01*
X0145139Y0157469D02*
X0165900Y0157469D01*
X0165900Y0155870D02*
X0145957Y0155870D01*
X0146687Y0154272D02*
X0165900Y0154272D01*
X0165900Y0152673D02*
X0164920Y0152673D01*
X0170100Y0152673D02*
X0180300Y0152673D01*
X0180300Y0151075D02*
X0170100Y0151075D01*
X0170100Y0149476D02*
X0180300Y0149476D01*
X0180300Y0147878D02*
X0170100Y0147878D01*
X0170100Y0146279D02*
X0180300Y0146279D01*
X0181149Y0144681D02*
X0170100Y0144681D01*
X0170100Y0143082D02*
X0182405Y0143082D01*
X0182405Y0141484D02*
X0170100Y0141484D01*
X0170100Y0139885D02*
X0181016Y0139885D01*
X0179417Y0138287D02*
X0170100Y0138287D01*
X0171100Y0136688D02*
X0177819Y0136688D01*
X0176220Y0135090D02*
X0171329Y0135090D01*
X0171329Y0133491D02*
X0174621Y0133491D01*
X0173023Y0131893D02*
X0171329Y0131893D01*
X0171329Y0130294D02*
X0171424Y0130294D01*
X0159600Y0128696D02*
X0158578Y0128696D01*
X0159600Y0127097D02*
X0106213Y0127097D01*
X0106200Y0128696D02*
X0153731Y0128696D01*
X0152780Y0130294D02*
X0106264Y0130294D01*
X0107863Y0131893D02*
X0152780Y0131893D01*
X0152780Y0133491D02*
X0108900Y0133491D01*
X0108900Y0135090D02*
X0139119Y0135090D01*
X0138300Y0136688D02*
X0108900Y0136688D01*
X0108900Y0138287D02*
X0138043Y0138287D01*
X0138000Y0139885D02*
X0108900Y0139885D01*
X0108900Y0141484D02*
X0138000Y0141484D01*
X0138000Y0143082D02*
X0108900Y0143082D01*
X0108900Y0144681D02*
X0138000Y0144681D01*
X0138000Y0146279D02*
X0108900Y0146279D01*
X0108900Y0147878D02*
X0138000Y0147878D01*
X0142200Y0147878D02*
X0156554Y0147878D01*
X0156554Y0146279D02*
X0142200Y0146279D01*
X0142200Y0144681D02*
X0156554Y0144681D01*
X0156554Y0143082D02*
X0142200Y0143082D01*
X0142200Y0141484D02*
X0156554Y0141484D01*
X0156554Y0139885D02*
X0144506Y0139885D01*
X0145429Y0138287D02*
X0156908Y0138287D01*
X0156154Y0136688D02*
X0156154Y0136688D01*
X0156154Y0135090D02*
X0156154Y0135090D01*
X0156154Y0133491D02*
X0156154Y0133491D01*
X0156154Y0131893D02*
X0156154Y0131893D01*
X0156154Y0130294D02*
X0156154Y0130294D01*
X0156154Y0128696D02*
X0156154Y0128696D01*
X0158529Y0125499D02*
X0106077Y0125499D01*
X0105513Y0123900D02*
X0156930Y0123900D01*
X0155332Y0122302D02*
X0099172Y0122302D01*
X0097573Y0120703D02*
X0153733Y0120703D01*
X0152135Y0119105D02*
X0095975Y0119105D01*
X0094376Y0117506D02*
X0150536Y0117506D01*
X0148938Y0115908D02*
X0092778Y0115908D01*
X0091179Y0114309D02*
X0147339Y0114309D01*
X0146100Y0112711D02*
X0089581Y0112711D01*
X0087982Y0111112D02*
X0146100Y0111112D01*
X0127351Y0101521D02*
X0108749Y0101521D01*
X0110347Y0099923D02*
X0125753Y0099923D01*
X0113875Y0103120D02*
X0107150Y0103120D01*
X0105552Y0104718D02*
X0113051Y0104718D01*
X0113051Y0106317D02*
X0105250Y0106317D01*
X0105250Y0107915D02*
X0113051Y0107915D01*
X0113317Y0109514D02*
X0086384Y0109514D01*
X0084785Y0107915D02*
X0098113Y0107915D01*
X0098113Y0106317D02*
X0083186Y0106317D01*
X0082180Y0104718D02*
X0098113Y0104718D01*
X0098113Y0103120D02*
X0082180Y0103120D01*
X0082114Y0101521D02*
X0098113Y0101521D01*
X0098113Y0099923D02*
X0082380Y0099923D01*
X0078795Y0096726D02*
X0078427Y0096726D01*
X0078427Y0095127D02*
X0078795Y0095127D01*
X0057900Y0099923D02*
X0027547Y0099923D01*
X0025949Y0101521D02*
X0057900Y0101521D01*
X0057900Y0103120D02*
X0024350Y0103120D01*
X0022752Y0104718D02*
X0057900Y0104718D01*
X0057900Y0106317D02*
X0021153Y0106317D01*
X0021000Y0107915D02*
X0022600Y0107915D01*
X0022600Y0109514D02*
X0021000Y0109514D01*
X0021000Y0111112D02*
X0022600Y0111112D01*
X0022600Y0112711D02*
X0021000Y0112711D01*
X0021000Y0114309D02*
X0022600Y0114309D01*
X0022600Y0115908D02*
X0021000Y0115908D01*
X0021000Y0117506D02*
X0022600Y0117506D01*
X0022600Y0119105D02*
X0021000Y0119105D01*
X0021000Y0120703D02*
X0022600Y0120703D01*
X0022600Y0122302D02*
X0021000Y0122302D01*
X0021000Y0123900D02*
X0022600Y0123900D01*
X0022600Y0125499D02*
X0021000Y0125499D01*
X0021000Y0127097D02*
X0022600Y0127097D01*
X0022600Y0128696D02*
X0021000Y0128696D01*
X0021000Y0130294D02*
X0022600Y0130294D01*
X0023988Y0129612D02*
X0023988Y0121638D01*
X0027780Y0117846D01*
X0033143Y0117846D01*
X0036935Y0121638D01*
X0036935Y0121817D01*
X0041800Y0126682D01*
X0049261Y0126682D01*
X0054300Y0121643D01*
X0054300Y0122302D02*
X0054300Y0122302D01*
X0054300Y0123900D02*
X0054300Y0123900D01*
X0051774Y0123900D02*
X0036935Y0123900D01*
X0036943Y0125499D02*
X0062631Y0125499D01*
X0061774Y0123900D02*
X0061727Y0123900D01*
X0061033Y0127097D02*
X0036986Y0127097D01*
X0036786Y0128696D02*
X0059434Y0128696D01*
X0057836Y0130294D02*
X0036786Y0130294D01*
X0036786Y0131893D02*
X0056237Y0131893D01*
X0054639Y0133491D02*
X0036786Y0133491D01*
X0028074Y0131893D02*
X0022600Y0131893D01*
X0021800Y0131800D02*
X0023988Y0129612D01*
X0027100Y0130294D02*
X0027970Y0130294D01*
X0027522Y0133491D02*
X0027100Y0133491D01*
X0032430Y0136918D02*
X0037500Y0136918D01*
X0049261Y0136918D01*
X0051721Y0139379D01*
X0054300Y0141957D01*
X0056727Y0141484D02*
X0056873Y0141484D01*
X0056873Y0143082D02*
X0056791Y0143082D01*
X0056700Y0144681D02*
X0057290Y0144681D01*
X0057449Y0146279D02*
X0057900Y0146279D01*
X0066727Y0143082D02*
X0066873Y0143082D01*
X0066873Y0141484D02*
X0066727Y0141484D01*
X0066727Y0139885D02*
X0066873Y0139885D01*
X0061873Y0139885D02*
X0061727Y0139885D01*
X0061727Y0141484D02*
X0061873Y0141484D01*
X0056873Y0139885D02*
X0056727Y0139885D01*
X0053040Y0135090D02*
X0050826Y0135090D01*
X0041800Y0126682D02*
X0032430Y0126682D01*
X0036632Y0122302D02*
X0051673Y0122302D01*
X0051673Y0120703D02*
X0035970Y0120703D01*
X0034401Y0119105D02*
X0051911Y0119105D01*
X0054300Y0119105D02*
X0054300Y0119105D01*
X0054300Y0120703D02*
X0054300Y0120703D01*
X0056689Y0119105D02*
X0057105Y0119105D01*
X0057900Y0117506D02*
X0027100Y0117506D01*
X0027100Y0115908D02*
X0057900Y0115908D01*
X0057900Y0114309D02*
X0027100Y0114309D01*
X0027100Y0112711D02*
X0057900Y0112711D01*
X0057900Y0111112D02*
X0027100Y0111112D01*
X0027100Y0109514D02*
X0057900Y0109514D01*
X0057900Y0107915D02*
X0026868Y0107915D01*
X0020009Y0101521D02*
X0017400Y0101521D01*
X0017400Y0099923D02*
X0021608Y0099923D01*
X0023206Y0098324D02*
X0017400Y0098324D01*
X0017400Y0096726D02*
X0024805Y0096726D01*
X0025987Y0095127D02*
X0017400Y0095127D01*
X0017400Y0093529D02*
X0025987Y0093529D01*
X0026415Y0091930D02*
X0017400Y0091930D01*
X0017400Y0103120D02*
X0018411Y0103120D01*
X0032814Y0098324D02*
X0033101Y0098324D01*
X0036261Y0098324D02*
X0036630Y0098324D01*
X0036630Y0096726D02*
X0036261Y0096726D01*
X0036261Y0095127D02*
X0033518Y0095127D01*
X0036630Y0095127D02*
X0049567Y0095127D01*
X0049567Y0093529D02*
X0040411Y0093529D01*
X0040060Y0091930D02*
X0050269Y0091930D01*
X0053348Y0091930D02*
X0053717Y0091930D01*
X0053717Y0093529D02*
X0053348Y0093529D01*
X0053348Y0095127D02*
X0053717Y0095127D01*
X0053717Y0096726D02*
X0053348Y0096726D01*
X0053348Y0098324D02*
X0053717Y0098324D01*
X0049873Y0098324D02*
X0039790Y0098324D01*
X0040411Y0096726D02*
X0049567Y0096726D01*
X0056795Y0091930D02*
X0057242Y0091930D01*
X0036630Y0091930D02*
X0036261Y0091930D01*
X0036261Y0093529D02*
X0036630Y0093529D01*
X0017400Y0080740D02*
X0097247Y0080740D01*
X0097247Y0079142D02*
X0017400Y0079142D01*
X0017400Y0077543D02*
X0097247Y0077543D01*
X0097247Y0075945D02*
X0017400Y0075945D01*
X0017400Y0074346D02*
X0097247Y0074346D01*
X0097247Y0072748D02*
X0070922Y0072748D01*
X0076013Y0071149D02*
X0097247Y0071149D01*
X0060778Y0072748D02*
X0017400Y0072748D01*
X0103829Y0091930D02*
X0110446Y0091930D01*
X0108954Y0093529D02*
X0104100Y0093529D01*
X0103640Y0095127D02*
X0108600Y0095127D01*
X0107605Y0096726D02*
X0105250Y0096726D01*
X0105250Y0098324D02*
X0106006Y0098324D01*
X0101866Y0123900D02*
X0101773Y0123900D01*
X0144681Y0135090D02*
X0152780Y0135090D01*
X0153016Y0136688D02*
X0145500Y0136688D01*
X0126885Y0148863D02*
X0126427Y0148740D01*
X0120567Y0148740D01*
X0120567Y0152324D01*
X0120198Y0152324D01*
X0112776Y0152324D01*
X0112776Y0150303D01*
X0112898Y0149845D01*
X0113135Y0149435D01*
X0113470Y0149100D01*
X0113881Y0148863D01*
X0114339Y0148740D01*
X0120198Y0148740D01*
X0120198Y0152324D01*
X0120198Y0152693D01*
X0112776Y0152693D01*
X0112776Y0154714D01*
X0112898Y0155172D01*
X0113135Y0155582D01*
X0113470Y0155918D01*
X0113881Y0156154D01*
X0114339Y0156277D01*
X0120198Y0156277D01*
X0120198Y0152693D01*
X0120567Y0152693D01*
X0120567Y0156277D01*
X0126427Y0156277D01*
X0126885Y0156154D01*
X0127295Y0155918D01*
X0127630Y0155582D01*
X0127867Y0155172D01*
X0127990Y0154714D01*
X0127990Y0152693D01*
X0120567Y0152693D01*
X0120567Y0152324D01*
X0127990Y0152324D01*
X0127990Y0150303D01*
X0127867Y0149845D01*
X0127630Y0149435D01*
X0127295Y0149100D01*
X0126885Y0148863D01*
X0127654Y0149476D02*
X0132274Y0149476D01*
X0131873Y0151075D02*
X0127990Y0151075D01*
X0127990Y0154272D02*
X0131873Y0154272D01*
X0131873Y0152673D02*
X0120567Y0152673D01*
X0120198Y0152673D02*
X0108900Y0152673D01*
X0108900Y0151075D02*
X0112776Y0151075D01*
X0113111Y0149476D02*
X0108900Y0149476D01*
X0108900Y0154272D02*
X0112776Y0154272D01*
X0113423Y0155870D02*
X0108900Y0155870D01*
X0120198Y0155870D02*
X0120567Y0155870D01*
X0120567Y0154272D02*
X0120198Y0154272D01*
X0120198Y0151075D02*
X0120567Y0151075D01*
X0120567Y0149476D02*
X0120198Y0149476D01*
X0127342Y0155870D02*
X0132604Y0155870D01*
X0146687Y0152673D02*
X0159388Y0152673D01*
X0157298Y0151075D02*
X0146687Y0151075D01*
X0146286Y0149476D02*
X0156610Y0149476D01*
X0170100Y0154272D02*
X0180300Y0154272D01*
X0181701Y0155870D02*
X0170100Y0155870D01*
X0170100Y0157469D02*
X0183299Y0157469D01*
X0184898Y0159068D02*
X0176392Y0159068D01*
X0176392Y0160666D02*
X0186496Y0160666D01*
X0188095Y0162265D02*
X0176392Y0162265D01*
X0176392Y0163863D02*
X0189693Y0163863D01*
X0190200Y0165462D02*
X0176392Y0165462D01*
X0176392Y0167060D02*
X0190200Y0167060D01*
X0189098Y0168659D02*
X0175944Y0168659D01*
X0176268Y0173454D02*
X0181553Y0173454D01*
X0183247Y0173454D02*
X0189098Y0173454D01*
X0189098Y0171856D02*
X0159525Y0171856D01*
X0157927Y0170257D02*
X0189098Y0170257D01*
X0189151Y0175053D02*
X0185490Y0175053D01*
X0186000Y0176651D02*
X0188898Y0176651D01*
X0188898Y0179848D02*
X0184643Y0179848D01*
X0185779Y0178250D02*
X0192482Y0178250D01*
X0192850Y0178250D02*
X0210357Y0178250D01*
X0210357Y0179848D02*
X0196435Y0179848D01*
X0196435Y0180541D02*
X0196312Y0180999D01*
X0196075Y0181409D01*
X0195740Y0181744D01*
X0195329Y0181981D01*
X0194872Y0182104D01*
X0192850Y0182104D01*
X0192850Y0178323D01*
X0196435Y0178323D01*
X0196435Y0180541D01*
X0196037Y0181447D02*
X0210357Y0181447D01*
X0210586Y0183045D02*
X0179325Y0183045D01*
X0180923Y0181447D02*
X0189295Y0181447D01*
X0192482Y0181447D02*
X0192850Y0181447D01*
X0192850Y0179848D02*
X0192482Y0179848D01*
X0196435Y0176651D02*
X0211261Y0176651D01*
X0212583Y0175053D02*
X0196182Y0175053D01*
X0196235Y0173454D02*
X0210984Y0173454D01*
X0209386Y0171856D02*
X0196235Y0171856D01*
X0196235Y0170257D02*
X0207787Y0170257D01*
X0206189Y0168659D02*
X0196235Y0168659D01*
X0194400Y0167060D02*
X0204590Y0167060D01*
X0202992Y0165462D02*
X0194400Y0165462D01*
X0194400Y0163863D02*
X0201393Y0163863D01*
X0199795Y0162265D02*
X0194034Y0162265D01*
X0192436Y0160666D02*
X0198196Y0160666D01*
X0196598Y0159068D02*
X0190837Y0159068D01*
X0189239Y0157469D02*
X0194999Y0157469D01*
X0193401Y0155870D02*
X0187640Y0155870D01*
X0179310Y0175053D02*
X0176392Y0175053D01*
X0176392Y0176651D02*
X0178800Y0176651D01*
X0178181Y0178250D02*
X0176392Y0178250D01*
X0176392Y0179848D02*
X0176582Y0179848D01*
X0177726Y0184644D02*
X0215700Y0184644D01*
X0215877Y0186242D02*
X0176128Y0186242D01*
X0174529Y0187841D02*
X0216950Y0187841D01*
X0221243Y0189439D02*
X0198977Y0189439D01*
X0199322Y0189615D02*
X0200040Y0190137D01*
X0200668Y0190765D01*
X0201189Y0191483D01*
X0201592Y0192273D01*
X0201867Y0193117D01*
X0202000Y0193958D01*
X0196847Y0193958D01*
X0196847Y0194917D01*
X0202000Y0194917D01*
X0201867Y0195758D01*
X0201592Y0196602D01*
X0201189Y0197393D01*
X0200668Y0198111D01*
X0200040Y0198739D01*
X0199322Y0199260D01*
X0198531Y0199663D01*
X0197687Y0199938D01*
X0196846Y0200071D01*
X0196846Y0194917D01*
X0195887Y0194917D01*
X0195887Y0193958D01*
X0190734Y0193958D01*
X0190867Y0193117D01*
X0191141Y0192273D01*
X0191544Y0191483D01*
X0192066Y0190765D01*
X0192694Y0190137D01*
X0193412Y0189615D01*
X0194202Y0189212D01*
X0195047Y0188938D01*
X0195887Y0188805D01*
X0195887Y0193958D01*
X0196846Y0193958D01*
X0196846Y0188805D01*
X0197687Y0188938D01*
X0198531Y0189212D01*
X0199322Y0189615D01*
X0200866Y0191038D02*
X0221100Y0191038D01*
X0221745Y0192636D02*
X0201710Y0192636D01*
X0201842Y0195833D02*
X0323236Y0195833D01*
X0322028Y0197432D02*
X0295423Y0197432D01*
X0295458Y0197563D02*
X0295458Y0199300D01*
X0295458Y0201037D01*
X0295336Y0201495D01*
X0295099Y0201905D01*
X0294763Y0202240D01*
X0294353Y0202477D01*
X0293895Y0202600D01*
X0290658Y0202600D01*
X0287421Y0202600D01*
X0286963Y0202477D01*
X0286553Y0202240D01*
X0286218Y0201905D01*
X0285981Y0201495D01*
X0285858Y0201037D01*
X0285858Y0199300D01*
X0290658Y0199300D01*
X0290658Y0199300D01*
X0285858Y0199300D01*
X0285858Y0197563D01*
X0285981Y0197105D01*
X0286218Y0196695D01*
X0286553Y0196360D01*
X0286963Y0196123D01*
X0287421Y0196000D01*
X0290658Y0196000D01*
X0290658Y0199300D01*
X0290658Y0202600D01*
X0290658Y0199300D01*
X0290658Y0199300D01*
X0290658Y0199300D01*
X0290658Y0196000D01*
X0293895Y0196000D01*
X0294353Y0196123D01*
X0294763Y0196360D01*
X0295099Y0196695D01*
X0295336Y0197105D01*
X0295458Y0197563D01*
X0295458Y0199030D02*
X0321489Y0199030D01*
X0321489Y0200629D02*
X0295458Y0200629D01*
X0295458Y0199300D02*
X0290658Y0199300D01*
X0290658Y0199300D01*
X0295458Y0199300D01*
X0294777Y0202227D02*
X0322056Y0202227D01*
X0323303Y0203826D02*
X0158544Y0203826D01*
X0156945Y0205424D02*
X0368806Y0205424D01*
X0367207Y0207023D02*
X0342293Y0207023D01*
X0343891Y0208621D02*
X0365609Y0208621D01*
X0364010Y0210220D02*
X0345490Y0210220D01*
X0347088Y0211818D02*
X0362412Y0211818D01*
X0360813Y0213417D02*
X0348687Y0213417D01*
X0350285Y0215015D02*
X0359215Y0215015D01*
X0355495Y0216614D02*
X0354005Y0216614D01*
X0353303Y0203826D02*
X0350376Y0203826D01*
X0351623Y0202227D02*
X0352056Y0202227D01*
X0360376Y0203826D02*
X0363020Y0203826D01*
X0361849Y0202227D02*
X0361623Y0202227D01*
X0366789Y0202227D02*
X0366889Y0202227D01*
X0366889Y0200629D02*
X0366789Y0200629D01*
X0366789Y0203826D02*
X0366889Y0203826D01*
X0343303Y0203826D02*
X0340376Y0203826D01*
X0341623Y0202227D02*
X0342056Y0202227D01*
X0333303Y0203826D02*
X0330376Y0203826D01*
X0331623Y0202227D02*
X0332056Y0202227D01*
X0332028Y0197432D02*
X0331651Y0197432D01*
X0330443Y0195833D02*
X0333236Y0195833D01*
X0339495Y0194235D02*
X0196847Y0194235D01*
X0195887Y0194235D02*
X0168135Y0194235D01*
X0166537Y0195833D02*
X0190892Y0195833D01*
X0190867Y0195758D02*
X0190734Y0194917D01*
X0195887Y0194917D01*
X0195887Y0200071D01*
X0195047Y0199938D01*
X0194202Y0199663D01*
X0193412Y0199260D01*
X0192694Y0198739D01*
X0192066Y0198111D01*
X0191544Y0197393D01*
X0191141Y0196602D01*
X0190867Y0195758D01*
X0191573Y0197432D02*
X0164938Y0197432D01*
X0163340Y0199030D02*
X0193095Y0199030D01*
X0195887Y0199030D02*
X0196846Y0199030D01*
X0196846Y0197432D02*
X0195887Y0197432D01*
X0195887Y0195833D02*
X0196846Y0195833D01*
X0196846Y0192636D02*
X0195887Y0192636D01*
X0195887Y0191038D02*
X0196846Y0191038D01*
X0196846Y0189439D02*
X0195887Y0189439D01*
X0193757Y0189439D02*
X0172931Y0189439D01*
X0171332Y0191038D02*
X0191868Y0191038D01*
X0191024Y0192636D02*
X0169734Y0192636D01*
X0161741Y0200629D02*
X0265858Y0200629D01*
X0265858Y0201037D02*
X0265858Y0199300D01*
X0270658Y0199300D01*
X0270658Y0199300D01*
X0265858Y0199300D01*
X0265858Y0197563D01*
X0265981Y0197105D01*
X0266218Y0196695D01*
X0266553Y0196360D01*
X0266963Y0196123D01*
X0267421Y0196000D01*
X0270658Y0196000D01*
X0270658Y0199300D01*
X0270658Y0202600D01*
X0267421Y0202600D01*
X0266963Y0202477D01*
X0266553Y0202240D01*
X0266218Y0201905D01*
X0265981Y0201495D01*
X0265858Y0201037D01*
X0266540Y0202227D02*
X0160143Y0202227D01*
X0199639Y0199030D02*
X0265858Y0199030D01*
X0265893Y0197432D02*
X0201161Y0197432D01*
X0221650Y0187841D02*
X0222268Y0187841D01*
X0233055Y0192636D02*
X0341094Y0192636D01*
X0338605Y0171856D02*
X0345074Y0171856D01*
X0342734Y0170257D02*
X0340944Y0170257D01*
X0335074Y0171856D02*
X0328605Y0171856D01*
X0330944Y0170257D02*
X0332734Y0170257D01*
X0348605Y0171856D02*
X0355074Y0171856D01*
X0352734Y0170257D02*
X0350944Y0170257D01*
X0358605Y0171856D02*
X0365074Y0171856D01*
X0362734Y0170257D02*
X0360944Y0170257D01*
X0368605Y0171856D02*
X0371386Y0171856D01*
X0400443Y0152673D02*
X0413933Y0152673D01*
X0413933Y0154272D02*
X0402042Y0154272D01*
X0398845Y0151075D02*
X0417733Y0151075D01*
X0418533Y0151075D02*
X0423233Y0151075D01*
X0423233Y0152673D02*
X0422333Y0152673D01*
X0422333Y0149476D02*
X0423233Y0149476D01*
X0423233Y0147878D02*
X0422333Y0147878D01*
X0422295Y0146279D02*
X0423233Y0146279D01*
X0418533Y0146279D02*
X0417733Y0146279D01*
X0417733Y0147878D02*
X0418533Y0147878D01*
X0418533Y0149476D02*
X0417733Y0149476D01*
X0413933Y0149476D02*
X0397246Y0149476D01*
X0395648Y0147878D02*
X0413933Y0147878D01*
X0413971Y0146279D02*
X0394049Y0146279D01*
X0392451Y0144681D02*
X0445800Y0144681D01*
X0445800Y0146279D02*
X0440333Y0146279D01*
X0440333Y0147878D02*
X0445800Y0147878D01*
X0445800Y0149476D02*
X0440333Y0149476D01*
X0440333Y0151075D02*
X0445800Y0151075D01*
X0445800Y0152673D02*
X0440333Y0152673D01*
X0440333Y0154272D02*
X0445800Y0154272D01*
X0445800Y0155870D02*
X0440333Y0155870D01*
X0439200Y0157469D02*
X0445800Y0157469D01*
X0445800Y0159068D02*
X0439200Y0159068D01*
X0439200Y0160666D02*
X0445800Y0160666D01*
X0445800Y0162265D02*
X0439200Y0162265D01*
X0439200Y0163863D02*
X0445800Y0163863D01*
X0445800Y0165462D02*
X0439200Y0165462D01*
X0439200Y0167060D02*
X0445800Y0167060D01*
X0445800Y0168659D02*
X0439200Y0168659D01*
X0439200Y0170257D02*
X0445800Y0170257D01*
X0445800Y0171856D02*
X0439200Y0171856D01*
X0439200Y0173454D02*
X0445800Y0173454D01*
X0445800Y0175053D02*
X0439200Y0175053D01*
X0439200Y0176651D02*
X0445800Y0176651D01*
X0445800Y0178250D02*
X0439200Y0178250D01*
X0440218Y0179848D02*
X0445800Y0179848D01*
X0443522Y0181447D02*
X0441816Y0181447D01*
X0450000Y0180919D02*
X0450376Y0180919D01*
X0451313Y0181856D01*
X0451313Y0182317D01*
X0453900Y0179730D01*
X0455130Y0178500D01*
X0507330Y0178500D01*
X0537036Y0148794D01*
X0534877Y0148794D01*
X0534359Y0148275D01*
X0533841Y0148794D01*
X0528972Y0148794D01*
X0528454Y0148275D01*
X0527935Y0148794D01*
X0523066Y0148794D01*
X0522548Y0148275D01*
X0522030Y0148794D01*
X0517161Y0148794D01*
X0516784Y0148417D01*
X0516567Y0148634D01*
X0516156Y0148871D01*
X0515698Y0148994D01*
X0513776Y0148994D01*
X0513776Y0144130D01*
X0513604Y0144130D01*
X0513604Y0148994D01*
X0511681Y0148994D01*
X0511223Y0148871D01*
X0510813Y0148634D01*
X0510596Y0148417D01*
X0510219Y0148794D01*
X0505350Y0148794D01*
X0504831Y0148275D01*
X0504313Y0148794D01*
X0499444Y0148794D01*
X0498926Y0148275D01*
X0498408Y0148794D01*
X0493539Y0148794D01*
X0492602Y0147856D01*
X0492602Y0145800D01*
X0463230Y0145800D01*
X0456900Y0139470D01*
X0450000Y0146370D01*
X0450000Y0180919D01*
X0450904Y0181447D02*
X0452183Y0181447D01*
X0453782Y0179848D02*
X0450000Y0179848D01*
X0450000Y0178250D02*
X0507580Y0178250D01*
X0509179Y0176651D02*
X0450000Y0176651D01*
X0450000Y0175053D02*
X0510778Y0175053D01*
X0512376Y0173454D02*
X0450000Y0173454D01*
X0450000Y0171856D02*
X0513975Y0171856D01*
X0515573Y0170257D02*
X0450000Y0170257D01*
X0450000Y0168659D02*
X0517172Y0168659D01*
X0518770Y0167060D02*
X0450000Y0167060D01*
X0450000Y0165462D02*
X0520369Y0165462D01*
X0521967Y0163863D02*
X0450000Y0163863D01*
X0450000Y0162265D02*
X0523566Y0162265D01*
X0525164Y0160666D02*
X0450000Y0160666D01*
X0450000Y0159068D02*
X0526763Y0159068D01*
X0528361Y0157469D02*
X0450000Y0157469D01*
X0450000Y0155870D02*
X0529960Y0155870D01*
X0531558Y0154272D02*
X0450000Y0154272D01*
X0450000Y0152673D02*
X0533157Y0152673D01*
X0534755Y0151075D02*
X0450000Y0151075D01*
X0450000Y0149476D02*
X0536354Y0149476D01*
X0535817Y0138287D02*
X0530057Y0138287D01*
X0528458Y0136688D02*
X0534219Y0136688D01*
X0532620Y0135090D02*
X0526860Y0135090D01*
X0525261Y0133491D02*
X0531021Y0133491D01*
X0529423Y0131893D02*
X0523663Y0131893D01*
X0522064Y0130294D02*
X0527824Y0130294D01*
X0526226Y0128696D02*
X0520466Y0128696D01*
X0520093Y0127097D02*
X0524627Y0127097D01*
X0523029Y0125499D02*
X0520093Y0125499D01*
X0521430Y0123900D02*
X0456746Y0123900D01*
X0456746Y0122302D02*
X0519832Y0122302D01*
X0518233Y0120703D02*
X0456746Y0120703D01*
X0456746Y0119105D02*
X0516635Y0119105D01*
X0515036Y0117506D02*
X0456746Y0117506D01*
X0456746Y0115908D02*
X0513438Y0115908D01*
X0511839Y0114309D02*
X0456746Y0114309D01*
X0456746Y0112711D02*
X0510241Y0112711D01*
X0508800Y0111112D02*
X0456746Y0111112D01*
X0456746Y0109514D02*
X0508800Y0109514D01*
X0505869Y0125499D02*
X0456746Y0125499D01*
X0456746Y0127097D02*
X0472910Y0127097D01*
X0472874Y0127232D02*
X0472997Y0126775D01*
X0473234Y0126364D01*
X0473569Y0126029D01*
X0473979Y0125792D01*
X0474437Y0125669D01*
X0476655Y0125669D01*
X0476655Y0129450D01*
X0477417Y0129450D01*
X0477417Y0125669D01*
X0479635Y0125669D01*
X0480093Y0125792D01*
X0480504Y0126029D01*
X0480839Y0126364D01*
X0481076Y0126775D01*
X0481198Y0127232D01*
X0481198Y0129450D01*
X0477417Y0129450D01*
X0477417Y0130213D01*
X0476655Y0130213D01*
X0476655Y0133994D01*
X0474437Y0133994D01*
X0473979Y0133871D01*
X0473569Y0133634D01*
X0473234Y0133299D01*
X0472997Y0132888D01*
X0472874Y0132431D01*
X0472874Y0130213D01*
X0476655Y0130213D01*
X0476655Y0129450D01*
X0472874Y0129450D01*
X0472874Y0127232D01*
X0472874Y0128696D02*
X0456746Y0128696D01*
X0458164Y0130294D02*
X0472874Y0130294D01*
X0472874Y0131893D02*
X0459000Y0131893D01*
X0459000Y0133491D02*
X0473426Y0133491D01*
X0476655Y0133491D02*
X0477417Y0133491D01*
X0477417Y0133994D02*
X0477417Y0130213D01*
X0481198Y0130213D01*
X0481198Y0132431D01*
X0481076Y0132888D01*
X0480839Y0133299D01*
X0480504Y0133634D01*
X0480093Y0133871D01*
X0479635Y0133994D01*
X0477417Y0133994D01*
X0477417Y0131893D02*
X0476655Y0131893D01*
X0476655Y0130294D02*
X0477417Y0130294D01*
X0477417Y0128696D02*
X0476655Y0128696D01*
X0476655Y0127097D02*
X0477417Y0127097D01*
X0481162Y0127097D02*
X0481342Y0127097D01*
X0481342Y0128696D02*
X0481198Y0128696D01*
X0481198Y0130294D02*
X0481342Y0130294D01*
X0481342Y0131893D02*
X0481198Y0131893D01*
X0480646Y0133491D02*
X0481977Y0133491D01*
X0488631Y0133491D02*
X0519321Y0133491D01*
X0517723Y0131893D02*
X0489266Y0131893D01*
X0492948Y0139885D02*
X0463255Y0139885D01*
X0461657Y0138287D02*
X0524117Y0138287D01*
X0522519Y0136688D02*
X0460058Y0136688D01*
X0459000Y0135090D02*
X0520920Y0135090D01*
X0513776Y0139885D02*
X0513604Y0139885D01*
X0513604Y0141484D02*
X0513776Y0141484D01*
X0513776Y0143082D02*
X0513604Y0143082D01*
X0513604Y0144681D02*
X0513776Y0144681D01*
X0513776Y0146279D02*
X0513604Y0146279D01*
X0513604Y0147878D02*
X0513776Y0147878D01*
X0492623Y0147878D02*
X0450000Y0147878D01*
X0450090Y0146279D02*
X0492602Y0146279D01*
X0492602Y0141484D02*
X0464854Y0141484D01*
X0462111Y0144681D02*
X0451689Y0144681D01*
X0453287Y0143082D02*
X0460513Y0143082D01*
X0458914Y0141484D02*
X0454886Y0141484D01*
X0456484Y0139885D02*
X0457316Y0139885D01*
X0450545Y0139885D02*
X0387655Y0139885D01*
X0389254Y0141484D02*
X0448946Y0141484D01*
X0447348Y0143082D02*
X0390852Y0143082D01*
X0387811Y0136688D02*
X0387678Y0136688D01*
X0394371Y0136688D02*
X0399386Y0136688D01*
X0399216Y0135090D02*
X0394857Y0135090D01*
X0396279Y0133491D02*
X0399216Y0133491D01*
X0399216Y0131893D02*
X0397877Y0131893D01*
X0409332Y0136688D02*
X0446462Y0136688D01*
X0432333Y0146279D02*
X0431233Y0146279D01*
X0431233Y0147878D02*
X0432333Y0147878D01*
X0432333Y0149476D02*
X0431233Y0149476D01*
X0431233Y0151075D02*
X0432333Y0151075D01*
X0432333Y0152673D02*
X0431233Y0152673D01*
X0431233Y0154272D02*
X0432333Y0154272D01*
X0432333Y0155870D02*
X0431233Y0155870D01*
X0435000Y0157469D02*
X0425039Y0157469D01*
X0426637Y0159068D02*
X0435000Y0159068D01*
X0435000Y0160666D02*
X0428236Y0160666D01*
X0429300Y0162265D02*
X0435000Y0162265D01*
X0435000Y0163863D02*
X0429300Y0163863D01*
X0429300Y0165462D02*
X0435000Y0165462D01*
X0435000Y0167060D02*
X0429300Y0167060D01*
X0429300Y0168659D02*
X0435000Y0168659D01*
X0453900Y0179730D02*
X0453900Y0179730D01*
X0446460Y0123900D02*
X0440251Y0123900D01*
X0440700Y0122302D02*
X0443011Y0122302D01*
X0441843Y0120703D02*
X0441467Y0120703D01*
X0387451Y0101521D02*
X0377100Y0101521D01*
X0377100Y0099923D02*
X0382542Y0099923D01*
X0381814Y0098324D02*
X0377100Y0098324D01*
X0377100Y0096726D02*
X0381814Y0096726D01*
X0381814Y0095127D02*
X0377100Y0095127D01*
X0377100Y0093529D02*
X0382218Y0093529D01*
X0364694Y0072748D02*
X0364694Y0072748D01*
X0364694Y0071149D02*
X0364694Y0071149D01*
X0364694Y0069551D02*
X0364694Y0069551D01*
X0364694Y0067952D02*
X0364694Y0067952D01*
X0364694Y0067942D02*
X0364694Y0067942D01*
X0359694Y0067952D02*
X0359694Y0067952D01*
X0359694Y0069551D02*
X0359694Y0069551D01*
X0359694Y0071149D02*
X0359694Y0071149D01*
X0359694Y0072748D02*
X0359694Y0072748D01*
X0354694Y0072748D02*
X0354694Y0072748D01*
X0354694Y0071149D02*
X0354694Y0071149D01*
X0354694Y0069551D02*
X0354694Y0069551D01*
X0354694Y0067952D02*
X0354694Y0067952D01*
X0354694Y0066354D02*
X0354694Y0066354D01*
X0354694Y0064755D02*
X0354694Y0064755D01*
X0354694Y0063157D02*
X0354694Y0063157D01*
X0357590Y0059960D02*
X0341100Y0059960D01*
X0341100Y0061558D02*
X0359188Y0061558D01*
X0355991Y0058361D02*
X0341100Y0058361D01*
X0339633Y0056763D02*
X0354393Y0056763D01*
X0352794Y0055164D02*
X0338034Y0055164D01*
X0336436Y0053566D02*
X0351196Y0053566D01*
X0349597Y0051967D02*
X0334837Y0051967D01*
X0333239Y0050369D02*
X0347999Y0050369D01*
X0340006Y0042376D02*
X0310870Y0042376D01*
X0311671Y0040778D02*
X0338408Y0040778D01*
X0336809Y0039179D02*
X0311671Y0039179D01*
X0307093Y0035982D02*
X0305641Y0035982D01*
X0305641Y0034384D02*
X0307093Y0034384D01*
X0301333Y0026391D02*
X0300613Y0026391D01*
X0331609Y0037581D02*
X0332779Y0037581D01*
X0341609Y0037581D02*
X0342779Y0037581D01*
X0346609Y0037581D02*
X0347560Y0037581D01*
X0349694Y0037581D02*
X0349694Y0037581D01*
X0349694Y0035982D02*
X0349694Y0035982D01*
X0349694Y0034384D02*
X0349694Y0034384D01*
X0349694Y0032785D02*
X0349694Y0032785D01*
X0349694Y0031721D02*
X0349694Y0031721D01*
X0349694Y0031187D02*
X0349694Y0031187D01*
X0349694Y0029588D02*
X0349694Y0029588D01*
X0349694Y0027990D02*
X0349694Y0027990D01*
X0349694Y0026391D02*
X0349694Y0026391D01*
X0354694Y0026391D02*
X0354694Y0026391D01*
X0354694Y0027990D02*
X0354694Y0027990D01*
X0354694Y0029588D02*
X0354694Y0029588D01*
X0354694Y0031187D02*
X0354694Y0031187D01*
X0354694Y0032785D02*
X0354694Y0032785D01*
X0354694Y0034384D02*
X0354694Y0034384D01*
X0354694Y0035982D02*
X0354694Y0035982D01*
X0354694Y0037581D02*
X0354694Y0037581D01*
X0356827Y0037581D02*
X0357560Y0037581D01*
X0359694Y0037581D02*
X0359694Y0037581D01*
X0359694Y0035982D02*
X0359694Y0035982D01*
X0359694Y0034384D02*
X0359694Y0034384D01*
X0359694Y0032785D02*
X0359694Y0032785D01*
X0359694Y0031187D02*
X0359694Y0031187D01*
X0359694Y0029588D02*
X0359694Y0029588D01*
X0359694Y0027990D02*
X0359694Y0027990D01*
X0359694Y0026391D02*
X0359694Y0026391D01*
X0364694Y0026391D02*
X0364694Y0026391D01*
X0364694Y0027990D02*
X0364694Y0027990D01*
X0364694Y0029588D02*
X0364694Y0029588D01*
X0364694Y0031187D02*
X0364694Y0031187D01*
X0364694Y0032785D02*
X0364694Y0032785D01*
X0364694Y0034384D02*
X0364694Y0034384D01*
X0364694Y0035982D02*
X0364694Y0035982D01*
X0364694Y0037581D02*
X0364694Y0037581D01*
X0362560Y0037581D02*
X0361827Y0037581D01*
X0352560Y0037581D02*
X0351827Y0037581D01*
X0342249Y0026391D02*
X0342138Y0026391D01*
X0337249Y0026391D02*
X0337138Y0026391D01*
X0332249Y0026391D02*
X0332138Y0026391D01*
X0344694Y0063157D02*
X0344694Y0063157D01*
X0344694Y0064755D02*
X0344694Y0064755D01*
X0344694Y0066354D02*
X0344694Y0066354D01*
X0344694Y0067952D02*
X0344694Y0067952D01*
X0344694Y0069551D02*
X0344694Y0069551D01*
X0344694Y0071149D02*
X0344694Y0071149D01*
X0344694Y0072748D02*
X0344694Y0072748D01*
X0349694Y0072748D02*
X0349694Y0072748D01*
X0349694Y0071149D02*
X0349694Y0071149D01*
X0349694Y0069551D02*
X0349694Y0069551D01*
X0349694Y0067952D02*
X0349694Y0067952D01*
X0349694Y0066354D02*
X0349694Y0066354D01*
X0349694Y0064755D02*
X0349694Y0064755D01*
X0349694Y0063157D02*
X0349694Y0063157D01*
X0326913Y0064755D02*
X0311114Y0064755D01*
X0309516Y0066354D02*
X0326913Y0066354D01*
X0326278Y0067952D02*
X0307917Y0067952D01*
X0306319Y0069551D02*
X0322558Y0069551D01*
X0373524Y0066354D02*
X0393071Y0066354D01*
X0393071Y0067952D02*
X0375122Y0067952D01*
X0294951Y0136688D02*
X0291300Y0136688D01*
X0290856Y0138287D02*
X0294951Y0138287D01*
X0305648Y0147878D02*
X0318000Y0147878D01*
X0313638Y0149476D02*
X0313269Y0149476D01*
X0313269Y0151075D02*
X0313638Y0151075D01*
X0309488Y0151075D02*
X0308845Y0151075D01*
X0309520Y0149476D02*
X0307246Y0149476D01*
X0305498Y0159068D02*
X0304323Y0159068D01*
X0286749Y0181447D02*
X0274568Y0181447D01*
X0273895Y0196000D02*
X0274353Y0196123D01*
X0274763Y0196360D01*
X0275099Y0196695D01*
X0275336Y0197105D01*
X0275458Y0197563D01*
X0275458Y0199300D01*
X0275458Y0201037D01*
X0275336Y0201495D01*
X0275099Y0201905D01*
X0274763Y0202240D01*
X0274353Y0202477D01*
X0273895Y0202600D01*
X0270658Y0202600D01*
X0270658Y0199300D01*
X0270658Y0199300D01*
X0270658Y0199300D01*
X0270658Y0196000D01*
X0273895Y0196000D01*
X0275423Y0197432D02*
X0285893Y0197432D01*
X0285858Y0199030D02*
X0275458Y0199030D01*
X0275458Y0199300D02*
X0270658Y0199300D01*
X0275458Y0199300D01*
X0275458Y0200629D02*
X0285858Y0200629D01*
X0286540Y0202227D02*
X0274777Y0202227D01*
X0270658Y0202227D02*
X0270658Y0202227D01*
X0270658Y0200629D02*
X0270658Y0200629D01*
X0270658Y0199300D02*
X0270658Y0199300D01*
X0270658Y0199030D02*
X0270658Y0199030D01*
X0270658Y0197432D02*
X0270658Y0197432D01*
X0290658Y0197432D02*
X0290658Y0197432D01*
X0290658Y0199030D02*
X0290658Y0199030D01*
X0290658Y0200629D02*
X0290658Y0200629D01*
X0290658Y0202227D02*
X0290658Y0202227D01*
X0244449Y0143082D02*
X0231300Y0143082D01*
X0231300Y0141484D02*
X0245122Y0141484D01*
X0152720Y0159068D02*
X0146737Y0159068D01*
X0148336Y0160666D02*
X0152720Y0160666D01*
X0152720Y0162265D02*
X0149934Y0162265D01*
X0151533Y0163863D02*
X0152720Y0163863D01*
X0056873Y0123900D02*
X0056826Y0123900D01*
X0095368Y0029588D02*
X0099098Y0029588D01*
X0097988Y0027990D02*
X0096478Y0027990D01*
X0096833Y0026391D02*
X0097633Y0026391D01*
X0097633Y0024793D02*
X0096833Y0024793D01*
X0096833Y0023194D02*
X0097633Y0023194D01*
X0097633Y0021596D02*
X0096833Y0021596D01*
X0096833Y0019997D02*
X0097633Y0019997D01*
X0098007Y0018399D02*
X0096459Y0018399D01*
X0095321Y0016800D02*
X0099145Y0016800D01*
D48*
X0102233Y0023217D02*
X0101400Y0024000D01*
X0101400Y0031200D01*
X0091500Y0041100D01*
X0091170Y0041997D01*
X0086100Y0037500D02*
X0086100Y0046500D01*
X0102300Y0062700D01*
X0212100Y0062700D01*
X0215700Y0064500D02*
X0228300Y0077100D01*
X0228300Y0106800D01*
X0230100Y0108600D01*
X0254400Y0108600D01*
X0269700Y0123900D01*
X0269700Y0132900D01*
X0267900Y0134700D01*
X0265451Y0134831D01*
X0266100Y0134700D01*
X0267900Y0134700D01*
X0269700Y0136500D01*
X0269700Y0139200D01*
X0267900Y0141000D01*
X0265451Y0141131D01*
X0266100Y0141000D01*
X0267900Y0141000D01*
X0269700Y0142800D01*
X0269700Y0149100D01*
X0262500Y0156300D01*
X0262500Y0190500D01*
X0258900Y0194100D01*
X0196800Y0194100D01*
X0196367Y0194438D01*
X0195900Y0194100D01*
X0193200Y0191400D01*
X0193200Y0178800D01*
X0192666Y0178139D01*
X0192666Y0171446D02*
X0192300Y0170700D01*
X0192300Y0163500D01*
X0182400Y0153600D01*
X0182400Y0146400D01*
X0186000Y0142800D01*
X0186505Y0142115D01*
X0186000Y0141900D01*
X0172500Y0128400D01*
X0172500Y0109500D01*
X0172312Y0108611D01*
X0171600Y0108600D01*
X0166200Y0103200D01*
X0150000Y0103200D01*
X0148200Y0105000D01*
X0148200Y0112200D01*
X0161700Y0125700D01*
X0161700Y0133800D01*
X0162154Y0134040D01*
X0162600Y0134700D01*
X0162600Y0143700D01*
X0162154Y0144241D01*
X0168000Y0133800D02*
X0168154Y0133040D01*
X0168000Y0132900D01*
X0168000Y0129300D01*
X0154500Y0115800D01*
X0154500Y0109500D01*
X0154202Y0108611D01*
X0144600Y0101400D02*
X0140100Y0105900D01*
X0139556Y0106603D01*
X0139200Y0105900D01*
X0133800Y0105900D01*
X0131100Y0103200D01*
X0131100Y0102300D01*
X0101400Y0072600D01*
X0100816Y0071918D01*
X0103200Y0068100D02*
X0115800Y0080700D01*
X0115800Y0084300D01*
X0132900Y0101400D01*
X0134700Y0101400D01*
X0121200Y0106800D02*
X0120658Y0106603D01*
X0121200Y0106800D02*
X0121200Y0109500D01*
X0089700Y0109500D01*
X0078900Y0098700D01*
X0078611Y0098414D01*
X0078000Y0098700D01*
X0064500Y0112200D01*
X0064500Y0118500D01*
X0070800Y0118500D01*
X0087000Y0134700D01*
X0087000Y0153600D01*
X0087469Y0154083D01*
X0087900Y0154500D01*
X0091500Y0158100D01*
X0091500Y0184200D01*
X0096000Y0188700D01*
X0096000Y0195900D01*
X0095717Y0196387D01*
X0098276Y0196387D02*
X0098700Y0196800D01*
X0100500Y0196800D01*
X0100835Y0196387D01*
X0098700Y0195900D02*
X0098276Y0196387D01*
X0098700Y0195900D02*
X0098700Y0188700D01*
X0096000Y0186000D01*
X0096000Y0173400D01*
X0095717Y0173355D01*
X0097800Y0172500D02*
X0098276Y0173355D01*
X0098700Y0173400D01*
X0100500Y0173400D01*
X0100835Y0173355D01*
X0103200Y0172500D02*
X0103394Y0173355D01*
X0103200Y0172500D02*
X0103200Y0164400D01*
X0097800Y0170700D02*
X0096900Y0169800D01*
X0096900Y0139200D01*
X0096900Y0135600D01*
X0096209Y0135265D01*
X0093300Y0133800D02*
X0093300Y0154500D01*
X0087900Y0160800D02*
X0087469Y0160776D01*
X0087000Y0159900D01*
X0069900Y0142800D01*
X0069300Y0141957D01*
X0064500Y0142800D02*
X0064300Y0141957D01*
X0064500Y0142800D02*
X0064500Y0150900D01*
X0078000Y0164400D01*
X0078000Y0177900D01*
X0074400Y0181500D01*
X0042000Y0181500D01*
X0041100Y0180600D01*
X0041100Y0175200D01*
X0044700Y0171600D01*
X0044831Y0170855D01*
X0045600Y0177000D02*
X0053700Y0168900D01*
X0054438Y0169280D01*
X0054600Y0177000D02*
X0062700Y0168900D01*
X0062784Y0169398D01*
X0062700Y0168900D02*
X0062700Y0154500D01*
X0054600Y0146400D01*
X0054600Y0142800D01*
X0054300Y0141957D01*
X0051721Y0139379D02*
X0069000Y0122100D01*
X0069300Y0121643D01*
X0064500Y0121200D02*
X0064300Y0121643D01*
X0063600Y0122100D01*
X0060900Y0124800D01*
X0057300Y0124800D01*
X0054600Y0122100D01*
X0054300Y0121643D01*
X0059300Y0121643D02*
X0060000Y0121200D01*
X0060000Y0096000D01*
X0060225Y0095343D01*
X0053532Y0095343D02*
X0052800Y0095100D01*
X0051000Y0095100D01*
X0051000Y0042000D01*
X0051170Y0041997D01*
X0051900Y0041100D01*
X0051900Y0024000D01*
X0052233Y0023217D01*
X0052800Y0023100D01*
X0060000Y0015900D01*
X0128400Y0015900D01*
X0132000Y0019500D01*
X0132000Y0042000D01*
X0131091Y0041209D01*
X0131100Y0042000D01*
X0132000Y0042000D01*
X0143700Y0042000D01*
X0147300Y0045600D01*
X0158100Y0045600D01*
X0161700Y0042000D01*
X0161879Y0041209D01*
X0162600Y0042000D01*
X0167100Y0046500D01*
X0186000Y0046500D01*
X0190500Y0042000D01*
X0191170Y0041328D01*
X0191400Y0042000D01*
X0195000Y0045600D01*
X0215700Y0045600D01*
X0215700Y0064500D01*
X0222000Y0068100D02*
X0231900Y0078000D01*
X0231900Y0105000D01*
X0230100Y0108600D02*
X0229200Y0109500D01*
X0229200Y0131100D01*
X0230100Y0132000D01*
X0248100Y0132000D01*
X0248100Y0126600D01*
X0247627Y0126249D01*
X0252600Y0124800D02*
X0248100Y0120300D01*
X0247627Y0119556D01*
X0247200Y0120300D01*
X0234600Y0120300D01*
X0234083Y0120635D01*
X0252600Y0124800D02*
X0265200Y0124800D01*
X0265451Y0125383D01*
X0265200Y0128400D02*
X0258900Y0128400D01*
X0251700Y0135600D01*
X0251700Y0148200D01*
X0249000Y0150900D01*
X0248217Y0151761D01*
X0248100Y0151800D01*
X0240900Y0151800D01*
X0234600Y0158100D01*
X0234083Y0158635D01*
X0259800Y0148200D02*
X0265200Y0148200D01*
X0265451Y0147430D01*
X0265451Y0144280D02*
X0265200Y0143700D01*
X0257100Y0143700D01*
X0248217Y0145068D02*
X0248100Y0144600D01*
X0248100Y0132000D01*
X0259800Y0132900D02*
X0261600Y0132900D01*
X0261600Y0136500D01*
X0262500Y0137400D01*
X0265200Y0137400D01*
X0265451Y0137981D01*
X0265200Y0132000D02*
X0262500Y0132000D01*
X0261600Y0132900D01*
X0265200Y0132000D02*
X0265451Y0131682D01*
X0265451Y0128532D02*
X0265200Y0128400D01*
X0274200Y0125700D02*
X0274200Y0152700D01*
X0274477Y0153306D01*
X0276900Y0153600D02*
X0277627Y0153306D01*
X0276900Y0153600D02*
X0276900Y0163500D01*
X0280500Y0165300D02*
X0266100Y0179700D01*
X0270600Y0184200D01*
X0270658Y0184300D01*
X0271500Y0184200D01*
X0290400Y0184200D01*
X0290658Y0184300D01*
X0290658Y0199300D02*
X0291300Y0199500D01*
X0296700Y0204900D01*
X0359700Y0204900D01*
X0364200Y0200400D01*
X0366000Y0200400D01*
X0366839Y0199796D01*
X0375000Y0202200D02*
X0376839Y0199796D01*
X0376800Y0200400D01*
X0375000Y0202200D01*
X0375900Y0202200D01*
X0439800Y0266100D01*
X0458700Y0266100D01*
X0471300Y0253500D01*
X0471300Y0237300D01*
X0508200Y0237300D01*
X0517200Y0228300D01*
X0531600Y0228300D01*
X0535200Y0231900D01*
X0535337Y0232448D01*
X0541500Y0232800D02*
X0541500Y0235500D01*
X0541602Y0235736D01*
X0542400Y0236400D01*
X0546000Y0236400D01*
X0550500Y0240900D01*
X0550500Y0257100D01*
X0526200Y0281400D01*
X0294900Y0281400D01*
X0287700Y0274200D01*
X0139200Y0274200D01*
X0137400Y0270600D02*
X0152700Y0270600D01*
X0154500Y0272400D01*
X0285900Y0272400D01*
X0291300Y0267000D01*
X0336300Y0267000D01*
X0341700Y0261600D01*
X0341800Y0261582D01*
X0348000Y0260700D02*
X0348669Y0259889D01*
X0348900Y0260700D01*
X0362400Y0274200D01*
X0505500Y0274200D01*
X0519000Y0260700D01*
X0523500Y0265200D01*
X0533400Y0265200D01*
X0537900Y0260700D01*
X0538669Y0259889D01*
X0536100Y0268800D02*
X0547800Y0257100D01*
X0547800Y0253500D01*
X0546900Y0252600D01*
X0546900Y0249000D01*
X0546474Y0248582D01*
X0554100Y0241800D02*
X0519000Y0206700D01*
X0411000Y0206700D01*
X0398400Y0194100D01*
X0342600Y0194100D01*
X0337200Y0199500D01*
X0336839Y0199796D01*
X0340800Y0208500D02*
X0351600Y0219300D01*
X0355200Y0222900D01*
X0364200Y0222900D01*
X0373200Y0231900D01*
X0375900Y0231900D01*
X0411000Y0267000D01*
X0435300Y0267000D01*
X0439800Y0260700D02*
X0443400Y0264300D01*
X0448800Y0264300D01*
X0451500Y0261600D01*
X0451800Y0261582D01*
X0456900Y0270600D02*
X0465900Y0261600D01*
X0476700Y0272400D01*
X0481200Y0272400D01*
X0484800Y0268800D01*
X0479400Y0268800D02*
X0516300Y0231900D01*
X0528000Y0231900D01*
X0528263Y0232448D01*
X0531600Y0222900D02*
X0448800Y0222900D01*
X0442500Y0216600D01*
X0442500Y0212100D01*
X0446100Y0226500D02*
X0434400Y0238200D01*
X0434400Y0237300D01*
X0397500Y0200400D01*
X0396839Y0199796D01*
X0387600Y0200400D02*
X0386839Y0199796D01*
X0387600Y0200400D02*
X0387600Y0204900D01*
X0437100Y0254400D01*
X0438900Y0254400D01*
X0439635Y0255197D01*
X0437126Y0248582D02*
X0437100Y0248100D01*
X0434400Y0245400D01*
X0434400Y0238200D01*
X0441998Y0235736D02*
X0442500Y0235500D01*
X0442500Y0232800D01*
X0447000Y0228300D01*
X0465000Y0228300D01*
X0472200Y0235500D01*
X0475800Y0235500D01*
X0477600Y0233700D01*
X0481200Y0233700D01*
X0474000Y0231900D02*
X0471300Y0231900D01*
X0465900Y0226500D01*
X0446100Y0226500D01*
X0455337Y0232448D02*
X0456000Y0231900D01*
X0465900Y0231900D01*
X0471300Y0237300D01*
X0474900Y0249000D02*
X0474900Y0252600D01*
X0465900Y0261600D01*
X0456900Y0270600D02*
X0408300Y0270600D01*
X0384900Y0247200D01*
X0383100Y0249000D01*
X0357000Y0249000D01*
X0356474Y0248582D01*
X0356100Y0241800D02*
X0355621Y0241558D01*
X0356100Y0241800D02*
X0377700Y0241800D01*
X0381300Y0245400D01*
X0380400Y0241800D02*
X0383100Y0241800D01*
X0384900Y0243600D01*
X0384900Y0247200D01*
X0380400Y0241800D02*
X0364200Y0225600D01*
X0352500Y0225600D01*
X0340800Y0213900D01*
X0301200Y0213900D01*
X0301200Y0212100D01*
X0301200Y0213900D02*
X0296700Y0213900D01*
X0294900Y0215700D01*
X0294900Y0232800D01*
X0279600Y0248100D01*
X0276900Y0248100D01*
X0276474Y0248582D01*
X0276000Y0254400D02*
X0298500Y0231900D01*
X0298500Y0219300D01*
X0298500Y0217500D01*
X0298500Y0219300D02*
X0339900Y0219300D01*
X0349800Y0229200D01*
X0353400Y0229200D01*
X0350700Y0232800D02*
X0366000Y0232800D01*
X0351600Y0233700D02*
X0351600Y0235500D01*
X0351602Y0235736D01*
X0351600Y0233700D02*
X0350700Y0232800D01*
X0344400Y0226500D01*
X0328200Y0226500D01*
X0317400Y0237300D01*
X0328200Y0231900D02*
X0333600Y0231900D01*
X0337200Y0228300D01*
X0341700Y0228300D01*
X0345300Y0231900D01*
X0345337Y0232448D01*
X0357900Y0219300D02*
X0375000Y0202200D01*
X0394800Y0192300D02*
X0439800Y0192300D01*
X0444300Y0196800D01*
X0450600Y0196800D01*
X0451500Y0195900D01*
X0451500Y0188700D01*
X0449700Y0186900D01*
X0444300Y0186900D01*
X0437100Y0179700D01*
X0437100Y0151800D01*
X0436333Y0151057D01*
X0427233Y0151057D02*
X0427200Y0151800D01*
X0421800Y0157200D01*
X0427200Y0162600D01*
X0427200Y0175200D01*
X0427233Y0175457D01*
X0428100Y0176100D01*
X0445200Y0193200D01*
X0447000Y0193200D01*
X0447213Y0193769D01*
X0449700Y0186900D02*
X0456000Y0180600D01*
X0508200Y0180600D01*
X0540600Y0148200D01*
X0540600Y0140100D01*
X0510900Y0110400D01*
X0510900Y0035700D01*
X0515400Y0031200D01*
X0515400Y0023100D01*
X0512700Y0020400D01*
X0512036Y0020225D01*
X0512036Y0024162D02*
X0511800Y0024900D01*
X0511800Y0029400D01*
X0501900Y0024900D02*
X0501013Y0024162D01*
X0501900Y0024900D02*
X0501900Y0038400D01*
X0502800Y0039300D01*
X0502800Y0093300D01*
X0493800Y0102300D01*
X0486600Y0102300D01*
X0486600Y0105900D01*
X0486600Y0102300D02*
X0482100Y0102300D01*
X0455100Y0075300D01*
X0410100Y0075300D01*
X0413700Y0071700D02*
X0413700Y0060900D01*
X0375900Y0023100D01*
X0304800Y0023100D01*
X0304320Y0022981D01*
X0297627Y0022981D02*
X0297600Y0023100D01*
X0297600Y0036600D01*
X0296700Y0037500D01*
X0296367Y0037824D01*
X0301200Y0042900D02*
X0305700Y0038400D01*
X0306367Y0037824D01*
X0306600Y0037500D01*
X0316500Y0037500D01*
X0318300Y0035700D01*
X0344400Y0061800D01*
X0344400Y0067200D01*
X0344694Y0067942D01*
X0345300Y0068100D01*
X0348900Y0068100D01*
X0349694Y0067942D01*
X0349800Y0068100D01*
X0354300Y0068100D01*
X0354694Y0067942D01*
X0355200Y0068100D01*
X0358800Y0068100D01*
X0359694Y0067942D01*
X0359700Y0068100D01*
X0364200Y0068100D01*
X0364694Y0067942D01*
X0366000Y0061800D02*
X0375000Y0070800D01*
X0375000Y0130200D01*
X0402000Y0157200D01*
X0421800Y0157200D01*
X0418133Y0151057D02*
X0418200Y0150900D01*
X0434400Y0134700D01*
X0408300Y0108600D01*
X0404700Y0108600D01*
X0404359Y0108296D01*
X0404700Y0107700D01*
X0404700Y0103200D01*
X0410100Y0097800D01*
X0410100Y0088800D01*
X0408300Y0087000D01*
X0404700Y0087000D01*
X0404359Y0087824D01*
X0403800Y0084300D02*
X0404359Y0083493D01*
X0403800Y0084300D02*
X0400200Y0084300D01*
X0399300Y0085200D01*
X0399300Y0077100D01*
X0405600Y0070800D01*
X0405600Y0061800D01*
X0405206Y0061446D01*
X0409200Y0059100D02*
X0407400Y0057300D01*
X0399300Y0057300D01*
X0399202Y0056032D01*
X0398400Y0055500D01*
X0375000Y0032100D01*
X0365100Y0032100D01*
X0364694Y0031721D01*
X0364200Y0032100D01*
X0359700Y0032100D01*
X0359694Y0031721D01*
X0358800Y0032100D01*
X0355200Y0032100D01*
X0354694Y0031721D01*
X0354300Y0032100D01*
X0349800Y0032100D01*
X0349694Y0031721D01*
X0348900Y0031200D01*
X0348900Y0028500D01*
X0346200Y0025800D01*
X0328200Y0025800D01*
X0318300Y0035700D01*
X0334694Y0031721D02*
X0335400Y0032100D01*
X0335400Y0034800D01*
X0362400Y0061800D01*
X0366000Y0061800D01*
X0344694Y0067942D02*
X0344400Y0068100D01*
X0344400Y0070800D01*
X0339900Y0075300D01*
X0344400Y0079800D01*
X0338100Y0078900D02*
X0347100Y0087900D01*
X0350700Y0087900D01*
X0373200Y0110400D01*
X0373200Y0131100D01*
X0417300Y0175200D01*
X0447213Y0183769D02*
X0447900Y0183300D01*
X0447900Y0145500D01*
X0456900Y0136500D01*
X0464100Y0143700D01*
X0495600Y0143700D01*
X0495973Y0144044D01*
X0486600Y0139200D02*
X0510000Y0139200D01*
X0514500Y0143700D01*
X0513690Y0144044D01*
X0517200Y0128400D02*
X0530700Y0141900D01*
X0530700Y0143700D01*
X0531406Y0144044D01*
X0517200Y0128400D02*
X0516328Y0127824D01*
X0509635Y0127824D02*
X0509100Y0128400D01*
X0486600Y0128400D01*
X0485700Y0129300D01*
X0485304Y0129831D01*
X0477600Y0130200D02*
X0477036Y0129831D01*
X0477600Y0129300D01*
X0491100Y0115800D01*
X0455100Y0079800D01*
X0452400Y0079800D01*
X0451603Y0079162D01*
X0451500Y0079800D01*
X0411900Y0079800D01*
X0410100Y0081600D01*
X0410100Y0085200D01*
X0408300Y0087000D01*
X0410100Y0081600D02*
X0408300Y0079800D01*
X0404700Y0079800D01*
X0404359Y0079162D01*
X0404700Y0078900D01*
X0404700Y0074400D01*
X0409200Y0069900D01*
X0409200Y0059100D01*
X0399300Y0057300D02*
X0399300Y0066300D01*
X0399202Y0066859D01*
X0398400Y0067200D01*
X0392100Y0073500D01*
X0392100Y0076200D01*
X0392076Y0076485D01*
X0386957Y0076485D02*
X0386700Y0077100D01*
X0385800Y0078000D01*
X0385800Y0086100D01*
X0385729Y0086328D01*
X0385800Y0087000D01*
X0392100Y0093300D01*
X0392100Y0096000D01*
X0392272Y0096564D01*
X0389400Y0100500D02*
X0385800Y0096900D01*
X0385580Y0096564D01*
X0389400Y0100500D02*
X0400200Y0100500D01*
X0403800Y0096900D01*
X0404359Y0096485D01*
X0404700Y0096000D01*
X0404700Y0092400D01*
X0404359Y0092154D01*
X0398400Y0086100D02*
X0392100Y0086100D01*
X0391729Y0086328D01*
X0398400Y0086100D02*
X0399300Y0085200D01*
X0371400Y0113100D02*
X0361500Y0103200D01*
X0290400Y0103200D01*
X0284100Y0109500D01*
X0284100Y0119400D01*
X0283926Y0119506D01*
X0281400Y0120300D02*
X0280776Y0119506D01*
X0281400Y0120300D02*
X0281400Y0135600D01*
X0297600Y0151800D01*
X0303900Y0151800D01*
X0309300Y0157200D01*
X0352500Y0157200D01*
X0356100Y0160800D01*
X0356100Y0166200D01*
X0356839Y0166796D01*
X0366839Y0166796D02*
X0366900Y0167100D01*
X0369600Y0167100D01*
X0394800Y0192300D01*
X0386839Y0166796D02*
X0386700Y0166200D01*
X0371400Y0150900D01*
X0371400Y0113100D01*
X0378600Y0115800D02*
X0381300Y0118500D01*
X0397500Y0118500D01*
X0395700Y0114000D02*
X0384900Y0114000D01*
X0384595Y0114477D01*
X0395700Y0114000D02*
X0401100Y0108600D01*
X0403800Y0108600D01*
X0404359Y0108296D01*
X0384900Y0123000D02*
X0384595Y0122745D01*
X0384900Y0123000D02*
X0384900Y0132900D01*
X0384398Y0133572D01*
X0391091Y0133572D02*
X0391200Y0132900D01*
X0393900Y0132900D01*
X0401100Y0125700D01*
X0403800Y0125700D01*
X0404359Y0125619D01*
X0434400Y0134700D02*
X0451500Y0134700D01*
X0451603Y0134280D01*
X0455100Y0130200D02*
X0456900Y0132000D01*
X0456900Y0136500D01*
X0455100Y0130200D02*
X0452400Y0130200D01*
X0451603Y0129950D01*
X0452400Y0129300D01*
X0452400Y0125700D01*
X0451603Y0125619D01*
X0451603Y0121288D02*
X0451500Y0121200D01*
X0448800Y0121200D01*
X0447000Y0119400D01*
X0445200Y0119400D01*
X0443400Y0115800D02*
X0437100Y0122100D01*
X0443400Y0115800D02*
X0450600Y0115800D01*
X0451500Y0116700D01*
X0451603Y0116957D01*
X0477600Y0130200D02*
X0486600Y0139200D01*
X0491100Y0115800D02*
X0507300Y0099600D01*
X0507300Y0020400D01*
X0506524Y0020225D01*
X0507300Y0019500D01*
X0505500Y0017700D01*
X0503700Y0017700D01*
X0501900Y0019500D01*
X0501013Y0020225D01*
X0399202Y0056032D02*
X0399300Y0056400D01*
X0399300Y0057300D01*
X0339000Y0059100D02*
X0331800Y0051900D01*
X0277800Y0051900D01*
X0273300Y0056400D01*
X0273300Y0069000D01*
X0266100Y0070800D02*
X0263400Y0073500D01*
X0263400Y0102300D01*
X0276900Y0115800D01*
X0276900Y0119400D01*
X0277627Y0119506D01*
X0274477Y0119506D02*
X0274200Y0119400D01*
X0274200Y0116700D01*
X0261600Y0104100D01*
X0261600Y0052800D01*
X0263400Y0051000D01*
X0263400Y0049200D01*
X0266100Y0053700D02*
X0266100Y0070800D01*
X0268926Y0077194D02*
X0269700Y0077100D01*
X0269700Y0050100D01*
X0263400Y0043800D01*
X0263400Y0030300D01*
X0250800Y0017700D01*
X0239100Y0017700D01*
X0235500Y0021300D01*
X0235500Y0044700D01*
X0236400Y0045600D01*
X0244500Y0045600D01*
X0245400Y0044700D01*
X0245400Y0037500D01*
X0247200Y0035700D01*
X0254400Y0035700D01*
X0256200Y0037500D01*
X0256200Y0043800D01*
X0240900Y0059100D01*
X0240900Y0078000D01*
X0240501Y0078493D01*
X0240900Y0078900D01*
X0250800Y0088800D01*
X0250800Y0095100D01*
X0242700Y0098700D02*
X0235500Y0091500D01*
X0235500Y0051000D01*
X0233700Y0047400D02*
X0233700Y0020400D01*
X0238200Y0015900D01*
X0276900Y0015900D01*
X0281400Y0020400D01*
X0281400Y0033900D01*
X0279600Y0035700D01*
X0279600Y0039300D01*
X0278926Y0039635D01*
X0279600Y0040200D01*
X0282300Y0042900D01*
X0301200Y0042900D01*
X0279600Y0055500D02*
X0295800Y0071700D01*
X0295800Y0075300D01*
X0296367Y0075383D01*
X0301200Y0078900D02*
X0301200Y0071700D01*
X0311100Y0061800D01*
X0334500Y0061800D01*
X0334500Y0060000D01*
X0334500Y0061800D02*
X0334500Y0067200D01*
X0334694Y0067942D01*
X0339000Y0067200D02*
X0339694Y0067942D01*
X0339000Y0067200D02*
X0339000Y0059100D01*
X0329694Y0067942D02*
X0329100Y0068100D01*
X0325500Y0071700D01*
X0318300Y0078900D02*
X0338100Y0078900D01*
X0339900Y0075300D02*
X0306600Y0075300D01*
X0306367Y0075383D01*
X0301200Y0078900D02*
X0313800Y0091500D01*
X0321000Y0091500D01*
X0321367Y0091524D01*
X0327300Y0092400D02*
X0328060Y0091524D01*
X0328200Y0091500D01*
X0340800Y0091500D01*
X0341249Y0091879D01*
X0342600Y0087000D02*
X0347100Y0091500D01*
X0347942Y0091879D01*
X0348000Y0092400D01*
X0352500Y0096900D01*
X0342600Y0087000D02*
X0340800Y0087000D01*
X0327300Y0092400D02*
X0327300Y0098700D01*
X0321900Y0108600D02*
X0314700Y0115800D01*
X0314398Y0116209D01*
X0316500Y0123900D02*
X0323700Y0116700D01*
X0324398Y0116209D01*
X0324600Y0116700D01*
X0331800Y0123900D01*
X0336300Y0123900D01*
X0343500Y0116700D01*
X0344398Y0116209D01*
X0348900Y0111300D02*
X0346200Y0108600D01*
X0321900Y0108600D01*
X0314700Y0106800D02*
X0359700Y0106800D01*
X0348900Y0111300D02*
X0348900Y0130200D01*
X0366900Y0148200D01*
X0366900Y0166200D01*
X0366839Y0166796D01*
X0350700Y0160800D02*
X0310200Y0160800D01*
X0303000Y0153600D01*
X0294000Y0153600D01*
X0293375Y0153306D01*
X0287700Y0153600D02*
X0287700Y0156300D01*
X0288600Y0157200D01*
X0301200Y0157200D01*
X0310200Y0155400D02*
X0348900Y0155400D01*
X0352500Y0151800D01*
X0363300Y0151800D02*
X0341700Y0130200D01*
X0316500Y0130200D01*
X0311100Y0124800D01*
X0299400Y0124800D01*
X0299251Y0125383D01*
X0299400Y0128400D02*
X0299251Y0128532D01*
X0299400Y0128400D02*
X0304800Y0128400D01*
X0307500Y0131100D02*
X0303900Y0134700D01*
X0299400Y0134700D01*
X0299251Y0134831D01*
X0298500Y0137400D02*
X0299251Y0137981D01*
X0299400Y0138300D01*
X0306600Y0138300D01*
X0312900Y0144600D01*
X0312900Y0151800D01*
X0313454Y0151800D01*
X0310200Y0155400D02*
X0303000Y0148200D01*
X0299400Y0148200D01*
X0299251Y0147430D01*
X0299251Y0144280D02*
X0299400Y0143700D01*
X0303000Y0143700D01*
X0304800Y0141900D01*
X0298500Y0137400D02*
X0295800Y0137400D01*
X0294900Y0136500D01*
X0294900Y0123900D01*
X0296700Y0122100D01*
X0311100Y0122100D01*
X0312900Y0123900D01*
X0316500Y0123900D01*
X0302100Y0119400D02*
X0314700Y0106800D01*
X0302100Y0119400D02*
X0294000Y0119400D01*
X0293375Y0119506D01*
X0290400Y0120300D02*
X0290225Y0119506D01*
X0289500Y0119400D01*
X0289500Y0115800D01*
X0287700Y0114000D01*
X0287700Y0111300D01*
X0287076Y0119506D02*
X0286800Y0120300D01*
X0286800Y0125700D01*
X0290400Y0120300D02*
X0290400Y0133800D01*
X0287700Y0136500D01*
X0278700Y0138300D02*
X0278700Y0144600D01*
X0281400Y0147300D01*
X0284100Y0150000D02*
X0286800Y0147300D01*
X0284100Y0150000D02*
X0284100Y0152700D01*
X0283926Y0153306D01*
X0287076Y0153306D02*
X0287700Y0153600D01*
X0280776Y0153306D02*
X0280500Y0153600D01*
X0280500Y0165300D01*
X0270600Y0153600D02*
X0267000Y0157200D01*
X0270600Y0153600D02*
X0271328Y0153306D01*
X0307500Y0131100D02*
X0312000Y0131100D01*
X0320100Y0139200D01*
X0320100Y0151800D01*
X0320146Y0151800D01*
X0339900Y0133800D02*
X0363300Y0157200D01*
X0290658Y0199300D02*
X0290400Y0199500D01*
X0271500Y0199500D01*
X0270658Y0199300D01*
X0270600Y0198600D01*
X0262500Y0190500D01*
X0230100Y0190500D02*
X0229200Y0189600D01*
X0229200Y0138300D01*
X0222000Y0131100D01*
X0222000Y0078900D01*
X0221170Y0078769D01*
X0211200Y0078900D02*
X0211170Y0078769D01*
X0210300Y0078000D01*
X0206700Y0074400D01*
X0186900Y0074400D01*
X0183300Y0078000D01*
X0181500Y0078000D01*
X0181170Y0078887D01*
X0180600Y0078900D01*
X0170700Y0078900D01*
X0166200Y0083400D01*
X0157200Y0083400D01*
X0152700Y0078900D01*
X0151879Y0078769D01*
X0151800Y0078000D01*
X0148200Y0074400D01*
X0126600Y0074400D01*
X0123000Y0078000D01*
X0121200Y0078000D01*
X0121091Y0078769D01*
X0130200Y0078900D02*
X0131091Y0078769D01*
X0130200Y0078900D02*
X0130200Y0093300D01*
X0112200Y0095100D02*
X0102300Y0105000D01*
X0101682Y0105658D01*
X0101682Y0098965D02*
X0101400Y0098700D01*
X0100500Y0097800D01*
X0100500Y0093300D01*
X0100500Y0078900D01*
X0100816Y0078611D01*
X0103200Y0068100D02*
X0072600Y0068100D01*
X0072548Y0068217D01*
X0071700Y0069000D01*
X0069000Y0071700D01*
X0062700Y0071700D01*
X0056400Y0065400D01*
X0056400Y0029400D01*
X0061800Y0024000D01*
X0062233Y0023217D01*
X0072233Y0023217D02*
X0072600Y0024000D01*
X0086100Y0037500D01*
X0081170Y0041997D02*
X0080700Y0042000D01*
X0066300Y0056400D01*
X0066300Y0068100D01*
X0065855Y0068217D01*
X0093300Y0064500D02*
X0146400Y0064500D01*
X0159900Y0078000D01*
X0161700Y0078000D01*
X0161879Y0078769D01*
X0159000Y0086100D02*
X0187800Y0114900D01*
X0189600Y0113100D01*
X0187800Y0114900D02*
X0190500Y0117600D01*
X0190500Y0152700D01*
X0193200Y0152700D01*
X0220200Y0179700D01*
X0220816Y0180186D01*
X0219300Y0185100D02*
X0214800Y0180600D01*
X0214123Y0180186D01*
X0224700Y0190500D02*
X0224700Y0136500D01*
X0191400Y0103200D01*
X0191400Y0078900D01*
X0191170Y0078887D01*
X0211200Y0078900D02*
X0211200Y0087900D01*
X0218400Y0095100D01*
X0233700Y0095100D02*
X0243600Y0105000D01*
X0233700Y0095100D02*
X0233700Y0077100D01*
X0227400Y0070800D01*
X0227400Y0055500D01*
X0222000Y0055500D02*
X0222000Y0068100D01*
X0244500Y0065400D02*
X0249900Y0070800D01*
X0249900Y0078000D01*
X0250501Y0078493D01*
X0256200Y0072600D02*
X0256200Y0058200D01*
X0251700Y0053700D01*
X0245400Y0047400D02*
X0233700Y0047400D01*
X0227400Y0047400D01*
X0222000Y0042000D01*
X0221170Y0041209D01*
X0221100Y0042000D01*
X0219300Y0042000D01*
X0215700Y0045600D01*
X0211170Y0041209D02*
X0211200Y0041100D01*
X0212100Y0040200D01*
X0212100Y0021300D01*
X0212351Y0021249D01*
X0219044Y0021249D02*
X0219300Y0021300D01*
X0219300Y0034800D01*
X0204000Y0037500D02*
X0187800Y0021300D01*
X0187666Y0020973D01*
X0181500Y0021300D02*
X0180973Y0020973D01*
X0181500Y0021300D02*
X0181500Y0041100D01*
X0181170Y0041328D01*
X0152700Y0041100D02*
X0151879Y0041209D01*
X0152700Y0041100D02*
X0152700Y0021300D01*
X0152863Y0020658D01*
X0159556Y0020658D02*
X0159900Y0020400D01*
X0175200Y0020400D01*
X0177900Y0017700D01*
X0231000Y0017700D01*
X0240900Y0022200D02*
X0241564Y0021761D01*
X0240900Y0022200D02*
X0240900Y0040200D01*
X0240501Y0040934D01*
X0245400Y0047400D02*
X0249900Y0042900D01*
X0249900Y0041100D01*
X0250501Y0040934D01*
X0259800Y0038400D02*
X0259800Y0108600D01*
X0270600Y0119400D01*
X0271328Y0119506D01*
X0318300Y0086100D02*
X0325500Y0086100D01*
X0289500Y0078000D02*
X0279600Y0078000D01*
X0278926Y0077194D01*
X0268926Y0039635D02*
X0269700Y0039300D01*
X0269700Y0023100D01*
X0270383Y0022351D01*
X0276900Y0023100D02*
X0277076Y0022351D01*
X0276900Y0023100D02*
X0276900Y0033000D01*
X0259800Y0038400D02*
X0249000Y0027600D01*
X0249000Y0022200D01*
X0248257Y0021761D01*
X0128400Y0022200D02*
X0128178Y0021918D01*
X0128400Y0022200D02*
X0128400Y0026700D01*
X0121485Y0021918D02*
X0121200Y0022200D01*
X0121200Y0041100D01*
X0121091Y0041209D01*
X0154500Y0086100D02*
X0159000Y0086100D01*
X0121200Y0109500D02*
X0121200Y0115800D01*
X0139200Y0133800D01*
X0121200Y0151800D01*
X0120383Y0152509D01*
X0139280Y0152509D02*
X0140100Y0151800D01*
X0140100Y0139200D01*
X0141900Y0137400D01*
X0139200Y0133800D02*
X0155400Y0133800D01*
X0156154Y0133040D01*
X0168000Y0133800D02*
X0168000Y0159900D01*
X0165300Y0162600D01*
X0164556Y0163414D01*
X0162600Y0177900D02*
X0144600Y0159900D01*
X0105000Y0199500D01*
X0094200Y0199500D01*
X0087900Y0193200D01*
X0087900Y0160800D01*
X0079800Y0158100D02*
X0069000Y0147300D01*
X0060000Y0149100D02*
X0060000Y0142800D01*
X0059300Y0141957D01*
X0060000Y0149100D02*
X0076200Y0165300D01*
X0076200Y0173400D01*
X0072600Y0177000D01*
X0072509Y0177115D01*
X0069900Y0170700D02*
X0063600Y0177000D01*
X0062784Y0177666D01*
X0054600Y0177000D02*
X0054438Y0177548D01*
X0045600Y0177000D02*
X0044831Y0177548D01*
X0069900Y0170700D02*
X0071700Y0170700D01*
X0072509Y0170422D01*
X0079800Y0158100D02*
X0079800Y0187800D01*
X0093300Y0201300D01*
X0108600Y0201300D01*
X0103394Y0196387D02*
X0103200Y0195900D01*
X0106800Y0192300D01*
X0106800Y0133800D01*
X0104100Y0131100D01*
X0104100Y0126600D01*
X0103690Y0126209D01*
X0099950Y0126209D02*
X0099600Y0125700D01*
X0078900Y0105000D01*
X0078611Y0105107D01*
X0051000Y0095100D02*
X0036600Y0095100D01*
X0036446Y0094989D01*
X0035700Y0095100D01*
X0035700Y0115800D01*
X0033900Y0117600D01*
X0033143Y0117846D01*
X0016800Y0107700D02*
X0016800Y0155400D01*
X0017700Y0156300D01*
X0025800Y0156300D01*
X0037500Y0144600D01*
X0037500Y0136918D01*
X0064500Y0121200D02*
X0064500Y0118500D01*
X0096000Y0126600D02*
X0096209Y0126209D01*
X0096000Y0126600D02*
X0096000Y0131100D01*
X0093300Y0133800D01*
X0099950Y0135265D02*
X0100500Y0134700D01*
X0100500Y0130200D01*
X0139280Y0152509D02*
X0140100Y0152700D01*
X0140100Y0155400D01*
X0144600Y0159900D01*
X0162600Y0177900D02*
X0164400Y0177900D01*
X0164556Y0178375D01*
X0182400Y0177000D02*
X0152700Y0206700D01*
X0082500Y0206700D01*
X0051900Y0237300D01*
X0051900Y0255300D01*
X0070800Y0274200D01*
X0133800Y0274200D01*
X0137400Y0270600D01*
X0138300Y0267000D02*
X0144600Y0260700D01*
X0144931Y0259889D01*
X0145500Y0260700D01*
X0155400Y0270600D01*
X0244500Y0270600D01*
X0254400Y0260700D01*
X0254931Y0259889D01*
X0255300Y0260700D01*
X0259800Y0265200D01*
X0330000Y0265200D01*
X0334500Y0260700D01*
X0334931Y0259889D01*
X0329100Y0259800D02*
X0329100Y0255300D01*
X0329635Y0255197D01*
X0326400Y0252600D02*
X0323700Y0255300D01*
X0323700Y0259800D01*
X0325500Y0263400D02*
X0329100Y0259800D01*
X0325500Y0263400D02*
X0321900Y0263400D01*
X0299400Y0240900D01*
X0284100Y0238200D02*
X0281400Y0240900D01*
X0284100Y0238200D02*
X0284100Y0231900D01*
X0273300Y0221100D01*
X0232800Y0221100D01*
X0226500Y0220200D02*
X0139200Y0220200D01*
X0127500Y0231900D01*
X0120300Y0231900D01*
X0113100Y0224700D01*
X0067200Y0224700D01*
X0053700Y0238200D01*
X0053700Y0242700D01*
X0056400Y0245400D01*
X0056400Y0248100D01*
X0057126Y0248582D01*
X0059635Y0255197D02*
X0060000Y0255300D01*
X0060000Y0260700D01*
X0069900Y0270600D01*
X0112200Y0270600D01*
X0119400Y0265200D02*
X0134700Y0265200D01*
X0136500Y0263400D01*
X0138300Y0267000D02*
X0071700Y0267000D01*
X0065400Y0260700D01*
X0064931Y0259889D01*
X0078669Y0259889D02*
X0078900Y0260700D01*
X0114900Y0260700D01*
X0119400Y0265200D01*
X0121200Y0261600D02*
X0132000Y0261600D01*
X0132000Y0260700D01*
X0132000Y0261600D02*
X0132900Y0261600D01*
X0139200Y0255300D01*
X0139635Y0255197D01*
X0151800Y0261582D02*
X0151800Y0261600D01*
X0159000Y0268800D01*
X0166200Y0268800D01*
X0200400Y0234600D01*
X0205800Y0234600D01*
X0220200Y0234600D02*
X0238200Y0252600D01*
X0247200Y0254400D02*
X0229200Y0236400D01*
X0229200Y0229200D01*
X0225600Y0225600D01*
X0223800Y0225600D01*
X0225600Y0222000D02*
X0140100Y0222000D01*
X0126600Y0235500D01*
X0118500Y0235500D01*
X0111300Y0228300D01*
X0067200Y0228300D01*
X0062700Y0232800D01*
X0062700Y0235500D01*
X0061998Y0235736D01*
X0086474Y0248582D02*
X0087000Y0248100D01*
X0114000Y0248100D01*
X0124800Y0237300D01*
X0129300Y0237300D01*
X0141900Y0224700D01*
X0159000Y0224700D01*
X0168900Y0234600D01*
X0172500Y0231000D01*
X0225600Y0231000D01*
X0225600Y0222000D02*
X0239100Y0235500D01*
X0251700Y0235500D01*
X0251998Y0235736D01*
X0252600Y0235500D01*
X0252600Y0233700D01*
X0254400Y0231900D01*
X0254400Y0231000D01*
X0257100Y0228300D01*
X0275100Y0228300D01*
X0280500Y0233700D01*
X0306600Y0228300D02*
X0306600Y0222900D01*
X0306600Y0228300D02*
X0275100Y0259800D01*
X0268800Y0259800D01*
X0268669Y0259889D01*
X0273965Y0255197D02*
X0274200Y0254400D01*
X0276000Y0254400D01*
X0249635Y0255197D02*
X0249000Y0254400D01*
X0247200Y0254400D01*
X0291300Y0272400D02*
X0336300Y0272400D01*
X0348000Y0260700D01*
X0326400Y0252600D02*
X0326400Y0249000D01*
X0327126Y0248582D01*
X0340800Y0208500D02*
X0148200Y0208500D01*
X0135600Y0221100D01*
X0132900Y0221100D01*
X0142800Y0226500D02*
X0158100Y0226500D01*
X0165300Y0233700D01*
X0165300Y0240900D01*
X0165621Y0241558D01*
X0169800Y0245400D02*
X0167100Y0248100D01*
X0166474Y0248582D01*
X0169800Y0245400D02*
X0169800Y0235500D01*
X0168900Y0234600D01*
X0173400Y0236400D02*
X0173400Y0247200D01*
X0166200Y0254400D01*
X0164400Y0254400D01*
X0163965Y0255197D01*
X0158669Y0259889D02*
X0159000Y0260700D01*
X0163500Y0265200D01*
X0164400Y0265200D01*
X0143700Y0228300D02*
X0123900Y0248100D01*
X0122100Y0248100D01*
X0125700Y0239100D02*
X0113100Y0251700D01*
X0125700Y0239100D02*
X0130200Y0239100D01*
X0142800Y0226500D01*
X0143700Y0228300D02*
X0156300Y0228300D01*
X0160800Y0232800D01*
X0160800Y0235500D01*
X0161602Y0235736D01*
X0226500Y0220200D02*
X0236400Y0230100D01*
X0242700Y0230100D01*
X0242700Y0224700D01*
X0242700Y0230100D02*
X0250800Y0230100D01*
X0190500Y0152700D02*
X0186900Y0152700D01*
X0186505Y0152115D01*
X0097800Y0170700D02*
X0097800Y0172500D01*
X0080700Y0213900D02*
X0073500Y0221100D01*
X0016800Y0107700D02*
X0029400Y0095100D01*
X0029753Y0094989D01*
X0413700Y0277800D02*
X0496500Y0277800D01*
X0503700Y0270600D02*
X0519000Y0255300D01*
X0519635Y0255197D01*
X0516300Y0268800D02*
X0536100Y0268800D01*
X0554100Y0256200D02*
X0554100Y0241800D01*
X0541500Y0232800D02*
X0531600Y0222900D01*
X0531406Y0197194D02*
X0530700Y0196800D01*
X0530700Y0195000D01*
X0522600Y0186900D01*
X0501900Y0186900D01*
X0510900Y0190500D02*
X0514500Y0190500D01*
X0519000Y0195000D01*
X0519000Y0196800D01*
X0519595Y0197194D01*
D49*
X0510900Y0190500D03*
X0501900Y0186900D03*
X0442500Y0212100D03*
X0448800Y0222900D03*
X0474000Y0231900D03*
X0481200Y0233700D03*
X0474900Y0249000D03*
X0479400Y0268800D03*
X0484800Y0268800D03*
X0496500Y0277800D03*
X0503700Y0270600D03*
X0516300Y0268800D03*
X0519000Y0260700D03*
X0554100Y0256200D03*
X0439800Y0260700D03*
X0435300Y0267000D03*
X0413700Y0277800D03*
X0381300Y0245400D03*
X0375900Y0231900D03*
X0366000Y0232800D03*
X0353400Y0229200D03*
X0351600Y0219300D03*
X0357900Y0219300D03*
X0328200Y0231900D03*
X0317400Y0237300D03*
X0299400Y0240900D03*
X0281400Y0240900D03*
X0280500Y0233700D03*
X0306600Y0222900D03*
X0298500Y0217500D03*
X0301200Y0212100D03*
X0250800Y0230100D03*
X0242700Y0224700D03*
X0232800Y0221100D03*
X0223800Y0225600D03*
X0225600Y0231000D03*
X0220200Y0234600D03*
X0205800Y0234600D03*
X0173400Y0236400D03*
X0132900Y0221100D03*
X0111300Y0228300D03*
X0120300Y0231900D03*
X0122100Y0248100D03*
X0113100Y0251700D03*
X0132000Y0260700D03*
X0136500Y0263400D03*
X0121200Y0261600D03*
X0112200Y0270600D03*
X0139200Y0274200D03*
X0164400Y0265200D03*
X0238200Y0252600D03*
X0291300Y0272400D03*
X0323700Y0259800D03*
X0230100Y0190500D03*
X0224700Y0190500D03*
X0219300Y0185100D03*
X0182400Y0177000D03*
X0108600Y0201300D03*
X0080700Y0213900D03*
X0073500Y0221100D03*
X0103200Y0164400D03*
X0093300Y0154500D03*
X0069000Y0147300D03*
X0096900Y0139200D03*
X0100500Y0130200D03*
X0141900Y0137400D03*
X0189600Y0113100D03*
X0218400Y0095100D03*
X0231900Y0105000D03*
X0243600Y0105000D03*
X0242700Y0098700D03*
X0250800Y0095100D03*
X0287700Y0111300D03*
X0286800Y0125700D03*
X0274200Y0125700D03*
X0259800Y0132900D03*
X0278700Y0138300D03*
X0287700Y0136500D03*
X0304800Y0141900D03*
X0286800Y0147300D03*
X0281400Y0147300D03*
X0267000Y0157200D03*
X0276900Y0163500D03*
X0301200Y0157200D03*
X0259800Y0148200D03*
X0257100Y0143700D03*
X0304800Y0128400D03*
X0339900Y0133800D03*
X0352500Y0151800D03*
X0350700Y0160800D03*
X0363300Y0157200D03*
X0363300Y0151800D03*
X0417300Y0175200D03*
X0437100Y0122100D03*
X0445200Y0119400D03*
X0486600Y0105900D03*
X0413700Y0071700D03*
X0410100Y0075300D03*
X0352500Y0096900D03*
X0340800Y0087000D03*
X0344400Y0079800D03*
X0325500Y0086100D03*
X0318300Y0086100D03*
X0318300Y0078900D03*
X0325500Y0071700D03*
X0334500Y0060000D03*
X0289500Y0078000D03*
X0273300Y0069000D03*
X0256200Y0072600D03*
X0244500Y0065400D03*
X0227400Y0055500D03*
X0222000Y0055500D03*
X0212100Y0062700D03*
X0235500Y0051000D03*
X0251700Y0053700D03*
X0263400Y0049200D03*
X0266100Y0053700D03*
X0279600Y0055500D03*
X0276900Y0033000D03*
X0231000Y0017700D03*
X0219300Y0034800D03*
X0204000Y0037500D03*
X0128400Y0026700D03*
X0093300Y0064500D03*
X0100500Y0093300D03*
X0112200Y0095100D03*
X0130200Y0093300D03*
X0134700Y0101400D03*
X0144600Y0101400D03*
X0154500Y0086100D03*
X0327300Y0098700D03*
X0359700Y0106800D03*
X0378600Y0115800D03*
X0397500Y0118500D03*
X0266100Y0179700D03*
X0511800Y0029400D03*
D50*
X0567076Y0025737D03*
X0566091Y0280619D03*
X0033690Y0281013D03*
X0029477Y0027706D03*
M02*
