G75*
%MOIN*%
%OFA0B0*%
%FSLAX25Y25*%
%IPPOS*%
%LPD*%
%AMOC8*
5,1,8,0,0,1.08239X$1,22.5*
%
%ADD10C,0.07500*%
%ADD11C,0.07677*%
%ADD12R,0.28740X0.28740*%
%ADD13OC8,0.05200*%
%ADD14C,0.06000*%
%ADD15C,0.04480*%
%ADD16C,0.01000*%
%ADD17C,0.04000*%
%ADD18C,0.01600*%
%ADD19OC8,0.16992*%
D10*
X0326839Y0166796D03*
X0336839Y0166796D03*
X0346839Y0166796D03*
X0356839Y0166796D03*
X0366839Y0166796D03*
X0376839Y0166796D03*
X0386839Y0166796D03*
X0396839Y0166796D03*
X0396839Y0199796D03*
X0386839Y0199796D03*
X0376839Y0199796D03*
X0366839Y0199796D03*
X0356839Y0199796D03*
X0346839Y0199796D03*
X0336839Y0199796D03*
X0326839Y0199796D03*
D11*
X0196367Y0194438D03*
X0196367Y0115698D03*
D12*
X0112981Y0063099D03*
X0445265Y0063099D03*
D13*
X0359910Y0135304D03*
X0309910Y0135304D03*
D14*
X0314398Y0119209D02*
X0314398Y0113209D01*
X0324398Y0113209D02*
X0324398Y0119209D01*
X0334398Y0119209D02*
X0334398Y0113209D01*
X0344398Y0113209D02*
X0344398Y0119209D01*
X0354398Y0119209D02*
X0354398Y0113209D01*
X0102233Y0026217D02*
X0102233Y0020217D01*
X0092233Y0020217D02*
X0092233Y0026217D01*
X0082233Y0026217D02*
X0082233Y0020217D01*
X0072233Y0020217D02*
X0072233Y0026217D01*
X0062233Y0026217D02*
X0062233Y0020217D01*
X0052233Y0020217D02*
X0052233Y0026217D01*
X0051170Y0038997D02*
X0051170Y0044997D01*
X0061170Y0044997D02*
X0061170Y0038997D01*
X0071170Y0038997D02*
X0071170Y0044997D01*
X0081170Y0044997D02*
X0081170Y0038997D01*
X0091170Y0038997D02*
X0091170Y0044997D01*
D15*
X0075337Y0232448D03*
X0068263Y0232448D03*
X0061998Y0235736D03*
X0057979Y0241558D03*
X0057126Y0248582D03*
X0059635Y0255197D03*
X0064931Y0259889D03*
X0071800Y0261582D03*
X0078669Y0259889D03*
X0083965Y0255197D03*
X0086474Y0248582D03*
X0085621Y0241558D03*
X0081602Y0235736D03*
X0137979Y0241558D03*
X0141998Y0235736D03*
X0148263Y0232448D03*
X0155337Y0232448D03*
X0161602Y0235736D03*
X0165621Y0241558D03*
X0166474Y0248582D03*
X0163965Y0255197D03*
X0158669Y0259889D03*
X0151800Y0261582D03*
X0144931Y0259889D03*
X0139635Y0255197D03*
X0137126Y0248582D03*
X0247126Y0248582D03*
X0247979Y0241558D03*
X0251998Y0235736D03*
X0258263Y0232448D03*
X0265337Y0232448D03*
X0271602Y0235736D03*
X0275621Y0241558D03*
X0276474Y0248582D03*
X0273965Y0255197D03*
X0268669Y0259889D03*
X0261800Y0261582D03*
X0254931Y0259889D03*
X0249635Y0255197D03*
X0327126Y0248582D03*
X0327979Y0241558D03*
X0331998Y0235736D03*
X0338263Y0232448D03*
X0345337Y0232448D03*
X0351602Y0235736D03*
X0355621Y0241558D03*
X0356474Y0248582D03*
X0353965Y0255197D03*
X0348669Y0259889D03*
X0341800Y0261582D03*
X0334931Y0259889D03*
X0329635Y0255197D03*
X0437126Y0248582D03*
X0437979Y0241558D03*
X0441998Y0235736D03*
X0448263Y0232448D03*
X0455337Y0232448D03*
X0461602Y0235736D03*
X0465621Y0241558D03*
X0466474Y0248582D03*
X0463965Y0255197D03*
X0458669Y0259889D03*
X0451800Y0261582D03*
X0444931Y0259889D03*
X0439635Y0255197D03*
X0517126Y0248582D03*
X0517979Y0241558D03*
X0521998Y0235736D03*
X0528263Y0232448D03*
X0535337Y0232448D03*
X0541602Y0235736D03*
X0545621Y0241558D03*
X0546474Y0248582D03*
X0543965Y0255197D03*
X0538669Y0259889D03*
X0531800Y0261582D03*
X0524931Y0259889D03*
X0519635Y0255197D03*
D16*
X0519000Y0260700D02*
X0458700Y0260700D01*
X0458669Y0259889D01*
X0463965Y0255197D02*
X0464100Y0254400D01*
X0474900Y0254400D01*
X0478500Y0250800D01*
X0478500Y0241800D01*
X0470400Y0233700D01*
X0470400Y0230100D01*
X0461400Y0230100D01*
X0447000Y0215700D01*
X0420000Y0215700D01*
X0381300Y0177000D01*
X0336300Y0177000D01*
X0336300Y0167100D01*
X0336839Y0166796D01*
X0341700Y0161700D02*
X0346200Y0166200D01*
X0346839Y0166796D01*
X0341700Y0161700D02*
X0295800Y0161700D01*
X0281400Y0147300D01*
X0286800Y0147300D02*
X0348900Y0147300D01*
X0356100Y0140100D01*
X0361500Y0140100D01*
X0364200Y0137400D01*
X0364200Y0116700D01*
X0356100Y0108600D01*
X0356100Y0104100D01*
X0357900Y0102300D01*
X0352500Y0096900D01*
X0357900Y0102300D02*
X0493800Y0102300D01*
X0502800Y0093300D01*
X0502800Y0047400D01*
X0511800Y0038400D01*
X0511800Y0029400D01*
X0445200Y0062700D02*
X0445265Y0063099D01*
X0445200Y0062700D02*
X0342600Y0062700D01*
X0336300Y0056400D01*
X0284100Y0056400D01*
X0281400Y0059100D01*
X0186900Y0059100D01*
X0144600Y0101400D01*
X0141900Y0104100D01*
X0141900Y0137400D01*
X0134700Y0135600D02*
X0184200Y0185100D01*
X0219300Y0185100D01*
X0260700Y0185100D01*
X0266100Y0179700D01*
X0264300Y0186900D02*
X0222900Y0186900D01*
X0208500Y0201300D01*
X0108600Y0201300D01*
X0080700Y0213900D02*
X0130200Y0164400D01*
X0130200Y0093300D01*
X0134700Y0101400D02*
X0134700Y0135600D01*
X0112200Y0123900D02*
X0112200Y0095100D01*
X0112200Y0063600D01*
X0112981Y0063099D01*
X0093300Y0064500D02*
X0093300Y0134700D01*
X0047400Y0180600D01*
X0047400Y0256200D01*
X0072600Y0281400D01*
X0415500Y0281400D01*
X0436200Y0260700D01*
X0439800Y0260700D01*
X0444931Y0259889D02*
X0445200Y0260700D01*
X0449700Y0265200D01*
X0519900Y0265200D01*
X0524400Y0260700D01*
X0524931Y0259889D01*
X0525300Y0260700D01*
X0530700Y0266100D01*
X0544200Y0266100D01*
X0554100Y0256200D01*
X0552300Y0252600D02*
X0540600Y0264300D01*
X0535200Y0264300D01*
X0532500Y0261600D01*
X0531800Y0261582D01*
X0543965Y0255197D02*
X0544200Y0254400D01*
X0546000Y0254400D01*
X0550500Y0249900D01*
X0550500Y0239100D01*
X0539700Y0228300D01*
X0472200Y0228300D01*
X0470400Y0230100D01*
X0474000Y0231900D02*
X0490200Y0248100D01*
X0516300Y0248100D01*
X0517126Y0248582D01*
X0521998Y0235736D02*
X0521700Y0235500D01*
X0483000Y0235500D01*
X0481200Y0233700D01*
X0461602Y0235736D02*
X0461400Y0235500D01*
X0461400Y0232800D01*
X0456900Y0228300D01*
X0448800Y0228300D01*
X0448800Y0222900D01*
X0448800Y0228300D02*
X0370500Y0228300D01*
X0366000Y0232800D01*
X0362400Y0236400D02*
X0441600Y0236400D01*
X0441998Y0235736D01*
X0447900Y0231900D02*
X0448263Y0232448D01*
X0447900Y0231900D02*
X0375900Y0231900D01*
X0378600Y0240000D02*
X0429000Y0240000D01*
X0437100Y0248100D01*
X0437126Y0248582D01*
X0438900Y0255300D02*
X0439635Y0255197D01*
X0438900Y0255300D02*
X0416400Y0277800D01*
X0413700Y0277800D01*
X0413700Y0272400D01*
X0383100Y0241800D01*
X0379500Y0241800D01*
X0352500Y0268800D01*
X0294900Y0268800D01*
X0294900Y0274200D01*
X0293100Y0276000D01*
X0289500Y0276000D01*
X0284100Y0270600D01*
X0138300Y0270600D01*
X0132000Y0264300D01*
X0132000Y0260700D01*
X0136500Y0263400D02*
X0140100Y0263400D01*
X0143700Y0267000D01*
X0164400Y0267000D01*
X0164400Y0265200D01*
X0164400Y0267000D02*
X0261600Y0267000D01*
X0267900Y0260700D01*
X0268669Y0259889D01*
X0268800Y0260700D01*
X0276900Y0260700D01*
X0288600Y0272400D01*
X0291300Y0272400D01*
X0294900Y0268800D02*
X0294900Y0240900D01*
X0281400Y0240900D01*
X0278700Y0237300D02*
X0317400Y0237300D01*
X0319200Y0233700D02*
X0324600Y0239100D01*
X0327300Y0236400D01*
X0331800Y0236400D01*
X0331998Y0235736D01*
X0328200Y0231900D02*
X0326400Y0230100D01*
X0278700Y0230100D01*
X0276900Y0231900D01*
X0266100Y0231900D01*
X0265337Y0232448D01*
X0264300Y0228300D02*
X0334500Y0228300D01*
X0338100Y0231900D01*
X0338263Y0232448D01*
X0339000Y0231900D01*
X0351600Y0219300D01*
X0347100Y0214800D01*
X0347100Y0200400D01*
X0346839Y0199796D01*
X0336839Y0199796D02*
X0336300Y0200400D01*
X0334500Y0200400D01*
X0308400Y0226500D01*
X0249000Y0226500D01*
X0241800Y0233700D01*
X0241800Y0252600D01*
X0249000Y0259800D01*
X0254400Y0259800D01*
X0254931Y0259889D01*
X0258900Y0264300D02*
X0261600Y0261600D01*
X0261800Y0261582D01*
X0258900Y0264300D02*
X0249900Y0264300D01*
X0238200Y0252600D01*
X0246300Y0248100D02*
X0247126Y0248582D01*
X0246300Y0248100D02*
X0246300Y0245400D01*
X0243600Y0242700D01*
X0243600Y0237300D01*
X0250800Y0230100D01*
X0245400Y0224700D02*
X0249000Y0221100D01*
X0300300Y0221100D01*
X0319200Y0202200D01*
X0319200Y0196800D01*
X0323700Y0192300D01*
X0389400Y0192300D01*
X0396600Y0199500D01*
X0396839Y0199796D01*
X0376839Y0199796D02*
X0376800Y0199500D01*
X0371400Y0194100D01*
X0324600Y0194100D01*
X0321000Y0197700D01*
X0321000Y0203100D01*
X0301200Y0222900D01*
X0249900Y0222900D01*
X0232800Y0240000D01*
X0170700Y0240000D01*
X0170700Y0253500D01*
X0159000Y0265200D01*
X0144600Y0265200D01*
X0111300Y0231900D01*
X0076200Y0231900D01*
X0075337Y0232448D01*
X0070800Y0231900D02*
X0078000Y0224700D01*
X0132900Y0224700D01*
X0132900Y0221100D01*
X0132900Y0224700D02*
X0141000Y0224700D01*
X0148200Y0231900D01*
X0148263Y0232448D01*
X0141900Y0235500D02*
X0141998Y0235736D01*
X0141900Y0235500D02*
X0134700Y0228300D01*
X0111300Y0228300D01*
X0120300Y0231900D02*
X0136500Y0248100D01*
X0137126Y0248582D01*
X0122100Y0248100D02*
X0122100Y0257100D01*
X0139200Y0274200D01*
X0121200Y0261600D02*
X0112200Y0270600D01*
X0114000Y0277800D02*
X0100500Y0264300D01*
X0096900Y0267900D01*
X0061800Y0267900D01*
X0049200Y0255300D01*
X0049200Y0181500D01*
X0096900Y0133800D01*
X0096900Y0018600D01*
X0099600Y0015900D01*
X0193200Y0015900D01*
X0234600Y0057300D01*
X0267900Y0057300D01*
X0269700Y0055500D01*
X0279600Y0055500D01*
X0271500Y0061800D02*
X0285900Y0076200D01*
X0285900Y0109500D01*
X0287700Y0111300D01*
X0286800Y0117600D02*
X0318300Y0086100D01*
X0321900Y0087900D02*
X0330900Y0096900D01*
X0330900Y0100500D01*
X0319200Y0112200D01*
X0319200Y0121200D01*
X0309300Y0131100D01*
X0308400Y0131100D01*
X0304800Y0134700D01*
X0304800Y0141900D01*
X0310200Y0135600D02*
X0309910Y0135304D01*
X0310200Y0135600D02*
X0336300Y0135600D01*
X0338100Y0137400D01*
X0341700Y0137400D01*
X0354300Y0124800D01*
X0354300Y0116700D01*
X0354398Y0116209D01*
X0344398Y0116209D02*
X0344400Y0115800D01*
X0344400Y0079800D01*
X0348900Y0078900D02*
X0338100Y0068100D01*
X0323700Y0068100D01*
X0321900Y0069900D01*
X0321900Y0087900D01*
X0325500Y0088800D02*
X0325500Y0086100D01*
X0325500Y0088800D02*
X0339900Y0103200D01*
X0339900Y0133800D01*
X0346200Y0135600D02*
X0336300Y0145500D01*
X0290400Y0145500D01*
X0286800Y0141900D01*
X0263400Y0141900D01*
X0250800Y0129300D01*
X0250800Y0095100D01*
X0218400Y0095100D01*
X0213000Y0091500D02*
X0252600Y0091500D01*
X0259800Y0098700D01*
X0259800Y0132900D01*
X0300300Y0132900D01*
X0304800Y0128400D01*
X0304800Y0125700D01*
X0313800Y0116700D01*
X0314398Y0116209D01*
X0314700Y0115800D01*
X0314700Y0114000D01*
X0327300Y0101400D01*
X0327300Y0098700D01*
X0340800Y0087000D02*
X0325500Y0071700D01*
X0318300Y0078900D02*
X0317400Y0078000D01*
X0289500Y0078000D01*
X0273300Y0069000D02*
X0228300Y0069000D01*
X0186000Y0111300D01*
X0186000Y0114900D01*
X0187800Y0116700D01*
X0195000Y0116700D01*
X0195900Y0115800D01*
X0196367Y0115698D01*
X0191400Y0113100D02*
X0189600Y0113100D01*
X0191400Y0113100D02*
X0213000Y0091500D01*
X0231900Y0105000D02*
X0231900Y0123900D01*
X0256200Y0148200D01*
X0259800Y0148200D01*
X0257100Y0143700D02*
X0240000Y0126600D01*
X0240000Y0103200D01*
X0242700Y0100500D01*
X0242700Y0098700D01*
X0243600Y0105000D02*
X0243600Y0124800D01*
X0267000Y0148200D01*
X0267000Y0157200D01*
X0276900Y0163500D02*
X0276900Y0174300D01*
X0264300Y0186900D01*
X0230100Y0190500D02*
X0230100Y0213900D01*
X0220200Y0223800D01*
X0220200Y0234600D01*
X0223800Y0238200D02*
X0244500Y0217500D01*
X0298500Y0217500D01*
X0301200Y0217500D01*
X0317400Y0201300D01*
X0317400Y0195900D01*
X0336300Y0177000D01*
X0326400Y0184200D02*
X0301200Y0209400D01*
X0301200Y0212100D01*
X0247200Y0212100D01*
X0228300Y0231000D01*
X0225600Y0231000D01*
X0223800Y0225600D02*
X0228300Y0225600D01*
X0232800Y0221100D01*
X0224700Y0215700D02*
X0205800Y0234600D01*
X0204000Y0238200D02*
X0223800Y0238200D01*
X0204000Y0238200D02*
X0202200Y0236400D01*
X0173400Y0236400D01*
X0154500Y0217500D01*
X0071700Y0217500D01*
X0051000Y0238200D01*
X0051000Y0254400D01*
X0062700Y0266100D01*
X0078000Y0266100D01*
X0083400Y0260700D01*
X0083400Y0255300D01*
X0083965Y0255197D01*
X0071800Y0261582D02*
X0071700Y0261600D01*
X0069000Y0264300D01*
X0063600Y0264300D01*
X0052800Y0253500D01*
X0052800Y0239100D01*
X0070800Y0221100D01*
X0073500Y0221100D01*
X0070800Y0231900D02*
X0069000Y0231900D01*
X0068263Y0232448D01*
X0081602Y0235736D02*
X0082500Y0236400D01*
X0110400Y0236400D01*
X0122100Y0248100D01*
X0113100Y0251700D02*
X0100500Y0264300D01*
X0114000Y0277800D02*
X0346200Y0277800D01*
X0378600Y0245400D01*
X0381300Y0245400D01*
X0378600Y0240000D02*
X0351600Y0267000D01*
X0333600Y0267000D01*
X0326400Y0259800D01*
X0323700Y0259800D01*
X0322800Y0253500D02*
X0334500Y0265200D01*
X0349800Y0265200D01*
X0362400Y0252600D01*
X0362400Y0236400D01*
X0362400Y0205800D01*
X0357000Y0200400D01*
X0356839Y0199796D01*
X0326839Y0199796D02*
X0326400Y0200400D01*
X0326400Y0203100D01*
X0306600Y0222900D01*
X0319200Y0233700D02*
X0280500Y0233700D01*
X0277800Y0236400D02*
X0272400Y0236400D01*
X0271602Y0235736D01*
X0277800Y0236400D02*
X0278700Y0237300D01*
X0294900Y0240900D02*
X0299400Y0240900D01*
X0322800Y0240900D02*
X0322800Y0253500D01*
X0322800Y0240900D02*
X0324600Y0239100D01*
X0345337Y0232448D02*
X0345300Y0231900D01*
X0357900Y0219300D01*
X0353400Y0229200D02*
X0360600Y0236400D01*
X0360600Y0249900D01*
X0356100Y0254400D01*
X0354300Y0254400D01*
X0353965Y0255197D01*
X0435300Y0267000D02*
X0437100Y0268800D01*
X0479400Y0268800D01*
X0484800Y0268800D02*
X0486600Y0267000D01*
X0505500Y0267000D01*
X0507300Y0268800D01*
X0516300Y0268800D01*
X0503700Y0270600D02*
X0496500Y0277800D01*
X0474900Y0249000D02*
X0466800Y0249000D01*
X0466474Y0248582D01*
X0442500Y0212100D02*
X0397500Y0167100D01*
X0396839Y0166796D01*
X0376839Y0166796D02*
X0376800Y0166200D01*
X0367800Y0157200D01*
X0363300Y0157200D01*
X0363300Y0151800D02*
X0466800Y0151800D01*
X0501900Y0186900D01*
X0510900Y0190500D02*
X0438900Y0118500D01*
X0397500Y0118500D01*
X0387600Y0122100D02*
X0437100Y0122100D01*
X0440700Y0114900D02*
X0445200Y0119400D01*
X0440700Y0114900D02*
X0392100Y0114900D01*
X0355200Y0151800D01*
X0352500Y0151800D01*
X0350700Y0159000D02*
X0387600Y0122100D01*
X0378600Y0115800D02*
X0369600Y0106800D01*
X0359700Y0106800D01*
X0362400Y0141900D02*
X0398400Y0105900D01*
X0486600Y0105900D01*
X0413700Y0077100D02*
X0413700Y0071700D01*
X0410100Y0075300D02*
X0349800Y0075300D01*
X0334500Y0060000D01*
X0348900Y0078900D02*
X0411900Y0078900D01*
X0413700Y0077100D01*
X0359910Y0135304D02*
X0359700Y0135600D01*
X0346200Y0135600D01*
X0357000Y0141900D02*
X0362400Y0141900D01*
X0357000Y0141900D02*
X0341700Y0157200D01*
X0301200Y0157200D01*
X0326400Y0167100D02*
X0326839Y0166796D01*
X0326400Y0167100D02*
X0326400Y0184200D01*
X0350700Y0160800D02*
X0350700Y0159000D01*
X0417300Y0175200D02*
X0484800Y0175200D01*
X0536100Y0226500D01*
X0540600Y0226500D01*
X0552300Y0238200D01*
X0552300Y0252600D01*
X0287700Y0136500D02*
X0280500Y0136500D01*
X0278700Y0138300D01*
X0274200Y0125700D02*
X0274200Y0090600D01*
X0256200Y0072600D01*
X0244500Y0065400D02*
X0229200Y0065400D01*
X0182400Y0112200D01*
X0182400Y0177000D01*
X0224700Y0190500D02*
X0224700Y0215700D01*
X0242700Y0224700D02*
X0245400Y0224700D01*
X0258263Y0232448D02*
X0258900Y0231900D01*
X0260700Y0231900D01*
X0264300Y0228300D01*
X0170700Y0239100D02*
X0163500Y0231900D01*
X0155400Y0231900D01*
X0155337Y0232448D01*
X0170700Y0239100D02*
X0170700Y0240000D01*
X0103200Y0164400D02*
X0093300Y0154500D01*
X0069000Y0147300D02*
X0069000Y0049200D01*
X0061800Y0042000D01*
X0061170Y0041997D01*
X0071170Y0041997D02*
X0071700Y0041100D01*
X0078900Y0033900D01*
X0080700Y0033900D01*
X0087000Y0027600D01*
X0087000Y0018600D01*
X0091500Y0014100D01*
X0204000Y0014100D01*
X0243600Y0053700D01*
X0251700Y0053700D01*
X0262500Y0049200D02*
X0263400Y0049200D01*
X0262500Y0049200D02*
X0231000Y0017700D01*
X0198600Y0026700D02*
X0227400Y0055500D01*
X0222000Y0055500D02*
X0204000Y0037500D01*
X0219300Y0034800D02*
X0235500Y0051000D01*
X0242700Y0061800D02*
X0271500Y0061800D01*
X0266100Y0053700D02*
X0276900Y0042900D01*
X0276900Y0033000D01*
X0242700Y0061800D02*
X0241800Y0062700D01*
X0212100Y0062700D01*
X0154500Y0073500D02*
X0154500Y0086100D01*
X0154500Y0073500D02*
X0105000Y0024000D01*
X0102300Y0024000D01*
X0102233Y0023217D01*
X0128400Y0026700D02*
X0198600Y0026700D01*
X0100500Y0093300D02*
X0100500Y0130200D01*
X0096900Y0139200D02*
X0112200Y0123900D01*
X0286800Y0125700D02*
X0286800Y0117600D01*
D17*
X0287700Y0111300D03*
X0286800Y0125700D03*
X0274200Y0125700D03*
X0259800Y0132900D03*
X0278700Y0138300D03*
X0287700Y0136500D03*
X0304800Y0141900D03*
X0286800Y0147300D03*
X0281400Y0147300D03*
X0267000Y0157200D03*
X0276900Y0163500D03*
X0301200Y0157200D03*
X0259800Y0148200D03*
X0257100Y0143700D03*
X0304800Y0128400D03*
X0339900Y0133800D03*
X0352500Y0151800D03*
X0350700Y0160800D03*
X0363300Y0157200D03*
X0363300Y0151800D03*
X0417300Y0175200D03*
X0442500Y0212100D03*
X0448800Y0222900D03*
X0474000Y0231900D03*
X0481200Y0233700D03*
X0474900Y0249000D03*
X0479400Y0268800D03*
X0484800Y0268800D03*
X0496500Y0277800D03*
X0503700Y0270600D03*
X0516300Y0268800D03*
X0519000Y0260700D03*
X0554100Y0256200D03*
X0439800Y0260700D03*
X0435300Y0267000D03*
X0413700Y0277800D03*
X0381300Y0245400D03*
X0375900Y0231900D03*
X0366000Y0232800D03*
X0353400Y0229200D03*
X0351600Y0219300D03*
X0357900Y0219300D03*
X0328200Y0231900D03*
X0317400Y0237300D03*
X0299400Y0240900D03*
X0281400Y0240900D03*
X0280500Y0233700D03*
X0306600Y0222900D03*
X0298500Y0217500D03*
X0301200Y0212100D03*
X0250800Y0230100D03*
X0242700Y0224700D03*
X0232800Y0221100D03*
X0223800Y0225600D03*
X0225600Y0231000D03*
X0220200Y0234600D03*
X0205800Y0234600D03*
X0173400Y0236400D03*
X0132900Y0221100D03*
X0111300Y0228300D03*
X0120300Y0231900D03*
X0122100Y0248100D03*
X0113100Y0251700D03*
X0132000Y0260700D03*
X0136500Y0263400D03*
X0121200Y0261600D03*
X0112200Y0270600D03*
X0139200Y0274200D03*
X0164400Y0265200D03*
X0238200Y0252600D03*
X0291300Y0272400D03*
X0323700Y0259800D03*
X0230100Y0190500D03*
X0224700Y0190500D03*
X0219300Y0185100D03*
X0182400Y0177000D03*
X0108600Y0201300D03*
X0080700Y0213900D03*
X0073500Y0221100D03*
X0103200Y0164400D03*
X0093300Y0154500D03*
X0069000Y0147300D03*
X0096900Y0139200D03*
X0100500Y0130200D03*
X0141900Y0137400D03*
X0189600Y0113100D03*
X0218400Y0095100D03*
X0231900Y0105000D03*
X0243600Y0105000D03*
X0242700Y0098700D03*
X0250800Y0095100D03*
X0289500Y0078000D03*
X0273300Y0069000D03*
X0256200Y0072600D03*
X0244500Y0065400D03*
X0227400Y0055500D03*
X0222000Y0055500D03*
X0212100Y0062700D03*
X0235500Y0051000D03*
X0251700Y0053700D03*
X0263400Y0049200D03*
X0266100Y0053700D03*
X0279600Y0055500D03*
X0318300Y0078900D03*
X0325500Y0071700D03*
X0344400Y0079800D03*
X0340800Y0087000D03*
X0352500Y0096900D03*
X0359700Y0106800D03*
X0378600Y0115800D03*
X0397500Y0118500D03*
X0437100Y0122100D03*
X0445200Y0119400D03*
X0486600Y0105900D03*
X0413700Y0071700D03*
X0410100Y0075300D03*
X0334500Y0060000D03*
X0325500Y0086100D03*
X0318300Y0086100D03*
X0327300Y0098700D03*
X0204000Y0037500D03*
X0219300Y0034800D03*
X0231000Y0017700D03*
X0276900Y0033000D03*
X0154500Y0086100D03*
X0130200Y0093300D03*
X0134700Y0101400D03*
X0144600Y0101400D03*
X0112200Y0095100D03*
X0100500Y0093300D03*
X0093300Y0064500D03*
X0128400Y0026700D03*
X0266100Y0179700D03*
X0501900Y0186900D03*
X0510900Y0190500D03*
X0511800Y0029400D03*
D18*
X0033659Y0017609D02*
X0026813Y0017609D01*
X0030298Y0015281D01*
X0034717Y0013451D01*
X0039408Y0012517D01*
X0039408Y0012517D01*
X0041800Y0012400D01*
X0090230Y0012400D01*
X0086130Y0016500D01*
X0085576Y0017055D01*
X0084839Y0016318D01*
X0083148Y0015617D01*
X0081318Y0015617D01*
X0079627Y0016318D01*
X0078333Y0017612D01*
X0077633Y0019302D01*
X0077633Y0027132D01*
X0078333Y0028823D01*
X0079627Y0030117D01*
X0080961Y0030669D01*
X0079830Y0031800D01*
X0078030Y0031800D01*
X0074254Y0035576D01*
X0073776Y0035097D01*
X0072085Y0034397D01*
X0070255Y0034397D01*
X0068564Y0035097D01*
X0067270Y0036391D01*
X0066570Y0038082D01*
X0066570Y0043800D01*
X0065770Y0043000D01*
X0065770Y0038082D01*
X0065070Y0036391D01*
X0063776Y0035097D01*
X0062085Y0034397D01*
X0060255Y0034397D01*
X0058564Y0035097D01*
X0057270Y0036391D01*
X0056570Y0038082D01*
X0056570Y0045912D01*
X0057270Y0047603D01*
X0058564Y0048897D01*
X0060255Y0049597D01*
X0062085Y0049597D01*
X0063776Y0048897D01*
X0064751Y0047921D01*
X0066900Y0050070D01*
X0066900Y0144309D01*
X0065948Y0145261D01*
X0065400Y0146584D01*
X0065400Y0148016D01*
X0065948Y0149339D01*
X0066961Y0150352D01*
X0068284Y0150900D01*
X0069716Y0150900D01*
X0071039Y0150352D01*
X0072052Y0149339D01*
X0072600Y0148016D01*
X0072600Y0146584D01*
X0072052Y0145261D01*
X0071100Y0144309D01*
X0071100Y0049597D01*
X0072085Y0049597D01*
X0073776Y0048897D01*
X0075070Y0047603D01*
X0075770Y0045912D01*
X0075770Y0040000D01*
X0076570Y0039200D01*
X0076570Y0045912D01*
X0077270Y0047603D01*
X0078564Y0048897D01*
X0080255Y0049597D01*
X0082085Y0049597D01*
X0083776Y0048897D01*
X0085070Y0047603D01*
X0085770Y0045912D01*
X0085770Y0038082D01*
X0085070Y0036391D01*
X0083776Y0035097D01*
X0082854Y0034715D01*
X0088540Y0029030D01*
X0089627Y0030117D01*
X0091318Y0030817D01*
X0093148Y0030817D01*
X0094800Y0030133D01*
X0094800Y0036121D01*
X0093776Y0035097D01*
X0092085Y0034397D01*
X0090255Y0034397D01*
X0088564Y0035097D01*
X0087270Y0036391D01*
X0086570Y0038082D01*
X0086570Y0045912D01*
X0087270Y0047603D01*
X0088564Y0048897D01*
X0090255Y0049597D01*
X0092085Y0049597D01*
X0093776Y0048897D01*
X0094800Y0047872D01*
X0094800Y0061225D01*
X0094016Y0060900D01*
X0092584Y0060900D01*
X0091261Y0061448D01*
X0090248Y0062461D01*
X0089700Y0063784D01*
X0089700Y0065216D01*
X0090248Y0066539D01*
X0091200Y0067491D01*
X0091200Y0133830D01*
X0046530Y0178500D01*
X0045300Y0179730D01*
X0045300Y0257070D01*
X0070500Y0282270D01*
X0071730Y0283500D01*
X0416370Y0283500D01*
X0431833Y0268037D01*
X0432248Y0269039D01*
X0433261Y0270052D01*
X0434584Y0270600D01*
X0435930Y0270600D01*
X0436230Y0270900D01*
X0476409Y0270900D01*
X0477361Y0271852D01*
X0478684Y0272400D01*
X0480116Y0272400D01*
X0481439Y0271852D01*
X0482100Y0271191D01*
X0482761Y0271852D01*
X0484084Y0272400D01*
X0485516Y0272400D01*
X0486839Y0271852D01*
X0487852Y0270839D01*
X0488400Y0269516D01*
X0488400Y0269100D01*
X0500425Y0269100D01*
X0500100Y0269884D01*
X0500100Y0271230D01*
X0497130Y0274200D01*
X0495784Y0274200D01*
X0494461Y0274748D01*
X0493448Y0275761D01*
X0492900Y0277084D01*
X0492900Y0278516D01*
X0493448Y0279839D01*
X0494461Y0280852D01*
X0495784Y0281400D01*
X0497216Y0281400D01*
X0498539Y0280852D01*
X0499552Y0279839D01*
X0500100Y0278516D01*
X0500100Y0277170D01*
X0503070Y0274200D01*
X0504416Y0274200D01*
X0505739Y0273652D01*
X0506752Y0272639D01*
X0507300Y0271316D01*
X0507300Y0270900D01*
X0508170Y0270900D01*
X0513309Y0270900D01*
X0514261Y0271852D01*
X0515584Y0272400D01*
X0517016Y0272400D01*
X0518339Y0271852D01*
X0519352Y0270839D01*
X0519900Y0269516D01*
X0519900Y0268084D01*
X0519575Y0267300D01*
X0520770Y0267300D01*
X0524341Y0263729D01*
X0525359Y0263729D01*
X0528600Y0266970D01*
X0529830Y0268200D01*
X0545070Y0268200D01*
X0553470Y0259800D01*
X0554816Y0259800D01*
X0556139Y0259252D01*
X0557152Y0258239D01*
X0557700Y0256916D01*
X0557700Y0255484D01*
X0557152Y0254161D01*
X0556139Y0253148D01*
X0554816Y0252600D01*
X0554400Y0252600D01*
X0554400Y0237330D01*
X0553170Y0236100D01*
X0541470Y0224400D01*
X0536970Y0224400D01*
X0502937Y0190367D01*
X0503939Y0189952D01*
X0504952Y0188939D01*
X0505367Y0187937D01*
X0507300Y0189870D01*
X0507300Y0191216D01*
X0507848Y0192539D01*
X0508861Y0193552D01*
X0510184Y0194100D01*
X0511616Y0194100D01*
X0512939Y0193552D01*
X0513952Y0192539D01*
X0514500Y0191216D01*
X0514500Y0189784D01*
X0513952Y0188461D01*
X0512939Y0187448D01*
X0511616Y0186900D01*
X0510270Y0186900D01*
X0446237Y0122867D01*
X0447239Y0122452D01*
X0448252Y0121439D01*
X0448800Y0120116D01*
X0448800Y0118684D01*
X0448252Y0117361D01*
X0447239Y0116348D01*
X0445916Y0115800D01*
X0444570Y0115800D01*
X0441570Y0112800D01*
X0394470Y0112800D01*
X0399270Y0108000D01*
X0483609Y0108000D01*
X0484561Y0108952D01*
X0485884Y0109500D01*
X0487316Y0109500D01*
X0488639Y0108952D01*
X0489652Y0107939D01*
X0490200Y0106616D01*
X0490200Y0105184D01*
X0489875Y0104400D01*
X0494670Y0104400D01*
X0495900Y0103170D01*
X0495900Y0103170D01*
X0503670Y0095400D01*
X0503670Y0095400D01*
X0504900Y0094170D01*
X0504900Y0048270D01*
X0511200Y0041970D01*
X0511200Y0088854D01*
X0512263Y0092821D01*
X0512263Y0092821D01*
X0514317Y0096379D01*
X0514317Y0096379D01*
X0517221Y0099283D01*
X0517221Y0099283D01*
X0520779Y0101337D01*
X0520779Y0101337D01*
X0524746Y0102400D01*
X0527914Y0102400D01*
X0529972Y0101547D01*
X0531547Y0099972D01*
X0532400Y0097914D01*
X0532400Y0042400D01*
X0542914Y0042400D01*
X0544972Y0041547D01*
X0546547Y0039972D01*
X0547400Y0037914D01*
X0547400Y0014746D01*
X0546771Y0012400D01*
X0556800Y0012400D01*
X0559192Y0012517D01*
X0563883Y0013451D01*
X0568302Y0015281D01*
X0568841Y0015641D01*
X0562894Y0015641D01*
X0556980Y0021555D01*
X0556980Y0029919D01*
X0562894Y0035833D01*
X0571258Y0035833D01*
X0577172Y0029919D01*
X0577172Y0023581D01*
X0578319Y0025298D01*
X0580149Y0029717D01*
X0581083Y0034408D01*
X0581200Y0036800D01*
X0581200Y0266800D01*
X0581083Y0269192D01*
X0580149Y0273883D01*
X0578319Y0278302D01*
X0576187Y0281492D01*
X0576187Y0276437D01*
X0570273Y0270523D01*
X0561909Y0270523D01*
X0555995Y0276437D01*
X0555995Y0284801D01*
X0561765Y0290571D01*
X0559192Y0291083D01*
X0556800Y0291200D01*
X0041800Y0291200D01*
X0039408Y0291083D01*
X0038148Y0290832D01*
X0043786Y0285195D01*
X0043786Y0276831D01*
X0037872Y0270917D01*
X0029508Y0270917D01*
X0023594Y0276831D01*
X0023594Y0282934D01*
X0022939Y0282279D01*
X0020281Y0278302D01*
X0018451Y0273883D01*
X0017517Y0269192D01*
X0017400Y0266800D01*
X0017400Y0036800D01*
X0017517Y0034408D01*
X0018451Y0029717D01*
X0019381Y0027471D01*
X0019381Y0031887D01*
X0025295Y0037802D01*
X0033659Y0037802D01*
X0039573Y0031887D01*
X0039573Y0023524D01*
X0033659Y0017609D01*
X0034448Y0018399D02*
X0047777Y0018399D01*
X0047785Y0018375D02*
X0048128Y0017702D01*
X0048572Y0017090D01*
X0049106Y0016556D01*
X0049717Y0016112D01*
X0050391Y0015769D01*
X0051109Y0015536D01*
X0051855Y0015417D01*
X0052033Y0015417D01*
X0052033Y0023017D01*
X0052433Y0023017D01*
X0052433Y0015417D01*
X0052611Y0015417D01*
X0053357Y0015536D01*
X0054076Y0015769D01*
X0054749Y0016112D01*
X0055360Y0016556D01*
X0055894Y0017090D01*
X0056338Y0017702D01*
X0056681Y0018375D01*
X0056915Y0019093D01*
X0057033Y0019840D01*
X0057033Y0023017D01*
X0052433Y0023017D01*
X0052433Y0023417D01*
X0057033Y0023417D01*
X0057033Y0026595D01*
X0056915Y0027341D01*
X0056681Y0028060D01*
X0056338Y0028733D01*
X0055894Y0029344D01*
X0055360Y0029879D01*
X0054749Y0030323D01*
X0054076Y0030666D01*
X0053357Y0030899D01*
X0052611Y0031017D01*
X0052433Y0031017D01*
X0052433Y0023417D01*
X0052033Y0023417D01*
X0052033Y0023017D01*
X0047433Y0023017D01*
X0047433Y0019840D01*
X0047551Y0019093D01*
X0047785Y0018375D01*
X0047433Y0019997D02*
X0036047Y0019997D01*
X0037645Y0021596D02*
X0047433Y0021596D01*
X0047433Y0023417D02*
X0052033Y0023417D01*
X0052033Y0031017D01*
X0051855Y0031017D01*
X0051109Y0030899D01*
X0050391Y0030666D01*
X0049717Y0030323D01*
X0049106Y0029879D01*
X0048572Y0029344D01*
X0048128Y0028733D01*
X0047785Y0028060D01*
X0047551Y0027341D01*
X0047433Y0026595D01*
X0047433Y0023417D01*
X0047433Y0024793D02*
X0039573Y0024793D01*
X0039573Y0026391D02*
X0047433Y0026391D01*
X0047762Y0027990D02*
X0039573Y0027990D01*
X0039573Y0029588D02*
X0048816Y0029588D01*
X0052033Y0029588D02*
X0052433Y0029588D01*
X0052433Y0027990D02*
X0052033Y0027990D01*
X0052033Y0026391D02*
X0052433Y0026391D01*
X0052433Y0024793D02*
X0052033Y0024793D01*
X0052033Y0023194D02*
X0039244Y0023194D01*
X0048862Y0016800D02*
X0028025Y0016800D01*
X0030490Y0015201D02*
X0087429Y0015201D01*
X0089027Y0013603D02*
X0034349Y0013603D01*
X0052033Y0016800D02*
X0052433Y0016800D01*
X0052433Y0018399D02*
X0052033Y0018399D01*
X0052033Y0019997D02*
X0052433Y0019997D01*
X0052433Y0021596D02*
X0052033Y0021596D01*
X0052433Y0023194D02*
X0057633Y0023194D01*
X0057633Y0021596D02*
X0057033Y0021596D01*
X0057033Y0019997D02*
X0057633Y0019997D01*
X0057633Y0019302D02*
X0058333Y0017612D01*
X0059627Y0016318D01*
X0061318Y0015617D01*
X0063148Y0015617D01*
X0064839Y0016318D01*
X0066133Y0017612D01*
X0066833Y0019302D01*
X0066833Y0027132D01*
X0066133Y0028823D01*
X0064839Y0030117D01*
X0063148Y0030817D01*
X0061318Y0030817D01*
X0059627Y0030117D01*
X0058333Y0028823D01*
X0057633Y0027132D01*
X0057633Y0019302D01*
X0058007Y0018399D02*
X0056689Y0018399D01*
X0055604Y0016800D02*
X0059145Y0016800D01*
X0065321Y0016800D02*
X0069145Y0016800D01*
X0069627Y0016318D02*
X0071318Y0015617D01*
X0073148Y0015617D01*
X0074839Y0016318D01*
X0076133Y0017612D01*
X0076833Y0019302D01*
X0076833Y0027132D01*
X0076133Y0028823D01*
X0074839Y0030117D01*
X0073148Y0030817D01*
X0071318Y0030817D01*
X0069627Y0030117D01*
X0068333Y0028823D01*
X0067633Y0027132D01*
X0067633Y0019302D01*
X0068333Y0017612D01*
X0069627Y0016318D01*
X0068007Y0018399D02*
X0066459Y0018399D01*
X0066833Y0019997D02*
X0067633Y0019997D01*
X0067633Y0021596D02*
X0066833Y0021596D01*
X0066833Y0023194D02*
X0067633Y0023194D01*
X0067633Y0024793D02*
X0066833Y0024793D01*
X0066833Y0026391D02*
X0067633Y0026391D01*
X0067988Y0027990D02*
X0066478Y0027990D01*
X0065368Y0029588D02*
X0069098Y0029588D01*
X0075368Y0029588D02*
X0079098Y0029588D01*
X0077988Y0027990D02*
X0076478Y0027990D01*
X0076833Y0026391D02*
X0077633Y0026391D01*
X0077633Y0024793D02*
X0076833Y0024793D01*
X0076833Y0023194D02*
X0077633Y0023194D01*
X0077633Y0021596D02*
X0076833Y0021596D01*
X0076833Y0019997D02*
X0077633Y0019997D01*
X0078007Y0018399D02*
X0076459Y0018399D01*
X0075321Y0016800D02*
X0079145Y0016800D01*
X0085321Y0016800D02*
X0085830Y0016800D01*
X0087982Y0029588D02*
X0089098Y0029588D01*
X0086383Y0031187D02*
X0094800Y0031187D01*
X0094800Y0032785D02*
X0084785Y0032785D01*
X0083186Y0034384D02*
X0094800Y0034384D01*
X0094800Y0035982D02*
X0094661Y0035982D01*
X0087679Y0035982D02*
X0084661Y0035982D01*
X0085562Y0037581D02*
X0086778Y0037581D01*
X0086570Y0039179D02*
X0085770Y0039179D01*
X0085770Y0040778D02*
X0086570Y0040778D01*
X0086570Y0042376D02*
X0085770Y0042376D01*
X0085770Y0043975D02*
X0086570Y0043975D01*
X0086570Y0045573D02*
X0085770Y0045573D01*
X0085248Y0047172D02*
X0087092Y0047172D01*
X0088438Y0048770D02*
X0083902Y0048770D01*
X0078438Y0048770D02*
X0073902Y0048770D01*
X0075248Y0047172D02*
X0077092Y0047172D01*
X0076570Y0045573D02*
X0075770Y0045573D01*
X0075770Y0043975D02*
X0076570Y0043975D01*
X0076570Y0042376D02*
X0075770Y0042376D01*
X0075770Y0040778D02*
X0076570Y0040778D01*
X0075447Y0034384D02*
X0052505Y0034384D01*
X0052294Y0034315D02*
X0053013Y0034549D01*
X0053686Y0034892D01*
X0054297Y0035336D01*
X0054831Y0035870D01*
X0055275Y0036481D01*
X0055618Y0037154D01*
X0055852Y0037873D01*
X0055970Y0038619D01*
X0055970Y0041797D01*
X0051370Y0041797D01*
X0051370Y0042197D01*
X0050970Y0042197D01*
X0050970Y0049797D01*
X0050792Y0049797D01*
X0050046Y0049679D01*
X0049328Y0049445D01*
X0048654Y0049102D01*
X0048043Y0048658D01*
X0047509Y0048124D01*
X0047065Y0047513D01*
X0046722Y0046839D01*
X0046488Y0046121D01*
X0046370Y0045375D01*
X0046370Y0042197D01*
X0050970Y0042197D01*
X0050970Y0041797D01*
X0046370Y0041797D01*
X0046370Y0038619D01*
X0046488Y0037873D01*
X0046722Y0037154D01*
X0047065Y0036481D01*
X0047509Y0035870D01*
X0048043Y0035336D01*
X0048654Y0034892D01*
X0049328Y0034549D01*
X0050046Y0034315D01*
X0050792Y0034197D01*
X0050970Y0034197D01*
X0050970Y0041797D01*
X0051370Y0041797D01*
X0051370Y0034197D01*
X0051548Y0034197D01*
X0052294Y0034315D01*
X0051370Y0034384D02*
X0050970Y0034384D01*
X0049835Y0034384D02*
X0037077Y0034384D01*
X0035479Y0035982D02*
X0047427Y0035982D01*
X0046583Y0037581D02*
X0033880Y0037581D01*
X0025074Y0037581D02*
X0017400Y0037581D01*
X0017400Y0039179D02*
X0046370Y0039179D01*
X0046370Y0040778D02*
X0017400Y0040778D01*
X0017400Y0042376D02*
X0046370Y0042376D01*
X0046370Y0043975D02*
X0017400Y0043975D01*
X0017400Y0045573D02*
X0046402Y0045573D01*
X0046891Y0047172D02*
X0017400Y0047172D01*
X0017400Y0048770D02*
X0048197Y0048770D01*
X0050970Y0048770D02*
X0051370Y0048770D01*
X0051370Y0049797D02*
X0051370Y0042197D01*
X0055970Y0042197D01*
X0055970Y0045375D01*
X0055852Y0046121D01*
X0055618Y0046839D01*
X0055275Y0047513D01*
X0054831Y0048124D01*
X0054297Y0048658D01*
X0053686Y0049102D01*
X0053013Y0049445D01*
X0052294Y0049679D01*
X0051548Y0049797D01*
X0051370Y0049797D01*
X0051370Y0047172D02*
X0050970Y0047172D01*
X0050970Y0045573D02*
X0051370Y0045573D01*
X0051370Y0043975D02*
X0050970Y0043975D01*
X0050970Y0042376D02*
X0051370Y0042376D01*
X0051370Y0040778D02*
X0050970Y0040778D01*
X0050970Y0039179D02*
X0051370Y0039179D01*
X0051370Y0037581D02*
X0050970Y0037581D01*
X0050970Y0035982D02*
X0051370Y0035982D01*
X0054913Y0035982D02*
X0057679Y0035982D01*
X0056778Y0037581D02*
X0055757Y0037581D01*
X0055970Y0039179D02*
X0056570Y0039179D01*
X0056570Y0040778D02*
X0055970Y0040778D01*
X0055970Y0042376D02*
X0056570Y0042376D01*
X0056570Y0043975D02*
X0055970Y0043975D01*
X0055939Y0045573D02*
X0056570Y0045573D01*
X0057092Y0047172D02*
X0055449Y0047172D01*
X0054143Y0048770D02*
X0058438Y0048770D01*
X0063902Y0048770D02*
X0065600Y0048770D01*
X0066900Y0050369D02*
X0017400Y0050369D01*
X0017400Y0051967D02*
X0066900Y0051967D01*
X0066900Y0053566D02*
X0017400Y0053566D01*
X0017400Y0055164D02*
X0066900Y0055164D01*
X0066900Y0056763D02*
X0017400Y0056763D01*
X0017400Y0058361D02*
X0066900Y0058361D01*
X0066900Y0059960D02*
X0017400Y0059960D01*
X0017400Y0061558D02*
X0066900Y0061558D01*
X0066900Y0063157D02*
X0017400Y0063157D01*
X0017400Y0064755D02*
X0066900Y0064755D01*
X0066900Y0066354D02*
X0017400Y0066354D01*
X0017400Y0067952D02*
X0066900Y0067952D01*
X0066900Y0069551D02*
X0017400Y0069551D01*
X0017400Y0071149D02*
X0066900Y0071149D01*
X0066900Y0072748D02*
X0017400Y0072748D01*
X0017400Y0074346D02*
X0066900Y0074346D01*
X0066900Y0075945D02*
X0017400Y0075945D01*
X0017400Y0077543D02*
X0066900Y0077543D01*
X0066900Y0079142D02*
X0017400Y0079142D01*
X0017400Y0080740D02*
X0066900Y0080740D01*
X0066900Y0082339D02*
X0017400Y0082339D01*
X0017400Y0083937D02*
X0066900Y0083937D01*
X0066900Y0085536D02*
X0017400Y0085536D01*
X0017400Y0087134D02*
X0066900Y0087134D01*
X0066900Y0088733D02*
X0017400Y0088733D01*
X0017400Y0090332D02*
X0066900Y0090332D01*
X0066900Y0091930D02*
X0017400Y0091930D01*
X0017400Y0093529D02*
X0066900Y0093529D01*
X0066900Y0095127D02*
X0017400Y0095127D01*
X0017400Y0096726D02*
X0066900Y0096726D01*
X0066900Y0098324D02*
X0017400Y0098324D01*
X0017400Y0099923D02*
X0066900Y0099923D01*
X0066900Y0101521D02*
X0017400Y0101521D01*
X0017400Y0103120D02*
X0066900Y0103120D01*
X0066900Y0104718D02*
X0017400Y0104718D01*
X0017400Y0106317D02*
X0066900Y0106317D01*
X0066900Y0107915D02*
X0017400Y0107915D01*
X0017400Y0109514D02*
X0066900Y0109514D01*
X0066900Y0111112D02*
X0017400Y0111112D01*
X0017400Y0112711D02*
X0066900Y0112711D01*
X0066900Y0114309D02*
X0017400Y0114309D01*
X0017400Y0115908D02*
X0066900Y0115908D01*
X0066900Y0117506D02*
X0017400Y0117506D01*
X0017400Y0119105D02*
X0026522Y0119105D01*
X0026795Y0118832D02*
X0029174Y0117846D01*
X0031749Y0117846D01*
X0034128Y0118832D01*
X0035949Y0120653D01*
X0036935Y0123032D01*
X0036935Y0125607D01*
X0035949Y0127986D01*
X0034128Y0129807D01*
X0031749Y0130793D01*
X0029174Y0130793D01*
X0026795Y0129807D01*
X0024974Y0127986D01*
X0023988Y0125607D01*
X0023988Y0123032D01*
X0024974Y0120653D01*
X0026795Y0118832D01*
X0024953Y0120703D02*
X0017400Y0120703D01*
X0017400Y0122302D02*
X0024291Y0122302D01*
X0023988Y0123900D02*
X0017400Y0123900D01*
X0017400Y0125499D02*
X0023988Y0125499D01*
X0024605Y0127097D02*
X0017400Y0127097D01*
X0017400Y0128696D02*
X0025683Y0128696D01*
X0027970Y0130294D02*
X0017400Y0130294D01*
X0017400Y0131893D02*
X0066900Y0131893D01*
X0066900Y0133491D02*
X0033401Y0133491D01*
X0034128Y0133793D02*
X0031749Y0132807D01*
X0029174Y0132807D01*
X0026795Y0133793D01*
X0024974Y0135614D01*
X0023988Y0137993D01*
X0023988Y0140568D01*
X0024974Y0142947D01*
X0026795Y0144768D01*
X0029174Y0145754D01*
X0031749Y0145754D01*
X0034128Y0144768D01*
X0035949Y0142947D01*
X0036935Y0140568D01*
X0036935Y0137993D01*
X0035949Y0135614D01*
X0034128Y0133793D01*
X0035425Y0135090D02*
X0066900Y0135090D01*
X0066900Y0136688D02*
X0036394Y0136688D01*
X0036935Y0138287D02*
X0066900Y0138287D01*
X0066900Y0139885D02*
X0036935Y0139885D01*
X0036555Y0141484D02*
X0066900Y0141484D01*
X0066900Y0143082D02*
X0035814Y0143082D01*
X0034215Y0144681D02*
X0066528Y0144681D01*
X0065526Y0146279D02*
X0017400Y0146279D01*
X0017400Y0144681D02*
X0026707Y0144681D01*
X0025109Y0143082D02*
X0017400Y0143082D01*
X0017400Y0141484D02*
X0024368Y0141484D01*
X0023988Y0139885D02*
X0017400Y0139885D01*
X0017400Y0138287D02*
X0023988Y0138287D01*
X0024528Y0136688D02*
X0017400Y0136688D01*
X0017400Y0135090D02*
X0025497Y0135090D01*
X0027522Y0133491D02*
X0017400Y0133491D01*
X0032953Y0130294D02*
X0066900Y0130294D01*
X0066900Y0128696D02*
X0035240Y0128696D01*
X0036317Y0127097D02*
X0066900Y0127097D01*
X0066900Y0125499D02*
X0036935Y0125499D01*
X0036935Y0123900D02*
X0066900Y0123900D01*
X0066900Y0122302D02*
X0036632Y0122302D01*
X0035970Y0120703D02*
X0066900Y0120703D01*
X0066900Y0119105D02*
X0034401Y0119105D01*
X0071100Y0119105D02*
X0091200Y0119105D01*
X0091200Y0120703D02*
X0071100Y0120703D01*
X0071100Y0122302D02*
X0091200Y0122302D01*
X0091200Y0123900D02*
X0071100Y0123900D01*
X0071100Y0125499D02*
X0091200Y0125499D01*
X0091200Y0127097D02*
X0071100Y0127097D01*
X0071100Y0128696D02*
X0091200Y0128696D01*
X0091200Y0130294D02*
X0071100Y0130294D01*
X0071100Y0131893D02*
X0091200Y0131893D01*
X0091200Y0133491D02*
X0071100Y0133491D01*
X0071100Y0135090D02*
X0089940Y0135090D01*
X0088342Y0136688D02*
X0071100Y0136688D01*
X0071100Y0138287D02*
X0086743Y0138287D01*
X0085145Y0139885D02*
X0071100Y0139885D01*
X0071100Y0141484D02*
X0083546Y0141484D01*
X0081948Y0143082D02*
X0071100Y0143082D01*
X0071472Y0144681D02*
X0080349Y0144681D01*
X0078751Y0146279D02*
X0072474Y0146279D01*
X0072600Y0147878D02*
X0077152Y0147878D01*
X0075554Y0149476D02*
X0071915Y0149476D01*
X0073955Y0151075D02*
X0017400Y0151075D01*
X0017400Y0152673D02*
X0072357Y0152673D01*
X0070758Y0154272D02*
X0017400Y0154272D01*
X0017400Y0155870D02*
X0069160Y0155870D01*
X0067561Y0157469D02*
X0017400Y0157469D01*
X0017400Y0159068D02*
X0065963Y0159068D01*
X0064364Y0160666D02*
X0017400Y0160666D01*
X0017400Y0162265D02*
X0062766Y0162265D01*
X0061167Y0163863D02*
X0017400Y0163863D01*
X0017400Y0165462D02*
X0059569Y0165462D01*
X0057970Y0167060D02*
X0017400Y0167060D01*
X0017400Y0168659D02*
X0056372Y0168659D01*
X0054773Y0170257D02*
X0017400Y0170257D01*
X0017400Y0171856D02*
X0053175Y0171856D01*
X0051576Y0173454D02*
X0017400Y0173454D01*
X0017400Y0175053D02*
X0049978Y0175053D01*
X0048379Y0176651D02*
X0017400Y0176651D01*
X0017400Y0178250D02*
X0046780Y0178250D01*
X0045300Y0179848D02*
X0017400Y0179848D01*
X0017400Y0181447D02*
X0045300Y0181447D01*
X0045300Y0183045D02*
X0017400Y0183045D01*
X0017400Y0184644D02*
X0045300Y0184644D01*
X0045300Y0186242D02*
X0017400Y0186242D01*
X0017400Y0187841D02*
X0045300Y0187841D01*
X0045300Y0189439D02*
X0017400Y0189439D01*
X0017400Y0191038D02*
X0045300Y0191038D01*
X0045300Y0192636D02*
X0017400Y0192636D01*
X0017400Y0194235D02*
X0045300Y0194235D01*
X0045300Y0195833D02*
X0017400Y0195833D01*
X0017400Y0197432D02*
X0045300Y0197432D01*
X0045300Y0199030D02*
X0017400Y0199030D01*
X0017400Y0200629D02*
X0045300Y0200629D01*
X0045300Y0202227D02*
X0017400Y0202227D01*
X0017400Y0203826D02*
X0045300Y0203826D01*
X0045300Y0205424D02*
X0017400Y0205424D01*
X0017400Y0207023D02*
X0045300Y0207023D01*
X0045300Y0208621D02*
X0017400Y0208621D01*
X0017400Y0210220D02*
X0045300Y0210220D01*
X0045300Y0211818D02*
X0017400Y0211818D01*
X0017400Y0213417D02*
X0045300Y0213417D01*
X0045300Y0215015D02*
X0017400Y0215015D01*
X0017400Y0216614D02*
X0045300Y0216614D01*
X0045300Y0218212D02*
X0017400Y0218212D01*
X0017400Y0219811D02*
X0045300Y0219811D01*
X0045300Y0221409D02*
X0017400Y0221409D01*
X0017400Y0223008D02*
X0045300Y0223008D01*
X0045300Y0224606D02*
X0017400Y0224606D01*
X0017400Y0226205D02*
X0045300Y0226205D01*
X0045300Y0227803D02*
X0017400Y0227803D01*
X0017400Y0229402D02*
X0045300Y0229402D01*
X0045300Y0231001D02*
X0017400Y0231001D01*
X0017400Y0232599D02*
X0045300Y0232599D01*
X0045300Y0234198D02*
X0017400Y0234198D01*
X0017400Y0235796D02*
X0045300Y0235796D01*
X0045300Y0237395D02*
X0017400Y0237395D01*
X0017400Y0238993D02*
X0045300Y0238993D01*
X0045300Y0240592D02*
X0017400Y0240592D01*
X0017400Y0242190D02*
X0045300Y0242190D01*
X0045300Y0243789D02*
X0017400Y0243789D01*
X0017400Y0245387D02*
X0045300Y0245387D01*
X0045300Y0246986D02*
X0017400Y0246986D01*
X0017400Y0248584D02*
X0045300Y0248584D01*
X0045300Y0250183D02*
X0017400Y0250183D01*
X0017400Y0251781D02*
X0045300Y0251781D01*
X0045300Y0253380D02*
X0017400Y0253380D01*
X0017400Y0254978D02*
X0045300Y0254978D01*
X0045300Y0256577D02*
X0017400Y0256577D01*
X0017400Y0258175D02*
X0046405Y0258175D01*
X0048004Y0259774D02*
X0017400Y0259774D01*
X0017400Y0261372D02*
X0049602Y0261372D01*
X0051201Y0262971D02*
X0017400Y0262971D01*
X0017400Y0264569D02*
X0052799Y0264569D01*
X0054398Y0266168D02*
X0017400Y0266168D01*
X0017447Y0267766D02*
X0055996Y0267766D01*
X0057595Y0269365D02*
X0017552Y0269365D01*
X0017870Y0270963D02*
X0029461Y0270963D01*
X0027863Y0272562D02*
X0018188Y0272562D01*
X0018566Y0274160D02*
X0026264Y0274160D01*
X0024666Y0275759D02*
X0019228Y0275759D01*
X0019890Y0277357D02*
X0023594Y0277357D01*
X0023594Y0278956D02*
X0020718Y0278956D01*
X0021786Y0280554D02*
X0023594Y0280554D01*
X0023594Y0282153D02*
X0022854Y0282153D01*
X0038835Y0290145D02*
X0561340Y0290145D01*
X0559741Y0288547D02*
X0040433Y0288547D01*
X0042032Y0286948D02*
X0558143Y0286948D01*
X0556544Y0285350D02*
X0043630Y0285350D01*
X0043786Y0283751D02*
X0555995Y0283751D01*
X0555995Y0282153D02*
X0417717Y0282153D01*
X0419315Y0280554D02*
X0494163Y0280554D01*
X0493082Y0278956D02*
X0420914Y0278956D01*
X0422512Y0277357D02*
X0492900Y0277357D01*
X0493450Y0275759D02*
X0424111Y0275759D01*
X0425710Y0274160D02*
X0497170Y0274160D01*
X0498768Y0272562D02*
X0427308Y0272562D01*
X0428907Y0270963D02*
X0476472Y0270963D01*
X0487728Y0270963D02*
X0500100Y0270963D01*
X0500315Y0269365D02*
X0488400Y0269365D01*
X0501511Y0275759D02*
X0556673Y0275759D01*
X0555995Y0277357D02*
X0500100Y0277357D01*
X0499918Y0278956D02*
X0555995Y0278956D01*
X0555995Y0280554D02*
X0498837Y0280554D01*
X0504512Y0274160D02*
X0558272Y0274160D01*
X0559870Y0272562D02*
X0506784Y0272562D01*
X0507300Y0270963D02*
X0513372Y0270963D01*
X0519228Y0270963D02*
X0561469Y0270963D01*
X0570714Y0270963D02*
X0580730Y0270963D01*
X0581048Y0269365D02*
X0519900Y0269365D01*
X0519768Y0267766D02*
X0529396Y0267766D01*
X0527798Y0266168D02*
X0521902Y0266168D01*
X0523501Y0264569D02*
X0526199Y0264569D01*
X0545504Y0267766D02*
X0581153Y0267766D01*
X0581200Y0266168D02*
X0547102Y0266168D01*
X0548701Y0264569D02*
X0581200Y0264569D01*
X0581200Y0262971D02*
X0550299Y0262971D01*
X0551898Y0261372D02*
X0581200Y0261372D01*
X0581200Y0259774D02*
X0554880Y0259774D01*
X0557178Y0258175D02*
X0581200Y0258175D01*
X0581200Y0256577D02*
X0557700Y0256577D01*
X0557491Y0254978D02*
X0581200Y0254978D01*
X0581200Y0253380D02*
X0556371Y0253380D01*
X0554400Y0251781D02*
X0581200Y0251781D01*
X0581200Y0250183D02*
X0554400Y0250183D01*
X0554400Y0248584D02*
X0581200Y0248584D01*
X0581200Y0246986D02*
X0554400Y0246986D01*
X0554400Y0245387D02*
X0581200Y0245387D01*
X0581200Y0243789D02*
X0554400Y0243789D01*
X0554400Y0242190D02*
X0581200Y0242190D01*
X0581200Y0240592D02*
X0554400Y0240592D01*
X0554400Y0238993D02*
X0581200Y0238993D01*
X0581200Y0237395D02*
X0554400Y0237395D01*
X0552866Y0235796D02*
X0581200Y0235796D01*
X0581200Y0234198D02*
X0551267Y0234198D01*
X0549669Y0232599D02*
X0581200Y0232599D01*
X0581200Y0231001D02*
X0548070Y0231001D01*
X0546472Y0229402D02*
X0581200Y0229402D01*
X0581200Y0227803D02*
X0544873Y0227803D01*
X0543275Y0226205D02*
X0581200Y0226205D01*
X0581200Y0224606D02*
X0541676Y0224606D01*
X0535578Y0223008D02*
X0581200Y0223008D01*
X0581200Y0221409D02*
X0533979Y0221409D01*
X0532381Y0219811D02*
X0581200Y0219811D01*
X0581200Y0218212D02*
X0530782Y0218212D01*
X0529184Y0216614D02*
X0581200Y0216614D01*
X0581200Y0215015D02*
X0527585Y0215015D01*
X0525987Y0213417D02*
X0581200Y0213417D01*
X0581200Y0211818D02*
X0524388Y0211818D01*
X0522790Y0210220D02*
X0581200Y0210220D01*
X0581200Y0208621D02*
X0521191Y0208621D01*
X0519593Y0207023D02*
X0581200Y0207023D01*
X0581200Y0205424D02*
X0517994Y0205424D01*
X0516396Y0203826D02*
X0581200Y0203826D01*
X0581200Y0202227D02*
X0514797Y0202227D01*
X0513199Y0200629D02*
X0581200Y0200629D01*
X0581200Y0199030D02*
X0511600Y0199030D01*
X0510002Y0197432D02*
X0581200Y0197432D01*
X0581200Y0195833D02*
X0508403Y0195833D01*
X0506805Y0194235D02*
X0581200Y0194235D01*
X0581200Y0192636D02*
X0513855Y0192636D01*
X0514500Y0191038D02*
X0581200Y0191038D01*
X0581200Y0189439D02*
X0514357Y0189439D01*
X0513332Y0187841D02*
X0581200Y0187841D01*
X0581200Y0186242D02*
X0509612Y0186242D01*
X0508014Y0184644D02*
X0581200Y0184644D01*
X0581200Y0183045D02*
X0506415Y0183045D01*
X0504816Y0181447D02*
X0581200Y0181447D01*
X0581200Y0179848D02*
X0503218Y0179848D01*
X0501619Y0178250D02*
X0581200Y0178250D01*
X0581200Y0176651D02*
X0500021Y0176651D01*
X0498422Y0175053D02*
X0581200Y0175053D01*
X0581200Y0173454D02*
X0496824Y0173454D01*
X0495225Y0171856D02*
X0581200Y0171856D01*
X0581200Y0170257D02*
X0493627Y0170257D01*
X0492028Y0168659D02*
X0581200Y0168659D01*
X0581200Y0167060D02*
X0490430Y0167060D01*
X0488831Y0165462D02*
X0581200Y0165462D01*
X0581200Y0163863D02*
X0487233Y0163863D01*
X0485634Y0162265D02*
X0581200Y0162265D01*
X0581200Y0160666D02*
X0484036Y0160666D01*
X0482437Y0159068D02*
X0581200Y0159068D01*
X0581200Y0157469D02*
X0480839Y0157469D01*
X0479240Y0155870D02*
X0581200Y0155870D01*
X0581200Y0154272D02*
X0477642Y0154272D01*
X0476043Y0152673D02*
X0581200Y0152673D01*
X0581200Y0151075D02*
X0474445Y0151075D01*
X0472846Y0149476D02*
X0581200Y0149476D01*
X0581200Y0147878D02*
X0471248Y0147878D01*
X0469649Y0146279D02*
X0581200Y0146279D01*
X0581200Y0144681D02*
X0468051Y0144681D01*
X0466452Y0143082D02*
X0581200Y0143082D01*
X0581200Y0141484D02*
X0464854Y0141484D01*
X0463255Y0139885D02*
X0581200Y0139885D01*
X0581200Y0138287D02*
X0461657Y0138287D01*
X0460058Y0136688D02*
X0581200Y0136688D01*
X0581200Y0135090D02*
X0458460Y0135090D01*
X0456861Y0133491D02*
X0581200Y0133491D01*
X0581200Y0131893D02*
X0455263Y0131893D01*
X0453664Y0130294D02*
X0581200Y0130294D01*
X0581200Y0128696D02*
X0452066Y0128696D01*
X0450467Y0127097D02*
X0581200Y0127097D01*
X0581200Y0125499D02*
X0448869Y0125499D01*
X0447270Y0123900D02*
X0581200Y0123900D01*
X0581200Y0122302D02*
X0447389Y0122302D01*
X0448557Y0120703D02*
X0581200Y0120703D01*
X0581200Y0119105D02*
X0448800Y0119105D01*
X0448312Y0117506D02*
X0581200Y0117506D01*
X0581200Y0115908D02*
X0446176Y0115908D01*
X0443079Y0114309D02*
X0581200Y0114309D01*
X0581200Y0112711D02*
X0394559Y0112711D01*
X0396158Y0111112D02*
X0581200Y0111112D01*
X0581200Y0109514D02*
X0397756Y0109514D01*
X0358770Y0100200D02*
X0482280Y0100200D01*
X0482053Y0099972D01*
X0481200Y0097914D01*
X0481200Y0046800D01*
X0481162Y0046226D01*
X0480865Y0045116D01*
X0480291Y0044121D01*
X0479479Y0043309D01*
X0478484Y0042735D01*
X0477374Y0042438D01*
X0476800Y0042400D01*
X0470686Y0042400D01*
X0468628Y0041547D01*
X0467053Y0039972D01*
X0466200Y0037914D01*
X0466200Y0014746D01*
X0466829Y0012400D01*
X0205270Y0012400D01*
X0206100Y0013230D01*
X0244470Y0051600D01*
X0248709Y0051600D01*
X0249661Y0050648D01*
X0250984Y0050100D01*
X0252416Y0050100D01*
X0253739Y0050648D01*
X0254752Y0051661D01*
X0255300Y0052984D01*
X0255300Y0054416D01*
X0254975Y0055200D01*
X0262825Y0055200D01*
X0262500Y0054416D01*
X0262500Y0052984D01*
X0262592Y0052762D01*
X0261361Y0052252D01*
X0260348Y0051239D01*
X0259800Y0049916D01*
X0259800Y0049470D01*
X0231630Y0021300D01*
X0230284Y0021300D01*
X0228961Y0020752D01*
X0227948Y0019739D01*
X0227400Y0018416D01*
X0227400Y0016984D01*
X0227948Y0015661D01*
X0228961Y0014648D01*
X0230284Y0014100D01*
X0231716Y0014100D01*
X0233039Y0014648D01*
X0234052Y0015661D01*
X0234600Y0016984D01*
X0234600Y0018330D01*
X0262108Y0045838D01*
X0262684Y0045600D01*
X0264116Y0045600D01*
X0265439Y0046148D01*
X0266452Y0047161D01*
X0267000Y0048484D01*
X0267000Y0049830D01*
X0274800Y0042030D01*
X0274800Y0035991D01*
X0273848Y0035039D01*
X0273300Y0033716D01*
X0273300Y0032284D01*
X0273848Y0030961D01*
X0274861Y0029948D01*
X0276184Y0029400D01*
X0277616Y0029400D01*
X0278939Y0029948D01*
X0279952Y0030961D01*
X0280500Y0032284D01*
X0280500Y0033716D01*
X0279952Y0035039D01*
X0279000Y0035991D01*
X0279000Y0043770D01*
X0269700Y0053070D01*
X0269700Y0053400D01*
X0276609Y0053400D01*
X0277561Y0052448D01*
X0278884Y0051900D01*
X0280316Y0051900D01*
X0281639Y0052448D01*
X0282652Y0053461D01*
X0283067Y0054463D01*
X0283230Y0054300D01*
X0337170Y0054300D01*
X0338400Y0055530D01*
X0343470Y0060600D01*
X0429294Y0060600D01*
X0429294Y0048066D01*
X0430232Y0047129D01*
X0460297Y0047129D01*
X0461235Y0048066D01*
X0461235Y0078132D01*
X0460297Y0079069D01*
X0430232Y0079069D01*
X0429294Y0078132D01*
X0429294Y0064800D01*
X0342270Y0064800D01*
X0350670Y0073200D01*
X0407109Y0073200D01*
X0408061Y0072248D01*
X0409384Y0071700D01*
X0410100Y0071700D01*
X0410100Y0070984D01*
X0410648Y0069661D01*
X0411661Y0068648D01*
X0412984Y0068100D01*
X0414416Y0068100D01*
X0415739Y0068648D01*
X0416752Y0069661D01*
X0417300Y0070984D01*
X0417300Y0072416D01*
X0416752Y0073739D01*
X0415800Y0074691D01*
X0415800Y0077970D01*
X0412770Y0081000D01*
X0348030Y0081000D01*
X0337230Y0070200D01*
X0328775Y0070200D01*
X0329100Y0070984D01*
X0329100Y0072330D01*
X0340170Y0083400D01*
X0341516Y0083400D01*
X0342839Y0083948D01*
X0343852Y0084961D01*
X0344400Y0086284D01*
X0344400Y0087716D01*
X0343852Y0089039D01*
X0342839Y0090052D01*
X0341516Y0090600D01*
X0340084Y0090600D01*
X0338761Y0090052D01*
X0337748Y0089039D01*
X0337200Y0087716D01*
X0337200Y0086370D01*
X0326130Y0075300D01*
X0324784Y0075300D01*
X0324000Y0074975D01*
X0324000Y0082825D01*
X0324784Y0082500D01*
X0326216Y0082500D01*
X0327539Y0083048D01*
X0328552Y0084061D01*
X0329100Y0085384D01*
X0329100Y0086816D01*
X0328552Y0088139D01*
X0328180Y0088511D01*
X0340770Y0101100D01*
X0342000Y0102330D01*
X0342000Y0109044D01*
X0342556Y0108761D01*
X0343274Y0108528D01*
X0344021Y0108409D01*
X0344198Y0108409D01*
X0344198Y0116009D01*
X0344598Y0116009D01*
X0344598Y0108409D01*
X0344776Y0108409D01*
X0345522Y0108528D01*
X0346241Y0108761D01*
X0346914Y0109104D01*
X0347525Y0109548D01*
X0348060Y0110082D01*
X0348504Y0110694D01*
X0348847Y0111367D01*
X0349080Y0112085D01*
X0349198Y0112832D01*
X0349198Y0116009D01*
X0344598Y0116009D01*
X0344598Y0116409D01*
X0344598Y0116410D02*
X0344198Y0116410D01*
X0344198Y0124009D01*
X0344021Y0124009D01*
X0343274Y0123891D01*
X0342556Y0123658D01*
X0342000Y0123375D01*
X0342000Y0130809D01*
X0342952Y0131761D01*
X0343367Y0132763D01*
X0352200Y0123930D01*
X0352200Y0123278D01*
X0351793Y0123109D01*
X0350499Y0121815D01*
X0349798Y0120124D01*
X0349798Y0112294D01*
X0350499Y0110604D01*
X0351793Y0109310D01*
X0353483Y0108609D01*
X0354000Y0108609D01*
X0354000Y0103230D01*
X0354930Y0102300D01*
X0353130Y0100500D01*
X0351784Y0100500D01*
X0350461Y0099952D01*
X0349448Y0098939D01*
X0348900Y0097616D01*
X0348900Y0096184D01*
X0349448Y0094861D01*
X0350461Y0093848D01*
X0351784Y0093300D01*
X0353216Y0093300D01*
X0354539Y0093848D01*
X0355552Y0094861D01*
X0356100Y0096184D01*
X0356100Y0097530D01*
X0358770Y0100200D01*
X0358492Y0099923D02*
X0482032Y0099923D01*
X0481370Y0098324D02*
X0356894Y0098324D01*
X0356100Y0096726D02*
X0481200Y0096726D01*
X0481200Y0095127D02*
X0355662Y0095127D01*
X0353768Y0093529D02*
X0481200Y0093529D01*
X0481200Y0091930D02*
X0331600Y0091930D01*
X0333198Y0093529D02*
X0351232Y0093529D01*
X0349338Y0095127D02*
X0334797Y0095127D01*
X0336395Y0096726D02*
X0348900Y0096726D01*
X0349193Y0098324D02*
X0337994Y0098324D01*
X0339592Y0099923D02*
X0350431Y0099923D01*
X0354151Y0101521D02*
X0341191Y0101521D01*
X0342000Y0103120D02*
X0354111Y0103120D01*
X0354000Y0104718D02*
X0342000Y0104718D01*
X0342000Y0106317D02*
X0354000Y0106317D01*
X0354000Y0107915D02*
X0342000Y0107915D01*
X0344198Y0109514D02*
X0344598Y0109514D01*
X0344598Y0111112D02*
X0344198Y0111112D01*
X0344198Y0112711D02*
X0344598Y0112711D01*
X0344598Y0114309D02*
X0344198Y0114309D01*
X0344198Y0115908D02*
X0344598Y0115908D01*
X0344598Y0116409D02*
X0349198Y0116409D01*
X0349198Y0119587D01*
X0349080Y0120333D01*
X0348847Y0121052D01*
X0348504Y0121725D01*
X0348060Y0122336D01*
X0347525Y0122871D01*
X0346914Y0123315D01*
X0346241Y0123658D01*
X0345522Y0123891D01*
X0344776Y0124009D01*
X0344598Y0124009D01*
X0344598Y0116410D01*
X0344598Y0117506D02*
X0344198Y0117506D01*
X0344198Y0119105D02*
X0344598Y0119105D01*
X0344598Y0120703D02*
X0344198Y0120703D01*
X0344198Y0122302D02*
X0344598Y0122302D01*
X0344598Y0123900D02*
X0344198Y0123900D01*
X0343331Y0123900D02*
X0342000Y0123900D01*
X0342000Y0125499D02*
X0350631Y0125499D01*
X0352200Y0123900D02*
X0345466Y0123900D01*
X0348085Y0122302D02*
X0350985Y0122302D01*
X0350038Y0120703D02*
X0348960Y0120703D01*
X0349198Y0119105D02*
X0349798Y0119105D01*
X0349798Y0117506D02*
X0349198Y0117506D01*
X0349198Y0115908D02*
X0349798Y0115908D01*
X0349798Y0114309D02*
X0349198Y0114309D01*
X0349179Y0112711D02*
X0349798Y0112711D01*
X0350288Y0111112D02*
X0348717Y0111112D01*
X0347478Y0109514D02*
X0351589Y0109514D01*
X0337800Y0109514D02*
X0337208Y0109514D01*
X0337004Y0109310D02*
X0337800Y0110106D01*
X0337800Y0104070D01*
X0333000Y0099270D01*
X0333000Y0101370D01*
X0325764Y0108606D01*
X0326241Y0108761D01*
X0326914Y0109104D01*
X0327525Y0109548D01*
X0328060Y0110082D01*
X0328504Y0110694D01*
X0328847Y0111367D01*
X0329080Y0112085D01*
X0329198Y0112832D01*
X0329198Y0116009D01*
X0324598Y0116009D01*
X0324598Y0116409D01*
X0324598Y0116410D02*
X0324198Y0116410D01*
X0324198Y0124009D01*
X0324021Y0124009D01*
X0323274Y0123891D01*
X0322556Y0123658D01*
X0321883Y0123315D01*
X0321271Y0122871D01*
X0320885Y0122485D01*
X0311958Y0131412D01*
X0314046Y0133500D01*
X0336300Y0133500D01*
X0336300Y0133084D01*
X0336848Y0131761D01*
X0337800Y0130809D01*
X0337800Y0122313D01*
X0337004Y0123109D01*
X0335313Y0123809D01*
X0333483Y0123809D01*
X0331793Y0123109D01*
X0330499Y0121815D01*
X0329798Y0120124D01*
X0329798Y0112294D01*
X0330499Y0110604D01*
X0331793Y0109310D01*
X0333483Y0108609D01*
X0335313Y0108609D01*
X0337004Y0109310D01*
X0337800Y0107915D02*
X0326455Y0107915D01*
X0327478Y0109514D02*
X0331589Y0109514D01*
X0330288Y0111112D02*
X0328717Y0111112D01*
X0329179Y0112711D02*
X0329798Y0112711D01*
X0329798Y0114309D02*
X0329198Y0114309D01*
X0329198Y0115908D02*
X0329798Y0115908D01*
X0329198Y0116409D02*
X0329198Y0119587D01*
X0329080Y0120333D01*
X0328847Y0121052D01*
X0328504Y0121725D01*
X0328060Y0122336D01*
X0327525Y0122871D01*
X0326914Y0123315D01*
X0326241Y0123658D01*
X0325522Y0123891D01*
X0324776Y0124009D01*
X0324598Y0124009D01*
X0324598Y0116410D01*
X0324598Y0116409D02*
X0329198Y0116409D01*
X0329198Y0117506D02*
X0329798Y0117506D01*
X0329798Y0119105D02*
X0329198Y0119105D01*
X0328960Y0120703D02*
X0330038Y0120703D01*
X0330985Y0122302D02*
X0328085Y0122302D01*
X0325466Y0123900D02*
X0337800Y0123900D01*
X0337800Y0125499D02*
X0317871Y0125499D01*
X0316273Y0127097D02*
X0337800Y0127097D01*
X0337800Y0128696D02*
X0314674Y0128696D01*
X0313076Y0130294D02*
X0337800Y0130294D01*
X0336793Y0131893D02*
X0312439Y0131893D01*
X0314037Y0133491D02*
X0336300Y0133491D01*
X0342000Y0130294D02*
X0345836Y0130294D01*
X0347434Y0128696D02*
X0342000Y0128696D01*
X0342000Y0127097D02*
X0349033Y0127097D01*
X0344237Y0131893D02*
X0343007Y0131893D01*
X0324598Y0123900D02*
X0324198Y0123900D01*
X0323331Y0123900D02*
X0319470Y0123900D01*
X0324198Y0122302D02*
X0324598Y0122302D01*
X0324598Y0120703D02*
X0324198Y0120703D01*
X0324198Y0119105D02*
X0324598Y0119105D01*
X0324598Y0117506D02*
X0324198Y0117506D01*
X0328053Y0106317D02*
X0337800Y0106317D01*
X0337800Y0104718D02*
X0329652Y0104718D01*
X0331250Y0103120D02*
X0336850Y0103120D01*
X0335251Y0101521D02*
X0332849Y0101521D01*
X0333000Y0099923D02*
X0333653Y0099923D01*
X0330001Y0090332D02*
X0339436Y0090332D01*
X0337621Y0088733D02*
X0328403Y0088733D01*
X0328968Y0087134D02*
X0337200Y0087134D01*
X0336366Y0085536D02*
X0329100Y0085536D01*
X0328429Y0083937D02*
X0334768Y0083937D01*
X0333169Y0082339D02*
X0324000Y0082339D01*
X0324000Y0080740D02*
X0331571Y0080740D01*
X0329972Y0079142D02*
X0324000Y0079142D01*
X0324000Y0077543D02*
X0328374Y0077543D01*
X0326775Y0075945D02*
X0324000Y0075945D01*
X0331116Y0074346D02*
X0341377Y0074346D01*
X0342975Y0075945D02*
X0332715Y0075945D01*
X0334313Y0077543D02*
X0344574Y0077543D01*
X0346172Y0079142D02*
X0335912Y0079142D01*
X0337510Y0080740D02*
X0347771Y0080740D01*
X0342814Y0083937D02*
X0481200Y0083937D01*
X0481200Y0082339D02*
X0339109Y0082339D01*
X0344090Y0085536D02*
X0481200Y0085536D01*
X0481200Y0087134D02*
X0344400Y0087134D01*
X0343979Y0088733D02*
X0481200Y0088733D01*
X0481200Y0090332D02*
X0342164Y0090332D01*
X0339778Y0072748D02*
X0329518Y0072748D01*
X0329100Y0071149D02*
X0338180Y0071149D01*
X0343824Y0066354D02*
X0429294Y0066354D01*
X0429294Y0067952D02*
X0345422Y0067952D01*
X0347021Y0069551D02*
X0410758Y0069551D01*
X0410100Y0071149D02*
X0348619Y0071149D01*
X0350218Y0072748D02*
X0407561Y0072748D01*
X0416145Y0074346D02*
X0429294Y0074346D01*
X0429294Y0072748D02*
X0417163Y0072748D01*
X0417300Y0071149D02*
X0429294Y0071149D01*
X0429294Y0069551D02*
X0416642Y0069551D01*
X0415800Y0075945D02*
X0429294Y0075945D01*
X0429294Y0077543D02*
X0415800Y0077543D01*
X0414628Y0079142D02*
X0481200Y0079142D01*
X0481200Y0080740D02*
X0413029Y0080740D01*
X0429294Y0059960D02*
X0342830Y0059960D01*
X0341231Y0058361D02*
X0429294Y0058361D01*
X0429294Y0056763D02*
X0339633Y0056763D01*
X0338034Y0055164D02*
X0429294Y0055164D01*
X0429294Y0053566D02*
X0282695Y0053566D01*
X0280478Y0051967D02*
X0429294Y0051967D01*
X0429294Y0050369D02*
X0272401Y0050369D01*
X0270803Y0051967D02*
X0278722Y0051967D01*
X0274000Y0048770D02*
X0429294Y0048770D01*
X0430189Y0047172D02*
X0275598Y0047172D01*
X0277197Y0045573D02*
X0480988Y0045573D01*
X0481200Y0047172D02*
X0460340Y0047172D01*
X0461235Y0048770D02*
X0481200Y0048770D01*
X0481200Y0050369D02*
X0461235Y0050369D01*
X0461235Y0051967D02*
X0481200Y0051967D01*
X0481200Y0053566D02*
X0461235Y0053566D01*
X0461235Y0055164D02*
X0481200Y0055164D01*
X0481200Y0056763D02*
X0461235Y0056763D01*
X0461235Y0058361D02*
X0481200Y0058361D01*
X0481200Y0059960D02*
X0461235Y0059960D01*
X0461235Y0061558D02*
X0481200Y0061558D01*
X0481200Y0063157D02*
X0461235Y0063157D01*
X0461235Y0064755D02*
X0481200Y0064755D01*
X0481200Y0066354D02*
X0461235Y0066354D01*
X0461235Y0067952D02*
X0481200Y0067952D01*
X0481200Y0069551D02*
X0461235Y0069551D01*
X0461235Y0071149D02*
X0481200Y0071149D01*
X0481200Y0072748D02*
X0461235Y0072748D01*
X0461235Y0074346D02*
X0481200Y0074346D01*
X0481200Y0075945D02*
X0461235Y0075945D01*
X0461235Y0077543D02*
X0481200Y0077543D01*
X0504900Y0077543D02*
X0511200Y0077543D01*
X0511200Y0075945D02*
X0504900Y0075945D01*
X0504900Y0074346D02*
X0511200Y0074346D01*
X0511200Y0072748D02*
X0504900Y0072748D01*
X0504900Y0071149D02*
X0511200Y0071149D01*
X0511200Y0069551D02*
X0504900Y0069551D01*
X0504900Y0067952D02*
X0511200Y0067952D01*
X0511200Y0066354D02*
X0504900Y0066354D01*
X0504900Y0064755D02*
X0511200Y0064755D01*
X0511200Y0063157D02*
X0504900Y0063157D01*
X0504900Y0061558D02*
X0511200Y0061558D01*
X0511200Y0059960D02*
X0504900Y0059960D01*
X0504900Y0058361D02*
X0511200Y0058361D01*
X0511200Y0056763D02*
X0504900Y0056763D01*
X0504900Y0055164D02*
X0511200Y0055164D01*
X0511200Y0053566D02*
X0504900Y0053566D01*
X0504900Y0051967D02*
X0511200Y0051967D01*
X0511200Y0050369D02*
X0504900Y0050369D01*
X0504900Y0048770D02*
X0511200Y0048770D01*
X0511200Y0047172D02*
X0505998Y0047172D01*
X0507597Y0045573D02*
X0511200Y0045573D01*
X0511200Y0043975D02*
X0509195Y0043975D01*
X0510794Y0042376D02*
X0511200Y0042376D01*
X0532400Y0043975D02*
X0581200Y0043975D01*
X0581200Y0045573D02*
X0532400Y0045573D01*
X0532400Y0047172D02*
X0581200Y0047172D01*
X0581200Y0048770D02*
X0532400Y0048770D01*
X0532400Y0050369D02*
X0581200Y0050369D01*
X0581200Y0051967D02*
X0532400Y0051967D01*
X0532400Y0053566D02*
X0581200Y0053566D01*
X0581200Y0055164D02*
X0532400Y0055164D01*
X0532400Y0056763D02*
X0581200Y0056763D01*
X0581200Y0058361D02*
X0532400Y0058361D01*
X0532400Y0059960D02*
X0581200Y0059960D01*
X0581200Y0061558D02*
X0532400Y0061558D01*
X0532400Y0063157D02*
X0581200Y0063157D01*
X0581200Y0064755D02*
X0532400Y0064755D01*
X0532400Y0066354D02*
X0581200Y0066354D01*
X0581200Y0067952D02*
X0532400Y0067952D01*
X0532400Y0069551D02*
X0581200Y0069551D01*
X0581200Y0071149D02*
X0532400Y0071149D01*
X0532400Y0072748D02*
X0581200Y0072748D01*
X0581200Y0074346D02*
X0532400Y0074346D01*
X0532400Y0075945D02*
X0581200Y0075945D01*
X0581200Y0077543D02*
X0532400Y0077543D01*
X0532400Y0079142D02*
X0581200Y0079142D01*
X0581200Y0080740D02*
X0532400Y0080740D01*
X0532400Y0082339D02*
X0581200Y0082339D01*
X0581200Y0083937D02*
X0532400Y0083937D01*
X0532400Y0085536D02*
X0581200Y0085536D01*
X0581200Y0087134D02*
X0532400Y0087134D01*
X0532400Y0088733D02*
X0581200Y0088733D01*
X0581200Y0090332D02*
X0532400Y0090332D01*
X0532400Y0091930D02*
X0581200Y0091930D01*
X0581200Y0093529D02*
X0532400Y0093529D01*
X0532400Y0095127D02*
X0581200Y0095127D01*
X0581200Y0096726D02*
X0532400Y0096726D01*
X0532230Y0098324D02*
X0581200Y0098324D01*
X0581200Y0099923D02*
X0531568Y0099923D01*
X0529998Y0101521D02*
X0581200Y0101521D01*
X0581200Y0103120D02*
X0495950Y0103120D01*
X0497549Y0101521D02*
X0521466Y0101521D01*
X0518329Y0099923D02*
X0499147Y0099923D01*
X0500746Y0098324D02*
X0516262Y0098324D01*
X0514664Y0096726D02*
X0502344Y0096726D01*
X0503943Y0095127D02*
X0513594Y0095127D01*
X0512671Y0093529D02*
X0504900Y0093529D01*
X0504900Y0091930D02*
X0512024Y0091930D01*
X0511596Y0090332D02*
X0504900Y0090332D01*
X0504900Y0088733D02*
X0511200Y0088733D01*
X0511200Y0087134D02*
X0504900Y0087134D01*
X0504900Y0085536D02*
X0511200Y0085536D01*
X0511200Y0083937D02*
X0504900Y0083937D01*
X0504900Y0082339D02*
X0511200Y0082339D01*
X0511200Y0080740D02*
X0504900Y0080740D01*
X0504900Y0079142D02*
X0511200Y0079142D01*
X0490007Y0104718D02*
X0581200Y0104718D01*
X0581200Y0106317D02*
X0490200Y0106317D01*
X0489662Y0107915D02*
X0581200Y0107915D01*
X0480144Y0043975D02*
X0278795Y0043975D01*
X0279000Y0042376D02*
X0470629Y0042376D01*
X0467858Y0040778D02*
X0279000Y0040778D01*
X0279000Y0039179D02*
X0466724Y0039179D01*
X0466200Y0037581D02*
X0279000Y0037581D01*
X0279009Y0035982D02*
X0466200Y0035982D01*
X0466200Y0034384D02*
X0280223Y0034384D01*
X0280500Y0032785D02*
X0466200Y0032785D01*
X0466200Y0031187D02*
X0280045Y0031187D01*
X0278070Y0029588D02*
X0466200Y0029588D01*
X0466200Y0027990D02*
X0244259Y0027990D01*
X0245858Y0029588D02*
X0275730Y0029588D01*
X0273755Y0031187D02*
X0247456Y0031187D01*
X0249055Y0032785D02*
X0273300Y0032785D01*
X0273577Y0034384D02*
X0250653Y0034384D01*
X0252252Y0035982D02*
X0274791Y0035982D01*
X0274800Y0037581D02*
X0253850Y0037581D01*
X0255449Y0039179D02*
X0274800Y0039179D01*
X0274800Y0040778D02*
X0257048Y0040778D01*
X0258646Y0042376D02*
X0274454Y0042376D01*
X0272855Y0043975D02*
X0260245Y0043975D01*
X0261843Y0045573D02*
X0271257Y0045573D01*
X0269658Y0047172D02*
X0266456Y0047172D01*
X0267000Y0048770D02*
X0268060Y0048770D01*
X0262500Y0053566D02*
X0255300Y0053566D01*
X0254990Y0055164D02*
X0262810Y0055164D01*
X0261076Y0051967D02*
X0254879Y0051967D01*
X0253065Y0050369D02*
X0259987Y0050369D01*
X0259100Y0048770D02*
X0241640Y0048770D01*
X0240042Y0047172D02*
X0257502Y0047172D01*
X0255903Y0045573D02*
X0238443Y0045573D01*
X0236845Y0043975D02*
X0254305Y0043975D01*
X0252706Y0042376D02*
X0235246Y0042376D01*
X0233648Y0040778D02*
X0251108Y0040778D01*
X0249509Y0039179D02*
X0232049Y0039179D01*
X0230450Y0037581D02*
X0247911Y0037581D01*
X0246312Y0035982D02*
X0228852Y0035982D01*
X0227253Y0034384D02*
X0244714Y0034384D01*
X0243115Y0032785D02*
X0225655Y0032785D01*
X0224056Y0031187D02*
X0241517Y0031187D01*
X0239918Y0029588D02*
X0222458Y0029588D01*
X0220859Y0027990D02*
X0238320Y0027990D01*
X0236721Y0026391D02*
X0219261Y0026391D01*
X0217662Y0024793D02*
X0235123Y0024793D01*
X0233524Y0023194D02*
X0216064Y0023194D01*
X0214465Y0021596D02*
X0231926Y0021596D01*
X0228206Y0019997D02*
X0212867Y0019997D01*
X0211268Y0018399D02*
X0227400Y0018399D01*
X0227476Y0016800D02*
X0209670Y0016800D01*
X0208071Y0015201D02*
X0228407Y0015201D01*
X0233593Y0015201D02*
X0466200Y0015201D01*
X0466200Y0016800D02*
X0234524Y0016800D01*
X0234668Y0018399D02*
X0466200Y0018399D01*
X0466200Y0019997D02*
X0236267Y0019997D01*
X0237865Y0021596D02*
X0466200Y0021596D01*
X0466200Y0023194D02*
X0239464Y0023194D01*
X0241062Y0024793D02*
X0466200Y0024793D01*
X0466200Y0026391D02*
X0242661Y0026391D01*
X0206473Y0013603D02*
X0466506Y0013603D01*
X0547094Y0013603D02*
X0564251Y0013603D01*
X0561735Y0016800D02*
X0547400Y0016800D01*
X0547400Y0015201D02*
X0568110Y0015201D01*
X0560136Y0018399D02*
X0547400Y0018399D01*
X0547400Y0019997D02*
X0558538Y0019997D01*
X0556980Y0021596D02*
X0547400Y0021596D01*
X0547400Y0023194D02*
X0556980Y0023194D01*
X0556980Y0024793D02*
X0547400Y0024793D01*
X0547400Y0026391D02*
X0556980Y0026391D01*
X0556980Y0027990D02*
X0547400Y0027990D01*
X0547400Y0029588D02*
X0556980Y0029588D01*
X0558247Y0031187D02*
X0547400Y0031187D01*
X0547400Y0032785D02*
X0559846Y0032785D01*
X0561444Y0034384D02*
X0547400Y0034384D01*
X0547400Y0035982D02*
X0581160Y0035982D01*
X0581200Y0037581D02*
X0547400Y0037581D01*
X0546876Y0039179D02*
X0581200Y0039179D01*
X0581200Y0040778D02*
X0545742Y0040778D01*
X0542971Y0042376D02*
X0581200Y0042376D01*
X0581078Y0034384D02*
X0572707Y0034384D01*
X0574305Y0032785D02*
X0580760Y0032785D01*
X0580442Y0031187D02*
X0575904Y0031187D01*
X0577172Y0029588D02*
X0580096Y0029588D01*
X0579434Y0027990D02*
X0577172Y0027990D01*
X0577172Y0026391D02*
X0578772Y0026391D01*
X0577981Y0024793D02*
X0577172Y0024793D01*
X0250335Y0050369D02*
X0243239Y0050369D01*
X0132600Y0104391D02*
X0132300Y0104091D01*
X0132300Y0165270D01*
X0084300Y0213270D01*
X0084300Y0214616D01*
X0083975Y0215400D01*
X0155370Y0215400D01*
X0172770Y0232800D01*
X0174116Y0232800D01*
X0175439Y0233348D01*
X0176391Y0234300D01*
X0202200Y0234300D01*
X0202200Y0233884D01*
X0202748Y0232561D01*
X0203761Y0231548D01*
X0205084Y0231000D01*
X0206430Y0231000D01*
X0222600Y0214830D01*
X0222600Y0193491D01*
X0221648Y0192539D01*
X0221233Y0191537D01*
X0210600Y0202170D01*
X0209370Y0203400D01*
X0111591Y0203400D01*
X0110639Y0204352D01*
X0109316Y0204900D01*
X0107884Y0204900D01*
X0106561Y0204352D01*
X0105548Y0203339D01*
X0105000Y0202016D01*
X0105000Y0200584D01*
X0105548Y0199261D01*
X0106561Y0198248D01*
X0107884Y0197700D01*
X0109316Y0197700D01*
X0110639Y0198248D01*
X0111591Y0199200D01*
X0193329Y0199200D01*
X0192694Y0198739D01*
X0192066Y0198111D01*
X0191544Y0197393D01*
X0191141Y0196602D01*
X0190867Y0195758D01*
X0190734Y0194917D01*
X0195887Y0194917D01*
X0195887Y0193958D01*
X0190734Y0193958D01*
X0190867Y0193117D01*
X0191141Y0192273D01*
X0191544Y0191483D01*
X0192066Y0190765D01*
X0192694Y0190137D01*
X0193412Y0189615D01*
X0194202Y0189212D01*
X0195047Y0188938D01*
X0195887Y0188805D01*
X0195887Y0193958D01*
X0196846Y0193958D01*
X0196846Y0188805D01*
X0197687Y0188938D01*
X0198531Y0189212D01*
X0199322Y0189615D01*
X0200040Y0190137D01*
X0200668Y0190765D01*
X0201189Y0191483D01*
X0201592Y0192273D01*
X0201867Y0193117D01*
X0202000Y0193958D01*
X0196847Y0193958D01*
X0196847Y0194917D01*
X0202000Y0194917D01*
X0201867Y0195758D01*
X0201592Y0196602D01*
X0201189Y0197393D01*
X0200668Y0198111D01*
X0200040Y0198739D01*
X0199405Y0199200D01*
X0207630Y0199200D01*
X0218263Y0188567D01*
X0217261Y0188152D01*
X0216309Y0187200D01*
X0183330Y0187200D01*
X0182100Y0185970D01*
X0132600Y0136470D01*
X0132600Y0104391D01*
X0132600Y0104718D02*
X0132300Y0104718D01*
X0132300Y0106317D02*
X0132600Y0106317D01*
X0132600Y0107915D02*
X0132300Y0107915D01*
X0132300Y0109514D02*
X0132600Y0109514D01*
X0132600Y0111112D02*
X0132300Y0111112D01*
X0132300Y0112711D02*
X0132600Y0112711D01*
X0132600Y0114309D02*
X0132300Y0114309D01*
X0132300Y0115908D02*
X0132600Y0115908D01*
X0132600Y0117506D02*
X0132300Y0117506D01*
X0132300Y0119105D02*
X0132600Y0119105D01*
X0132600Y0120703D02*
X0132300Y0120703D01*
X0132300Y0122302D02*
X0132600Y0122302D01*
X0132600Y0123900D02*
X0132300Y0123900D01*
X0132300Y0125499D02*
X0132600Y0125499D01*
X0132600Y0127097D02*
X0132300Y0127097D01*
X0132300Y0128696D02*
X0132600Y0128696D01*
X0132600Y0130294D02*
X0132300Y0130294D01*
X0132300Y0131893D02*
X0132600Y0131893D01*
X0132600Y0133491D02*
X0132300Y0133491D01*
X0132300Y0135090D02*
X0132600Y0135090D01*
X0132819Y0136688D02*
X0132300Y0136688D01*
X0132300Y0138287D02*
X0134417Y0138287D01*
X0136016Y0139885D02*
X0132300Y0139885D01*
X0132300Y0141484D02*
X0137614Y0141484D01*
X0139213Y0143082D02*
X0132300Y0143082D01*
X0132300Y0144681D02*
X0140811Y0144681D01*
X0142410Y0146279D02*
X0132300Y0146279D01*
X0132300Y0147878D02*
X0144008Y0147878D01*
X0145607Y0149476D02*
X0132300Y0149476D01*
X0132300Y0151075D02*
X0147205Y0151075D01*
X0148804Y0152673D02*
X0132300Y0152673D01*
X0132300Y0154272D02*
X0150402Y0154272D01*
X0152001Y0155870D02*
X0132300Y0155870D01*
X0132300Y0157469D02*
X0153599Y0157469D01*
X0155198Y0159068D02*
X0132300Y0159068D01*
X0132300Y0160666D02*
X0156796Y0160666D01*
X0158395Y0162265D02*
X0132300Y0162265D01*
X0132300Y0163863D02*
X0159993Y0163863D01*
X0161592Y0165462D02*
X0132108Y0165462D01*
X0130510Y0167060D02*
X0163190Y0167060D01*
X0164789Y0168659D02*
X0128911Y0168659D01*
X0127313Y0170257D02*
X0166387Y0170257D01*
X0167986Y0171856D02*
X0125714Y0171856D01*
X0124116Y0173454D02*
X0169584Y0173454D01*
X0171183Y0175053D02*
X0122517Y0175053D01*
X0120919Y0176651D02*
X0172781Y0176651D01*
X0174380Y0178250D02*
X0119320Y0178250D01*
X0117722Y0179848D02*
X0175978Y0179848D01*
X0177577Y0181447D02*
X0116123Y0181447D01*
X0114525Y0183045D02*
X0179175Y0183045D01*
X0180774Y0184644D02*
X0112926Y0184644D01*
X0111328Y0186242D02*
X0182372Y0186242D01*
X0191868Y0191038D02*
X0106532Y0191038D01*
X0104934Y0192636D02*
X0191024Y0192636D01*
X0190892Y0195833D02*
X0101737Y0195833D01*
X0103335Y0194235D02*
X0195887Y0194235D01*
X0196847Y0194235D02*
X0212595Y0194235D01*
X0210997Y0195833D02*
X0201842Y0195833D01*
X0201161Y0197432D02*
X0209398Y0197432D01*
X0207800Y0199030D02*
X0199639Y0199030D01*
X0193095Y0199030D02*
X0111421Y0199030D01*
X0105779Y0199030D02*
X0098540Y0199030D01*
X0100138Y0197432D02*
X0191573Y0197432D01*
X0195887Y0192636D02*
X0196846Y0192636D01*
X0196846Y0191038D02*
X0195887Y0191038D01*
X0195887Y0189439D02*
X0196846Y0189439D01*
X0198977Y0189439D02*
X0217391Y0189439D01*
X0216950Y0187841D02*
X0109729Y0187841D01*
X0108131Y0189439D02*
X0193757Y0189439D01*
X0200866Y0191038D02*
X0215792Y0191038D01*
X0214194Y0192636D02*
X0201710Y0192636D01*
X0213740Y0199030D02*
X0222600Y0199030D01*
X0222600Y0197432D02*
X0215338Y0197432D01*
X0216937Y0195833D02*
X0222600Y0195833D01*
X0222600Y0194235D02*
X0218535Y0194235D01*
X0220134Y0192636D02*
X0221745Y0192636D01*
X0222600Y0200629D02*
X0212141Y0200629D01*
X0210543Y0202227D02*
X0222600Y0202227D01*
X0222600Y0203826D02*
X0111165Y0203826D01*
X0106035Y0203826D02*
X0093744Y0203826D01*
X0092145Y0205424D02*
X0222600Y0205424D01*
X0222600Y0207023D02*
X0090547Y0207023D01*
X0088948Y0208621D02*
X0222600Y0208621D01*
X0222600Y0210220D02*
X0087350Y0210220D01*
X0085751Y0211818D02*
X0222600Y0211818D01*
X0222600Y0213417D02*
X0084300Y0213417D01*
X0084135Y0215015D02*
X0222415Y0215015D01*
X0220816Y0216614D02*
X0156584Y0216614D01*
X0158182Y0218212D02*
X0219218Y0218212D01*
X0217619Y0219811D02*
X0159781Y0219811D01*
X0161379Y0221409D02*
X0216021Y0221409D01*
X0214422Y0223008D02*
X0162978Y0223008D01*
X0164576Y0224606D02*
X0212824Y0224606D01*
X0211225Y0226205D02*
X0166175Y0226205D01*
X0167773Y0227803D02*
X0209627Y0227803D01*
X0208028Y0229402D02*
X0169372Y0229402D01*
X0170970Y0231001D02*
X0205083Y0231001D01*
X0202732Y0232599D02*
X0172569Y0232599D01*
X0176289Y0234198D02*
X0202200Y0234198D01*
X0105087Y0202227D02*
X0095343Y0202227D01*
X0096941Y0200629D02*
X0105000Y0200629D01*
X0066085Y0149476D02*
X0017400Y0149476D01*
X0017400Y0147878D02*
X0065400Y0147878D01*
X0071100Y0117506D02*
X0091200Y0117506D01*
X0091200Y0115908D02*
X0071100Y0115908D01*
X0071100Y0114309D02*
X0091200Y0114309D01*
X0091200Y0112711D02*
X0071100Y0112711D01*
X0071100Y0111112D02*
X0091200Y0111112D01*
X0091200Y0109514D02*
X0071100Y0109514D01*
X0071100Y0107915D02*
X0091200Y0107915D01*
X0091200Y0106317D02*
X0071100Y0106317D01*
X0071100Y0104718D02*
X0091200Y0104718D01*
X0091200Y0103120D02*
X0071100Y0103120D01*
X0071100Y0101521D02*
X0091200Y0101521D01*
X0091200Y0099923D02*
X0071100Y0099923D01*
X0071100Y0098324D02*
X0091200Y0098324D01*
X0091200Y0096726D02*
X0071100Y0096726D01*
X0071100Y0095127D02*
X0091200Y0095127D01*
X0091200Y0093529D02*
X0071100Y0093529D01*
X0071100Y0091930D02*
X0091200Y0091930D01*
X0091200Y0090332D02*
X0071100Y0090332D01*
X0071100Y0088733D02*
X0091200Y0088733D01*
X0091200Y0087134D02*
X0071100Y0087134D01*
X0071100Y0085536D02*
X0091200Y0085536D01*
X0091200Y0083937D02*
X0071100Y0083937D01*
X0071100Y0082339D02*
X0091200Y0082339D01*
X0091200Y0080740D02*
X0071100Y0080740D01*
X0071100Y0079142D02*
X0091200Y0079142D01*
X0091200Y0077543D02*
X0071100Y0077543D01*
X0071100Y0075945D02*
X0091200Y0075945D01*
X0091200Y0074346D02*
X0071100Y0074346D01*
X0071100Y0072748D02*
X0091200Y0072748D01*
X0091200Y0071149D02*
X0071100Y0071149D01*
X0071100Y0069551D02*
X0091200Y0069551D01*
X0091200Y0067952D02*
X0071100Y0067952D01*
X0071100Y0066354D02*
X0090171Y0066354D01*
X0089700Y0064755D02*
X0071100Y0064755D01*
X0071100Y0063157D02*
X0089960Y0063157D01*
X0091151Y0061558D02*
X0071100Y0061558D01*
X0071100Y0059960D02*
X0094800Y0059960D01*
X0094800Y0058361D02*
X0071100Y0058361D01*
X0071100Y0056763D02*
X0094800Y0056763D01*
X0094800Y0055164D02*
X0071100Y0055164D01*
X0071100Y0053566D02*
X0094800Y0053566D01*
X0094800Y0051967D02*
X0071100Y0051967D01*
X0071100Y0050369D02*
X0094800Y0050369D01*
X0094800Y0048770D02*
X0093902Y0048770D01*
X0066570Y0042376D02*
X0065770Y0042376D01*
X0065770Y0040778D02*
X0066570Y0040778D01*
X0066570Y0039179D02*
X0065770Y0039179D01*
X0065562Y0037581D02*
X0066778Y0037581D01*
X0067679Y0035982D02*
X0064661Y0035982D01*
X0059098Y0029588D02*
X0055651Y0029588D01*
X0056704Y0027990D02*
X0057988Y0027990D01*
X0057633Y0026391D02*
X0057033Y0026391D01*
X0057033Y0024793D02*
X0057633Y0024793D01*
X0039573Y0031187D02*
X0080444Y0031187D01*
X0077045Y0032785D02*
X0038676Y0032785D01*
X0023476Y0035982D02*
X0017440Y0035982D01*
X0017522Y0034384D02*
X0021877Y0034384D01*
X0020279Y0032785D02*
X0017840Y0032785D01*
X0018158Y0031187D02*
X0019381Y0031187D01*
X0019381Y0029588D02*
X0018504Y0029588D01*
X0019166Y0027990D02*
X0019381Y0027990D01*
X0366789Y0199846D02*
X0366789Y0205346D01*
X0366403Y0205346D01*
X0365540Y0205209D01*
X0364709Y0204939D01*
X0364302Y0204732D01*
X0364500Y0204930D01*
X0364500Y0229525D01*
X0365284Y0229200D01*
X0366630Y0229200D01*
X0369630Y0226200D01*
X0446700Y0226200D01*
X0446700Y0225891D01*
X0445748Y0224939D01*
X0445200Y0223616D01*
X0445200Y0222184D01*
X0445748Y0220861D01*
X0446761Y0219848D01*
X0447763Y0219433D01*
X0446130Y0217800D01*
X0419130Y0217800D01*
X0402189Y0200859D01*
X0402189Y0200860D01*
X0401375Y0202827D01*
X0399870Y0204332D01*
X0397904Y0205146D01*
X0395775Y0205146D01*
X0393809Y0204332D01*
X0392304Y0202827D01*
X0391839Y0201705D01*
X0391375Y0202827D01*
X0389870Y0204332D01*
X0387904Y0205146D01*
X0385775Y0205146D01*
X0383809Y0204332D01*
X0382304Y0202827D01*
X0381839Y0201705D01*
X0381375Y0202827D01*
X0379870Y0204332D01*
X0377904Y0205146D01*
X0375775Y0205146D01*
X0373809Y0204332D01*
X0372304Y0202827D01*
X0371954Y0201982D01*
X0371586Y0202705D01*
X0371073Y0203412D01*
X0370455Y0204029D01*
X0369748Y0204543D01*
X0368970Y0204939D01*
X0368139Y0205209D01*
X0367276Y0205346D01*
X0366889Y0205346D01*
X0366889Y0199846D01*
X0366789Y0199846D01*
X0366789Y0200629D02*
X0366889Y0200629D01*
X0366889Y0202227D02*
X0366789Y0202227D01*
X0366789Y0203826D02*
X0366889Y0203826D01*
X0364500Y0205424D02*
X0406755Y0205424D01*
X0408353Y0207023D02*
X0364500Y0207023D01*
X0364500Y0208621D02*
X0409952Y0208621D01*
X0411550Y0210220D02*
X0364500Y0210220D01*
X0364500Y0211818D02*
X0413149Y0211818D01*
X0414747Y0213417D02*
X0364500Y0213417D01*
X0364500Y0215015D02*
X0416346Y0215015D01*
X0417944Y0216614D02*
X0364500Y0216614D01*
X0364500Y0218212D02*
X0446543Y0218212D01*
X0446850Y0219811D02*
X0364500Y0219811D01*
X0364500Y0221409D02*
X0445521Y0221409D01*
X0445200Y0223008D02*
X0364500Y0223008D01*
X0364500Y0224606D02*
X0445610Y0224606D01*
X0405156Y0203826D02*
X0400376Y0203826D01*
X0401623Y0202227D02*
X0403557Y0202227D01*
X0393303Y0203826D02*
X0390376Y0203826D01*
X0391623Y0202227D02*
X0392056Y0202227D01*
X0383303Y0203826D02*
X0380376Y0203826D01*
X0381623Y0202227D02*
X0382056Y0202227D01*
X0373303Y0203826D02*
X0370658Y0203826D01*
X0371829Y0202227D02*
X0372056Y0202227D01*
X0369625Y0226205D02*
X0364500Y0226205D01*
X0364500Y0227803D02*
X0368027Y0227803D01*
X0364796Y0229402D02*
X0364500Y0229402D01*
X0430505Y0269365D02*
X0432574Y0269365D01*
X0572312Y0272562D02*
X0580412Y0272562D01*
X0580034Y0274160D02*
X0573911Y0274160D01*
X0575509Y0275759D02*
X0579372Y0275759D01*
X0578710Y0277357D02*
X0576187Y0277357D01*
X0576187Y0278956D02*
X0577882Y0278956D01*
X0576814Y0280554D02*
X0576187Y0280554D01*
X0507945Y0192636D02*
X0505206Y0192636D01*
X0503608Y0191038D02*
X0507300Y0191038D01*
X0506869Y0189439D02*
X0504452Y0189439D01*
X0070383Y0282153D02*
X0043786Y0282153D01*
X0043786Y0280554D02*
X0068785Y0280554D01*
X0067186Y0278956D02*
X0043786Y0278956D01*
X0043786Y0277357D02*
X0065588Y0277357D01*
X0063989Y0275759D02*
X0042714Y0275759D01*
X0041115Y0274160D02*
X0062390Y0274160D01*
X0060792Y0272562D02*
X0039517Y0272562D01*
X0037918Y0270963D02*
X0059193Y0270963D01*
D19*
X0033690Y0281013D03*
X0029477Y0027706D03*
X0567076Y0025737D03*
X0566091Y0280619D03*
M02*
