%
M48
M72
T01C0.02400
T02C0.02480
T03C0.03200
T04C0.03346
T05C0.03400
T06C0.04000
T07C0.05118
T08C0.12992
%
T01
X128400Y26700
X93300Y64500
X100500Y93300
X112200Y95100
X130200Y93300
X134700Y101400
X144600Y101400
X154500Y86100
X189600Y113100
X218400Y95100
X231900Y105000
X243600Y105000
X242700Y98700
X250800Y95100
X287700Y111300
X286800Y125700
X274200Y125700
X259800Y132900
X278700Y138300
X287700Y136500
X304800Y141900
X286800Y147300
X281400Y147300
X267000Y157200
X276900Y163500
X301200Y157200
X259800Y148200
X257100Y143700
X304800Y128400
X339900Y133800
X352500Y151800
X350700Y160800
X363300Y157200
X363300Y151800
X417300Y175200
X442500Y212100
X448800Y222900
X474000Y231900
X481200Y233700
X474900Y249000
X479400Y268800
X484800Y268800
X496500Y277800
X503700Y270600
X516300Y268800
X519000Y260700
X554100Y256200
X439800Y260700
X435300Y267000
X413700Y277800
X381300Y245400
X375900Y231900
X366000Y232800
X353400Y229200
X351600Y219300
X357900Y219300
X328200Y231900
X317400Y237300
X299400Y240900
X281400Y240900
X280500Y233700
X306600Y222900
X298500Y217500
X301200Y212100
X250800Y230100
X242700Y224700
X232800Y221100
X223800Y225600
X225600Y231000
X220200Y234600
X205800Y234600
X173400Y236400
X132900Y221100
X111300Y228300
X120300Y231900
X122100Y248100
X113100Y251700
X132000Y260700
X136500Y263400
X121200Y261600
X112200Y270600
X139200Y274200
X164400Y265200
X238200Y252600
X291300Y272400
X323700Y259800
X230100Y190500
X224700Y190500
X219300Y185100
X182400Y177000
X108600Y201300
X80700Y213900
X73500Y221100
X103200Y164400
X93300Y154500
X69000Y147300
X96900Y139200
X100500Y130200
X141900Y137400
X266100Y179700
X378600Y115800
X397500Y118500
X359700Y106800
X352500Y96900
X340800Y87000
X344400Y79800
X325500Y86100
X318300Y86100
X318300Y78900
X325500Y71700
X334500Y60000
X289500Y78000
X273300Y69000
X256200Y72600
X244500Y65400
X227400Y55500
X222000Y55500
X212100Y62700
X235500Y51000
X251700Y53700
X263400Y49200
X266100Y53700
X279600Y55500
X276900Y33000
X231000Y17700
X219300Y34800
X204000Y37500
X327300Y98700
X410100Y75300
X413700Y71700
X486600Y105900
X445200Y119400
X437100Y122100
X501900Y186900
X510900Y190500
X511800Y29400
T02
X528263Y232448
X521998Y235736
X517979Y241558
X517126Y248582
X519635Y255197
X524931Y259889
X531800Y261582
X538669Y259889
X543965Y255197
X546474Y248582
X545621Y241558
X541602Y235736
X535337Y232448
X465621Y241558
X461602Y235736
X455337Y232448
X448263Y232448
X441998Y235736
X437979Y241558
X437126Y248582
X439635Y255197
X444931Y259889
X451800Y261582
X458669Y259889
X463965Y255197
X466474Y248582
X356474Y248582
X355621Y241558
X351602Y235736
X345337Y232448
X338263Y232448
X331998Y235736
X327979Y241558
X327126Y248582
X329635Y255197
X334931Y259889
X341800Y261582
X348669Y259889
X353965Y255197
X276474Y248582
X275621Y241558
X271602Y235736
X265337Y232448
X258263Y232448
X251998Y235736
X247979Y241558
X247126Y248582
X249635Y255197
X254931Y259889
X261800Y261582
X268669Y259889
X273965Y255197
X166474Y248582
X165621Y241558
X161602Y235736
X155337Y232448
X148263Y232448
X141998Y235736
X137979Y241558
X137126Y248582
X139635Y255197
X144931Y259889
X151800Y261582
X158669Y259889
X163965Y255197
X86474Y248582
X85621Y241558
X81602Y235736
X75337Y232448
X68263Y232448
X61998Y235736
X57979Y241558
X57126Y248582
X59635Y255197
X64931Y259889
X71800Y261582
X78669Y259889
X83965Y255197
T03
X199005Y148115
X199005Y136115
X309910Y135304
X359910Y135304
X459713Y187769
X459713Y199769
T04
X30461Y139280
X30461Y124320
T05
X326839Y166796
X336839Y166796
X346839Y166796
X356839Y166796
X366839Y166796
X376839Y166796
X386839Y166796
X396839Y166796
X396839Y199796
X386839Y199796
X376839Y199796
X366839Y199796
X356839Y199796
X346839Y199796
X336839Y199796
X326839Y199796
T06
X52233Y23217
X62233Y23217
X72233Y23217
X82233Y23217
X92233Y23217
X102233Y23217
X91170Y41997
X81170Y41997
X71170Y41997
X61170Y41997
X51170Y41997
X314398Y116209
X324398Y116209
X334398Y116209
X344398Y116209
X354398Y116209
T07
X196367Y115698
X196367Y194438
T08
X33690Y281013
X29477Y27706
X567076Y25737
X566091Y280619
M30
