G75*
%MOIN*%
%OFA0B0*%
%FSLAX25Y25*%
%IPPOS*%
%LPD*%
%AMOC8*
5,1,8,0,0,1.08239X$1,22.5*
%
%ADD10C,0.10800*%
%ADD11C,0.20485*%
%ADD12C,0.08400*%
%ADD13C,0.08477*%
%ADD14C,0.04000*%
%ADD15R,0.29540X0.29540*%
%ADD16OC8,0.06000*%
%ADD17C,0.06800*%
%ADD18C,0.04146*%
%ADD19C,0.04800*%
%ADD20C,0.16611*%
D10*
X0065550Y0237085D03*
X0049802Y0241022D03*
X0043178Y0254083D03*
X0042678Y0271800D03*
X0043178Y0289517D03*
X0049802Y0302578D03*
X0065550Y0306515D03*
X0081298Y0302578D03*
X0086672Y0289517D03*
X0087172Y0271800D03*
X0086672Y0254083D03*
X0081298Y0241022D03*
X0143178Y0254083D03*
X0149802Y0241022D03*
X0165550Y0237085D03*
X0181298Y0241022D03*
X0186672Y0254083D03*
X0187172Y0271800D03*
X0186672Y0289517D03*
X0181298Y0302578D03*
X0165550Y0306515D03*
X0149802Y0302578D03*
X0143178Y0289517D03*
X0142678Y0271800D03*
X0267678Y0271800D03*
X0268178Y0254083D03*
X0274802Y0241022D03*
X0290550Y0237085D03*
X0306298Y0241022D03*
X0311672Y0254083D03*
X0312172Y0271800D03*
X0311672Y0289517D03*
X0306298Y0302578D03*
X0290550Y0306515D03*
X0274802Y0302578D03*
X0268178Y0289517D03*
X0373178Y0289517D03*
X0379802Y0302578D03*
X0395550Y0306515D03*
X0411298Y0302578D03*
X0416672Y0289517D03*
X0417172Y0271800D03*
X0416672Y0254083D03*
X0411298Y0241022D03*
X0395550Y0237085D03*
X0379802Y0241022D03*
X0373178Y0254083D03*
X0372678Y0271800D03*
X0497678Y0271800D03*
X0498178Y0254083D03*
X0504802Y0241022D03*
X0520550Y0237085D03*
X0536298Y0241022D03*
X0541672Y0254083D03*
X0542172Y0271800D03*
X0541672Y0289517D03*
X0536298Y0302578D03*
X0520550Y0306515D03*
X0504802Y0302578D03*
X0498178Y0289517D03*
X0598178Y0289517D03*
X0604802Y0302578D03*
X0620550Y0306515D03*
X0636298Y0302578D03*
X0641672Y0289517D03*
X0642172Y0271800D03*
X0641672Y0254083D03*
X0636298Y0241022D03*
X0620550Y0237085D03*
X0604802Y0241022D03*
X0598178Y0254083D03*
X0597678Y0271800D03*
D11*
X0621800Y0271800D03*
X0521800Y0271800D03*
X0396800Y0271800D03*
X0291800Y0271800D03*
X0166800Y0271800D03*
X0066800Y0271800D03*
D12*
X0386839Y0214796D03*
X0396839Y0214796D03*
X0406839Y0214796D03*
X0416839Y0214796D03*
X0426839Y0214796D03*
X0436839Y0214796D03*
X0446839Y0214796D03*
X0456839Y0214796D03*
X0456839Y0181796D03*
X0446839Y0181796D03*
X0436839Y0181796D03*
X0426839Y0181796D03*
X0416839Y0181796D03*
X0406839Y0181796D03*
X0396839Y0181796D03*
X0386839Y0181796D03*
D13*
X0256367Y0209438D03*
X0256367Y0130698D03*
D14*
X0259005Y0151115D03*
X0259005Y0163115D03*
X0489871Y0109296D03*
X0489871Y0097296D03*
D15*
X0505265Y0078099D03*
X0172981Y0078099D03*
D16*
X0369910Y0150304D03*
X0419910Y0150304D03*
D17*
X0414398Y0134209D02*
X0414398Y0128209D01*
X0404398Y0128209D02*
X0404398Y0134209D01*
X0394398Y0134209D02*
X0394398Y0128209D01*
X0384398Y0128209D02*
X0384398Y0134209D01*
X0374398Y0134209D02*
X0374398Y0128209D01*
X0152233Y0051217D02*
X0152233Y0045217D01*
X0142233Y0045217D02*
X0142233Y0051217D01*
X0132233Y0051217D02*
X0132233Y0045217D01*
X0122233Y0045217D02*
X0122233Y0051217D01*
X0112233Y0051217D02*
X0112233Y0045217D01*
X0102233Y0045217D02*
X0102233Y0051217D01*
X0101170Y0063997D02*
X0101170Y0069997D01*
X0111170Y0069997D02*
X0111170Y0063997D01*
X0121170Y0063997D02*
X0121170Y0069997D01*
X0131170Y0069997D02*
X0131170Y0063997D01*
X0141170Y0063997D02*
X0141170Y0069997D01*
D18*
X0030461Y0139320D03*
X0030461Y0154280D03*
D19*
X0110100Y0127200D03*
X0124500Y0141600D03*
X0159600Y0144300D03*
X0158700Y0153300D03*
X0149700Y0173100D03*
X0200100Y0173100D03*
X0231600Y0164100D03*
X0235200Y0171300D03*
X0214500Y0154200D03*
X0212700Y0137100D03*
X0229800Y0131700D03*
X0235200Y0137100D03*
X0250500Y0121800D03*
X0267600Y0107400D03*
X0275700Y0104700D03*
X0268500Y0100200D03*
X0253200Y0086700D03*
X0260400Y0083100D03*
X0234300Y0093000D03*
X0171300Y0095700D03*
X0155100Y0088500D03*
X0146100Y0099300D03*
X0271200Y0152400D03*
X0281100Y0144300D03*
X0311700Y0129000D03*
X0317100Y0129000D03*
X0334200Y0123600D03*
X0337800Y0136200D03*
X0346800Y0143400D03*
X0327000Y0140700D03*
X0323400Y0144300D03*
X0314400Y0140700D03*
X0327000Y0156900D03*
X0333300Y0156900D03*
X0310800Y0162300D03*
X0307200Y0169500D03*
X0288300Y0162300D03*
X0300000Y0158700D03*
X0302700Y0179400D03*
X0319800Y0183000D03*
X0323400Y0179400D03*
X0291900Y0195600D03*
X0274800Y0200100D03*
X0381000Y0170400D03*
X0384600Y0159600D03*
X0384600Y0146100D03*
X0428700Y0146100D03*
X0458400Y0156000D03*
X0368400Y0117300D03*
X0373800Y0106500D03*
X0350400Y0100200D03*
X0343200Y0100200D03*
X0335100Y0098400D03*
X0345000Y0107400D03*
X0333300Y0083100D03*
X0345900Y0068700D03*
X0342300Y0060600D03*
X0319800Y0048000D03*
X0377400Y0072300D03*
X0414300Y0077700D03*
X0428700Y0105600D03*
X0526800Y0051600D03*
X0592500Y0177600D03*
X0594300Y0190200D03*
X0541200Y0215400D03*
X0634800Y0225300D03*
X0434100Y0265800D03*
X0425100Y0274800D03*
X0410700Y0209100D03*
X0389100Y0203700D03*
D20*
X0027942Y0032981D03*
X0025973Y0099595D03*
X0026957Y0195973D03*
X0643926Y0197745D03*
X0644910Y0098611D03*
X0643926Y0032981D03*
M02*
