%
M48
M72
T01C0.02400
T02C0.03200
T03C0.03346
T04C0.03400
T05C0.04000
T06C0.04331
T07C0.05118
T08C0.11811
T09C0.19685
%
T01
X155100Y88500
X171300Y95700
X146100Y99300
X110100Y127200
X124500Y141600
X159600Y144300
X158700Y153300
X149700Y173100
X200100Y173100
X231600Y164100
X235200Y171300
X214500Y154200
X212700Y137100
X229800Y131700
X235200Y137100
X250500Y121800
X267600Y107400
X275700Y104700
X268500Y100200
X253200Y86700
X260400Y83100
X234300Y93000
X311700Y129000
X317100Y129000
X334200Y123600
X337800Y136200
X346800Y143400
X327000Y140700
X323400Y144300
X314400Y140700
X327000Y156900
X333300Y156900
X310800Y162300
X307200Y169500
X288300Y162300
X300000Y158700
X271200Y152400
X281100Y144300
X302700Y179400
X319800Y183000
X323400Y179400
X291900Y195600
X274800Y200100
X381000Y170400
X384600Y159600
X384600Y146100
X428700Y146100
X458400Y156000
X368400Y117300
X373800Y106500
X350400Y100200
X343200Y100200
X335100Y98400
X345000Y107400
X333300Y83100
X345900Y68700
X342300Y60600
X319800Y48000
X377400Y72300
X414300Y77700
X428700Y105600
X526800Y51600
X592500Y177600
X594300Y190200
X541200Y215400
X634800Y225300
X434100Y265800
X425100Y274800
X410700Y209100
X389100Y203700
T02
X369910Y150304
X419910Y150304
X489871Y109296
X489871Y97296
X259005Y151115
X259005Y163115
T03
X30461Y154280
X30461Y139320
T04
X386839Y181796
X396839Y181796
X406839Y181796
X416839Y181796
X426839Y181796
X436839Y181796
X446839Y181796
X456839Y181796
X456839Y214796
X446839Y214796
X436839Y214796
X426839Y214796
X416839Y214796
X406839Y214796
X396839Y214796
X386839Y214796
T05
X384398Y131209
X394398Y131209
X404398Y131209
X414398Y131209
X374398Y131209
X152233Y48217
X142233Y48217
X132233Y48217
X122233Y48217
X112233Y48217
X102233Y48217
X101170Y66997
X111170Y66997
X121170Y66997
X131170Y66997
X141170Y66997
T06
X165550Y237085
X149802Y241022
X143178Y254083
X142678Y271800
X143178Y289517
X149802Y302578
X165550Y306515
X181298Y302578
X186672Y289517
X187172Y271800
X186672Y254083
X181298Y241022
X268178Y254083
X274802Y241022
X290550Y237085
X306298Y241022
X311672Y254083
X312172Y271800
X311672Y289517
X306298Y302578
X290550Y306515
X274802Y302578
X268178Y289517
X267678Y271800
X372678Y271800
X373178Y254083
X379802Y241022
X395550Y237085
X411298Y241022
X416672Y254083
X417172Y271800
X416672Y289517
X411298Y302578
X395550Y306515
X379802Y302578
X373178Y289517
X498178Y289517
X504802Y302578
X520550Y306515
X536298Y302578
X541672Y289517
X542172Y271800
X541672Y254083
X536298Y241022
X520550Y237085
X504802Y241022
X498178Y254083
X497678Y271800
X597678Y271800
X598178Y254083
X604802Y241022
X620550Y237085
X636298Y241022
X641672Y254083
X642172Y271800
X641672Y289517
X636298Y302578
X620550Y306515
X604802Y302578
X598178Y289517
X87172Y271800
X86672Y254083
X81298Y241022
X65550Y237085
X49802Y241022
X43178Y254083
X42678Y271800
X43178Y289517
X49802Y302578
X65550Y306515
X81298Y302578
X86672Y289517
T07
X256367Y209438
X256367Y130698
T08
X27942Y32981
X25973Y99595
X26957Y195973
X643926Y197745
X644910Y98611
X643926Y32981
T09
X621800Y271800
X521800Y271800
X396800Y271800
X291800Y271800
X166800Y271800
X66800Y271800
M30
