G75*
%MOIN*%
%OFA0B0*%
%FSLAX25Y25*%
%IPPOS*%
%LPD*%
%AMOC8*
5,1,8,0,0,1.08239X$1,22.5*
%
%ADD10C,0.10800*%
%ADD11C,0.20485*%
%ADD12R,0.02375X0.02965*%
%ADD13R,0.02965X0.02965*%
%ADD14R,0.03162X0.02375*%
%ADD15R,0.06706X0.10249*%
%ADD16C,0.02769*%
%ADD17C,0.03400*%
%ADD18R,0.07808X0.06902*%
%ADD19R,0.05800X0.03000*%
%ADD20R,0.03000X0.05800*%
%ADD21R,0.04737X0.04737*%
%ADD22R,0.21272X0.09068*%
%ADD23R,0.08674X0.07493*%
%ADD24C,0.08477*%
%ADD25R,0.20800X0.07800*%
%ADD26R,0.06800X0.03800*%
%ADD27R,0.05600X0.09600*%
%ADD28R,0.14973X0.09461*%
%ADD29R,0.03950X0.06312*%
%ADD30C,0.06600*%
%ADD31R,0.03937X0.06299*%
%ADD32R,0.05800X0.03300*%
%ADD33C,0.04000*%
%ADD34R,0.12414X0.04737*%
%ADD35R,0.01981X0.03753*%
%ADD36R,0.05524X0.05524*%
%ADD37R,0.04737X0.05131*%
%ADD38R,0.05131X0.04737*%
%ADD39OC8,0.06000*%
%ADD40C,0.06800*%
%ADD41R,0.02454X0.04087*%
%ADD42R,0.06312X0.02375*%
%ADD43C,0.04146*%
%ADD44R,0.07800X0.46800*%
%ADD45R,0.03162X0.09461*%
%ADD46C,0.04800*%
%ADD47C,0.16611*%
D10*
X0065550Y0237085D03*
X0049802Y0241022D03*
X0043178Y0254083D03*
X0042678Y0271800D03*
X0043178Y0289517D03*
X0049802Y0302578D03*
X0065550Y0306515D03*
X0081298Y0302578D03*
X0086672Y0289517D03*
X0087172Y0271800D03*
X0086672Y0254083D03*
X0081298Y0241022D03*
X0143178Y0254083D03*
X0149802Y0241022D03*
X0165550Y0237085D03*
X0181298Y0241022D03*
X0186672Y0254083D03*
X0187172Y0271800D03*
X0186672Y0289517D03*
X0181298Y0302578D03*
X0165550Y0306515D03*
X0149802Y0302578D03*
X0143178Y0289517D03*
X0142678Y0271800D03*
X0267678Y0271800D03*
X0268178Y0254083D03*
X0274802Y0241022D03*
X0290550Y0237085D03*
X0306298Y0241022D03*
X0311672Y0254083D03*
X0312172Y0271800D03*
X0311672Y0289517D03*
X0306298Y0302578D03*
X0290550Y0306515D03*
X0274802Y0302578D03*
X0268178Y0289517D03*
X0373178Y0289517D03*
X0379802Y0302578D03*
X0395550Y0306515D03*
X0411298Y0302578D03*
X0416672Y0289517D03*
X0417172Y0271800D03*
X0416672Y0254083D03*
X0411298Y0241022D03*
X0395550Y0237085D03*
X0379802Y0241022D03*
X0373178Y0254083D03*
X0372678Y0271800D03*
X0497678Y0271800D03*
X0498178Y0254083D03*
X0504802Y0241022D03*
X0520550Y0237085D03*
X0536298Y0241022D03*
X0541672Y0254083D03*
X0542172Y0271800D03*
X0541672Y0289517D03*
X0536298Y0302578D03*
X0520550Y0306515D03*
X0504802Y0302578D03*
X0498178Y0289517D03*
X0598178Y0289517D03*
X0604802Y0302578D03*
X0620550Y0306515D03*
X0636298Y0302578D03*
X0641672Y0289517D03*
X0642172Y0271800D03*
X0641672Y0254083D03*
X0636298Y0241022D03*
X0620550Y0237085D03*
X0604802Y0241022D03*
X0598178Y0254083D03*
X0597678Y0271800D03*
D11*
X0621800Y0271800D03*
X0521800Y0271800D03*
X0396800Y0271800D03*
X0291800Y0271800D03*
X0166800Y0271800D03*
X0066800Y0271800D03*
D12*
X0156209Y0131209D03*
X0159950Y0131209D03*
X0163690Y0131209D03*
D13*
X0163690Y0140265D03*
X0159950Y0140265D03*
X0156209Y0140265D03*
D14*
X0517745Y0048020D03*
X0517745Y0044083D03*
X0517745Y0040146D03*
X0528769Y0040146D03*
X0528769Y0044083D03*
X0528769Y0048020D03*
D15*
X0523257Y0044083D03*
D16*
X0521288Y0044083D03*
D17*
X0456839Y0181796D03*
X0446839Y0181796D03*
X0436839Y0181796D03*
X0426839Y0181796D03*
X0416839Y0181796D03*
X0406839Y0181796D03*
X0396839Y0181796D03*
X0386839Y0181796D03*
X0386839Y0214796D03*
X0396839Y0214796D03*
X0406839Y0214796D03*
X0406839Y0214796D03*
X0406839Y0214796D03*
X0416839Y0214796D03*
X0426839Y0214796D03*
X0436839Y0214796D03*
X0446839Y0214796D03*
X0456839Y0214796D03*
D18*
X0338926Y0092194D03*
X0328926Y0092194D03*
X0310501Y0093493D03*
X0300501Y0093493D03*
X0281170Y0093769D03*
X0271170Y0093769D03*
X0251170Y0093887D03*
X0241170Y0093887D03*
X0221879Y0093769D03*
X0211879Y0093769D03*
X0191091Y0093769D03*
X0181091Y0093769D03*
X0181091Y0056209D03*
X0191091Y0056209D03*
X0211879Y0056209D03*
X0221879Y0056209D03*
X0241170Y0056328D03*
X0251170Y0056328D03*
X0271170Y0056209D03*
X0281170Y0056209D03*
X0300501Y0055934D03*
X0310501Y0055934D03*
X0328926Y0054635D03*
X0338926Y0054635D03*
X0356367Y0052824D03*
X0366367Y0052824D03*
X0366367Y0090383D03*
X0356367Y0090383D03*
D19*
X0339251Y0140383D03*
X0339251Y0143532D03*
X0339251Y0146682D03*
X0339251Y0149831D03*
X0339251Y0152981D03*
X0339251Y0156131D03*
X0339251Y0159280D03*
X0339251Y0162430D03*
X0305451Y0162430D03*
X0305451Y0159280D03*
X0305451Y0156131D03*
X0305451Y0152981D03*
X0305451Y0149831D03*
X0305451Y0146682D03*
X0305451Y0143532D03*
X0305451Y0140383D03*
D20*
X0311328Y0134506D03*
X0314477Y0134506D03*
X0317627Y0134506D03*
X0320776Y0134506D03*
X0323926Y0134506D03*
X0327076Y0134506D03*
X0330225Y0134506D03*
X0333375Y0134506D03*
X0333375Y0168306D03*
X0330225Y0168306D03*
X0327076Y0168306D03*
X0323926Y0168306D03*
X0320776Y0168306D03*
X0317627Y0168306D03*
X0314477Y0168306D03*
X0311328Y0168306D03*
D21*
X0521406Y0168572D03*
X0521406Y0174477D03*
X0521406Y0180383D03*
X0528296Y0185304D03*
X0534202Y0185304D03*
X0540107Y0185304D03*
X0546013Y0185304D03*
X0551918Y0185304D03*
X0557824Y0185304D03*
X0563729Y0185304D03*
X0569635Y0185304D03*
X0575540Y0185304D03*
X0581446Y0185304D03*
X0587351Y0185304D03*
X0593257Y0185304D03*
X0599162Y0185304D03*
X0521406Y0162666D03*
X0521406Y0156761D03*
X0521406Y0150855D03*
X0521406Y0144950D03*
X0521406Y0139044D03*
X0528296Y0134123D03*
X0534202Y0134123D03*
X0540107Y0134123D03*
X0546013Y0134123D03*
X0551918Y0134123D03*
X0557824Y0134123D03*
X0563729Y0134123D03*
X0569635Y0134123D03*
X0575540Y0134123D03*
X0581446Y0134123D03*
X0587351Y0134123D03*
X0593257Y0134123D03*
X0599162Y0134123D03*
D22*
X0224556Y0178414D03*
X0224556Y0193375D03*
D23*
X0232312Y0123611D03*
X0214202Y0123611D03*
D24*
X0256367Y0130698D03*
X0256367Y0209438D03*
D25*
X0285083Y0114635D03*
X0323083Y0114635D03*
D26*
X0330658Y0179300D03*
X0310658Y0179300D03*
X0310658Y0194300D03*
X0330658Y0194300D03*
D27*
X0479826Y0142159D03*
X0488926Y0142159D03*
X0498026Y0142159D03*
D28*
X0488926Y0166560D03*
D29*
X0228154Y0148040D03*
X0216154Y0148040D03*
D30*
X0221054Y0154956D02*
X0223254Y0154956D01*
X0221054Y0154956D02*
X0221054Y0163526D01*
X0223254Y0163526D01*
X0223254Y0154956D01*
X0223254Y0161555D02*
X0221054Y0161555D01*
D31*
X0222154Y0147745D03*
D32*
X0246505Y0147115D03*
X0246505Y0157115D03*
X0246505Y0167115D03*
X0271505Y0167115D03*
X0271505Y0157115D03*
X0271505Y0147115D03*
X0477371Y0113296D03*
X0477371Y0103296D03*
X0477371Y0093296D03*
X0502371Y0093296D03*
X0502371Y0103296D03*
X0502371Y0113296D03*
D33*
X0489871Y0109296D03*
X0489871Y0097296D03*
X0259005Y0151115D03*
X0259005Y0163115D03*
D34*
X0199280Y0167509D03*
X0180383Y0167509D03*
X0180658Y0121603D03*
X0199556Y0121603D03*
D35*
X0163394Y0158355D03*
X0160835Y0158355D03*
X0158276Y0158355D03*
X0155717Y0158355D03*
X0155717Y0181387D03*
X0158276Y0181387D03*
X0160835Y0181387D03*
X0163394Y0181387D03*
D36*
X0132784Y0182666D03*
X0124438Y0182548D03*
X0124438Y0174280D03*
X0132784Y0174398D03*
X0525068Y0111091D03*
X0533335Y0111091D03*
D37*
X0252666Y0186446D03*
X0252666Y0193139D03*
X0147469Y0155776D03*
X0147469Y0149083D03*
X0142509Y0175422D03*
X0142509Y0182115D03*
X0114831Y0182548D03*
X0114831Y0175855D03*
X0148611Y0120107D03*
X0148611Y0113414D03*
X0161682Y0113965D03*
X0161682Y0120658D03*
X0160816Y0103611D03*
X0160816Y0096918D03*
D38*
X0132548Y0093217D03*
X0125855Y0093217D03*
X0123532Y0120343D03*
X0130225Y0120343D03*
X0116446Y0119989D03*
X0109753Y0119989D03*
X0274123Y0195186D03*
X0280816Y0195186D03*
X0363454Y0166800D03*
X0370146Y0166800D03*
X0291564Y0153414D03*
X0284871Y0153414D03*
X0284280Y0137902D03*
X0290973Y0137902D03*
X0381367Y0106524D03*
X0388060Y0106524D03*
X0401249Y0106879D03*
X0407942Y0106879D03*
X0364320Y0037981D03*
X0357627Y0037981D03*
X0337076Y0037351D03*
X0330383Y0037351D03*
X0308257Y0036761D03*
X0301564Y0036761D03*
X0279044Y0036249D03*
X0272351Y0036249D03*
X0247666Y0035973D03*
X0240973Y0035973D03*
X0219556Y0035658D03*
X0212863Y0035658D03*
X0188178Y0036918D03*
X0181485Y0036918D03*
X0554910Y0111839D03*
X0561603Y0111839D03*
D39*
X0419910Y0150304D03*
X0369910Y0150304D03*
D40*
X0374398Y0134209D02*
X0374398Y0128209D01*
X0384398Y0128209D02*
X0384398Y0134209D01*
X0394398Y0134209D02*
X0394398Y0128209D01*
X0404398Y0128209D02*
X0404398Y0134209D01*
X0414398Y0134209D02*
X0414398Y0128209D01*
X0152233Y0051217D02*
X0152233Y0045217D01*
X0142233Y0045217D02*
X0142233Y0051217D01*
X0132233Y0051217D02*
X0132233Y0045217D01*
X0122233Y0045217D02*
X0122233Y0051217D01*
X0112233Y0051217D02*
X0112233Y0045217D01*
X0102233Y0045217D02*
X0102233Y0051217D01*
X0101170Y0063997D02*
X0101170Y0069997D01*
X0111170Y0069997D02*
X0111170Y0063997D01*
X0121170Y0063997D02*
X0121170Y0069997D01*
X0131170Y0069997D02*
X0131170Y0063997D01*
X0141170Y0063997D02*
X0141170Y0069997D01*
D41*
X0129300Y0136643D03*
X0124300Y0136643D03*
X0119300Y0136643D03*
X0114300Y0136643D03*
X0114300Y0156957D03*
X0119300Y0156957D03*
X0124300Y0156957D03*
X0129300Y0156957D03*
D42*
X0032430Y0151918D03*
X0032430Y0149359D03*
X0032430Y0146800D03*
X0032430Y0144241D03*
X0032430Y0141682D03*
D43*
X0030461Y0139320D03*
X0030461Y0154280D03*
D44*
X0021800Y0146800D03*
D45*
X0414300Y0084910D03*
X0419300Y0084910D03*
X0424300Y0084910D03*
X0429300Y0084910D03*
X0434300Y0084910D03*
X0439300Y0084910D03*
X0444300Y0084910D03*
X0449300Y0084910D03*
X0449300Y0048690D03*
X0444300Y0048690D03*
X0439300Y0048690D03*
X0434300Y0048690D03*
X0429300Y0048690D03*
X0424300Y0048690D03*
X0419300Y0048690D03*
X0414300Y0048690D03*
D46*
X0377400Y0072300D03*
X0345900Y0068700D03*
X0342300Y0060600D03*
X0319800Y0048000D03*
X0333300Y0083100D03*
X0335100Y0098400D03*
X0343200Y0100200D03*
X0350400Y0100200D03*
X0345000Y0107400D03*
X0368400Y0117300D03*
X0373800Y0106500D03*
X0334200Y0123600D03*
X0317100Y0129000D03*
X0311700Y0129000D03*
X0314400Y0140700D03*
X0323400Y0144300D03*
X0327000Y0140700D03*
X0337800Y0136200D03*
X0346800Y0143400D03*
X0333300Y0156900D03*
X0327000Y0156900D03*
X0310800Y0162300D03*
X0307200Y0169500D03*
X0288300Y0162300D03*
X0300000Y0158700D03*
X0271200Y0152400D03*
X0281100Y0144300D03*
X0250500Y0121800D03*
X0229800Y0131700D03*
X0235200Y0137100D03*
X0212700Y0137100D03*
X0214500Y0154200D03*
X0231600Y0164100D03*
X0235200Y0171300D03*
X0200100Y0173100D03*
X0158700Y0153300D03*
X0159600Y0144300D03*
X0124500Y0141600D03*
X0110100Y0127200D03*
X0146100Y0099300D03*
X0155100Y0088500D03*
X0171300Y0095700D03*
X0234300Y0093000D03*
X0253200Y0086700D03*
X0260400Y0083100D03*
X0268500Y0100200D03*
X0275700Y0104700D03*
X0267600Y0107400D03*
X0384600Y0146100D03*
X0384600Y0159600D03*
X0381000Y0170400D03*
X0428700Y0146100D03*
X0458400Y0156000D03*
X0389100Y0203700D03*
X0410700Y0209100D03*
X0323400Y0179400D03*
X0319800Y0183000D03*
X0302700Y0179400D03*
X0291900Y0195600D03*
X0274800Y0200100D03*
X0149700Y0173100D03*
X0414300Y0077700D03*
X0428700Y0105600D03*
X0526800Y0051600D03*
X0592500Y0177600D03*
X0594300Y0190200D03*
X0541200Y0215400D03*
X0634800Y0225300D03*
X0434100Y0265800D03*
X0425100Y0274800D03*
D47*
X0027942Y0032981D03*
X0025973Y0099595D03*
X0026957Y0195973D03*
X0643926Y0197745D03*
X0644910Y0098611D03*
X0643926Y0032981D03*
M02*
