G75*
%MOIN*%
%OFA0B0*%
%FSLAX25Y25*%
%IPPOS*%
%LPD*%
%AMOC8*
5,1,8,0,0,1.08239X$1,22.5*
%
%ADD10C,0.00600*%
%ADD11C,0.01600*%
%ADD12C,0.00787*%
%ADD13C,0.00400*%
%ADD14C,0.00100*%
%ADD15C,0.00300*%
%ADD16C,0.00800*%
%ADD17C,0.00500*%
%ADD18C,0.01000*%
%ADD19C,0.00200*%
%ADD20C,0.00000*%
%ADD21C,0.02559*%
%ADD22R,0.00591X0.01181*%
%ADD23R,0.01181X0.01181*%
%ADD24R,0.03000X0.01800*%
%ADD25R,0.01800X0.03000*%
%ADD26C,0.02200*%
%ADD27C,0.02400*%
%ADD28R,0.03400X0.02400*%
%ADD29C,0.01200*%
D10*
X0031833Y0015317D02*
X0031833Y0020317D01*
X0034333Y0022817D01*
X0039333Y0022817D01*
X0041833Y0020317D01*
X0044333Y0022817D01*
X0049333Y0022817D01*
X0051833Y0020317D01*
X0054333Y0022817D01*
X0059333Y0022817D01*
X0061833Y0020317D01*
X0064333Y0022817D01*
X0069333Y0022817D01*
X0071833Y0020317D01*
X0074333Y0022817D01*
X0079333Y0022817D01*
X0081833Y0020317D01*
X0084333Y0022817D01*
X0089333Y0022817D01*
X0091833Y0020317D01*
X0091833Y0015317D01*
X0089333Y0012817D01*
X0084333Y0012817D01*
X0081833Y0015317D01*
X0079333Y0012817D01*
X0074333Y0012817D01*
X0071833Y0015317D01*
X0069333Y0012817D01*
X0064333Y0012817D01*
X0061833Y0015317D01*
X0059333Y0012817D01*
X0054333Y0012817D01*
X0051833Y0015317D01*
X0049333Y0012817D01*
X0044333Y0012817D01*
X0041833Y0015317D01*
X0039333Y0012817D01*
X0034333Y0012817D01*
X0031833Y0015317D01*
X0033270Y0036597D02*
X0038270Y0036597D01*
X0040770Y0039097D01*
X0043270Y0036597D01*
X0048270Y0036597D01*
X0050770Y0039097D01*
X0053270Y0036597D01*
X0058270Y0036597D01*
X0060770Y0039097D01*
X0063270Y0036597D01*
X0068270Y0036597D01*
X0070770Y0039097D01*
X0073270Y0036597D01*
X0078270Y0036597D01*
X0080770Y0039097D01*
X0080770Y0044097D01*
X0078270Y0046597D01*
X0073270Y0046597D01*
X0070770Y0044097D01*
X0068270Y0046597D01*
X0063270Y0046597D01*
X0060770Y0044097D01*
X0058270Y0046597D01*
X0053270Y0046597D01*
X0050770Y0044097D01*
X0048270Y0046597D01*
X0043270Y0046597D01*
X0040770Y0044097D01*
X0038270Y0046597D01*
X0033270Y0046597D01*
X0030770Y0044097D01*
X0030770Y0039097D01*
X0033270Y0036597D01*
X0116400Y0038900D02*
X0116400Y0033900D01*
X0118900Y0031400D01*
X0123900Y0031400D01*
X0126400Y0033900D01*
X0126400Y0038900D01*
X0123900Y0041400D01*
X0126400Y0043900D01*
X0126400Y0048900D01*
X0123900Y0051400D01*
X0118900Y0051400D01*
X0116400Y0048900D01*
X0116400Y0043900D01*
X0118900Y0041400D01*
X0123900Y0041400D01*
X0118900Y0041400D02*
X0116400Y0038900D01*
X0121700Y0028105D02*
X0124903Y0028105D01*
X0125970Y0027038D01*
X0125970Y0025970D01*
X0124903Y0024903D01*
X0121700Y0024903D01*
X0121700Y0028105D02*
X0121700Y0021700D01*
X0124903Y0021700D01*
X0125970Y0022768D01*
X0125970Y0023835D01*
X0124903Y0024903D01*
X0128145Y0024903D02*
X0132416Y0024903D01*
X0130281Y0027038D02*
X0130281Y0022768D01*
X0141577Y0037069D02*
X0141577Y0041203D01*
X0141577Y0045317D01*
X0141577Y0062109D01*
X0159806Y0062109D01*
X0159806Y0037069D01*
X0141577Y0037069D01*
X0141577Y0041203D02*
X0141667Y0041205D01*
X0141756Y0041211D01*
X0141845Y0041221D01*
X0141934Y0041234D01*
X0142022Y0041252D01*
X0142109Y0041273D01*
X0142196Y0041298D01*
X0142281Y0041327D01*
X0142364Y0041360D01*
X0142446Y0041396D01*
X0142527Y0041435D01*
X0142606Y0041479D01*
X0142682Y0041525D01*
X0142757Y0041575D01*
X0142829Y0041628D01*
X0142899Y0041684D01*
X0142967Y0041743D01*
X0143032Y0041805D01*
X0143094Y0041870D01*
X0143153Y0041938D01*
X0143209Y0042008D01*
X0143262Y0042080D01*
X0143312Y0042155D01*
X0143358Y0042232D01*
X0143402Y0042310D01*
X0143441Y0042391D01*
X0143477Y0042473D01*
X0143510Y0042556D01*
X0143539Y0042641D01*
X0143564Y0042728D01*
X0143585Y0042815D01*
X0143603Y0042903D01*
X0143616Y0042992D01*
X0143626Y0043081D01*
X0143632Y0043170D01*
X0143634Y0043260D01*
X0143632Y0043350D01*
X0143626Y0043439D01*
X0143616Y0043528D01*
X0143603Y0043617D01*
X0143585Y0043705D01*
X0143564Y0043792D01*
X0143539Y0043879D01*
X0143510Y0043964D01*
X0143477Y0044047D01*
X0143441Y0044129D01*
X0143402Y0044210D01*
X0143358Y0044288D01*
X0143312Y0044365D01*
X0143262Y0044440D01*
X0143209Y0044512D01*
X0143153Y0044582D01*
X0143094Y0044650D01*
X0143032Y0044715D01*
X0142967Y0044777D01*
X0142899Y0044836D01*
X0142829Y0044892D01*
X0142757Y0044945D01*
X0142682Y0044995D01*
X0142606Y0045041D01*
X0142527Y0045085D01*
X0142446Y0045124D01*
X0142364Y0045160D01*
X0142281Y0045193D01*
X0142196Y0045222D01*
X0142109Y0045247D01*
X0142022Y0045268D01*
X0141934Y0045286D01*
X0141845Y0045299D01*
X0141756Y0045309D01*
X0141667Y0045315D01*
X0141577Y0045317D01*
X0125970Y0057768D02*
X0124903Y0056700D01*
X0121700Y0056700D01*
X0121700Y0063105D01*
X0124903Y0063105D01*
X0125970Y0062038D01*
X0125970Y0060970D01*
X0124903Y0059903D01*
X0121700Y0059903D01*
X0124903Y0059903D02*
X0125970Y0058835D01*
X0125970Y0057768D01*
X0128145Y0059903D02*
X0132416Y0059903D01*
X0166656Y0062227D02*
X0166656Y0045435D01*
X0166656Y0041321D01*
X0166656Y0037187D01*
X0184884Y0037187D01*
X0184884Y0062227D01*
X0166656Y0062227D01*
X0191656Y0062109D02*
X0209884Y0062109D01*
X0209884Y0037069D01*
X0191656Y0037069D01*
X0191656Y0041203D01*
X0191656Y0045317D01*
X0191656Y0062109D01*
X0215987Y0061833D02*
X0215987Y0045042D01*
X0215987Y0040928D01*
X0215987Y0036794D01*
X0234215Y0036794D01*
X0234215Y0061833D01*
X0215987Y0061833D01*
X0215987Y0045042D02*
X0216077Y0045040D01*
X0216166Y0045034D01*
X0216255Y0045024D01*
X0216344Y0045011D01*
X0216432Y0044993D01*
X0216519Y0044972D01*
X0216606Y0044947D01*
X0216691Y0044918D01*
X0216774Y0044885D01*
X0216856Y0044849D01*
X0216937Y0044810D01*
X0217016Y0044766D01*
X0217092Y0044720D01*
X0217167Y0044670D01*
X0217239Y0044617D01*
X0217309Y0044561D01*
X0217377Y0044502D01*
X0217442Y0044440D01*
X0217504Y0044375D01*
X0217563Y0044307D01*
X0217619Y0044237D01*
X0217672Y0044165D01*
X0217722Y0044090D01*
X0217768Y0044013D01*
X0217812Y0043935D01*
X0217851Y0043854D01*
X0217887Y0043772D01*
X0217920Y0043689D01*
X0217949Y0043604D01*
X0217974Y0043517D01*
X0217995Y0043430D01*
X0218013Y0043342D01*
X0218026Y0043253D01*
X0218036Y0043164D01*
X0218042Y0043075D01*
X0218044Y0042985D01*
X0218042Y0042895D01*
X0218036Y0042806D01*
X0218026Y0042717D01*
X0218013Y0042628D01*
X0217995Y0042540D01*
X0217974Y0042453D01*
X0217949Y0042366D01*
X0217920Y0042281D01*
X0217887Y0042198D01*
X0217851Y0042116D01*
X0217812Y0042035D01*
X0217768Y0041957D01*
X0217722Y0041880D01*
X0217672Y0041805D01*
X0217619Y0041733D01*
X0217563Y0041663D01*
X0217504Y0041595D01*
X0217442Y0041530D01*
X0217377Y0041468D01*
X0217309Y0041409D01*
X0217239Y0041353D01*
X0217167Y0041300D01*
X0217092Y0041250D01*
X0217016Y0041204D01*
X0216937Y0041160D01*
X0216856Y0041121D01*
X0216774Y0041085D01*
X0216691Y0041052D01*
X0216606Y0041023D01*
X0216519Y0040998D01*
X0216432Y0040977D01*
X0216344Y0040959D01*
X0216255Y0040946D01*
X0216166Y0040936D01*
X0216077Y0040930D01*
X0215987Y0040928D01*
X0191656Y0041203D02*
X0191746Y0041205D01*
X0191835Y0041211D01*
X0191924Y0041221D01*
X0192013Y0041234D01*
X0192101Y0041252D01*
X0192188Y0041273D01*
X0192275Y0041298D01*
X0192360Y0041327D01*
X0192443Y0041360D01*
X0192525Y0041396D01*
X0192606Y0041435D01*
X0192685Y0041479D01*
X0192761Y0041525D01*
X0192836Y0041575D01*
X0192908Y0041628D01*
X0192978Y0041684D01*
X0193046Y0041743D01*
X0193111Y0041805D01*
X0193173Y0041870D01*
X0193232Y0041938D01*
X0193288Y0042008D01*
X0193341Y0042080D01*
X0193391Y0042155D01*
X0193437Y0042232D01*
X0193481Y0042310D01*
X0193520Y0042391D01*
X0193556Y0042473D01*
X0193589Y0042556D01*
X0193618Y0042641D01*
X0193643Y0042728D01*
X0193664Y0042815D01*
X0193682Y0042903D01*
X0193695Y0042992D01*
X0193705Y0043081D01*
X0193711Y0043170D01*
X0193713Y0043260D01*
X0193711Y0043350D01*
X0193705Y0043439D01*
X0193695Y0043528D01*
X0193682Y0043617D01*
X0193664Y0043705D01*
X0193643Y0043792D01*
X0193618Y0043879D01*
X0193589Y0043964D01*
X0193556Y0044047D01*
X0193520Y0044129D01*
X0193481Y0044210D01*
X0193437Y0044288D01*
X0193391Y0044365D01*
X0193341Y0044440D01*
X0193288Y0044512D01*
X0193232Y0044582D01*
X0193173Y0044650D01*
X0193111Y0044715D01*
X0193046Y0044777D01*
X0192978Y0044836D01*
X0192908Y0044892D01*
X0192836Y0044945D01*
X0192761Y0044995D01*
X0192685Y0045041D01*
X0192606Y0045085D01*
X0192525Y0045124D01*
X0192443Y0045160D01*
X0192360Y0045193D01*
X0192275Y0045222D01*
X0192188Y0045247D01*
X0192101Y0045268D01*
X0192013Y0045286D01*
X0191924Y0045299D01*
X0191835Y0045309D01*
X0191746Y0045315D01*
X0191656Y0045317D01*
X0166656Y0045435D02*
X0166746Y0045433D01*
X0166835Y0045427D01*
X0166924Y0045417D01*
X0167013Y0045404D01*
X0167101Y0045386D01*
X0167188Y0045365D01*
X0167275Y0045340D01*
X0167360Y0045311D01*
X0167443Y0045278D01*
X0167525Y0045242D01*
X0167606Y0045203D01*
X0167685Y0045159D01*
X0167761Y0045113D01*
X0167836Y0045063D01*
X0167908Y0045010D01*
X0167978Y0044954D01*
X0168046Y0044895D01*
X0168111Y0044833D01*
X0168173Y0044768D01*
X0168232Y0044700D01*
X0168288Y0044630D01*
X0168341Y0044558D01*
X0168391Y0044483D01*
X0168437Y0044406D01*
X0168481Y0044328D01*
X0168520Y0044247D01*
X0168556Y0044165D01*
X0168589Y0044082D01*
X0168618Y0043997D01*
X0168643Y0043910D01*
X0168664Y0043823D01*
X0168682Y0043735D01*
X0168695Y0043646D01*
X0168705Y0043557D01*
X0168711Y0043468D01*
X0168713Y0043378D01*
X0168711Y0043288D01*
X0168705Y0043199D01*
X0168695Y0043110D01*
X0168682Y0043021D01*
X0168664Y0042933D01*
X0168643Y0042846D01*
X0168618Y0042759D01*
X0168589Y0042674D01*
X0168556Y0042591D01*
X0168520Y0042509D01*
X0168481Y0042428D01*
X0168437Y0042350D01*
X0168391Y0042273D01*
X0168341Y0042198D01*
X0168288Y0042126D01*
X0168232Y0042056D01*
X0168173Y0041988D01*
X0168111Y0041923D01*
X0168046Y0041861D01*
X0167978Y0041802D01*
X0167908Y0041746D01*
X0167836Y0041693D01*
X0167761Y0041643D01*
X0167685Y0041597D01*
X0167606Y0041553D01*
X0167525Y0041514D01*
X0167443Y0041478D01*
X0167360Y0041445D01*
X0167275Y0041416D01*
X0167188Y0041391D01*
X0167101Y0041370D01*
X0167013Y0041352D01*
X0166924Y0041339D01*
X0166835Y0041329D01*
X0166746Y0041323D01*
X0166656Y0041321D01*
X0210183Y0091735D02*
X0214183Y0091735D01*
X0210183Y0091735D02*
X0210123Y0091737D01*
X0210062Y0091742D01*
X0210003Y0091751D01*
X0209944Y0091764D01*
X0209885Y0091780D01*
X0209828Y0091800D01*
X0209773Y0091823D01*
X0209718Y0091850D01*
X0209666Y0091879D01*
X0209615Y0091912D01*
X0209566Y0091948D01*
X0209520Y0091986D01*
X0209476Y0092028D01*
X0209434Y0092072D01*
X0209396Y0092118D01*
X0209360Y0092167D01*
X0209327Y0092218D01*
X0209298Y0092270D01*
X0209271Y0092325D01*
X0209248Y0092380D01*
X0209228Y0092437D01*
X0209212Y0092496D01*
X0209199Y0092555D01*
X0209190Y0092614D01*
X0209185Y0092675D01*
X0209183Y0092735D01*
X0209183Y0135735D01*
X0209185Y0135795D01*
X0209190Y0135856D01*
X0209199Y0135915D01*
X0209212Y0135974D01*
X0209228Y0136033D01*
X0209248Y0136090D01*
X0209271Y0136145D01*
X0209298Y0136200D01*
X0209327Y0136252D01*
X0209360Y0136303D01*
X0209396Y0136352D01*
X0209434Y0136398D01*
X0209476Y0136442D01*
X0209520Y0136484D01*
X0209566Y0136522D01*
X0209615Y0136558D01*
X0209666Y0136591D01*
X0209718Y0136620D01*
X0209773Y0136647D01*
X0209828Y0136670D01*
X0209885Y0136690D01*
X0209944Y0136706D01*
X0210003Y0136719D01*
X0210062Y0136728D01*
X0210123Y0136733D01*
X0210183Y0136735D01*
X0214183Y0136735D01*
X0223183Y0136735D02*
X0227183Y0136735D01*
X0227243Y0136733D01*
X0227304Y0136728D01*
X0227363Y0136719D01*
X0227422Y0136706D01*
X0227481Y0136690D01*
X0227538Y0136670D01*
X0227593Y0136647D01*
X0227648Y0136620D01*
X0227700Y0136591D01*
X0227751Y0136558D01*
X0227800Y0136522D01*
X0227846Y0136484D01*
X0227890Y0136442D01*
X0227932Y0136398D01*
X0227970Y0136352D01*
X0228006Y0136303D01*
X0228039Y0136252D01*
X0228068Y0136200D01*
X0228095Y0136145D01*
X0228118Y0136090D01*
X0228138Y0136033D01*
X0228154Y0135974D01*
X0228167Y0135915D01*
X0228176Y0135856D01*
X0228181Y0135795D01*
X0228183Y0135735D01*
X0228183Y0092735D01*
X0228181Y0092675D01*
X0228176Y0092614D01*
X0228167Y0092555D01*
X0228154Y0092496D01*
X0228138Y0092437D01*
X0228118Y0092380D01*
X0228095Y0092325D01*
X0228068Y0092270D01*
X0228039Y0092218D01*
X0228006Y0092167D01*
X0227970Y0092118D01*
X0227932Y0092072D01*
X0227890Y0092028D01*
X0227846Y0091986D01*
X0227800Y0091948D01*
X0227751Y0091912D01*
X0227700Y0091879D01*
X0227648Y0091850D01*
X0227593Y0091823D01*
X0227538Y0091800D01*
X0227481Y0091780D01*
X0227422Y0091764D01*
X0227363Y0091751D01*
X0227304Y0091742D01*
X0227243Y0091737D01*
X0227183Y0091735D01*
X0223183Y0091735D01*
X0221183Y0111735D02*
X0218683Y0111735D01*
X0216183Y0111735D01*
X0216183Y0113235D02*
X0216183Y0115235D01*
X0221183Y0115235D01*
X0221183Y0113235D01*
X0216183Y0113235D01*
X0216183Y0116735D02*
X0218683Y0116735D01*
X0221183Y0116735D01*
X0253152Y0128408D02*
X0253152Y0102207D01*
X0280750Y0102207D01*
X0280750Y0129806D01*
X0254550Y0129806D01*
X0253152Y0128408D01*
X0254737Y0126806D02*
X0254739Y0126881D01*
X0254745Y0126955D01*
X0254755Y0127029D01*
X0254768Y0127102D01*
X0254786Y0127175D01*
X0254807Y0127246D01*
X0254832Y0127317D01*
X0254861Y0127386D01*
X0254894Y0127453D01*
X0254930Y0127518D01*
X0254969Y0127582D01*
X0255011Y0127643D01*
X0255057Y0127702D01*
X0255106Y0127759D01*
X0255158Y0127812D01*
X0255212Y0127863D01*
X0255269Y0127912D01*
X0255329Y0127956D01*
X0255391Y0127998D01*
X0255455Y0128037D01*
X0255521Y0128072D01*
X0255588Y0128103D01*
X0255658Y0128131D01*
X0255728Y0128155D01*
X0255800Y0128176D01*
X0255873Y0128192D01*
X0255946Y0128205D01*
X0256021Y0128214D01*
X0256095Y0128219D01*
X0256170Y0128220D01*
X0256244Y0128217D01*
X0256319Y0128210D01*
X0256392Y0128199D01*
X0256466Y0128185D01*
X0256538Y0128166D01*
X0256609Y0128144D01*
X0256679Y0128118D01*
X0256748Y0128088D01*
X0256814Y0128055D01*
X0256879Y0128018D01*
X0256942Y0127978D01*
X0257003Y0127934D01*
X0257061Y0127888D01*
X0257117Y0127838D01*
X0257170Y0127786D01*
X0257221Y0127731D01*
X0257268Y0127673D01*
X0257312Y0127613D01*
X0257353Y0127550D01*
X0257391Y0127486D01*
X0257425Y0127420D01*
X0257456Y0127351D01*
X0257483Y0127282D01*
X0257506Y0127211D01*
X0257525Y0127139D01*
X0257541Y0127066D01*
X0257553Y0126992D01*
X0257561Y0126918D01*
X0257565Y0126843D01*
X0257565Y0126769D01*
X0257561Y0126694D01*
X0257553Y0126620D01*
X0257541Y0126546D01*
X0257525Y0126473D01*
X0257506Y0126401D01*
X0257483Y0126330D01*
X0257456Y0126261D01*
X0257425Y0126192D01*
X0257391Y0126126D01*
X0257353Y0126062D01*
X0257312Y0125999D01*
X0257268Y0125939D01*
X0257221Y0125881D01*
X0257170Y0125826D01*
X0257117Y0125774D01*
X0257061Y0125724D01*
X0257003Y0125678D01*
X0256942Y0125634D01*
X0256879Y0125594D01*
X0256814Y0125557D01*
X0256748Y0125524D01*
X0256679Y0125494D01*
X0256609Y0125468D01*
X0256538Y0125446D01*
X0256466Y0125427D01*
X0256392Y0125413D01*
X0256319Y0125402D01*
X0256244Y0125395D01*
X0256170Y0125392D01*
X0256095Y0125393D01*
X0256021Y0125398D01*
X0255946Y0125407D01*
X0255873Y0125420D01*
X0255800Y0125436D01*
X0255728Y0125457D01*
X0255658Y0125481D01*
X0255588Y0125509D01*
X0255521Y0125540D01*
X0255455Y0125575D01*
X0255391Y0125614D01*
X0255329Y0125656D01*
X0255269Y0125700D01*
X0255212Y0125749D01*
X0255158Y0125800D01*
X0255106Y0125853D01*
X0255057Y0125910D01*
X0255011Y0125969D01*
X0254969Y0126030D01*
X0254930Y0126094D01*
X0254894Y0126159D01*
X0254861Y0126226D01*
X0254832Y0126295D01*
X0254807Y0126366D01*
X0254786Y0126437D01*
X0254768Y0126510D01*
X0254755Y0126583D01*
X0254745Y0126657D01*
X0254739Y0126731D01*
X0254737Y0126806D01*
X0312010Y0108404D02*
X0312010Y0101404D01*
X0312012Y0101344D01*
X0312017Y0101283D01*
X0312026Y0101224D01*
X0312039Y0101165D01*
X0312055Y0101106D01*
X0312075Y0101049D01*
X0312098Y0100994D01*
X0312125Y0100939D01*
X0312154Y0100887D01*
X0312187Y0100836D01*
X0312223Y0100787D01*
X0312261Y0100741D01*
X0312303Y0100697D01*
X0312347Y0100655D01*
X0312393Y0100617D01*
X0312442Y0100581D01*
X0312493Y0100548D01*
X0312545Y0100519D01*
X0312600Y0100492D01*
X0312655Y0100469D01*
X0312712Y0100449D01*
X0312771Y0100433D01*
X0312830Y0100420D01*
X0312889Y0100411D01*
X0312950Y0100406D01*
X0313010Y0100404D01*
X0314510Y0100404D01*
X0315010Y0100904D01*
X0334010Y0100904D01*
X0334510Y0100404D01*
X0336010Y0100404D01*
X0336070Y0100406D01*
X0336131Y0100411D01*
X0336190Y0100420D01*
X0336249Y0100433D01*
X0336308Y0100449D01*
X0336365Y0100469D01*
X0336420Y0100492D01*
X0336475Y0100519D01*
X0336527Y0100548D01*
X0336578Y0100581D01*
X0336627Y0100617D01*
X0336673Y0100655D01*
X0336717Y0100697D01*
X0336759Y0100741D01*
X0336797Y0100787D01*
X0336833Y0100836D01*
X0336866Y0100887D01*
X0336895Y0100939D01*
X0336922Y0100994D01*
X0336945Y0101049D01*
X0336965Y0101106D01*
X0336981Y0101165D01*
X0336994Y0101224D01*
X0337003Y0101283D01*
X0337008Y0101344D01*
X0337010Y0101404D01*
X0337010Y0108404D01*
X0337008Y0108464D01*
X0337003Y0108525D01*
X0336994Y0108584D01*
X0336981Y0108643D01*
X0336965Y0108702D01*
X0336945Y0108759D01*
X0336922Y0108814D01*
X0336895Y0108869D01*
X0336866Y0108921D01*
X0336833Y0108972D01*
X0336797Y0109021D01*
X0336759Y0109067D01*
X0336717Y0109111D01*
X0336673Y0109153D01*
X0336627Y0109191D01*
X0336578Y0109227D01*
X0336527Y0109260D01*
X0336475Y0109289D01*
X0336420Y0109316D01*
X0336365Y0109339D01*
X0336308Y0109359D01*
X0336249Y0109375D01*
X0336190Y0109388D01*
X0336131Y0109397D01*
X0336070Y0109402D01*
X0336010Y0109404D01*
X0334510Y0109404D01*
X0334010Y0108904D01*
X0315010Y0108904D01*
X0314510Y0109404D01*
X0313010Y0109404D01*
X0312950Y0109402D01*
X0312889Y0109397D01*
X0312830Y0109388D01*
X0312771Y0109375D01*
X0312712Y0109359D01*
X0312655Y0109339D01*
X0312600Y0109316D01*
X0312545Y0109289D01*
X0312493Y0109260D01*
X0312442Y0109227D01*
X0312393Y0109191D01*
X0312347Y0109153D01*
X0312303Y0109111D01*
X0312261Y0109067D01*
X0312223Y0109021D01*
X0312187Y0108972D01*
X0312154Y0108921D01*
X0312125Y0108869D01*
X0312098Y0108814D01*
X0312075Y0108759D01*
X0312055Y0108702D01*
X0312039Y0108643D01*
X0312026Y0108584D01*
X0312017Y0108525D01*
X0312012Y0108464D01*
X0312010Y0108404D01*
X0333998Y0088309D02*
X0336498Y0090809D01*
X0341498Y0090809D01*
X0343998Y0088309D01*
X0343998Y0083309D01*
X0341498Y0080809D01*
X0343998Y0078309D01*
X0343998Y0073309D01*
X0341498Y0070809D01*
X0343998Y0068309D01*
X0343998Y0063309D01*
X0341498Y0060809D01*
X0343998Y0058309D01*
X0343998Y0053309D01*
X0341498Y0050809D01*
X0343998Y0048309D01*
X0343998Y0043309D01*
X0341498Y0040809D01*
X0336498Y0040809D01*
X0333998Y0043309D01*
X0333998Y0048309D01*
X0336498Y0050809D01*
X0333998Y0053309D01*
X0333998Y0058309D01*
X0336498Y0060809D01*
X0333998Y0063309D01*
X0333998Y0068309D01*
X0336498Y0070809D01*
X0333998Y0073309D01*
X0333998Y0078309D01*
X0336498Y0080809D01*
X0333998Y0083309D01*
X0333998Y0088309D01*
X0354695Y0087229D02*
X0358965Y0087229D01*
X0361100Y0089364D01*
X0358965Y0091500D01*
X0354695Y0091500D01*
X0357897Y0093675D02*
X0356830Y0094742D01*
X0356830Y0096877D01*
X0357897Y0097945D01*
X0358965Y0097945D01*
X0358965Y0093675D01*
X0360032Y0093675D02*
X0357897Y0093675D01*
X0360032Y0093675D02*
X0361100Y0094742D01*
X0361100Y0096877D01*
X0361100Y0100120D02*
X0356830Y0100120D01*
X0358965Y0100120D02*
X0356830Y0102255D01*
X0356830Y0103323D01*
X0360032Y0105491D02*
X0360032Y0106559D01*
X0361100Y0106559D01*
X0361100Y0105491D01*
X0360032Y0105491D01*
X0361100Y0108714D02*
X0361100Y0112985D01*
X0361100Y0110849D02*
X0354695Y0110849D01*
X0356830Y0108714D01*
X0385206Y0099238D02*
X0385206Y0094968D01*
X0385206Y0097103D02*
X0391612Y0097103D01*
X0390544Y0101413D02*
X0391612Y0102481D01*
X0391612Y0104616D01*
X0390544Y0105684D01*
X0388409Y0105684D01*
X0387341Y0104616D01*
X0387341Y0102481D01*
X0388409Y0101413D01*
X0390544Y0101413D01*
X0391612Y0107859D02*
X0387341Y0107859D01*
X0387341Y0111061D01*
X0388409Y0112129D01*
X0391612Y0112129D01*
X0390544Y0114304D02*
X0391612Y0115372D01*
X0391612Y0118575D01*
X0392679Y0118575D02*
X0393747Y0117507D01*
X0393747Y0116439D01*
X0392679Y0118575D02*
X0387341Y0118575D01*
X0387341Y0114304D02*
X0390544Y0114304D01*
X0390544Y0127195D02*
X0389477Y0127195D01*
X0387341Y0129330D01*
X0386274Y0129330D01*
X0385206Y0128263D01*
X0386274Y0127195D01*
X0387341Y0127195D01*
X0391612Y0131466D01*
X0389477Y0131466D02*
X0391612Y0129330D01*
X0391612Y0128263D01*
X0390544Y0127195D01*
X0390544Y0140086D02*
X0391612Y0141154D01*
X0391612Y0143289D01*
X0390544Y0144357D01*
X0389477Y0144357D01*
X0388409Y0143289D01*
X0388409Y0141154D01*
X0387341Y0140086D01*
X0386274Y0140086D01*
X0385206Y0141154D01*
X0385206Y0143289D01*
X0386274Y0144357D01*
X0387341Y0146532D02*
X0387341Y0148667D01*
X0386274Y0147599D02*
X0390544Y0147599D01*
X0391612Y0148667D01*
X0390544Y0150829D02*
X0388409Y0150829D01*
X0387341Y0151896D01*
X0387341Y0154031D01*
X0388409Y0155099D01*
X0389477Y0155099D01*
X0389477Y0150829D01*
X0390544Y0150829D02*
X0391612Y0151896D01*
X0391612Y0154031D01*
X0391612Y0157274D02*
X0391612Y0159409D01*
X0391612Y0158342D02*
X0385206Y0158342D01*
X0385206Y0157274D01*
X0385206Y0161571D02*
X0385206Y0162639D01*
X0391612Y0162639D01*
X0391612Y0163706D02*
X0391612Y0161571D01*
X0390544Y0165868D02*
X0389477Y0166936D01*
X0389477Y0170138D01*
X0388409Y0170138D02*
X0391612Y0170138D01*
X0391612Y0166936D01*
X0390544Y0165868D01*
X0387341Y0166936D02*
X0387341Y0169071D01*
X0388409Y0170138D01*
X0370032Y0083980D02*
X0365762Y0083980D01*
X0370032Y0079709D01*
X0371100Y0080777D01*
X0371100Y0082912D01*
X0370032Y0083980D01*
X0365762Y0083980D02*
X0364695Y0082912D01*
X0364695Y0080777D01*
X0365762Y0079709D01*
X0370032Y0079709D01*
X0371100Y0077534D02*
X0371100Y0073264D01*
X0371100Y0075399D02*
X0364695Y0075399D01*
X0366830Y0073264D01*
X0364695Y0071089D02*
X0371100Y0066818D01*
X0370032Y0064643D02*
X0371100Y0063576D01*
X0371100Y0061441D01*
X0370032Y0060373D01*
X0368965Y0060373D01*
X0367897Y0061441D01*
X0367897Y0063576D01*
X0368965Y0064643D01*
X0370032Y0064643D01*
X0367897Y0063576D02*
X0366830Y0064643D01*
X0365762Y0064643D01*
X0364695Y0063576D01*
X0364695Y0061441D01*
X0365762Y0060373D01*
X0366830Y0060373D01*
X0367897Y0061441D01*
X0365762Y0058198D02*
X0370032Y0053927D01*
X0371100Y0054995D01*
X0371100Y0057130D01*
X0370032Y0058198D01*
X0365762Y0058198D01*
X0364695Y0057130D01*
X0364695Y0054995D01*
X0365762Y0053927D01*
X0370032Y0053927D01*
X0364695Y0051752D02*
X0371100Y0047482D01*
X0365762Y0045307D02*
X0370032Y0041036D01*
X0371100Y0041036D01*
X0371100Y0038861D02*
X0371100Y0034591D01*
X0371100Y0036726D02*
X0364695Y0036726D01*
X0366830Y0034591D01*
X0365762Y0032416D02*
X0370032Y0028145D01*
X0371100Y0029213D01*
X0371100Y0031348D01*
X0370032Y0032416D01*
X0365762Y0032416D01*
X0364695Y0031348D01*
X0364695Y0029213D01*
X0365762Y0028145D01*
X0370032Y0028145D01*
X0371100Y0025970D02*
X0371100Y0021700D01*
X0366830Y0025970D01*
X0365762Y0025970D01*
X0364695Y0024903D01*
X0364695Y0022768D01*
X0365762Y0021700D01*
X0361100Y0021700D02*
X0361100Y0023835D01*
X0361100Y0022768D02*
X0354695Y0022768D01*
X0354695Y0023835D02*
X0354695Y0021700D01*
X0354695Y0025997D02*
X0361100Y0030267D01*
X0354695Y0030267D01*
X0357897Y0032442D02*
X0357897Y0036713D01*
X0355762Y0038888D02*
X0354695Y0039956D01*
X0354695Y0042091D01*
X0355762Y0043158D01*
X0356830Y0043158D01*
X0361100Y0038888D01*
X0361100Y0043158D01*
X0364695Y0041036D02*
X0364695Y0045307D01*
X0365762Y0045307D01*
X0360032Y0051779D02*
X0355762Y0051779D01*
X0354695Y0052847D01*
X0354695Y0054982D01*
X0355762Y0056049D01*
X0354695Y0058224D02*
X0354695Y0059292D01*
X0361100Y0059292D01*
X0361100Y0058224D02*
X0361100Y0060360D01*
X0360032Y0062521D02*
X0357897Y0062521D01*
X0356830Y0063589D01*
X0356830Y0065724D01*
X0357897Y0066792D01*
X0360032Y0066792D01*
X0361100Y0065724D01*
X0361100Y0063589D01*
X0360032Y0062521D01*
X0360032Y0068967D02*
X0357897Y0068967D01*
X0356830Y0070035D01*
X0356830Y0073237D01*
X0358965Y0075412D02*
X0356830Y0078615D01*
X0358965Y0075412D02*
X0361100Y0078615D01*
X0361100Y0075412D02*
X0354695Y0075412D01*
X0361100Y0073237D02*
X0361100Y0070035D01*
X0360032Y0068967D01*
X0360032Y0056049D02*
X0361100Y0054982D01*
X0361100Y0052847D01*
X0360032Y0051779D01*
X0361100Y0025997D02*
X0354695Y0025997D01*
X0095148Y0097262D02*
X0095148Y0103412D01*
X0083947Y0103412D02*
X0083947Y0097262D01*
D11*
X0016243Y0006400D02*
X0311400Y0006400D01*
X0316400Y0006400D02*
X0326400Y0006400D01*
X0331400Y0006400D02*
X0386557Y0006400D01*
X0386795Y0006403D01*
X0387033Y0006411D01*
X0387270Y0006426D01*
X0387507Y0006446D01*
X0387743Y0006472D01*
X0387979Y0006503D01*
X0388214Y0006540D01*
X0388448Y0006583D01*
X0388681Y0006632D01*
X0388913Y0006686D01*
X0389143Y0006746D01*
X0389372Y0006811D01*
X0389599Y0006882D01*
X0389824Y0006958D01*
X0390047Y0007040D01*
X0390269Y0007127D01*
X0390488Y0007219D01*
X0390705Y0007317D01*
X0390919Y0007419D01*
X0391131Y0007527D01*
X0391341Y0007641D01*
X0391547Y0007759D01*
X0391751Y0007882D01*
X0391951Y0008010D01*
X0392148Y0008142D01*
X0392343Y0008280D01*
X0392533Y0008422D01*
X0392721Y0008569D01*
X0392904Y0008720D01*
X0393084Y0008875D01*
X0393260Y0009035D01*
X0393432Y0009199D01*
X0393601Y0009368D01*
X0393765Y0009540D01*
X0393925Y0009716D01*
X0394080Y0009896D01*
X0394231Y0010079D01*
X0394378Y0010267D01*
X0394520Y0010457D01*
X0394658Y0010652D01*
X0394790Y0010849D01*
X0394918Y0011049D01*
X0395041Y0011253D01*
X0395159Y0011459D01*
X0395273Y0011669D01*
X0395381Y0011881D01*
X0395483Y0012095D01*
X0395581Y0012312D01*
X0395673Y0012531D01*
X0395760Y0012753D01*
X0395842Y0012976D01*
X0395918Y0013201D01*
X0395989Y0013428D01*
X0396054Y0013657D01*
X0396114Y0013887D01*
X0396168Y0014119D01*
X0396217Y0014352D01*
X0396260Y0014586D01*
X0396297Y0014821D01*
X0396328Y0015057D01*
X0396354Y0015293D01*
X0396374Y0015530D01*
X0396389Y0015767D01*
X0396397Y0016005D01*
X0396400Y0016243D01*
X0396400Y0241557D01*
X0396397Y0241795D01*
X0396389Y0242033D01*
X0396374Y0242270D01*
X0396354Y0242507D01*
X0396328Y0242743D01*
X0396297Y0242979D01*
X0396260Y0243214D01*
X0396217Y0243448D01*
X0396168Y0243681D01*
X0396114Y0243913D01*
X0396054Y0244143D01*
X0395989Y0244372D01*
X0395918Y0244599D01*
X0395842Y0244824D01*
X0395760Y0245047D01*
X0395673Y0245269D01*
X0395581Y0245488D01*
X0395483Y0245705D01*
X0395381Y0245919D01*
X0395273Y0246131D01*
X0395159Y0246341D01*
X0395041Y0246547D01*
X0394918Y0246751D01*
X0394790Y0246951D01*
X0394658Y0247148D01*
X0394520Y0247343D01*
X0394378Y0247533D01*
X0394231Y0247721D01*
X0394080Y0247904D01*
X0393925Y0248084D01*
X0393765Y0248260D01*
X0393601Y0248432D01*
X0393432Y0248601D01*
X0393260Y0248765D01*
X0393084Y0248925D01*
X0392904Y0249080D01*
X0392721Y0249231D01*
X0392533Y0249378D01*
X0392343Y0249520D01*
X0392148Y0249658D01*
X0391951Y0249790D01*
X0391751Y0249918D01*
X0391547Y0250041D01*
X0391341Y0250159D01*
X0391131Y0250273D01*
X0390919Y0250381D01*
X0390705Y0250483D01*
X0390488Y0250581D01*
X0390269Y0250673D01*
X0390047Y0250760D01*
X0389824Y0250842D01*
X0389599Y0250918D01*
X0389372Y0250989D01*
X0389143Y0251054D01*
X0388913Y0251114D01*
X0388681Y0251168D01*
X0388448Y0251217D01*
X0388214Y0251260D01*
X0387979Y0251297D01*
X0387743Y0251328D01*
X0387507Y0251354D01*
X0387270Y0251374D01*
X0387033Y0251389D01*
X0386795Y0251397D01*
X0386557Y0251400D01*
X0016243Y0251400D01*
X0016005Y0251397D01*
X0015767Y0251389D01*
X0015530Y0251374D01*
X0015293Y0251354D01*
X0015057Y0251328D01*
X0014821Y0251297D01*
X0014586Y0251260D01*
X0014352Y0251217D01*
X0014119Y0251168D01*
X0013887Y0251114D01*
X0013657Y0251054D01*
X0013428Y0250989D01*
X0013201Y0250918D01*
X0012976Y0250842D01*
X0012753Y0250760D01*
X0012531Y0250673D01*
X0012312Y0250581D01*
X0012095Y0250483D01*
X0011881Y0250381D01*
X0011669Y0250273D01*
X0011459Y0250159D01*
X0011253Y0250041D01*
X0011049Y0249918D01*
X0010849Y0249790D01*
X0010652Y0249658D01*
X0010457Y0249520D01*
X0010267Y0249378D01*
X0010079Y0249231D01*
X0009896Y0249080D01*
X0009716Y0248925D01*
X0009540Y0248765D01*
X0009368Y0248601D01*
X0009199Y0248432D01*
X0009035Y0248260D01*
X0008875Y0248084D01*
X0008720Y0247904D01*
X0008569Y0247721D01*
X0008422Y0247533D01*
X0008280Y0247343D01*
X0008142Y0247148D01*
X0008010Y0246951D01*
X0007882Y0246751D01*
X0007759Y0246547D01*
X0007641Y0246341D01*
X0007527Y0246131D01*
X0007419Y0245919D01*
X0007317Y0245705D01*
X0007219Y0245488D01*
X0007127Y0245269D01*
X0007040Y0245047D01*
X0006958Y0244824D01*
X0006882Y0244599D01*
X0006811Y0244372D01*
X0006746Y0244143D01*
X0006686Y0243913D01*
X0006632Y0243681D01*
X0006583Y0243448D01*
X0006540Y0243214D01*
X0006503Y0242979D01*
X0006472Y0242743D01*
X0006446Y0242507D01*
X0006426Y0242270D01*
X0006411Y0242033D01*
X0006403Y0241795D01*
X0006400Y0241557D01*
X0006400Y0016243D01*
X0006403Y0016005D01*
X0006411Y0015767D01*
X0006426Y0015530D01*
X0006446Y0015293D01*
X0006472Y0015057D01*
X0006503Y0014821D01*
X0006540Y0014586D01*
X0006583Y0014352D01*
X0006632Y0014119D01*
X0006686Y0013887D01*
X0006746Y0013657D01*
X0006811Y0013428D01*
X0006882Y0013201D01*
X0006958Y0012976D01*
X0007040Y0012753D01*
X0007127Y0012531D01*
X0007219Y0012312D01*
X0007317Y0012095D01*
X0007419Y0011881D01*
X0007527Y0011669D01*
X0007641Y0011459D01*
X0007759Y0011253D01*
X0007882Y0011049D01*
X0008010Y0010849D01*
X0008142Y0010652D01*
X0008280Y0010457D01*
X0008422Y0010267D01*
X0008569Y0010079D01*
X0008720Y0009896D01*
X0008875Y0009716D01*
X0009035Y0009540D01*
X0009199Y0009368D01*
X0009368Y0009199D01*
X0009540Y0009035D01*
X0009716Y0008875D01*
X0009896Y0008720D01*
X0010079Y0008569D01*
X0010267Y0008422D01*
X0010457Y0008280D01*
X0010652Y0008142D01*
X0010849Y0008010D01*
X0011049Y0007882D01*
X0011253Y0007759D01*
X0011459Y0007641D01*
X0011669Y0007527D01*
X0011881Y0007419D01*
X0012095Y0007317D01*
X0012312Y0007219D01*
X0012531Y0007127D01*
X0012753Y0007040D01*
X0012976Y0006958D01*
X0013201Y0006882D01*
X0013428Y0006811D01*
X0013657Y0006746D01*
X0013887Y0006686D01*
X0014119Y0006632D01*
X0014352Y0006583D01*
X0014586Y0006540D01*
X0014821Y0006503D01*
X0015057Y0006472D01*
X0015293Y0006446D01*
X0015530Y0006426D01*
X0015767Y0006411D01*
X0016005Y0006403D01*
X0016243Y0006400D01*
X0306400Y0011400D02*
X0306400Y0036400D01*
X0306540Y0036402D01*
X0306680Y0036408D01*
X0306820Y0036418D01*
X0306960Y0036431D01*
X0307099Y0036449D01*
X0307238Y0036471D01*
X0307375Y0036496D01*
X0307513Y0036525D01*
X0307649Y0036558D01*
X0307784Y0036595D01*
X0307918Y0036636D01*
X0308051Y0036681D01*
X0308183Y0036729D01*
X0308313Y0036781D01*
X0308442Y0036836D01*
X0308569Y0036895D01*
X0308695Y0036958D01*
X0308819Y0037024D01*
X0308940Y0037093D01*
X0309060Y0037166D01*
X0309178Y0037243D01*
X0309293Y0037322D01*
X0309407Y0037405D01*
X0309517Y0037491D01*
X0309626Y0037580D01*
X0309732Y0037672D01*
X0309835Y0037767D01*
X0309936Y0037864D01*
X0310033Y0037965D01*
X0310128Y0038068D01*
X0310220Y0038174D01*
X0310309Y0038283D01*
X0310395Y0038393D01*
X0310478Y0038507D01*
X0310557Y0038622D01*
X0310634Y0038740D01*
X0310707Y0038860D01*
X0310776Y0038981D01*
X0310842Y0039105D01*
X0310905Y0039231D01*
X0310964Y0039358D01*
X0311019Y0039487D01*
X0311071Y0039617D01*
X0311119Y0039749D01*
X0311164Y0039882D01*
X0311205Y0040016D01*
X0311242Y0040151D01*
X0311275Y0040287D01*
X0311304Y0040425D01*
X0311329Y0040562D01*
X0311351Y0040701D01*
X0311369Y0040840D01*
X0311382Y0040980D01*
X0311392Y0041120D01*
X0311398Y0041260D01*
X0311400Y0041400D01*
X0311400Y0046400D01*
X0316400Y0046400D01*
X0316400Y0036400D01*
X0316398Y0036260D01*
X0316392Y0036120D01*
X0316382Y0035980D01*
X0316369Y0035840D01*
X0316351Y0035701D01*
X0316329Y0035562D01*
X0316304Y0035425D01*
X0316275Y0035287D01*
X0316242Y0035151D01*
X0316205Y0035016D01*
X0316164Y0034882D01*
X0316119Y0034749D01*
X0316071Y0034617D01*
X0316019Y0034487D01*
X0315964Y0034358D01*
X0315905Y0034231D01*
X0315842Y0034105D01*
X0315776Y0033981D01*
X0315707Y0033860D01*
X0315634Y0033740D01*
X0315557Y0033622D01*
X0315478Y0033507D01*
X0315395Y0033393D01*
X0315309Y0033283D01*
X0315220Y0033174D01*
X0315128Y0033068D01*
X0315033Y0032965D01*
X0314936Y0032864D01*
X0314835Y0032767D01*
X0314732Y0032672D01*
X0314626Y0032580D01*
X0314517Y0032491D01*
X0314407Y0032405D01*
X0314293Y0032322D01*
X0314178Y0032243D01*
X0314060Y0032166D01*
X0313940Y0032093D01*
X0313819Y0032024D01*
X0313695Y0031958D01*
X0313569Y0031895D01*
X0313442Y0031836D01*
X0313313Y0031781D01*
X0313183Y0031729D01*
X0313051Y0031681D01*
X0312918Y0031636D01*
X0312784Y0031595D01*
X0312649Y0031558D01*
X0312513Y0031525D01*
X0312375Y0031496D01*
X0312238Y0031471D01*
X0312099Y0031449D01*
X0311960Y0031431D01*
X0311820Y0031418D01*
X0311680Y0031408D01*
X0311540Y0031402D01*
X0311400Y0031400D01*
X0311400Y0011400D01*
X0306400Y0011400D02*
X0306402Y0011260D01*
X0306408Y0011120D01*
X0306418Y0010980D01*
X0306431Y0010840D01*
X0306449Y0010701D01*
X0306471Y0010562D01*
X0306496Y0010425D01*
X0306525Y0010287D01*
X0306558Y0010151D01*
X0306595Y0010016D01*
X0306636Y0009882D01*
X0306681Y0009749D01*
X0306729Y0009617D01*
X0306781Y0009487D01*
X0306836Y0009358D01*
X0306895Y0009231D01*
X0306958Y0009105D01*
X0307024Y0008981D01*
X0307093Y0008860D01*
X0307166Y0008740D01*
X0307243Y0008622D01*
X0307322Y0008507D01*
X0307405Y0008393D01*
X0307491Y0008283D01*
X0307580Y0008174D01*
X0307672Y0008068D01*
X0307767Y0007965D01*
X0307864Y0007864D01*
X0307965Y0007767D01*
X0308068Y0007672D01*
X0308174Y0007580D01*
X0308283Y0007491D01*
X0308393Y0007405D01*
X0308507Y0007322D01*
X0308622Y0007243D01*
X0308740Y0007166D01*
X0308860Y0007093D01*
X0308981Y0007024D01*
X0309105Y0006958D01*
X0309231Y0006895D01*
X0309358Y0006836D01*
X0309487Y0006781D01*
X0309617Y0006729D01*
X0309749Y0006681D01*
X0309882Y0006636D01*
X0310016Y0006595D01*
X0310151Y0006558D01*
X0310287Y0006525D01*
X0310425Y0006496D01*
X0310562Y0006471D01*
X0310701Y0006449D01*
X0310840Y0006431D01*
X0310980Y0006418D01*
X0311120Y0006408D01*
X0311260Y0006402D01*
X0311400Y0006400D01*
X0311400Y0011400D02*
X0311402Y0011260D01*
X0311408Y0011120D01*
X0311418Y0010980D01*
X0311431Y0010840D01*
X0311449Y0010701D01*
X0311471Y0010562D01*
X0311496Y0010425D01*
X0311525Y0010287D01*
X0311558Y0010151D01*
X0311595Y0010016D01*
X0311636Y0009882D01*
X0311681Y0009749D01*
X0311729Y0009617D01*
X0311781Y0009487D01*
X0311836Y0009358D01*
X0311895Y0009231D01*
X0311958Y0009105D01*
X0312024Y0008981D01*
X0312093Y0008860D01*
X0312166Y0008740D01*
X0312243Y0008622D01*
X0312322Y0008507D01*
X0312405Y0008393D01*
X0312491Y0008283D01*
X0312580Y0008174D01*
X0312672Y0008068D01*
X0312767Y0007965D01*
X0312864Y0007864D01*
X0312965Y0007767D01*
X0313068Y0007672D01*
X0313174Y0007580D01*
X0313283Y0007491D01*
X0313393Y0007405D01*
X0313507Y0007322D01*
X0313622Y0007243D01*
X0313740Y0007166D01*
X0313860Y0007093D01*
X0313981Y0007024D01*
X0314105Y0006958D01*
X0314231Y0006895D01*
X0314358Y0006836D01*
X0314487Y0006781D01*
X0314617Y0006729D01*
X0314749Y0006681D01*
X0314882Y0006636D01*
X0315016Y0006595D01*
X0315151Y0006558D01*
X0315287Y0006525D01*
X0315425Y0006496D01*
X0315562Y0006471D01*
X0315701Y0006449D01*
X0315840Y0006431D01*
X0315980Y0006418D01*
X0316120Y0006408D01*
X0316260Y0006402D01*
X0316400Y0006400D01*
X0326400Y0006400D02*
X0326540Y0006402D01*
X0326680Y0006408D01*
X0326820Y0006418D01*
X0326960Y0006431D01*
X0327099Y0006449D01*
X0327238Y0006471D01*
X0327375Y0006496D01*
X0327513Y0006525D01*
X0327649Y0006558D01*
X0327784Y0006595D01*
X0327918Y0006636D01*
X0328051Y0006681D01*
X0328183Y0006729D01*
X0328313Y0006781D01*
X0328442Y0006836D01*
X0328569Y0006895D01*
X0328695Y0006958D01*
X0328819Y0007024D01*
X0328940Y0007093D01*
X0329060Y0007166D01*
X0329178Y0007243D01*
X0329293Y0007322D01*
X0329407Y0007405D01*
X0329517Y0007491D01*
X0329626Y0007580D01*
X0329732Y0007672D01*
X0329835Y0007767D01*
X0329936Y0007864D01*
X0330033Y0007965D01*
X0330128Y0008068D01*
X0330220Y0008174D01*
X0330309Y0008283D01*
X0330395Y0008393D01*
X0330478Y0008507D01*
X0330557Y0008622D01*
X0330634Y0008740D01*
X0330707Y0008860D01*
X0330776Y0008981D01*
X0330842Y0009105D01*
X0330905Y0009231D01*
X0330964Y0009358D01*
X0331019Y0009487D01*
X0331071Y0009617D01*
X0331119Y0009749D01*
X0331164Y0009882D01*
X0331205Y0010016D01*
X0331242Y0010151D01*
X0331275Y0010287D01*
X0331304Y0010425D01*
X0331329Y0010562D01*
X0331351Y0010701D01*
X0331369Y0010840D01*
X0331382Y0010980D01*
X0331392Y0011120D01*
X0331398Y0011260D01*
X0331400Y0011400D01*
X0331400Y0006400D02*
X0331540Y0006402D01*
X0331680Y0006408D01*
X0331820Y0006418D01*
X0331960Y0006431D01*
X0332099Y0006449D01*
X0332238Y0006471D01*
X0332375Y0006496D01*
X0332513Y0006525D01*
X0332649Y0006558D01*
X0332784Y0006595D01*
X0332918Y0006636D01*
X0333051Y0006681D01*
X0333183Y0006729D01*
X0333313Y0006781D01*
X0333442Y0006836D01*
X0333569Y0006895D01*
X0333695Y0006958D01*
X0333819Y0007024D01*
X0333940Y0007093D01*
X0334060Y0007166D01*
X0334178Y0007243D01*
X0334293Y0007322D01*
X0334407Y0007405D01*
X0334517Y0007491D01*
X0334626Y0007580D01*
X0334732Y0007672D01*
X0334835Y0007767D01*
X0334936Y0007864D01*
X0335033Y0007965D01*
X0335128Y0008068D01*
X0335220Y0008174D01*
X0335309Y0008283D01*
X0335395Y0008393D01*
X0335478Y0008507D01*
X0335557Y0008622D01*
X0335634Y0008740D01*
X0335707Y0008860D01*
X0335776Y0008981D01*
X0335842Y0009105D01*
X0335905Y0009231D01*
X0335964Y0009358D01*
X0336019Y0009487D01*
X0336071Y0009617D01*
X0336119Y0009749D01*
X0336164Y0009882D01*
X0336205Y0010016D01*
X0336242Y0010151D01*
X0336275Y0010287D01*
X0336304Y0010425D01*
X0336329Y0010562D01*
X0336351Y0010701D01*
X0336369Y0010840D01*
X0336382Y0010980D01*
X0336392Y0011120D01*
X0336398Y0011260D01*
X0336400Y0011400D01*
X0336400Y0036400D01*
X0336260Y0036402D01*
X0336120Y0036408D01*
X0335980Y0036418D01*
X0335840Y0036431D01*
X0335701Y0036449D01*
X0335562Y0036471D01*
X0335425Y0036496D01*
X0335287Y0036525D01*
X0335151Y0036558D01*
X0335016Y0036595D01*
X0334882Y0036636D01*
X0334749Y0036681D01*
X0334617Y0036729D01*
X0334487Y0036781D01*
X0334358Y0036836D01*
X0334231Y0036895D01*
X0334105Y0036958D01*
X0333981Y0037024D01*
X0333860Y0037093D01*
X0333740Y0037166D01*
X0333622Y0037243D01*
X0333507Y0037322D01*
X0333393Y0037405D01*
X0333283Y0037491D01*
X0333174Y0037580D01*
X0333068Y0037672D01*
X0332965Y0037767D01*
X0332864Y0037864D01*
X0332767Y0037965D01*
X0332672Y0038068D01*
X0332580Y0038174D01*
X0332491Y0038283D01*
X0332405Y0038393D01*
X0332322Y0038507D01*
X0332243Y0038622D01*
X0332166Y0038740D01*
X0332093Y0038860D01*
X0332024Y0038981D01*
X0331958Y0039105D01*
X0331895Y0039231D01*
X0331836Y0039358D01*
X0331781Y0039487D01*
X0331729Y0039617D01*
X0331681Y0039749D01*
X0331636Y0039882D01*
X0331595Y0040016D01*
X0331558Y0040151D01*
X0331525Y0040287D01*
X0331496Y0040425D01*
X0331471Y0040562D01*
X0331449Y0040701D01*
X0331431Y0040840D01*
X0331418Y0040980D01*
X0331408Y0041120D01*
X0331402Y0041260D01*
X0331400Y0041400D01*
X0331400Y0046400D01*
X0326400Y0046400D01*
X0326400Y0036400D01*
X0326402Y0036260D01*
X0326408Y0036120D01*
X0326418Y0035980D01*
X0326431Y0035840D01*
X0326449Y0035701D01*
X0326471Y0035562D01*
X0326496Y0035425D01*
X0326525Y0035287D01*
X0326558Y0035151D01*
X0326595Y0035016D01*
X0326636Y0034882D01*
X0326681Y0034749D01*
X0326729Y0034617D01*
X0326781Y0034487D01*
X0326836Y0034358D01*
X0326895Y0034231D01*
X0326958Y0034105D01*
X0327024Y0033981D01*
X0327093Y0033860D01*
X0327166Y0033740D01*
X0327243Y0033622D01*
X0327322Y0033507D01*
X0327405Y0033393D01*
X0327491Y0033283D01*
X0327580Y0033174D01*
X0327672Y0033068D01*
X0327767Y0032965D01*
X0327864Y0032864D01*
X0327965Y0032767D01*
X0328068Y0032672D01*
X0328174Y0032580D01*
X0328283Y0032491D01*
X0328393Y0032405D01*
X0328507Y0032322D01*
X0328622Y0032243D01*
X0328740Y0032166D01*
X0328860Y0032093D01*
X0328981Y0032024D01*
X0329105Y0031958D01*
X0329231Y0031895D01*
X0329358Y0031836D01*
X0329487Y0031781D01*
X0329617Y0031729D01*
X0329749Y0031681D01*
X0329882Y0031636D01*
X0330016Y0031595D01*
X0330151Y0031558D01*
X0330287Y0031525D01*
X0330425Y0031496D01*
X0330562Y0031471D01*
X0330701Y0031449D01*
X0330840Y0031431D01*
X0330980Y0031418D01*
X0331120Y0031408D01*
X0331260Y0031402D01*
X0331400Y0031400D01*
X0331400Y0011400D01*
D12*
X0085022Y0098369D03*
X0043329Y0105101D03*
D13*
X0046701Y0123301D02*
X0047902Y0123301D01*
X0048502Y0123901D01*
X0048502Y0126904D01*
X0049783Y0126303D02*
X0050384Y0126904D01*
X0051585Y0126904D01*
X0052185Y0126303D01*
X0053466Y0126303D02*
X0054067Y0126904D01*
X0055268Y0126904D01*
X0055868Y0126303D01*
X0055868Y0125703D01*
X0053466Y0123301D01*
X0055868Y0123301D01*
X0052185Y0123901D02*
X0052185Y0124502D01*
X0051585Y0125102D01*
X0050384Y0125102D01*
X0049783Y0125703D01*
X0049783Y0126303D01*
X0050984Y0127504D02*
X0050984Y0122700D01*
X0050384Y0123301D02*
X0051585Y0123301D01*
X0052185Y0123901D01*
X0050384Y0123301D02*
X0049783Y0123901D01*
X0046701Y0123301D02*
X0046100Y0123901D01*
X0046100Y0126904D01*
X0049234Y0144798D02*
X0053838Y0144798D01*
X0053838Y0147868D01*
X0053838Y0149402D02*
X0053838Y0152472D01*
X0053838Y0154006D02*
X0049234Y0154006D01*
X0049234Y0156308D01*
X0050001Y0157076D01*
X0053070Y0157076D01*
X0053838Y0156308D01*
X0053838Y0154006D01*
X0051536Y0150937D02*
X0051536Y0149402D01*
X0049234Y0149402D02*
X0053838Y0149402D01*
X0049234Y0149402D02*
X0049234Y0152472D01*
X0047184Y0153332D02*
X0047184Y0156402D01*
X0047184Y0157936D02*
X0047184Y0161005D01*
X0047184Y0162540D02*
X0047184Y0164842D01*
X0046417Y0165609D01*
X0043348Y0165609D01*
X0042580Y0164842D01*
X0042580Y0162540D01*
X0047184Y0162540D01*
X0049234Y0160912D02*
X0049234Y0159378D01*
X0050001Y0158610D01*
X0049234Y0160912D02*
X0050001Y0161679D01*
X0050769Y0161679D01*
X0053838Y0158610D01*
X0053838Y0161679D01*
X0047184Y0157936D02*
X0042580Y0157936D01*
X0042580Y0161005D01*
X0044882Y0159471D02*
X0044882Y0157936D01*
X0042580Y0153332D02*
X0047184Y0153332D01*
X0047184Y0167144D02*
X0047184Y0170213D01*
X0047184Y0168679D02*
X0042580Y0168679D01*
X0044115Y0167144D01*
X0076211Y0191481D02*
X0081732Y0191837D01*
X0077745Y0194139D01*
X0079842Y0194701D02*
X0079280Y0196797D01*
X0083267Y0194495D01*
X0082500Y0193166D02*
X0084034Y0195824D01*
X0080198Y0189179D02*
X0076211Y0191481D01*
X0144454Y0135943D02*
X0144454Y0133357D01*
X0144971Y0132840D01*
X0146006Y0132840D01*
X0146523Y0133357D01*
X0146523Y0135943D01*
X0147677Y0134391D02*
X0149746Y0134391D01*
X0149228Y0132840D02*
X0149228Y0135943D01*
X0147677Y0134391D01*
X0181305Y0137432D02*
X0181822Y0136915D01*
X0182856Y0136915D01*
X0183373Y0137432D01*
X0183373Y0137949D01*
X0182856Y0138466D01*
X0181822Y0138466D01*
X0181305Y0138983D01*
X0181305Y0139500D01*
X0181822Y0140018D01*
X0182856Y0140018D01*
X0183373Y0139500D01*
X0184527Y0140018D02*
X0184527Y0136915D01*
X0185562Y0137949D01*
X0186596Y0136915D01*
X0186596Y0140018D01*
X0187750Y0139500D02*
X0188267Y0140018D01*
X0189302Y0140018D01*
X0189819Y0139500D01*
X0189819Y0138983D01*
X0187750Y0136915D01*
X0189819Y0136915D01*
X0170198Y0189179D02*
X0166211Y0191481D01*
X0171732Y0191837D01*
X0167745Y0194139D01*
X0169177Y0195084D02*
X0168896Y0196133D01*
X0169663Y0197462D01*
X0170712Y0197743D01*
X0171376Y0197359D01*
X0172500Y0193166D01*
X0174034Y0195824D01*
X0082558Y0130828D02*
X0082558Y0127759D01*
X0082558Y0129294D02*
X0077954Y0129294D01*
X0079489Y0127759D01*
X0077954Y0126224D02*
X0077954Y0123155D01*
X0077954Y0124690D02*
X0082558Y0124690D01*
X0089134Y0111441D02*
X0089134Y0106637D01*
X0089734Y0107238D02*
X0090335Y0107838D01*
X0090335Y0108439D01*
X0089734Y0109039D01*
X0088533Y0109039D01*
X0087933Y0109640D01*
X0087933Y0110240D01*
X0088533Y0110841D01*
X0089734Y0110841D01*
X0090335Y0110240D01*
X0091616Y0109640D02*
X0092817Y0110841D01*
X0092817Y0107238D01*
X0091616Y0107238D02*
X0094018Y0107238D01*
X0089734Y0107238D02*
X0088533Y0107238D01*
X0087933Y0107838D01*
X0086652Y0107838D02*
X0086652Y0110841D01*
X0084250Y0110841D02*
X0084250Y0107838D01*
X0084850Y0107238D01*
X0086051Y0107238D01*
X0086652Y0107838D01*
X0264100Y0046204D02*
X0265635Y0046204D01*
X0264867Y0046204D02*
X0264867Y0041600D01*
X0264100Y0041600D02*
X0265635Y0041600D01*
X0267169Y0042367D02*
X0267937Y0041600D01*
X0269471Y0041600D01*
X0270239Y0042367D01*
X0271773Y0042367D02*
X0272541Y0041600D01*
X0274075Y0041600D01*
X0274842Y0042367D01*
X0274842Y0043135D01*
X0274075Y0043902D01*
X0273308Y0043902D01*
X0274075Y0043902D02*
X0274842Y0044669D01*
X0274842Y0045437D01*
X0274075Y0046204D01*
X0272541Y0046204D01*
X0271773Y0045437D01*
X0270239Y0045437D02*
X0269471Y0046204D01*
X0267937Y0046204D01*
X0267169Y0045437D01*
X0267169Y0042367D01*
X0295198Y0189179D02*
X0291211Y0191481D01*
X0296732Y0191837D01*
X0292745Y0194139D01*
X0294177Y0195084D02*
X0293896Y0196133D01*
X0294663Y0197462D01*
X0295712Y0197743D01*
X0296376Y0197359D01*
X0296657Y0196311D01*
X0297705Y0196592D01*
X0298370Y0196208D01*
X0298651Y0195160D01*
X0297883Y0193831D01*
X0296835Y0193550D01*
X0296273Y0195646D02*
X0296657Y0196311D01*
X0381211Y0191481D02*
X0386732Y0191837D01*
X0382745Y0194139D01*
X0385506Y0194317D02*
X0387041Y0196975D01*
X0388651Y0195160D02*
X0384663Y0197462D01*
X0385506Y0194317D01*
X0381211Y0191481D02*
X0385198Y0189179D01*
D14*
X0271897Y0159450D02*
X0270897Y0159450D01*
X0270424Y0159450D02*
X0269423Y0159450D01*
X0269924Y0159450D02*
X0269924Y0160951D01*
X0269423Y0160451D01*
X0268951Y0160701D02*
X0268701Y0160951D01*
X0268200Y0160951D01*
X0267950Y0160701D01*
X0267950Y0159700D01*
X0268200Y0159450D01*
X0268701Y0159450D01*
X0268951Y0159700D01*
X0270897Y0160451D02*
X0271397Y0160951D01*
X0271397Y0159450D01*
X0244282Y0163450D02*
X0243282Y0163450D01*
X0243782Y0163450D02*
X0243782Y0164951D01*
X0243282Y0164451D01*
X0242809Y0164701D02*
X0242559Y0164951D01*
X0242058Y0164951D01*
X0241808Y0164701D01*
X0241808Y0164451D01*
X0242058Y0164201D01*
X0242559Y0164201D01*
X0242809Y0163950D01*
X0242809Y0163700D01*
X0242559Y0163450D01*
X0242058Y0163450D01*
X0241808Y0163700D01*
X0207567Y0163586D02*
X0206566Y0163586D01*
X0207316Y0164337D01*
X0207316Y0162836D01*
X0206093Y0162836D02*
X0205093Y0162836D01*
X0204620Y0162836D02*
X0204120Y0163336D01*
X0204370Y0163336D02*
X0203619Y0163336D01*
X0203619Y0162836D02*
X0203619Y0164337D01*
X0204370Y0164337D01*
X0204620Y0164087D01*
X0204620Y0163586D01*
X0204370Y0163336D01*
X0205093Y0163837D02*
X0205593Y0164337D01*
X0205593Y0162836D01*
X0179216Y0153166D02*
X0179216Y0152666D01*
X0178966Y0152415D01*
X0178466Y0152415D01*
X0178466Y0153166D01*
X0178716Y0153416D01*
X0178966Y0153416D01*
X0179216Y0153166D01*
X0178466Y0152415D02*
X0177965Y0152916D01*
X0177715Y0153416D01*
X0177965Y0151943D02*
X0177715Y0151693D01*
X0177715Y0151192D01*
X0177965Y0150942D01*
X0178966Y0150942D01*
X0179216Y0151192D01*
X0179216Y0151693D01*
X0178966Y0151943D01*
X0233266Y0122038D02*
X0233266Y0121037D01*
X0233516Y0120565D02*
X0233266Y0120315D01*
X0233266Y0119814D01*
X0233516Y0119564D01*
X0234517Y0119564D01*
X0234767Y0119814D01*
X0234767Y0120315D01*
X0234517Y0120565D01*
X0234517Y0121037D02*
X0234767Y0121037D01*
X0234517Y0121037D02*
X0233516Y0122038D01*
X0233266Y0122038D01*
X0254501Y0136307D02*
X0254751Y0136056D01*
X0255252Y0136056D01*
X0255502Y0136307D01*
X0255502Y0137558D01*
X0255974Y0137307D02*
X0256225Y0137558D01*
X0256725Y0137558D01*
X0256975Y0137307D01*
X0256975Y0137057D01*
X0256725Y0136807D01*
X0256975Y0136557D01*
X0256975Y0136307D01*
X0256725Y0136056D01*
X0256225Y0136056D01*
X0255974Y0136307D01*
X0256475Y0136807D02*
X0256725Y0136807D01*
X0254501Y0136307D02*
X0254501Y0137558D01*
X0241527Y0105580D02*
X0241777Y0105330D01*
X0241777Y0104829D01*
X0241527Y0104579D01*
X0241276Y0104579D01*
X0241026Y0104829D01*
X0241026Y0105330D01*
X0241276Y0105580D01*
X0241527Y0105580D01*
X0241026Y0105330D02*
X0240776Y0105580D01*
X0240526Y0105580D01*
X0240275Y0105330D01*
X0240275Y0104829D01*
X0240526Y0104579D01*
X0240776Y0104579D01*
X0241026Y0104829D01*
X0240526Y0104107D02*
X0240275Y0103856D01*
X0240275Y0103356D01*
X0240526Y0103106D01*
X0241527Y0103106D01*
X0241777Y0103356D01*
X0241777Y0103856D01*
X0241527Y0104107D01*
X0270863Y0075676D02*
X0271614Y0075676D01*
X0271864Y0075425D01*
X0271864Y0074925D01*
X0271614Y0074675D01*
X0270863Y0074675D01*
X0270863Y0074174D02*
X0270863Y0075676D01*
X0271364Y0074675D02*
X0271864Y0074174D01*
X0272337Y0074174D02*
X0273337Y0074174D01*
X0273810Y0074174D02*
X0274811Y0075175D01*
X0274811Y0075425D01*
X0274561Y0075676D01*
X0274060Y0075676D01*
X0273810Y0075425D01*
X0272837Y0075676D02*
X0272837Y0074174D01*
X0273810Y0074174D02*
X0274811Y0074174D01*
X0272837Y0075676D02*
X0272337Y0075175D01*
X0293326Y0068430D02*
X0293326Y0066929D01*
X0293326Y0067429D02*
X0294076Y0067429D01*
X0294326Y0067679D01*
X0294326Y0068180D01*
X0294076Y0068430D01*
X0293326Y0068430D01*
X0293826Y0067429D02*
X0294326Y0066929D01*
X0294799Y0066929D02*
X0295800Y0066929D01*
X0295299Y0066929D02*
X0295299Y0068430D01*
X0294799Y0067930D01*
X0296272Y0068180D02*
X0296522Y0068430D01*
X0297023Y0068430D01*
X0297273Y0068180D01*
X0297273Y0067930D01*
X0297023Y0067679D01*
X0297273Y0067429D01*
X0297273Y0067179D01*
X0297023Y0066929D01*
X0296522Y0066929D01*
X0296272Y0067179D01*
X0296772Y0067679D02*
X0297023Y0067679D01*
X0314754Y0025573D02*
X0314754Y0024786D01*
X0317707Y0024786D01*
X0317707Y0025573D01*
X0314754Y0025573D01*
X0314754Y0025559D02*
X0317707Y0025559D01*
X0317707Y0025461D02*
X0314754Y0025461D01*
X0314754Y0025362D02*
X0317707Y0025362D01*
X0317707Y0025264D02*
X0314754Y0025264D01*
X0314754Y0025165D02*
X0317707Y0025165D01*
X0317707Y0025067D02*
X0314754Y0025067D01*
X0314754Y0024968D02*
X0317707Y0024968D01*
X0317707Y0024870D02*
X0314754Y0024870D01*
X0325581Y0024870D02*
X0326959Y0024870D01*
X0326959Y0024786D02*
X0326959Y0025573D01*
X0325581Y0025573D01*
X0325581Y0024786D01*
X0326959Y0024786D01*
X0326959Y0024968D02*
X0325581Y0024968D01*
X0325581Y0025067D02*
X0326959Y0025067D01*
X0326959Y0025165D02*
X0325581Y0025165D01*
X0325581Y0025264D02*
X0326959Y0025264D01*
X0326959Y0025362D02*
X0325581Y0025362D01*
X0325581Y0025461D02*
X0326959Y0025461D01*
X0326959Y0025559D02*
X0325581Y0025559D01*
X0325581Y0012581D02*
X0325581Y0011794D01*
X0326959Y0011794D01*
X0326959Y0012581D01*
X0325581Y0012581D01*
X0325581Y0012556D02*
X0326959Y0012556D01*
X0326959Y0012457D02*
X0325581Y0012457D01*
X0325581Y0012359D02*
X0326959Y0012359D01*
X0326959Y0012260D02*
X0325581Y0012260D01*
X0325581Y0012162D02*
X0326959Y0012162D01*
X0326959Y0012063D02*
X0325581Y0012063D01*
X0325581Y0011965D02*
X0326959Y0011965D01*
X0326959Y0011866D02*
X0325581Y0011866D01*
X0316132Y0011866D02*
X0314754Y0011866D01*
X0314754Y0011794D02*
X0314754Y0012581D01*
X0316132Y0012581D01*
X0316132Y0011794D01*
X0314754Y0011794D01*
X0314754Y0011965D02*
X0316132Y0011965D01*
X0316132Y0012063D02*
X0314754Y0012063D01*
X0314754Y0012162D02*
X0316132Y0012162D01*
X0316132Y0012260D02*
X0314754Y0012260D01*
X0314754Y0012359D02*
X0316132Y0012359D01*
X0316132Y0012457D02*
X0314754Y0012457D01*
X0314754Y0012556D02*
X0316132Y0012556D01*
X0223534Y0019661D02*
X0223534Y0020662D01*
X0223284Y0020912D01*
X0222784Y0020912D01*
X0222533Y0020662D01*
X0222533Y0020411D01*
X0222784Y0020161D01*
X0223534Y0020161D01*
X0223534Y0019661D02*
X0223284Y0019411D01*
X0222784Y0019411D01*
X0222533Y0019661D01*
X0222061Y0019411D02*
X0221561Y0019911D01*
X0221811Y0019911D02*
X0221060Y0019911D01*
X0221060Y0019411D02*
X0221060Y0020912D01*
X0221811Y0020912D01*
X0222061Y0020662D01*
X0222061Y0020161D01*
X0221811Y0019911D01*
X0199322Y0019900D02*
X0199072Y0019649D01*
X0198571Y0019649D01*
X0198321Y0019900D01*
X0198321Y0020150D01*
X0198571Y0020400D01*
X0199072Y0020400D01*
X0199322Y0020150D01*
X0199322Y0019900D01*
X0199072Y0019649D02*
X0199322Y0019399D01*
X0199322Y0019149D01*
X0199072Y0018899D01*
X0198571Y0018899D01*
X0198321Y0019149D01*
X0198321Y0019399D01*
X0198571Y0019649D01*
X0197848Y0019649D02*
X0197598Y0019399D01*
X0196848Y0019399D01*
X0197348Y0019399D02*
X0197848Y0018899D01*
X0197848Y0019649D02*
X0197848Y0020150D01*
X0197598Y0020400D01*
X0196848Y0020400D01*
X0196848Y0018899D01*
X0172944Y0019874D02*
X0171943Y0018873D01*
X0171943Y0018623D01*
X0171471Y0018623D02*
X0170970Y0019124D01*
X0171220Y0019124D02*
X0170470Y0019124D01*
X0170470Y0018623D02*
X0170470Y0020125D01*
X0171220Y0020125D01*
X0171471Y0019874D01*
X0171471Y0019374D01*
X0171220Y0019124D01*
X0171943Y0020125D02*
X0172944Y0020125D01*
X0172944Y0019874D01*
X0148456Y0019818D02*
X0148456Y0020069D01*
X0148205Y0020319D01*
X0147455Y0020319D01*
X0147455Y0019818D01*
X0147705Y0019568D01*
X0148205Y0019568D01*
X0148456Y0019818D01*
X0147955Y0020819D02*
X0147455Y0020319D01*
X0146982Y0020319D02*
X0146732Y0020069D01*
X0145981Y0020069D01*
X0145981Y0019568D02*
X0145981Y0021069D01*
X0146732Y0021069D01*
X0146982Y0020819D01*
X0146982Y0020319D01*
X0146482Y0020069D02*
X0146982Y0019568D01*
X0147955Y0020819D02*
X0148456Y0021069D01*
X0087366Y0061415D02*
X0085864Y0061415D01*
X0085864Y0062165D01*
X0086115Y0062415D01*
X0086615Y0062415D01*
X0086865Y0062165D01*
X0086865Y0061415D01*
X0086865Y0061915D02*
X0087366Y0062415D01*
X0087116Y0062888D02*
X0087366Y0063138D01*
X0087366Y0063638D01*
X0087116Y0063889D01*
X0086615Y0063889D01*
X0086365Y0063638D01*
X0086365Y0063388D01*
X0086615Y0062888D01*
X0085864Y0062888D01*
X0085864Y0063889D01*
X0086981Y0078462D02*
X0087982Y0078462D01*
X0088232Y0078712D01*
X0088232Y0079212D01*
X0087982Y0079463D01*
X0087982Y0079935D02*
X0088232Y0080185D01*
X0088232Y0080686D01*
X0087982Y0080936D01*
X0087731Y0080936D01*
X0087481Y0080686D01*
X0087481Y0080435D01*
X0087481Y0080686D02*
X0087231Y0080936D01*
X0086981Y0080936D01*
X0086731Y0080686D01*
X0086731Y0080185D01*
X0086981Y0079935D01*
X0086981Y0079463D02*
X0086731Y0079212D01*
X0086731Y0078712D01*
X0086981Y0078462D01*
X0075161Y0078911D02*
X0074661Y0078411D01*
X0074661Y0078661D02*
X0074661Y0077911D01*
X0075161Y0077911D02*
X0073660Y0077911D01*
X0073660Y0078661D01*
X0073910Y0078911D01*
X0074410Y0078911D01*
X0074661Y0078661D01*
X0074410Y0079384D02*
X0074410Y0080385D01*
X0073660Y0080135D02*
X0074410Y0079384D01*
X0073660Y0080135D02*
X0075161Y0080135D01*
X0062826Y0072118D02*
X0062575Y0072369D01*
X0062075Y0072369D01*
X0061825Y0072118D01*
X0061825Y0071868D01*
X0062075Y0071618D01*
X0062826Y0071618D01*
X0062826Y0071118D02*
X0062826Y0072118D01*
X0062826Y0071118D02*
X0062575Y0070867D01*
X0062075Y0070867D01*
X0061825Y0071118D01*
X0061352Y0071118D02*
X0061102Y0070867D01*
X0060602Y0070867D01*
X0060352Y0071118D01*
X0060352Y0072118D01*
X0060602Y0072369D01*
X0061102Y0072369D01*
X0061352Y0072118D01*
X0060253Y0087993D02*
X0059752Y0087993D01*
X0059502Y0088244D01*
X0059030Y0087993D02*
X0058529Y0088494D01*
X0058779Y0088494D02*
X0058029Y0088494D01*
X0058029Y0087993D02*
X0058029Y0089495D01*
X0058779Y0089495D01*
X0059030Y0089244D01*
X0059030Y0088744D01*
X0058779Y0088494D01*
X0059502Y0089244D02*
X0059752Y0089495D01*
X0060253Y0089495D01*
X0060503Y0089244D01*
X0060503Y0088994D01*
X0060253Y0088744D01*
X0060503Y0088494D01*
X0060503Y0088244D01*
X0060253Y0087993D01*
X0060253Y0088744D02*
X0060002Y0088744D01*
X0041723Y0088390D02*
X0040722Y0088390D01*
X0041473Y0089140D01*
X0041473Y0087639D01*
X0040250Y0087889D02*
X0040000Y0087639D01*
X0039499Y0087639D01*
X0039249Y0087889D01*
X0039249Y0088890D01*
X0039499Y0089140D01*
X0040000Y0089140D01*
X0040250Y0088890D01*
X0080118Y0117884D02*
X0080368Y0117633D01*
X0081369Y0117633D01*
X0081619Y0117884D01*
X0081619Y0118384D01*
X0081369Y0118634D01*
X0081369Y0119107D02*
X0081619Y0119357D01*
X0081619Y0119857D01*
X0081369Y0120108D01*
X0080869Y0120108D01*
X0080618Y0119857D01*
X0080618Y0119607D01*
X0080869Y0119107D01*
X0080118Y0119107D01*
X0080118Y0120108D01*
X0080368Y0118634D02*
X0080118Y0118384D01*
X0080118Y0117884D01*
X0107159Y0101284D02*
X0107159Y0100283D01*
X0107409Y0100033D01*
X0107909Y0100033D01*
X0108160Y0100283D01*
X0108632Y0100033D02*
X0109633Y0100033D01*
X0109132Y0100033D02*
X0109132Y0101534D01*
X0108632Y0101034D01*
X0108160Y0101284D02*
X0107909Y0101534D01*
X0107409Y0101534D01*
X0107159Y0101284D01*
X0107133Y0145938D02*
X0107634Y0145938D01*
X0107884Y0146188D01*
X0108356Y0145938D02*
X0109357Y0146939D01*
X0109357Y0147189D01*
X0109107Y0147439D01*
X0108607Y0147439D01*
X0108356Y0147189D01*
X0107884Y0147189D02*
X0107634Y0147439D01*
X0107133Y0147439D01*
X0106883Y0147189D01*
X0106883Y0146188D01*
X0107133Y0145938D01*
X0108356Y0145938D02*
X0109357Y0145938D01*
X0066659Y0158972D02*
X0065157Y0158972D01*
X0065157Y0159723D01*
X0065408Y0159973D01*
X0065908Y0159973D01*
X0066158Y0159723D01*
X0066158Y0158972D01*
X0066158Y0159472D02*
X0066659Y0159973D01*
X0066659Y0160445D02*
X0065658Y0161446D01*
X0065408Y0161446D01*
X0065157Y0161196D01*
X0065157Y0160695D01*
X0065408Y0160445D01*
X0066659Y0160445D02*
X0066659Y0161446D01*
X0031381Y0157826D02*
X0031381Y0156825D01*
X0031381Y0156352D02*
X0030881Y0155852D01*
X0030881Y0156102D02*
X0030881Y0155352D01*
X0031381Y0155352D02*
X0029880Y0155352D01*
X0029880Y0156102D01*
X0030130Y0156352D01*
X0030631Y0156352D01*
X0030881Y0156102D01*
X0030381Y0156825D02*
X0029880Y0157325D01*
X0031381Y0157325D01*
X0013674Y0136451D02*
X0013173Y0136451D01*
X0012923Y0136201D01*
X0012451Y0136451D02*
X0012451Y0135200D01*
X0012201Y0134950D01*
X0011700Y0134950D01*
X0011450Y0135200D01*
X0011450Y0136451D01*
X0012923Y0134950D02*
X0013924Y0135951D01*
X0013924Y0136201D01*
X0013674Y0136451D01*
X0013924Y0134950D02*
X0012923Y0134950D01*
D15*
X0047534Y0150134D02*
X0050003Y0150134D01*
X0048769Y0151368D02*
X0048769Y0148899D01*
X0046739Y0164781D02*
X0046739Y0167250D01*
X0045505Y0166016D02*
X0047973Y0166016D01*
X0314807Y0031937D02*
X0314807Y0027233D01*
X0317159Y0027233D01*
X0317943Y0028017D01*
X0317943Y0031153D01*
X0317159Y0031937D01*
X0314807Y0031937D01*
X0319411Y0029585D02*
X0320195Y0030369D01*
X0321763Y0030369D01*
X0322547Y0029585D01*
X0322547Y0028801D01*
X0319411Y0028801D01*
X0319411Y0028017D02*
X0319411Y0029585D01*
X0319411Y0028017D02*
X0320195Y0027233D01*
X0321763Y0027233D01*
X0324015Y0027233D02*
X0326367Y0027233D01*
X0327151Y0028017D01*
X0326367Y0028801D01*
X0324799Y0028801D01*
X0324015Y0029585D01*
X0324799Y0030369D01*
X0327151Y0030369D01*
X0328618Y0030369D02*
X0329402Y0030369D01*
X0329402Y0027233D01*
X0328618Y0027233D02*
X0330186Y0027233D01*
X0331688Y0028017D02*
X0331688Y0029585D01*
X0332472Y0030369D01*
X0334824Y0030369D01*
X0334824Y0026449D01*
X0334040Y0025665D01*
X0333256Y0025665D01*
X0332472Y0027233D02*
X0334824Y0027233D01*
X0336292Y0027233D02*
X0336292Y0030369D01*
X0338644Y0030369D01*
X0339428Y0029585D01*
X0339428Y0027233D01*
X0340896Y0028017D02*
X0341680Y0028801D01*
X0344032Y0028801D01*
X0344032Y0029585D02*
X0344032Y0027233D01*
X0341680Y0027233D01*
X0340896Y0028017D01*
X0341680Y0030369D02*
X0343248Y0030369D01*
X0344032Y0029585D01*
X0345500Y0030369D02*
X0347068Y0030369D01*
X0346284Y0031153D02*
X0346284Y0028017D01*
X0347068Y0027233D01*
X0348569Y0028017D02*
X0349353Y0027233D01*
X0350921Y0027233D01*
X0351705Y0028017D01*
X0351705Y0029585D01*
X0350921Y0030369D01*
X0349353Y0030369D01*
X0348569Y0029585D01*
X0348569Y0028017D01*
X0353173Y0027233D02*
X0353173Y0030369D01*
X0353173Y0028801D02*
X0354741Y0030369D01*
X0355525Y0030369D01*
X0357009Y0030369D02*
X0357793Y0029585D01*
X0360145Y0029585D01*
X0360145Y0028017D02*
X0360145Y0031153D01*
X0359361Y0031937D01*
X0357793Y0031937D01*
X0357009Y0031153D01*
X0357009Y0030369D01*
X0357009Y0028017D02*
X0357793Y0027233D01*
X0359361Y0027233D01*
X0360145Y0028017D01*
X0332472Y0027233D02*
X0331688Y0028017D01*
X0329402Y0031937D02*
X0329402Y0032721D01*
D16*
X0291439Y0121396D02*
X0371439Y0121396D01*
X0371439Y0144396D01*
X0291439Y0144396D01*
X0291439Y0136896D01*
X0291565Y0136894D01*
X0291690Y0136888D01*
X0291815Y0136878D01*
X0291940Y0136864D01*
X0292065Y0136847D01*
X0292189Y0136825D01*
X0292312Y0136800D01*
X0292434Y0136770D01*
X0292555Y0136737D01*
X0292675Y0136700D01*
X0292794Y0136660D01*
X0292911Y0136615D01*
X0293028Y0136567D01*
X0293142Y0136515D01*
X0293255Y0136460D01*
X0293366Y0136401D01*
X0293475Y0136339D01*
X0293582Y0136273D01*
X0293687Y0136204D01*
X0293790Y0136132D01*
X0293891Y0136057D01*
X0293989Y0135978D01*
X0294084Y0135896D01*
X0294177Y0135812D01*
X0294267Y0135724D01*
X0294355Y0135634D01*
X0294439Y0135541D01*
X0294521Y0135446D01*
X0294600Y0135348D01*
X0294675Y0135247D01*
X0294747Y0135144D01*
X0294816Y0135039D01*
X0294882Y0134932D01*
X0294944Y0134823D01*
X0295003Y0134712D01*
X0295058Y0134599D01*
X0295110Y0134485D01*
X0295158Y0134368D01*
X0295203Y0134251D01*
X0295243Y0134132D01*
X0295280Y0134012D01*
X0295313Y0133891D01*
X0295343Y0133769D01*
X0295368Y0133646D01*
X0295390Y0133522D01*
X0295407Y0133397D01*
X0295421Y0133272D01*
X0295431Y0133147D01*
X0295437Y0133022D01*
X0295439Y0132896D01*
X0295437Y0132770D01*
X0295431Y0132645D01*
X0295421Y0132520D01*
X0295407Y0132395D01*
X0295390Y0132270D01*
X0295368Y0132146D01*
X0295343Y0132023D01*
X0295313Y0131901D01*
X0295280Y0131780D01*
X0295243Y0131660D01*
X0295203Y0131541D01*
X0295158Y0131424D01*
X0295110Y0131307D01*
X0295058Y0131193D01*
X0295003Y0131080D01*
X0294944Y0130969D01*
X0294882Y0130860D01*
X0294816Y0130753D01*
X0294747Y0130648D01*
X0294675Y0130545D01*
X0294600Y0130444D01*
X0294521Y0130346D01*
X0294439Y0130251D01*
X0294355Y0130158D01*
X0294267Y0130068D01*
X0294177Y0129980D01*
X0294084Y0129896D01*
X0293989Y0129814D01*
X0293891Y0129735D01*
X0293790Y0129660D01*
X0293687Y0129588D01*
X0293582Y0129519D01*
X0293475Y0129453D01*
X0293366Y0129391D01*
X0293255Y0129332D01*
X0293142Y0129277D01*
X0293028Y0129225D01*
X0292911Y0129177D01*
X0292794Y0129132D01*
X0292675Y0129092D01*
X0292555Y0129055D01*
X0292434Y0129022D01*
X0292312Y0128992D01*
X0292189Y0128967D01*
X0292065Y0128945D01*
X0291940Y0128928D01*
X0291815Y0128914D01*
X0291690Y0128904D01*
X0291565Y0128898D01*
X0291439Y0128896D01*
X0291439Y0121396D01*
X0251321Y0146400D02*
X0239195Y0146400D01*
X0235258Y0151518D02*
X0235258Y0161400D01*
X0239195Y0166400D02*
X0251321Y0166400D01*
X0255258Y0161282D02*
X0255258Y0151518D01*
X0240258Y0156400D02*
X0240260Y0156541D01*
X0240266Y0156682D01*
X0240276Y0156822D01*
X0240290Y0156962D01*
X0240308Y0157102D01*
X0240329Y0157241D01*
X0240355Y0157380D01*
X0240384Y0157518D01*
X0240418Y0157654D01*
X0240455Y0157790D01*
X0240496Y0157925D01*
X0240541Y0158059D01*
X0240590Y0158191D01*
X0240642Y0158322D01*
X0240698Y0158451D01*
X0240758Y0158578D01*
X0240821Y0158704D01*
X0240887Y0158828D01*
X0240958Y0158951D01*
X0241031Y0159071D01*
X0241108Y0159189D01*
X0241188Y0159305D01*
X0241272Y0159418D01*
X0241358Y0159529D01*
X0241448Y0159638D01*
X0241541Y0159744D01*
X0241636Y0159847D01*
X0241735Y0159948D01*
X0241836Y0160046D01*
X0241940Y0160141D01*
X0242047Y0160233D01*
X0242156Y0160322D01*
X0242268Y0160407D01*
X0242382Y0160490D01*
X0242498Y0160570D01*
X0242617Y0160646D01*
X0242738Y0160718D01*
X0242860Y0160788D01*
X0242985Y0160853D01*
X0243111Y0160916D01*
X0243239Y0160974D01*
X0243369Y0161029D01*
X0243500Y0161081D01*
X0243633Y0161128D01*
X0243767Y0161172D01*
X0243902Y0161213D01*
X0244038Y0161249D01*
X0244175Y0161281D01*
X0244313Y0161310D01*
X0244451Y0161335D01*
X0244591Y0161355D01*
X0244731Y0161372D01*
X0244871Y0161385D01*
X0245012Y0161394D01*
X0245152Y0161399D01*
X0245293Y0161400D01*
X0245434Y0161397D01*
X0245575Y0161390D01*
X0245715Y0161379D01*
X0245855Y0161364D01*
X0245995Y0161345D01*
X0246134Y0161323D01*
X0246272Y0161296D01*
X0246410Y0161266D01*
X0246546Y0161231D01*
X0246682Y0161193D01*
X0246816Y0161151D01*
X0246950Y0161105D01*
X0247082Y0161056D01*
X0247212Y0161002D01*
X0247341Y0160945D01*
X0247468Y0160885D01*
X0247594Y0160821D01*
X0247717Y0160753D01*
X0247839Y0160682D01*
X0247959Y0160608D01*
X0248076Y0160530D01*
X0248191Y0160449D01*
X0248304Y0160365D01*
X0248415Y0160278D01*
X0248523Y0160187D01*
X0248628Y0160094D01*
X0248731Y0159997D01*
X0248831Y0159898D01*
X0248928Y0159796D01*
X0249022Y0159691D01*
X0249113Y0159584D01*
X0249201Y0159474D01*
X0249286Y0159362D01*
X0249368Y0159247D01*
X0249447Y0159130D01*
X0249522Y0159011D01*
X0249594Y0158890D01*
X0249662Y0158767D01*
X0249727Y0158642D01*
X0249789Y0158515D01*
X0249846Y0158386D01*
X0249901Y0158256D01*
X0249951Y0158125D01*
X0249998Y0157992D01*
X0250041Y0157858D01*
X0250080Y0157722D01*
X0250115Y0157586D01*
X0250147Y0157449D01*
X0250174Y0157311D01*
X0250198Y0157172D01*
X0250218Y0157032D01*
X0250234Y0156892D01*
X0250246Y0156752D01*
X0250254Y0156611D01*
X0250258Y0156470D01*
X0250258Y0156330D01*
X0250254Y0156189D01*
X0250246Y0156048D01*
X0250234Y0155908D01*
X0250218Y0155768D01*
X0250198Y0155628D01*
X0250174Y0155489D01*
X0250147Y0155351D01*
X0250115Y0155214D01*
X0250080Y0155078D01*
X0250041Y0154942D01*
X0249998Y0154808D01*
X0249951Y0154675D01*
X0249901Y0154544D01*
X0249846Y0154414D01*
X0249789Y0154285D01*
X0249727Y0154158D01*
X0249662Y0154033D01*
X0249594Y0153910D01*
X0249522Y0153789D01*
X0249447Y0153670D01*
X0249368Y0153553D01*
X0249286Y0153438D01*
X0249201Y0153326D01*
X0249113Y0153216D01*
X0249022Y0153109D01*
X0248928Y0153004D01*
X0248831Y0152902D01*
X0248731Y0152803D01*
X0248628Y0152706D01*
X0248523Y0152613D01*
X0248415Y0152522D01*
X0248304Y0152435D01*
X0248191Y0152351D01*
X0248076Y0152270D01*
X0247959Y0152192D01*
X0247839Y0152118D01*
X0247717Y0152047D01*
X0247594Y0151979D01*
X0247468Y0151915D01*
X0247341Y0151855D01*
X0247212Y0151798D01*
X0247082Y0151744D01*
X0246950Y0151695D01*
X0246816Y0151649D01*
X0246682Y0151607D01*
X0246546Y0151569D01*
X0246410Y0151534D01*
X0246272Y0151504D01*
X0246134Y0151477D01*
X0245995Y0151455D01*
X0245855Y0151436D01*
X0245715Y0151421D01*
X0245575Y0151410D01*
X0245434Y0151403D01*
X0245293Y0151400D01*
X0245152Y0151401D01*
X0245012Y0151406D01*
X0244871Y0151415D01*
X0244731Y0151428D01*
X0244591Y0151445D01*
X0244451Y0151465D01*
X0244313Y0151490D01*
X0244175Y0151519D01*
X0244038Y0151551D01*
X0243902Y0151587D01*
X0243767Y0151628D01*
X0243633Y0151672D01*
X0243500Y0151719D01*
X0243369Y0151771D01*
X0243239Y0151826D01*
X0243111Y0151884D01*
X0242985Y0151947D01*
X0242860Y0152012D01*
X0242738Y0152082D01*
X0242617Y0152154D01*
X0242498Y0152230D01*
X0242382Y0152310D01*
X0242268Y0152393D01*
X0242156Y0152478D01*
X0242047Y0152567D01*
X0241940Y0152659D01*
X0241836Y0152754D01*
X0241735Y0152852D01*
X0241636Y0152953D01*
X0241541Y0153056D01*
X0241448Y0153162D01*
X0241358Y0153271D01*
X0241272Y0153382D01*
X0241188Y0153495D01*
X0241108Y0153611D01*
X0241031Y0153729D01*
X0240958Y0153849D01*
X0240887Y0153972D01*
X0240821Y0154096D01*
X0240758Y0154222D01*
X0240698Y0154349D01*
X0240642Y0154478D01*
X0240590Y0154609D01*
X0240541Y0154741D01*
X0240496Y0154875D01*
X0240455Y0155010D01*
X0240418Y0155146D01*
X0240384Y0155282D01*
X0240355Y0155420D01*
X0240329Y0155559D01*
X0240308Y0155698D01*
X0240290Y0155838D01*
X0240276Y0155978D01*
X0240266Y0156118D01*
X0240260Y0156259D01*
X0240258Y0156400D01*
X0132424Y0139983D02*
X0132424Y0134806D01*
X0132424Y0139983D02*
X0126124Y0145101D01*
X0106439Y0145101D01*
X0106439Y0134806D01*
X0106439Y0129412D02*
X0106439Y0119117D01*
X0126124Y0119117D01*
X0132424Y0124235D01*
X0132424Y0129412D01*
X0131636Y0129412D02*
X0131565Y0129116D01*
X0131488Y0128822D01*
X0131404Y0128529D01*
X0131312Y0128239D01*
X0131214Y0127951D01*
X0131108Y0127666D01*
X0130996Y0127383D01*
X0130876Y0127103D01*
X0130750Y0126826D01*
X0130617Y0126552D01*
X0130478Y0126282D01*
X0130332Y0126015D01*
X0130180Y0125751D01*
X0130021Y0125492D01*
X0129856Y0125236D01*
X0129685Y0124984D01*
X0129507Y0124737D01*
X0129324Y0124494D01*
X0129135Y0124256D01*
X0128940Y0124022D01*
X0128740Y0123793D01*
X0128534Y0123569D01*
X0128322Y0123350D01*
X0128106Y0123136D01*
X0127884Y0122928D01*
X0127657Y0122725D01*
X0127426Y0122528D01*
X0127189Y0122336D01*
X0126948Y0122150D01*
X0126703Y0121970D01*
X0126453Y0121796D01*
X0126199Y0121629D01*
X0125941Y0121467D01*
X0125680Y0121312D01*
X0125414Y0121163D01*
X0125145Y0121021D01*
X0124873Y0120885D01*
X0124597Y0120756D01*
X0124319Y0120634D01*
X0124037Y0120518D01*
X0123753Y0120409D01*
X0123466Y0120308D01*
X0123177Y0120213D01*
X0122885Y0120125D01*
X0122592Y0120045D01*
X0122296Y0119972D01*
X0121999Y0119906D01*
X0121701Y0119847D01*
X0121401Y0119795D01*
X0121100Y0119751D01*
X0120798Y0119714D01*
X0120495Y0119684D01*
X0120191Y0119662D01*
X0119887Y0119647D01*
X0119583Y0119640D01*
X0119279Y0119640D01*
X0118975Y0119647D01*
X0118671Y0119662D01*
X0118367Y0119684D01*
X0118064Y0119714D01*
X0117762Y0119751D01*
X0117461Y0119795D01*
X0117161Y0119847D01*
X0116863Y0119906D01*
X0116566Y0119972D01*
X0116270Y0120045D01*
X0115977Y0120125D01*
X0115685Y0120213D01*
X0115396Y0120308D01*
X0115109Y0120409D01*
X0114825Y0120518D01*
X0114543Y0120634D01*
X0114265Y0120756D01*
X0113989Y0120885D01*
X0113717Y0121021D01*
X0113448Y0121163D01*
X0113182Y0121312D01*
X0112921Y0121467D01*
X0112663Y0121629D01*
X0112409Y0121796D01*
X0112159Y0121970D01*
X0111914Y0122150D01*
X0111673Y0122336D01*
X0111436Y0122528D01*
X0111205Y0122725D01*
X0110978Y0122928D01*
X0110756Y0123136D01*
X0110540Y0123350D01*
X0110328Y0123569D01*
X0110122Y0123793D01*
X0109922Y0124022D01*
X0109727Y0124256D01*
X0109538Y0124494D01*
X0109355Y0124737D01*
X0109177Y0124984D01*
X0109006Y0125236D01*
X0108841Y0125492D01*
X0108682Y0125751D01*
X0108530Y0126015D01*
X0108384Y0126282D01*
X0108245Y0126552D01*
X0108112Y0126826D01*
X0107986Y0127103D01*
X0107866Y0127383D01*
X0107754Y0127666D01*
X0107648Y0127951D01*
X0107550Y0128239D01*
X0107458Y0128529D01*
X0107374Y0128822D01*
X0107297Y0129116D01*
X0107226Y0129412D01*
X0107226Y0134806D02*
X0107292Y0135102D01*
X0107365Y0135398D01*
X0107444Y0135691D01*
X0107531Y0135982D01*
X0107626Y0136271D01*
X0107727Y0136558D01*
X0107835Y0136842D01*
X0107950Y0137124D01*
X0108072Y0137402D01*
X0108200Y0137678D01*
X0108336Y0137950D01*
X0108478Y0138219D01*
X0108626Y0138484D01*
X0108781Y0138746D01*
X0108942Y0139003D01*
X0109109Y0139257D01*
X0109283Y0139507D01*
X0109462Y0139752D01*
X0109648Y0139993D01*
X0109839Y0140229D01*
X0110036Y0140461D01*
X0110239Y0140687D01*
X0110447Y0140909D01*
X0110660Y0141126D01*
X0110879Y0141337D01*
X0111103Y0141543D01*
X0111331Y0141743D01*
X0111565Y0141938D01*
X0111803Y0142127D01*
X0112046Y0142310D01*
X0112293Y0142487D01*
X0112544Y0142658D01*
X0112800Y0142823D01*
X0113059Y0142981D01*
X0113322Y0143134D01*
X0113589Y0143279D01*
X0113859Y0143418D01*
X0114133Y0143551D01*
X0114409Y0143677D01*
X0114689Y0143796D01*
X0114972Y0143908D01*
X0115257Y0144013D01*
X0115545Y0144112D01*
X0115835Y0144203D01*
X0116127Y0144287D01*
X0116421Y0144364D01*
X0116717Y0144434D01*
X0117014Y0144496D01*
X0117313Y0144552D01*
X0117613Y0144600D01*
X0117915Y0144640D01*
X0118217Y0144674D01*
X0118520Y0144700D01*
X0118823Y0144718D01*
X0119127Y0144729D01*
X0119431Y0144733D01*
X0119735Y0144729D01*
X0120039Y0144718D01*
X0120342Y0144700D01*
X0120645Y0144674D01*
X0120947Y0144640D01*
X0121249Y0144600D01*
X0121549Y0144552D01*
X0121848Y0144496D01*
X0122145Y0144434D01*
X0122441Y0144364D01*
X0122735Y0144287D01*
X0123027Y0144203D01*
X0123317Y0144112D01*
X0123605Y0144013D01*
X0123890Y0143908D01*
X0124173Y0143796D01*
X0124453Y0143677D01*
X0124729Y0143551D01*
X0125003Y0143418D01*
X0125273Y0143279D01*
X0125540Y0143134D01*
X0125803Y0142981D01*
X0126062Y0142823D01*
X0126318Y0142658D01*
X0126569Y0142487D01*
X0126816Y0142310D01*
X0127059Y0142127D01*
X0127297Y0141938D01*
X0127531Y0141743D01*
X0127759Y0141543D01*
X0127983Y0141337D01*
X0128202Y0141126D01*
X0128415Y0140909D01*
X0128623Y0140687D01*
X0128826Y0140461D01*
X0129023Y0140229D01*
X0129214Y0139993D01*
X0129400Y0139752D01*
X0129579Y0139507D01*
X0129753Y0139257D01*
X0129920Y0139003D01*
X0130081Y0138746D01*
X0130236Y0138484D01*
X0130384Y0138219D01*
X0130526Y0137950D01*
X0130662Y0137678D01*
X0130790Y0137402D01*
X0130912Y0137124D01*
X0131027Y0136842D01*
X0131135Y0136558D01*
X0131236Y0136271D01*
X0131331Y0135982D01*
X0131418Y0135691D01*
X0131497Y0135398D01*
X0131570Y0135102D01*
X0131636Y0134806D01*
X0094668Y0142935D02*
X0094668Y0126006D01*
X0083644Y0126006D01*
X0083644Y0142935D01*
X0094668Y0142935D01*
X0106715Y0099195D02*
X0106715Y0088900D01*
X0106715Y0083506D02*
X0106715Y0073211D01*
X0126400Y0073211D01*
X0132699Y0078329D01*
X0132699Y0083506D01*
X0132699Y0088900D02*
X0132699Y0094077D01*
X0126400Y0099195D01*
X0106715Y0099195D01*
X0107502Y0088900D02*
X0107568Y0089196D01*
X0107641Y0089492D01*
X0107720Y0089785D01*
X0107807Y0090076D01*
X0107902Y0090365D01*
X0108003Y0090652D01*
X0108111Y0090936D01*
X0108226Y0091218D01*
X0108348Y0091496D01*
X0108476Y0091772D01*
X0108612Y0092044D01*
X0108754Y0092313D01*
X0108902Y0092578D01*
X0109057Y0092840D01*
X0109218Y0093097D01*
X0109385Y0093351D01*
X0109559Y0093601D01*
X0109738Y0093846D01*
X0109924Y0094087D01*
X0110115Y0094323D01*
X0110312Y0094555D01*
X0110515Y0094781D01*
X0110723Y0095003D01*
X0110936Y0095220D01*
X0111155Y0095431D01*
X0111379Y0095637D01*
X0111607Y0095837D01*
X0111841Y0096032D01*
X0112079Y0096221D01*
X0112322Y0096404D01*
X0112569Y0096581D01*
X0112820Y0096752D01*
X0113076Y0096917D01*
X0113335Y0097075D01*
X0113598Y0097228D01*
X0113865Y0097373D01*
X0114135Y0097512D01*
X0114409Y0097645D01*
X0114685Y0097771D01*
X0114965Y0097890D01*
X0115248Y0098002D01*
X0115533Y0098107D01*
X0115821Y0098206D01*
X0116111Y0098297D01*
X0116403Y0098381D01*
X0116697Y0098458D01*
X0116993Y0098528D01*
X0117290Y0098590D01*
X0117589Y0098646D01*
X0117889Y0098694D01*
X0118191Y0098734D01*
X0118493Y0098768D01*
X0118796Y0098794D01*
X0119099Y0098812D01*
X0119403Y0098823D01*
X0119707Y0098827D01*
X0120011Y0098823D01*
X0120315Y0098812D01*
X0120618Y0098794D01*
X0120921Y0098768D01*
X0121223Y0098734D01*
X0121525Y0098694D01*
X0121825Y0098646D01*
X0122124Y0098590D01*
X0122421Y0098528D01*
X0122717Y0098458D01*
X0123011Y0098381D01*
X0123303Y0098297D01*
X0123593Y0098206D01*
X0123881Y0098107D01*
X0124166Y0098002D01*
X0124449Y0097890D01*
X0124729Y0097771D01*
X0125005Y0097645D01*
X0125279Y0097512D01*
X0125549Y0097373D01*
X0125816Y0097228D01*
X0126079Y0097075D01*
X0126338Y0096917D01*
X0126594Y0096752D01*
X0126845Y0096581D01*
X0127092Y0096404D01*
X0127335Y0096221D01*
X0127573Y0096032D01*
X0127807Y0095837D01*
X0128035Y0095637D01*
X0128259Y0095431D01*
X0128478Y0095220D01*
X0128691Y0095003D01*
X0128899Y0094781D01*
X0129102Y0094555D01*
X0129299Y0094323D01*
X0129490Y0094087D01*
X0129676Y0093846D01*
X0129855Y0093601D01*
X0130029Y0093351D01*
X0130196Y0093097D01*
X0130357Y0092840D01*
X0130512Y0092578D01*
X0130660Y0092313D01*
X0130802Y0092044D01*
X0130938Y0091772D01*
X0131066Y0091496D01*
X0131188Y0091218D01*
X0131303Y0090936D01*
X0131411Y0090652D01*
X0131512Y0090365D01*
X0131607Y0090076D01*
X0131694Y0089785D01*
X0131773Y0089492D01*
X0131846Y0089196D01*
X0131912Y0088900D01*
X0131912Y0083506D02*
X0131841Y0083210D01*
X0131764Y0082916D01*
X0131680Y0082623D01*
X0131588Y0082333D01*
X0131490Y0082045D01*
X0131384Y0081760D01*
X0131272Y0081477D01*
X0131152Y0081197D01*
X0131026Y0080920D01*
X0130893Y0080646D01*
X0130754Y0080376D01*
X0130608Y0080109D01*
X0130456Y0079845D01*
X0130297Y0079586D01*
X0130132Y0079330D01*
X0129961Y0079078D01*
X0129783Y0078831D01*
X0129600Y0078588D01*
X0129411Y0078350D01*
X0129216Y0078116D01*
X0129016Y0077887D01*
X0128810Y0077663D01*
X0128598Y0077444D01*
X0128382Y0077230D01*
X0128160Y0077022D01*
X0127933Y0076819D01*
X0127702Y0076622D01*
X0127465Y0076430D01*
X0127224Y0076244D01*
X0126979Y0076064D01*
X0126729Y0075890D01*
X0126475Y0075723D01*
X0126217Y0075561D01*
X0125956Y0075406D01*
X0125690Y0075257D01*
X0125421Y0075115D01*
X0125149Y0074979D01*
X0124873Y0074850D01*
X0124595Y0074728D01*
X0124313Y0074612D01*
X0124029Y0074503D01*
X0123742Y0074402D01*
X0123453Y0074307D01*
X0123161Y0074219D01*
X0122868Y0074139D01*
X0122572Y0074066D01*
X0122275Y0074000D01*
X0121977Y0073941D01*
X0121677Y0073889D01*
X0121376Y0073845D01*
X0121074Y0073808D01*
X0120771Y0073778D01*
X0120467Y0073756D01*
X0120163Y0073741D01*
X0119859Y0073734D01*
X0119555Y0073734D01*
X0119251Y0073741D01*
X0118947Y0073756D01*
X0118643Y0073778D01*
X0118340Y0073808D01*
X0118038Y0073845D01*
X0117737Y0073889D01*
X0117437Y0073941D01*
X0117139Y0074000D01*
X0116842Y0074066D01*
X0116546Y0074139D01*
X0116253Y0074219D01*
X0115961Y0074307D01*
X0115672Y0074402D01*
X0115385Y0074503D01*
X0115101Y0074612D01*
X0114819Y0074728D01*
X0114541Y0074850D01*
X0114265Y0074979D01*
X0113993Y0075115D01*
X0113724Y0075257D01*
X0113458Y0075406D01*
X0113197Y0075561D01*
X0112939Y0075723D01*
X0112685Y0075890D01*
X0112435Y0076064D01*
X0112190Y0076244D01*
X0111949Y0076430D01*
X0111712Y0076622D01*
X0111481Y0076819D01*
X0111254Y0077022D01*
X0111032Y0077230D01*
X0110816Y0077444D01*
X0110604Y0077663D01*
X0110398Y0077887D01*
X0110198Y0078116D01*
X0110003Y0078350D01*
X0109814Y0078588D01*
X0109631Y0078831D01*
X0109453Y0079078D01*
X0109282Y0079330D01*
X0109117Y0079586D01*
X0108958Y0079845D01*
X0108806Y0080109D01*
X0108660Y0080376D01*
X0108521Y0080646D01*
X0108388Y0080920D01*
X0108262Y0081197D01*
X0108142Y0081477D01*
X0108030Y0081760D01*
X0107924Y0082045D01*
X0107826Y0082333D01*
X0107734Y0082623D01*
X0107650Y0082916D01*
X0107573Y0083210D01*
X0107502Y0083506D01*
D17*
X0143802Y0082699D02*
X0143802Y0093723D01*
X0143998Y0093723D02*
X0158802Y0093723D01*
X0158959Y0093723D01*
X0158959Y0082896D01*
X0161912Y0082699D02*
X0143802Y0082699D01*
X0161912Y0082699D02*
X0161912Y0093723D01*
X0158959Y0093723D01*
X0181715Y0107542D02*
X0181715Y0135888D01*
X0195494Y0135888D01*
X0195494Y0107542D01*
X0181715Y0107542D01*
X0161754Y0115140D02*
X0161754Y0127640D01*
X0156479Y0127640D01*
X0147424Y0127640D02*
X0141912Y0127640D01*
X0141754Y0127640D02*
X0141754Y0115140D01*
X0141912Y0115140D02*
X0143487Y0115140D01*
X0147817Y0115140D02*
X0149392Y0115140D01*
X0154117Y0115140D02*
X0155691Y0115140D01*
X0160022Y0115140D02*
X0161597Y0115140D01*
X0164392Y0139077D02*
X0143920Y0139077D01*
X0143920Y0161912D01*
X0164392Y0161912D01*
X0164392Y0139077D01*
X0207933Y0099591D02*
X0207933Y0096589D01*
X0207933Y0098090D02*
X0203430Y0098090D01*
X0204931Y0096589D01*
X0204180Y0094987D02*
X0203430Y0094237D01*
X0203430Y0092735D01*
X0204180Y0091985D01*
X0207183Y0091985D01*
X0207933Y0092735D01*
X0207933Y0094237D01*
X0207183Y0094987D01*
X0204180Y0094987D01*
X0206432Y0093486D02*
X0207933Y0094987D01*
X0212599Y0049274D02*
X0212599Y0046271D01*
X0210347Y0048523D01*
X0214851Y0048523D01*
X0214851Y0044670D02*
X0212599Y0042418D01*
X0213350Y0041667D02*
X0210347Y0044670D01*
X0210347Y0041667D02*
X0214851Y0041667D01*
X0214100Y0040066D02*
X0211098Y0040066D01*
X0210347Y0039315D01*
X0210347Y0037814D01*
X0211098Y0037063D01*
X0214100Y0037063D01*
X0214851Y0037814D01*
X0214851Y0039315D01*
X0214100Y0040066D01*
X0190520Y0039591D02*
X0190520Y0038090D01*
X0189769Y0037339D01*
X0186767Y0037339D01*
X0186016Y0038090D01*
X0186016Y0039591D01*
X0186767Y0040342D01*
X0189769Y0040342D01*
X0190520Y0039591D01*
X0190520Y0041943D02*
X0186016Y0041943D01*
X0188268Y0042694D02*
X0190520Y0044945D01*
X0189769Y0046547D02*
X0190520Y0047297D01*
X0190520Y0048799D01*
X0189769Y0049549D01*
X0189019Y0049549D01*
X0188268Y0048799D01*
X0188268Y0048048D01*
X0188268Y0048799D02*
X0187518Y0049549D01*
X0186767Y0049549D01*
X0186016Y0048799D01*
X0186016Y0047297D01*
X0186767Y0046547D01*
X0186016Y0044945D02*
X0189019Y0041943D01*
X0165520Y0042061D02*
X0161016Y0042061D01*
X0161767Y0040460D02*
X0161016Y0039709D01*
X0161016Y0038208D01*
X0161767Y0037457D01*
X0164769Y0037457D01*
X0165520Y0038208D01*
X0165520Y0039709D01*
X0164769Y0040460D01*
X0161767Y0040460D01*
X0164019Y0042061D02*
X0161016Y0045064D01*
X0161767Y0046665D02*
X0161016Y0047416D01*
X0161016Y0048917D01*
X0161767Y0049667D01*
X0162518Y0049667D01*
X0165520Y0046665D01*
X0165520Y0049667D01*
X0165520Y0045064D02*
X0163268Y0042812D01*
X0140441Y0041943D02*
X0135938Y0041943D01*
X0136688Y0040342D02*
X0135938Y0039591D01*
X0135938Y0038090D01*
X0136688Y0037339D01*
X0139691Y0037339D01*
X0140441Y0038090D01*
X0140441Y0039591D01*
X0139691Y0040342D01*
X0136688Y0040342D01*
X0138940Y0041943D02*
X0135938Y0044945D01*
X0137439Y0046547D02*
X0135938Y0048048D01*
X0140441Y0048048D01*
X0140441Y0046547D02*
X0140441Y0049549D01*
X0140441Y0044945D02*
X0138189Y0042694D01*
X0113950Y0042059D02*
X0109446Y0042059D01*
X0110947Y0040558D01*
X0110197Y0038956D02*
X0111698Y0038956D01*
X0112449Y0038206D01*
X0112449Y0035954D01*
X0113950Y0035954D02*
X0109446Y0035954D01*
X0109446Y0038206D01*
X0110197Y0038956D01*
X0113950Y0040558D02*
X0113950Y0043560D01*
X0109446Y0034353D02*
X0109446Y0032851D01*
X0109446Y0033602D02*
X0113199Y0033602D01*
X0113950Y0032851D01*
X0113950Y0032101D01*
X0113199Y0031350D01*
X0087586Y0029071D02*
X0086084Y0028321D01*
X0084583Y0026819D01*
X0086835Y0026819D01*
X0087586Y0026069D01*
X0087586Y0025318D01*
X0086835Y0024567D01*
X0085334Y0024567D01*
X0084583Y0025318D01*
X0084583Y0026819D01*
X0075772Y0048347D02*
X0074271Y0048347D01*
X0073520Y0049097D01*
X0073520Y0050599D02*
X0075021Y0051349D01*
X0075772Y0051349D01*
X0076523Y0050599D01*
X0076523Y0049097D01*
X0075772Y0048347D01*
X0073520Y0050599D02*
X0073520Y0052851D01*
X0076523Y0052851D01*
X0043230Y0052100D02*
X0043230Y0051349D01*
X0040228Y0048347D01*
X0043230Y0048347D01*
X0038627Y0049848D02*
X0038627Y0052851D01*
X0040228Y0052100D02*
X0040979Y0052851D01*
X0042480Y0052851D01*
X0043230Y0052100D01*
X0038627Y0049848D02*
X0037125Y0048347D01*
X0035624Y0049848D01*
X0035624Y0052851D01*
X0034023Y0052100D02*
X0033272Y0052851D01*
X0031771Y0052851D01*
X0031020Y0052100D01*
X0031020Y0051349D01*
X0031771Y0050599D01*
X0033272Y0050599D01*
X0034023Y0049848D01*
X0034023Y0049097D01*
X0033272Y0048347D01*
X0031771Y0048347D01*
X0031020Y0049097D01*
X0035021Y0034851D02*
X0035021Y0030347D01*
X0034335Y0029071D02*
X0032834Y0029071D01*
X0032083Y0028321D01*
X0032083Y0027570D01*
X0032834Y0026819D01*
X0034335Y0026819D01*
X0035086Y0026069D01*
X0035086Y0025318D01*
X0034335Y0024567D01*
X0032834Y0024567D01*
X0032083Y0025318D01*
X0035086Y0028321D02*
X0034335Y0029071D01*
X0033520Y0030347D02*
X0036523Y0030347D01*
X0036687Y0029071D02*
X0036687Y0026069D01*
X0038188Y0024567D01*
X0039690Y0026069D01*
X0039690Y0029071D01*
X0041291Y0028321D02*
X0042042Y0029071D01*
X0043543Y0029071D01*
X0044293Y0028321D01*
X0044293Y0027570D01*
X0043543Y0026819D01*
X0044293Y0026069D01*
X0044293Y0025318D01*
X0043543Y0024567D01*
X0042042Y0024567D01*
X0041291Y0025318D01*
X0042792Y0026819D02*
X0043543Y0026819D01*
X0035021Y0034851D02*
X0033520Y0033349D01*
X0036084Y0011071D02*
X0036084Y0006567D01*
X0034583Y0006567D02*
X0037586Y0006567D01*
X0034583Y0009570D02*
X0036084Y0011071D01*
X0041754Y0103723D02*
X0061046Y0103723D01*
X0061046Y0119077D01*
X0041754Y0119077D01*
X0041754Y0103723D01*
X0021400Y0216400D02*
X0021409Y0217136D01*
X0021436Y0217872D01*
X0021481Y0218607D01*
X0021544Y0219341D01*
X0021626Y0220072D01*
X0021725Y0220802D01*
X0021842Y0221529D01*
X0021976Y0222253D01*
X0022129Y0222973D01*
X0022299Y0223689D01*
X0022487Y0224401D01*
X0022692Y0225109D01*
X0022914Y0225810D01*
X0023154Y0226507D01*
X0023410Y0227197D01*
X0023684Y0227881D01*
X0023974Y0228557D01*
X0024280Y0229227D01*
X0024603Y0229888D01*
X0024942Y0230542D01*
X0025297Y0231187D01*
X0025668Y0231823D01*
X0026054Y0232450D01*
X0026456Y0233067D01*
X0026872Y0233674D01*
X0027304Y0234271D01*
X0027750Y0234857D01*
X0028210Y0235432D01*
X0028684Y0235995D01*
X0029171Y0236547D01*
X0029673Y0237086D01*
X0030187Y0237613D01*
X0030714Y0238127D01*
X0031253Y0238629D01*
X0031805Y0239116D01*
X0032368Y0239590D01*
X0032943Y0240050D01*
X0033529Y0240496D01*
X0034126Y0240928D01*
X0034733Y0241344D01*
X0035350Y0241746D01*
X0035977Y0242132D01*
X0036613Y0242503D01*
X0037258Y0242858D01*
X0037912Y0243197D01*
X0038573Y0243520D01*
X0039243Y0243826D01*
X0039919Y0244116D01*
X0040603Y0244390D01*
X0041293Y0244646D01*
X0041990Y0244886D01*
X0042691Y0245108D01*
X0043399Y0245313D01*
X0044111Y0245501D01*
X0044827Y0245671D01*
X0045547Y0245824D01*
X0046271Y0245958D01*
X0046998Y0246075D01*
X0047728Y0246174D01*
X0048459Y0246256D01*
X0049193Y0246319D01*
X0049928Y0246364D01*
X0050664Y0246391D01*
X0051400Y0246400D01*
X0052136Y0246391D01*
X0052872Y0246364D01*
X0053607Y0246319D01*
X0054341Y0246256D01*
X0055072Y0246174D01*
X0055802Y0246075D01*
X0056529Y0245958D01*
X0057253Y0245824D01*
X0057973Y0245671D01*
X0058689Y0245501D01*
X0059401Y0245313D01*
X0060109Y0245108D01*
X0060810Y0244886D01*
X0061507Y0244646D01*
X0062197Y0244390D01*
X0062881Y0244116D01*
X0063557Y0243826D01*
X0064227Y0243520D01*
X0064888Y0243197D01*
X0065542Y0242858D01*
X0066187Y0242503D01*
X0066823Y0242132D01*
X0067450Y0241746D01*
X0068067Y0241344D01*
X0068674Y0240928D01*
X0069271Y0240496D01*
X0069857Y0240050D01*
X0070432Y0239590D01*
X0070995Y0239116D01*
X0071547Y0238629D01*
X0072086Y0238127D01*
X0072613Y0237613D01*
X0073127Y0237086D01*
X0073629Y0236547D01*
X0074116Y0235995D01*
X0074590Y0235432D01*
X0075050Y0234857D01*
X0075496Y0234271D01*
X0075928Y0233674D01*
X0076344Y0233067D01*
X0076746Y0232450D01*
X0077132Y0231823D01*
X0077503Y0231187D01*
X0077858Y0230542D01*
X0078197Y0229888D01*
X0078520Y0229227D01*
X0078826Y0228557D01*
X0079116Y0227881D01*
X0079390Y0227197D01*
X0079646Y0226507D01*
X0079886Y0225810D01*
X0080108Y0225109D01*
X0080313Y0224401D01*
X0080501Y0223689D01*
X0080671Y0222973D01*
X0080824Y0222253D01*
X0080958Y0221529D01*
X0081075Y0220802D01*
X0081174Y0220072D01*
X0081256Y0219341D01*
X0081319Y0218607D01*
X0081364Y0217872D01*
X0081391Y0217136D01*
X0081400Y0216400D01*
X0081391Y0215664D01*
X0081364Y0214928D01*
X0081319Y0214193D01*
X0081256Y0213459D01*
X0081174Y0212728D01*
X0081075Y0211998D01*
X0080958Y0211271D01*
X0080824Y0210547D01*
X0080671Y0209827D01*
X0080501Y0209111D01*
X0080313Y0208399D01*
X0080108Y0207691D01*
X0079886Y0206990D01*
X0079646Y0206293D01*
X0079390Y0205603D01*
X0079116Y0204919D01*
X0078826Y0204243D01*
X0078520Y0203573D01*
X0078197Y0202912D01*
X0077858Y0202258D01*
X0077503Y0201613D01*
X0077132Y0200977D01*
X0076746Y0200350D01*
X0076344Y0199733D01*
X0075928Y0199126D01*
X0075496Y0198529D01*
X0075050Y0197943D01*
X0074590Y0197368D01*
X0074116Y0196805D01*
X0073629Y0196253D01*
X0073127Y0195714D01*
X0072613Y0195187D01*
X0072086Y0194673D01*
X0071547Y0194171D01*
X0070995Y0193684D01*
X0070432Y0193210D01*
X0069857Y0192750D01*
X0069271Y0192304D01*
X0068674Y0191872D01*
X0068067Y0191456D01*
X0067450Y0191054D01*
X0066823Y0190668D01*
X0066187Y0190297D01*
X0065542Y0189942D01*
X0064888Y0189603D01*
X0064227Y0189280D01*
X0063557Y0188974D01*
X0062881Y0188684D01*
X0062197Y0188410D01*
X0061507Y0188154D01*
X0060810Y0187914D01*
X0060109Y0187692D01*
X0059401Y0187487D01*
X0058689Y0187299D01*
X0057973Y0187129D01*
X0057253Y0186976D01*
X0056529Y0186842D01*
X0055802Y0186725D01*
X0055072Y0186626D01*
X0054341Y0186544D01*
X0053607Y0186481D01*
X0052872Y0186436D01*
X0052136Y0186409D01*
X0051400Y0186400D01*
X0050664Y0186409D01*
X0049928Y0186436D01*
X0049193Y0186481D01*
X0048459Y0186544D01*
X0047728Y0186626D01*
X0046998Y0186725D01*
X0046271Y0186842D01*
X0045547Y0186976D01*
X0044827Y0187129D01*
X0044111Y0187299D01*
X0043399Y0187487D01*
X0042691Y0187692D01*
X0041990Y0187914D01*
X0041293Y0188154D01*
X0040603Y0188410D01*
X0039919Y0188684D01*
X0039243Y0188974D01*
X0038573Y0189280D01*
X0037912Y0189603D01*
X0037258Y0189942D01*
X0036613Y0190297D01*
X0035977Y0190668D01*
X0035350Y0191054D01*
X0034733Y0191456D01*
X0034126Y0191872D01*
X0033529Y0192304D01*
X0032943Y0192750D01*
X0032368Y0193210D01*
X0031805Y0193684D01*
X0031253Y0194171D01*
X0030714Y0194673D01*
X0030187Y0195187D01*
X0029673Y0195714D01*
X0029171Y0196253D01*
X0028684Y0196805D01*
X0028210Y0197368D01*
X0027750Y0197943D01*
X0027304Y0198529D01*
X0026872Y0199126D01*
X0026456Y0199733D01*
X0026054Y0200350D01*
X0025668Y0200977D01*
X0025297Y0201613D01*
X0024942Y0202258D01*
X0024603Y0202912D01*
X0024280Y0203573D01*
X0023974Y0204243D01*
X0023684Y0204919D01*
X0023410Y0205603D01*
X0023154Y0206293D01*
X0022914Y0206990D01*
X0022692Y0207691D01*
X0022487Y0208399D01*
X0022299Y0209111D01*
X0022129Y0209827D01*
X0021976Y0210547D01*
X0021842Y0211271D01*
X0021725Y0211998D01*
X0021626Y0212728D01*
X0021544Y0213459D01*
X0021481Y0214193D01*
X0021436Y0214928D01*
X0021409Y0215664D01*
X0021400Y0216400D01*
X0029891Y0229214D02*
X0030201Y0229732D01*
X0030524Y0230243D01*
X0030859Y0230746D01*
X0031206Y0231240D01*
X0031565Y0231726D01*
X0031936Y0232202D01*
X0032319Y0232670D01*
X0032713Y0233128D01*
X0033118Y0233576D01*
X0033534Y0234014D01*
X0033961Y0234442D01*
X0034398Y0234859D01*
X0034845Y0235265D01*
X0035302Y0235660D01*
X0035768Y0236044D01*
X0036244Y0236416D01*
X0036729Y0236777D01*
X0037222Y0237125D01*
X0037724Y0237461D01*
X0038234Y0237785D01*
X0038752Y0238096D01*
X0039277Y0238395D01*
X0039809Y0238680D01*
X0040348Y0238952D01*
X0040894Y0239211D01*
X0041446Y0239457D01*
X0042004Y0239689D01*
X0042567Y0239907D01*
X0043136Y0240111D01*
X0043709Y0240301D01*
X0044287Y0240477D01*
X0044869Y0240639D01*
X0045455Y0240787D01*
X0046044Y0240920D01*
X0046636Y0241038D01*
X0047231Y0241142D01*
X0047829Y0241232D01*
X0048428Y0241307D01*
X0049029Y0241367D01*
X0049632Y0241412D01*
X0050235Y0241442D01*
X0050839Y0241458D01*
X0051443Y0241459D01*
X0052047Y0241444D01*
X0052650Y0241416D01*
X0053253Y0241372D01*
X0053854Y0241313D01*
X0054454Y0241240D01*
X0055051Y0241152D01*
X0055647Y0241050D01*
X0056239Y0240933D01*
X0056829Y0240801D01*
X0057415Y0240655D01*
X0057997Y0240495D01*
X0058576Y0240320D01*
X0059149Y0240131D01*
X0059718Y0239929D01*
X0060282Y0239712D01*
X0060841Y0239481D01*
X0061393Y0239237D01*
X0061940Y0238980D01*
X0062480Y0238709D01*
X0063013Y0238425D01*
X0063539Y0238128D01*
X0064057Y0237818D01*
X0064568Y0237495D01*
X0065071Y0237160D01*
X0065565Y0236813D01*
X0066051Y0236454D01*
X0066527Y0236083D01*
X0066995Y0235700D01*
X0067453Y0235306D01*
X0067901Y0234901D01*
X0068339Y0234485D01*
X0068766Y0234058D01*
X0069184Y0233621D01*
X0069590Y0233174D01*
X0069985Y0232718D01*
X0070369Y0232251D01*
X0070741Y0231775D01*
X0071101Y0231291D01*
X0071450Y0230797D01*
X0071786Y0230295D01*
X0072110Y0229785D01*
X0072421Y0229268D01*
X0072720Y0228742D01*
X0073005Y0228210D01*
X0073277Y0227671D01*
X0073536Y0227125D01*
X0073782Y0226573D01*
X0074014Y0226015D01*
X0074232Y0225452D01*
X0074436Y0224883D01*
X0074626Y0224310D01*
X0074802Y0223732D01*
X0074964Y0223150D01*
X0075112Y0222564D01*
X0075245Y0221975D01*
X0075363Y0221383D01*
X0075467Y0220788D01*
X0075557Y0220190D01*
X0075632Y0219591D01*
X0075692Y0218990D01*
X0075737Y0218388D01*
X0075767Y0217784D01*
X0075783Y0217180D01*
X0075784Y0216576D01*
X0075769Y0215972D01*
X0075741Y0215369D01*
X0075697Y0214766D01*
X0075638Y0214165D01*
X0075565Y0213566D01*
X0075477Y0212968D01*
X0075375Y0212373D01*
X0075258Y0211780D01*
X0075126Y0211190D01*
X0074980Y0210604D01*
X0074820Y0210022D01*
X0074645Y0209444D01*
X0074456Y0208870D01*
X0074254Y0208301D01*
X0074037Y0207737D01*
X0073806Y0207179D01*
X0073562Y0206626D01*
X0073305Y0206080D01*
X0073034Y0205540D01*
X0072750Y0205007D01*
X0072453Y0204481D01*
X0119891Y0229214D02*
X0120201Y0229732D01*
X0120524Y0230243D01*
X0120859Y0230746D01*
X0121206Y0231240D01*
X0121565Y0231726D01*
X0121936Y0232202D01*
X0122319Y0232670D01*
X0122713Y0233128D01*
X0123118Y0233576D01*
X0123534Y0234014D01*
X0123961Y0234442D01*
X0124398Y0234859D01*
X0124845Y0235265D01*
X0125302Y0235660D01*
X0125768Y0236044D01*
X0126244Y0236416D01*
X0126729Y0236777D01*
X0127222Y0237125D01*
X0127724Y0237461D01*
X0128234Y0237785D01*
X0128752Y0238096D01*
X0129277Y0238395D01*
X0129809Y0238680D01*
X0130348Y0238952D01*
X0130894Y0239211D01*
X0131446Y0239457D01*
X0132004Y0239689D01*
X0132567Y0239907D01*
X0133136Y0240111D01*
X0133709Y0240301D01*
X0134287Y0240477D01*
X0134869Y0240639D01*
X0135455Y0240787D01*
X0136044Y0240920D01*
X0136636Y0241038D01*
X0137231Y0241142D01*
X0137829Y0241232D01*
X0138428Y0241307D01*
X0139029Y0241367D01*
X0139632Y0241412D01*
X0140235Y0241442D01*
X0140839Y0241458D01*
X0141443Y0241459D01*
X0142047Y0241444D01*
X0142650Y0241416D01*
X0143253Y0241372D01*
X0143854Y0241313D01*
X0144454Y0241240D01*
X0145051Y0241152D01*
X0145647Y0241050D01*
X0146239Y0240933D01*
X0146829Y0240801D01*
X0147415Y0240655D01*
X0147997Y0240495D01*
X0148576Y0240320D01*
X0149149Y0240131D01*
X0149718Y0239929D01*
X0150282Y0239712D01*
X0150841Y0239481D01*
X0151393Y0239237D01*
X0151940Y0238980D01*
X0152480Y0238709D01*
X0153013Y0238425D01*
X0153539Y0238128D01*
X0154057Y0237818D01*
X0154568Y0237495D01*
X0155071Y0237160D01*
X0155565Y0236813D01*
X0156051Y0236454D01*
X0156527Y0236083D01*
X0156995Y0235700D01*
X0157453Y0235306D01*
X0157901Y0234901D01*
X0158339Y0234485D01*
X0158766Y0234058D01*
X0159184Y0233621D01*
X0159590Y0233174D01*
X0159985Y0232718D01*
X0160369Y0232251D01*
X0160741Y0231775D01*
X0161101Y0231291D01*
X0161450Y0230797D01*
X0161786Y0230295D01*
X0162110Y0229785D01*
X0162421Y0229268D01*
X0162720Y0228742D01*
X0163005Y0228210D01*
X0163277Y0227671D01*
X0163536Y0227125D01*
X0163782Y0226573D01*
X0164014Y0226015D01*
X0164232Y0225452D01*
X0164436Y0224883D01*
X0164626Y0224310D01*
X0164802Y0223732D01*
X0164964Y0223150D01*
X0165112Y0222564D01*
X0165245Y0221975D01*
X0165363Y0221383D01*
X0165467Y0220788D01*
X0165557Y0220190D01*
X0165632Y0219591D01*
X0165692Y0218990D01*
X0165737Y0218388D01*
X0165767Y0217784D01*
X0165783Y0217180D01*
X0165784Y0216576D01*
X0165769Y0215972D01*
X0165741Y0215369D01*
X0165697Y0214766D01*
X0165638Y0214165D01*
X0165565Y0213566D01*
X0165477Y0212968D01*
X0165375Y0212373D01*
X0165258Y0211780D01*
X0165126Y0211190D01*
X0164980Y0210604D01*
X0164820Y0210022D01*
X0164645Y0209444D01*
X0164456Y0208870D01*
X0164254Y0208301D01*
X0164037Y0207737D01*
X0163806Y0207179D01*
X0163562Y0206626D01*
X0163305Y0206080D01*
X0163034Y0205540D01*
X0162750Y0205007D01*
X0162453Y0204481D01*
X0111400Y0216400D02*
X0111409Y0217136D01*
X0111436Y0217872D01*
X0111481Y0218607D01*
X0111544Y0219341D01*
X0111626Y0220072D01*
X0111725Y0220802D01*
X0111842Y0221529D01*
X0111976Y0222253D01*
X0112129Y0222973D01*
X0112299Y0223689D01*
X0112487Y0224401D01*
X0112692Y0225109D01*
X0112914Y0225810D01*
X0113154Y0226507D01*
X0113410Y0227197D01*
X0113684Y0227881D01*
X0113974Y0228557D01*
X0114280Y0229227D01*
X0114603Y0229888D01*
X0114942Y0230542D01*
X0115297Y0231187D01*
X0115668Y0231823D01*
X0116054Y0232450D01*
X0116456Y0233067D01*
X0116872Y0233674D01*
X0117304Y0234271D01*
X0117750Y0234857D01*
X0118210Y0235432D01*
X0118684Y0235995D01*
X0119171Y0236547D01*
X0119673Y0237086D01*
X0120187Y0237613D01*
X0120714Y0238127D01*
X0121253Y0238629D01*
X0121805Y0239116D01*
X0122368Y0239590D01*
X0122943Y0240050D01*
X0123529Y0240496D01*
X0124126Y0240928D01*
X0124733Y0241344D01*
X0125350Y0241746D01*
X0125977Y0242132D01*
X0126613Y0242503D01*
X0127258Y0242858D01*
X0127912Y0243197D01*
X0128573Y0243520D01*
X0129243Y0243826D01*
X0129919Y0244116D01*
X0130603Y0244390D01*
X0131293Y0244646D01*
X0131990Y0244886D01*
X0132691Y0245108D01*
X0133399Y0245313D01*
X0134111Y0245501D01*
X0134827Y0245671D01*
X0135547Y0245824D01*
X0136271Y0245958D01*
X0136998Y0246075D01*
X0137728Y0246174D01*
X0138459Y0246256D01*
X0139193Y0246319D01*
X0139928Y0246364D01*
X0140664Y0246391D01*
X0141400Y0246400D01*
X0142136Y0246391D01*
X0142872Y0246364D01*
X0143607Y0246319D01*
X0144341Y0246256D01*
X0145072Y0246174D01*
X0145802Y0246075D01*
X0146529Y0245958D01*
X0147253Y0245824D01*
X0147973Y0245671D01*
X0148689Y0245501D01*
X0149401Y0245313D01*
X0150109Y0245108D01*
X0150810Y0244886D01*
X0151507Y0244646D01*
X0152197Y0244390D01*
X0152881Y0244116D01*
X0153557Y0243826D01*
X0154227Y0243520D01*
X0154888Y0243197D01*
X0155542Y0242858D01*
X0156187Y0242503D01*
X0156823Y0242132D01*
X0157450Y0241746D01*
X0158067Y0241344D01*
X0158674Y0240928D01*
X0159271Y0240496D01*
X0159857Y0240050D01*
X0160432Y0239590D01*
X0160995Y0239116D01*
X0161547Y0238629D01*
X0162086Y0238127D01*
X0162613Y0237613D01*
X0163127Y0237086D01*
X0163629Y0236547D01*
X0164116Y0235995D01*
X0164590Y0235432D01*
X0165050Y0234857D01*
X0165496Y0234271D01*
X0165928Y0233674D01*
X0166344Y0233067D01*
X0166746Y0232450D01*
X0167132Y0231823D01*
X0167503Y0231187D01*
X0167858Y0230542D01*
X0168197Y0229888D01*
X0168520Y0229227D01*
X0168826Y0228557D01*
X0169116Y0227881D01*
X0169390Y0227197D01*
X0169646Y0226507D01*
X0169886Y0225810D01*
X0170108Y0225109D01*
X0170313Y0224401D01*
X0170501Y0223689D01*
X0170671Y0222973D01*
X0170824Y0222253D01*
X0170958Y0221529D01*
X0171075Y0220802D01*
X0171174Y0220072D01*
X0171256Y0219341D01*
X0171319Y0218607D01*
X0171364Y0217872D01*
X0171391Y0217136D01*
X0171400Y0216400D01*
X0171391Y0215664D01*
X0171364Y0214928D01*
X0171319Y0214193D01*
X0171256Y0213459D01*
X0171174Y0212728D01*
X0171075Y0211998D01*
X0170958Y0211271D01*
X0170824Y0210547D01*
X0170671Y0209827D01*
X0170501Y0209111D01*
X0170313Y0208399D01*
X0170108Y0207691D01*
X0169886Y0206990D01*
X0169646Y0206293D01*
X0169390Y0205603D01*
X0169116Y0204919D01*
X0168826Y0204243D01*
X0168520Y0203573D01*
X0168197Y0202912D01*
X0167858Y0202258D01*
X0167503Y0201613D01*
X0167132Y0200977D01*
X0166746Y0200350D01*
X0166344Y0199733D01*
X0165928Y0199126D01*
X0165496Y0198529D01*
X0165050Y0197943D01*
X0164590Y0197368D01*
X0164116Y0196805D01*
X0163629Y0196253D01*
X0163127Y0195714D01*
X0162613Y0195187D01*
X0162086Y0194673D01*
X0161547Y0194171D01*
X0160995Y0193684D01*
X0160432Y0193210D01*
X0159857Y0192750D01*
X0159271Y0192304D01*
X0158674Y0191872D01*
X0158067Y0191456D01*
X0157450Y0191054D01*
X0156823Y0190668D01*
X0156187Y0190297D01*
X0155542Y0189942D01*
X0154888Y0189603D01*
X0154227Y0189280D01*
X0153557Y0188974D01*
X0152881Y0188684D01*
X0152197Y0188410D01*
X0151507Y0188154D01*
X0150810Y0187914D01*
X0150109Y0187692D01*
X0149401Y0187487D01*
X0148689Y0187299D01*
X0147973Y0187129D01*
X0147253Y0186976D01*
X0146529Y0186842D01*
X0145802Y0186725D01*
X0145072Y0186626D01*
X0144341Y0186544D01*
X0143607Y0186481D01*
X0142872Y0186436D01*
X0142136Y0186409D01*
X0141400Y0186400D01*
X0140664Y0186409D01*
X0139928Y0186436D01*
X0139193Y0186481D01*
X0138459Y0186544D01*
X0137728Y0186626D01*
X0136998Y0186725D01*
X0136271Y0186842D01*
X0135547Y0186976D01*
X0134827Y0187129D01*
X0134111Y0187299D01*
X0133399Y0187487D01*
X0132691Y0187692D01*
X0131990Y0187914D01*
X0131293Y0188154D01*
X0130603Y0188410D01*
X0129919Y0188684D01*
X0129243Y0188974D01*
X0128573Y0189280D01*
X0127912Y0189603D01*
X0127258Y0189942D01*
X0126613Y0190297D01*
X0125977Y0190668D01*
X0125350Y0191054D01*
X0124733Y0191456D01*
X0124126Y0191872D01*
X0123529Y0192304D01*
X0122943Y0192750D01*
X0122368Y0193210D01*
X0121805Y0193684D01*
X0121253Y0194171D01*
X0120714Y0194673D01*
X0120187Y0195187D01*
X0119673Y0195714D01*
X0119171Y0196253D01*
X0118684Y0196805D01*
X0118210Y0197368D01*
X0117750Y0197943D01*
X0117304Y0198529D01*
X0116872Y0199126D01*
X0116456Y0199733D01*
X0116054Y0200350D01*
X0115668Y0200977D01*
X0115297Y0201613D01*
X0114942Y0202258D01*
X0114603Y0202912D01*
X0114280Y0203573D01*
X0113974Y0204243D01*
X0113684Y0204919D01*
X0113410Y0205603D01*
X0113154Y0206293D01*
X0112914Y0206990D01*
X0112692Y0207691D01*
X0112487Y0208399D01*
X0112299Y0209111D01*
X0112129Y0209827D01*
X0111976Y0210547D01*
X0111842Y0211271D01*
X0111725Y0211998D01*
X0111626Y0212728D01*
X0111544Y0213459D01*
X0111481Y0214193D01*
X0111436Y0214928D01*
X0111409Y0215664D01*
X0111400Y0216400D01*
X0244891Y0229214D02*
X0245201Y0229732D01*
X0245524Y0230243D01*
X0245859Y0230746D01*
X0246206Y0231240D01*
X0246565Y0231726D01*
X0246936Y0232202D01*
X0247319Y0232670D01*
X0247713Y0233128D01*
X0248118Y0233576D01*
X0248534Y0234014D01*
X0248961Y0234442D01*
X0249398Y0234859D01*
X0249845Y0235265D01*
X0250302Y0235660D01*
X0250768Y0236044D01*
X0251244Y0236416D01*
X0251729Y0236777D01*
X0252222Y0237125D01*
X0252724Y0237461D01*
X0253234Y0237785D01*
X0253752Y0238096D01*
X0254277Y0238395D01*
X0254809Y0238680D01*
X0255348Y0238952D01*
X0255894Y0239211D01*
X0256446Y0239457D01*
X0257004Y0239689D01*
X0257567Y0239907D01*
X0258136Y0240111D01*
X0258709Y0240301D01*
X0259287Y0240477D01*
X0259869Y0240639D01*
X0260455Y0240787D01*
X0261044Y0240920D01*
X0261636Y0241038D01*
X0262231Y0241142D01*
X0262829Y0241232D01*
X0263428Y0241307D01*
X0264029Y0241367D01*
X0264632Y0241412D01*
X0265235Y0241442D01*
X0265839Y0241458D01*
X0266443Y0241459D01*
X0267047Y0241444D01*
X0267650Y0241416D01*
X0268253Y0241372D01*
X0268854Y0241313D01*
X0269454Y0241240D01*
X0270051Y0241152D01*
X0270647Y0241050D01*
X0271239Y0240933D01*
X0271829Y0240801D01*
X0272415Y0240655D01*
X0272997Y0240495D01*
X0273576Y0240320D01*
X0274149Y0240131D01*
X0274718Y0239929D01*
X0275282Y0239712D01*
X0275841Y0239481D01*
X0276393Y0239237D01*
X0276940Y0238980D01*
X0277480Y0238709D01*
X0278013Y0238425D01*
X0278539Y0238128D01*
X0279057Y0237818D01*
X0279568Y0237495D01*
X0280071Y0237160D01*
X0280565Y0236813D01*
X0281051Y0236454D01*
X0281527Y0236083D01*
X0281995Y0235700D01*
X0282453Y0235306D01*
X0282901Y0234901D01*
X0283339Y0234485D01*
X0283766Y0234058D01*
X0284184Y0233621D01*
X0284590Y0233174D01*
X0284985Y0232718D01*
X0285369Y0232251D01*
X0285741Y0231775D01*
X0286101Y0231291D01*
X0286450Y0230797D01*
X0286786Y0230295D01*
X0287110Y0229785D01*
X0287421Y0229268D01*
X0287720Y0228742D01*
X0288005Y0228210D01*
X0288277Y0227671D01*
X0288536Y0227125D01*
X0288782Y0226573D01*
X0289014Y0226015D01*
X0289232Y0225452D01*
X0289436Y0224883D01*
X0289626Y0224310D01*
X0289802Y0223732D01*
X0289964Y0223150D01*
X0290112Y0222564D01*
X0290245Y0221975D01*
X0290363Y0221383D01*
X0290467Y0220788D01*
X0290557Y0220190D01*
X0290632Y0219591D01*
X0290692Y0218990D01*
X0290737Y0218388D01*
X0290767Y0217784D01*
X0290783Y0217180D01*
X0290784Y0216576D01*
X0290769Y0215972D01*
X0290741Y0215369D01*
X0290697Y0214766D01*
X0290638Y0214165D01*
X0290565Y0213566D01*
X0290477Y0212968D01*
X0290375Y0212373D01*
X0290258Y0211780D01*
X0290126Y0211190D01*
X0289980Y0210604D01*
X0289820Y0210022D01*
X0289645Y0209444D01*
X0289456Y0208870D01*
X0289254Y0208301D01*
X0289037Y0207737D01*
X0288806Y0207179D01*
X0288562Y0206626D01*
X0288305Y0206080D01*
X0288034Y0205540D01*
X0287750Y0205007D01*
X0287453Y0204481D01*
X0236400Y0216400D02*
X0236409Y0217136D01*
X0236436Y0217872D01*
X0236481Y0218607D01*
X0236544Y0219341D01*
X0236626Y0220072D01*
X0236725Y0220802D01*
X0236842Y0221529D01*
X0236976Y0222253D01*
X0237129Y0222973D01*
X0237299Y0223689D01*
X0237487Y0224401D01*
X0237692Y0225109D01*
X0237914Y0225810D01*
X0238154Y0226507D01*
X0238410Y0227197D01*
X0238684Y0227881D01*
X0238974Y0228557D01*
X0239280Y0229227D01*
X0239603Y0229888D01*
X0239942Y0230542D01*
X0240297Y0231187D01*
X0240668Y0231823D01*
X0241054Y0232450D01*
X0241456Y0233067D01*
X0241872Y0233674D01*
X0242304Y0234271D01*
X0242750Y0234857D01*
X0243210Y0235432D01*
X0243684Y0235995D01*
X0244171Y0236547D01*
X0244673Y0237086D01*
X0245187Y0237613D01*
X0245714Y0238127D01*
X0246253Y0238629D01*
X0246805Y0239116D01*
X0247368Y0239590D01*
X0247943Y0240050D01*
X0248529Y0240496D01*
X0249126Y0240928D01*
X0249733Y0241344D01*
X0250350Y0241746D01*
X0250977Y0242132D01*
X0251613Y0242503D01*
X0252258Y0242858D01*
X0252912Y0243197D01*
X0253573Y0243520D01*
X0254243Y0243826D01*
X0254919Y0244116D01*
X0255603Y0244390D01*
X0256293Y0244646D01*
X0256990Y0244886D01*
X0257691Y0245108D01*
X0258399Y0245313D01*
X0259111Y0245501D01*
X0259827Y0245671D01*
X0260547Y0245824D01*
X0261271Y0245958D01*
X0261998Y0246075D01*
X0262728Y0246174D01*
X0263459Y0246256D01*
X0264193Y0246319D01*
X0264928Y0246364D01*
X0265664Y0246391D01*
X0266400Y0246400D01*
X0267136Y0246391D01*
X0267872Y0246364D01*
X0268607Y0246319D01*
X0269341Y0246256D01*
X0270072Y0246174D01*
X0270802Y0246075D01*
X0271529Y0245958D01*
X0272253Y0245824D01*
X0272973Y0245671D01*
X0273689Y0245501D01*
X0274401Y0245313D01*
X0275109Y0245108D01*
X0275810Y0244886D01*
X0276507Y0244646D01*
X0277197Y0244390D01*
X0277881Y0244116D01*
X0278557Y0243826D01*
X0279227Y0243520D01*
X0279888Y0243197D01*
X0280542Y0242858D01*
X0281187Y0242503D01*
X0281823Y0242132D01*
X0282450Y0241746D01*
X0283067Y0241344D01*
X0283674Y0240928D01*
X0284271Y0240496D01*
X0284857Y0240050D01*
X0285432Y0239590D01*
X0285995Y0239116D01*
X0286547Y0238629D01*
X0287086Y0238127D01*
X0287613Y0237613D01*
X0288127Y0237086D01*
X0288629Y0236547D01*
X0289116Y0235995D01*
X0289590Y0235432D01*
X0290050Y0234857D01*
X0290496Y0234271D01*
X0290928Y0233674D01*
X0291344Y0233067D01*
X0291746Y0232450D01*
X0292132Y0231823D01*
X0292503Y0231187D01*
X0292858Y0230542D01*
X0293197Y0229888D01*
X0293520Y0229227D01*
X0293826Y0228557D01*
X0294116Y0227881D01*
X0294390Y0227197D01*
X0294646Y0226507D01*
X0294886Y0225810D01*
X0295108Y0225109D01*
X0295313Y0224401D01*
X0295501Y0223689D01*
X0295671Y0222973D01*
X0295824Y0222253D01*
X0295958Y0221529D01*
X0296075Y0220802D01*
X0296174Y0220072D01*
X0296256Y0219341D01*
X0296319Y0218607D01*
X0296364Y0217872D01*
X0296391Y0217136D01*
X0296400Y0216400D01*
X0296391Y0215664D01*
X0296364Y0214928D01*
X0296319Y0214193D01*
X0296256Y0213459D01*
X0296174Y0212728D01*
X0296075Y0211998D01*
X0295958Y0211271D01*
X0295824Y0210547D01*
X0295671Y0209827D01*
X0295501Y0209111D01*
X0295313Y0208399D01*
X0295108Y0207691D01*
X0294886Y0206990D01*
X0294646Y0206293D01*
X0294390Y0205603D01*
X0294116Y0204919D01*
X0293826Y0204243D01*
X0293520Y0203573D01*
X0293197Y0202912D01*
X0292858Y0202258D01*
X0292503Y0201613D01*
X0292132Y0200977D01*
X0291746Y0200350D01*
X0291344Y0199733D01*
X0290928Y0199126D01*
X0290496Y0198529D01*
X0290050Y0197943D01*
X0289590Y0197368D01*
X0289116Y0196805D01*
X0288629Y0196253D01*
X0288127Y0195714D01*
X0287613Y0195187D01*
X0287086Y0194673D01*
X0286547Y0194171D01*
X0285995Y0193684D01*
X0285432Y0193210D01*
X0284857Y0192750D01*
X0284271Y0192304D01*
X0283674Y0191872D01*
X0283067Y0191456D01*
X0282450Y0191054D01*
X0281823Y0190668D01*
X0281187Y0190297D01*
X0280542Y0189942D01*
X0279888Y0189603D01*
X0279227Y0189280D01*
X0278557Y0188974D01*
X0277881Y0188684D01*
X0277197Y0188410D01*
X0276507Y0188154D01*
X0275810Y0187914D01*
X0275109Y0187692D01*
X0274401Y0187487D01*
X0273689Y0187299D01*
X0272973Y0187129D01*
X0272253Y0186976D01*
X0271529Y0186842D01*
X0270802Y0186725D01*
X0270072Y0186626D01*
X0269341Y0186544D01*
X0268607Y0186481D01*
X0267872Y0186436D01*
X0267136Y0186409D01*
X0266400Y0186400D01*
X0265664Y0186409D01*
X0264928Y0186436D01*
X0264193Y0186481D01*
X0263459Y0186544D01*
X0262728Y0186626D01*
X0261998Y0186725D01*
X0261271Y0186842D01*
X0260547Y0186976D01*
X0259827Y0187129D01*
X0259111Y0187299D01*
X0258399Y0187487D01*
X0257691Y0187692D01*
X0256990Y0187914D01*
X0256293Y0188154D01*
X0255603Y0188410D01*
X0254919Y0188684D01*
X0254243Y0188974D01*
X0253573Y0189280D01*
X0252912Y0189603D01*
X0252258Y0189942D01*
X0251613Y0190297D01*
X0250977Y0190668D01*
X0250350Y0191054D01*
X0249733Y0191456D01*
X0249126Y0191872D01*
X0248529Y0192304D01*
X0247943Y0192750D01*
X0247368Y0193210D01*
X0246805Y0193684D01*
X0246253Y0194171D01*
X0245714Y0194673D01*
X0245187Y0195187D01*
X0244673Y0195714D01*
X0244171Y0196253D01*
X0243684Y0196805D01*
X0243210Y0197368D01*
X0242750Y0197943D01*
X0242304Y0198529D01*
X0241872Y0199126D01*
X0241456Y0199733D01*
X0241054Y0200350D01*
X0240668Y0200977D01*
X0240297Y0201613D01*
X0239942Y0202258D01*
X0239603Y0202912D01*
X0239280Y0203573D01*
X0238974Y0204243D01*
X0238684Y0204919D01*
X0238410Y0205603D01*
X0238154Y0206293D01*
X0237914Y0206990D01*
X0237692Y0207691D01*
X0237487Y0208399D01*
X0237299Y0209111D01*
X0237129Y0209827D01*
X0236976Y0210547D01*
X0236842Y0211271D01*
X0236725Y0211998D01*
X0236626Y0212728D01*
X0236544Y0213459D01*
X0236481Y0214193D01*
X0236436Y0214928D01*
X0236409Y0215664D01*
X0236400Y0216400D01*
X0316689Y0140150D02*
X0316689Y0136397D01*
X0317440Y0135646D01*
X0318941Y0135646D01*
X0319692Y0136397D01*
X0319692Y0140150D01*
X0321293Y0139399D02*
X0322044Y0140150D01*
X0323545Y0140150D01*
X0324296Y0139399D01*
X0325897Y0139399D02*
X0326648Y0140150D01*
X0328149Y0140150D01*
X0328900Y0139399D01*
X0328900Y0138649D01*
X0328149Y0137898D01*
X0328900Y0137147D01*
X0328900Y0136397D01*
X0328149Y0135646D01*
X0326648Y0135646D01*
X0325897Y0136397D01*
X0324296Y0136397D02*
X0324296Y0137147D01*
X0323545Y0137898D01*
X0322044Y0137898D01*
X0321293Y0138649D01*
X0321293Y0139399D01*
X0322795Y0140901D02*
X0322795Y0134895D01*
X0323545Y0135646D02*
X0324296Y0136397D01*
X0323545Y0135646D02*
X0322044Y0135646D01*
X0321293Y0136397D01*
X0327398Y0137898D02*
X0328149Y0137898D01*
X0324471Y0115158D02*
X0321468Y0115158D01*
X0321468Y0112906D01*
X0322969Y0113656D01*
X0323720Y0113656D01*
X0324471Y0112906D01*
X0324471Y0111405D01*
X0323720Y0110654D01*
X0322219Y0110654D01*
X0321468Y0111405D01*
X0319867Y0110654D02*
X0316864Y0110654D01*
X0318365Y0110654D02*
X0318365Y0115158D01*
X0316864Y0113656D01*
X0315263Y0112906D02*
X0314512Y0112155D01*
X0312260Y0112155D01*
X0312260Y0110654D02*
X0312260Y0115158D01*
X0314512Y0115158D01*
X0315263Y0114407D01*
X0315263Y0112906D01*
X0313762Y0112155D02*
X0315263Y0110654D01*
X0327745Y0086562D02*
X0327745Y0083559D01*
X0329997Y0083559D01*
X0329246Y0085061D01*
X0329246Y0085811D01*
X0329997Y0086562D01*
X0331498Y0086562D01*
X0332248Y0085811D01*
X0332248Y0084310D01*
X0331498Y0083559D01*
X0332248Y0053270D02*
X0332248Y0050267D01*
X0332248Y0051769D02*
X0327745Y0051769D01*
X0329246Y0050267D01*
X0330747Y0048666D02*
X0327745Y0048666D01*
X0330747Y0048666D02*
X0332248Y0047165D01*
X0330747Y0045663D01*
X0327745Y0045663D01*
X0328495Y0044062D02*
X0327745Y0043311D01*
X0327745Y0041810D01*
X0328495Y0041059D01*
X0329246Y0041059D01*
X0329997Y0041810D01*
X0329997Y0043311D01*
X0330747Y0044062D01*
X0331498Y0044062D01*
X0332248Y0043311D01*
X0332248Y0041810D01*
X0331498Y0041059D01*
X0345745Y0045061D02*
X0350248Y0045061D01*
X0350248Y0046562D02*
X0350248Y0043559D01*
X0347246Y0043559D02*
X0345745Y0045061D01*
X0326400Y0216400D02*
X0326409Y0217136D01*
X0326436Y0217872D01*
X0326481Y0218607D01*
X0326544Y0219341D01*
X0326626Y0220072D01*
X0326725Y0220802D01*
X0326842Y0221529D01*
X0326976Y0222253D01*
X0327129Y0222973D01*
X0327299Y0223689D01*
X0327487Y0224401D01*
X0327692Y0225109D01*
X0327914Y0225810D01*
X0328154Y0226507D01*
X0328410Y0227197D01*
X0328684Y0227881D01*
X0328974Y0228557D01*
X0329280Y0229227D01*
X0329603Y0229888D01*
X0329942Y0230542D01*
X0330297Y0231187D01*
X0330668Y0231823D01*
X0331054Y0232450D01*
X0331456Y0233067D01*
X0331872Y0233674D01*
X0332304Y0234271D01*
X0332750Y0234857D01*
X0333210Y0235432D01*
X0333684Y0235995D01*
X0334171Y0236547D01*
X0334673Y0237086D01*
X0335187Y0237613D01*
X0335714Y0238127D01*
X0336253Y0238629D01*
X0336805Y0239116D01*
X0337368Y0239590D01*
X0337943Y0240050D01*
X0338529Y0240496D01*
X0339126Y0240928D01*
X0339733Y0241344D01*
X0340350Y0241746D01*
X0340977Y0242132D01*
X0341613Y0242503D01*
X0342258Y0242858D01*
X0342912Y0243197D01*
X0343573Y0243520D01*
X0344243Y0243826D01*
X0344919Y0244116D01*
X0345603Y0244390D01*
X0346293Y0244646D01*
X0346990Y0244886D01*
X0347691Y0245108D01*
X0348399Y0245313D01*
X0349111Y0245501D01*
X0349827Y0245671D01*
X0350547Y0245824D01*
X0351271Y0245958D01*
X0351998Y0246075D01*
X0352728Y0246174D01*
X0353459Y0246256D01*
X0354193Y0246319D01*
X0354928Y0246364D01*
X0355664Y0246391D01*
X0356400Y0246400D01*
X0357136Y0246391D01*
X0357872Y0246364D01*
X0358607Y0246319D01*
X0359341Y0246256D01*
X0360072Y0246174D01*
X0360802Y0246075D01*
X0361529Y0245958D01*
X0362253Y0245824D01*
X0362973Y0245671D01*
X0363689Y0245501D01*
X0364401Y0245313D01*
X0365109Y0245108D01*
X0365810Y0244886D01*
X0366507Y0244646D01*
X0367197Y0244390D01*
X0367881Y0244116D01*
X0368557Y0243826D01*
X0369227Y0243520D01*
X0369888Y0243197D01*
X0370542Y0242858D01*
X0371187Y0242503D01*
X0371823Y0242132D01*
X0372450Y0241746D01*
X0373067Y0241344D01*
X0373674Y0240928D01*
X0374271Y0240496D01*
X0374857Y0240050D01*
X0375432Y0239590D01*
X0375995Y0239116D01*
X0376547Y0238629D01*
X0377086Y0238127D01*
X0377613Y0237613D01*
X0378127Y0237086D01*
X0378629Y0236547D01*
X0379116Y0235995D01*
X0379590Y0235432D01*
X0380050Y0234857D01*
X0380496Y0234271D01*
X0380928Y0233674D01*
X0381344Y0233067D01*
X0381746Y0232450D01*
X0382132Y0231823D01*
X0382503Y0231187D01*
X0382858Y0230542D01*
X0383197Y0229888D01*
X0383520Y0229227D01*
X0383826Y0228557D01*
X0384116Y0227881D01*
X0384390Y0227197D01*
X0384646Y0226507D01*
X0384886Y0225810D01*
X0385108Y0225109D01*
X0385313Y0224401D01*
X0385501Y0223689D01*
X0385671Y0222973D01*
X0385824Y0222253D01*
X0385958Y0221529D01*
X0386075Y0220802D01*
X0386174Y0220072D01*
X0386256Y0219341D01*
X0386319Y0218607D01*
X0386364Y0217872D01*
X0386391Y0217136D01*
X0386400Y0216400D01*
X0386391Y0215664D01*
X0386364Y0214928D01*
X0386319Y0214193D01*
X0386256Y0213459D01*
X0386174Y0212728D01*
X0386075Y0211998D01*
X0385958Y0211271D01*
X0385824Y0210547D01*
X0385671Y0209827D01*
X0385501Y0209111D01*
X0385313Y0208399D01*
X0385108Y0207691D01*
X0384886Y0206990D01*
X0384646Y0206293D01*
X0384390Y0205603D01*
X0384116Y0204919D01*
X0383826Y0204243D01*
X0383520Y0203573D01*
X0383197Y0202912D01*
X0382858Y0202258D01*
X0382503Y0201613D01*
X0382132Y0200977D01*
X0381746Y0200350D01*
X0381344Y0199733D01*
X0380928Y0199126D01*
X0380496Y0198529D01*
X0380050Y0197943D01*
X0379590Y0197368D01*
X0379116Y0196805D01*
X0378629Y0196253D01*
X0378127Y0195714D01*
X0377613Y0195187D01*
X0377086Y0194673D01*
X0376547Y0194171D01*
X0375995Y0193684D01*
X0375432Y0193210D01*
X0374857Y0192750D01*
X0374271Y0192304D01*
X0373674Y0191872D01*
X0373067Y0191456D01*
X0372450Y0191054D01*
X0371823Y0190668D01*
X0371187Y0190297D01*
X0370542Y0189942D01*
X0369888Y0189603D01*
X0369227Y0189280D01*
X0368557Y0188974D01*
X0367881Y0188684D01*
X0367197Y0188410D01*
X0366507Y0188154D01*
X0365810Y0187914D01*
X0365109Y0187692D01*
X0364401Y0187487D01*
X0363689Y0187299D01*
X0362973Y0187129D01*
X0362253Y0186976D01*
X0361529Y0186842D01*
X0360802Y0186725D01*
X0360072Y0186626D01*
X0359341Y0186544D01*
X0358607Y0186481D01*
X0357872Y0186436D01*
X0357136Y0186409D01*
X0356400Y0186400D01*
X0355664Y0186409D01*
X0354928Y0186436D01*
X0354193Y0186481D01*
X0353459Y0186544D01*
X0352728Y0186626D01*
X0351998Y0186725D01*
X0351271Y0186842D01*
X0350547Y0186976D01*
X0349827Y0187129D01*
X0349111Y0187299D01*
X0348399Y0187487D01*
X0347691Y0187692D01*
X0346990Y0187914D01*
X0346293Y0188154D01*
X0345603Y0188410D01*
X0344919Y0188684D01*
X0344243Y0188974D01*
X0343573Y0189280D01*
X0342912Y0189603D01*
X0342258Y0189942D01*
X0341613Y0190297D01*
X0340977Y0190668D01*
X0340350Y0191054D01*
X0339733Y0191456D01*
X0339126Y0191872D01*
X0338529Y0192304D01*
X0337943Y0192750D01*
X0337368Y0193210D01*
X0336805Y0193684D01*
X0336253Y0194171D01*
X0335714Y0194673D01*
X0335187Y0195187D01*
X0334673Y0195714D01*
X0334171Y0196253D01*
X0333684Y0196805D01*
X0333210Y0197368D01*
X0332750Y0197943D01*
X0332304Y0198529D01*
X0331872Y0199126D01*
X0331456Y0199733D01*
X0331054Y0200350D01*
X0330668Y0200977D01*
X0330297Y0201613D01*
X0329942Y0202258D01*
X0329603Y0202912D01*
X0329280Y0203573D01*
X0328974Y0204243D01*
X0328684Y0204919D01*
X0328410Y0205603D01*
X0328154Y0206293D01*
X0327914Y0206990D01*
X0327692Y0207691D01*
X0327487Y0208399D01*
X0327299Y0209111D01*
X0327129Y0209827D01*
X0326976Y0210547D01*
X0326842Y0211271D01*
X0326725Y0211998D01*
X0326626Y0212728D01*
X0326544Y0213459D01*
X0326481Y0214193D01*
X0326436Y0214928D01*
X0326409Y0215664D01*
X0326400Y0216400D01*
X0334891Y0229214D02*
X0335201Y0229732D01*
X0335524Y0230243D01*
X0335859Y0230746D01*
X0336206Y0231240D01*
X0336565Y0231726D01*
X0336936Y0232202D01*
X0337319Y0232670D01*
X0337713Y0233128D01*
X0338118Y0233576D01*
X0338534Y0234014D01*
X0338961Y0234442D01*
X0339398Y0234859D01*
X0339845Y0235265D01*
X0340302Y0235660D01*
X0340768Y0236044D01*
X0341244Y0236416D01*
X0341729Y0236777D01*
X0342222Y0237125D01*
X0342724Y0237461D01*
X0343234Y0237785D01*
X0343752Y0238096D01*
X0344277Y0238395D01*
X0344809Y0238680D01*
X0345348Y0238952D01*
X0345894Y0239211D01*
X0346446Y0239457D01*
X0347004Y0239689D01*
X0347567Y0239907D01*
X0348136Y0240111D01*
X0348709Y0240301D01*
X0349287Y0240477D01*
X0349869Y0240639D01*
X0350455Y0240787D01*
X0351044Y0240920D01*
X0351636Y0241038D01*
X0352231Y0241142D01*
X0352829Y0241232D01*
X0353428Y0241307D01*
X0354029Y0241367D01*
X0354632Y0241412D01*
X0355235Y0241442D01*
X0355839Y0241458D01*
X0356443Y0241459D01*
X0357047Y0241444D01*
X0357650Y0241416D01*
X0358253Y0241372D01*
X0358854Y0241313D01*
X0359454Y0241240D01*
X0360051Y0241152D01*
X0360647Y0241050D01*
X0361239Y0240933D01*
X0361829Y0240801D01*
X0362415Y0240655D01*
X0362997Y0240495D01*
X0363576Y0240320D01*
X0364149Y0240131D01*
X0364718Y0239929D01*
X0365282Y0239712D01*
X0365841Y0239481D01*
X0366393Y0239237D01*
X0366940Y0238980D01*
X0367480Y0238709D01*
X0368013Y0238425D01*
X0368539Y0238128D01*
X0369057Y0237818D01*
X0369568Y0237495D01*
X0370071Y0237160D01*
X0370565Y0236813D01*
X0371051Y0236454D01*
X0371527Y0236083D01*
X0371995Y0235700D01*
X0372453Y0235306D01*
X0372901Y0234901D01*
X0373339Y0234485D01*
X0373766Y0234058D01*
X0374184Y0233621D01*
X0374590Y0233174D01*
X0374985Y0232718D01*
X0375369Y0232251D01*
X0375741Y0231775D01*
X0376101Y0231291D01*
X0376450Y0230797D01*
X0376786Y0230295D01*
X0377110Y0229785D01*
X0377421Y0229268D01*
X0377720Y0228742D01*
X0378005Y0228210D01*
X0378277Y0227671D01*
X0378536Y0227125D01*
X0378782Y0226573D01*
X0379014Y0226015D01*
X0379232Y0225452D01*
X0379436Y0224883D01*
X0379626Y0224310D01*
X0379802Y0223732D01*
X0379964Y0223150D01*
X0380112Y0222564D01*
X0380245Y0221975D01*
X0380363Y0221383D01*
X0380467Y0220788D01*
X0380557Y0220190D01*
X0380632Y0219591D01*
X0380692Y0218990D01*
X0380737Y0218388D01*
X0380767Y0217784D01*
X0380783Y0217180D01*
X0380784Y0216576D01*
X0380769Y0215972D01*
X0380741Y0215369D01*
X0380697Y0214766D01*
X0380638Y0214165D01*
X0380565Y0213566D01*
X0380477Y0212968D01*
X0380375Y0212373D01*
X0380258Y0211780D01*
X0380126Y0211190D01*
X0379980Y0210604D01*
X0379820Y0210022D01*
X0379645Y0209444D01*
X0379456Y0208870D01*
X0379254Y0208301D01*
X0379037Y0207737D01*
X0378806Y0207179D01*
X0378562Y0206626D01*
X0378305Y0206080D01*
X0378034Y0205540D01*
X0377750Y0205007D01*
X0377453Y0204481D01*
D18*
X0326446Y0216400D02*
X0326455Y0217135D01*
X0326482Y0217870D01*
X0326527Y0218604D01*
X0326590Y0219336D01*
X0326671Y0220067D01*
X0326770Y0220795D01*
X0326887Y0221521D01*
X0327022Y0222244D01*
X0327174Y0222963D01*
X0327344Y0223678D01*
X0327531Y0224389D01*
X0327736Y0225095D01*
X0327958Y0225796D01*
X0328197Y0226491D01*
X0328453Y0227180D01*
X0328726Y0227863D01*
X0329016Y0228539D01*
X0329322Y0229207D01*
X0329644Y0229868D01*
X0329983Y0230520D01*
X0330337Y0231164D01*
X0330708Y0231799D01*
X0331093Y0232425D01*
X0331494Y0233042D01*
X0331910Y0233648D01*
X0332341Y0234244D01*
X0332786Y0234829D01*
X0333245Y0235403D01*
X0333719Y0235965D01*
X0334206Y0236516D01*
X0334706Y0237054D01*
X0335219Y0237581D01*
X0335746Y0238094D01*
X0336284Y0238594D01*
X0336835Y0239081D01*
X0337397Y0239555D01*
X0337971Y0240014D01*
X0338556Y0240459D01*
X0339152Y0240890D01*
X0339758Y0241306D01*
X0340375Y0241707D01*
X0341001Y0242092D01*
X0341636Y0242463D01*
X0342280Y0242817D01*
X0342932Y0243156D01*
X0343593Y0243478D01*
X0344261Y0243784D01*
X0344937Y0244074D01*
X0345620Y0244347D01*
X0346309Y0244603D01*
X0347004Y0244842D01*
X0347705Y0245064D01*
X0348411Y0245269D01*
X0349122Y0245456D01*
X0349837Y0245626D01*
X0350556Y0245778D01*
X0351279Y0245913D01*
X0352005Y0246030D01*
X0352733Y0246129D01*
X0353464Y0246210D01*
X0354196Y0246273D01*
X0354930Y0246318D01*
X0355665Y0246345D01*
X0356400Y0246354D01*
X0357135Y0246345D01*
X0357870Y0246318D01*
X0358604Y0246273D01*
X0359336Y0246210D01*
X0360067Y0246129D01*
X0360795Y0246030D01*
X0361521Y0245913D01*
X0362244Y0245778D01*
X0362963Y0245626D01*
X0363678Y0245456D01*
X0364389Y0245269D01*
X0365095Y0245064D01*
X0365796Y0244842D01*
X0366491Y0244603D01*
X0367180Y0244347D01*
X0367863Y0244074D01*
X0368539Y0243784D01*
X0369207Y0243478D01*
X0369868Y0243156D01*
X0370520Y0242817D01*
X0371164Y0242463D01*
X0371799Y0242092D01*
X0372425Y0241707D01*
X0373042Y0241306D01*
X0373648Y0240890D01*
X0374244Y0240459D01*
X0374829Y0240014D01*
X0375403Y0239555D01*
X0375965Y0239081D01*
X0376516Y0238594D01*
X0377054Y0238094D01*
X0377581Y0237581D01*
X0378094Y0237054D01*
X0378594Y0236516D01*
X0379081Y0235965D01*
X0379555Y0235403D01*
X0380014Y0234829D01*
X0380459Y0234244D01*
X0380890Y0233648D01*
X0381306Y0233042D01*
X0381707Y0232425D01*
X0382092Y0231799D01*
X0382463Y0231164D01*
X0382817Y0230520D01*
X0383156Y0229868D01*
X0383478Y0229207D01*
X0383784Y0228539D01*
X0384074Y0227863D01*
X0384347Y0227180D01*
X0384603Y0226491D01*
X0384842Y0225796D01*
X0385064Y0225095D01*
X0385269Y0224389D01*
X0385456Y0223678D01*
X0385626Y0222963D01*
X0385778Y0222244D01*
X0385913Y0221521D01*
X0386030Y0220795D01*
X0386129Y0220067D01*
X0386210Y0219336D01*
X0386273Y0218604D01*
X0386318Y0217870D01*
X0386345Y0217135D01*
X0386354Y0216400D01*
X0386345Y0215665D01*
X0386318Y0214930D01*
X0386273Y0214196D01*
X0386210Y0213464D01*
X0386129Y0212733D01*
X0386030Y0212005D01*
X0385913Y0211279D01*
X0385778Y0210556D01*
X0385626Y0209837D01*
X0385456Y0209122D01*
X0385269Y0208411D01*
X0385064Y0207705D01*
X0384842Y0207004D01*
X0384603Y0206309D01*
X0384347Y0205620D01*
X0384074Y0204937D01*
X0383784Y0204261D01*
X0383478Y0203593D01*
X0383156Y0202932D01*
X0382817Y0202280D01*
X0382463Y0201636D01*
X0382092Y0201001D01*
X0381707Y0200375D01*
X0381306Y0199758D01*
X0380890Y0199152D01*
X0380459Y0198556D01*
X0380014Y0197971D01*
X0379555Y0197397D01*
X0379081Y0196835D01*
X0378594Y0196284D01*
X0378094Y0195746D01*
X0377581Y0195219D01*
X0377054Y0194706D01*
X0376516Y0194206D01*
X0375965Y0193719D01*
X0375403Y0193245D01*
X0374829Y0192786D01*
X0374244Y0192341D01*
X0373648Y0191910D01*
X0373042Y0191494D01*
X0372425Y0191093D01*
X0371799Y0190708D01*
X0371164Y0190337D01*
X0370520Y0189983D01*
X0369868Y0189644D01*
X0369207Y0189322D01*
X0368539Y0189016D01*
X0367863Y0188726D01*
X0367180Y0188453D01*
X0366491Y0188197D01*
X0365796Y0187958D01*
X0365095Y0187736D01*
X0364389Y0187531D01*
X0363678Y0187344D01*
X0362963Y0187174D01*
X0362244Y0187022D01*
X0361521Y0186887D01*
X0360795Y0186770D01*
X0360067Y0186671D01*
X0359336Y0186590D01*
X0358604Y0186527D01*
X0357870Y0186482D01*
X0357135Y0186455D01*
X0356400Y0186446D01*
X0355665Y0186455D01*
X0354930Y0186482D01*
X0354196Y0186527D01*
X0353464Y0186590D01*
X0352733Y0186671D01*
X0352005Y0186770D01*
X0351279Y0186887D01*
X0350556Y0187022D01*
X0349837Y0187174D01*
X0349122Y0187344D01*
X0348411Y0187531D01*
X0347705Y0187736D01*
X0347004Y0187958D01*
X0346309Y0188197D01*
X0345620Y0188453D01*
X0344937Y0188726D01*
X0344261Y0189016D01*
X0343593Y0189322D01*
X0342932Y0189644D01*
X0342280Y0189983D01*
X0341636Y0190337D01*
X0341001Y0190708D01*
X0340375Y0191093D01*
X0339758Y0191494D01*
X0339152Y0191910D01*
X0338556Y0192341D01*
X0337971Y0192786D01*
X0337397Y0193245D01*
X0336835Y0193719D01*
X0336284Y0194206D01*
X0335746Y0194706D01*
X0335219Y0195219D01*
X0334706Y0195746D01*
X0334206Y0196284D01*
X0333719Y0196835D01*
X0333245Y0197397D01*
X0332786Y0197971D01*
X0332341Y0198556D01*
X0331910Y0199152D01*
X0331494Y0199758D01*
X0331093Y0200375D01*
X0330708Y0201001D01*
X0330337Y0201636D01*
X0329983Y0202280D01*
X0329644Y0202932D01*
X0329322Y0203593D01*
X0329016Y0204261D01*
X0328726Y0204937D01*
X0328453Y0205620D01*
X0328197Y0206309D01*
X0327958Y0207004D01*
X0327736Y0207705D01*
X0327531Y0208411D01*
X0327344Y0209122D01*
X0327174Y0209837D01*
X0327022Y0210556D01*
X0326887Y0211279D01*
X0326770Y0212005D01*
X0326671Y0212733D01*
X0326590Y0213464D01*
X0326527Y0214196D01*
X0326482Y0214930D01*
X0326455Y0215665D01*
X0326446Y0216400D01*
X0334749Y0228900D02*
X0335055Y0229417D01*
X0335375Y0229926D01*
X0335707Y0230428D01*
X0336051Y0230921D01*
X0336406Y0231406D01*
X0336774Y0231881D01*
X0337153Y0232348D01*
X0337543Y0232806D01*
X0337944Y0233253D01*
X0338356Y0233691D01*
X0338779Y0234119D01*
X0339211Y0234536D01*
X0339654Y0234943D01*
X0340107Y0235339D01*
X0340569Y0235723D01*
X0341040Y0236096D01*
X0341521Y0236458D01*
X0342010Y0236808D01*
X0342507Y0237146D01*
X0343012Y0237471D01*
X0343526Y0237785D01*
X0344046Y0238085D01*
X0344574Y0238373D01*
X0345109Y0238648D01*
X0345650Y0238910D01*
X0346197Y0239158D01*
X0346751Y0239393D01*
X0347310Y0239615D01*
X0347874Y0239823D01*
X0348443Y0240017D01*
X0349016Y0240197D01*
X0349594Y0240363D01*
X0350176Y0240516D01*
X0350761Y0240653D01*
X0351349Y0240777D01*
X0351941Y0240886D01*
X0352534Y0240981D01*
X0353130Y0241061D01*
X0353728Y0241127D01*
X0354327Y0241178D01*
X0354927Y0241215D01*
X0355528Y0241237D01*
X0356129Y0241244D01*
X0356730Y0241237D01*
X0357331Y0241215D01*
X0357931Y0241178D01*
X0358530Y0241127D01*
X0359128Y0241061D01*
X0359724Y0240981D01*
X0360317Y0240886D01*
X0360909Y0240777D01*
X0361497Y0240653D01*
X0362082Y0240516D01*
X0362664Y0240363D01*
X0363242Y0240197D01*
X0363815Y0240017D01*
X0364384Y0239823D01*
X0364948Y0239615D01*
X0365507Y0239393D01*
X0366061Y0239158D01*
X0366608Y0238910D01*
X0367149Y0238648D01*
X0367684Y0238373D01*
X0368212Y0238085D01*
X0368732Y0237785D01*
X0369246Y0237471D01*
X0369751Y0237146D01*
X0370248Y0236808D01*
X0370737Y0236458D01*
X0371218Y0236096D01*
X0371689Y0235723D01*
X0372151Y0235339D01*
X0372604Y0234943D01*
X0373047Y0234536D01*
X0373479Y0234119D01*
X0373902Y0233691D01*
X0374314Y0233253D01*
X0374715Y0232806D01*
X0375105Y0232348D01*
X0375484Y0231881D01*
X0375852Y0231406D01*
X0376207Y0230921D01*
X0376551Y0230428D01*
X0376883Y0229926D01*
X0377203Y0229417D01*
X0377509Y0228900D01*
X0377804Y0228376D01*
X0378085Y0227844D01*
X0378353Y0227306D01*
X0378609Y0226762D01*
X0378851Y0226212D01*
X0379079Y0225655D01*
X0379294Y0225094D01*
X0379495Y0224527D01*
X0379682Y0223956D01*
X0379855Y0223380D01*
X0380014Y0222800D01*
X0380159Y0222217D01*
X0380290Y0221630D01*
X0380406Y0221040D01*
X0380508Y0220448D01*
X0380596Y0219853D01*
X0380669Y0219256D01*
X0380727Y0218658D01*
X0380771Y0218058D01*
X0380801Y0217458D01*
X0380815Y0216857D01*
X0380815Y0216255D01*
X0380801Y0215654D01*
X0380771Y0215054D01*
X0380727Y0214454D01*
X0380669Y0213856D01*
X0380596Y0213259D01*
X0380508Y0212664D01*
X0380406Y0212072D01*
X0380290Y0211482D01*
X0380159Y0210895D01*
X0380014Y0210312D01*
X0379855Y0209732D01*
X0379682Y0209156D01*
X0379495Y0208585D01*
X0379294Y0208018D01*
X0379079Y0207457D01*
X0378851Y0206900D01*
X0378609Y0206350D01*
X0378353Y0205806D01*
X0378085Y0205268D01*
X0377804Y0204736D01*
X0377509Y0204212D01*
X0236446Y0216400D02*
X0236455Y0217135D01*
X0236482Y0217870D01*
X0236527Y0218604D01*
X0236590Y0219336D01*
X0236671Y0220067D01*
X0236770Y0220795D01*
X0236887Y0221521D01*
X0237022Y0222244D01*
X0237174Y0222963D01*
X0237344Y0223678D01*
X0237531Y0224389D01*
X0237736Y0225095D01*
X0237958Y0225796D01*
X0238197Y0226491D01*
X0238453Y0227180D01*
X0238726Y0227863D01*
X0239016Y0228539D01*
X0239322Y0229207D01*
X0239644Y0229868D01*
X0239983Y0230520D01*
X0240337Y0231164D01*
X0240708Y0231799D01*
X0241093Y0232425D01*
X0241494Y0233042D01*
X0241910Y0233648D01*
X0242341Y0234244D01*
X0242786Y0234829D01*
X0243245Y0235403D01*
X0243719Y0235965D01*
X0244206Y0236516D01*
X0244706Y0237054D01*
X0245219Y0237581D01*
X0245746Y0238094D01*
X0246284Y0238594D01*
X0246835Y0239081D01*
X0247397Y0239555D01*
X0247971Y0240014D01*
X0248556Y0240459D01*
X0249152Y0240890D01*
X0249758Y0241306D01*
X0250375Y0241707D01*
X0251001Y0242092D01*
X0251636Y0242463D01*
X0252280Y0242817D01*
X0252932Y0243156D01*
X0253593Y0243478D01*
X0254261Y0243784D01*
X0254937Y0244074D01*
X0255620Y0244347D01*
X0256309Y0244603D01*
X0257004Y0244842D01*
X0257705Y0245064D01*
X0258411Y0245269D01*
X0259122Y0245456D01*
X0259837Y0245626D01*
X0260556Y0245778D01*
X0261279Y0245913D01*
X0262005Y0246030D01*
X0262733Y0246129D01*
X0263464Y0246210D01*
X0264196Y0246273D01*
X0264930Y0246318D01*
X0265665Y0246345D01*
X0266400Y0246354D01*
X0267135Y0246345D01*
X0267870Y0246318D01*
X0268604Y0246273D01*
X0269336Y0246210D01*
X0270067Y0246129D01*
X0270795Y0246030D01*
X0271521Y0245913D01*
X0272244Y0245778D01*
X0272963Y0245626D01*
X0273678Y0245456D01*
X0274389Y0245269D01*
X0275095Y0245064D01*
X0275796Y0244842D01*
X0276491Y0244603D01*
X0277180Y0244347D01*
X0277863Y0244074D01*
X0278539Y0243784D01*
X0279207Y0243478D01*
X0279868Y0243156D01*
X0280520Y0242817D01*
X0281164Y0242463D01*
X0281799Y0242092D01*
X0282425Y0241707D01*
X0283042Y0241306D01*
X0283648Y0240890D01*
X0284244Y0240459D01*
X0284829Y0240014D01*
X0285403Y0239555D01*
X0285965Y0239081D01*
X0286516Y0238594D01*
X0287054Y0238094D01*
X0287581Y0237581D01*
X0288094Y0237054D01*
X0288594Y0236516D01*
X0289081Y0235965D01*
X0289555Y0235403D01*
X0290014Y0234829D01*
X0290459Y0234244D01*
X0290890Y0233648D01*
X0291306Y0233042D01*
X0291707Y0232425D01*
X0292092Y0231799D01*
X0292463Y0231164D01*
X0292817Y0230520D01*
X0293156Y0229868D01*
X0293478Y0229207D01*
X0293784Y0228539D01*
X0294074Y0227863D01*
X0294347Y0227180D01*
X0294603Y0226491D01*
X0294842Y0225796D01*
X0295064Y0225095D01*
X0295269Y0224389D01*
X0295456Y0223678D01*
X0295626Y0222963D01*
X0295778Y0222244D01*
X0295913Y0221521D01*
X0296030Y0220795D01*
X0296129Y0220067D01*
X0296210Y0219336D01*
X0296273Y0218604D01*
X0296318Y0217870D01*
X0296345Y0217135D01*
X0296354Y0216400D01*
X0296345Y0215665D01*
X0296318Y0214930D01*
X0296273Y0214196D01*
X0296210Y0213464D01*
X0296129Y0212733D01*
X0296030Y0212005D01*
X0295913Y0211279D01*
X0295778Y0210556D01*
X0295626Y0209837D01*
X0295456Y0209122D01*
X0295269Y0208411D01*
X0295064Y0207705D01*
X0294842Y0207004D01*
X0294603Y0206309D01*
X0294347Y0205620D01*
X0294074Y0204937D01*
X0293784Y0204261D01*
X0293478Y0203593D01*
X0293156Y0202932D01*
X0292817Y0202280D01*
X0292463Y0201636D01*
X0292092Y0201001D01*
X0291707Y0200375D01*
X0291306Y0199758D01*
X0290890Y0199152D01*
X0290459Y0198556D01*
X0290014Y0197971D01*
X0289555Y0197397D01*
X0289081Y0196835D01*
X0288594Y0196284D01*
X0288094Y0195746D01*
X0287581Y0195219D01*
X0287054Y0194706D01*
X0286516Y0194206D01*
X0285965Y0193719D01*
X0285403Y0193245D01*
X0284829Y0192786D01*
X0284244Y0192341D01*
X0283648Y0191910D01*
X0283042Y0191494D01*
X0282425Y0191093D01*
X0281799Y0190708D01*
X0281164Y0190337D01*
X0280520Y0189983D01*
X0279868Y0189644D01*
X0279207Y0189322D01*
X0278539Y0189016D01*
X0277863Y0188726D01*
X0277180Y0188453D01*
X0276491Y0188197D01*
X0275796Y0187958D01*
X0275095Y0187736D01*
X0274389Y0187531D01*
X0273678Y0187344D01*
X0272963Y0187174D01*
X0272244Y0187022D01*
X0271521Y0186887D01*
X0270795Y0186770D01*
X0270067Y0186671D01*
X0269336Y0186590D01*
X0268604Y0186527D01*
X0267870Y0186482D01*
X0267135Y0186455D01*
X0266400Y0186446D01*
X0265665Y0186455D01*
X0264930Y0186482D01*
X0264196Y0186527D01*
X0263464Y0186590D01*
X0262733Y0186671D01*
X0262005Y0186770D01*
X0261279Y0186887D01*
X0260556Y0187022D01*
X0259837Y0187174D01*
X0259122Y0187344D01*
X0258411Y0187531D01*
X0257705Y0187736D01*
X0257004Y0187958D01*
X0256309Y0188197D01*
X0255620Y0188453D01*
X0254937Y0188726D01*
X0254261Y0189016D01*
X0253593Y0189322D01*
X0252932Y0189644D01*
X0252280Y0189983D01*
X0251636Y0190337D01*
X0251001Y0190708D01*
X0250375Y0191093D01*
X0249758Y0191494D01*
X0249152Y0191910D01*
X0248556Y0192341D01*
X0247971Y0192786D01*
X0247397Y0193245D01*
X0246835Y0193719D01*
X0246284Y0194206D01*
X0245746Y0194706D01*
X0245219Y0195219D01*
X0244706Y0195746D01*
X0244206Y0196284D01*
X0243719Y0196835D01*
X0243245Y0197397D01*
X0242786Y0197971D01*
X0242341Y0198556D01*
X0241910Y0199152D01*
X0241494Y0199758D01*
X0241093Y0200375D01*
X0240708Y0201001D01*
X0240337Y0201636D01*
X0239983Y0202280D01*
X0239644Y0202932D01*
X0239322Y0203593D01*
X0239016Y0204261D01*
X0238726Y0204937D01*
X0238453Y0205620D01*
X0238197Y0206309D01*
X0237958Y0207004D01*
X0237736Y0207705D01*
X0237531Y0208411D01*
X0237344Y0209122D01*
X0237174Y0209837D01*
X0237022Y0210556D01*
X0236887Y0211279D01*
X0236770Y0212005D01*
X0236671Y0212733D01*
X0236590Y0213464D01*
X0236527Y0214196D01*
X0236482Y0214930D01*
X0236455Y0215665D01*
X0236446Y0216400D01*
X0244749Y0228900D02*
X0245055Y0229417D01*
X0245375Y0229926D01*
X0245707Y0230428D01*
X0246051Y0230921D01*
X0246406Y0231406D01*
X0246774Y0231881D01*
X0247153Y0232348D01*
X0247543Y0232806D01*
X0247944Y0233253D01*
X0248356Y0233691D01*
X0248779Y0234119D01*
X0249211Y0234536D01*
X0249654Y0234943D01*
X0250107Y0235339D01*
X0250569Y0235723D01*
X0251040Y0236096D01*
X0251521Y0236458D01*
X0252010Y0236808D01*
X0252507Y0237146D01*
X0253012Y0237471D01*
X0253526Y0237785D01*
X0254046Y0238085D01*
X0254574Y0238373D01*
X0255109Y0238648D01*
X0255650Y0238910D01*
X0256197Y0239158D01*
X0256751Y0239393D01*
X0257310Y0239615D01*
X0257874Y0239823D01*
X0258443Y0240017D01*
X0259016Y0240197D01*
X0259594Y0240363D01*
X0260176Y0240516D01*
X0260761Y0240653D01*
X0261349Y0240777D01*
X0261941Y0240886D01*
X0262534Y0240981D01*
X0263130Y0241061D01*
X0263728Y0241127D01*
X0264327Y0241178D01*
X0264927Y0241215D01*
X0265528Y0241237D01*
X0266129Y0241244D01*
X0266730Y0241237D01*
X0267331Y0241215D01*
X0267931Y0241178D01*
X0268530Y0241127D01*
X0269128Y0241061D01*
X0269724Y0240981D01*
X0270317Y0240886D01*
X0270909Y0240777D01*
X0271497Y0240653D01*
X0272082Y0240516D01*
X0272664Y0240363D01*
X0273242Y0240197D01*
X0273815Y0240017D01*
X0274384Y0239823D01*
X0274948Y0239615D01*
X0275507Y0239393D01*
X0276061Y0239158D01*
X0276608Y0238910D01*
X0277149Y0238648D01*
X0277684Y0238373D01*
X0278212Y0238085D01*
X0278732Y0237785D01*
X0279246Y0237471D01*
X0279751Y0237146D01*
X0280248Y0236808D01*
X0280737Y0236458D01*
X0281218Y0236096D01*
X0281689Y0235723D01*
X0282151Y0235339D01*
X0282604Y0234943D01*
X0283047Y0234536D01*
X0283479Y0234119D01*
X0283902Y0233691D01*
X0284314Y0233253D01*
X0284715Y0232806D01*
X0285105Y0232348D01*
X0285484Y0231881D01*
X0285852Y0231406D01*
X0286207Y0230921D01*
X0286551Y0230428D01*
X0286883Y0229926D01*
X0287203Y0229417D01*
X0287509Y0228900D01*
X0287804Y0228376D01*
X0288085Y0227844D01*
X0288353Y0227306D01*
X0288609Y0226762D01*
X0288851Y0226212D01*
X0289079Y0225655D01*
X0289294Y0225094D01*
X0289495Y0224527D01*
X0289682Y0223956D01*
X0289855Y0223380D01*
X0290014Y0222800D01*
X0290159Y0222217D01*
X0290290Y0221630D01*
X0290406Y0221040D01*
X0290508Y0220448D01*
X0290596Y0219853D01*
X0290669Y0219256D01*
X0290727Y0218658D01*
X0290771Y0218058D01*
X0290801Y0217458D01*
X0290815Y0216857D01*
X0290815Y0216255D01*
X0290801Y0215654D01*
X0290771Y0215054D01*
X0290727Y0214454D01*
X0290669Y0213856D01*
X0290596Y0213259D01*
X0290508Y0212664D01*
X0290406Y0212072D01*
X0290290Y0211482D01*
X0290159Y0210895D01*
X0290014Y0210312D01*
X0289855Y0209732D01*
X0289682Y0209156D01*
X0289495Y0208585D01*
X0289294Y0208018D01*
X0289079Y0207457D01*
X0288851Y0206900D01*
X0288609Y0206350D01*
X0288353Y0205806D01*
X0288085Y0205268D01*
X0287804Y0204736D01*
X0287509Y0204212D01*
X0294439Y0125396D02*
X0294441Y0125485D01*
X0294447Y0125574D01*
X0294457Y0125663D01*
X0294471Y0125751D01*
X0294488Y0125838D01*
X0294510Y0125924D01*
X0294536Y0126010D01*
X0294565Y0126094D01*
X0294598Y0126177D01*
X0294634Y0126258D01*
X0294675Y0126338D01*
X0294718Y0126415D01*
X0294765Y0126491D01*
X0294816Y0126564D01*
X0294869Y0126635D01*
X0294926Y0126704D01*
X0294986Y0126770D01*
X0295049Y0126834D01*
X0295114Y0126894D01*
X0295182Y0126952D01*
X0295253Y0127006D01*
X0295326Y0127057D01*
X0295401Y0127105D01*
X0295478Y0127150D01*
X0295557Y0127191D01*
X0295638Y0127228D01*
X0295720Y0127262D01*
X0295804Y0127293D01*
X0295889Y0127319D01*
X0295975Y0127342D01*
X0296062Y0127360D01*
X0296150Y0127375D01*
X0296239Y0127386D01*
X0296328Y0127393D01*
X0296417Y0127396D01*
X0296506Y0127395D01*
X0296595Y0127390D01*
X0296683Y0127381D01*
X0296772Y0127368D01*
X0296859Y0127351D01*
X0296946Y0127331D01*
X0297032Y0127306D01*
X0297116Y0127278D01*
X0297199Y0127246D01*
X0297281Y0127210D01*
X0297361Y0127171D01*
X0297439Y0127128D01*
X0297515Y0127082D01*
X0297589Y0127032D01*
X0297661Y0126979D01*
X0297730Y0126923D01*
X0297797Y0126864D01*
X0297861Y0126802D01*
X0297922Y0126738D01*
X0297981Y0126670D01*
X0298036Y0126600D01*
X0298088Y0126528D01*
X0298137Y0126453D01*
X0298182Y0126377D01*
X0298224Y0126298D01*
X0298262Y0126218D01*
X0298297Y0126136D01*
X0298328Y0126052D01*
X0298356Y0125967D01*
X0298379Y0125881D01*
X0298399Y0125794D01*
X0298415Y0125707D01*
X0298427Y0125618D01*
X0298435Y0125530D01*
X0298439Y0125441D01*
X0298439Y0125351D01*
X0298435Y0125262D01*
X0298427Y0125174D01*
X0298415Y0125085D01*
X0298399Y0124998D01*
X0298379Y0124911D01*
X0298356Y0124825D01*
X0298328Y0124740D01*
X0298297Y0124656D01*
X0298262Y0124574D01*
X0298224Y0124494D01*
X0298182Y0124415D01*
X0298137Y0124339D01*
X0298088Y0124264D01*
X0298036Y0124192D01*
X0297981Y0124122D01*
X0297922Y0124054D01*
X0297861Y0123990D01*
X0297797Y0123928D01*
X0297730Y0123869D01*
X0297661Y0123813D01*
X0297589Y0123760D01*
X0297515Y0123710D01*
X0297439Y0123664D01*
X0297361Y0123621D01*
X0297281Y0123582D01*
X0297199Y0123546D01*
X0297116Y0123514D01*
X0297032Y0123486D01*
X0296946Y0123461D01*
X0296859Y0123441D01*
X0296772Y0123424D01*
X0296683Y0123411D01*
X0296595Y0123402D01*
X0296506Y0123397D01*
X0296417Y0123396D01*
X0296328Y0123399D01*
X0296239Y0123406D01*
X0296150Y0123417D01*
X0296062Y0123432D01*
X0295975Y0123450D01*
X0295889Y0123473D01*
X0295804Y0123499D01*
X0295720Y0123530D01*
X0295638Y0123564D01*
X0295557Y0123601D01*
X0295478Y0123642D01*
X0295401Y0123687D01*
X0295326Y0123735D01*
X0295253Y0123786D01*
X0295182Y0123840D01*
X0295114Y0123898D01*
X0295049Y0123958D01*
X0294986Y0124022D01*
X0294926Y0124088D01*
X0294869Y0124157D01*
X0294816Y0124228D01*
X0294765Y0124301D01*
X0294718Y0124377D01*
X0294675Y0124454D01*
X0294634Y0124534D01*
X0294598Y0124615D01*
X0294565Y0124698D01*
X0294536Y0124782D01*
X0294510Y0124868D01*
X0294488Y0124954D01*
X0294471Y0125041D01*
X0294457Y0125129D01*
X0294447Y0125218D01*
X0294441Y0125307D01*
X0294439Y0125396D01*
X0111446Y0216400D02*
X0111455Y0217135D01*
X0111482Y0217870D01*
X0111527Y0218604D01*
X0111590Y0219336D01*
X0111671Y0220067D01*
X0111770Y0220795D01*
X0111887Y0221521D01*
X0112022Y0222244D01*
X0112174Y0222963D01*
X0112344Y0223678D01*
X0112531Y0224389D01*
X0112736Y0225095D01*
X0112958Y0225796D01*
X0113197Y0226491D01*
X0113453Y0227180D01*
X0113726Y0227863D01*
X0114016Y0228539D01*
X0114322Y0229207D01*
X0114644Y0229868D01*
X0114983Y0230520D01*
X0115337Y0231164D01*
X0115708Y0231799D01*
X0116093Y0232425D01*
X0116494Y0233042D01*
X0116910Y0233648D01*
X0117341Y0234244D01*
X0117786Y0234829D01*
X0118245Y0235403D01*
X0118719Y0235965D01*
X0119206Y0236516D01*
X0119706Y0237054D01*
X0120219Y0237581D01*
X0120746Y0238094D01*
X0121284Y0238594D01*
X0121835Y0239081D01*
X0122397Y0239555D01*
X0122971Y0240014D01*
X0123556Y0240459D01*
X0124152Y0240890D01*
X0124758Y0241306D01*
X0125375Y0241707D01*
X0126001Y0242092D01*
X0126636Y0242463D01*
X0127280Y0242817D01*
X0127932Y0243156D01*
X0128593Y0243478D01*
X0129261Y0243784D01*
X0129937Y0244074D01*
X0130620Y0244347D01*
X0131309Y0244603D01*
X0132004Y0244842D01*
X0132705Y0245064D01*
X0133411Y0245269D01*
X0134122Y0245456D01*
X0134837Y0245626D01*
X0135556Y0245778D01*
X0136279Y0245913D01*
X0137005Y0246030D01*
X0137733Y0246129D01*
X0138464Y0246210D01*
X0139196Y0246273D01*
X0139930Y0246318D01*
X0140665Y0246345D01*
X0141400Y0246354D01*
X0142135Y0246345D01*
X0142870Y0246318D01*
X0143604Y0246273D01*
X0144336Y0246210D01*
X0145067Y0246129D01*
X0145795Y0246030D01*
X0146521Y0245913D01*
X0147244Y0245778D01*
X0147963Y0245626D01*
X0148678Y0245456D01*
X0149389Y0245269D01*
X0150095Y0245064D01*
X0150796Y0244842D01*
X0151491Y0244603D01*
X0152180Y0244347D01*
X0152863Y0244074D01*
X0153539Y0243784D01*
X0154207Y0243478D01*
X0154868Y0243156D01*
X0155520Y0242817D01*
X0156164Y0242463D01*
X0156799Y0242092D01*
X0157425Y0241707D01*
X0158042Y0241306D01*
X0158648Y0240890D01*
X0159244Y0240459D01*
X0159829Y0240014D01*
X0160403Y0239555D01*
X0160965Y0239081D01*
X0161516Y0238594D01*
X0162054Y0238094D01*
X0162581Y0237581D01*
X0163094Y0237054D01*
X0163594Y0236516D01*
X0164081Y0235965D01*
X0164555Y0235403D01*
X0165014Y0234829D01*
X0165459Y0234244D01*
X0165890Y0233648D01*
X0166306Y0233042D01*
X0166707Y0232425D01*
X0167092Y0231799D01*
X0167463Y0231164D01*
X0167817Y0230520D01*
X0168156Y0229868D01*
X0168478Y0229207D01*
X0168784Y0228539D01*
X0169074Y0227863D01*
X0169347Y0227180D01*
X0169603Y0226491D01*
X0169842Y0225796D01*
X0170064Y0225095D01*
X0170269Y0224389D01*
X0170456Y0223678D01*
X0170626Y0222963D01*
X0170778Y0222244D01*
X0170913Y0221521D01*
X0171030Y0220795D01*
X0171129Y0220067D01*
X0171210Y0219336D01*
X0171273Y0218604D01*
X0171318Y0217870D01*
X0171345Y0217135D01*
X0171354Y0216400D01*
X0171345Y0215665D01*
X0171318Y0214930D01*
X0171273Y0214196D01*
X0171210Y0213464D01*
X0171129Y0212733D01*
X0171030Y0212005D01*
X0170913Y0211279D01*
X0170778Y0210556D01*
X0170626Y0209837D01*
X0170456Y0209122D01*
X0170269Y0208411D01*
X0170064Y0207705D01*
X0169842Y0207004D01*
X0169603Y0206309D01*
X0169347Y0205620D01*
X0169074Y0204937D01*
X0168784Y0204261D01*
X0168478Y0203593D01*
X0168156Y0202932D01*
X0167817Y0202280D01*
X0167463Y0201636D01*
X0167092Y0201001D01*
X0166707Y0200375D01*
X0166306Y0199758D01*
X0165890Y0199152D01*
X0165459Y0198556D01*
X0165014Y0197971D01*
X0164555Y0197397D01*
X0164081Y0196835D01*
X0163594Y0196284D01*
X0163094Y0195746D01*
X0162581Y0195219D01*
X0162054Y0194706D01*
X0161516Y0194206D01*
X0160965Y0193719D01*
X0160403Y0193245D01*
X0159829Y0192786D01*
X0159244Y0192341D01*
X0158648Y0191910D01*
X0158042Y0191494D01*
X0157425Y0191093D01*
X0156799Y0190708D01*
X0156164Y0190337D01*
X0155520Y0189983D01*
X0154868Y0189644D01*
X0154207Y0189322D01*
X0153539Y0189016D01*
X0152863Y0188726D01*
X0152180Y0188453D01*
X0151491Y0188197D01*
X0150796Y0187958D01*
X0150095Y0187736D01*
X0149389Y0187531D01*
X0148678Y0187344D01*
X0147963Y0187174D01*
X0147244Y0187022D01*
X0146521Y0186887D01*
X0145795Y0186770D01*
X0145067Y0186671D01*
X0144336Y0186590D01*
X0143604Y0186527D01*
X0142870Y0186482D01*
X0142135Y0186455D01*
X0141400Y0186446D01*
X0140665Y0186455D01*
X0139930Y0186482D01*
X0139196Y0186527D01*
X0138464Y0186590D01*
X0137733Y0186671D01*
X0137005Y0186770D01*
X0136279Y0186887D01*
X0135556Y0187022D01*
X0134837Y0187174D01*
X0134122Y0187344D01*
X0133411Y0187531D01*
X0132705Y0187736D01*
X0132004Y0187958D01*
X0131309Y0188197D01*
X0130620Y0188453D01*
X0129937Y0188726D01*
X0129261Y0189016D01*
X0128593Y0189322D01*
X0127932Y0189644D01*
X0127280Y0189983D01*
X0126636Y0190337D01*
X0126001Y0190708D01*
X0125375Y0191093D01*
X0124758Y0191494D01*
X0124152Y0191910D01*
X0123556Y0192341D01*
X0122971Y0192786D01*
X0122397Y0193245D01*
X0121835Y0193719D01*
X0121284Y0194206D01*
X0120746Y0194706D01*
X0120219Y0195219D01*
X0119706Y0195746D01*
X0119206Y0196284D01*
X0118719Y0196835D01*
X0118245Y0197397D01*
X0117786Y0197971D01*
X0117341Y0198556D01*
X0116910Y0199152D01*
X0116494Y0199758D01*
X0116093Y0200375D01*
X0115708Y0201001D01*
X0115337Y0201636D01*
X0114983Y0202280D01*
X0114644Y0202932D01*
X0114322Y0203593D01*
X0114016Y0204261D01*
X0113726Y0204937D01*
X0113453Y0205620D01*
X0113197Y0206309D01*
X0112958Y0207004D01*
X0112736Y0207705D01*
X0112531Y0208411D01*
X0112344Y0209122D01*
X0112174Y0209837D01*
X0112022Y0210556D01*
X0111887Y0211279D01*
X0111770Y0212005D01*
X0111671Y0212733D01*
X0111590Y0213464D01*
X0111527Y0214196D01*
X0111482Y0214930D01*
X0111455Y0215665D01*
X0111446Y0216400D01*
X0119749Y0228900D02*
X0120055Y0229417D01*
X0120375Y0229926D01*
X0120707Y0230428D01*
X0121051Y0230921D01*
X0121406Y0231406D01*
X0121774Y0231881D01*
X0122153Y0232348D01*
X0122543Y0232806D01*
X0122944Y0233253D01*
X0123356Y0233691D01*
X0123779Y0234119D01*
X0124211Y0234536D01*
X0124654Y0234943D01*
X0125107Y0235339D01*
X0125569Y0235723D01*
X0126040Y0236096D01*
X0126521Y0236458D01*
X0127010Y0236808D01*
X0127507Y0237146D01*
X0128012Y0237471D01*
X0128526Y0237785D01*
X0129046Y0238085D01*
X0129574Y0238373D01*
X0130109Y0238648D01*
X0130650Y0238910D01*
X0131197Y0239158D01*
X0131751Y0239393D01*
X0132310Y0239615D01*
X0132874Y0239823D01*
X0133443Y0240017D01*
X0134016Y0240197D01*
X0134594Y0240363D01*
X0135176Y0240516D01*
X0135761Y0240653D01*
X0136349Y0240777D01*
X0136941Y0240886D01*
X0137534Y0240981D01*
X0138130Y0241061D01*
X0138728Y0241127D01*
X0139327Y0241178D01*
X0139927Y0241215D01*
X0140528Y0241237D01*
X0141129Y0241244D01*
X0141730Y0241237D01*
X0142331Y0241215D01*
X0142931Y0241178D01*
X0143530Y0241127D01*
X0144128Y0241061D01*
X0144724Y0240981D01*
X0145317Y0240886D01*
X0145909Y0240777D01*
X0146497Y0240653D01*
X0147082Y0240516D01*
X0147664Y0240363D01*
X0148242Y0240197D01*
X0148815Y0240017D01*
X0149384Y0239823D01*
X0149948Y0239615D01*
X0150507Y0239393D01*
X0151061Y0239158D01*
X0151608Y0238910D01*
X0152149Y0238648D01*
X0152684Y0238373D01*
X0153212Y0238085D01*
X0153732Y0237785D01*
X0154246Y0237471D01*
X0154751Y0237146D01*
X0155248Y0236808D01*
X0155737Y0236458D01*
X0156218Y0236096D01*
X0156689Y0235723D01*
X0157151Y0235339D01*
X0157604Y0234943D01*
X0158047Y0234536D01*
X0158479Y0234119D01*
X0158902Y0233691D01*
X0159314Y0233253D01*
X0159715Y0232806D01*
X0160105Y0232348D01*
X0160484Y0231881D01*
X0160852Y0231406D01*
X0161207Y0230921D01*
X0161551Y0230428D01*
X0161883Y0229926D01*
X0162203Y0229417D01*
X0162509Y0228900D01*
X0162804Y0228376D01*
X0163085Y0227844D01*
X0163353Y0227306D01*
X0163609Y0226762D01*
X0163851Y0226212D01*
X0164079Y0225655D01*
X0164294Y0225094D01*
X0164495Y0224527D01*
X0164682Y0223956D01*
X0164855Y0223380D01*
X0165014Y0222800D01*
X0165159Y0222217D01*
X0165290Y0221630D01*
X0165406Y0221040D01*
X0165508Y0220448D01*
X0165596Y0219853D01*
X0165669Y0219256D01*
X0165727Y0218658D01*
X0165771Y0218058D01*
X0165801Y0217458D01*
X0165815Y0216857D01*
X0165815Y0216255D01*
X0165801Y0215654D01*
X0165771Y0215054D01*
X0165727Y0214454D01*
X0165669Y0213856D01*
X0165596Y0213259D01*
X0165508Y0212664D01*
X0165406Y0212072D01*
X0165290Y0211482D01*
X0165159Y0210895D01*
X0165014Y0210312D01*
X0164855Y0209732D01*
X0164682Y0209156D01*
X0164495Y0208585D01*
X0164294Y0208018D01*
X0164079Y0207457D01*
X0163851Y0206900D01*
X0163609Y0206350D01*
X0163353Y0205806D01*
X0163085Y0205268D01*
X0162804Y0204736D01*
X0162509Y0204212D01*
X0021446Y0216400D02*
X0021455Y0217135D01*
X0021482Y0217870D01*
X0021527Y0218604D01*
X0021590Y0219336D01*
X0021671Y0220067D01*
X0021770Y0220795D01*
X0021887Y0221521D01*
X0022022Y0222244D01*
X0022174Y0222963D01*
X0022344Y0223678D01*
X0022531Y0224389D01*
X0022736Y0225095D01*
X0022958Y0225796D01*
X0023197Y0226491D01*
X0023453Y0227180D01*
X0023726Y0227863D01*
X0024016Y0228539D01*
X0024322Y0229207D01*
X0024644Y0229868D01*
X0024983Y0230520D01*
X0025337Y0231164D01*
X0025708Y0231799D01*
X0026093Y0232425D01*
X0026494Y0233042D01*
X0026910Y0233648D01*
X0027341Y0234244D01*
X0027786Y0234829D01*
X0028245Y0235403D01*
X0028719Y0235965D01*
X0029206Y0236516D01*
X0029706Y0237054D01*
X0030219Y0237581D01*
X0030746Y0238094D01*
X0031284Y0238594D01*
X0031835Y0239081D01*
X0032397Y0239555D01*
X0032971Y0240014D01*
X0033556Y0240459D01*
X0034152Y0240890D01*
X0034758Y0241306D01*
X0035375Y0241707D01*
X0036001Y0242092D01*
X0036636Y0242463D01*
X0037280Y0242817D01*
X0037932Y0243156D01*
X0038593Y0243478D01*
X0039261Y0243784D01*
X0039937Y0244074D01*
X0040620Y0244347D01*
X0041309Y0244603D01*
X0042004Y0244842D01*
X0042705Y0245064D01*
X0043411Y0245269D01*
X0044122Y0245456D01*
X0044837Y0245626D01*
X0045556Y0245778D01*
X0046279Y0245913D01*
X0047005Y0246030D01*
X0047733Y0246129D01*
X0048464Y0246210D01*
X0049196Y0246273D01*
X0049930Y0246318D01*
X0050665Y0246345D01*
X0051400Y0246354D01*
X0052135Y0246345D01*
X0052870Y0246318D01*
X0053604Y0246273D01*
X0054336Y0246210D01*
X0055067Y0246129D01*
X0055795Y0246030D01*
X0056521Y0245913D01*
X0057244Y0245778D01*
X0057963Y0245626D01*
X0058678Y0245456D01*
X0059389Y0245269D01*
X0060095Y0245064D01*
X0060796Y0244842D01*
X0061491Y0244603D01*
X0062180Y0244347D01*
X0062863Y0244074D01*
X0063539Y0243784D01*
X0064207Y0243478D01*
X0064868Y0243156D01*
X0065520Y0242817D01*
X0066164Y0242463D01*
X0066799Y0242092D01*
X0067425Y0241707D01*
X0068042Y0241306D01*
X0068648Y0240890D01*
X0069244Y0240459D01*
X0069829Y0240014D01*
X0070403Y0239555D01*
X0070965Y0239081D01*
X0071516Y0238594D01*
X0072054Y0238094D01*
X0072581Y0237581D01*
X0073094Y0237054D01*
X0073594Y0236516D01*
X0074081Y0235965D01*
X0074555Y0235403D01*
X0075014Y0234829D01*
X0075459Y0234244D01*
X0075890Y0233648D01*
X0076306Y0233042D01*
X0076707Y0232425D01*
X0077092Y0231799D01*
X0077463Y0231164D01*
X0077817Y0230520D01*
X0078156Y0229868D01*
X0078478Y0229207D01*
X0078784Y0228539D01*
X0079074Y0227863D01*
X0079347Y0227180D01*
X0079603Y0226491D01*
X0079842Y0225796D01*
X0080064Y0225095D01*
X0080269Y0224389D01*
X0080456Y0223678D01*
X0080626Y0222963D01*
X0080778Y0222244D01*
X0080913Y0221521D01*
X0081030Y0220795D01*
X0081129Y0220067D01*
X0081210Y0219336D01*
X0081273Y0218604D01*
X0081318Y0217870D01*
X0081345Y0217135D01*
X0081354Y0216400D01*
X0081345Y0215665D01*
X0081318Y0214930D01*
X0081273Y0214196D01*
X0081210Y0213464D01*
X0081129Y0212733D01*
X0081030Y0212005D01*
X0080913Y0211279D01*
X0080778Y0210556D01*
X0080626Y0209837D01*
X0080456Y0209122D01*
X0080269Y0208411D01*
X0080064Y0207705D01*
X0079842Y0207004D01*
X0079603Y0206309D01*
X0079347Y0205620D01*
X0079074Y0204937D01*
X0078784Y0204261D01*
X0078478Y0203593D01*
X0078156Y0202932D01*
X0077817Y0202280D01*
X0077463Y0201636D01*
X0077092Y0201001D01*
X0076707Y0200375D01*
X0076306Y0199758D01*
X0075890Y0199152D01*
X0075459Y0198556D01*
X0075014Y0197971D01*
X0074555Y0197397D01*
X0074081Y0196835D01*
X0073594Y0196284D01*
X0073094Y0195746D01*
X0072581Y0195219D01*
X0072054Y0194706D01*
X0071516Y0194206D01*
X0070965Y0193719D01*
X0070403Y0193245D01*
X0069829Y0192786D01*
X0069244Y0192341D01*
X0068648Y0191910D01*
X0068042Y0191494D01*
X0067425Y0191093D01*
X0066799Y0190708D01*
X0066164Y0190337D01*
X0065520Y0189983D01*
X0064868Y0189644D01*
X0064207Y0189322D01*
X0063539Y0189016D01*
X0062863Y0188726D01*
X0062180Y0188453D01*
X0061491Y0188197D01*
X0060796Y0187958D01*
X0060095Y0187736D01*
X0059389Y0187531D01*
X0058678Y0187344D01*
X0057963Y0187174D01*
X0057244Y0187022D01*
X0056521Y0186887D01*
X0055795Y0186770D01*
X0055067Y0186671D01*
X0054336Y0186590D01*
X0053604Y0186527D01*
X0052870Y0186482D01*
X0052135Y0186455D01*
X0051400Y0186446D01*
X0050665Y0186455D01*
X0049930Y0186482D01*
X0049196Y0186527D01*
X0048464Y0186590D01*
X0047733Y0186671D01*
X0047005Y0186770D01*
X0046279Y0186887D01*
X0045556Y0187022D01*
X0044837Y0187174D01*
X0044122Y0187344D01*
X0043411Y0187531D01*
X0042705Y0187736D01*
X0042004Y0187958D01*
X0041309Y0188197D01*
X0040620Y0188453D01*
X0039937Y0188726D01*
X0039261Y0189016D01*
X0038593Y0189322D01*
X0037932Y0189644D01*
X0037280Y0189983D01*
X0036636Y0190337D01*
X0036001Y0190708D01*
X0035375Y0191093D01*
X0034758Y0191494D01*
X0034152Y0191910D01*
X0033556Y0192341D01*
X0032971Y0192786D01*
X0032397Y0193245D01*
X0031835Y0193719D01*
X0031284Y0194206D01*
X0030746Y0194706D01*
X0030219Y0195219D01*
X0029706Y0195746D01*
X0029206Y0196284D01*
X0028719Y0196835D01*
X0028245Y0197397D01*
X0027786Y0197971D01*
X0027341Y0198556D01*
X0026910Y0199152D01*
X0026494Y0199758D01*
X0026093Y0200375D01*
X0025708Y0201001D01*
X0025337Y0201636D01*
X0024983Y0202280D01*
X0024644Y0202932D01*
X0024322Y0203593D01*
X0024016Y0204261D01*
X0023726Y0204937D01*
X0023453Y0205620D01*
X0023197Y0206309D01*
X0022958Y0207004D01*
X0022736Y0207705D01*
X0022531Y0208411D01*
X0022344Y0209122D01*
X0022174Y0209837D01*
X0022022Y0210556D01*
X0021887Y0211279D01*
X0021770Y0212005D01*
X0021671Y0212733D01*
X0021590Y0213464D01*
X0021527Y0214196D01*
X0021482Y0214930D01*
X0021455Y0215665D01*
X0021446Y0216400D01*
X0029749Y0228900D02*
X0030055Y0229417D01*
X0030375Y0229926D01*
X0030707Y0230428D01*
X0031051Y0230921D01*
X0031406Y0231406D01*
X0031774Y0231881D01*
X0032153Y0232348D01*
X0032543Y0232806D01*
X0032944Y0233253D01*
X0033356Y0233691D01*
X0033779Y0234119D01*
X0034211Y0234536D01*
X0034654Y0234943D01*
X0035107Y0235339D01*
X0035569Y0235723D01*
X0036040Y0236096D01*
X0036521Y0236458D01*
X0037010Y0236808D01*
X0037507Y0237146D01*
X0038012Y0237471D01*
X0038526Y0237785D01*
X0039046Y0238085D01*
X0039574Y0238373D01*
X0040109Y0238648D01*
X0040650Y0238910D01*
X0041197Y0239158D01*
X0041751Y0239393D01*
X0042310Y0239615D01*
X0042874Y0239823D01*
X0043443Y0240017D01*
X0044016Y0240197D01*
X0044594Y0240363D01*
X0045176Y0240516D01*
X0045761Y0240653D01*
X0046349Y0240777D01*
X0046941Y0240886D01*
X0047534Y0240981D01*
X0048130Y0241061D01*
X0048728Y0241127D01*
X0049327Y0241178D01*
X0049927Y0241215D01*
X0050528Y0241237D01*
X0051129Y0241244D01*
X0051730Y0241237D01*
X0052331Y0241215D01*
X0052931Y0241178D01*
X0053530Y0241127D01*
X0054128Y0241061D01*
X0054724Y0240981D01*
X0055317Y0240886D01*
X0055909Y0240777D01*
X0056497Y0240653D01*
X0057082Y0240516D01*
X0057664Y0240363D01*
X0058242Y0240197D01*
X0058815Y0240017D01*
X0059384Y0239823D01*
X0059948Y0239615D01*
X0060507Y0239393D01*
X0061061Y0239158D01*
X0061608Y0238910D01*
X0062149Y0238648D01*
X0062684Y0238373D01*
X0063212Y0238085D01*
X0063732Y0237785D01*
X0064246Y0237471D01*
X0064751Y0237146D01*
X0065248Y0236808D01*
X0065737Y0236458D01*
X0066218Y0236096D01*
X0066689Y0235723D01*
X0067151Y0235339D01*
X0067604Y0234943D01*
X0068047Y0234536D01*
X0068479Y0234119D01*
X0068902Y0233691D01*
X0069314Y0233253D01*
X0069715Y0232806D01*
X0070105Y0232348D01*
X0070484Y0231881D01*
X0070852Y0231406D01*
X0071207Y0230921D01*
X0071551Y0230428D01*
X0071883Y0229926D01*
X0072203Y0229417D01*
X0072509Y0228900D01*
X0072804Y0228376D01*
X0073085Y0227844D01*
X0073353Y0227306D01*
X0073609Y0226762D01*
X0073851Y0226212D01*
X0074079Y0225655D01*
X0074294Y0225094D01*
X0074495Y0224527D01*
X0074682Y0223956D01*
X0074855Y0223380D01*
X0075014Y0222800D01*
X0075159Y0222217D01*
X0075290Y0221630D01*
X0075406Y0221040D01*
X0075508Y0220448D01*
X0075596Y0219853D01*
X0075669Y0219256D01*
X0075727Y0218658D01*
X0075771Y0218058D01*
X0075801Y0217458D01*
X0075815Y0216857D01*
X0075815Y0216255D01*
X0075801Y0215654D01*
X0075771Y0215054D01*
X0075727Y0214454D01*
X0075669Y0213856D01*
X0075596Y0213259D01*
X0075508Y0212664D01*
X0075406Y0212072D01*
X0075290Y0211482D01*
X0075159Y0210895D01*
X0075014Y0210312D01*
X0074855Y0209732D01*
X0074682Y0209156D01*
X0074495Y0208585D01*
X0074294Y0208018D01*
X0074079Y0207457D01*
X0073851Y0206900D01*
X0073609Y0206350D01*
X0073353Y0205806D01*
X0073085Y0205268D01*
X0072804Y0204736D01*
X0072509Y0204212D01*
D19*
X0210683Y0127735D02*
X0210683Y0100735D01*
X0213683Y0100735D02*
X0213683Y0127735D01*
X0213685Y0127868D01*
X0213690Y0128000D01*
X0213699Y0128132D01*
X0213711Y0128265D01*
X0213727Y0128396D01*
X0213746Y0128528D01*
X0213769Y0128658D01*
X0213795Y0128788D01*
X0213825Y0128918D01*
X0213858Y0129046D01*
X0213894Y0129174D01*
X0213934Y0129300D01*
X0213977Y0129426D01*
X0214024Y0129550D01*
X0214074Y0129673D01*
X0214127Y0129794D01*
X0214183Y0129914D01*
X0210683Y0127735D02*
X0210685Y0127929D01*
X0210692Y0128124D01*
X0210704Y0128318D01*
X0210721Y0128512D01*
X0210742Y0128706D01*
X0210768Y0128899D01*
X0210799Y0129091D01*
X0210834Y0129282D01*
X0210874Y0129473D01*
X0210919Y0129662D01*
X0210968Y0129851D01*
X0211022Y0130038D01*
X0211080Y0130224D01*
X0211143Y0130408D01*
X0211210Y0130591D01*
X0211282Y0130772D01*
X0211358Y0130951D01*
X0211438Y0131128D01*
X0211523Y0131303D01*
X0211612Y0131477D01*
X0211705Y0131648D01*
X0211802Y0131816D01*
X0211904Y0131982D01*
X0212009Y0132146D01*
X0212118Y0132307D01*
X0212232Y0132466D01*
X0212349Y0132621D01*
X0212469Y0132774D01*
X0212594Y0132924D01*
X0212722Y0133070D01*
X0212853Y0133214D01*
X0212988Y0133354D01*
X0213127Y0133491D01*
X0213269Y0133624D01*
X0213413Y0133754D01*
X0213561Y0133881D01*
X0213713Y0134004D01*
X0213867Y0134123D01*
X0214023Y0134238D01*
X0214183Y0134349D01*
X0223183Y0129914D02*
X0223239Y0129794D01*
X0223292Y0129673D01*
X0223342Y0129550D01*
X0223389Y0129426D01*
X0223432Y0129300D01*
X0223472Y0129174D01*
X0223508Y0129046D01*
X0223541Y0128918D01*
X0223571Y0128788D01*
X0223597Y0128658D01*
X0223620Y0128528D01*
X0223639Y0128396D01*
X0223655Y0128265D01*
X0223667Y0128132D01*
X0223676Y0128000D01*
X0223681Y0127868D01*
X0223683Y0127735D01*
X0223683Y0100735D01*
X0226683Y0100735D02*
X0226683Y0127735D01*
X0226683Y0127734D02*
X0226681Y0127929D01*
X0226674Y0128124D01*
X0226662Y0128318D01*
X0226645Y0128512D01*
X0226624Y0128705D01*
X0226598Y0128898D01*
X0226567Y0129091D01*
X0226532Y0129282D01*
X0226492Y0129473D01*
X0226447Y0129662D01*
X0226398Y0129850D01*
X0226344Y0130038D01*
X0226286Y0130223D01*
X0226223Y0130408D01*
X0226156Y0130590D01*
X0226084Y0130771D01*
X0226008Y0130950D01*
X0225928Y0131128D01*
X0225843Y0131303D01*
X0225754Y0131476D01*
X0225661Y0131647D01*
X0225563Y0131816D01*
X0225462Y0131982D01*
X0225357Y0132146D01*
X0225247Y0132307D01*
X0225134Y0132465D01*
X0225017Y0132621D01*
X0224896Y0132773D01*
X0224772Y0132923D01*
X0224644Y0133070D01*
X0224512Y0133213D01*
X0224377Y0133353D01*
X0224239Y0133490D01*
X0224097Y0133624D01*
X0223952Y0133754D01*
X0223804Y0133880D01*
X0223653Y0134003D01*
X0223499Y0134122D01*
X0223342Y0134237D01*
X0223183Y0134349D01*
X0218683Y0118735D02*
X0218683Y0116735D01*
X0218683Y0111735D02*
X0218683Y0109735D01*
X0210683Y0100735D02*
X0210685Y0100540D01*
X0210692Y0100346D01*
X0210704Y0100151D01*
X0210721Y0099957D01*
X0210742Y0099764D01*
X0210768Y0099571D01*
X0210799Y0099379D01*
X0210834Y0099187D01*
X0210874Y0098997D01*
X0210919Y0098807D01*
X0210968Y0098619D01*
X0211022Y0098432D01*
X0211080Y0098246D01*
X0211143Y0098062D01*
X0211210Y0097879D01*
X0211282Y0097698D01*
X0211358Y0097519D01*
X0211438Y0097342D01*
X0211523Y0097166D01*
X0211612Y0096993D01*
X0211705Y0096822D01*
X0211802Y0096654D01*
X0211904Y0096487D01*
X0212009Y0096324D01*
X0212119Y0096163D01*
X0212232Y0096004D01*
X0212349Y0095849D01*
X0212470Y0095696D01*
X0212594Y0095546D01*
X0212722Y0095400D01*
X0212854Y0095256D01*
X0212989Y0095116D01*
X0213127Y0094979D01*
X0213269Y0094846D01*
X0213414Y0094716D01*
X0213562Y0094589D01*
X0213713Y0094466D01*
X0213867Y0094347D01*
X0214024Y0094232D01*
X0214183Y0094120D01*
X0223183Y0094120D02*
X0223343Y0094231D01*
X0223499Y0094346D01*
X0223653Y0094465D01*
X0223805Y0094588D01*
X0223953Y0094715D01*
X0224097Y0094845D01*
X0224239Y0094978D01*
X0224378Y0095115D01*
X0224513Y0095255D01*
X0224644Y0095399D01*
X0224772Y0095545D01*
X0224897Y0095695D01*
X0225017Y0095848D01*
X0225134Y0096003D01*
X0225248Y0096162D01*
X0225357Y0096323D01*
X0225462Y0096487D01*
X0225564Y0096653D01*
X0225661Y0096821D01*
X0225754Y0096992D01*
X0225843Y0097166D01*
X0225928Y0097341D01*
X0226008Y0097518D01*
X0226084Y0097697D01*
X0226156Y0097878D01*
X0226223Y0098061D01*
X0226286Y0098245D01*
X0226344Y0098431D01*
X0226398Y0098618D01*
X0226447Y0098807D01*
X0226492Y0098996D01*
X0226532Y0099187D01*
X0226567Y0099378D01*
X0226598Y0099570D01*
X0226624Y0099763D01*
X0226645Y0099957D01*
X0226662Y0100151D01*
X0226674Y0100345D01*
X0226681Y0100540D01*
X0226683Y0100734D01*
X0223683Y0100735D02*
X0223681Y0100602D01*
X0223676Y0100470D01*
X0223667Y0100338D01*
X0223655Y0100205D01*
X0223639Y0100074D01*
X0223620Y0099942D01*
X0223597Y0099812D01*
X0223571Y0099682D01*
X0223541Y0099552D01*
X0223508Y0099424D01*
X0223472Y0099296D01*
X0223432Y0099170D01*
X0223389Y0099044D01*
X0223342Y0098920D01*
X0223292Y0098797D01*
X0223239Y0098676D01*
X0223183Y0098556D01*
X0214183Y0098556D02*
X0214127Y0098676D01*
X0214074Y0098797D01*
X0214024Y0098920D01*
X0213977Y0099044D01*
X0213934Y0099170D01*
X0213894Y0099296D01*
X0213858Y0099424D01*
X0213825Y0099552D01*
X0213795Y0099682D01*
X0213769Y0099812D01*
X0213746Y0099942D01*
X0213727Y0100074D01*
X0213711Y0100205D01*
X0213699Y0100338D01*
X0213690Y0100470D01*
X0213685Y0100602D01*
X0213683Y0100735D01*
D20*
X0187005Y0115715D02*
X0187007Y0115795D01*
X0187013Y0115874D01*
X0187023Y0115953D01*
X0187037Y0116032D01*
X0187054Y0116110D01*
X0187076Y0116187D01*
X0187101Y0116262D01*
X0187131Y0116336D01*
X0187163Y0116409D01*
X0187200Y0116480D01*
X0187240Y0116549D01*
X0187283Y0116616D01*
X0187330Y0116681D01*
X0187379Y0116743D01*
X0187432Y0116803D01*
X0187488Y0116860D01*
X0187546Y0116915D01*
X0187607Y0116966D01*
X0187671Y0117014D01*
X0187737Y0117059D01*
X0187805Y0117101D01*
X0187875Y0117139D01*
X0187947Y0117173D01*
X0188020Y0117204D01*
X0188095Y0117232D01*
X0188172Y0117255D01*
X0188249Y0117275D01*
X0188327Y0117291D01*
X0188406Y0117303D01*
X0188485Y0117311D01*
X0188565Y0117315D01*
X0188645Y0117315D01*
X0188725Y0117311D01*
X0188804Y0117303D01*
X0188883Y0117291D01*
X0188961Y0117275D01*
X0189038Y0117255D01*
X0189115Y0117232D01*
X0189190Y0117204D01*
X0189263Y0117173D01*
X0189335Y0117139D01*
X0189405Y0117101D01*
X0189473Y0117059D01*
X0189539Y0117014D01*
X0189603Y0116966D01*
X0189664Y0116915D01*
X0189722Y0116860D01*
X0189778Y0116803D01*
X0189831Y0116743D01*
X0189880Y0116681D01*
X0189927Y0116616D01*
X0189970Y0116549D01*
X0190010Y0116480D01*
X0190047Y0116409D01*
X0190079Y0116336D01*
X0190109Y0116262D01*
X0190134Y0116187D01*
X0190156Y0116110D01*
X0190173Y0116032D01*
X0190187Y0115953D01*
X0190197Y0115874D01*
X0190203Y0115795D01*
X0190205Y0115715D01*
X0190203Y0115635D01*
X0190197Y0115556D01*
X0190187Y0115477D01*
X0190173Y0115398D01*
X0190156Y0115320D01*
X0190134Y0115243D01*
X0190109Y0115168D01*
X0190079Y0115094D01*
X0190047Y0115021D01*
X0190010Y0114950D01*
X0189970Y0114881D01*
X0189927Y0114814D01*
X0189880Y0114749D01*
X0189831Y0114687D01*
X0189778Y0114627D01*
X0189722Y0114570D01*
X0189664Y0114515D01*
X0189603Y0114464D01*
X0189539Y0114416D01*
X0189473Y0114371D01*
X0189405Y0114329D01*
X0189335Y0114291D01*
X0189263Y0114257D01*
X0189190Y0114226D01*
X0189115Y0114198D01*
X0189038Y0114175D01*
X0188961Y0114155D01*
X0188883Y0114139D01*
X0188804Y0114127D01*
X0188725Y0114119D01*
X0188645Y0114115D01*
X0188565Y0114115D01*
X0188485Y0114119D01*
X0188406Y0114127D01*
X0188327Y0114139D01*
X0188249Y0114155D01*
X0188172Y0114175D01*
X0188095Y0114198D01*
X0188020Y0114226D01*
X0187947Y0114257D01*
X0187875Y0114291D01*
X0187805Y0114329D01*
X0187737Y0114371D01*
X0187671Y0114416D01*
X0187607Y0114464D01*
X0187546Y0114515D01*
X0187488Y0114570D01*
X0187432Y0114627D01*
X0187379Y0114687D01*
X0187330Y0114749D01*
X0187283Y0114814D01*
X0187240Y0114881D01*
X0187200Y0114950D01*
X0187163Y0115021D01*
X0187131Y0115094D01*
X0187101Y0115168D01*
X0187076Y0115243D01*
X0187054Y0115320D01*
X0187037Y0115398D01*
X0187023Y0115477D01*
X0187013Y0115556D01*
X0187007Y0115635D01*
X0187005Y0115715D01*
X0187005Y0127715D02*
X0187007Y0127795D01*
X0187013Y0127874D01*
X0187023Y0127953D01*
X0187037Y0128032D01*
X0187054Y0128110D01*
X0187076Y0128187D01*
X0187101Y0128262D01*
X0187131Y0128336D01*
X0187163Y0128409D01*
X0187200Y0128480D01*
X0187240Y0128549D01*
X0187283Y0128616D01*
X0187330Y0128681D01*
X0187379Y0128743D01*
X0187432Y0128803D01*
X0187488Y0128860D01*
X0187546Y0128915D01*
X0187607Y0128966D01*
X0187671Y0129014D01*
X0187737Y0129059D01*
X0187805Y0129101D01*
X0187875Y0129139D01*
X0187947Y0129173D01*
X0188020Y0129204D01*
X0188095Y0129232D01*
X0188172Y0129255D01*
X0188249Y0129275D01*
X0188327Y0129291D01*
X0188406Y0129303D01*
X0188485Y0129311D01*
X0188565Y0129315D01*
X0188645Y0129315D01*
X0188725Y0129311D01*
X0188804Y0129303D01*
X0188883Y0129291D01*
X0188961Y0129275D01*
X0189038Y0129255D01*
X0189115Y0129232D01*
X0189190Y0129204D01*
X0189263Y0129173D01*
X0189335Y0129139D01*
X0189405Y0129101D01*
X0189473Y0129059D01*
X0189539Y0129014D01*
X0189603Y0128966D01*
X0189664Y0128915D01*
X0189722Y0128860D01*
X0189778Y0128803D01*
X0189831Y0128743D01*
X0189880Y0128681D01*
X0189927Y0128616D01*
X0189970Y0128549D01*
X0190010Y0128480D01*
X0190047Y0128409D01*
X0190079Y0128336D01*
X0190109Y0128262D01*
X0190134Y0128187D01*
X0190156Y0128110D01*
X0190173Y0128032D01*
X0190187Y0127953D01*
X0190197Y0127874D01*
X0190203Y0127795D01*
X0190205Y0127715D01*
X0190203Y0127635D01*
X0190197Y0127556D01*
X0190187Y0127477D01*
X0190173Y0127398D01*
X0190156Y0127320D01*
X0190134Y0127243D01*
X0190109Y0127168D01*
X0190079Y0127094D01*
X0190047Y0127021D01*
X0190010Y0126950D01*
X0189970Y0126881D01*
X0189927Y0126814D01*
X0189880Y0126749D01*
X0189831Y0126687D01*
X0189778Y0126627D01*
X0189722Y0126570D01*
X0189664Y0126515D01*
X0189603Y0126464D01*
X0189539Y0126416D01*
X0189473Y0126371D01*
X0189405Y0126329D01*
X0189335Y0126291D01*
X0189263Y0126257D01*
X0189190Y0126226D01*
X0189115Y0126198D01*
X0189038Y0126175D01*
X0188961Y0126155D01*
X0188883Y0126139D01*
X0188804Y0126127D01*
X0188725Y0126119D01*
X0188645Y0126115D01*
X0188565Y0126115D01*
X0188485Y0126119D01*
X0188406Y0126127D01*
X0188327Y0126139D01*
X0188249Y0126155D01*
X0188172Y0126175D01*
X0188095Y0126198D01*
X0188020Y0126226D01*
X0187947Y0126257D01*
X0187875Y0126291D01*
X0187805Y0126329D01*
X0187737Y0126371D01*
X0187671Y0126416D01*
X0187607Y0126464D01*
X0187546Y0126515D01*
X0187488Y0126570D01*
X0187432Y0126627D01*
X0187379Y0126687D01*
X0187330Y0126749D01*
X0187283Y0126814D01*
X0187240Y0126881D01*
X0187200Y0126950D01*
X0187163Y0127021D01*
X0187131Y0127094D01*
X0187101Y0127168D01*
X0187076Y0127243D01*
X0187054Y0127320D01*
X0187037Y0127398D01*
X0187023Y0127477D01*
X0187013Y0127556D01*
X0187007Y0127635D01*
X0187005Y0127715D01*
X0026240Y0117700D02*
X0023880Y0117700D01*
X0023388Y0118880D02*
X0023390Y0118961D01*
X0023396Y0119043D01*
X0023406Y0119124D01*
X0023420Y0119204D01*
X0023437Y0119283D01*
X0023459Y0119362D01*
X0023484Y0119439D01*
X0023513Y0119516D01*
X0023546Y0119590D01*
X0023583Y0119663D01*
X0023622Y0119734D01*
X0023666Y0119803D01*
X0023712Y0119870D01*
X0023762Y0119934D01*
X0023815Y0119996D01*
X0023871Y0120056D01*
X0023929Y0120112D01*
X0023991Y0120166D01*
X0024055Y0120217D01*
X0024121Y0120264D01*
X0024189Y0120308D01*
X0024260Y0120349D01*
X0024332Y0120386D01*
X0024407Y0120420D01*
X0024482Y0120450D01*
X0024560Y0120476D01*
X0024638Y0120499D01*
X0024717Y0120517D01*
X0024797Y0120532D01*
X0024878Y0120543D01*
X0024959Y0120550D01*
X0025041Y0120553D01*
X0025122Y0120552D01*
X0025203Y0120547D01*
X0025284Y0120538D01*
X0025365Y0120525D01*
X0025445Y0120508D01*
X0025523Y0120488D01*
X0025601Y0120463D01*
X0025678Y0120435D01*
X0025753Y0120403D01*
X0025826Y0120368D01*
X0025897Y0120329D01*
X0025967Y0120286D01*
X0026034Y0120241D01*
X0026100Y0120192D01*
X0026162Y0120140D01*
X0026222Y0120084D01*
X0026279Y0120026D01*
X0026334Y0119966D01*
X0026385Y0119902D01*
X0026433Y0119837D01*
X0026478Y0119769D01*
X0026520Y0119699D01*
X0026558Y0119627D01*
X0026593Y0119553D01*
X0026624Y0119478D01*
X0026651Y0119401D01*
X0026674Y0119323D01*
X0026694Y0119244D01*
X0026710Y0119164D01*
X0026722Y0119083D01*
X0026730Y0119002D01*
X0026734Y0118921D01*
X0026734Y0118839D01*
X0026730Y0118758D01*
X0026722Y0118677D01*
X0026710Y0118596D01*
X0026694Y0118516D01*
X0026674Y0118437D01*
X0026651Y0118359D01*
X0026624Y0118282D01*
X0026593Y0118207D01*
X0026558Y0118133D01*
X0026520Y0118061D01*
X0026478Y0117991D01*
X0026433Y0117923D01*
X0026385Y0117858D01*
X0026334Y0117794D01*
X0026279Y0117734D01*
X0026222Y0117676D01*
X0026162Y0117620D01*
X0026100Y0117568D01*
X0026034Y0117519D01*
X0025967Y0117474D01*
X0025898Y0117431D01*
X0025826Y0117392D01*
X0025753Y0117357D01*
X0025678Y0117325D01*
X0025601Y0117297D01*
X0025523Y0117272D01*
X0025445Y0117252D01*
X0025365Y0117235D01*
X0025284Y0117222D01*
X0025203Y0117213D01*
X0025122Y0117208D01*
X0025041Y0117207D01*
X0024959Y0117210D01*
X0024878Y0117217D01*
X0024797Y0117228D01*
X0024717Y0117243D01*
X0024638Y0117261D01*
X0024560Y0117284D01*
X0024482Y0117310D01*
X0024407Y0117340D01*
X0024332Y0117374D01*
X0024260Y0117411D01*
X0024189Y0117452D01*
X0024121Y0117496D01*
X0024055Y0117543D01*
X0023991Y0117594D01*
X0023929Y0117648D01*
X0023871Y0117704D01*
X0023815Y0117764D01*
X0023762Y0117826D01*
X0023712Y0117890D01*
X0023666Y0117957D01*
X0023622Y0118026D01*
X0023583Y0118097D01*
X0023546Y0118170D01*
X0023513Y0118244D01*
X0023484Y0118321D01*
X0023459Y0118398D01*
X0023437Y0118477D01*
X0023420Y0118556D01*
X0023406Y0118636D01*
X0023396Y0118717D01*
X0023390Y0118799D01*
X0023388Y0118880D01*
X0023388Y0103920D02*
X0023390Y0104001D01*
X0023396Y0104083D01*
X0023406Y0104164D01*
X0023420Y0104244D01*
X0023437Y0104323D01*
X0023459Y0104402D01*
X0023484Y0104479D01*
X0023513Y0104556D01*
X0023546Y0104630D01*
X0023583Y0104703D01*
X0023622Y0104774D01*
X0023666Y0104843D01*
X0023712Y0104910D01*
X0023762Y0104974D01*
X0023815Y0105036D01*
X0023871Y0105096D01*
X0023929Y0105152D01*
X0023991Y0105206D01*
X0024055Y0105257D01*
X0024121Y0105304D01*
X0024189Y0105348D01*
X0024260Y0105389D01*
X0024332Y0105426D01*
X0024407Y0105460D01*
X0024482Y0105490D01*
X0024560Y0105516D01*
X0024638Y0105539D01*
X0024717Y0105557D01*
X0024797Y0105572D01*
X0024878Y0105583D01*
X0024959Y0105590D01*
X0025041Y0105593D01*
X0025122Y0105592D01*
X0025203Y0105587D01*
X0025284Y0105578D01*
X0025365Y0105565D01*
X0025445Y0105548D01*
X0025523Y0105528D01*
X0025601Y0105503D01*
X0025678Y0105475D01*
X0025753Y0105443D01*
X0025826Y0105408D01*
X0025897Y0105369D01*
X0025967Y0105326D01*
X0026034Y0105281D01*
X0026100Y0105232D01*
X0026162Y0105180D01*
X0026222Y0105124D01*
X0026279Y0105066D01*
X0026334Y0105006D01*
X0026385Y0104942D01*
X0026433Y0104877D01*
X0026478Y0104809D01*
X0026520Y0104739D01*
X0026558Y0104667D01*
X0026593Y0104593D01*
X0026624Y0104518D01*
X0026651Y0104441D01*
X0026674Y0104363D01*
X0026694Y0104284D01*
X0026710Y0104204D01*
X0026722Y0104123D01*
X0026730Y0104042D01*
X0026734Y0103961D01*
X0026734Y0103879D01*
X0026730Y0103798D01*
X0026722Y0103717D01*
X0026710Y0103636D01*
X0026694Y0103556D01*
X0026674Y0103477D01*
X0026651Y0103399D01*
X0026624Y0103322D01*
X0026593Y0103247D01*
X0026558Y0103173D01*
X0026520Y0103101D01*
X0026478Y0103031D01*
X0026433Y0102963D01*
X0026385Y0102898D01*
X0026334Y0102834D01*
X0026279Y0102774D01*
X0026222Y0102716D01*
X0026162Y0102660D01*
X0026100Y0102608D01*
X0026034Y0102559D01*
X0025967Y0102514D01*
X0025898Y0102471D01*
X0025826Y0102432D01*
X0025753Y0102397D01*
X0025678Y0102365D01*
X0025601Y0102337D01*
X0025523Y0102312D01*
X0025445Y0102292D01*
X0025365Y0102275D01*
X0025284Y0102262D01*
X0025203Y0102253D01*
X0025122Y0102248D01*
X0025041Y0102247D01*
X0024959Y0102250D01*
X0024878Y0102257D01*
X0024797Y0102268D01*
X0024717Y0102283D01*
X0024638Y0102301D01*
X0024560Y0102324D01*
X0024482Y0102350D01*
X0024407Y0102380D01*
X0024332Y0102414D01*
X0024260Y0102451D01*
X0024189Y0102492D01*
X0024121Y0102536D01*
X0024055Y0102583D01*
X0023991Y0102634D01*
X0023929Y0102688D01*
X0023871Y0102744D01*
X0023815Y0102804D01*
X0023762Y0102866D01*
X0023712Y0102930D01*
X0023666Y0102997D01*
X0023622Y0103066D01*
X0023583Y0103137D01*
X0023546Y0103210D01*
X0023513Y0103284D01*
X0023484Y0103361D01*
X0023459Y0103438D01*
X0023437Y0103517D01*
X0023420Y0103596D01*
X0023406Y0103676D01*
X0023396Y0103757D01*
X0023390Y0103839D01*
X0023388Y0103920D01*
D21*
X0086597Y0128073D03*
D22*
X0046400Y0157424D03*
X0050022Y0158723D03*
X0054746Y0158723D03*
X0041676Y0157424D03*
D23*
X0044038Y0157424D03*
X0052384Y0158723D03*
D24*
X0062109Y0158369D03*
X0034431Y0158802D03*
X0078211Y0081361D03*
X0090416Y0064865D03*
D25*
X0061479Y0084943D03*
X0149431Y0016518D03*
X0173920Y0015573D03*
X0200298Y0015849D03*
X0224510Y0016361D03*
X0274313Y0071124D03*
X0294195Y0071479D03*
X0207069Y0159786D03*
D26*
X0182386Y0154392D02*
X0182146Y0154392D01*
X0237697Y0123014D02*
X0237937Y0123014D01*
X0237347Y0102502D02*
X0237107Y0102502D01*
X0271400Y0156280D02*
X0271400Y0156520D01*
X0091402Y0081912D02*
X0091162Y0081912D01*
X0063802Y0067937D02*
X0063802Y0067697D01*
X0042699Y0084469D02*
X0042699Y0084709D01*
X0076949Y0117030D02*
X0077189Y0117030D01*
D27*
X0307010Y0104904D02*
X0308510Y0104904D01*
X0340510Y0104904D02*
X0342010Y0104904D01*
D28*
X0343710Y0104904D03*
X0338710Y0104904D03*
X0310310Y0104904D03*
X0305310Y0104904D03*
D29*
X0028211Y0099589D02*
X0028211Y0095652D01*
X0024274Y0095652D01*
X0012463Y0095652D02*
X0008526Y0095652D01*
X0028211Y0123211D02*
X0028211Y0127148D01*
X0028140Y0127120D02*
X0024274Y0127120D01*
X0024274Y0127148D01*
X0012463Y0127148D02*
X0008526Y0127148D01*
M02*
