%
M48
M72
T01C0.02362
T02C0.02400
T03C0.03200
T04C0.03346
T05C0.03400
T06C0.03937
T07C0.04000
T08C0.05118
T09C0.12992
%
T01
X271400Y47400
X288400Y40400
X324400Y49400
T02
X350200Y77400
X337600Y92700
X312400Y84600
X303400Y88200
X287200Y91800
X278200Y93600
X272800Y88200
X249400Y87300
X253000Y67500
X265600Y69300
X273700Y62100
X237700Y30600
X222400Y36900
X268300Y26100
X216100Y74700
X202600Y74700
X201700Y81900
X180100Y108000
X154900Y79200
X124300Y81000
X94600Y73800
X128800Y58500
X135100Y52200
X157600Y48600
X161200Y58500
X92800Y33300
X39700Y95400
X52300Y108000
X63100Y122400
X72100Y122400
X84700Y117900
X89200Y108900
X176500Y138600
X187300Y149400
X232300Y121500
X244000Y126000
X246700Y135900
X252100Y136800
X239500Y143100
X265600Y162000
X281800Y156600
X299800Y135000
X325000Y123300
X364600Y140400
X353800Y185400
X331300Y211500
X328600Y216000
X313300Y239400
X258400Y222300
X256600Y206100
X260200Y202500
X260200Y197100
X269200Y190800
X262000Y186300
X248500Y201600
X222400Y201600
X175600Y196200
X122500Y187200
X223300Y240300
X298000Y185400
X268300Y126900
X266500Y117900
X273700Y116100
X270100Y105300
X255700Y111600
X371800Y89100
T03
X349510Y104904
X299510Y104904
X188605Y115715
X188605Y127715
T04
X25061Y118880
X25061Y103920
T05
X296439Y116396
X306439Y116396
X316439Y116396
X326439Y116396
X336439Y116396
X346439Y116396
X356439Y116396
X366439Y116396
X366439Y149396
X356439Y149396
X346439Y149396
X336439Y149396
X326439Y149396
X316439Y149396
X306439Y149396
X296439Y149396
T06
X269062Y199028
X277043Y201587
X282306Y208077
X284105Y216850
X281886Y225878
X275578Y232028
X268066Y234469
X259473Y233266
X252341Y227171
X248671Y219112
X248957Y210607
X338957Y210607
X338671Y219112
X342341Y227171
X349473Y233266
X358066Y234469
X365578Y232028
X371886Y225878
X374105Y216850
X372306Y208077
X367043Y201587
X359062Y199028
X159105Y216850
X157306Y208077
X152043Y201587
X144062Y199028
X123957Y210607
X123671Y219112
X127341Y227171
X134473Y233266
X143066Y234469
X150578Y232028
X156886Y225878
X69105Y216850
X67306Y208077
X62043Y201587
X54062Y199028
X33957Y210607
X33671Y219112
X37341Y227171
X44473Y233266
X53066Y234469
X60578Y232028
X66886Y225878
T07
X338998Y85809
X338998Y75809
X338998Y65809
X338998Y55809
X338998Y45809
X121400Y46400
X121400Y36400
X86833Y17817
X76833Y17817
X66833Y17817
X56833Y17817
X46833Y17817
X36833Y17817
X35770Y41597
X45770Y41597
X55770Y41597
X65770Y41597
X75770Y41597
T08
X185967Y95298
X185967Y174038
T09
X16400Y21400
X16400Y71400
X16400Y166400
X386400Y166400
X386400Y71400
X386400Y21400
M30
