G75*
%MOIN*%
%OFA0B0*%
%FSLAX25Y25*%
%IPPOS*%
%LPD*%
%AMOC8*
5,1,8,0,0,1.08239X$1,22.5*
%
%ADD10R,0.02375X0.02965*%
%ADD11R,0.02965X0.02965*%
%ADD12R,0.03162X0.02375*%
%ADD13R,0.06706X0.10249*%
%ADD14C,0.02769*%
%ADD15C,0.03400*%
%ADD16R,0.07808X0.06902*%
%ADD17R,0.05800X0.03000*%
%ADD18R,0.03000X0.05800*%
%ADD19R,0.21272X0.09068*%
%ADD20R,0.08674X0.07493*%
%ADD21C,0.08477*%
%ADD22R,0.07800X0.20800*%
%ADD23R,0.06800X0.03800*%
%ADD24R,0.03950X0.06312*%
%ADD25C,0.06600*%
%ADD26R,0.03937X0.06299*%
%ADD27R,0.05800X0.03300*%
%ADD28C,0.04000*%
%ADD29R,0.12414X0.04737*%
%ADD30R,0.01981X0.03753*%
%ADD31R,0.05524X0.05524*%
%ADD32R,0.04737X0.05131*%
%ADD33R,0.05131X0.04737*%
%ADD34OC8,0.06000*%
%ADD35C,0.06800*%
%ADD36R,0.02454X0.04087*%
%ADD37R,0.06312X0.02375*%
%ADD38C,0.04146*%
%ADD39R,0.07800X0.46800*%
%ADD40R,0.03162X0.09461*%
%ADD41C,0.06737*%
%ADD42C,0.04800*%
%ADD43C,0.04762*%
%ADD44OC8,0.17792*%
D10*
X0085809Y0095809D03*
X0089550Y0095809D03*
X0093290Y0095809D03*
D11*
X0093290Y0104865D03*
X0089550Y0104865D03*
X0085809Y0104865D03*
D12*
X0315345Y0022620D03*
X0315345Y0018683D03*
X0315345Y0014746D03*
X0326369Y0014746D03*
X0326369Y0018683D03*
X0326369Y0022620D03*
D13*
X0320857Y0018683D03*
D14*
X0318888Y0018683D03*
D15*
X0316439Y0116396D03*
X0306439Y0116396D03*
X0296439Y0116396D03*
X0326439Y0116396D03*
X0336439Y0116396D03*
X0346439Y0116396D03*
X0356439Y0116396D03*
X0366439Y0116396D03*
X0366439Y0149396D03*
X0356439Y0149396D03*
X0346439Y0149396D03*
X0336439Y0149396D03*
X0326439Y0149396D03*
X0316439Y0149396D03*
X0316439Y0149396D03*
X0316439Y0149396D03*
X0306439Y0149396D03*
X0296439Y0149396D03*
D16*
X0230101Y0068093D03*
X0220101Y0068093D03*
X0205770Y0068369D03*
X0195770Y0068369D03*
X0180770Y0068487D03*
X0170770Y0068487D03*
X0155691Y0068369D03*
X0145691Y0068369D03*
X0145691Y0030809D03*
X0155691Y0030809D03*
X0170770Y0030928D03*
X0180770Y0030928D03*
X0195770Y0030809D03*
X0205770Y0030809D03*
X0220101Y0030534D03*
X0230101Y0030534D03*
D17*
X0250051Y0104983D03*
X0250051Y0108132D03*
X0250051Y0111282D03*
X0250051Y0114431D03*
X0250051Y0117581D03*
X0250051Y0120731D03*
X0250051Y0123880D03*
X0250051Y0127030D03*
X0283851Y0127030D03*
X0283851Y0123880D03*
X0283851Y0120731D03*
X0283851Y0117581D03*
X0283851Y0114431D03*
X0283851Y0111282D03*
X0283851Y0108132D03*
X0283851Y0104983D03*
D18*
X0277975Y0099106D03*
X0274825Y0099106D03*
X0271676Y0099106D03*
X0268526Y0099106D03*
X0265376Y0099106D03*
X0262227Y0099106D03*
X0259077Y0099106D03*
X0255928Y0099106D03*
X0255928Y0132906D03*
X0259077Y0132906D03*
X0262227Y0132906D03*
X0265376Y0132906D03*
X0268526Y0132906D03*
X0271676Y0132906D03*
X0274825Y0132906D03*
X0277975Y0132906D03*
D19*
X0154156Y0143014D03*
X0154156Y0157975D03*
D20*
X0161912Y0088211D03*
X0143802Y0088211D03*
D21*
X0185967Y0095298D03*
X0185967Y0174038D03*
D22*
X0218683Y0133235D03*
X0218683Y0095235D03*
D23*
X0235258Y0148900D03*
X0255258Y0148900D03*
X0255258Y0163900D03*
X0235258Y0163900D03*
D24*
X0157754Y0112640D03*
X0145754Y0112640D03*
D25*
X0150654Y0119556D02*
X0152854Y0119556D01*
X0150654Y0119556D02*
X0150654Y0128126D01*
X0152854Y0128126D01*
X0152854Y0119556D01*
X0152854Y0126155D02*
X0150654Y0126155D01*
D26*
X0151754Y0112345D03*
D27*
X0176105Y0111715D03*
X0176105Y0121715D03*
X0176105Y0131715D03*
X0201105Y0131715D03*
X0201105Y0121715D03*
X0201105Y0111715D03*
D28*
X0188605Y0115715D03*
X0188605Y0127715D03*
D29*
X0128880Y0132109D03*
X0109983Y0132109D03*
X0110258Y0086203D03*
X0129156Y0086203D03*
D30*
X0092994Y0122955D03*
X0090435Y0122955D03*
X0087876Y0122955D03*
X0085317Y0122955D03*
X0085317Y0145987D03*
X0087876Y0145987D03*
X0090435Y0145987D03*
X0092994Y0145987D03*
D31*
X0052384Y0153998D03*
X0044038Y0153880D03*
X0044038Y0162148D03*
X0052384Y0162266D03*
D32*
X0062109Y0161715D03*
X0062109Y0155022D03*
X0034431Y0155455D03*
X0034431Y0162148D03*
X0077069Y0120376D03*
X0077069Y0113683D03*
X0078211Y0084707D03*
X0078211Y0078014D03*
X0091282Y0078565D03*
X0091282Y0085258D03*
X0090416Y0068211D03*
X0090416Y0061518D03*
X0182266Y0151046D03*
X0182266Y0157739D03*
X0237817Y0126361D03*
X0237817Y0119668D03*
X0237227Y0105849D03*
X0237227Y0099156D03*
D33*
X0270967Y0071124D03*
X0277660Y0071124D03*
X0290849Y0071479D03*
X0297542Y0071479D03*
X0227857Y0016361D03*
X0221164Y0016361D03*
X0203644Y0015849D03*
X0196951Y0015849D03*
X0177266Y0015573D03*
X0170573Y0015573D03*
X0152778Y0016518D03*
X0146085Y0016518D03*
X0067148Y0067817D03*
X0060455Y0067817D03*
X0058132Y0084943D03*
X0064825Y0084943D03*
X0046046Y0084589D03*
X0039353Y0084589D03*
X0203723Y0159786D03*
X0210416Y0159786D03*
X0268054Y0156400D03*
X0274746Y0156400D03*
D34*
X0299510Y0104904D03*
X0349510Y0104904D03*
D35*
X0341998Y0085809D02*
X0335998Y0085809D01*
X0335998Y0075809D02*
X0341998Y0075809D01*
X0341998Y0065809D02*
X0335998Y0065809D01*
X0335998Y0055809D02*
X0341998Y0055809D01*
X0341998Y0045809D02*
X0335998Y0045809D01*
X0124400Y0046400D02*
X0118400Y0046400D01*
X0118400Y0036400D02*
X0124400Y0036400D01*
X0086833Y0020817D02*
X0086833Y0014817D01*
X0076833Y0014817D02*
X0076833Y0020817D01*
X0066833Y0020817D02*
X0066833Y0014817D01*
X0056833Y0014817D02*
X0056833Y0020817D01*
X0046833Y0020817D02*
X0046833Y0014817D01*
X0036833Y0014817D02*
X0036833Y0020817D01*
X0035770Y0038597D02*
X0035770Y0044597D01*
X0045770Y0044597D02*
X0045770Y0038597D01*
X0055770Y0038597D02*
X0055770Y0044597D01*
X0065770Y0044597D02*
X0065770Y0038597D01*
X0075770Y0038597D02*
X0075770Y0044597D01*
D36*
X0058900Y0101243D03*
X0053900Y0101243D03*
X0048900Y0101243D03*
X0043900Y0101243D03*
X0043900Y0121557D03*
X0048900Y0121557D03*
X0053900Y0121557D03*
X0058900Y0121557D03*
D37*
X0027030Y0116518D03*
X0027030Y0113959D03*
X0027030Y0111400D03*
X0027030Y0108841D03*
X0027030Y0106282D03*
D38*
X0025061Y0103920D03*
X0025061Y0118880D03*
D39*
X0016400Y0111400D03*
D40*
X0263900Y0054510D03*
X0268900Y0054510D03*
X0273900Y0054510D03*
X0278900Y0054510D03*
X0283900Y0054510D03*
X0288900Y0054510D03*
X0293900Y0054510D03*
X0298900Y0054510D03*
X0298900Y0018290D03*
X0293900Y0018290D03*
X0288900Y0018290D03*
X0283900Y0018290D03*
X0278900Y0018290D03*
X0273900Y0018290D03*
X0268900Y0018290D03*
X0263900Y0018290D03*
D41*
X0269062Y0199028D03*
X0277043Y0201587D03*
X0282306Y0208077D03*
X0284105Y0216850D03*
X0281886Y0225878D03*
X0275578Y0232028D03*
X0268066Y0234469D03*
X0259473Y0233266D03*
X0252341Y0227171D03*
X0248671Y0219112D03*
X0248957Y0210607D03*
X0338957Y0210607D03*
X0338671Y0219112D03*
X0342341Y0227171D03*
X0349473Y0233266D03*
X0358066Y0234469D03*
X0365578Y0232028D03*
X0371886Y0225878D03*
X0374105Y0216850D03*
X0372306Y0208077D03*
X0367043Y0201587D03*
X0359062Y0199028D03*
X0159105Y0216850D03*
X0157306Y0208077D03*
X0152043Y0201587D03*
X0144062Y0199028D03*
X0123957Y0210607D03*
X0123671Y0219112D03*
X0127341Y0227171D03*
X0134473Y0233266D03*
X0143066Y0234469D03*
X0150578Y0232028D03*
X0156886Y0225878D03*
X0069105Y0216850D03*
X0067306Y0208077D03*
X0062043Y0201587D03*
X0054062Y0199028D03*
X0033957Y0210607D03*
X0033671Y0219112D03*
X0037341Y0227171D03*
X0044473Y0233266D03*
X0053066Y0234469D03*
X0060578Y0232028D03*
X0066886Y0225878D03*
D42*
X0122500Y0187200D03*
X0175600Y0196200D03*
X0222400Y0201600D03*
X0248500Y0201600D03*
X0256600Y0206100D03*
X0260200Y0202500D03*
X0260200Y0197100D03*
X0269200Y0190800D03*
X0262000Y0186300D03*
X0265600Y0162000D03*
X0281800Y0156600D03*
X0299800Y0135000D03*
X0325000Y0123300D03*
X0364600Y0140400D03*
X0353800Y0185400D03*
X0331300Y0211500D03*
X0328600Y0216000D03*
X0313300Y0239400D03*
X0258400Y0222300D03*
X0223300Y0240300D03*
X0298000Y0185400D03*
X0239500Y0143100D03*
X0246700Y0135900D03*
X0252100Y0136800D03*
X0244000Y0126000D03*
X0232300Y0121500D03*
X0255700Y0111600D03*
X0266500Y0117900D03*
X0273700Y0116100D03*
X0270100Y0105300D03*
X0278200Y0093600D03*
X0272800Y0088200D03*
X0287200Y0091800D03*
X0303400Y0088200D03*
X0312400Y0084600D03*
X0337600Y0092700D03*
X0350200Y0077400D03*
X0371800Y0089100D03*
X0273700Y0062100D03*
X0265600Y0069300D03*
X0253000Y0067500D03*
X0249400Y0087300D03*
X0216100Y0074700D03*
X0202600Y0074700D03*
X0201700Y0081900D03*
X0180100Y0108000D03*
X0154900Y0079200D03*
X0124300Y0081000D03*
X0094600Y0073800D03*
X0128800Y0058500D03*
X0135100Y0052200D03*
X0157600Y0048600D03*
X0161200Y0058500D03*
X0222400Y0036900D03*
X0237700Y0030600D03*
X0268300Y0026100D03*
X0268300Y0126900D03*
X0187300Y0149400D03*
X0176500Y0138600D03*
X0089200Y0108900D03*
X0084700Y0117900D03*
X0072100Y0122400D03*
X0063100Y0122400D03*
X0052300Y0108000D03*
X0039700Y0095400D03*
X0092800Y0033300D03*
D43*
X0271400Y0047400D03*
X0288400Y0040400D03*
X0324400Y0049400D03*
D44*
X0016400Y0021400D03*
X0016400Y0071400D03*
X0016400Y0166400D03*
X0386400Y0166400D03*
X0386400Y0071400D03*
X0386400Y0021400D03*
M02*
