G75*
%MOIN*%
%OFA0B0*%
%FSLAX25Y25*%
%IPPOS*%
%LPD*%
%AMOC8*
5,1,8,0,0,1.08239X$1,22.5*
%
%ADD10C,0.08400*%
%ADD11C,0.08477*%
%ADD12C,0.04000*%
%ADD13OC8,0.06000*%
%ADD14C,0.06800*%
%ADD15C,0.04146*%
%ADD16C,0.06737*%
%ADD17C,0.04800*%
%ADD18C,0.04762*%
%ADD19OC8,0.17792*%
D10*
X0296439Y0116396D03*
X0306439Y0116396D03*
X0316439Y0116396D03*
X0326439Y0116396D03*
X0336439Y0116396D03*
X0346439Y0116396D03*
X0356439Y0116396D03*
X0366439Y0116396D03*
X0366439Y0149396D03*
X0356439Y0149396D03*
X0346439Y0149396D03*
X0336439Y0149396D03*
X0326439Y0149396D03*
X0316439Y0149396D03*
X0306439Y0149396D03*
X0296439Y0149396D03*
D11*
X0185967Y0174038D03*
X0185967Y0095298D03*
D12*
X0188605Y0115715D03*
X0188605Y0127715D03*
D13*
X0299510Y0104904D03*
X0349510Y0104904D03*
D14*
X0341998Y0085809D02*
X0335998Y0085809D01*
X0335998Y0075809D02*
X0341998Y0075809D01*
X0341998Y0065809D02*
X0335998Y0065809D01*
X0335998Y0055809D02*
X0341998Y0055809D01*
X0341998Y0045809D02*
X0335998Y0045809D01*
X0124400Y0046400D02*
X0118400Y0046400D01*
X0118400Y0036400D02*
X0124400Y0036400D01*
X0086833Y0020817D02*
X0086833Y0014817D01*
X0076833Y0014817D02*
X0076833Y0020817D01*
X0066833Y0020817D02*
X0066833Y0014817D01*
X0056833Y0014817D02*
X0056833Y0020817D01*
X0046833Y0020817D02*
X0046833Y0014817D01*
X0036833Y0014817D02*
X0036833Y0020817D01*
X0035770Y0038597D02*
X0035770Y0044597D01*
X0045770Y0044597D02*
X0045770Y0038597D01*
X0055770Y0038597D02*
X0055770Y0044597D01*
X0065770Y0044597D02*
X0065770Y0038597D01*
X0075770Y0038597D02*
X0075770Y0044597D01*
D15*
X0025061Y0103920D03*
X0025061Y0118880D03*
D16*
X0054062Y0199028D03*
X0062043Y0201587D03*
X0067306Y0208077D03*
X0069105Y0216850D03*
X0066886Y0225878D03*
X0060578Y0232028D03*
X0053066Y0234469D03*
X0044473Y0233266D03*
X0037341Y0227171D03*
X0033671Y0219112D03*
X0033957Y0210607D03*
X0123957Y0210607D03*
X0123671Y0219112D03*
X0127341Y0227171D03*
X0134473Y0233266D03*
X0143066Y0234469D03*
X0150578Y0232028D03*
X0156886Y0225878D03*
X0159105Y0216850D03*
X0157306Y0208077D03*
X0152043Y0201587D03*
X0144062Y0199028D03*
X0248671Y0219112D03*
X0248957Y0210607D03*
X0269062Y0199028D03*
X0277043Y0201587D03*
X0282306Y0208077D03*
X0284105Y0216850D03*
X0281886Y0225878D03*
X0275578Y0232028D03*
X0268066Y0234469D03*
X0259473Y0233266D03*
X0252341Y0227171D03*
X0338671Y0219112D03*
X0338957Y0210607D03*
X0359062Y0199028D03*
X0367043Y0201587D03*
X0372306Y0208077D03*
X0374105Y0216850D03*
X0371886Y0225878D03*
X0365578Y0232028D03*
X0358066Y0234469D03*
X0349473Y0233266D03*
X0342341Y0227171D03*
D17*
X0328600Y0216000D03*
X0331300Y0211500D03*
X0353800Y0185400D03*
X0298000Y0185400D03*
X0269200Y0190800D03*
X0262000Y0186300D03*
X0260200Y0197100D03*
X0260200Y0202500D03*
X0256600Y0206100D03*
X0248500Y0201600D03*
X0222400Y0201600D03*
X0258400Y0222300D03*
X0223300Y0240300D03*
X0175600Y0196200D03*
X0122500Y0187200D03*
X0187300Y0149400D03*
X0176500Y0138600D03*
X0180100Y0108000D03*
X0201700Y0081900D03*
X0202600Y0074700D03*
X0216100Y0074700D03*
X0249400Y0087300D03*
X0272800Y0088200D03*
X0278200Y0093600D03*
X0287200Y0091800D03*
X0303400Y0088200D03*
X0312400Y0084600D03*
X0337600Y0092700D03*
X0350200Y0077400D03*
X0371800Y0089100D03*
X0325000Y0123300D03*
X0299800Y0135000D03*
X0281800Y0156600D03*
X0265600Y0162000D03*
X0239500Y0143100D03*
X0246700Y0135900D03*
X0252100Y0136800D03*
X0244000Y0126000D03*
X0232300Y0121500D03*
X0255700Y0111600D03*
X0266500Y0117900D03*
X0273700Y0116100D03*
X0270100Y0105300D03*
X0268300Y0126900D03*
X0265600Y0069300D03*
X0273700Y0062100D03*
X0253000Y0067500D03*
X0222400Y0036900D03*
X0237700Y0030600D03*
X0268300Y0026100D03*
X0161200Y0058500D03*
X0157600Y0048600D03*
X0135100Y0052200D03*
X0128800Y0058500D03*
X0154900Y0079200D03*
X0124300Y0081000D03*
X0094600Y0073800D03*
X0052300Y0108000D03*
X0039700Y0095400D03*
X0063100Y0122400D03*
X0072100Y0122400D03*
X0084700Y0117900D03*
X0089200Y0108900D03*
X0092800Y0033300D03*
X0364600Y0140400D03*
X0313300Y0239400D03*
D18*
X0324400Y0049400D03*
X0288400Y0040400D03*
X0271400Y0047400D03*
D19*
X0016400Y0021400D03*
X0016400Y0071400D03*
X0016400Y0166400D03*
X0386400Y0166400D03*
X0386400Y0071400D03*
X0386400Y0021400D03*
M02*
