G75*
%MOIN*%
%OFA0B0*%
%FSLAX25Y25*%
%IPPOS*%
%LPD*%
%AMOC8*
5,1,8,0,0,1.08239X$1,22.5*
%
%ADD10C,0.00600*%
%ADD11C,0.01600*%
%ADD12C,0.00787*%
%ADD13C,0.00400*%
%ADD14C,0.00100*%
%ADD15C,0.00300*%
%ADD16C,0.00800*%
%ADD17C,0.00500*%
%ADD18C,0.01000*%
%ADD19C,0.00200*%
%ADD20C,0.00000*%
%ADD21C,0.02559*%
%ADD22R,0.00591X0.01181*%
%ADD23R,0.01181X0.01181*%
%ADD24R,0.03000X0.01800*%
%ADD25R,0.01800X0.03000*%
%ADD26C,0.02200*%
%ADD27C,0.02400*%
%ADD28R,0.03400X0.02400*%
%ADD29R,0.01181X0.00591*%
%ADD30C,0.01200*%
%ADD31C,0.01575*%
%ADD32C,0.00197*%
D10*
X0097233Y0045717D02*
X0099733Y0043217D01*
X0104733Y0043217D01*
X0107233Y0045717D01*
X0109733Y0043217D01*
X0114733Y0043217D01*
X0117233Y0045717D01*
X0119733Y0043217D01*
X0124733Y0043217D01*
X0127233Y0045717D01*
X0129733Y0043217D01*
X0134733Y0043217D01*
X0137233Y0045717D01*
X0139733Y0043217D01*
X0144733Y0043217D01*
X0147233Y0045717D01*
X0149733Y0043217D01*
X0154733Y0043217D01*
X0157233Y0045717D01*
X0157233Y0050717D01*
X0154733Y0053217D01*
X0149733Y0053217D01*
X0147233Y0050717D01*
X0144733Y0053217D01*
X0139733Y0053217D01*
X0137233Y0050717D01*
X0134733Y0053217D01*
X0129733Y0053217D01*
X0127233Y0050717D01*
X0124733Y0053217D01*
X0119733Y0053217D01*
X0117233Y0050717D01*
X0114733Y0053217D01*
X0109733Y0053217D01*
X0107233Y0050717D01*
X0104733Y0053217D01*
X0099733Y0053217D01*
X0097233Y0050717D01*
X0097233Y0045717D01*
X0098670Y0061997D02*
X0103670Y0061997D01*
X0106170Y0064497D01*
X0108670Y0061997D01*
X0113670Y0061997D01*
X0116170Y0064497D01*
X0118670Y0061997D01*
X0123670Y0061997D01*
X0126170Y0064497D01*
X0128670Y0061997D01*
X0133670Y0061997D01*
X0136170Y0064497D01*
X0138670Y0061997D01*
X0143670Y0061997D01*
X0146170Y0064497D01*
X0146170Y0069497D01*
X0143670Y0071997D01*
X0138670Y0071997D01*
X0136170Y0069497D01*
X0133670Y0071997D01*
X0128670Y0071997D01*
X0126170Y0069497D01*
X0123670Y0071997D01*
X0118670Y0071997D01*
X0116170Y0069497D01*
X0113670Y0071997D01*
X0108670Y0071997D01*
X0106170Y0069497D01*
X0103670Y0071997D01*
X0098670Y0071997D01*
X0096170Y0069497D01*
X0096170Y0064497D01*
X0098670Y0061997D01*
X0176977Y0062469D02*
X0176977Y0066603D01*
X0176977Y0070717D01*
X0176977Y0087509D01*
X0195206Y0087509D01*
X0195206Y0062469D01*
X0176977Y0062469D01*
X0176977Y0066603D02*
X0177067Y0066605D01*
X0177156Y0066611D01*
X0177245Y0066621D01*
X0177334Y0066634D01*
X0177422Y0066652D01*
X0177509Y0066673D01*
X0177596Y0066698D01*
X0177681Y0066727D01*
X0177764Y0066760D01*
X0177846Y0066796D01*
X0177927Y0066835D01*
X0178006Y0066879D01*
X0178082Y0066925D01*
X0178157Y0066975D01*
X0178229Y0067028D01*
X0178299Y0067084D01*
X0178367Y0067143D01*
X0178432Y0067205D01*
X0178494Y0067270D01*
X0178553Y0067338D01*
X0178609Y0067408D01*
X0178662Y0067480D01*
X0178712Y0067555D01*
X0178758Y0067632D01*
X0178802Y0067710D01*
X0178841Y0067791D01*
X0178877Y0067873D01*
X0178910Y0067956D01*
X0178939Y0068041D01*
X0178964Y0068128D01*
X0178985Y0068215D01*
X0179003Y0068303D01*
X0179016Y0068392D01*
X0179026Y0068481D01*
X0179032Y0068570D01*
X0179034Y0068660D01*
X0179032Y0068750D01*
X0179026Y0068839D01*
X0179016Y0068928D01*
X0179003Y0069017D01*
X0178985Y0069105D01*
X0178964Y0069192D01*
X0178939Y0069279D01*
X0178910Y0069364D01*
X0178877Y0069447D01*
X0178841Y0069529D01*
X0178802Y0069610D01*
X0178758Y0069689D01*
X0178712Y0069765D01*
X0178662Y0069840D01*
X0178609Y0069912D01*
X0178553Y0069982D01*
X0178494Y0070050D01*
X0178432Y0070115D01*
X0178367Y0070177D01*
X0178299Y0070236D01*
X0178229Y0070292D01*
X0178157Y0070345D01*
X0178082Y0070395D01*
X0178006Y0070441D01*
X0177927Y0070485D01*
X0177846Y0070524D01*
X0177764Y0070560D01*
X0177681Y0070593D01*
X0177596Y0070622D01*
X0177509Y0070647D01*
X0177422Y0070668D01*
X0177334Y0070686D01*
X0177245Y0070699D01*
X0177156Y0070709D01*
X0177067Y0070715D01*
X0176977Y0070717D01*
X0207765Y0070717D02*
X0207765Y0066603D01*
X0207765Y0062469D01*
X0225993Y0062469D01*
X0225993Y0087509D01*
X0207765Y0087509D01*
X0207765Y0070717D01*
X0207855Y0070715D01*
X0207944Y0070709D01*
X0208033Y0070699D01*
X0208122Y0070686D01*
X0208210Y0070668D01*
X0208297Y0070647D01*
X0208384Y0070622D01*
X0208469Y0070593D01*
X0208552Y0070560D01*
X0208634Y0070524D01*
X0208715Y0070485D01*
X0208794Y0070441D01*
X0208870Y0070395D01*
X0208945Y0070345D01*
X0209017Y0070292D01*
X0209087Y0070236D01*
X0209155Y0070177D01*
X0209220Y0070115D01*
X0209282Y0070050D01*
X0209341Y0069982D01*
X0209397Y0069912D01*
X0209450Y0069840D01*
X0209500Y0069765D01*
X0209546Y0069689D01*
X0209590Y0069610D01*
X0209629Y0069529D01*
X0209665Y0069447D01*
X0209698Y0069364D01*
X0209727Y0069279D01*
X0209752Y0069192D01*
X0209773Y0069105D01*
X0209791Y0069017D01*
X0209804Y0068928D01*
X0209814Y0068839D01*
X0209820Y0068750D01*
X0209822Y0068660D01*
X0209820Y0068570D01*
X0209814Y0068481D01*
X0209804Y0068392D01*
X0209791Y0068303D01*
X0209773Y0068215D01*
X0209752Y0068128D01*
X0209727Y0068041D01*
X0209698Y0067956D01*
X0209665Y0067873D01*
X0209629Y0067791D01*
X0209590Y0067710D01*
X0209546Y0067632D01*
X0209500Y0067555D01*
X0209450Y0067480D01*
X0209397Y0067408D01*
X0209341Y0067338D01*
X0209282Y0067270D01*
X0209220Y0067205D01*
X0209155Y0067143D01*
X0209087Y0067084D01*
X0209017Y0067028D01*
X0208945Y0066975D01*
X0208870Y0066925D01*
X0208794Y0066879D01*
X0208715Y0066835D01*
X0208634Y0066796D01*
X0208552Y0066760D01*
X0208469Y0066727D01*
X0208384Y0066698D01*
X0208297Y0066673D01*
X0208210Y0066652D01*
X0208122Y0066634D01*
X0208033Y0066621D01*
X0207944Y0066611D01*
X0207855Y0066605D01*
X0207765Y0066603D01*
X0237056Y0066721D02*
X0237056Y0062587D01*
X0255284Y0062587D01*
X0255284Y0087627D01*
X0237056Y0087627D01*
X0237056Y0070835D01*
X0237056Y0066721D01*
X0237146Y0066723D01*
X0237235Y0066729D01*
X0237324Y0066739D01*
X0237413Y0066752D01*
X0237501Y0066770D01*
X0237588Y0066791D01*
X0237675Y0066816D01*
X0237760Y0066845D01*
X0237843Y0066878D01*
X0237925Y0066914D01*
X0238006Y0066953D01*
X0238085Y0066997D01*
X0238161Y0067043D01*
X0238236Y0067093D01*
X0238308Y0067146D01*
X0238378Y0067202D01*
X0238446Y0067261D01*
X0238511Y0067323D01*
X0238573Y0067388D01*
X0238632Y0067456D01*
X0238688Y0067526D01*
X0238741Y0067598D01*
X0238791Y0067673D01*
X0238837Y0067750D01*
X0238881Y0067828D01*
X0238920Y0067909D01*
X0238956Y0067991D01*
X0238989Y0068074D01*
X0239018Y0068159D01*
X0239043Y0068246D01*
X0239064Y0068333D01*
X0239082Y0068421D01*
X0239095Y0068510D01*
X0239105Y0068599D01*
X0239111Y0068688D01*
X0239113Y0068778D01*
X0239111Y0068868D01*
X0239105Y0068957D01*
X0239095Y0069046D01*
X0239082Y0069135D01*
X0239064Y0069223D01*
X0239043Y0069310D01*
X0239018Y0069397D01*
X0238989Y0069482D01*
X0238956Y0069565D01*
X0238920Y0069647D01*
X0238881Y0069728D01*
X0238837Y0069807D01*
X0238791Y0069883D01*
X0238741Y0069958D01*
X0238688Y0070030D01*
X0238632Y0070100D01*
X0238573Y0070168D01*
X0238511Y0070233D01*
X0238446Y0070295D01*
X0238378Y0070354D01*
X0238308Y0070410D01*
X0238236Y0070463D01*
X0238161Y0070513D01*
X0238085Y0070559D01*
X0238006Y0070603D01*
X0237925Y0070642D01*
X0237843Y0070678D01*
X0237760Y0070711D01*
X0237675Y0070740D01*
X0237588Y0070765D01*
X0237501Y0070786D01*
X0237413Y0070804D01*
X0237324Y0070817D01*
X0237235Y0070827D01*
X0237146Y0070833D01*
X0237056Y0070835D01*
X0267056Y0070717D02*
X0267056Y0066603D01*
X0267056Y0062469D01*
X0285284Y0062469D01*
X0285284Y0087509D01*
X0267056Y0087509D01*
X0267056Y0070717D01*
X0267146Y0070715D01*
X0267235Y0070709D01*
X0267324Y0070699D01*
X0267413Y0070686D01*
X0267501Y0070668D01*
X0267588Y0070647D01*
X0267675Y0070622D01*
X0267760Y0070593D01*
X0267843Y0070560D01*
X0267925Y0070524D01*
X0268006Y0070485D01*
X0268085Y0070441D01*
X0268161Y0070395D01*
X0268236Y0070345D01*
X0268308Y0070292D01*
X0268378Y0070236D01*
X0268446Y0070177D01*
X0268511Y0070115D01*
X0268573Y0070050D01*
X0268632Y0069982D01*
X0268688Y0069912D01*
X0268741Y0069840D01*
X0268791Y0069765D01*
X0268837Y0069689D01*
X0268881Y0069610D01*
X0268920Y0069529D01*
X0268956Y0069447D01*
X0268989Y0069364D01*
X0269018Y0069279D01*
X0269043Y0069192D01*
X0269064Y0069105D01*
X0269082Y0069017D01*
X0269095Y0068928D01*
X0269105Y0068839D01*
X0269111Y0068750D01*
X0269113Y0068660D01*
X0269111Y0068570D01*
X0269105Y0068481D01*
X0269095Y0068392D01*
X0269082Y0068303D01*
X0269064Y0068215D01*
X0269043Y0068128D01*
X0269018Y0068041D01*
X0268989Y0067956D01*
X0268956Y0067873D01*
X0268920Y0067791D01*
X0268881Y0067710D01*
X0268837Y0067632D01*
X0268791Y0067555D01*
X0268741Y0067480D01*
X0268688Y0067408D01*
X0268632Y0067338D01*
X0268573Y0067270D01*
X0268511Y0067205D01*
X0268446Y0067143D01*
X0268378Y0067084D01*
X0268308Y0067028D01*
X0268236Y0066975D01*
X0268161Y0066925D01*
X0268085Y0066879D01*
X0268006Y0066835D01*
X0267925Y0066796D01*
X0267843Y0066760D01*
X0267760Y0066727D01*
X0267675Y0066698D01*
X0267588Y0066673D01*
X0267501Y0066652D01*
X0267413Y0066634D01*
X0267324Y0066621D01*
X0267235Y0066611D01*
X0267146Y0066605D01*
X0267056Y0066603D01*
X0296387Y0066328D02*
X0296387Y0062194D01*
X0314615Y0062194D01*
X0314615Y0087233D01*
X0296387Y0087233D01*
X0296387Y0070442D01*
X0296387Y0066328D01*
X0296477Y0066330D01*
X0296566Y0066336D01*
X0296655Y0066346D01*
X0296744Y0066359D01*
X0296832Y0066377D01*
X0296919Y0066398D01*
X0297006Y0066423D01*
X0297091Y0066452D01*
X0297174Y0066485D01*
X0297256Y0066521D01*
X0297337Y0066560D01*
X0297416Y0066604D01*
X0297492Y0066650D01*
X0297567Y0066700D01*
X0297639Y0066753D01*
X0297709Y0066809D01*
X0297777Y0066868D01*
X0297842Y0066930D01*
X0297904Y0066995D01*
X0297963Y0067063D01*
X0298019Y0067133D01*
X0298072Y0067205D01*
X0298122Y0067280D01*
X0298168Y0067357D01*
X0298212Y0067435D01*
X0298251Y0067516D01*
X0298287Y0067598D01*
X0298320Y0067681D01*
X0298349Y0067766D01*
X0298374Y0067853D01*
X0298395Y0067940D01*
X0298413Y0068028D01*
X0298426Y0068117D01*
X0298436Y0068206D01*
X0298442Y0068295D01*
X0298444Y0068385D01*
X0298442Y0068475D01*
X0298436Y0068564D01*
X0298426Y0068653D01*
X0298413Y0068742D01*
X0298395Y0068830D01*
X0298374Y0068917D01*
X0298349Y0069004D01*
X0298320Y0069089D01*
X0298287Y0069172D01*
X0298251Y0069254D01*
X0298212Y0069335D01*
X0298168Y0069414D01*
X0298122Y0069490D01*
X0298072Y0069565D01*
X0298019Y0069637D01*
X0297963Y0069707D01*
X0297904Y0069775D01*
X0297842Y0069840D01*
X0297777Y0069902D01*
X0297709Y0069961D01*
X0297639Y0070017D01*
X0297567Y0070070D01*
X0297492Y0070120D01*
X0297416Y0070166D01*
X0297337Y0070210D01*
X0297256Y0070249D01*
X0297174Y0070285D01*
X0297091Y0070318D01*
X0297006Y0070347D01*
X0296919Y0070372D01*
X0296832Y0070393D01*
X0296744Y0070411D01*
X0296655Y0070424D01*
X0296566Y0070434D01*
X0296477Y0070440D01*
X0296387Y0070442D01*
X0324812Y0069143D02*
X0324812Y0085934D01*
X0343040Y0085934D01*
X0343040Y0060894D01*
X0324812Y0060894D01*
X0324812Y0065028D01*
X0324812Y0069143D01*
X0324812Y0069142D02*
X0324902Y0069140D01*
X0324991Y0069134D01*
X0325080Y0069124D01*
X0325169Y0069111D01*
X0325257Y0069093D01*
X0325344Y0069072D01*
X0325431Y0069047D01*
X0325516Y0069018D01*
X0325599Y0068985D01*
X0325681Y0068949D01*
X0325762Y0068910D01*
X0325841Y0068866D01*
X0325917Y0068820D01*
X0325992Y0068770D01*
X0326064Y0068717D01*
X0326134Y0068661D01*
X0326202Y0068602D01*
X0326267Y0068540D01*
X0326329Y0068475D01*
X0326388Y0068407D01*
X0326444Y0068337D01*
X0326497Y0068265D01*
X0326547Y0068190D01*
X0326593Y0068114D01*
X0326637Y0068035D01*
X0326676Y0067954D01*
X0326712Y0067872D01*
X0326745Y0067789D01*
X0326774Y0067704D01*
X0326799Y0067617D01*
X0326820Y0067530D01*
X0326838Y0067442D01*
X0326851Y0067353D01*
X0326861Y0067264D01*
X0326867Y0067175D01*
X0326869Y0067085D01*
X0326867Y0066995D01*
X0326861Y0066906D01*
X0326851Y0066817D01*
X0326838Y0066728D01*
X0326820Y0066640D01*
X0326799Y0066553D01*
X0326774Y0066466D01*
X0326745Y0066381D01*
X0326712Y0066298D01*
X0326676Y0066216D01*
X0326637Y0066135D01*
X0326593Y0066057D01*
X0326547Y0065980D01*
X0326497Y0065905D01*
X0326444Y0065833D01*
X0326388Y0065763D01*
X0326329Y0065695D01*
X0326267Y0065630D01*
X0326202Y0065568D01*
X0326134Y0065509D01*
X0326064Y0065453D01*
X0325992Y0065400D01*
X0325917Y0065350D01*
X0325841Y0065304D01*
X0325762Y0065260D01*
X0325681Y0065221D01*
X0325599Y0065185D01*
X0325516Y0065152D01*
X0325431Y0065123D01*
X0325344Y0065098D01*
X0325257Y0065077D01*
X0325169Y0065059D01*
X0325080Y0065046D01*
X0324991Y0065036D01*
X0324902Y0065030D01*
X0324812Y0065028D01*
X0352253Y0063217D02*
X0352343Y0063219D01*
X0352432Y0063225D01*
X0352521Y0063235D01*
X0352610Y0063248D01*
X0352698Y0063266D01*
X0352785Y0063287D01*
X0352872Y0063312D01*
X0352957Y0063341D01*
X0353040Y0063374D01*
X0353122Y0063410D01*
X0353203Y0063449D01*
X0353282Y0063493D01*
X0353358Y0063539D01*
X0353433Y0063589D01*
X0353505Y0063642D01*
X0353575Y0063698D01*
X0353643Y0063757D01*
X0353708Y0063819D01*
X0353770Y0063884D01*
X0353829Y0063952D01*
X0353885Y0064022D01*
X0353938Y0064094D01*
X0353988Y0064169D01*
X0354034Y0064246D01*
X0354078Y0064324D01*
X0354117Y0064405D01*
X0354153Y0064487D01*
X0354186Y0064570D01*
X0354215Y0064655D01*
X0354240Y0064742D01*
X0354261Y0064829D01*
X0354279Y0064917D01*
X0354292Y0065006D01*
X0354302Y0065095D01*
X0354308Y0065184D01*
X0354310Y0065274D01*
X0354308Y0065364D01*
X0354302Y0065453D01*
X0354292Y0065542D01*
X0354279Y0065631D01*
X0354261Y0065719D01*
X0354240Y0065806D01*
X0354215Y0065893D01*
X0354186Y0065978D01*
X0354153Y0066061D01*
X0354117Y0066143D01*
X0354078Y0066224D01*
X0354034Y0066303D01*
X0353988Y0066379D01*
X0353938Y0066454D01*
X0353885Y0066526D01*
X0353829Y0066596D01*
X0353770Y0066664D01*
X0353708Y0066729D01*
X0353643Y0066791D01*
X0353575Y0066850D01*
X0353505Y0066906D01*
X0353433Y0066959D01*
X0353358Y0067009D01*
X0353282Y0067055D01*
X0353203Y0067099D01*
X0353122Y0067138D01*
X0353040Y0067174D01*
X0352957Y0067207D01*
X0352872Y0067236D01*
X0352785Y0067261D01*
X0352698Y0067282D01*
X0352610Y0067300D01*
X0352521Y0067313D01*
X0352432Y0067323D01*
X0352343Y0067329D01*
X0352253Y0067331D01*
X0352253Y0063217D01*
X0352253Y0059083D01*
X0370481Y0059083D01*
X0370481Y0084123D01*
X0352253Y0084123D01*
X0352253Y0067331D01*
X0325583Y0105135D02*
X0282583Y0105135D01*
X0282523Y0105137D01*
X0282462Y0105142D01*
X0282403Y0105151D01*
X0282344Y0105164D01*
X0282285Y0105180D01*
X0282228Y0105200D01*
X0282173Y0105223D01*
X0282118Y0105250D01*
X0282066Y0105279D01*
X0282015Y0105312D01*
X0281966Y0105348D01*
X0281920Y0105386D01*
X0281876Y0105428D01*
X0281834Y0105472D01*
X0281796Y0105518D01*
X0281760Y0105567D01*
X0281727Y0105618D01*
X0281698Y0105670D01*
X0281671Y0105725D01*
X0281648Y0105780D01*
X0281628Y0105837D01*
X0281612Y0105896D01*
X0281599Y0105955D01*
X0281590Y0106014D01*
X0281585Y0106075D01*
X0281583Y0106135D01*
X0281583Y0110135D01*
X0281583Y0119135D02*
X0281583Y0123135D01*
X0281585Y0123195D01*
X0281590Y0123256D01*
X0281599Y0123315D01*
X0281612Y0123374D01*
X0281628Y0123433D01*
X0281648Y0123490D01*
X0281671Y0123545D01*
X0281698Y0123600D01*
X0281727Y0123652D01*
X0281760Y0123703D01*
X0281796Y0123752D01*
X0281834Y0123798D01*
X0281876Y0123842D01*
X0281920Y0123884D01*
X0281966Y0123922D01*
X0282015Y0123958D01*
X0282066Y0123991D01*
X0282118Y0124020D01*
X0282173Y0124047D01*
X0282228Y0124070D01*
X0282285Y0124090D01*
X0282344Y0124106D01*
X0282403Y0124119D01*
X0282462Y0124128D01*
X0282523Y0124133D01*
X0282583Y0124135D01*
X0325583Y0124135D01*
X0325643Y0124133D01*
X0325704Y0124128D01*
X0325763Y0124119D01*
X0325822Y0124106D01*
X0325881Y0124090D01*
X0325938Y0124070D01*
X0325993Y0124047D01*
X0326048Y0124020D01*
X0326100Y0123991D01*
X0326151Y0123958D01*
X0326200Y0123922D01*
X0326246Y0123884D01*
X0326290Y0123842D01*
X0326332Y0123798D01*
X0326370Y0123752D01*
X0326406Y0123703D01*
X0326439Y0123652D01*
X0326468Y0123600D01*
X0326495Y0123545D01*
X0326518Y0123490D01*
X0326538Y0123433D01*
X0326554Y0123374D01*
X0326567Y0123315D01*
X0326576Y0123256D01*
X0326581Y0123195D01*
X0326583Y0123135D01*
X0326583Y0119135D01*
X0326583Y0110135D02*
X0326583Y0106135D01*
X0326581Y0106075D01*
X0326576Y0106014D01*
X0326567Y0105955D01*
X0326554Y0105896D01*
X0326538Y0105837D01*
X0326518Y0105780D01*
X0326495Y0105725D01*
X0326468Y0105670D01*
X0326439Y0105618D01*
X0326406Y0105567D01*
X0326370Y0105518D01*
X0326332Y0105472D01*
X0326290Y0105428D01*
X0326246Y0105386D01*
X0326200Y0105348D01*
X0326151Y0105312D01*
X0326100Y0105279D01*
X0326048Y0105250D01*
X0325993Y0105223D01*
X0325938Y0105200D01*
X0325881Y0105180D01*
X0325822Y0105164D01*
X0325763Y0105151D01*
X0325704Y0105142D01*
X0325643Y0105137D01*
X0325583Y0105135D01*
X0306583Y0112135D02*
X0306583Y0114635D01*
X0306583Y0117135D01*
X0305083Y0117135D02*
X0303083Y0117135D01*
X0303083Y0112135D01*
X0305083Y0112135D01*
X0305083Y0117135D01*
X0301583Y0117135D02*
X0301583Y0114635D01*
X0301583Y0112135D01*
X0308552Y0137607D02*
X0308552Y0163808D01*
X0309950Y0165206D01*
X0336150Y0165206D01*
X0336150Y0137607D01*
X0308552Y0137607D01*
X0310137Y0162206D02*
X0310139Y0162281D01*
X0310145Y0162355D01*
X0310155Y0162429D01*
X0310168Y0162502D01*
X0310186Y0162575D01*
X0310207Y0162646D01*
X0310232Y0162717D01*
X0310261Y0162786D01*
X0310294Y0162853D01*
X0310330Y0162918D01*
X0310369Y0162982D01*
X0310411Y0163043D01*
X0310457Y0163102D01*
X0310506Y0163159D01*
X0310558Y0163212D01*
X0310612Y0163263D01*
X0310669Y0163312D01*
X0310729Y0163356D01*
X0310791Y0163398D01*
X0310855Y0163437D01*
X0310921Y0163472D01*
X0310988Y0163503D01*
X0311058Y0163531D01*
X0311128Y0163555D01*
X0311200Y0163576D01*
X0311273Y0163592D01*
X0311346Y0163605D01*
X0311421Y0163614D01*
X0311495Y0163619D01*
X0311570Y0163620D01*
X0311644Y0163617D01*
X0311719Y0163610D01*
X0311792Y0163599D01*
X0311866Y0163585D01*
X0311938Y0163566D01*
X0312009Y0163544D01*
X0312079Y0163518D01*
X0312148Y0163488D01*
X0312214Y0163455D01*
X0312279Y0163418D01*
X0312342Y0163378D01*
X0312403Y0163334D01*
X0312461Y0163288D01*
X0312517Y0163238D01*
X0312570Y0163186D01*
X0312621Y0163131D01*
X0312668Y0163073D01*
X0312712Y0163013D01*
X0312753Y0162950D01*
X0312791Y0162886D01*
X0312825Y0162820D01*
X0312856Y0162751D01*
X0312883Y0162682D01*
X0312906Y0162611D01*
X0312925Y0162539D01*
X0312941Y0162466D01*
X0312953Y0162392D01*
X0312961Y0162318D01*
X0312965Y0162243D01*
X0312965Y0162169D01*
X0312961Y0162094D01*
X0312953Y0162020D01*
X0312941Y0161946D01*
X0312925Y0161873D01*
X0312906Y0161801D01*
X0312883Y0161730D01*
X0312856Y0161661D01*
X0312825Y0161592D01*
X0312791Y0161526D01*
X0312753Y0161462D01*
X0312712Y0161399D01*
X0312668Y0161339D01*
X0312621Y0161281D01*
X0312570Y0161226D01*
X0312517Y0161174D01*
X0312461Y0161124D01*
X0312403Y0161078D01*
X0312342Y0161034D01*
X0312279Y0160994D01*
X0312214Y0160957D01*
X0312148Y0160924D01*
X0312079Y0160894D01*
X0312009Y0160868D01*
X0311938Y0160846D01*
X0311866Y0160827D01*
X0311792Y0160813D01*
X0311719Y0160802D01*
X0311644Y0160795D01*
X0311570Y0160792D01*
X0311495Y0160793D01*
X0311421Y0160798D01*
X0311346Y0160807D01*
X0311273Y0160820D01*
X0311200Y0160836D01*
X0311128Y0160857D01*
X0311058Y0160881D01*
X0310988Y0160909D01*
X0310921Y0160940D01*
X0310855Y0160975D01*
X0310791Y0161014D01*
X0310729Y0161056D01*
X0310669Y0161100D01*
X0310612Y0161149D01*
X0310558Y0161200D01*
X0310506Y0161253D01*
X0310457Y0161310D01*
X0310411Y0161369D01*
X0310369Y0161430D01*
X0310330Y0161494D01*
X0310294Y0161559D01*
X0310261Y0161626D01*
X0310232Y0161695D01*
X0310207Y0161766D01*
X0310186Y0161837D01*
X0310168Y0161910D01*
X0310155Y0161983D01*
X0310145Y0162057D01*
X0310139Y0162131D01*
X0310137Y0162206D01*
X0369398Y0133709D02*
X0371898Y0136209D01*
X0376898Y0136209D01*
X0379398Y0133709D01*
X0381898Y0136209D01*
X0386898Y0136209D01*
X0389398Y0133709D01*
X0391898Y0136209D01*
X0396898Y0136209D01*
X0399398Y0133709D01*
X0401898Y0136209D01*
X0406898Y0136209D01*
X0409398Y0133709D01*
X0411898Y0136209D01*
X0416898Y0136209D01*
X0419398Y0133709D01*
X0419398Y0128709D01*
X0416898Y0126209D01*
X0411898Y0126209D01*
X0409398Y0128709D01*
X0406898Y0126209D01*
X0401898Y0126209D01*
X0399398Y0128709D01*
X0396898Y0126209D01*
X0391898Y0126209D01*
X0389398Y0128709D01*
X0386898Y0126209D01*
X0381898Y0126209D01*
X0379398Y0128709D01*
X0376898Y0126209D01*
X0371898Y0126209D01*
X0369398Y0128709D01*
X0369398Y0133709D01*
X0383410Y0145804D02*
X0384910Y0145804D01*
X0385410Y0146304D01*
X0404410Y0146304D01*
X0404910Y0145804D01*
X0406410Y0145804D01*
X0406470Y0145806D01*
X0406531Y0145811D01*
X0406590Y0145820D01*
X0406649Y0145833D01*
X0406708Y0145849D01*
X0406765Y0145869D01*
X0406820Y0145892D01*
X0406875Y0145919D01*
X0406927Y0145948D01*
X0406978Y0145981D01*
X0407027Y0146017D01*
X0407073Y0146055D01*
X0407117Y0146097D01*
X0407159Y0146141D01*
X0407197Y0146187D01*
X0407233Y0146236D01*
X0407266Y0146287D01*
X0407295Y0146339D01*
X0407322Y0146394D01*
X0407345Y0146449D01*
X0407365Y0146506D01*
X0407381Y0146565D01*
X0407394Y0146624D01*
X0407403Y0146683D01*
X0407408Y0146744D01*
X0407410Y0146804D01*
X0407410Y0153804D01*
X0407408Y0153864D01*
X0407403Y0153925D01*
X0407394Y0153984D01*
X0407381Y0154043D01*
X0407365Y0154102D01*
X0407345Y0154159D01*
X0407322Y0154214D01*
X0407295Y0154269D01*
X0407266Y0154321D01*
X0407233Y0154372D01*
X0407197Y0154421D01*
X0407159Y0154467D01*
X0407117Y0154511D01*
X0407073Y0154553D01*
X0407027Y0154591D01*
X0406978Y0154627D01*
X0406927Y0154660D01*
X0406875Y0154689D01*
X0406820Y0154716D01*
X0406765Y0154739D01*
X0406708Y0154759D01*
X0406649Y0154775D01*
X0406590Y0154788D01*
X0406531Y0154797D01*
X0406470Y0154802D01*
X0406410Y0154804D01*
X0404910Y0154804D01*
X0404410Y0154304D01*
X0385410Y0154304D01*
X0384910Y0154804D01*
X0383410Y0154804D01*
X0383350Y0154802D01*
X0383289Y0154797D01*
X0383230Y0154788D01*
X0383171Y0154775D01*
X0383112Y0154759D01*
X0383055Y0154739D01*
X0383000Y0154716D01*
X0382945Y0154689D01*
X0382893Y0154660D01*
X0382842Y0154627D01*
X0382793Y0154591D01*
X0382747Y0154553D01*
X0382703Y0154511D01*
X0382661Y0154467D01*
X0382623Y0154421D01*
X0382587Y0154372D01*
X0382554Y0154321D01*
X0382525Y0154269D01*
X0382498Y0154214D01*
X0382475Y0154159D01*
X0382455Y0154102D01*
X0382439Y0154043D01*
X0382426Y0153984D01*
X0382417Y0153925D01*
X0382412Y0153864D01*
X0382410Y0153804D01*
X0382410Y0146804D01*
X0382412Y0146744D01*
X0382417Y0146683D01*
X0382426Y0146624D01*
X0382439Y0146565D01*
X0382455Y0146506D01*
X0382475Y0146449D01*
X0382498Y0146394D01*
X0382525Y0146339D01*
X0382554Y0146287D01*
X0382587Y0146236D01*
X0382623Y0146187D01*
X0382661Y0146141D01*
X0382703Y0146097D01*
X0382747Y0146055D01*
X0382793Y0146017D01*
X0382842Y0145981D01*
X0382893Y0145948D01*
X0382945Y0145919D01*
X0383000Y0145892D01*
X0383055Y0145869D01*
X0383112Y0145849D01*
X0383171Y0145833D01*
X0383230Y0145820D01*
X0383289Y0145811D01*
X0383350Y0145806D01*
X0383410Y0145804D01*
X0562612Y0086773D02*
X0566882Y0086773D01*
X0564747Y0086773D02*
X0564747Y0080368D01*
X0569057Y0081435D02*
X0569057Y0083570D01*
X0570125Y0084638D01*
X0572260Y0084638D01*
X0573328Y0083570D01*
X0573328Y0081435D01*
X0572260Y0080368D01*
X0570125Y0080368D01*
X0569057Y0081435D01*
X0575503Y0080368D02*
X0575503Y0084638D01*
X0578706Y0084638D01*
X0579773Y0083570D01*
X0579773Y0080368D01*
X0581948Y0081435D02*
X0583016Y0080368D01*
X0586219Y0080368D01*
X0586219Y0079300D02*
X0585151Y0078233D01*
X0584083Y0078233D01*
X0586219Y0079300D02*
X0586219Y0084638D01*
X0588394Y0085706D02*
X0588394Y0081435D01*
X0589461Y0080368D01*
X0591597Y0080368D01*
X0592664Y0081435D01*
X0592664Y0083570D01*
X0590529Y0083570D01*
X0592664Y0085706D02*
X0591597Y0086773D01*
X0589461Y0086773D01*
X0588394Y0085706D01*
X0594839Y0086773D02*
X0594839Y0081435D01*
X0595907Y0080368D01*
X0598042Y0080368D01*
X0599110Y0081435D01*
X0599110Y0086773D01*
X0601285Y0085706D02*
X0601285Y0081435D01*
X0602352Y0080368D01*
X0604488Y0080368D01*
X0605555Y0081435D01*
X0605555Y0085706D01*
X0604488Y0086773D01*
X0602352Y0086773D01*
X0601285Y0085706D01*
X0601827Y0073505D02*
X0599692Y0073505D01*
X0598624Y0072438D01*
X0598624Y0068168D01*
X0599692Y0067100D01*
X0601827Y0067100D01*
X0602895Y0068168D01*
X0605070Y0067100D02*
X0607205Y0067100D01*
X0606138Y0067100D02*
X0606138Y0073505D01*
X0605070Y0073505D01*
X0602895Y0072438D02*
X0601827Y0073505D01*
X0609367Y0070303D02*
X0609367Y0068168D01*
X0610435Y0067100D01*
X0612570Y0067100D01*
X0613637Y0068168D01*
X0613637Y0070303D01*
X0612570Y0071370D01*
X0610435Y0071370D01*
X0609367Y0070303D01*
X0615812Y0070303D02*
X0615812Y0068168D01*
X0616880Y0067100D01*
X0620083Y0067100D01*
X0622258Y0067100D02*
X0622258Y0073505D01*
X0620083Y0071370D02*
X0616880Y0071370D01*
X0615812Y0070303D01*
X0622258Y0069235D02*
X0625461Y0071370D01*
X0622258Y0069235D02*
X0625461Y0067100D01*
X0623312Y0063505D02*
X0624380Y0062438D01*
X0624380Y0061370D01*
X0623312Y0060303D01*
X0624380Y0059235D01*
X0624380Y0058168D01*
X0623312Y0057100D01*
X0621177Y0057100D01*
X0620109Y0058168D01*
X0617934Y0057100D02*
X0613664Y0057100D01*
X0617934Y0061370D01*
X0617934Y0062438D01*
X0616867Y0063505D01*
X0614732Y0063505D01*
X0613664Y0062438D01*
X0611489Y0063505D02*
X0607218Y0057100D01*
X0605043Y0062438D02*
X0600773Y0058168D01*
X0600773Y0057100D01*
X0598598Y0058168D02*
X0598598Y0062438D01*
X0594327Y0058168D01*
X0595395Y0057100D01*
X0597530Y0057100D01*
X0598598Y0058168D01*
X0598598Y0062438D02*
X0597530Y0063505D01*
X0595395Y0063505D01*
X0594327Y0062438D01*
X0594327Y0058168D01*
X0592152Y0063505D02*
X0587882Y0057100D01*
X0585707Y0062438D02*
X0581436Y0058168D01*
X0581436Y0057100D01*
X0579261Y0057100D02*
X0574991Y0057100D01*
X0577126Y0057100D02*
X0577126Y0063505D01*
X0574991Y0061370D01*
X0572816Y0062438D02*
X0568545Y0058168D01*
X0569613Y0057100D01*
X0571748Y0057100D01*
X0572816Y0058168D01*
X0572816Y0062438D01*
X0571748Y0063505D01*
X0569613Y0063505D01*
X0568545Y0062438D01*
X0568545Y0058168D01*
X0566370Y0057100D02*
X0562100Y0057100D01*
X0566370Y0061370D01*
X0566370Y0062438D01*
X0565303Y0063505D01*
X0563168Y0063505D01*
X0562100Y0062438D01*
X0562100Y0067100D02*
X0564235Y0067100D01*
X0563168Y0067100D02*
X0563168Y0073505D01*
X0564235Y0073505D02*
X0562100Y0073505D01*
X0566397Y0073505D02*
X0570667Y0067100D01*
X0570667Y0073505D01*
X0572842Y0070303D02*
X0577113Y0070303D01*
X0579288Y0071370D02*
X0581423Y0073505D01*
X0581423Y0067100D01*
X0579288Y0067100D02*
X0583558Y0067100D01*
X0585733Y0070303D02*
X0590004Y0070303D01*
X0588936Y0073505D02*
X0588936Y0067100D01*
X0585733Y0070303D02*
X0588936Y0073505D01*
X0581948Y0081435D02*
X0581948Y0084638D01*
X0566397Y0073505D02*
X0566397Y0067100D01*
X0581436Y0063505D02*
X0585707Y0063505D01*
X0585707Y0062438D01*
X0600773Y0063505D02*
X0605043Y0063505D01*
X0605043Y0062438D01*
X0620109Y0062438D02*
X0621177Y0063505D01*
X0623312Y0063505D01*
X0623312Y0060303D02*
X0622245Y0060303D01*
X0634075Y0069235D02*
X0636210Y0067100D01*
X0638345Y0069235D01*
X0638345Y0073505D01*
X0640520Y0070303D02*
X0641588Y0071370D01*
X0643723Y0071370D01*
X0644791Y0070303D01*
X0644791Y0069235D01*
X0640520Y0069235D01*
X0640520Y0068168D02*
X0640520Y0070303D01*
X0640520Y0068168D02*
X0641588Y0067100D01*
X0643723Y0067100D01*
X0646966Y0067100D02*
X0646966Y0071370D01*
X0646966Y0069235D02*
X0649101Y0071370D01*
X0650168Y0071370D01*
X0652337Y0068168D02*
X0653405Y0068168D01*
X0653405Y0067100D01*
X0652337Y0067100D01*
X0652337Y0068168D01*
X0655560Y0067100D02*
X0659830Y0067100D01*
X0657695Y0067100D02*
X0657695Y0073505D01*
X0655560Y0071370D01*
X0634075Y0073505D02*
X0634075Y0069235D01*
X0165548Y0132662D02*
X0165548Y0138812D01*
X0154347Y0138812D02*
X0154347Y0132662D01*
D11*
X0031485Y0016800D02*
X0642115Y0016800D01*
X0642591Y0016806D01*
X0643066Y0016823D01*
X0643541Y0016852D01*
X0644015Y0016892D01*
X0644488Y0016944D01*
X0644959Y0017007D01*
X0645429Y0017081D01*
X0645897Y0017167D01*
X0646363Y0017264D01*
X0646826Y0017372D01*
X0647286Y0017491D01*
X0647744Y0017622D01*
X0648198Y0017763D01*
X0648649Y0017916D01*
X0649095Y0018079D01*
X0649538Y0018253D01*
X0649976Y0018438D01*
X0650410Y0018633D01*
X0650839Y0018839D01*
X0651263Y0019055D01*
X0651682Y0019281D01*
X0652095Y0019517D01*
X0652502Y0019763D01*
X0652903Y0020019D01*
X0653297Y0020285D01*
X0653686Y0020560D01*
X0654067Y0020844D01*
X0654441Y0021137D01*
X0654809Y0021439D01*
X0655169Y0021751D01*
X0655521Y0022070D01*
X0655865Y0022398D01*
X0656202Y0022735D01*
X0656530Y0023079D01*
X0656849Y0023431D01*
X0657161Y0023791D01*
X0657463Y0024159D01*
X0657756Y0024533D01*
X0658040Y0024914D01*
X0658315Y0025303D01*
X0658581Y0025697D01*
X0658837Y0026098D01*
X0659083Y0026505D01*
X0659319Y0026918D01*
X0659545Y0027337D01*
X0659761Y0027761D01*
X0659967Y0028190D01*
X0660162Y0028624D01*
X0660347Y0029062D01*
X0660521Y0029505D01*
X0660684Y0029951D01*
X0660837Y0030402D01*
X0660978Y0030856D01*
X0661109Y0031314D01*
X0661228Y0031774D01*
X0661336Y0032237D01*
X0661433Y0032703D01*
X0661519Y0033171D01*
X0661593Y0033641D01*
X0661656Y0034112D01*
X0661708Y0034585D01*
X0661748Y0035059D01*
X0661777Y0035534D01*
X0661794Y0036009D01*
X0661800Y0036485D01*
X0661800Y0302115D01*
X0661794Y0302591D01*
X0661777Y0303066D01*
X0661748Y0303541D01*
X0661708Y0304015D01*
X0661656Y0304488D01*
X0661593Y0304959D01*
X0661519Y0305429D01*
X0661433Y0305897D01*
X0661336Y0306363D01*
X0661228Y0306826D01*
X0661109Y0307286D01*
X0660978Y0307744D01*
X0660837Y0308198D01*
X0660684Y0308649D01*
X0660521Y0309095D01*
X0660347Y0309538D01*
X0660162Y0309976D01*
X0659967Y0310410D01*
X0659761Y0310839D01*
X0659545Y0311263D01*
X0659319Y0311682D01*
X0659083Y0312095D01*
X0658837Y0312502D01*
X0658581Y0312903D01*
X0658315Y0313297D01*
X0658040Y0313686D01*
X0657756Y0314067D01*
X0657463Y0314441D01*
X0657161Y0314809D01*
X0656849Y0315169D01*
X0656530Y0315521D01*
X0656202Y0315865D01*
X0655865Y0316202D01*
X0655521Y0316530D01*
X0655169Y0316849D01*
X0654809Y0317161D01*
X0654441Y0317463D01*
X0654067Y0317756D01*
X0653686Y0318040D01*
X0653297Y0318315D01*
X0652903Y0318581D01*
X0652502Y0318837D01*
X0652095Y0319083D01*
X0651682Y0319319D01*
X0651263Y0319545D01*
X0650839Y0319761D01*
X0650410Y0319967D01*
X0649976Y0320162D01*
X0649538Y0320347D01*
X0649095Y0320521D01*
X0648649Y0320684D01*
X0648198Y0320837D01*
X0647744Y0320978D01*
X0647286Y0321109D01*
X0646826Y0321228D01*
X0646363Y0321336D01*
X0645897Y0321433D01*
X0645429Y0321519D01*
X0644959Y0321593D01*
X0644488Y0321656D01*
X0644015Y0321708D01*
X0643541Y0321748D01*
X0643066Y0321777D01*
X0642591Y0321794D01*
X0642115Y0321800D01*
X0031485Y0321800D01*
X0031009Y0321794D01*
X0030534Y0321777D01*
X0030059Y0321748D01*
X0029585Y0321708D01*
X0029112Y0321656D01*
X0028641Y0321593D01*
X0028171Y0321519D01*
X0027703Y0321433D01*
X0027237Y0321336D01*
X0026774Y0321228D01*
X0026314Y0321109D01*
X0025856Y0320978D01*
X0025402Y0320837D01*
X0024951Y0320684D01*
X0024505Y0320521D01*
X0024062Y0320347D01*
X0023624Y0320162D01*
X0023190Y0319967D01*
X0022761Y0319761D01*
X0022337Y0319545D01*
X0021918Y0319319D01*
X0021505Y0319083D01*
X0021098Y0318837D01*
X0020697Y0318581D01*
X0020303Y0318315D01*
X0019914Y0318040D01*
X0019533Y0317756D01*
X0019159Y0317463D01*
X0018791Y0317161D01*
X0018431Y0316849D01*
X0018079Y0316530D01*
X0017735Y0316202D01*
X0017398Y0315865D01*
X0017070Y0315521D01*
X0016751Y0315169D01*
X0016439Y0314809D01*
X0016137Y0314441D01*
X0015844Y0314067D01*
X0015560Y0313686D01*
X0015285Y0313297D01*
X0015019Y0312903D01*
X0014763Y0312502D01*
X0014517Y0312095D01*
X0014281Y0311682D01*
X0014055Y0311263D01*
X0013839Y0310839D01*
X0013633Y0310410D01*
X0013438Y0309976D01*
X0013253Y0309538D01*
X0013079Y0309095D01*
X0012916Y0308649D01*
X0012763Y0308198D01*
X0012622Y0307744D01*
X0012491Y0307286D01*
X0012372Y0306826D01*
X0012264Y0306363D01*
X0012167Y0305897D01*
X0012081Y0305429D01*
X0012007Y0304959D01*
X0011944Y0304488D01*
X0011892Y0304015D01*
X0011852Y0303541D01*
X0011823Y0303066D01*
X0011806Y0302591D01*
X0011800Y0302115D01*
X0011800Y0036485D01*
X0011806Y0036009D01*
X0011823Y0035534D01*
X0011852Y0035059D01*
X0011892Y0034585D01*
X0011944Y0034112D01*
X0012007Y0033641D01*
X0012081Y0033171D01*
X0012167Y0032703D01*
X0012264Y0032237D01*
X0012372Y0031774D01*
X0012491Y0031314D01*
X0012622Y0030856D01*
X0012763Y0030402D01*
X0012916Y0029951D01*
X0013079Y0029505D01*
X0013253Y0029062D01*
X0013438Y0028624D01*
X0013633Y0028190D01*
X0013839Y0027761D01*
X0014055Y0027337D01*
X0014281Y0026918D01*
X0014517Y0026505D01*
X0014763Y0026098D01*
X0015019Y0025697D01*
X0015285Y0025303D01*
X0015560Y0024914D01*
X0015844Y0024533D01*
X0016137Y0024159D01*
X0016439Y0023791D01*
X0016751Y0023431D01*
X0017070Y0023079D01*
X0017398Y0022735D01*
X0017735Y0022398D01*
X0018079Y0022070D01*
X0018431Y0021751D01*
X0018791Y0021439D01*
X0019159Y0021137D01*
X0019533Y0020844D01*
X0019914Y0020560D01*
X0020303Y0020285D01*
X0020697Y0020019D01*
X0021098Y0019763D01*
X0021505Y0019517D01*
X0021918Y0019281D01*
X0022337Y0019055D01*
X0022761Y0018839D01*
X0023190Y0018633D01*
X0023624Y0018438D01*
X0024062Y0018253D01*
X0024505Y0018079D01*
X0024951Y0017916D01*
X0025402Y0017763D01*
X0025856Y0017622D01*
X0026314Y0017491D01*
X0026774Y0017372D01*
X0027237Y0017264D01*
X0027703Y0017167D01*
X0028171Y0017081D01*
X0028641Y0017007D01*
X0029112Y0016944D01*
X0029585Y0016892D01*
X0030059Y0016852D01*
X0030534Y0016823D01*
X0031009Y0016806D01*
X0031485Y0016800D01*
X0489517Y0101365D02*
X0489517Y0101605D01*
D12*
X0155422Y0133769D03*
X0113729Y0140501D03*
D13*
X0117101Y0158701D02*
X0118302Y0158701D01*
X0118902Y0159301D01*
X0118902Y0162304D01*
X0120183Y0161703D02*
X0120784Y0162304D01*
X0121985Y0162304D01*
X0122585Y0161703D01*
X0123866Y0161703D02*
X0124467Y0162304D01*
X0125668Y0162304D01*
X0126268Y0161703D01*
X0126268Y0161103D01*
X0123866Y0158701D01*
X0126268Y0158701D01*
X0122585Y0159301D02*
X0122585Y0159902D01*
X0121985Y0160502D01*
X0120784Y0160502D01*
X0120183Y0161103D01*
X0120183Y0161703D01*
X0121384Y0162904D02*
X0121384Y0158100D01*
X0120784Y0158701D02*
X0121985Y0158701D01*
X0122585Y0159301D01*
X0120784Y0158701D02*
X0120183Y0159301D01*
X0117101Y0158701D02*
X0116500Y0159301D01*
X0116500Y0162304D01*
X0129634Y0165198D02*
X0134238Y0165198D01*
X0134238Y0168268D01*
X0134238Y0169802D02*
X0134238Y0172872D01*
X0134238Y0174406D02*
X0134238Y0176708D01*
X0133470Y0177476D01*
X0130401Y0177476D01*
X0129634Y0176708D01*
X0129634Y0174406D01*
X0134238Y0174406D01*
X0131936Y0171337D02*
X0131936Y0169802D01*
X0129634Y0169802D02*
X0134238Y0169802D01*
X0129634Y0169802D02*
X0129634Y0172872D01*
X0127584Y0173732D02*
X0127584Y0176802D01*
X0127584Y0178336D02*
X0127584Y0181405D01*
X0127584Y0182940D02*
X0127584Y0185242D01*
X0126817Y0186009D01*
X0123748Y0186009D01*
X0122980Y0185242D01*
X0122980Y0182940D01*
X0127584Y0182940D01*
X0129634Y0181312D02*
X0129634Y0179778D01*
X0130401Y0179010D01*
X0129634Y0181312D02*
X0130401Y0182079D01*
X0131169Y0182079D01*
X0134238Y0179010D01*
X0134238Y0182079D01*
X0127584Y0178336D02*
X0122980Y0178336D01*
X0122980Y0181405D01*
X0125282Y0179871D02*
X0125282Y0178336D01*
X0122980Y0173732D02*
X0127584Y0173732D01*
X0127584Y0187544D02*
X0127584Y0190613D01*
X0127584Y0189079D02*
X0122980Y0189079D01*
X0124515Y0187544D01*
X0148354Y0164694D02*
X0152958Y0164694D01*
X0152958Y0166228D02*
X0152958Y0163159D01*
X0149889Y0163159D02*
X0148354Y0164694D01*
X0148354Y0161624D02*
X0148354Y0158555D01*
X0148354Y0160090D02*
X0152958Y0160090D01*
X0159534Y0146841D02*
X0159534Y0142037D01*
X0160134Y0142638D02*
X0160735Y0143238D01*
X0160735Y0143839D01*
X0160134Y0144439D01*
X0158933Y0144439D01*
X0158333Y0145040D01*
X0158333Y0145640D01*
X0158933Y0146241D01*
X0160134Y0146241D01*
X0160735Y0145640D01*
X0162016Y0145040D02*
X0163217Y0146241D01*
X0163217Y0142638D01*
X0162016Y0142638D02*
X0164418Y0142638D01*
X0160134Y0142638D02*
X0158933Y0142638D01*
X0158333Y0143238D01*
X0157052Y0143238D02*
X0157052Y0146241D01*
X0154650Y0146241D02*
X0154650Y0143238D01*
X0155250Y0142638D01*
X0156451Y0142638D01*
X0157052Y0143238D01*
X0214854Y0168757D02*
X0215371Y0168240D01*
X0216406Y0168240D01*
X0216923Y0168757D01*
X0216923Y0171343D01*
X0218077Y0169791D02*
X0219628Y0171343D01*
X0219628Y0168240D01*
X0220146Y0169791D02*
X0218077Y0169791D01*
X0214854Y0168757D02*
X0214854Y0171343D01*
X0251705Y0172832D02*
X0252222Y0172315D01*
X0253256Y0172315D01*
X0253773Y0172832D01*
X0253773Y0173349D01*
X0253256Y0173866D01*
X0252222Y0173866D01*
X0251705Y0174383D01*
X0251705Y0174900D01*
X0252222Y0175418D01*
X0253256Y0175418D01*
X0253773Y0174900D01*
X0254927Y0175418D02*
X0254927Y0172315D01*
X0255962Y0173349D01*
X0256996Y0172315D01*
X0256996Y0175418D01*
X0258150Y0174900D02*
X0258667Y0175418D01*
X0259702Y0175418D01*
X0260219Y0174900D01*
X0260219Y0174383D01*
X0258150Y0172315D01*
X0260219Y0172315D01*
X0389894Y0074635D02*
X0391428Y0074635D01*
X0390661Y0074635D02*
X0390661Y0070031D01*
X0389894Y0070031D02*
X0391428Y0070031D01*
X0392963Y0070799D02*
X0393730Y0070031D01*
X0395265Y0070031D01*
X0396032Y0070799D01*
X0397567Y0070799D02*
X0398334Y0070031D01*
X0399869Y0070031D01*
X0400636Y0070799D01*
X0400636Y0071566D01*
X0399869Y0072333D01*
X0399102Y0072333D01*
X0399869Y0072333D02*
X0400636Y0073101D01*
X0400636Y0073868D01*
X0399869Y0074635D01*
X0398334Y0074635D01*
X0397567Y0073868D01*
X0396032Y0073868D02*
X0395265Y0074635D01*
X0393730Y0074635D01*
X0392963Y0073868D01*
X0392963Y0070799D01*
X0481429Y0115028D02*
X0483498Y0115028D01*
X0484652Y0115028D02*
X0486720Y0115028D01*
X0485686Y0115028D02*
X0485686Y0118130D01*
X0484652Y0117096D01*
X0481429Y0118130D02*
X0481429Y0115028D01*
X0479791Y0130395D02*
X0484395Y0130395D01*
X0484395Y0133465D01*
X0484395Y0134999D02*
X0484395Y0138068D01*
X0484395Y0139603D02*
X0484395Y0141905D01*
X0483628Y0142672D01*
X0480559Y0142672D01*
X0479791Y0141905D01*
X0479791Y0139603D01*
X0484395Y0139603D01*
X0482093Y0136534D02*
X0482093Y0134999D01*
X0479791Y0134999D02*
X0484395Y0134999D01*
X0479791Y0134999D02*
X0479791Y0138068D01*
X0482093Y0144207D02*
X0482093Y0147276D01*
X0479791Y0146509D02*
X0482093Y0144207D01*
X0484395Y0146509D02*
X0479791Y0146509D01*
X0587954Y0129635D02*
X0587954Y0125031D01*
X0591024Y0125031D01*
X0592558Y0125031D02*
X0595628Y0125031D01*
X0597162Y0125031D02*
X0599464Y0125031D01*
X0600231Y0125799D01*
X0600231Y0128868D01*
X0599464Y0129635D01*
X0597162Y0129635D01*
X0597162Y0125031D01*
X0594093Y0127333D02*
X0592558Y0127333D01*
X0592558Y0129635D02*
X0592558Y0125031D01*
X0592558Y0129635D02*
X0595628Y0129635D01*
X0601766Y0128868D02*
X0602533Y0129635D01*
X0604068Y0129635D01*
X0604835Y0128868D01*
X0604835Y0128101D01*
X0604068Y0127333D01*
X0604835Y0126566D01*
X0604835Y0125799D01*
X0604068Y0125031D01*
X0602533Y0125031D01*
X0601766Y0125799D01*
X0603301Y0127333D02*
X0604068Y0127333D01*
X0604022Y0170870D02*
X0604022Y0173939D01*
X0601720Y0173939D02*
X0606324Y0173939D01*
X0606324Y0175474D02*
X0601720Y0175474D01*
X0603255Y0177009D01*
X0601720Y0178543D01*
X0606324Y0178543D01*
X0604022Y0180078D02*
X0604022Y0183147D01*
X0603255Y0184682D02*
X0601720Y0186216D01*
X0606324Y0186216D01*
X0606324Y0184682D02*
X0606324Y0187751D01*
X0605557Y0189286D02*
X0606324Y0190053D01*
X0606324Y0191588D01*
X0605557Y0192355D01*
X0604790Y0192355D01*
X0604022Y0191588D01*
X0604022Y0190820D01*
X0604022Y0191588D02*
X0603255Y0192355D01*
X0602488Y0192355D01*
X0601720Y0191588D01*
X0601720Y0190053D01*
X0602488Y0189286D01*
X0601720Y0170870D02*
X0606324Y0170870D01*
X0550927Y0213969D02*
X0548859Y0213969D01*
X0549893Y0213969D02*
X0549893Y0217071D01*
X0548859Y0216037D01*
X0547705Y0217071D02*
X0547705Y0213969D01*
X0546670Y0215003D01*
X0545636Y0213969D01*
X0545636Y0217071D01*
X0544482Y0216554D02*
X0543965Y0217071D01*
X0542930Y0217071D01*
X0542413Y0216554D01*
X0542413Y0216037D01*
X0542930Y0215520D01*
X0543965Y0215520D01*
X0544482Y0215003D01*
X0544482Y0214486D01*
X0543965Y0213969D01*
X0542930Y0213969D01*
X0542413Y0214486D01*
D14*
X0507489Y0216057D02*
X0506488Y0216057D01*
X0507489Y0217058D01*
X0507489Y0217308D01*
X0507239Y0217558D01*
X0506739Y0217558D01*
X0506488Y0217308D01*
X0506016Y0217308D02*
X0505766Y0217558D01*
X0505265Y0217558D01*
X0505015Y0217308D01*
X0505015Y0216307D01*
X0505265Y0216057D01*
X0505766Y0216057D01*
X0506016Y0216307D01*
X0504533Y0216057D02*
X0504033Y0216057D01*
X0504283Y0216057D02*
X0504283Y0217558D01*
X0504033Y0217558D02*
X0504533Y0217558D01*
X0477992Y0163123D02*
X0478242Y0162873D01*
X0478242Y0162623D01*
X0477992Y0162372D01*
X0477492Y0162372D01*
X0477241Y0162623D01*
X0477241Y0162873D01*
X0477492Y0163123D01*
X0477992Y0163123D01*
X0477992Y0162372D02*
X0478242Y0162122D01*
X0478242Y0161872D01*
X0477992Y0161622D01*
X0477492Y0161622D01*
X0477241Y0161872D01*
X0477241Y0162122D01*
X0477492Y0162372D01*
X0476769Y0161622D02*
X0475768Y0161622D01*
X0475296Y0161622D02*
X0474795Y0162122D01*
X0475046Y0162122D02*
X0474295Y0162122D01*
X0474295Y0161622D02*
X0474295Y0163123D01*
X0475046Y0163123D01*
X0475296Y0162873D01*
X0475296Y0162372D01*
X0475046Y0162122D01*
X0475768Y0162623D02*
X0476269Y0163123D01*
X0476269Y0161622D01*
X0485476Y0126115D02*
X0486227Y0126115D01*
X0486477Y0125865D01*
X0486477Y0125364D01*
X0486227Y0125114D01*
X0485476Y0125114D01*
X0485476Y0124614D02*
X0485476Y0126115D01*
X0485976Y0125114D02*
X0486477Y0124614D01*
X0486949Y0124614D02*
X0487950Y0124614D01*
X0487450Y0124614D02*
X0487450Y0126115D01*
X0486949Y0125615D01*
X0488422Y0125615D02*
X0488673Y0125364D01*
X0489423Y0125364D01*
X0489423Y0124864D02*
X0489423Y0125865D01*
X0489173Y0126115D01*
X0488673Y0126115D01*
X0488422Y0125865D01*
X0488422Y0125615D01*
X0488422Y0124864D02*
X0488673Y0124614D01*
X0489173Y0124614D01*
X0489423Y0124864D01*
X0489263Y0105786D02*
X0489764Y0105786D01*
X0490014Y0105536D01*
X0489013Y0104535D01*
X0489263Y0104285D01*
X0489764Y0104285D01*
X0490014Y0104535D01*
X0490014Y0105536D01*
X0489263Y0105786D02*
X0489013Y0105536D01*
X0489013Y0104535D01*
X0488541Y0104285D02*
X0487540Y0104285D01*
X0488040Y0104285D02*
X0488040Y0105786D01*
X0487540Y0105286D01*
X0487067Y0105536D02*
X0486817Y0105786D01*
X0486317Y0105786D01*
X0486067Y0105536D01*
X0486067Y0104535D01*
X0486317Y0104285D01*
X0486817Y0104285D01*
X0487067Y0104535D01*
X0407673Y0103580D02*
X0407673Y0103330D01*
X0407423Y0103079D01*
X0407673Y0102829D01*
X0407673Y0102579D01*
X0407423Y0102329D01*
X0406922Y0102329D01*
X0406672Y0102579D01*
X0406200Y0102329D02*
X0405199Y0102329D01*
X0404726Y0102329D02*
X0404226Y0102829D01*
X0404476Y0102829D02*
X0403726Y0102829D01*
X0403726Y0102329D02*
X0403726Y0103830D01*
X0404476Y0103830D01*
X0404726Y0103580D01*
X0404726Y0103079D01*
X0404476Y0102829D01*
X0405199Y0103330D02*
X0405699Y0103830D01*
X0405699Y0102329D01*
X0406672Y0103580D02*
X0406922Y0103830D01*
X0407423Y0103830D01*
X0407673Y0103580D01*
X0407423Y0103079D02*
X0407172Y0103079D01*
X0385211Y0109574D02*
X0384210Y0109574D01*
X0385211Y0110575D01*
X0385211Y0110825D01*
X0384961Y0111076D01*
X0384460Y0111076D01*
X0384210Y0110825D01*
X0383237Y0111076D02*
X0383237Y0109574D01*
X0382737Y0109574D02*
X0383737Y0109574D01*
X0382737Y0110575D02*
X0383237Y0111076D01*
X0382264Y0110825D02*
X0382264Y0110325D01*
X0382014Y0110075D01*
X0381263Y0110075D01*
X0381263Y0109574D02*
X0381263Y0111076D01*
X0382014Y0111076D01*
X0382264Y0110825D01*
X0381764Y0110075D02*
X0382264Y0109574D01*
X0286651Y0141203D02*
X0286401Y0140952D01*
X0285900Y0140952D01*
X0285650Y0141203D01*
X0285650Y0141453D01*
X0285900Y0141703D01*
X0286401Y0141703D01*
X0286651Y0141453D01*
X0286651Y0141203D01*
X0286401Y0141703D02*
X0286651Y0141953D01*
X0286651Y0142203D01*
X0286401Y0142454D01*
X0285900Y0142454D01*
X0285650Y0142203D01*
X0285650Y0141953D01*
X0285900Y0141703D01*
X0285178Y0141203D02*
X0284927Y0140952D01*
X0284427Y0140952D01*
X0284177Y0141203D01*
X0284177Y0142203D01*
X0284427Y0142454D01*
X0284927Y0142454D01*
X0285178Y0142203D01*
X0285018Y0156464D02*
X0285518Y0156464D01*
X0285768Y0156714D01*
X0286241Y0156714D02*
X0286241Y0156464D01*
X0286241Y0156714D02*
X0287241Y0157715D01*
X0287241Y0157965D01*
X0286241Y0157965D01*
X0285768Y0157715D02*
X0285518Y0157965D01*
X0285018Y0157965D01*
X0284767Y0157715D01*
X0284767Y0156714D01*
X0285018Y0156464D01*
X0309901Y0171707D02*
X0310151Y0171456D01*
X0310652Y0171456D01*
X0310902Y0171707D01*
X0310902Y0172958D01*
X0311374Y0172707D02*
X0311625Y0172958D01*
X0312125Y0172958D01*
X0312375Y0172707D01*
X0312375Y0172457D01*
X0312125Y0172207D01*
X0312375Y0171957D01*
X0312375Y0171707D01*
X0312125Y0171456D01*
X0311625Y0171456D01*
X0311374Y0171707D01*
X0311875Y0172207D02*
X0312125Y0172207D01*
X0309901Y0171707D02*
X0309901Y0172958D01*
X0317458Y0193850D02*
X0317208Y0194100D01*
X0317458Y0193850D02*
X0317959Y0193850D01*
X0318209Y0194100D01*
X0318209Y0194350D01*
X0317959Y0194601D01*
X0317458Y0194601D01*
X0317208Y0194851D01*
X0317208Y0195101D01*
X0317458Y0195351D01*
X0317959Y0195351D01*
X0318209Y0195101D01*
X0318682Y0194851D02*
X0319182Y0195351D01*
X0319182Y0193850D01*
X0318682Y0193850D02*
X0319682Y0193850D01*
X0277967Y0198986D02*
X0276966Y0198986D01*
X0277716Y0199737D01*
X0277716Y0198236D01*
X0276493Y0198236D02*
X0275493Y0198236D01*
X0275020Y0198236D02*
X0274520Y0198736D01*
X0274770Y0198736D02*
X0274019Y0198736D01*
X0274019Y0198236D02*
X0274019Y0199737D01*
X0274770Y0199737D01*
X0275020Y0199487D01*
X0275020Y0198986D01*
X0274770Y0198736D01*
X0275493Y0199237D02*
X0275993Y0199737D01*
X0275993Y0198236D01*
X0249616Y0188566D02*
X0249366Y0188816D01*
X0249116Y0188816D01*
X0248866Y0188566D01*
X0248866Y0187815D01*
X0249366Y0187815D01*
X0249616Y0188066D01*
X0249616Y0188566D01*
X0248866Y0187815D02*
X0248365Y0188316D01*
X0248115Y0188816D01*
X0248365Y0187343D02*
X0248115Y0187093D01*
X0248115Y0186592D01*
X0248365Y0186342D01*
X0249366Y0186342D01*
X0249616Y0186592D01*
X0249616Y0187093D01*
X0249366Y0187343D01*
X0179757Y0182589D02*
X0179507Y0182839D01*
X0179007Y0182839D01*
X0178756Y0182589D01*
X0178284Y0182589D02*
X0178034Y0182839D01*
X0177533Y0182839D01*
X0177283Y0182589D01*
X0177283Y0181588D01*
X0177533Y0181338D01*
X0178034Y0181338D01*
X0178284Y0181588D01*
X0178756Y0181338D02*
X0179757Y0182339D01*
X0179757Y0182589D01*
X0179757Y0181338D02*
X0178756Y0181338D01*
X0147059Y0180845D02*
X0146058Y0181846D01*
X0145808Y0181846D01*
X0145557Y0181596D01*
X0145557Y0181095D01*
X0145808Y0180845D01*
X0145808Y0180373D02*
X0146308Y0180373D01*
X0146558Y0180123D01*
X0146558Y0179372D01*
X0146558Y0179872D02*
X0147059Y0180373D01*
X0147059Y0180845D02*
X0147059Y0181846D01*
X0145808Y0180373D02*
X0145557Y0180123D01*
X0145557Y0179372D01*
X0147059Y0179372D01*
X0111781Y0178226D02*
X0111781Y0177225D01*
X0111781Y0176752D02*
X0111281Y0176252D01*
X0111281Y0176502D02*
X0111281Y0175752D01*
X0111781Y0175752D02*
X0110280Y0175752D01*
X0110280Y0176502D01*
X0110530Y0176752D01*
X0111031Y0176752D01*
X0111281Y0176502D01*
X0110781Y0177225D02*
X0110280Y0177725D01*
X0111781Y0177725D01*
X0150518Y0155508D02*
X0150518Y0154507D01*
X0151269Y0154507D01*
X0151018Y0155007D01*
X0151018Y0155257D01*
X0151269Y0155508D01*
X0151769Y0155508D01*
X0152019Y0155257D01*
X0152019Y0154757D01*
X0151769Y0154507D01*
X0151769Y0154034D02*
X0152019Y0153784D01*
X0152019Y0153284D01*
X0151769Y0153033D01*
X0150768Y0153033D01*
X0150518Y0153284D01*
X0150518Y0153784D01*
X0150768Y0154034D01*
X0177559Y0136684D02*
X0177809Y0136934D01*
X0178309Y0136934D01*
X0178560Y0136684D01*
X0179032Y0136434D02*
X0179532Y0136934D01*
X0179532Y0135433D01*
X0179032Y0135433D02*
X0180033Y0135433D01*
X0178560Y0135683D02*
X0178309Y0135433D01*
X0177809Y0135433D01*
X0177559Y0135683D01*
X0177559Y0136684D01*
X0158382Y0116336D02*
X0158632Y0116086D01*
X0158632Y0115585D01*
X0158382Y0115335D01*
X0158382Y0114863D02*
X0158632Y0114612D01*
X0158632Y0114112D01*
X0158382Y0113862D01*
X0157381Y0113862D01*
X0157131Y0114112D01*
X0157131Y0114612D01*
X0157381Y0114863D01*
X0157381Y0115335D02*
X0157131Y0115585D01*
X0157131Y0116086D01*
X0157381Y0116336D01*
X0157631Y0116336D01*
X0157881Y0116086D01*
X0158131Y0116336D01*
X0158382Y0116336D01*
X0157881Y0116086D02*
X0157881Y0115835D01*
X0145561Y0115535D02*
X0144060Y0115535D01*
X0144810Y0114784D01*
X0144810Y0115785D01*
X0144810Y0114311D02*
X0145061Y0114061D01*
X0145061Y0113311D01*
X0145561Y0113311D02*
X0144060Y0113311D01*
X0144060Y0114061D01*
X0144310Y0114311D01*
X0144810Y0114311D01*
X0145061Y0113811D02*
X0145561Y0114311D01*
X0125903Y0123644D02*
X0125653Y0123393D01*
X0125152Y0123393D01*
X0124902Y0123644D01*
X0124430Y0123393D02*
X0123929Y0123894D01*
X0124179Y0123894D02*
X0123429Y0123894D01*
X0123429Y0123393D02*
X0123429Y0124895D01*
X0124179Y0124895D01*
X0124430Y0124644D01*
X0124430Y0124144D01*
X0124179Y0123894D01*
X0124902Y0124644D02*
X0125152Y0124895D01*
X0125653Y0124895D01*
X0125903Y0124644D01*
X0125903Y0124394D01*
X0125653Y0124144D01*
X0125903Y0123894D01*
X0125903Y0123644D01*
X0125653Y0124144D02*
X0125402Y0124144D01*
X0112123Y0123790D02*
X0111122Y0123790D01*
X0111873Y0124540D01*
X0111873Y0123039D01*
X0110650Y0123289D02*
X0110400Y0123039D01*
X0109899Y0123039D01*
X0109649Y0123289D01*
X0109649Y0124290D01*
X0109899Y0124540D01*
X0110400Y0124540D01*
X0110650Y0124290D01*
X0126002Y0097769D02*
X0125752Y0097518D01*
X0125752Y0096518D01*
X0126002Y0096267D01*
X0126502Y0096267D01*
X0126752Y0096518D01*
X0127225Y0096518D02*
X0127475Y0096267D01*
X0127975Y0096267D01*
X0128226Y0096518D01*
X0128226Y0097518D01*
X0127975Y0097769D01*
X0127475Y0097769D01*
X0127225Y0097518D01*
X0127225Y0097268D01*
X0127475Y0097018D01*
X0128226Y0097018D01*
X0126752Y0097518D02*
X0126502Y0097769D01*
X0126002Y0097769D01*
X0156264Y0097565D02*
X0156515Y0097815D01*
X0157015Y0097815D01*
X0157265Y0097565D01*
X0157265Y0096815D01*
X0157265Y0097315D02*
X0157766Y0097815D01*
X0157516Y0098288D02*
X0157766Y0098538D01*
X0157766Y0099038D01*
X0157516Y0099289D01*
X0157015Y0099289D01*
X0156765Y0099038D01*
X0156765Y0098788D01*
X0157015Y0098288D01*
X0156264Y0098288D01*
X0156264Y0099289D01*
X0156264Y0097565D02*
X0156264Y0096815D01*
X0157766Y0096815D01*
X0181381Y0041469D02*
X0182132Y0041469D01*
X0182382Y0041219D01*
X0182382Y0040719D01*
X0182132Y0040469D01*
X0181381Y0040469D01*
X0181381Y0039968D02*
X0181381Y0041469D01*
X0181882Y0040469D02*
X0182382Y0039968D01*
X0182855Y0040218D02*
X0183105Y0039968D01*
X0183605Y0039968D01*
X0183856Y0040218D01*
X0183856Y0040469D01*
X0183605Y0040719D01*
X0182855Y0040719D01*
X0182855Y0040218D01*
X0182855Y0040719D02*
X0183355Y0041219D01*
X0183856Y0041469D01*
X0212759Y0040210D02*
X0212759Y0038708D01*
X0212759Y0039209D02*
X0213510Y0039209D01*
X0213760Y0039459D01*
X0213760Y0039959D01*
X0213510Y0040210D01*
X0212759Y0040210D01*
X0213260Y0039209D02*
X0213760Y0038708D01*
X0214233Y0038708D02*
X0215234Y0038708D01*
X0214733Y0038708D02*
X0214733Y0040210D01*
X0214233Y0039709D01*
X0215706Y0039959D02*
X0215956Y0040210D01*
X0216457Y0040210D01*
X0216707Y0039959D01*
X0215706Y0038958D01*
X0215956Y0038708D01*
X0216457Y0038708D01*
X0216707Y0038958D01*
X0216707Y0039959D01*
X0215706Y0039959D02*
X0215706Y0038958D01*
X0240870Y0039023D02*
X0240870Y0040525D01*
X0241620Y0040525D01*
X0241871Y0040274D01*
X0241871Y0039774D01*
X0241620Y0039524D01*
X0240870Y0039524D01*
X0241370Y0039524D02*
X0241871Y0039023D01*
X0242343Y0039023D02*
X0242343Y0039273D01*
X0243344Y0040274D01*
X0243344Y0040525D01*
X0242343Y0040525D01*
X0272248Y0040800D02*
X0272248Y0039299D01*
X0272248Y0039799D02*
X0272998Y0039799D01*
X0273248Y0040049D01*
X0273248Y0040550D01*
X0272998Y0040800D01*
X0272248Y0040800D01*
X0272748Y0039799D02*
X0273248Y0039299D01*
X0273721Y0039549D02*
X0273721Y0039799D01*
X0273971Y0040049D01*
X0274472Y0040049D01*
X0274722Y0039799D01*
X0274722Y0039549D01*
X0274472Y0039299D01*
X0273971Y0039299D01*
X0273721Y0039549D01*
X0273971Y0040049D02*
X0273721Y0040300D01*
X0273721Y0040550D01*
X0273971Y0040800D01*
X0274472Y0040800D01*
X0274722Y0040550D01*
X0274722Y0040300D01*
X0274472Y0040049D01*
X0301460Y0039811D02*
X0301460Y0041312D01*
X0302211Y0041312D01*
X0302461Y0041062D01*
X0302461Y0040561D01*
X0302211Y0040311D01*
X0301460Y0040311D01*
X0301961Y0040311D02*
X0302461Y0039811D01*
X0302933Y0040061D02*
X0303184Y0039811D01*
X0303684Y0039811D01*
X0303934Y0040061D01*
X0303934Y0041062D01*
X0303684Y0041312D01*
X0303184Y0041312D01*
X0302933Y0041062D01*
X0302933Y0040811D01*
X0303184Y0040561D01*
X0303934Y0040561D01*
X0330279Y0040401D02*
X0330279Y0041902D01*
X0331030Y0041902D01*
X0331280Y0041652D01*
X0331280Y0041152D01*
X0331030Y0040902D01*
X0330279Y0040902D01*
X0330780Y0040902D02*
X0331280Y0040401D01*
X0331752Y0040401D02*
X0332753Y0040401D01*
X0333226Y0040401D02*
X0334226Y0040401D01*
X0333726Y0040401D02*
X0333726Y0041902D01*
X0333226Y0041402D01*
X0332253Y0041902D02*
X0332253Y0040401D01*
X0331752Y0041402D02*
X0332253Y0041902D01*
X0360103Y0034932D02*
X0360854Y0034932D01*
X0361104Y0034682D01*
X0361104Y0034182D01*
X0360854Y0033932D01*
X0360103Y0033932D01*
X0360604Y0033932D02*
X0361104Y0033431D01*
X0361577Y0033431D02*
X0362578Y0033431D01*
X0363050Y0033431D02*
X0363050Y0033681D01*
X0364051Y0034682D01*
X0364051Y0034932D01*
X0363050Y0034932D01*
X0362077Y0034932D02*
X0362077Y0033431D01*
X0361577Y0034432D02*
X0362077Y0034932D01*
X0360103Y0034932D02*
X0360103Y0033431D01*
X0525422Y0029123D02*
X0525422Y0028335D01*
X0526800Y0028335D01*
X0526800Y0029123D01*
X0525422Y0029123D01*
X0525422Y0029042D02*
X0526800Y0029042D01*
X0526800Y0028943D02*
X0525422Y0028943D01*
X0525422Y0028845D02*
X0526800Y0028845D01*
X0526800Y0028746D02*
X0525422Y0028746D01*
X0525422Y0028648D02*
X0526800Y0028648D01*
X0526800Y0028549D02*
X0525422Y0028549D01*
X0525422Y0028451D02*
X0526800Y0028451D01*
X0526800Y0028352D02*
X0525422Y0028352D01*
X0536249Y0028352D02*
X0537627Y0028352D01*
X0537627Y0028335D02*
X0537627Y0029123D01*
X0536249Y0029123D01*
X0536249Y0028335D01*
X0537627Y0028335D01*
X0537627Y0028451D02*
X0536249Y0028451D01*
X0536249Y0028549D02*
X0537627Y0028549D01*
X0537627Y0028648D02*
X0536249Y0028648D01*
X0536249Y0028746D02*
X0537627Y0028746D01*
X0537627Y0028845D02*
X0536249Y0028845D01*
X0536249Y0028943D02*
X0537627Y0028943D01*
X0537627Y0029042D02*
X0536249Y0029042D01*
X0536249Y0041328D02*
X0536249Y0042115D01*
X0537627Y0042115D01*
X0537627Y0041328D01*
X0536249Y0041328D01*
X0536249Y0041356D02*
X0537627Y0041356D01*
X0537627Y0041454D02*
X0536249Y0041454D01*
X0536249Y0041553D02*
X0537627Y0041553D01*
X0537627Y0041651D02*
X0536249Y0041651D01*
X0536249Y0041750D02*
X0537627Y0041750D01*
X0537627Y0041848D02*
X0536249Y0041848D01*
X0536249Y0041947D02*
X0537627Y0041947D01*
X0537627Y0042045D02*
X0536249Y0042045D01*
X0528375Y0042045D02*
X0525422Y0042045D01*
X0525422Y0042115D02*
X0525422Y0041328D01*
X0528375Y0041328D01*
X0528375Y0042115D01*
X0525422Y0042115D01*
X0525422Y0041947D02*
X0528375Y0041947D01*
X0528375Y0041848D02*
X0525422Y0041848D01*
X0525422Y0041750D02*
X0528375Y0041750D01*
X0528375Y0041651D02*
X0525422Y0041651D01*
X0525422Y0041553D02*
X0528375Y0041553D01*
X0528375Y0041454D02*
X0525422Y0041454D01*
X0525422Y0041356D02*
X0528375Y0041356D01*
X0619531Y0135874D02*
X0619531Y0137375D01*
X0620282Y0137375D01*
X0620532Y0137125D01*
X0620532Y0136624D01*
X0620282Y0136374D01*
X0619531Y0136374D01*
X0620032Y0136374D02*
X0620532Y0135874D01*
X0621004Y0135874D02*
X0622005Y0135874D01*
X0621505Y0135874D02*
X0621505Y0137375D01*
X0621004Y0136874D01*
X0622478Y0136624D02*
X0622978Y0137125D01*
X0623478Y0137375D01*
X0623228Y0136624D02*
X0622478Y0136624D01*
X0622478Y0136124D01*
X0622728Y0135874D01*
X0623228Y0135874D01*
X0623478Y0136124D01*
X0623478Y0136374D01*
X0623228Y0136624D01*
X0367297Y0169850D02*
X0366297Y0169850D01*
X0365824Y0169850D02*
X0364823Y0169850D01*
X0365324Y0169850D02*
X0365324Y0171351D01*
X0364823Y0170851D01*
X0364351Y0171101D02*
X0364101Y0171351D01*
X0363600Y0171351D01*
X0363350Y0171101D01*
X0363350Y0170100D01*
X0363600Y0169850D01*
X0364101Y0169850D01*
X0364351Y0170100D01*
X0366297Y0170851D02*
X0366797Y0171351D01*
X0366797Y0169850D01*
X0019324Y0170350D02*
X0018323Y0170350D01*
X0019324Y0171351D01*
X0019324Y0171601D01*
X0019074Y0171851D01*
X0018573Y0171851D01*
X0018323Y0171601D01*
X0017851Y0171851D02*
X0017851Y0170600D01*
X0017601Y0170350D01*
X0017100Y0170350D01*
X0016850Y0170600D01*
X0016850Y0171851D01*
D15*
X0125905Y0186416D02*
X0128373Y0186416D01*
X0127139Y0187650D02*
X0127139Y0185181D01*
X0129169Y0171768D02*
X0129169Y0169299D01*
X0130403Y0170534D02*
X0127934Y0170534D01*
X0476062Y0151613D02*
X0478531Y0151613D01*
X0477297Y0152847D02*
X0477297Y0150378D01*
X0512816Y0129222D02*
X0512816Y0127370D01*
X0513433Y0126753D01*
X0515285Y0126753D01*
X0515285Y0129222D01*
X0516499Y0128605D02*
X0518968Y0128605D01*
X0520182Y0129222D02*
X0522034Y0129222D01*
X0522651Y0128605D01*
X0522651Y0127370D01*
X0522034Y0126753D01*
X0520182Y0126753D01*
X0520182Y0130456D01*
X0523866Y0130456D02*
X0524483Y0130456D01*
X0524483Y0126753D01*
X0523866Y0126753D02*
X0525100Y0126753D01*
X0526321Y0127370D02*
X0526938Y0126753D01*
X0528173Y0126753D01*
X0528790Y0127370D01*
X0528790Y0128605D01*
X0528173Y0129222D01*
X0526938Y0129222D01*
X0526321Y0128605D01*
X0526321Y0127370D01*
X0530004Y0126753D02*
X0532473Y0129222D01*
X0530004Y0129222D02*
X0532473Y0126753D01*
X0537370Y0126753D02*
X0537370Y0130456D01*
X0539839Y0126753D01*
X0539839Y0130456D01*
X0541054Y0130456D02*
X0541054Y0126753D01*
X0543522Y0126753D01*
X0544737Y0127370D02*
X0545354Y0126753D01*
X0546588Y0126753D01*
X0547205Y0127370D01*
X0547205Y0129839D01*
X0546588Y0130456D01*
X0545354Y0130456D01*
X0544737Y0129839D01*
X0544737Y0127370D01*
X0542288Y0128605D02*
X0541054Y0128605D01*
X0541054Y0130456D02*
X0543522Y0130456D01*
X0607934Y0131216D02*
X0610403Y0131216D01*
X0609169Y0129981D02*
X0609169Y0132450D01*
X0570029Y0048479D02*
X0568461Y0048479D01*
X0567677Y0047695D01*
X0567677Y0046911D01*
X0568461Y0046127D01*
X0570813Y0046127D01*
X0570813Y0044559D02*
X0570813Y0047695D01*
X0570029Y0048479D01*
X0570813Y0044559D02*
X0570029Y0043775D01*
X0568461Y0043775D01*
X0567677Y0044559D01*
X0566192Y0046911D02*
X0565408Y0046911D01*
X0563840Y0045343D01*
X0563840Y0043775D02*
X0563840Y0046911D01*
X0562373Y0046127D02*
X0561589Y0046911D01*
X0560021Y0046911D01*
X0559237Y0046127D01*
X0559237Y0044559D01*
X0560021Y0043775D01*
X0561589Y0043775D01*
X0562373Y0044559D01*
X0562373Y0046127D01*
X0557735Y0046911D02*
X0556167Y0046911D01*
X0556951Y0047695D02*
X0556951Y0044559D01*
X0557735Y0043775D01*
X0554699Y0043775D02*
X0552347Y0043775D01*
X0551563Y0044559D01*
X0552347Y0045343D01*
X0554699Y0045343D01*
X0554699Y0046127D02*
X0554699Y0043775D01*
X0554699Y0046127D02*
X0553915Y0046911D01*
X0552347Y0046911D01*
X0550095Y0046127D02*
X0549311Y0046911D01*
X0546959Y0046911D01*
X0546959Y0043775D01*
X0545491Y0043775D02*
X0543139Y0043775D01*
X0542355Y0044559D01*
X0542355Y0046127D01*
X0543139Y0046911D01*
X0545491Y0046911D01*
X0545491Y0042991D01*
X0544707Y0042207D01*
X0543923Y0042207D01*
X0540854Y0043775D02*
X0539286Y0043775D01*
X0540070Y0043775D02*
X0540070Y0046911D01*
X0539286Y0046911D01*
X0537818Y0046911D02*
X0535466Y0046911D01*
X0534682Y0046127D01*
X0535466Y0045343D01*
X0537034Y0045343D01*
X0537818Y0044559D01*
X0537034Y0043775D01*
X0534682Y0043775D01*
X0533214Y0045343D02*
X0530078Y0045343D01*
X0530078Y0044559D02*
X0530078Y0046127D01*
X0530862Y0046911D01*
X0532430Y0046911D01*
X0533214Y0046127D01*
X0533214Y0045343D01*
X0532430Y0043775D02*
X0530862Y0043775D01*
X0530078Y0044559D01*
X0528610Y0044559D02*
X0528610Y0047695D01*
X0527826Y0048479D01*
X0525474Y0048479D01*
X0525474Y0043775D01*
X0527826Y0043775D01*
X0528610Y0044559D01*
X0540070Y0048479D02*
X0540070Y0049263D01*
X0550095Y0046127D02*
X0550095Y0043775D01*
D16*
X0326721Y0176800D02*
X0314595Y0176800D01*
X0310658Y0181918D02*
X0310658Y0191800D01*
X0314595Y0196800D02*
X0326721Y0196800D01*
X0330658Y0191682D02*
X0330658Y0181918D01*
X0315658Y0186800D02*
X0315660Y0186941D01*
X0315666Y0187082D01*
X0315676Y0187222D01*
X0315690Y0187362D01*
X0315708Y0187502D01*
X0315729Y0187641D01*
X0315755Y0187780D01*
X0315784Y0187918D01*
X0315818Y0188054D01*
X0315855Y0188190D01*
X0315896Y0188325D01*
X0315941Y0188459D01*
X0315990Y0188591D01*
X0316042Y0188722D01*
X0316098Y0188851D01*
X0316158Y0188978D01*
X0316221Y0189104D01*
X0316287Y0189228D01*
X0316358Y0189351D01*
X0316431Y0189471D01*
X0316508Y0189589D01*
X0316588Y0189705D01*
X0316672Y0189818D01*
X0316758Y0189929D01*
X0316848Y0190038D01*
X0316941Y0190144D01*
X0317036Y0190247D01*
X0317135Y0190348D01*
X0317236Y0190446D01*
X0317340Y0190541D01*
X0317447Y0190633D01*
X0317556Y0190722D01*
X0317668Y0190807D01*
X0317782Y0190890D01*
X0317898Y0190970D01*
X0318017Y0191046D01*
X0318138Y0191118D01*
X0318260Y0191188D01*
X0318385Y0191253D01*
X0318511Y0191316D01*
X0318639Y0191374D01*
X0318769Y0191429D01*
X0318900Y0191481D01*
X0319033Y0191528D01*
X0319167Y0191572D01*
X0319302Y0191613D01*
X0319438Y0191649D01*
X0319575Y0191681D01*
X0319713Y0191710D01*
X0319851Y0191735D01*
X0319991Y0191755D01*
X0320131Y0191772D01*
X0320271Y0191785D01*
X0320412Y0191794D01*
X0320552Y0191799D01*
X0320693Y0191800D01*
X0320834Y0191797D01*
X0320975Y0191790D01*
X0321115Y0191779D01*
X0321255Y0191764D01*
X0321395Y0191745D01*
X0321534Y0191723D01*
X0321672Y0191696D01*
X0321810Y0191666D01*
X0321946Y0191631D01*
X0322082Y0191593D01*
X0322216Y0191551D01*
X0322350Y0191505D01*
X0322482Y0191456D01*
X0322612Y0191402D01*
X0322741Y0191345D01*
X0322868Y0191285D01*
X0322994Y0191221D01*
X0323117Y0191153D01*
X0323239Y0191082D01*
X0323359Y0191008D01*
X0323476Y0190930D01*
X0323591Y0190849D01*
X0323704Y0190765D01*
X0323815Y0190678D01*
X0323923Y0190587D01*
X0324028Y0190494D01*
X0324131Y0190397D01*
X0324231Y0190298D01*
X0324328Y0190196D01*
X0324422Y0190091D01*
X0324513Y0189984D01*
X0324601Y0189874D01*
X0324686Y0189762D01*
X0324768Y0189647D01*
X0324847Y0189530D01*
X0324922Y0189411D01*
X0324994Y0189290D01*
X0325062Y0189167D01*
X0325127Y0189042D01*
X0325189Y0188915D01*
X0325246Y0188786D01*
X0325301Y0188656D01*
X0325351Y0188525D01*
X0325398Y0188392D01*
X0325441Y0188258D01*
X0325480Y0188122D01*
X0325515Y0187986D01*
X0325547Y0187849D01*
X0325574Y0187711D01*
X0325598Y0187572D01*
X0325618Y0187432D01*
X0325634Y0187292D01*
X0325646Y0187152D01*
X0325654Y0187011D01*
X0325658Y0186870D01*
X0325658Y0186730D01*
X0325654Y0186589D01*
X0325646Y0186448D01*
X0325634Y0186308D01*
X0325618Y0186168D01*
X0325598Y0186028D01*
X0325574Y0185889D01*
X0325547Y0185751D01*
X0325515Y0185614D01*
X0325480Y0185478D01*
X0325441Y0185342D01*
X0325398Y0185208D01*
X0325351Y0185075D01*
X0325301Y0184944D01*
X0325246Y0184814D01*
X0325189Y0184685D01*
X0325127Y0184558D01*
X0325062Y0184433D01*
X0324994Y0184310D01*
X0324922Y0184189D01*
X0324847Y0184070D01*
X0324768Y0183953D01*
X0324686Y0183838D01*
X0324601Y0183726D01*
X0324513Y0183616D01*
X0324422Y0183509D01*
X0324328Y0183404D01*
X0324231Y0183302D01*
X0324131Y0183203D01*
X0324028Y0183106D01*
X0323923Y0183013D01*
X0323815Y0182922D01*
X0323704Y0182835D01*
X0323591Y0182751D01*
X0323476Y0182670D01*
X0323359Y0182592D01*
X0323239Y0182518D01*
X0323117Y0182447D01*
X0322994Y0182379D01*
X0322868Y0182315D01*
X0322741Y0182255D01*
X0322612Y0182198D01*
X0322482Y0182144D01*
X0322350Y0182095D01*
X0322216Y0182049D01*
X0322082Y0182007D01*
X0321946Y0181969D01*
X0321810Y0181934D01*
X0321672Y0181904D01*
X0321534Y0181877D01*
X0321395Y0181855D01*
X0321255Y0181836D01*
X0321115Y0181821D01*
X0320975Y0181810D01*
X0320834Y0181803D01*
X0320693Y0181800D01*
X0320552Y0181801D01*
X0320412Y0181806D01*
X0320271Y0181815D01*
X0320131Y0181828D01*
X0319991Y0181845D01*
X0319851Y0181865D01*
X0319713Y0181890D01*
X0319575Y0181919D01*
X0319438Y0181951D01*
X0319302Y0181987D01*
X0319167Y0182028D01*
X0319033Y0182072D01*
X0318900Y0182119D01*
X0318769Y0182171D01*
X0318639Y0182226D01*
X0318511Y0182284D01*
X0318385Y0182347D01*
X0318260Y0182412D01*
X0318138Y0182482D01*
X0318017Y0182554D01*
X0317898Y0182630D01*
X0317782Y0182710D01*
X0317668Y0182793D01*
X0317556Y0182878D01*
X0317447Y0182967D01*
X0317340Y0183059D01*
X0317236Y0183154D01*
X0317135Y0183252D01*
X0317036Y0183353D01*
X0316941Y0183456D01*
X0316848Y0183562D01*
X0316758Y0183671D01*
X0316672Y0183782D01*
X0316588Y0183895D01*
X0316508Y0184011D01*
X0316431Y0184129D01*
X0316358Y0184249D01*
X0316287Y0184372D01*
X0316221Y0184496D01*
X0316158Y0184622D01*
X0316098Y0184749D01*
X0316042Y0184878D01*
X0315990Y0185009D01*
X0315941Y0185141D01*
X0315896Y0185275D01*
X0315855Y0185410D01*
X0315818Y0185546D01*
X0315784Y0185682D01*
X0315755Y0185820D01*
X0315729Y0185959D01*
X0315708Y0186098D01*
X0315690Y0186238D01*
X0315676Y0186378D01*
X0315666Y0186518D01*
X0315660Y0186659D01*
X0315658Y0186800D01*
X0381839Y0186796D02*
X0461839Y0186796D01*
X0461839Y0209796D01*
X0381839Y0209796D01*
X0381839Y0202296D01*
X0381965Y0202294D01*
X0382090Y0202288D01*
X0382215Y0202278D01*
X0382340Y0202264D01*
X0382465Y0202247D01*
X0382589Y0202225D01*
X0382712Y0202200D01*
X0382834Y0202170D01*
X0382955Y0202137D01*
X0383075Y0202100D01*
X0383194Y0202060D01*
X0383311Y0202015D01*
X0383428Y0201967D01*
X0383542Y0201915D01*
X0383655Y0201860D01*
X0383766Y0201801D01*
X0383875Y0201739D01*
X0383982Y0201673D01*
X0384087Y0201604D01*
X0384190Y0201532D01*
X0384291Y0201457D01*
X0384389Y0201378D01*
X0384484Y0201296D01*
X0384577Y0201212D01*
X0384667Y0201124D01*
X0384755Y0201034D01*
X0384839Y0200941D01*
X0384921Y0200846D01*
X0385000Y0200748D01*
X0385075Y0200647D01*
X0385147Y0200544D01*
X0385216Y0200439D01*
X0385282Y0200332D01*
X0385344Y0200223D01*
X0385403Y0200112D01*
X0385458Y0199999D01*
X0385510Y0199885D01*
X0385558Y0199768D01*
X0385603Y0199651D01*
X0385643Y0199532D01*
X0385680Y0199412D01*
X0385713Y0199291D01*
X0385743Y0199169D01*
X0385768Y0199046D01*
X0385790Y0198922D01*
X0385807Y0198797D01*
X0385821Y0198672D01*
X0385831Y0198547D01*
X0385837Y0198422D01*
X0385839Y0198296D01*
X0385837Y0198170D01*
X0385831Y0198045D01*
X0385821Y0197920D01*
X0385807Y0197795D01*
X0385790Y0197670D01*
X0385768Y0197546D01*
X0385743Y0197423D01*
X0385713Y0197301D01*
X0385680Y0197180D01*
X0385643Y0197060D01*
X0385603Y0196941D01*
X0385558Y0196824D01*
X0385510Y0196707D01*
X0385458Y0196593D01*
X0385403Y0196480D01*
X0385344Y0196369D01*
X0385282Y0196260D01*
X0385216Y0196153D01*
X0385147Y0196048D01*
X0385075Y0195945D01*
X0385000Y0195844D01*
X0384921Y0195746D01*
X0384839Y0195651D01*
X0384755Y0195558D01*
X0384667Y0195468D01*
X0384577Y0195380D01*
X0384484Y0195296D01*
X0384389Y0195214D01*
X0384291Y0195135D01*
X0384190Y0195060D01*
X0384087Y0194988D01*
X0383982Y0194919D01*
X0383875Y0194853D01*
X0383766Y0194791D01*
X0383655Y0194732D01*
X0383542Y0194677D01*
X0383428Y0194625D01*
X0383311Y0194577D01*
X0383194Y0194532D01*
X0383075Y0194492D01*
X0382955Y0194455D01*
X0382834Y0194422D01*
X0382712Y0194392D01*
X0382589Y0194367D01*
X0382465Y0194345D01*
X0382340Y0194328D01*
X0382215Y0194314D01*
X0382090Y0194304D01*
X0381965Y0194298D01*
X0381839Y0194296D01*
X0381839Y0186796D01*
X0494333Y0191757D02*
X0494333Y0204757D01*
X0520133Y0204757D01*
X0520133Y0191757D01*
X0494333Y0191757D01*
X0202824Y0175383D02*
X0202824Y0170206D01*
X0202824Y0175383D02*
X0196524Y0180501D01*
X0176839Y0180501D01*
X0176839Y0170206D01*
X0176839Y0164812D02*
X0176839Y0154517D01*
X0196524Y0154517D01*
X0202824Y0159635D01*
X0202824Y0164812D01*
X0202036Y0164812D02*
X0201965Y0164516D01*
X0201888Y0164222D01*
X0201804Y0163929D01*
X0201712Y0163639D01*
X0201614Y0163351D01*
X0201508Y0163066D01*
X0201396Y0162783D01*
X0201276Y0162503D01*
X0201150Y0162226D01*
X0201017Y0161952D01*
X0200878Y0161682D01*
X0200732Y0161415D01*
X0200580Y0161151D01*
X0200421Y0160892D01*
X0200256Y0160636D01*
X0200085Y0160384D01*
X0199907Y0160137D01*
X0199724Y0159894D01*
X0199535Y0159656D01*
X0199340Y0159422D01*
X0199140Y0159193D01*
X0198934Y0158969D01*
X0198722Y0158750D01*
X0198506Y0158536D01*
X0198284Y0158328D01*
X0198057Y0158125D01*
X0197826Y0157928D01*
X0197589Y0157736D01*
X0197348Y0157550D01*
X0197103Y0157370D01*
X0196853Y0157196D01*
X0196599Y0157029D01*
X0196341Y0156867D01*
X0196080Y0156712D01*
X0195814Y0156563D01*
X0195545Y0156421D01*
X0195273Y0156285D01*
X0194997Y0156156D01*
X0194719Y0156034D01*
X0194437Y0155918D01*
X0194153Y0155809D01*
X0193866Y0155708D01*
X0193577Y0155613D01*
X0193285Y0155525D01*
X0192992Y0155445D01*
X0192696Y0155372D01*
X0192399Y0155306D01*
X0192101Y0155247D01*
X0191801Y0155195D01*
X0191500Y0155151D01*
X0191198Y0155114D01*
X0190895Y0155084D01*
X0190591Y0155062D01*
X0190287Y0155047D01*
X0189983Y0155040D01*
X0189679Y0155040D01*
X0189375Y0155047D01*
X0189071Y0155062D01*
X0188767Y0155084D01*
X0188464Y0155114D01*
X0188162Y0155151D01*
X0187861Y0155195D01*
X0187561Y0155247D01*
X0187263Y0155306D01*
X0186966Y0155372D01*
X0186670Y0155445D01*
X0186377Y0155525D01*
X0186085Y0155613D01*
X0185796Y0155708D01*
X0185509Y0155809D01*
X0185225Y0155918D01*
X0184943Y0156034D01*
X0184665Y0156156D01*
X0184389Y0156285D01*
X0184117Y0156421D01*
X0183848Y0156563D01*
X0183582Y0156712D01*
X0183321Y0156867D01*
X0183063Y0157029D01*
X0182809Y0157196D01*
X0182559Y0157370D01*
X0182314Y0157550D01*
X0182073Y0157736D01*
X0181836Y0157928D01*
X0181605Y0158125D01*
X0181378Y0158328D01*
X0181156Y0158536D01*
X0180940Y0158750D01*
X0180728Y0158969D01*
X0180522Y0159193D01*
X0180322Y0159422D01*
X0180127Y0159656D01*
X0179938Y0159894D01*
X0179755Y0160137D01*
X0179577Y0160384D01*
X0179406Y0160636D01*
X0179241Y0160892D01*
X0179082Y0161151D01*
X0178930Y0161415D01*
X0178784Y0161682D01*
X0178645Y0161952D01*
X0178512Y0162226D01*
X0178386Y0162503D01*
X0178266Y0162783D01*
X0178154Y0163066D01*
X0178048Y0163351D01*
X0177950Y0163639D01*
X0177858Y0163929D01*
X0177774Y0164222D01*
X0177697Y0164516D01*
X0177626Y0164812D01*
X0177626Y0170206D02*
X0177692Y0170502D01*
X0177765Y0170798D01*
X0177844Y0171091D01*
X0177931Y0171382D01*
X0178026Y0171671D01*
X0178127Y0171958D01*
X0178235Y0172242D01*
X0178350Y0172524D01*
X0178472Y0172802D01*
X0178600Y0173078D01*
X0178736Y0173350D01*
X0178878Y0173619D01*
X0179026Y0173884D01*
X0179181Y0174146D01*
X0179342Y0174403D01*
X0179509Y0174657D01*
X0179683Y0174907D01*
X0179862Y0175152D01*
X0180048Y0175393D01*
X0180239Y0175629D01*
X0180436Y0175861D01*
X0180639Y0176087D01*
X0180847Y0176309D01*
X0181060Y0176526D01*
X0181279Y0176737D01*
X0181503Y0176943D01*
X0181731Y0177143D01*
X0181965Y0177338D01*
X0182203Y0177527D01*
X0182446Y0177710D01*
X0182693Y0177887D01*
X0182944Y0178058D01*
X0183200Y0178223D01*
X0183459Y0178381D01*
X0183722Y0178534D01*
X0183989Y0178679D01*
X0184259Y0178818D01*
X0184533Y0178951D01*
X0184809Y0179077D01*
X0185089Y0179196D01*
X0185372Y0179308D01*
X0185657Y0179413D01*
X0185945Y0179512D01*
X0186235Y0179603D01*
X0186527Y0179687D01*
X0186821Y0179764D01*
X0187117Y0179834D01*
X0187414Y0179896D01*
X0187713Y0179952D01*
X0188013Y0180000D01*
X0188315Y0180040D01*
X0188617Y0180074D01*
X0188920Y0180100D01*
X0189223Y0180118D01*
X0189527Y0180129D01*
X0189831Y0180133D01*
X0190135Y0180129D01*
X0190439Y0180118D01*
X0190742Y0180100D01*
X0191045Y0180074D01*
X0191347Y0180040D01*
X0191649Y0180000D01*
X0191949Y0179952D01*
X0192248Y0179896D01*
X0192545Y0179834D01*
X0192841Y0179764D01*
X0193135Y0179687D01*
X0193427Y0179603D01*
X0193717Y0179512D01*
X0194005Y0179413D01*
X0194290Y0179308D01*
X0194573Y0179196D01*
X0194853Y0179077D01*
X0195129Y0178951D01*
X0195403Y0178818D01*
X0195673Y0178679D01*
X0195940Y0178534D01*
X0196203Y0178381D01*
X0196462Y0178223D01*
X0196718Y0178058D01*
X0196969Y0177887D01*
X0197216Y0177710D01*
X0197459Y0177527D01*
X0197697Y0177338D01*
X0197931Y0177143D01*
X0198159Y0176943D01*
X0198383Y0176737D01*
X0198602Y0176526D01*
X0198815Y0176309D01*
X0199023Y0176087D01*
X0199226Y0175861D01*
X0199423Y0175629D01*
X0199614Y0175393D01*
X0199800Y0175152D01*
X0199979Y0174907D01*
X0200153Y0174657D01*
X0200320Y0174403D01*
X0200481Y0174146D01*
X0200636Y0173884D01*
X0200784Y0173619D01*
X0200926Y0173350D01*
X0201062Y0173078D01*
X0201190Y0172802D01*
X0201312Y0172524D01*
X0201427Y0172242D01*
X0201535Y0171958D01*
X0201636Y0171671D01*
X0201731Y0171382D01*
X0201818Y0171091D01*
X0201897Y0170798D01*
X0201970Y0170502D01*
X0202036Y0170206D01*
X0165068Y0178335D02*
X0165068Y0161406D01*
X0154044Y0161406D01*
X0154044Y0178335D01*
X0165068Y0178335D01*
X0177115Y0134595D02*
X0177115Y0124300D01*
X0177115Y0118906D02*
X0177115Y0108611D01*
X0196800Y0108611D01*
X0203099Y0113729D01*
X0203099Y0118906D01*
X0203099Y0124300D02*
X0203099Y0129477D01*
X0196800Y0134595D01*
X0177115Y0134595D01*
X0177902Y0124300D02*
X0177968Y0124596D01*
X0178041Y0124892D01*
X0178120Y0125185D01*
X0178207Y0125476D01*
X0178302Y0125765D01*
X0178403Y0126052D01*
X0178511Y0126336D01*
X0178626Y0126618D01*
X0178748Y0126896D01*
X0178876Y0127172D01*
X0179012Y0127444D01*
X0179154Y0127713D01*
X0179302Y0127978D01*
X0179457Y0128240D01*
X0179618Y0128497D01*
X0179785Y0128751D01*
X0179959Y0129001D01*
X0180138Y0129246D01*
X0180324Y0129487D01*
X0180515Y0129723D01*
X0180712Y0129955D01*
X0180915Y0130181D01*
X0181123Y0130403D01*
X0181336Y0130620D01*
X0181555Y0130831D01*
X0181779Y0131037D01*
X0182007Y0131237D01*
X0182241Y0131432D01*
X0182479Y0131621D01*
X0182722Y0131804D01*
X0182969Y0131981D01*
X0183220Y0132152D01*
X0183476Y0132317D01*
X0183735Y0132475D01*
X0183998Y0132628D01*
X0184265Y0132773D01*
X0184535Y0132912D01*
X0184809Y0133045D01*
X0185085Y0133171D01*
X0185365Y0133290D01*
X0185648Y0133402D01*
X0185933Y0133507D01*
X0186221Y0133606D01*
X0186511Y0133697D01*
X0186803Y0133781D01*
X0187097Y0133858D01*
X0187393Y0133928D01*
X0187690Y0133990D01*
X0187989Y0134046D01*
X0188289Y0134094D01*
X0188591Y0134134D01*
X0188893Y0134168D01*
X0189196Y0134194D01*
X0189499Y0134212D01*
X0189803Y0134223D01*
X0190107Y0134227D01*
X0190411Y0134223D01*
X0190715Y0134212D01*
X0191018Y0134194D01*
X0191321Y0134168D01*
X0191623Y0134134D01*
X0191925Y0134094D01*
X0192225Y0134046D01*
X0192524Y0133990D01*
X0192821Y0133928D01*
X0193117Y0133858D01*
X0193411Y0133781D01*
X0193703Y0133697D01*
X0193993Y0133606D01*
X0194281Y0133507D01*
X0194566Y0133402D01*
X0194849Y0133290D01*
X0195129Y0133171D01*
X0195405Y0133045D01*
X0195679Y0132912D01*
X0195949Y0132773D01*
X0196216Y0132628D01*
X0196479Y0132475D01*
X0196738Y0132317D01*
X0196994Y0132152D01*
X0197245Y0131981D01*
X0197492Y0131804D01*
X0197735Y0131621D01*
X0197973Y0131432D01*
X0198207Y0131237D01*
X0198435Y0131037D01*
X0198659Y0130831D01*
X0198878Y0130620D01*
X0199091Y0130403D01*
X0199299Y0130181D01*
X0199502Y0129955D01*
X0199699Y0129723D01*
X0199890Y0129487D01*
X0200076Y0129246D01*
X0200255Y0129001D01*
X0200429Y0128751D01*
X0200596Y0128497D01*
X0200757Y0128240D01*
X0200912Y0127978D01*
X0201060Y0127713D01*
X0201202Y0127444D01*
X0201338Y0127172D01*
X0201466Y0126896D01*
X0201588Y0126618D01*
X0201703Y0126336D01*
X0201811Y0126052D01*
X0201912Y0125765D01*
X0202007Y0125476D01*
X0202094Y0125185D01*
X0202173Y0124892D01*
X0202246Y0124596D01*
X0202312Y0124300D01*
X0202312Y0118906D02*
X0202241Y0118610D01*
X0202164Y0118316D01*
X0202080Y0118023D01*
X0201988Y0117733D01*
X0201890Y0117445D01*
X0201784Y0117160D01*
X0201672Y0116877D01*
X0201552Y0116597D01*
X0201426Y0116320D01*
X0201293Y0116046D01*
X0201154Y0115776D01*
X0201008Y0115509D01*
X0200856Y0115245D01*
X0200697Y0114986D01*
X0200532Y0114730D01*
X0200361Y0114478D01*
X0200183Y0114231D01*
X0200000Y0113988D01*
X0199811Y0113750D01*
X0199616Y0113516D01*
X0199416Y0113287D01*
X0199210Y0113063D01*
X0198998Y0112844D01*
X0198782Y0112630D01*
X0198560Y0112422D01*
X0198333Y0112219D01*
X0198102Y0112022D01*
X0197865Y0111830D01*
X0197624Y0111644D01*
X0197379Y0111464D01*
X0197129Y0111290D01*
X0196875Y0111123D01*
X0196617Y0110961D01*
X0196356Y0110806D01*
X0196090Y0110657D01*
X0195821Y0110515D01*
X0195549Y0110379D01*
X0195273Y0110250D01*
X0194995Y0110128D01*
X0194713Y0110012D01*
X0194429Y0109903D01*
X0194142Y0109802D01*
X0193853Y0109707D01*
X0193561Y0109619D01*
X0193268Y0109539D01*
X0192972Y0109466D01*
X0192675Y0109400D01*
X0192377Y0109341D01*
X0192077Y0109289D01*
X0191776Y0109245D01*
X0191474Y0109208D01*
X0191171Y0109178D01*
X0190867Y0109156D01*
X0190563Y0109141D01*
X0190259Y0109134D01*
X0189955Y0109134D01*
X0189651Y0109141D01*
X0189347Y0109156D01*
X0189043Y0109178D01*
X0188740Y0109208D01*
X0188438Y0109245D01*
X0188137Y0109289D01*
X0187837Y0109341D01*
X0187539Y0109400D01*
X0187242Y0109466D01*
X0186946Y0109539D01*
X0186653Y0109619D01*
X0186361Y0109707D01*
X0186072Y0109802D01*
X0185785Y0109903D01*
X0185501Y0110012D01*
X0185219Y0110128D01*
X0184941Y0110250D01*
X0184665Y0110379D01*
X0184393Y0110515D01*
X0184124Y0110657D01*
X0183858Y0110806D01*
X0183597Y0110961D01*
X0183339Y0111123D01*
X0183085Y0111290D01*
X0182835Y0111464D01*
X0182590Y0111644D01*
X0182349Y0111830D01*
X0182112Y0112022D01*
X0181881Y0112219D01*
X0181654Y0112422D01*
X0181432Y0112630D01*
X0181216Y0112844D01*
X0181004Y0113063D01*
X0180798Y0113287D01*
X0180598Y0113516D01*
X0180403Y0113750D01*
X0180214Y0113988D01*
X0180031Y0114231D01*
X0179853Y0114478D01*
X0179682Y0114730D01*
X0179517Y0114986D01*
X0179358Y0115245D01*
X0179206Y0115509D01*
X0179060Y0115776D01*
X0178921Y0116046D01*
X0178788Y0116320D01*
X0178662Y0116597D01*
X0178542Y0116877D01*
X0178430Y0117160D01*
X0178324Y0117445D01*
X0178226Y0117733D01*
X0178134Y0118023D01*
X0178050Y0118316D01*
X0177973Y0118610D01*
X0177902Y0118906D01*
D17*
X0214202Y0118099D02*
X0214202Y0129123D01*
X0214398Y0129123D02*
X0229202Y0129123D01*
X0229359Y0129123D01*
X0229359Y0118296D01*
X0232312Y0118099D02*
X0214202Y0118099D01*
X0232312Y0118099D02*
X0232312Y0129123D01*
X0229359Y0129123D01*
X0252115Y0142942D02*
X0252115Y0171288D01*
X0265894Y0171288D01*
X0265894Y0142942D01*
X0252115Y0142942D01*
X0232154Y0150540D02*
X0232154Y0163040D01*
X0226879Y0163040D01*
X0217824Y0163040D02*
X0212312Y0163040D01*
X0212154Y0163040D02*
X0212154Y0150540D01*
X0212312Y0150540D02*
X0213887Y0150540D01*
X0218217Y0150540D02*
X0219792Y0150540D01*
X0224517Y0150540D02*
X0226091Y0150540D01*
X0230422Y0150540D02*
X0231997Y0150540D01*
X0234792Y0174477D02*
X0214320Y0174477D01*
X0214320Y0197312D01*
X0234792Y0197312D01*
X0234792Y0174477D01*
X0281833Y0129138D02*
X0282584Y0129888D01*
X0284085Y0129888D01*
X0284836Y0129138D01*
X0284836Y0126135D01*
X0284085Y0125385D01*
X0282584Y0125385D01*
X0281833Y0126135D01*
X0281833Y0129138D01*
X0283335Y0126886D02*
X0284836Y0125385D01*
X0286437Y0125385D02*
X0289440Y0125385D01*
X0287939Y0125385D02*
X0287939Y0129888D01*
X0286437Y0128387D01*
X0369648Y0138710D02*
X0370399Y0137959D01*
X0371900Y0137959D01*
X0372651Y0138710D01*
X0372651Y0139461D01*
X0371900Y0140211D01*
X0370399Y0140211D01*
X0369648Y0140962D01*
X0369648Y0141713D01*
X0370399Y0142463D01*
X0371900Y0142463D01*
X0372651Y0141713D01*
X0374252Y0142463D02*
X0374252Y0139461D01*
X0375754Y0137959D01*
X0377255Y0139461D01*
X0377255Y0142463D01*
X0378856Y0140962D02*
X0380358Y0142463D01*
X0380358Y0137959D01*
X0381859Y0137959D02*
X0378856Y0137959D01*
X0373650Y0124463D02*
X0373650Y0119959D01*
X0375151Y0119959D02*
X0372148Y0119959D01*
X0372148Y0122962D02*
X0373650Y0124463D01*
X0412148Y0138710D02*
X0412899Y0137959D01*
X0414400Y0137959D01*
X0415151Y0138710D01*
X0415151Y0140211D01*
X0414400Y0140962D01*
X0413650Y0140962D01*
X0412148Y0140211D01*
X0412148Y0142463D01*
X0415151Y0142463D01*
X0394871Y0156805D02*
X0394120Y0156054D01*
X0392619Y0156054D01*
X0391868Y0156805D01*
X0391868Y0158306D02*
X0393369Y0159056D01*
X0394120Y0159056D01*
X0394871Y0158306D01*
X0394871Y0156805D01*
X0391868Y0158306D02*
X0391868Y0160558D01*
X0394871Y0160558D01*
X0388765Y0160558D02*
X0387264Y0159056D01*
X0385663Y0158306D02*
X0384912Y0157555D01*
X0382660Y0157555D01*
X0382660Y0156054D02*
X0382660Y0160558D01*
X0384912Y0160558D01*
X0385663Y0159807D01*
X0385663Y0158306D01*
X0384162Y0157555D02*
X0385663Y0156054D01*
X0387264Y0156054D02*
X0390267Y0156054D01*
X0388765Y0156054D02*
X0388765Y0160558D01*
X0407840Y0201046D02*
X0409341Y0201046D01*
X0410092Y0201797D01*
X0410092Y0205550D01*
X0411693Y0204799D02*
X0412444Y0205550D01*
X0413945Y0205550D01*
X0414696Y0204799D01*
X0416297Y0204799D02*
X0417048Y0205550D01*
X0418549Y0205550D01*
X0419300Y0204799D01*
X0419300Y0204049D01*
X0418549Y0203298D01*
X0419300Y0202547D01*
X0419300Y0201797D01*
X0418549Y0201046D01*
X0417048Y0201046D01*
X0416297Y0201797D01*
X0414696Y0201797D02*
X0414696Y0202547D01*
X0413945Y0203298D01*
X0412444Y0203298D01*
X0411693Y0204049D01*
X0411693Y0204799D01*
X0413195Y0206301D02*
X0413195Y0200295D01*
X0413945Y0201046D02*
X0414696Y0201797D01*
X0413945Y0201046D02*
X0412444Y0201046D01*
X0411693Y0201797D01*
X0407840Y0201046D02*
X0407089Y0201797D01*
X0407089Y0205550D01*
X0417798Y0203298D02*
X0418549Y0203298D01*
X0508965Y0163611D02*
X0508965Y0100619D01*
X0546997Y0100619D01*
X0546997Y0163611D01*
X0508965Y0163611D01*
X0542824Y0184595D02*
X0542824Y0212942D01*
X0556603Y0212942D01*
X0556603Y0184595D01*
X0542824Y0184595D01*
X0494229Y0113828D02*
X0483229Y0113828D01*
X0483229Y0108828D01*
X0494229Y0108828D01*
X0494229Y0113828D01*
X0494083Y0084320D02*
X0494083Y0079202D01*
X0494083Y0073690D02*
X0494083Y0068572D01*
X0504320Y0068572D01*
X0505107Y0068572D01*
X0505107Y0073690D01*
X0504320Y0073690D01*
X0504320Y0068572D01*
X0504713Y0068572D02*
X0504713Y0073690D01*
X0504713Y0079202D02*
X0504713Y0084320D01*
X0504320Y0084320D02*
X0505107Y0084320D01*
X0505107Y0079202D01*
X0504320Y0079202D01*
X0504320Y0084320D01*
X0494083Y0084320D01*
X0351117Y0068561D02*
X0350366Y0068561D01*
X0347364Y0071564D01*
X0346613Y0071564D01*
X0346613Y0068561D01*
X0346613Y0066960D02*
X0349616Y0063957D01*
X0348865Y0064708D02*
X0351117Y0066960D01*
X0351117Y0063957D02*
X0346613Y0063957D01*
X0347364Y0062356D02*
X0346613Y0061605D01*
X0346613Y0060104D01*
X0347364Y0059353D01*
X0350366Y0059353D01*
X0351117Y0060104D01*
X0351117Y0061605D01*
X0350366Y0062356D01*
X0347364Y0062356D01*
X0323676Y0061915D02*
X0323676Y0063416D01*
X0322925Y0064167D01*
X0319923Y0064167D01*
X0319172Y0063416D01*
X0319172Y0061915D01*
X0319923Y0061164D01*
X0322925Y0061164D01*
X0323676Y0061915D01*
X0323676Y0065768D02*
X0319172Y0065768D01*
X0321424Y0066519D02*
X0323676Y0068771D01*
X0322925Y0070372D02*
X0323676Y0071123D01*
X0323676Y0072624D01*
X0322925Y0073375D01*
X0322175Y0073375D01*
X0321424Y0072624D01*
X0321424Y0070372D01*
X0322925Y0070372D01*
X0321424Y0070372D02*
X0319923Y0071873D01*
X0319172Y0073375D01*
X0319172Y0068771D02*
X0322175Y0065768D01*
X0295251Y0064715D02*
X0295251Y0063214D01*
X0294500Y0062463D01*
X0291498Y0062463D01*
X0290747Y0063214D01*
X0290747Y0064715D01*
X0291498Y0065466D01*
X0294500Y0065466D01*
X0295251Y0064715D01*
X0295251Y0067067D02*
X0290747Y0067067D01*
X0292999Y0067818D02*
X0295251Y0070070D01*
X0292999Y0071671D02*
X0292999Y0074674D01*
X0295251Y0073923D02*
X0290747Y0073923D01*
X0292999Y0071671D01*
X0290747Y0070070D02*
X0293750Y0067067D01*
X0265920Y0067343D02*
X0261416Y0067343D01*
X0262167Y0065742D02*
X0261416Y0064991D01*
X0261416Y0063490D01*
X0262167Y0062739D01*
X0265169Y0062739D01*
X0265920Y0063490D01*
X0265920Y0064991D01*
X0265169Y0065742D01*
X0262167Y0065742D01*
X0264419Y0067343D02*
X0261416Y0070345D01*
X0262167Y0071947D02*
X0261416Y0072697D01*
X0261416Y0074199D01*
X0262167Y0074949D01*
X0262918Y0074949D01*
X0263668Y0074199D01*
X0264419Y0074949D01*
X0265169Y0074949D01*
X0265920Y0074199D01*
X0265920Y0072697D01*
X0265169Y0071947D01*
X0265920Y0070345D02*
X0263668Y0068094D01*
X0263668Y0073448D02*
X0263668Y0074199D01*
X0235920Y0075067D02*
X0235920Y0072065D01*
X0232918Y0075067D01*
X0232167Y0075067D01*
X0231416Y0074317D01*
X0231416Y0072816D01*
X0232167Y0072065D01*
X0231416Y0070464D02*
X0234419Y0067461D01*
X0233668Y0068212D02*
X0235920Y0070464D01*
X0235920Y0067461D02*
X0231416Y0067461D01*
X0232167Y0065860D02*
X0231416Y0065109D01*
X0231416Y0063608D01*
X0232167Y0062857D01*
X0235169Y0062857D01*
X0235920Y0063608D01*
X0235920Y0065109D01*
X0235169Y0065860D01*
X0232167Y0065860D01*
X0206629Y0064991D02*
X0205878Y0065742D01*
X0202876Y0065742D01*
X0202125Y0064991D01*
X0202125Y0063490D01*
X0202876Y0062739D01*
X0205878Y0062739D01*
X0206629Y0063490D01*
X0206629Y0064991D01*
X0206629Y0067343D02*
X0202125Y0067343D01*
X0204377Y0068094D02*
X0206629Y0070345D01*
X0205878Y0071947D02*
X0206629Y0072697D01*
X0206629Y0074199D01*
X0205878Y0074949D01*
X0204377Y0074949D01*
X0203626Y0074199D01*
X0203626Y0073448D01*
X0204377Y0071947D01*
X0202125Y0071947D01*
X0202125Y0074949D01*
X0202125Y0070345D02*
X0205127Y0067343D01*
X0175841Y0067343D02*
X0171338Y0067343D01*
X0172088Y0065742D02*
X0171338Y0064991D01*
X0171338Y0063490D01*
X0172088Y0062739D01*
X0175091Y0062739D01*
X0175841Y0063490D01*
X0175841Y0064991D01*
X0175091Y0065742D01*
X0172088Y0065742D01*
X0174340Y0067343D02*
X0171338Y0070345D01*
X0172839Y0071947D02*
X0171338Y0073448D01*
X0175841Y0073448D01*
X0175841Y0071947D02*
X0175841Y0074949D01*
X0175841Y0070345D02*
X0173589Y0068094D01*
X0152986Y0059471D02*
X0151484Y0058721D01*
X0149983Y0057219D01*
X0152235Y0057219D01*
X0152986Y0056469D01*
X0152986Y0055718D01*
X0152235Y0054967D01*
X0150734Y0054967D01*
X0149983Y0055718D01*
X0149983Y0057219D01*
X0141172Y0073747D02*
X0139671Y0073747D01*
X0138920Y0074497D01*
X0138920Y0075999D02*
X0140421Y0076749D01*
X0141172Y0076749D01*
X0141923Y0075999D01*
X0141923Y0074497D01*
X0141172Y0073747D01*
X0138920Y0075999D02*
X0138920Y0078251D01*
X0141923Y0078251D01*
X0108630Y0077500D02*
X0107880Y0078251D01*
X0106379Y0078251D01*
X0105628Y0077500D01*
X0104027Y0078251D02*
X0104027Y0075248D01*
X0102525Y0073747D01*
X0101024Y0075248D01*
X0101024Y0078251D01*
X0099423Y0077500D02*
X0098672Y0078251D01*
X0097171Y0078251D01*
X0096420Y0077500D01*
X0096420Y0076749D01*
X0097171Y0075999D01*
X0098672Y0075999D01*
X0099423Y0075248D01*
X0099423Y0074497D01*
X0098672Y0073747D01*
X0097171Y0073747D01*
X0096420Y0074497D01*
X0105628Y0073747D02*
X0108630Y0076749D01*
X0108630Y0077500D01*
X0108630Y0073747D02*
X0105628Y0073747D01*
X0100421Y0060251D02*
X0100421Y0055747D01*
X0100486Y0055718D02*
X0099735Y0054967D01*
X0098234Y0054967D01*
X0097483Y0055718D01*
X0098920Y0055747D02*
X0101923Y0055747D01*
X0102087Y0056469D02*
X0103588Y0054967D01*
X0105090Y0056469D01*
X0105090Y0059471D01*
X0106691Y0058721D02*
X0107442Y0059471D01*
X0108943Y0059471D01*
X0109693Y0058721D01*
X0109693Y0057970D01*
X0108943Y0057219D01*
X0109693Y0056469D01*
X0109693Y0055718D01*
X0108943Y0054967D01*
X0107442Y0054967D01*
X0106691Y0055718D01*
X0108192Y0057219D02*
X0108943Y0057219D01*
X0102087Y0056469D02*
X0102087Y0059471D01*
X0100486Y0058721D02*
X0099735Y0059471D01*
X0098234Y0059471D01*
X0097483Y0058721D01*
X0097483Y0057970D01*
X0098234Y0057219D01*
X0099735Y0057219D01*
X0100486Y0056469D01*
X0100486Y0055718D01*
X0098920Y0058749D02*
X0100421Y0060251D01*
X0101484Y0041471D02*
X0101484Y0036967D01*
X0099983Y0036967D02*
X0102986Y0036967D01*
X0099983Y0039970D02*
X0101484Y0041471D01*
X0112154Y0139123D02*
X0131446Y0139123D01*
X0131446Y0154477D01*
X0112154Y0154477D01*
X0112154Y0139123D01*
D18*
X0384839Y0190796D02*
X0384841Y0190885D01*
X0384847Y0190974D01*
X0384857Y0191063D01*
X0384871Y0191151D01*
X0384888Y0191238D01*
X0384910Y0191324D01*
X0384936Y0191410D01*
X0384965Y0191494D01*
X0384998Y0191577D01*
X0385034Y0191658D01*
X0385075Y0191738D01*
X0385118Y0191815D01*
X0385165Y0191891D01*
X0385216Y0191964D01*
X0385269Y0192035D01*
X0385326Y0192104D01*
X0385386Y0192170D01*
X0385449Y0192234D01*
X0385514Y0192294D01*
X0385582Y0192352D01*
X0385653Y0192406D01*
X0385726Y0192457D01*
X0385801Y0192505D01*
X0385878Y0192550D01*
X0385957Y0192591D01*
X0386038Y0192628D01*
X0386120Y0192662D01*
X0386204Y0192693D01*
X0386289Y0192719D01*
X0386375Y0192742D01*
X0386462Y0192760D01*
X0386550Y0192775D01*
X0386639Y0192786D01*
X0386728Y0192793D01*
X0386817Y0192796D01*
X0386906Y0192795D01*
X0386995Y0192790D01*
X0387083Y0192781D01*
X0387172Y0192768D01*
X0387259Y0192751D01*
X0387346Y0192731D01*
X0387432Y0192706D01*
X0387516Y0192678D01*
X0387599Y0192646D01*
X0387681Y0192610D01*
X0387761Y0192571D01*
X0387839Y0192528D01*
X0387915Y0192482D01*
X0387989Y0192432D01*
X0388061Y0192379D01*
X0388130Y0192323D01*
X0388197Y0192264D01*
X0388261Y0192202D01*
X0388322Y0192138D01*
X0388381Y0192070D01*
X0388436Y0192000D01*
X0388488Y0191928D01*
X0388537Y0191853D01*
X0388582Y0191777D01*
X0388624Y0191698D01*
X0388662Y0191618D01*
X0388697Y0191536D01*
X0388728Y0191452D01*
X0388756Y0191367D01*
X0388779Y0191281D01*
X0388799Y0191194D01*
X0388815Y0191107D01*
X0388827Y0191018D01*
X0388835Y0190930D01*
X0388839Y0190841D01*
X0388839Y0190751D01*
X0388835Y0190662D01*
X0388827Y0190574D01*
X0388815Y0190485D01*
X0388799Y0190398D01*
X0388779Y0190311D01*
X0388756Y0190225D01*
X0388728Y0190140D01*
X0388697Y0190056D01*
X0388662Y0189974D01*
X0388624Y0189894D01*
X0388582Y0189815D01*
X0388537Y0189739D01*
X0388488Y0189664D01*
X0388436Y0189592D01*
X0388381Y0189522D01*
X0388322Y0189454D01*
X0388261Y0189390D01*
X0388197Y0189328D01*
X0388130Y0189269D01*
X0388061Y0189213D01*
X0387989Y0189160D01*
X0387915Y0189110D01*
X0387839Y0189064D01*
X0387761Y0189021D01*
X0387681Y0188982D01*
X0387599Y0188946D01*
X0387516Y0188914D01*
X0387432Y0188886D01*
X0387346Y0188861D01*
X0387259Y0188841D01*
X0387172Y0188824D01*
X0387083Y0188811D01*
X0386995Y0188802D01*
X0386906Y0188797D01*
X0386817Y0188796D01*
X0386728Y0188799D01*
X0386639Y0188806D01*
X0386550Y0188817D01*
X0386462Y0188832D01*
X0386375Y0188850D01*
X0386289Y0188873D01*
X0386204Y0188899D01*
X0386120Y0188930D01*
X0386038Y0188964D01*
X0385957Y0189001D01*
X0385878Y0189042D01*
X0385801Y0189087D01*
X0385726Y0189135D01*
X0385653Y0189186D01*
X0385582Y0189240D01*
X0385514Y0189298D01*
X0385449Y0189358D01*
X0385386Y0189422D01*
X0385326Y0189488D01*
X0385269Y0189557D01*
X0385216Y0189628D01*
X0385165Y0189701D01*
X0385118Y0189777D01*
X0385075Y0189854D01*
X0385034Y0189934D01*
X0384998Y0190015D01*
X0384965Y0190098D01*
X0384936Y0190182D01*
X0384910Y0190268D01*
X0384888Y0190354D01*
X0384871Y0190441D01*
X0384857Y0190529D01*
X0384847Y0190618D01*
X0384841Y0190707D01*
X0384839Y0190796D01*
D19*
X0317583Y0122635D02*
X0290583Y0122635D01*
X0290583Y0119635D02*
X0317583Y0119635D01*
X0317584Y0119635D02*
X0317717Y0119633D01*
X0317849Y0119628D01*
X0317981Y0119619D01*
X0318114Y0119607D01*
X0318245Y0119591D01*
X0318377Y0119572D01*
X0318507Y0119549D01*
X0318637Y0119523D01*
X0318767Y0119493D01*
X0318895Y0119460D01*
X0319023Y0119424D01*
X0319149Y0119384D01*
X0319275Y0119341D01*
X0319399Y0119294D01*
X0319522Y0119244D01*
X0319643Y0119191D01*
X0319763Y0119135D01*
X0317584Y0122635D02*
X0317778Y0122633D01*
X0317973Y0122626D01*
X0318167Y0122614D01*
X0318361Y0122597D01*
X0318555Y0122576D01*
X0318748Y0122550D01*
X0318940Y0122519D01*
X0319131Y0122484D01*
X0319322Y0122444D01*
X0319511Y0122399D01*
X0319700Y0122350D01*
X0319887Y0122296D01*
X0320073Y0122238D01*
X0320257Y0122175D01*
X0320440Y0122108D01*
X0320621Y0122036D01*
X0320800Y0121960D01*
X0320977Y0121880D01*
X0321152Y0121795D01*
X0321326Y0121706D01*
X0321497Y0121613D01*
X0321665Y0121516D01*
X0321831Y0121414D01*
X0321995Y0121309D01*
X0322156Y0121200D01*
X0322315Y0121086D01*
X0322470Y0120969D01*
X0322623Y0120849D01*
X0322773Y0120724D01*
X0322919Y0120596D01*
X0323063Y0120465D01*
X0323203Y0120330D01*
X0323340Y0120191D01*
X0323473Y0120049D01*
X0323603Y0119905D01*
X0323730Y0119757D01*
X0323853Y0119605D01*
X0323972Y0119451D01*
X0324087Y0119295D01*
X0324198Y0119135D01*
X0319763Y0110135D02*
X0319643Y0110079D01*
X0319522Y0110026D01*
X0319399Y0109976D01*
X0319275Y0109929D01*
X0319149Y0109886D01*
X0319023Y0109846D01*
X0318895Y0109810D01*
X0318767Y0109777D01*
X0318637Y0109747D01*
X0318507Y0109721D01*
X0318377Y0109698D01*
X0318245Y0109679D01*
X0318114Y0109663D01*
X0317981Y0109651D01*
X0317849Y0109642D01*
X0317717Y0109637D01*
X0317584Y0109635D01*
X0317583Y0109635D02*
X0290583Y0109635D01*
X0290583Y0106635D02*
X0317583Y0106635D01*
X0317778Y0106637D01*
X0317973Y0106644D01*
X0318167Y0106656D01*
X0318361Y0106673D01*
X0318554Y0106694D01*
X0318747Y0106720D01*
X0318940Y0106751D01*
X0319131Y0106786D01*
X0319322Y0106826D01*
X0319511Y0106871D01*
X0319699Y0106920D01*
X0319887Y0106974D01*
X0320072Y0107032D01*
X0320257Y0107095D01*
X0320439Y0107162D01*
X0320620Y0107234D01*
X0320799Y0107310D01*
X0320977Y0107390D01*
X0321152Y0107475D01*
X0321325Y0107564D01*
X0321496Y0107657D01*
X0321665Y0107755D01*
X0321831Y0107856D01*
X0321995Y0107961D01*
X0322156Y0108071D01*
X0322314Y0108184D01*
X0322470Y0108301D01*
X0322622Y0108422D01*
X0322772Y0108546D01*
X0322919Y0108674D01*
X0323062Y0108806D01*
X0323202Y0108941D01*
X0323339Y0109079D01*
X0323473Y0109221D01*
X0323603Y0109366D01*
X0323729Y0109514D01*
X0323852Y0109665D01*
X0323971Y0109819D01*
X0324086Y0109976D01*
X0324198Y0110135D01*
X0308583Y0114635D02*
X0306583Y0114635D01*
X0301583Y0114635D02*
X0299583Y0114635D01*
X0290584Y0122635D02*
X0290389Y0122633D01*
X0290195Y0122626D01*
X0290000Y0122614D01*
X0289806Y0122597D01*
X0289613Y0122576D01*
X0289420Y0122550D01*
X0289228Y0122519D01*
X0289036Y0122484D01*
X0288846Y0122444D01*
X0288656Y0122399D01*
X0288468Y0122350D01*
X0288281Y0122296D01*
X0288095Y0122238D01*
X0287911Y0122175D01*
X0287728Y0122108D01*
X0287547Y0122036D01*
X0287368Y0121960D01*
X0287191Y0121880D01*
X0287015Y0121795D01*
X0286842Y0121706D01*
X0286671Y0121613D01*
X0286503Y0121516D01*
X0286336Y0121414D01*
X0286173Y0121309D01*
X0286012Y0121199D01*
X0285853Y0121086D01*
X0285698Y0120969D01*
X0285545Y0120848D01*
X0285395Y0120724D01*
X0285249Y0120596D01*
X0285105Y0120464D01*
X0284965Y0120329D01*
X0284828Y0120191D01*
X0284695Y0120049D01*
X0284565Y0119904D01*
X0284438Y0119756D01*
X0284315Y0119605D01*
X0284196Y0119451D01*
X0284081Y0119294D01*
X0283969Y0119135D01*
X0283969Y0110135D02*
X0284080Y0109975D01*
X0284195Y0109819D01*
X0284314Y0109665D01*
X0284437Y0109513D01*
X0284564Y0109365D01*
X0284694Y0109221D01*
X0284827Y0109079D01*
X0284964Y0108940D01*
X0285104Y0108805D01*
X0285248Y0108674D01*
X0285394Y0108546D01*
X0285544Y0108421D01*
X0285697Y0108301D01*
X0285852Y0108184D01*
X0286011Y0108070D01*
X0286172Y0107961D01*
X0286336Y0107856D01*
X0286502Y0107754D01*
X0286670Y0107657D01*
X0286841Y0107564D01*
X0287015Y0107475D01*
X0287190Y0107390D01*
X0287367Y0107310D01*
X0287546Y0107234D01*
X0287727Y0107162D01*
X0287910Y0107095D01*
X0288094Y0107032D01*
X0288280Y0106974D01*
X0288467Y0106920D01*
X0288656Y0106871D01*
X0288845Y0106826D01*
X0289036Y0106786D01*
X0289227Y0106751D01*
X0289419Y0106720D01*
X0289612Y0106694D01*
X0289806Y0106673D01*
X0290000Y0106656D01*
X0290194Y0106644D01*
X0290389Y0106637D01*
X0290583Y0106635D01*
X0290583Y0109635D02*
X0290450Y0109637D01*
X0290318Y0109642D01*
X0290186Y0109651D01*
X0290053Y0109663D01*
X0289922Y0109679D01*
X0289790Y0109698D01*
X0289660Y0109721D01*
X0289530Y0109747D01*
X0289400Y0109777D01*
X0289272Y0109810D01*
X0289144Y0109846D01*
X0289018Y0109886D01*
X0288892Y0109929D01*
X0288768Y0109976D01*
X0288645Y0110026D01*
X0288524Y0110079D01*
X0288404Y0110135D01*
X0288404Y0119135D02*
X0288524Y0119191D01*
X0288645Y0119244D01*
X0288768Y0119294D01*
X0288892Y0119341D01*
X0289018Y0119384D01*
X0289144Y0119424D01*
X0289272Y0119460D01*
X0289400Y0119493D01*
X0289530Y0119523D01*
X0289660Y0119549D01*
X0289790Y0119572D01*
X0289922Y0119591D01*
X0290053Y0119607D01*
X0290186Y0119619D01*
X0290318Y0119628D01*
X0290450Y0119633D01*
X0290583Y0119635D01*
D20*
X0257405Y0151115D02*
X0257407Y0151195D01*
X0257413Y0151274D01*
X0257423Y0151353D01*
X0257437Y0151432D01*
X0257454Y0151510D01*
X0257476Y0151587D01*
X0257501Y0151662D01*
X0257531Y0151736D01*
X0257563Y0151809D01*
X0257600Y0151880D01*
X0257640Y0151949D01*
X0257683Y0152016D01*
X0257730Y0152081D01*
X0257779Y0152143D01*
X0257832Y0152203D01*
X0257888Y0152260D01*
X0257946Y0152315D01*
X0258007Y0152366D01*
X0258071Y0152414D01*
X0258137Y0152459D01*
X0258205Y0152501D01*
X0258275Y0152539D01*
X0258347Y0152573D01*
X0258420Y0152604D01*
X0258495Y0152632D01*
X0258572Y0152655D01*
X0258649Y0152675D01*
X0258727Y0152691D01*
X0258806Y0152703D01*
X0258885Y0152711D01*
X0258965Y0152715D01*
X0259045Y0152715D01*
X0259125Y0152711D01*
X0259204Y0152703D01*
X0259283Y0152691D01*
X0259361Y0152675D01*
X0259438Y0152655D01*
X0259515Y0152632D01*
X0259590Y0152604D01*
X0259663Y0152573D01*
X0259735Y0152539D01*
X0259805Y0152501D01*
X0259873Y0152459D01*
X0259939Y0152414D01*
X0260003Y0152366D01*
X0260064Y0152315D01*
X0260122Y0152260D01*
X0260178Y0152203D01*
X0260231Y0152143D01*
X0260280Y0152081D01*
X0260327Y0152016D01*
X0260370Y0151949D01*
X0260410Y0151880D01*
X0260447Y0151809D01*
X0260479Y0151736D01*
X0260509Y0151662D01*
X0260534Y0151587D01*
X0260556Y0151510D01*
X0260573Y0151432D01*
X0260587Y0151353D01*
X0260597Y0151274D01*
X0260603Y0151195D01*
X0260605Y0151115D01*
X0260603Y0151035D01*
X0260597Y0150956D01*
X0260587Y0150877D01*
X0260573Y0150798D01*
X0260556Y0150720D01*
X0260534Y0150643D01*
X0260509Y0150568D01*
X0260479Y0150494D01*
X0260447Y0150421D01*
X0260410Y0150350D01*
X0260370Y0150281D01*
X0260327Y0150214D01*
X0260280Y0150149D01*
X0260231Y0150087D01*
X0260178Y0150027D01*
X0260122Y0149970D01*
X0260064Y0149915D01*
X0260003Y0149864D01*
X0259939Y0149816D01*
X0259873Y0149771D01*
X0259805Y0149729D01*
X0259735Y0149691D01*
X0259663Y0149657D01*
X0259590Y0149626D01*
X0259515Y0149598D01*
X0259438Y0149575D01*
X0259361Y0149555D01*
X0259283Y0149539D01*
X0259204Y0149527D01*
X0259125Y0149519D01*
X0259045Y0149515D01*
X0258965Y0149515D01*
X0258885Y0149519D01*
X0258806Y0149527D01*
X0258727Y0149539D01*
X0258649Y0149555D01*
X0258572Y0149575D01*
X0258495Y0149598D01*
X0258420Y0149626D01*
X0258347Y0149657D01*
X0258275Y0149691D01*
X0258205Y0149729D01*
X0258137Y0149771D01*
X0258071Y0149816D01*
X0258007Y0149864D01*
X0257946Y0149915D01*
X0257888Y0149970D01*
X0257832Y0150027D01*
X0257779Y0150087D01*
X0257730Y0150149D01*
X0257683Y0150214D01*
X0257640Y0150281D01*
X0257600Y0150350D01*
X0257563Y0150421D01*
X0257531Y0150494D01*
X0257501Y0150568D01*
X0257476Y0150643D01*
X0257454Y0150720D01*
X0257437Y0150798D01*
X0257423Y0150877D01*
X0257413Y0150956D01*
X0257407Y0151035D01*
X0257405Y0151115D01*
X0257405Y0163115D02*
X0257407Y0163195D01*
X0257413Y0163274D01*
X0257423Y0163353D01*
X0257437Y0163432D01*
X0257454Y0163510D01*
X0257476Y0163587D01*
X0257501Y0163662D01*
X0257531Y0163736D01*
X0257563Y0163809D01*
X0257600Y0163880D01*
X0257640Y0163949D01*
X0257683Y0164016D01*
X0257730Y0164081D01*
X0257779Y0164143D01*
X0257832Y0164203D01*
X0257888Y0164260D01*
X0257946Y0164315D01*
X0258007Y0164366D01*
X0258071Y0164414D01*
X0258137Y0164459D01*
X0258205Y0164501D01*
X0258275Y0164539D01*
X0258347Y0164573D01*
X0258420Y0164604D01*
X0258495Y0164632D01*
X0258572Y0164655D01*
X0258649Y0164675D01*
X0258727Y0164691D01*
X0258806Y0164703D01*
X0258885Y0164711D01*
X0258965Y0164715D01*
X0259045Y0164715D01*
X0259125Y0164711D01*
X0259204Y0164703D01*
X0259283Y0164691D01*
X0259361Y0164675D01*
X0259438Y0164655D01*
X0259515Y0164632D01*
X0259590Y0164604D01*
X0259663Y0164573D01*
X0259735Y0164539D01*
X0259805Y0164501D01*
X0259873Y0164459D01*
X0259939Y0164414D01*
X0260003Y0164366D01*
X0260064Y0164315D01*
X0260122Y0164260D01*
X0260178Y0164203D01*
X0260231Y0164143D01*
X0260280Y0164081D01*
X0260327Y0164016D01*
X0260370Y0163949D01*
X0260410Y0163880D01*
X0260447Y0163809D01*
X0260479Y0163736D01*
X0260509Y0163662D01*
X0260534Y0163587D01*
X0260556Y0163510D01*
X0260573Y0163432D01*
X0260587Y0163353D01*
X0260597Y0163274D01*
X0260603Y0163195D01*
X0260605Y0163115D01*
X0260603Y0163035D01*
X0260597Y0162956D01*
X0260587Y0162877D01*
X0260573Y0162798D01*
X0260556Y0162720D01*
X0260534Y0162643D01*
X0260509Y0162568D01*
X0260479Y0162494D01*
X0260447Y0162421D01*
X0260410Y0162350D01*
X0260370Y0162281D01*
X0260327Y0162214D01*
X0260280Y0162149D01*
X0260231Y0162087D01*
X0260178Y0162027D01*
X0260122Y0161970D01*
X0260064Y0161915D01*
X0260003Y0161864D01*
X0259939Y0161816D01*
X0259873Y0161771D01*
X0259805Y0161729D01*
X0259735Y0161691D01*
X0259663Y0161657D01*
X0259590Y0161626D01*
X0259515Y0161598D01*
X0259438Y0161575D01*
X0259361Y0161555D01*
X0259283Y0161539D01*
X0259204Y0161527D01*
X0259125Y0161519D01*
X0259045Y0161515D01*
X0258965Y0161515D01*
X0258885Y0161519D01*
X0258806Y0161527D01*
X0258727Y0161539D01*
X0258649Y0161555D01*
X0258572Y0161575D01*
X0258495Y0161598D01*
X0258420Y0161626D01*
X0258347Y0161657D01*
X0258275Y0161691D01*
X0258205Y0161729D01*
X0258137Y0161771D01*
X0258071Y0161816D01*
X0258007Y0161864D01*
X0257946Y0161915D01*
X0257888Y0161970D01*
X0257832Y0162027D01*
X0257779Y0162087D01*
X0257730Y0162149D01*
X0257683Y0162214D01*
X0257640Y0162281D01*
X0257600Y0162350D01*
X0257563Y0162421D01*
X0257531Y0162494D01*
X0257501Y0162568D01*
X0257476Y0162643D01*
X0257454Y0162720D01*
X0257437Y0162798D01*
X0257423Y0162877D01*
X0257413Y0162956D01*
X0257407Y0163035D01*
X0257405Y0163115D01*
X0031640Y0153100D02*
X0029280Y0153100D01*
X0028788Y0154280D02*
X0028790Y0154361D01*
X0028796Y0154443D01*
X0028806Y0154524D01*
X0028820Y0154604D01*
X0028837Y0154683D01*
X0028859Y0154762D01*
X0028884Y0154839D01*
X0028913Y0154916D01*
X0028946Y0154990D01*
X0028983Y0155063D01*
X0029022Y0155134D01*
X0029066Y0155203D01*
X0029112Y0155270D01*
X0029162Y0155334D01*
X0029215Y0155396D01*
X0029271Y0155456D01*
X0029329Y0155512D01*
X0029391Y0155566D01*
X0029455Y0155617D01*
X0029521Y0155664D01*
X0029589Y0155708D01*
X0029660Y0155749D01*
X0029732Y0155786D01*
X0029807Y0155820D01*
X0029882Y0155850D01*
X0029960Y0155876D01*
X0030038Y0155899D01*
X0030117Y0155917D01*
X0030197Y0155932D01*
X0030278Y0155943D01*
X0030359Y0155950D01*
X0030441Y0155953D01*
X0030522Y0155952D01*
X0030603Y0155947D01*
X0030684Y0155938D01*
X0030765Y0155925D01*
X0030845Y0155908D01*
X0030923Y0155888D01*
X0031001Y0155863D01*
X0031078Y0155835D01*
X0031153Y0155803D01*
X0031226Y0155768D01*
X0031297Y0155729D01*
X0031367Y0155686D01*
X0031434Y0155641D01*
X0031500Y0155592D01*
X0031562Y0155540D01*
X0031622Y0155484D01*
X0031679Y0155426D01*
X0031734Y0155366D01*
X0031785Y0155302D01*
X0031833Y0155237D01*
X0031878Y0155169D01*
X0031920Y0155099D01*
X0031958Y0155027D01*
X0031993Y0154953D01*
X0032024Y0154878D01*
X0032051Y0154801D01*
X0032074Y0154723D01*
X0032094Y0154644D01*
X0032110Y0154564D01*
X0032122Y0154483D01*
X0032130Y0154402D01*
X0032134Y0154321D01*
X0032134Y0154239D01*
X0032130Y0154158D01*
X0032122Y0154077D01*
X0032110Y0153996D01*
X0032094Y0153916D01*
X0032074Y0153837D01*
X0032051Y0153759D01*
X0032024Y0153682D01*
X0031993Y0153607D01*
X0031958Y0153533D01*
X0031920Y0153461D01*
X0031878Y0153391D01*
X0031833Y0153323D01*
X0031785Y0153258D01*
X0031734Y0153194D01*
X0031679Y0153134D01*
X0031622Y0153076D01*
X0031562Y0153020D01*
X0031500Y0152968D01*
X0031434Y0152919D01*
X0031367Y0152874D01*
X0031298Y0152831D01*
X0031226Y0152792D01*
X0031153Y0152757D01*
X0031078Y0152725D01*
X0031001Y0152697D01*
X0030923Y0152672D01*
X0030845Y0152652D01*
X0030765Y0152635D01*
X0030684Y0152622D01*
X0030603Y0152613D01*
X0030522Y0152608D01*
X0030441Y0152607D01*
X0030359Y0152610D01*
X0030278Y0152617D01*
X0030197Y0152628D01*
X0030117Y0152643D01*
X0030038Y0152661D01*
X0029960Y0152684D01*
X0029882Y0152710D01*
X0029807Y0152740D01*
X0029732Y0152774D01*
X0029660Y0152811D01*
X0029589Y0152852D01*
X0029521Y0152896D01*
X0029455Y0152943D01*
X0029391Y0152994D01*
X0029329Y0153048D01*
X0029271Y0153104D01*
X0029215Y0153164D01*
X0029162Y0153226D01*
X0029112Y0153290D01*
X0029066Y0153357D01*
X0029022Y0153426D01*
X0028983Y0153497D01*
X0028946Y0153570D01*
X0028913Y0153644D01*
X0028884Y0153721D01*
X0028859Y0153798D01*
X0028837Y0153877D01*
X0028820Y0153956D01*
X0028806Y0154036D01*
X0028796Y0154117D01*
X0028790Y0154199D01*
X0028788Y0154280D01*
X0028788Y0139320D02*
X0028790Y0139401D01*
X0028796Y0139483D01*
X0028806Y0139564D01*
X0028820Y0139644D01*
X0028837Y0139723D01*
X0028859Y0139802D01*
X0028884Y0139879D01*
X0028913Y0139956D01*
X0028946Y0140030D01*
X0028983Y0140103D01*
X0029022Y0140174D01*
X0029066Y0140243D01*
X0029112Y0140310D01*
X0029162Y0140374D01*
X0029215Y0140436D01*
X0029271Y0140496D01*
X0029329Y0140552D01*
X0029391Y0140606D01*
X0029455Y0140657D01*
X0029521Y0140704D01*
X0029589Y0140748D01*
X0029660Y0140789D01*
X0029732Y0140826D01*
X0029807Y0140860D01*
X0029882Y0140890D01*
X0029960Y0140916D01*
X0030038Y0140939D01*
X0030117Y0140957D01*
X0030197Y0140972D01*
X0030278Y0140983D01*
X0030359Y0140990D01*
X0030441Y0140993D01*
X0030522Y0140992D01*
X0030603Y0140987D01*
X0030684Y0140978D01*
X0030765Y0140965D01*
X0030845Y0140948D01*
X0030923Y0140928D01*
X0031001Y0140903D01*
X0031078Y0140875D01*
X0031153Y0140843D01*
X0031226Y0140808D01*
X0031297Y0140769D01*
X0031367Y0140726D01*
X0031434Y0140681D01*
X0031500Y0140632D01*
X0031562Y0140580D01*
X0031622Y0140524D01*
X0031679Y0140466D01*
X0031734Y0140406D01*
X0031785Y0140342D01*
X0031833Y0140277D01*
X0031878Y0140209D01*
X0031920Y0140139D01*
X0031958Y0140067D01*
X0031993Y0139993D01*
X0032024Y0139918D01*
X0032051Y0139841D01*
X0032074Y0139763D01*
X0032094Y0139684D01*
X0032110Y0139604D01*
X0032122Y0139523D01*
X0032130Y0139442D01*
X0032134Y0139361D01*
X0032134Y0139279D01*
X0032130Y0139198D01*
X0032122Y0139117D01*
X0032110Y0139036D01*
X0032094Y0138956D01*
X0032074Y0138877D01*
X0032051Y0138799D01*
X0032024Y0138722D01*
X0031993Y0138647D01*
X0031958Y0138573D01*
X0031920Y0138501D01*
X0031878Y0138431D01*
X0031833Y0138363D01*
X0031785Y0138298D01*
X0031734Y0138234D01*
X0031679Y0138174D01*
X0031622Y0138116D01*
X0031562Y0138060D01*
X0031500Y0138008D01*
X0031434Y0137959D01*
X0031367Y0137914D01*
X0031298Y0137871D01*
X0031226Y0137832D01*
X0031153Y0137797D01*
X0031078Y0137765D01*
X0031001Y0137737D01*
X0030923Y0137712D01*
X0030845Y0137692D01*
X0030765Y0137675D01*
X0030684Y0137662D01*
X0030603Y0137653D01*
X0030522Y0137648D01*
X0030441Y0137647D01*
X0030359Y0137650D01*
X0030278Y0137657D01*
X0030197Y0137668D01*
X0030117Y0137683D01*
X0030038Y0137701D01*
X0029960Y0137724D01*
X0029882Y0137750D01*
X0029807Y0137780D01*
X0029732Y0137814D01*
X0029660Y0137851D01*
X0029589Y0137892D01*
X0029521Y0137936D01*
X0029455Y0137983D01*
X0029391Y0138034D01*
X0029329Y0138088D01*
X0029271Y0138144D01*
X0029215Y0138204D01*
X0029162Y0138266D01*
X0029112Y0138330D01*
X0029066Y0138397D01*
X0029022Y0138466D01*
X0028983Y0138537D01*
X0028946Y0138610D01*
X0028913Y0138684D01*
X0028884Y0138761D01*
X0028859Y0138838D01*
X0028837Y0138917D01*
X0028820Y0138996D01*
X0028806Y0139076D01*
X0028796Y0139157D01*
X0028790Y0139239D01*
X0028788Y0139320D01*
X0548113Y0192769D02*
X0548115Y0192849D01*
X0548121Y0192928D01*
X0548131Y0193007D01*
X0548145Y0193086D01*
X0548162Y0193164D01*
X0548184Y0193241D01*
X0548209Y0193316D01*
X0548239Y0193390D01*
X0548271Y0193463D01*
X0548308Y0193534D01*
X0548348Y0193603D01*
X0548391Y0193670D01*
X0548438Y0193735D01*
X0548487Y0193797D01*
X0548540Y0193857D01*
X0548596Y0193914D01*
X0548654Y0193969D01*
X0548715Y0194020D01*
X0548779Y0194068D01*
X0548845Y0194113D01*
X0548913Y0194155D01*
X0548983Y0194193D01*
X0549055Y0194227D01*
X0549128Y0194258D01*
X0549203Y0194286D01*
X0549280Y0194309D01*
X0549357Y0194329D01*
X0549435Y0194345D01*
X0549514Y0194357D01*
X0549593Y0194365D01*
X0549673Y0194369D01*
X0549753Y0194369D01*
X0549833Y0194365D01*
X0549912Y0194357D01*
X0549991Y0194345D01*
X0550069Y0194329D01*
X0550146Y0194309D01*
X0550223Y0194286D01*
X0550298Y0194258D01*
X0550371Y0194227D01*
X0550443Y0194193D01*
X0550513Y0194155D01*
X0550581Y0194113D01*
X0550647Y0194068D01*
X0550711Y0194020D01*
X0550772Y0193969D01*
X0550830Y0193914D01*
X0550886Y0193857D01*
X0550939Y0193797D01*
X0550988Y0193735D01*
X0551035Y0193670D01*
X0551078Y0193603D01*
X0551118Y0193534D01*
X0551155Y0193463D01*
X0551187Y0193390D01*
X0551217Y0193316D01*
X0551242Y0193241D01*
X0551264Y0193164D01*
X0551281Y0193086D01*
X0551295Y0193007D01*
X0551305Y0192928D01*
X0551311Y0192849D01*
X0551313Y0192769D01*
X0551311Y0192689D01*
X0551305Y0192610D01*
X0551295Y0192531D01*
X0551281Y0192452D01*
X0551264Y0192374D01*
X0551242Y0192297D01*
X0551217Y0192222D01*
X0551187Y0192148D01*
X0551155Y0192075D01*
X0551118Y0192004D01*
X0551078Y0191935D01*
X0551035Y0191868D01*
X0550988Y0191803D01*
X0550939Y0191741D01*
X0550886Y0191681D01*
X0550830Y0191624D01*
X0550772Y0191569D01*
X0550711Y0191518D01*
X0550647Y0191470D01*
X0550581Y0191425D01*
X0550513Y0191383D01*
X0550443Y0191345D01*
X0550371Y0191311D01*
X0550298Y0191280D01*
X0550223Y0191252D01*
X0550146Y0191229D01*
X0550069Y0191209D01*
X0549991Y0191193D01*
X0549912Y0191181D01*
X0549833Y0191173D01*
X0549753Y0191169D01*
X0549673Y0191169D01*
X0549593Y0191173D01*
X0549514Y0191181D01*
X0549435Y0191193D01*
X0549357Y0191209D01*
X0549280Y0191229D01*
X0549203Y0191252D01*
X0549128Y0191280D01*
X0549055Y0191311D01*
X0548983Y0191345D01*
X0548913Y0191383D01*
X0548845Y0191425D01*
X0548779Y0191470D01*
X0548715Y0191518D01*
X0548654Y0191569D01*
X0548596Y0191624D01*
X0548540Y0191681D01*
X0548487Y0191741D01*
X0548438Y0191803D01*
X0548391Y0191868D01*
X0548348Y0191935D01*
X0548308Y0192004D01*
X0548271Y0192075D01*
X0548239Y0192148D01*
X0548209Y0192222D01*
X0548184Y0192297D01*
X0548162Y0192374D01*
X0548145Y0192452D01*
X0548131Y0192531D01*
X0548121Y0192610D01*
X0548115Y0192689D01*
X0548113Y0192769D01*
X0548113Y0204769D02*
X0548115Y0204849D01*
X0548121Y0204928D01*
X0548131Y0205007D01*
X0548145Y0205086D01*
X0548162Y0205164D01*
X0548184Y0205241D01*
X0548209Y0205316D01*
X0548239Y0205390D01*
X0548271Y0205463D01*
X0548308Y0205534D01*
X0548348Y0205603D01*
X0548391Y0205670D01*
X0548438Y0205735D01*
X0548487Y0205797D01*
X0548540Y0205857D01*
X0548596Y0205914D01*
X0548654Y0205969D01*
X0548715Y0206020D01*
X0548779Y0206068D01*
X0548845Y0206113D01*
X0548913Y0206155D01*
X0548983Y0206193D01*
X0549055Y0206227D01*
X0549128Y0206258D01*
X0549203Y0206286D01*
X0549280Y0206309D01*
X0549357Y0206329D01*
X0549435Y0206345D01*
X0549514Y0206357D01*
X0549593Y0206365D01*
X0549673Y0206369D01*
X0549753Y0206369D01*
X0549833Y0206365D01*
X0549912Y0206357D01*
X0549991Y0206345D01*
X0550069Y0206329D01*
X0550146Y0206309D01*
X0550223Y0206286D01*
X0550298Y0206258D01*
X0550371Y0206227D01*
X0550443Y0206193D01*
X0550513Y0206155D01*
X0550581Y0206113D01*
X0550647Y0206068D01*
X0550711Y0206020D01*
X0550772Y0205969D01*
X0550830Y0205914D01*
X0550886Y0205857D01*
X0550939Y0205797D01*
X0550988Y0205735D01*
X0551035Y0205670D01*
X0551078Y0205603D01*
X0551118Y0205534D01*
X0551155Y0205463D01*
X0551187Y0205390D01*
X0551217Y0205316D01*
X0551242Y0205241D01*
X0551264Y0205164D01*
X0551281Y0205086D01*
X0551295Y0205007D01*
X0551305Y0204928D01*
X0551311Y0204849D01*
X0551313Y0204769D01*
X0551311Y0204689D01*
X0551305Y0204610D01*
X0551295Y0204531D01*
X0551281Y0204452D01*
X0551264Y0204374D01*
X0551242Y0204297D01*
X0551217Y0204222D01*
X0551187Y0204148D01*
X0551155Y0204075D01*
X0551118Y0204004D01*
X0551078Y0203935D01*
X0551035Y0203868D01*
X0550988Y0203803D01*
X0550939Y0203741D01*
X0550886Y0203681D01*
X0550830Y0203624D01*
X0550772Y0203569D01*
X0550711Y0203518D01*
X0550647Y0203470D01*
X0550581Y0203425D01*
X0550513Y0203383D01*
X0550443Y0203345D01*
X0550371Y0203311D01*
X0550298Y0203280D01*
X0550223Y0203252D01*
X0550146Y0203229D01*
X0550069Y0203209D01*
X0549991Y0203193D01*
X0549912Y0203181D01*
X0549833Y0203173D01*
X0549753Y0203169D01*
X0549673Y0203169D01*
X0549593Y0203173D01*
X0549514Y0203181D01*
X0549435Y0203193D01*
X0549357Y0203209D01*
X0549280Y0203229D01*
X0549203Y0203252D01*
X0549128Y0203280D01*
X0549055Y0203311D01*
X0548983Y0203345D01*
X0548913Y0203383D01*
X0548845Y0203425D01*
X0548779Y0203470D01*
X0548715Y0203518D01*
X0548654Y0203569D01*
X0548596Y0203624D01*
X0548540Y0203681D01*
X0548487Y0203741D01*
X0548438Y0203803D01*
X0548391Y0203868D01*
X0548348Y0203935D01*
X0548308Y0204004D01*
X0548271Y0204075D01*
X0548239Y0204148D01*
X0548209Y0204222D01*
X0548184Y0204297D01*
X0548162Y0204374D01*
X0548145Y0204452D01*
X0548131Y0204531D01*
X0548121Y0204610D01*
X0548115Y0204689D01*
X0548113Y0204769D01*
D21*
X0156997Y0163473D03*
D22*
X0135146Y0179123D03*
X0130422Y0179123D03*
X0126800Y0177824D03*
X0122076Y0177824D03*
X0472233Y0143020D03*
X0476957Y0143020D03*
D23*
X0474595Y0143020D03*
X0600580Y0134831D03*
X0132784Y0179123D03*
X0124438Y0177824D03*
D24*
X0114831Y0179202D03*
X0142509Y0178769D03*
X0148611Y0116761D03*
X0160816Y0100265D03*
D25*
X0126879Y0120343D03*
X0277469Y0195186D03*
X0404595Y0106879D03*
X0384713Y0106524D03*
X0488926Y0121564D03*
X0477745Y0158572D03*
X0622981Y0132824D03*
X0360973Y0037981D03*
X0333729Y0037351D03*
X0304910Y0036761D03*
X0275698Y0036249D03*
X0244320Y0035973D03*
X0216209Y0035658D03*
X0184831Y0036918D03*
D26*
X0129202Y0093097D02*
X0129202Y0093337D01*
X0113099Y0119869D02*
X0113099Y0120109D01*
X0161562Y0117312D02*
X0161802Y0117312D01*
X0147589Y0152430D02*
X0147349Y0152430D01*
X0252546Y0189792D02*
X0252786Y0189792D01*
X0288217Y0153534D02*
X0288217Y0153294D01*
X0287627Y0138022D02*
X0287627Y0137782D01*
X0366800Y0166680D02*
X0366800Y0166920D01*
D27*
X0377410Y0150304D02*
X0378910Y0150304D01*
X0410910Y0150304D02*
X0412410Y0150304D01*
D28*
X0414110Y0150304D03*
X0409110Y0150304D03*
X0380710Y0150304D03*
X0375710Y0150304D03*
D29*
X0600580Y0137194D03*
X0600580Y0132469D03*
D30*
X0033611Y0131052D02*
X0033611Y0134989D01*
X0033611Y0131052D02*
X0029674Y0131052D01*
X0017863Y0131052D02*
X0013926Y0131052D01*
X0033611Y0158611D02*
X0033611Y0162548D01*
X0033540Y0162520D02*
X0029674Y0162520D01*
X0029674Y0162548D01*
X0017863Y0162548D02*
X0013926Y0162548D01*
D31*
X0512273Y0159241D02*
X0512275Y0159303D01*
X0512281Y0159366D01*
X0512291Y0159427D01*
X0512305Y0159488D01*
X0512322Y0159548D01*
X0512343Y0159607D01*
X0512369Y0159664D01*
X0512397Y0159719D01*
X0512429Y0159773D01*
X0512465Y0159824D01*
X0512503Y0159874D01*
X0512545Y0159920D01*
X0512589Y0159964D01*
X0512637Y0160005D01*
X0512686Y0160043D01*
X0512738Y0160077D01*
X0512792Y0160108D01*
X0512848Y0160136D01*
X0512906Y0160160D01*
X0512965Y0160181D01*
X0513025Y0160197D01*
X0513086Y0160210D01*
X0513148Y0160219D01*
X0513210Y0160224D01*
X0513273Y0160225D01*
X0513335Y0160222D01*
X0513397Y0160215D01*
X0513459Y0160204D01*
X0513519Y0160189D01*
X0513579Y0160171D01*
X0513637Y0160149D01*
X0513694Y0160123D01*
X0513749Y0160093D01*
X0513802Y0160060D01*
X0513853Y0160024D01*
X0513901Y0159985D01*
X0513947Y0159942D01*
X0513990Y0159897D01*
X0514030Y0159849D01*
X0514067Y0159799D01*
X0514101Y0159746D01*
X0514132Y0159692D01*
X0514158Y0159636D01*
X0514182Y0159578D01*
X0514201Y0159518D01*
X0514217Y0159458D01*
X0514229Y0159396D01*
X0514237Y0159335D01*
X0514241Y0159272D01*
X0514241Y0159210D01*
X0514237Y0159147D01*
X0514229Y0159086D01*
X0514217Y0159024D01*
X0514201Y0158964D01*
X0514182Y0158904D01*
X0514158Y0158846D01*
X0514132Y0158790D01*
X0514101Y0158736D01*
X0514067Y0158683D01*
X0514030Y0158633D01*
X0513990Y0158585D01*
X0513947Y0158540D01*
X0513901Y0158497D01*
X0513853Y0158458D01*
X0513802Y0158422D01*
X0513749Y0158389D01*
X0513694Y0158359D01*
X0513637Y0158333D01*
X0513579Y0158311D01*
X0513519Y0158293D01*
X0513459Y0158278D01*
X0513397Y0158267D01*
X0513335Y0158260D01*
X0513273Y0158257D01*
X0513210Y0158258D01*
X0513148Y0158263D01*
X0513086Y0158272D01*
X0513025Y0158285D01*
X0512965Y0158301D01*
X0512906Y0158322D01*
X0512848Y0158346D01*
X0512792Y0158374D01*
X0512738Y0158405D01*
X0512686Y0158439D01*
X0512637Y0158477D01*
X0512589Y0158518D01*
X0512545Y0158562D01*
X0512503Y0158608D01*
X0512465Y0158658D01*
X0512429Y0158709D01*
X0512397Y0158763D01*
X0512369Y0158818D01*
X0512343Y0158875D01*
X0512322Y0158934D01*
X0512305Y0158994D01*
X0512291Y0159055D01*
X0512281Y0159116D01*
X0512275Y0159179D01*
X0512273Y0159241D01*
D32*
X0582036Y0159044D02*
X0582036Y0212194D01*
X0654871Y0212194D01*
X0654871Y0159044D01*
X0582036Y0159044D01*
M02*
