%
M48
M72
T01C0.02400
T02C0.03200
T03C0.03307
T04C0.03346
T05C0.03400
T06C0.04000
T07C0.05118
T08C0.12992
%
T01
X122700Y80400
X167700Y103800
X171300Y95700
X197400Y93000
X246900Y100200
X264000Y100200
X274800Y100200
X268500Y107400
X288300Y100200
X291900Y93900
X288300Y84900
X264000Y86700
X264000Y93900
X247800Y81300
X206400Y50700
X202800Y37200
X229800Y46200
X247800Y49800
X347700Y90300
X347700Y101100
X344100Y109200
X344100Y114600
X350400Y114600
X360300Y115500
X363900Y119100
X369300Y119100
X346800Y120900
X336000Y117300
X329700Y129000
X314400Y129000
X309000Y129000
X324300Y140700
X324300Y151500
X327900Y155100
X320700Y162300
X314400Y162300
X314400Y156900
X300000Y159600
X294600Y160500
X314400Y174000
X304500Y179400
X291900Y183000
X288300Y179400
X268500Y183000
X251400Y170400
X231600Y161400
X239700Y153300
X250500Y142500
X256800Y122700
X204600Y129000
X193800Y127200
X159600Y144300
X158700Y153300
X152400Y162300
X186600Y173100
X194700Y162300
X204600Y162300
X205500Y179400
X205500Y184800
X124500Y141600
X110100Y127200
X336000Y174900
X349500Y168600
X355800Y158700
X345000Y146100
X353100Y139800
X349500Y136200
X360300Y139800
X392700Y120000
X408000Y101100
X381900Y96600
X394500Y75000
X508800Y57000
X516000Y60600
X495300Y165000
X497100Y172200
X516000Y193800
X542100Y211800
X552900Y217200
X422400Y175800
X413400Y172200
X399900Y168600
X384600Y239700
X241500Y255000
X175800Y255900
T02
X259005Y163115
X259005Y151115
X369910Y150304
X419910Y150304
X549713Y192769
X549713Y204769
T03
X512632Y248138
X500968Y248138
X490640Y253559
X484014Y263158
X482608Y274737
X486744Y285644
X495475Y293378
X506800Y296170
X518125Y293378
X526856Y285644
X530992Y274737
X529586Y263158
X522960Y253559
X574014Y263158
X580640Y253559
X590968Y248138
X602632Y248138
X612960Y253559
X619586Y263158
X620992Y274737
X616856Y285644
X608125Y293378
X596800Y296170
X585475Y293378
X576744Y285644
X572608Y274737
X410992Y274737
X406856Y285644
X398125Y293378
X386800Y296170
X375475Y293378
X366744Y285644
X362608Y274737
X364014Y263158
X370640Y253559
X380968Y248138
X392632Y248138
X402960Y253559
X409586Y263158
X315992Y274737
X311856Y285644
X303125Y293378
X291800Y296170
X280475Y293378
X271744Y285644
X267608Y274737
X269014Y263158
X275640Y253559
X285968Y248138
X297632Y248138
X307960Y253559
X314586Y263158
X195992Y274737
X191856Y285644
X183125Y293378
X171800Y296170
X160475Y293378
X151744Y285644
X147608Y274737
X149014Y263158
X155640Y253559
X165968Y248138
X177632Y248138
X187960Y253559
X194586Y263158
X100992Y274737
X96856Y285644
X88125Y293378
X76800Y296170
X65475Y293378
X56744Y285644
X52608Y274737
X54014Y263158
X60640Y253559
X70968Y248138
X82632Y248138
X92960Y253559
X99586Y263158
T04
X30461Y154280
X30461Y139320
T05
X386839Y181796
X396839Y181796
X406839Y181796
X416839Y181796
X426839Y181796
X436839Y181796
X446839Y181796
X456839Y181796
X456839Y214796
X446839Y214796
X436839Y214796
X426839Y214796
X416839Y214796
X406839Y214796
X396839Y214796
X386839Y214796
T06
X384398Y131209
X394398Y131209
X404398Y131209
X414398Y131209
X374398Y131209
X152233Y48217
X142233Y48217
X132233Y48217
X122233Y48217
X112233Y48217
X102233Y48217
X101170Y66997
X111170Y66997
X121170Y66997
X131170Y66997
X141170Y66997
T07
X256367Y130698
X256367Y209438
T08
X29477Y37706
X28690Y306013
X641091Y305619
X642076Y35737
M30
