G75*
%MOIN*%
%OFA0B0*%
%FSLAX25Y25*%
%IPPOS*%
%LPD*%
%AMOC8*
5,1,8,0,0,1.08239X$1,22.5*
%
%ADD10R,0.02375X0.02965*%
%ADD11R,0.02965X0.02965*%
%ADD12R,0.03162X0.02375*%
%ADD13R,0.06706X0.10249*%
%ADD14C,0.02769*%
%ADD15C,0.03400*%
%ADD16R,0.07808X0.06902*%
%ADD17R,0.05800X0.03000*%
%ADD18R,0.03000X0.05800*%
%ADD19R,0.21272X0.09068*%
%ADD20R,0.08674X0.07493*%
%ADD21C,0.08477*%
%ADD22R,0.20800X0.07800*%
%ADD23R,0.06800X0.03800*%
%ADD24R,0.05600X0.09600*%
%ADD25R,0.14973X0.09461*%
%ADD26R,0.03950X0.06312*%
%ADD27C,0.06600*%
%ADD28R,0.03937X0.06299*%
%ADD29R,0.05800X0.03300*%
%ADD30C,0.04000*%
%ADD31R,0.12414X0.04737*%
%ADD32R,0.01981X0.03753*%
%ADD33R,0.05524X0.05524*%
%ADD34R,0.04737X0.05131*%
%ADD35R,0.05131X0.04737*%
%ADD36OC8,0.06000*%
%ADD37C,0.06800*%
%ADD38R,0.02454X0.04087*%
%ADD39R,0.06312X0.02375*%
%ADD40C,0.04146*%
%ADD41R,0.07800X0.46800*%
%ADD42R,0.03162X0.09461*%
%ADD43R,0.09461X0.04146*%
%ADD44R,0.04934X0.04737*%
%ADD45R,0.07887X0.03950*%
%ADD46C,0.06107*%
%ADD47R,0.04343X0.07099*%
%ADD48C,0.01075*%
%ADD49R,0.03556X0.04343*%
%ADD50C,0.04800*%
%ADD51OC8,0.17792*%
D10*
X0156209Y0131209D03*
X0159950Y0131209D03*
X0163690Y0131209D03*
D11*
X0163690Y0140265D03*
X0159950Y0140265D03*
X0156209Y0140265D03*
D12*
X0526013Y0039162D03*
X0526013Y0035225D03*
X0526013Y0031288D03*
X0537036Y0031288D03*
X0537036Y0035225D03*
X0537036Y0039162D03*
D13*
X0531524Y0035225D03*
D14*
X0529556Y0035225D03*
D15*
X0456839Y0181796D03*
X0446839Y0181796D03*
X0436839Y0181796D03*
X0426839Y0181796D03*
X0416839Y0181796D03*
X0406839Y0181796D03*
X0396839Y0181796D03*
X0386839Y0181796D03*
X0386839Y0214796D03*
X0396839Y0214796D03*
X0406839Y0214796D03*
X0406839Y0214796D03*
X0406839Y0214796D03*
X0416839Y0214796D03*
X0426839Y0214796D03*
X0436839Y0214796D03*
X0446839Y0214796D03*
X0456839Y0214796D03*
D16*
X0310501Y0093493D03*
X0300501Y0093493D03*
X0281170Y0093769D03*
X0271170Y0093769D03*
X0251170Y0093887D03*
X0241170Y0093887D03*
X0221879Y0093769D03*
X0211879Y0093769D03*
X0191091Y0093769D03*
X0181091Y0093769D03*
X0181091Y0056209D03*
X0191091Y0056209D03*
X0211879Y0056209D03*
X0221879Y0056209D03*
X0241170Y0056328D03*
X0251170Y0056328D03*
X0271170Y0056209D03*
X0281170Y0056209D03*
X0300501Y0055934D03*
X0310501Y0055934D03*
X0328926Y0054635D03*
X0338926Y0054635D03*
X0356367Y0052824D03*
X0366367Y0052824D03*
X0366367Y0090383D03*
X0356367Y0090383D03*
X0338926Y0092194D03*
X0328926Y0092194D03*
D17*
X0339251Y0140383D03*
X0339251Y0143532D03*
X0339251Y0146682D03*
X0339251Y0149831D03*
X0339251Y0152981D03*
X0339251Y0156131D03*
X0339251Y0159280D03*
X0339251Y0162430D03*
X0305451Y0162430D03*
X0305451Y0159280D03*
X0305451Y0156131D03*
X0305451Y0152981D03*
X0305451Y0149831D03*
X0305451Y0146682D03*
X0305451Y0143532D03*
X0305451Y0140383D03*
D18*
X0311328Y0134506D03*
X0314477Y0134506D03*
X0317627Y0134506D03*
X0320776Y0134506D03*
X0323926Y0134506D03*
X0327076Y0134506D03*
X0330225Y0134506D03*
X0333375Y0134506D03*
X0333375Y0168306D03*
X0330225Y0168306D03*
X0327076Y0168306D03*
X0323926Y0168306D03*
X0320776Y0168306D03*
X0317627Y0168306D03*
X0314477Y0168306D03*
X0311328Y0168306D03*
D19*
X0224556Y0178414D03*
X0224556Y0193375D03*
D20*
X0232312Y0123611D03*
X0214202Y0123611D03*
D21*
X0256367Y0130698D03*
X0256367Y0209438D03*
D22*
X0285083Y0114635D03*
X0323083Y0114635D03*
D23*
X0330658Y0179300D03*
X0310658Y0179300D03*
X0310658Y0194300D03*
X0330658Y0194300D03*
D24*
X0498133Y0186057D03*
X0507233Y0186057D03*
X0516333Y0186057D03*
D25*
X0507233Y0210457D03*
D26*
X0228154Y0148040D03*
X0216154Y0148040D03*
D27*
X0221054Y0154956D02*
X0223254Y0154956D01*
X0221054Y0154956D02*
X0221054Y0163526D01*
X0223254Y0163526D01*
X0223254Y0154956D01*
X0223254Y0161555D02*
X0221054Y0161555D01*
D28*
X0222154Y0147745D03*
D29*
X0246505Y0147115D03*
X0246505Y0157115D03*
X0246505Y0167115D03*
X0271505Y0167115D03*
X0271505Y0157115D03*
X0271505Y0147115D03*
X0537213Y0188769D03*
X0537213Y0198769D03*
X0537213Y0208769D03*
X0562213Y0208769D03*
X0562213Y0198769D03*
X0562213Y0188769D03*
D30*
X0549713Y0192769D03*
X0549713Y0204769D03*
X0259005Y0163115D03*
X0259005Y0151115D03*
D31*
X0199280Y0167509D03*
X0180383Y0167509D03*
X0180658Y0121603D03*
X0199556Y0121603D03*
D32*
X0163394Y0158355D03*
X0160835Y0158355D03*
X0158276Y0158355D03*
X0155717Y0158355D03*
X0155717Y0181387D03*
X0158276Y0181387D03*
X0160835Y0181387D03*
X0163394Y0181387D03*
D33*
X0132784Y0182666D03*
X0124438Y0182548D03*
X0124438Y0174280D03*
X0132784Y0174398D03*
X0474595Y0147745D03*
X0474595Y0139477D03*
X0597036Y0134831D03*
X0605304Y0134831D03*
D34*
X0252666Y0186446D03*
X0252666Y0193139D03*
X0142509Y0182115D03*
X0142509Y0175422D03*
X0114831Y0175855D03*
X0114831Y0182548D03*
X0147469Y0155776D03*
X0147469Y0149083D03*
X0148611Y0120107D03*
X0161682Y0120658D03*
X0161682Y0113965D03*
X0148611Y0113414D03*
X0160816Y0103611D03*
X0160816Y0096918D03*
D35*
X0132548Y0093217D03*
X0125855Y0093217D03*
X0116446Y0119989D03*
X0109753Y0119989D03*
X0123532Y0120343D03*
X0130225Y0120343D03*
X0274123Y0195186D03*
X0280816Y0195186D03*
X0363454Y0166800D03*
X0370146Y0166800D03*
X0291564Y0153414D03*
X0284871Y0153414D03*
X0284280Y0137902D03*
X0290973Y0137902D03*
X0381367Y0106524D03*
X0388060Y0106524D03*
X0401249Y0106879D03*
X0407942Y0106879D03*
X0485580Y0121564D03*
X0492272Y0121564D03*
X0481091Y0158572D03*
X0474398Y0158572D03*
X0619635Y0132824D03*
X0626328Y0132824D03*
X0364320Y0037981D03*
X0357627Y0037981D03*
X0337076Y0037351D03*
X0330383Y0037351D03*
X0308257Y0036761D03*
X0301564Y0036761D03*
X0279044Y0036249D03*
X0272351Y0036249D03*
X0247666Y0035973D03*
X0240973Y0035973D03*
X0219556Y0035658D03*
X0212863Y0035658D03*
X0188178Y0036918D03*
X0181485Y0036918D03*
D36*
X0369910Y0150304D03*
X0419910Y0150304D03*
D37*
X0414398Y0134209D02*
X0414398Y0128209D01*
X0404398Y0128209D02*
X0404398Y0134209D01*
X0394398Y0134209D02*
X0394398Y0128209D01*
X0384398Y0128209D02*
X0384398Y0134209D01*
X0374398Y0134209D02*
X0374398Y0128209D01*
X0152233Y0051217D02*
X0152233Y0045217D01*
X0142233Y0045217D02*
X0142233Y0051217D01*
X0132233Y0051217D02*
X0132233Y0045217D01*
X0122233Y0045217D02*
X0122233Y0051217D01*
X0112233Y0051217D02*
X0112233Y0045217D01*
X0102233Y0045217D02*
X0102233Y0051217D01*
X0101170Y0063997D02*
X0101170Y0069997D01*
X0111170Y0069997D02*
X0111170Y0063997D01*
X0121170Y0063997D02*
X0121170Y0069997D01*
X0131170Y0069997D02*
X0131170Y0063997D01*
X0141170Y0063997D02*
X0141170Y0069997D01*
D38*
X0129300Y0136643D03*
X0124300Y0136643D03*
X0119300Y0136643D03*
X0114300Y0136643D03*
X0114300Y0156957D03*
X0119300Y0156957D03*
X0124300Y0156957D03*
X0129300Y0156957D03*
D39*
X0032430Y0151918D03*
X0032430Y0149359D03*
X0032430Y0146800D03*
X0032430Y0144241D03*
X0032430Y0141682D03*
D40*
X0030461Y0139320D03*
X0030461Y0154280D03*
D41*
X0021800Y0146800D03*
D42*
X0389694Y0082942D03*
X0394694Y0082942D03*
X0399694Y0082942D03*
X0404694Y0082942D03*
X0409694Y0082942D03*
X0414694Y0082942D03*
X0419694Y0082942D03*
X0424694Y0082942D03*
X0424694Y0046721D03*
X0419694Y0046721D03*
X0414694Y0046721D03*
X0409694Y0046721D03*
X0404694Y0046721D03*
X0399694Y0046721D03*
X0394694Y0046721D03*
X0389694Y0046721D03*
D43*
X0499202Y0071032D03*
X0499202Y0081859D03*
D44*
X0505206Y0076446D03*
X0493198Y0076446D03*
D45*
X0504359Y0104162D03*
X0504359Y0108493D03*
X0504359Y0112824D03*
X0504359Y0117154D03*
X0504359Y0121485D03*
X0504359Y0133296D03*
X0504359Y0137627D03*
X0504359Y0141957D03*
X0504359Y0146288D03*
X0504359Y0150619D03*
X0504359Y0154950D03*
X0504359Y0159280D03*
X0551603Y0159280D03*
X0551603Y0154950D03*
X0551603Y0150619D03*
X0551603Y0146288D03*
X0551603Y0141957D03*
X0551603Y0137627D03*
X0551603Y0133296D03*
X0551603Y0121485D03*
X0551603Y0117154D03*
X0551603Y0112824D03*
X0551603Y0108493D03*
X0551603Y0104162D03*
D46*
X0512632Y0248138D03*
X0500968Y0248138D03*
X0490640Y0253559D03*
X0484014Y0263158D03*
X0482608Y0274737D03*
X0486744Y0285644D03*
X0495475Y0293378D03*
X0506800Y0296170D03*
X0518125Y0293378D03*
X0526856Y0285644D03*
X0530992Y0274737D03*
X0529586Y0263158D03*
X0522960Y0253559D03*
X0574014Y0263158D03*
X0580640Y0253559D03*
X0590968Y0248138D03*
X0602632Y0248138D03*
X0612960Y0253559D03*
X0619586Y0263158D03*
X0620992Y0274737D03*
X0616856Y0285644D03*
X0608125Y0293378D03*
X0596800Y0296170D03*
X0585475Y0293378D03*
X0576744Y0285644D03*
X0572608Y0274737D03*
X0410992Y0274737D03*
X0406856Y0285644D03*
X0398125Y0293378D03*
X0386800Y0296170D03*
X0375475Y0293378D03*
X0366744Y0285644D03*
X0362608Y0274737D03*
X0364014Y0263158D03*
X0370640Y0253559D03*
X0380968Y0248138D03*
X0392632Y0248138D03*
X0402960Y0253559D03*
X0409586Y0263158D03*
X0315992Y0274737D03*
X0311856Y0285644D03*
X0303125Y0293378D03*
X0291800Y0296170D03*
X0280475Y0293378D03*
X0271744Y0285644D03*
X0267608Y0274737D03*
X0269014Y0263158D03*
X0275640Y0253559D03*
X0285968Y0248138D03*
X0297632Y0248138D03*
X0307960Y0253559D03*
X0314586Y0263158D03*
X0195992Y0274737D03*
X0191856Y0285644D03*
X0183125Y0293378D03*
X0171800Y0296170D03*
X0160475Y0293378D03*
X0151744Y0285644D03*
X0147608Y0274737D03*
X0149014Y0263158D03*
X0155640Y0253559D03*
X0165968Y0248138D03*
X0177632Y0248138D03*
X0187960Y0253559D03*
X0194586Y0263158D03*
X0100992Y0274737D03*
X0096856Y0285644D03*
X0088125Y0293378D03*
X0076800Y0296170D03*
X0065475Y0293378D03*
X0056744Y0285644D03*
X0052608Y0274737D03*
X0054014Y0263158D03*
X0060640Y0253559D03*
X0070968Y0248138D03*
X0082632Y0248138D03*
X0092960Y0253559D03*
X0099586Y0263158D03*
D47*
X0585973Y0212194D03*
X0591879Y0212194D03*
X0597784Y0212194D03*
X0603690Y0212194D03*
X0609595Y0212194D03*
X0615501Y0212194D03*
X0621406Y0212194D03*
X0627312Y0212194D03*
X0627312Y0159044D03*
X0621406Y0159044D03*
X0615501Y0159044D03*
X0609595Y0159044D03*
X0603690Y0159044D03*
X0597784Y0159044D03*
X0591879Y0159044D03*
X0585973Y0159044D03*
D48*
X0493342Y0109715D02*
X0490116Y0109715D01*
X0490116Y0112941D01*
X0493342Y0112941D01*
X0493342Y0109715D01*
X0493342Y0110789D02*
X0490116Y0110789D01*
X0490116Y0111863D02*
X0493342Y0111863D01*
X0493342Y0112937D02*
X0490116Y0112937D01*
X0487342Y0109715D02*
X0484116Y0109715D01*
X0484116Y0112941D01*
X0487342Y0112941D01*
X0487342Y0109715D01*
X0487342Y0110789D02*
X0484116Y0110789D01*
X0484116Y0111863D02*
X0487342Y0111863D01*
X0487342Y0112937D02*
X0484116Y0112937D01*
D49*
X0486957Y0101485D03*
X0492076Y0101485D03*
D50*
X0516000Y0060600D03*
X0508800Y0057000D03*
X0408000Y0101100D03*
X0381900Y0096600D03*
X0347700Y0101100D03*
X0344100Y0109200D03*
X0344100Y0114600D03*
X0350400Y0114600D03*
X0360300Y0115500D03*
X0363900Y0119100D03*
X0369300Y0119100D03*
X0346800Y0120900D03*
X0336000Y0117300D03*
X0329700Y0129000D03*
X0314400Y0129000D03*
X0309000Y0129000D03*
X0324300Y0140700D03*
X0324300Y0151500D03*
X0327900Y0155100D03*
X0320700Y0162300D03*
X0314400Y0162300D03*
X0314400Y0156900D03*
X0300000Y0159600D03*
X0294600Y0160500D03*
X0314400Y0174000D03*
X0304500Y0179400D03*
X0291900Y0183000D03*
X0288300Y0179400D03*
X0268500Y0183000D03*
X0251400Y0170400D03*
X0231600Y0161400D03*
X0239700Y0153300D03*
X0250500Y0142500D03*
X0256800Y0122700D03*
X0268500Y0107400D03*
X0264000Y0100200D03*
X0274800Y0100200D03*
X0264000Y0093900D03*
X0264000Y0086700D03*
X0247800Y0081300D03*
X0246900Y0100200D03*
X0288300Y0100200D03*
X0291900Y0093900D03*
X0288300Y0084900D03*
X0347700Y0090300D03*
X0394500Y0075000D03*
X0392700Y0120000D03*
X0360300Y0139800D03*
X0353100Y0139800D03*
X0349500Y0136200D03*
X0345000Y0146100D03*
X0355800Y0158700D03*
X0349500Y0168600D03*
X0336000Y0174900D03*
X0399900Y0168600D03*
X0413400Y0172200D03*
X0422400Y0175800D03*
X0495300Y0165000D03*
X0497100Y0172200D03*
X0516000Y0193800D03*
X0542100Y0211800D03*
X0552900Y0217200D03*
X0384600Y0239700D03*
X0241500Y0255000D03*
X0175800Y0255900D03*
X0205500Y0184800D03*
X0205500Y0179400D03*
X0186600Y0173100D03*
X0194700Y0162300D03*
X0204600Y0162300D03*
X0158700Y0153300D03*
X0159600Y0144300D03*
X0152400Y0162300D03*
X0124500Y0141600D03*
X0110100Y0127200D03*
X0167700Y0103800D03*
X0171300Y0095700D03*
X0197400Y0093000D03*
X0193800Y0127200D03*
X0204600Y0129000D03*
X0122700Y0080400D03*
X0206400Y0050700D03*
X0202800Y0037200D03*
X0229800Y0046200D03*
X0247800Y0049800D03*
D51*
X0029477Y0037706D03*
X0028690Y0306013D03*
X0641091Y0305619D03*
X0642076Y0035737D03*
M02*
